M48
; DRILL file {KiCad (5.1.6-0-10_14)} date Tuesday, June 02, 2020 at 07:40:06 PM
; FORMAT={-:-/ absolute / inch / decimal}
; #@! TF.CreationDate,2020-06-02T19:40:06-04:00
; #@! TF.GenerationSoftware,Kicad,Pcbnew,(5.1.6-0-10_14)
; #@! TF.FileFunction,Plated,1,2,PTH
FMAT,2
INCH
T1C0.0157
T2C0.0276
T3C0.0394
%
G90
G05
T1
X3.878Y-1.4173
X4.1339Y-1.4764
T2
X3.2539Y-2.0039
X3.289Y-1.5827
X3.328Y-2.0039
X3.363Y-1.5827
X3.398Y-2.0039
X3.4331Y-1.5827
X3.4681Y-2.0039
X3.5031Y-1.5827
X3.5382Y-2.0039
X3.5732Y-1.5827
X3.6083Y-2.0039
X3.6433Y-1.5827
X3.6783Y-2.0039
X3.7134Y-1.5827
X3.7484Y-2.0039
X3.7835Y-1.5827
T3
X4.2717Y-1.6043
X4.2717Y-1.7043
X4.2717Y-1.8043
X4.2717Y-1.9043
X4.2717Y-2.0043
X4.3717Y-1.6043
X4.3717Y-1.7043
X4.3717Y-1.8043
X4.3717Y-1.9043
X4.3717Y-2.0043
T0
M30
