G04 #@! TF.GenerationSoftware,KiCad,Pcbnew,(5.1.6-0-10_14)*
G04 #@! TF.CreationDate,2020-06-02T19:40:10-04:00*
G04 #@! TF.ProjectId,PMW3360_Adapter,504d5733-3336-4305-9f41-646170746572,rev?*
G04 #@! TF.SameCoordinates,Original*
G04 #@! TF.FileFunction,Soldermask,Bot*
G04 #@! TF.FilePolarity,Negative*
%FSLAX46Y46*%
G04 Gerber Fmt 4.6, Leading zero omitted, Abs format (unit mm)*
G04 Created by KiCad (PCBNEW (5.1.6-0-10_14)) date 2020-06-02 19:40:10*
%MOMM*%
%LPD*%
G01*
G04 APERTURE LIST*
%ADD10C,0.100000*%
G04 APERTURE END LIST*
D10*
G36*
X111153512Y-50013927D02*
G01*
X111302812Y-50043624D01*
X111466784Y-50111544D01*
X111614354Y-50210147D01*
X111739853Y-50335646D01*
X111838456Y-50483216D01*
X111906376Y-50647188D01*
X111941000Y-50821259D01*
X111941000Y-50998741D01*
X111906376Y-51172812D01*
X111838456Y-51336784D01*
X111739853Y-51484354D01*
X111614354Y-51609853D01*
X111466784Y-51708456D01*
X111302812Y-51776376D01*
X111153512Y-51806073D01*
X111128742Y-51811000D01*
X110951258Y-51811000D01*
X110926488Y-51806073D01*
X110777188Y-51776376D01*
X110613216Y-51708456D01*
X110465646Y-51609853D01*
X110340147Y-51484354D01*
X110241544Y-51336784D01*
X110173624Y-51172812D01*
X110139000Y-50998741D01*
X110139000Y-50821259D01*
X110173624Y-50647188D01*
X110241544Y-50483216D01*
X110340147Y-50335646D01*
X110465646Y-50210147D01*
X110613216Y-50111544D01*
X110777188Y-50043624D01*
X110926488Y-50013927D01*
X110951258Y-50009000D01*
X111128742Y-50009000D01*
X111153512Y-50013927D01*
G37*
G36*
X108613512Y-50013927D02*
G01*
X108762812Y-50043624D01*
X108926784Y-50111544D01*
X109074354Y-50210147D01*
X109199853Y-50335646D01*
X109298456Y-50483216D01*
X109366376Y-50647188D01*
X109401000Y-50821259D01*
X109401000Y-50998741D01*
X109366376Y-51172812D01*
X109298456Y-51336784D01*
X109199853Y-51484354D01*
X109074354Y-51609853D01*
X108926784Y-51708456D01*
X108762812Y-51776376D01*
X108613512Y-51806073D01*
X108588742Y-51811000D01*
X108411258Y-51811000D01*
X108386488Y-51806073D01*
X108237188Y-51776376D01*
X108073216Y-51708456D01*
X107925646Y-51609853D01*
X107800147Y-51484354D01*
X107701544Y-51336784D01*
X107633624Y-51172812D01*
X107599000Y-50998741D01*
X107599000Y-50821259D01*
X107633624Y-50647188D01*
X107701544Y-50483216D01*
X107800147Y-50335646D01*
X107925646Y-50210147D01*
X108073216Y-50111544D01*
X108237188Y-50043624D01*
X108386488Y-50013927D01*
X108411258Y-50009000D01*
X108588742Y-50009000D01*
X108613512Y-50013927D01*
G37*
G36*
X91839890Y-50274017D02*
G01*
X91958364Y-50323091D01*
X91977155Y-50335647D01*
X92064988Y-50394335D01*
X92155665Y-50485012D01*
X92226910Y-50591638D01*
X92275983Y-50710110D01*
X92298092Y-50821259D01*
X92301000Y-50835882D01*
X92301000Y-50964118D01*
X92275983Y-51089890D01*
X92226909Y-51208364D01*
X92155665Y-51314988D01*
X92064988Y-51405665D01*
X91958364Y-51476909D01*
X91958363Y-51476910D01*
X91958362Y-51476910D01*
X91839890Y-51525983D01*
X91714119Y-51551000D01*
X91585881Y-51551000D01*
X91460110Y-51525983D01*
X91341638Y-51476910D01*
X91341637Y-51476910D01*
X91341636Y-51476909D01*
X91235012Y-51405665D01*
X91144335Y-51314988D01*
X91073091Y-51208364D01*
X91024017Y-51089890D01*
X90999000Y-50964118D01*
X90999000Y-50835882D01*
X91001909Y-50821259D01*
X91024017Y-50710110D01*
X91073090Y-50591638D01*
X91144335Y-50485012D01*
X91235012Y-50394335D01*
X91322845Y-50335647D01*
X91341636Y-50323091D01*
X91460110Y-50274017D01*
X91585881Y-50249000D01*
X91714119Y-50249000D01*
X91839890Y-50274017D01*
G37*
G36*
X90059890Y-50274017D02*
G01*
X90178364Y-50323091D01*
X90197155Y-50335647D01*
X90284988Y-50394335D01*
X90375665Y-50485012D01*
X90446910Y-50591638D01*
X90495983Y-50710110D01*
X90518092Y-50821259D01*
X90521000Y-50835882D01*
X90521000Y-50964118D01*
X90495983Y-51089890D01*
X90446909Y-51208364D01*
X90375665Y-51314988D01*
X90284988Y-51405665D01*
X90178364Y-51476909D01*
X90178363Y-51476910D01*
X90178362Y-51476910D01*
X90059890Y-51525983D01*
X89934119Y-51551000D01*
X89805881Y-51551000D01*
X89680110Y-51525983D01*
X89561638Y-51476910D01*
X89561637Y-51476910D01*
X89561636Y-51476909D01*
X89455012Y-51405665D01*
X89364335Y-51314988D01*
X89293091Y-51208364D01*
X89244017Y-51089890D01*
X89219000Y-50964118D01*
X89219000Y-50835882D01*
X89221909Y-50821259D01*
X89244017Y-50710110D01*
X89293090Y-50591638D01*
X89364335Y-50485012D01*
X89455012Y-50394335D01*
X89542845Y-50335647D01*
X89561636Y-50323091D01*
X89680110Y-50274017D01*
X89805881Y-50249000D01*
X89934119Y-50249000D01*
X90059890Y-50274017D01*
G37*
G36*
X88279890Y-50274017D02*
G01*
X88398364Y-50323091D01*
X88417155Y-50335647D01*
X88504988Y-50394335D01*
X88595665Y-50485012D01*
X88666910Y-50591638D01*
X88715983Y-50710110D01*
X88738092Y-50821259D01*
X88741000Y-50835882D01*
X88741000Y-50964118D01*
X88715983Y-51089890D01*
X88666909Y-51208364D01*
X88595665Y-51314988D01*
X88504988Y-51405665D01*
X88398364Y-51476909D01*
X88398363Y-51476910D01*
X88398362Y-51476910D01*
X88279890Y-51525983D01*
X88154119Y-51551000D01*
X88025881Y-51551000D01*
X87900110Y-51525983D01*
X87781638Y-51476910D01*
X87781637Y-51476910D01*
X87781636Y-51476909D01*
X87675012Y-51405665D01*
X87584335Y-51314988D01*
X87513091Y-51208364D01*
X87464017Y-51089890D01*
X87439000Y-50964118D01*
X87439000Y-50835882D01*
X87441909Y-50821259D01*
X87464017Y-50710110D01*
X87513090Y-50591638D01*
X87584335Y-50485012D01*
X87675012Y-50394335D01*
X87762845Y-50335647D01*
X87781636Y-50323091D01*
X87900110Y-50274017D01*
X88025881Y-50249000D01*
X88154119Y-50249000D01*
X88279890Y-50274017D01*
G37*
G36*
X86499890Y-50274017D02*
G01*
X86618364Y-50323091D01*
X86637155Y-50335647D01*
X86724988Y-50394335D01*
X86815665Y-50485012D01*
X86886910Y-50591638D01*
X86935983Y-50710110D01*
X86958092Y-50821259D01*
X86961000Y-50835882D01*
X86961000Y-50964118D01*
X86935983Y-51089890D01*
X86886909Y-51208364D01*
X86815665Y-51314988D01*
X86724988Y-51405665D01*
X86618364Y-51476909D01*
X86618363Y-51476910D01*
X86618362Y-51476910D01*
X86499890Y-51525983D01*
X86374119Y-51551000D01*
X86245881Y-51551000D01*
X86120110Y-51525983D01*
X86001638Y-51476910D01*
X86001637Y-51476910D01*
X86001636Y-51476909D01*
X85895012Y-51405665D01*
X85804335Y-51314988D01*
X85733091Y-51208364D01*
X85684017Y-51089890D01*
X85659000Y-50964118D01*
X85659000Y-50835882D01*
X85661909Y-50821259D01*
X85684017Y-50710110D01*
X85733090Y-50591638D01*
X85804335Y-50485012D01*
X85895012Y-50394335D01*
X85982845Y-50335647D01*
X86001636Y-50323091D01*
X86120110Y-50274017D01*
X86245881Y-50249000D01*
X86374119Y-50249000D01*
X86499890Y-50274017D01*
G37*
G36*
X84719890Y-50274017D02*
G01*
X84838364Y-50323091D01*
X84857155Y-50335647D01*
X84944988Y-50394335D01*
X85035665Y-50485012D01*
X85106910Y-50591638D01*
X85155983Y-50710110D01*
X85178092Y-50821259D01*
X85181000Y-50835882D01*
X85181000Y-50964118D01*
X85155983Y-51089890D01*
X85106909Y-51208364D01*
X85035665Y-51314988D01*
X84944988Y-51405665D01*
X84838364Y-51476909D01*
X84838363Y-51476910D01*
X84838362Y-51476910D01*
X84719890Y-51525983D01*
X84594119Y-51551000D01*
X84465881Y-51551000D01*
X84340110Y-51525983D01*
X84221638Y-51476910D01*
X84221637Y-51476910D01*
X84221636Y-51476909D01*
X84115012Y-51405665D01*
X84024335Y-51314988D01*
X83953091Y-51208364D01*
X83904017Y-51089890D01*
X83879000Y-50964118D01*
X83879000Y-50835882D01*
X83881909Y-50821259D01*
X83904017Y-50710110D01*
X83953090Y-50591638D01*
X84024335Y-50485012D01*
X84115012Y-50394335D01*
X84202845Y-50335647D01*
X84221636Y-50323091D01*
X84340110Y-50274017D01*
X84465881Y-50249000D01*
X84594119Y-50249000D01*
X84719890Y-50274017D01*
G37*
G36*
X82839890Y-50274017D02*
G01*
X82958364Y-50323091D01*
X82977155Y-50335647D01*
X83064988Y-50394335D01*
X83155665Y-50485012D01*
X83226910Y-50591638D01*
X83275983Y-50710110D01*
X83298092Y-50821259D01*
X83301000Y-50835882D01*
X83301000Y-50964118D01*
X83275983Y-51089890D01*
X83226909Y-51208364D01*
X83155665Y-51314988D01*
X83064988Y-51405665D01*
X82958364Y-51476909D01*
X82958363Y-51476910D01*
X82958362Y-51476910D01*
X82839890Y-51525983D01*
X82714119Y-51551000D01*
X82585881Y-51551000D01*
X82460110Y-51525983D01*
X82341638Y-51476910D01*
X82341637Y-51476910D01*
X82341636Y-51476909D01*
X82235012Y-51405665D01*
X82144335Y-51314988D01*
X82073091Y-51208364D01*
X82024017Y-51089890D01*
X81999000Y-50964118D01*
X81999000Y-50835882D01*
X82001909Y-50821259D01*
X82024017Y-50710110D01*
X82073090Y-50591638D01*
X82144335Y-50485012D01*
X82235012Y-50394335D01*
X82322845Y-50335647D01*
X82341636Y-50323091D01*
X82460110Y-50274017D01*
X82585881Y-50249000D01*
X82714119Y-50249000D01*
X82839890Y-50274017D01*
G37*
G36*
X95399890Y-50274017D02*
G01*
X95518364Y-50323091D01*
X95537155Y-50335647D01*
X95624988Y-50394335D01*
X95715665Y-50485012D01*
X95786910Y-50591638D01*
X95835983Y-50710110D01*
X95858092Y-50821259D01*
X95861000Y-50835882D01*
X95861000Y-50964118D01*
X95835983Y-51089890D01*
X95786909Y-51208364D01*
X95715665Y-51314988D01*
X95624988Y-51405665D01*
X95518364Y-51476909D01*
X95518363Y-51476910D01*
X95518362Y-51476910D01*
X95399890Y-51525983D01*
X95274119Y-51551000D01*
X95145881Y-51551000D01*
X95020110Y-51525983D01*
X94901638Y-51476910D01*
X94901637Y-51476910D01*
X94901636Y-51476909D01*
X94795012Y-51405665D01*
X94704335Y-51314988D01*
X94633091Y-51208364D01*
X94584017Y-51089890D01*
X94559000Y-50964118D01*
X94559000Y-50835882D01*
X94561909Y-50821259D01*
X94584017Y-50710110D01*
X94633090Y-50591638D01*
X94704335Y-50485012D01*
X94795012Y-50394335D01*
X94882845Y-50335647D01*
X94901636Y-50323091D01*
X95020110Y-50274017D01*
X95145881Y-50249000D01*
X95274119Y-50249000D01*
X95399890Y-50274017D01*
G37*
G36*
X93619890Y-50274017D02*
G01*
X93738364Y-50323091D01*
X93757155Y-50335647D01*
X93844988Y-50394335D01*
X93935665Y-50485012D01*
X94006910Y-50591638D01*
X94055983Y-50710110D01*
X94078092Y-50821259D01*
X94081000Y-50835882D01*
X94081000Y-50964118D01*
X94055983Y-51089890D01*
X94006909Y-51208364D01*
X93935665Y-51314988D01*
X93844988Y-51405665D01*
X93738364Y-51476909D01*
X93738363Y-51476910D01*
X93738362Y-51476910D01*
X93619890Y-51525983D01*
X93494119Y-51551000D01*
X93365881Y-51551000D01*
X93240110Y-51525983D01*
X93121638Y-51476910D01*
X93121637Y-51476910D01*
X93121636Y-51476909D01*
X93015012Y-51405665D01*
X92924335Y-51314988D01*
X92853091Y-51208364D01*
X92804017Y-51089890D01*
X92779000Y-50964118D01*
X92779000Y-50835882D01*
X92781909Y-50821259D01*
X92804017Y-50710110D01*
X92853090Y-50591638D01*
X92924335Y-50485012D01*
X93015012Y-50394335D01*
X93102845Y-50335647D01*
X93121636Y-50323091D01*
X93240110Y-50274017D01*
X93365881Y-50249000D01*
X93494119Y-50249000D01*
X93619890Y-50274017D01*
G37*
G36*
X111153512Y-47473927D02*
G01*
X111302812Y-47503624D01*
X111466784Y-47571544D01*
X111614354Y-47670147D01*
X111739853Y-47795646D01*
X111838456Y-47943216D01*
X111906376Y-48107188D01*
X111941000Y-48281259D01*
X111941000Y-48458741D01*
X111906376Y-48632812D01*
X111838456Y-48796784D01*
X111739853Y-48944354D01*
X111614354Y-49069853D01*
X111466784Y-49168456D01*
X111302812Y-49236376D01*
X111153512Y-49266073D01*
X111128742Y-49271000D01*
X110951258Y-49271000D01*
X110926488Y-49266073D01*
X110777188Y-49236376D01*
X110613216Y-49168456D01*
X110465646Y-49069853D01*
X110340147Y-48944354D01*
X110241544Y-48796784D01*
X110173624Y-48632812D01*
X110139000Y-48458741D01*
X110139000Y-48281259D01*
X110173624Y-48107188D01*
X110241544Y-47943216D01*
X110340147Y-47795646D01*
X110465646Y-47670147D01*
X110613216Y-47571544D01*
X110777188Y-47503624D01*
X110926488Y-47473927D01*
X110951258Y-47469000D01*
X111128742Y-47469000D01*
X111153512Y-47473927D01*
G37*
G36*
X108613512Y-47473927D02*
G01*
X108762812Y-47503624D01*
X108926784Y-47571544D01*
X109074354Y-47670147D01*
X109199853Y-47795646D01*
X109298456Y-47943216D01*
X109366376Y-48107188D01*
X109401000Y-48281259D01*
X109401000Y-48458741D01*
X109366376Y-48632812D01*
X109298456Y-48796784D01*
X109199853Y-48944354D01*
X109074354Y-49069853D01*
X108926784Y-49168456D01*
X108762812Y-49236376D01*
X108613512Y-49266073D01*
X108588742Y-49271000D01*
X108411258Y-49271000D01*
X108386488Y-49266073D01*
X108237188Y-49236376D01*
X108073216Y-49168456D01*
X107925646Y-49069853D01*
X107800147Y-48944354D01*
X107701544Y-48796784D01*
X107633624Y-48632812D01*
X107599000Y-48458741D01*
X107599000Y-48281259D01*
X107633624Y-48107188D01*
X107701544Y-47943216D01*
X107800147Y-47795646D01*
X107925646Y-47670147D01*
X108073216Y-47571544D01*
X108237188Y-47503624D01*
X108386488Y-47473927D01*
X108411258Y-47469000D01*
X108588742Y-47469000D01*
X108613512Y-47473927D01*
G37*
G36*
X111153512Y-44933927D02*
G01*
X111302812Y-44963624D01*
X111466784Y-45031544D01*
X111614354Y-45130147D01*
X111739853Y-45255646D01*
X111838456Y-45403216D01*
X111906376Y-45567188D01*
X111941000Y-45741259D01*
X111941000Y-45918741D01*
X111906376Y-46092812D01*
X111838456Y-46256784D01*
X111739853Y-46404354D01*
X111614354Y-46529853D01*
X111466784Y-46628456D01*
X111302812Y-46696376D01*
X111153512Y-46726073D01*
X111128742Y-46731000D01*
X110951258Y-46731000D01*
X110926488Y-46726073D01*
X110777188Y-46696376D01*
X110613216Y-46628456D01*
X110465646Y-46529853D01*
X110340147Y-46404354D01*
X110241544Y-46256784D01*
X110173624Y-46092812D01*
X110139000Y-45918741D01*
X110139000Y-45741259D01*
X110173624Y-45567188D01*
X110241544Y-45403216D01*
X110340147Y-45255646D01*
X110465646Y-45130147D01*
X110613216Y-45031544D01*
X110777188Y-44963624D01*
X110926488Y-44933927D01*
X110951258Y-44929000D01*
X111128742Y-44929000D01*
X111153512Y-44933927D01*
G37*
G36*
X108613512Y-44933927D02*
G01*
X108762812Y-44963624D01*
X108926784Y-45031544D01*
X109074354Y-45130147D01*
X109199853Y-45255646D01*
X109298456Y-45403216D01*
X109366376Y-45567188D01*
X109401000Y-45741259D01*
X109401000Y-45918741D01*
X109366376Y-46092812D01*
X109298456Y-46256784D01*
X109199853Y-46404354D01*
X109074354Y-46529853D01*
X108926784Y-46628456D01*
X108762812Y-46696376D01*
X108613512Y-46726073D01*
X108588742Y-46731000D01*
X108411258Y-46731000D01*
X108386488Y-46726073D01*
X108237188Y-46696376D01*
X108073216Y-46628456D01*
X107925646Y-46529853D01*
X107800147Y-46404354D01*
X107701544Y-46256784D01*
X107633624Y-46092812D01*
X107599000Y-45918741D01*
X107599000Y-45741259D01*
X107633624Y-45567188D01*
X107701544Y-45403216D01*
X107800147Y-45255646D01*
X107925646Y-45130147D01*
X108073216Y-45031544D01*
X108237188Y-44963624D01*
X108386488Y-44933927D01*
X108411258Y-44929000D01*
X108588742Y-44929000D01*
X108613512Y-44933927D01*
G37*
G36*
X111153512Y-42393927D02*
G01*
X111302812Y-42423624D01*
X111466784Y-42491544D01*
X111614354Y-42590147D01*
X111739853Y-42715646D01*
X111838456Y-42863216D01*
X111906376Y-43027188D01*
X111941000Y-43201259D01*
X111941000Y-43378741D01*
X111906376Y-43552812D01*
X111838456Y-43716784D01*
X111739853Y-43864354D01*
X111614354Y-43989853D01*
X111466784Y-44088456D01*
X111302812Y-44156376D01*
X111153512Y-44186073D01*
X111128742Y-44191000D01*
X110951258Y-44191000D01*
X110926488Y-44186073D01*
X110777188Y-44156376D01*
X110613216Y-44088456D01*
X110465646Y-43989853D01*
X110340147Y-43864354D01*
X110241544Y-43716784D01*
X110173624Y-43552812D01*
X110139000Y-43378741D01*
X110139000Y-43201259D01*
X110173624Y-43027188D01*
X110241544Y-42863216D01*
X110340147Y-42715646D01*
X110465646Y-42590147D01*
X110613216Y-42491544D01*
X110777188Y-42423624D01*
X110926488Y-42393927D01*
X110951258Y-42389000D01*
X111128742Y-42389000D01*
X111153512Y-42393927D01*
G37*
G36*
X108613512Y-42393927D02*
G01*
X108762812Y-42423624D01*
X108926784Y-42491544D01*
X109074354Y-42590147D01*
X109199853Y-42715646D01*
X109298456Y-42863216D01*
X109366376Y-43027188D01*
X109401000Y-43201259D01*
X109401000Y-43378741D01*
X109366376Y-43552812D01*
X109298456Y-43716784D01*
X109199853Y-43864354D01*
X109074354Y-43989853D01*
X108926784Y-44088456D01*
X108762812Y-44156376D01*
X108613512Y-44186073D01*
X108588742Y-44191000D01*
X108411258Y-44191000D01*
X108386488Y-44186073D01*
X108237188Y-44156376D01*
X108073216Y-44088456D01*
X107925646Y-43989853D01*
X107800147Y-43864354D01*
X107701544Y-43716784D01*
X107633624Y-43552812D01*
X107599000Y-43378741D01*
X107599000Y-43201259D01*
X107633624Y-43027188D01*
X107701544Y-42863216D01*
X107800147Y-42715646D01*
X107925646Y-42590147D01*
X108073216Y-42491544D01*
X108237188Y-42423624D01*
X108386488Y-42393927D01*
X108411258Y-42389000D01*
X108588742Y-42389000D01*
X108613512Y-42393927D01*
G37*
G36*
X111148796Y-39852989D02*
G01*
X111302812Y-39883624D01*
X111466784Y-39951544D01*
X111614354Y-40050147D01*
X111739853Y-40175646D01*
X111838456Y-40323216D01*
X111906376Y-40487188D01*
X111941000Y-40661259D01*
X111941000Y-40838741D01*
X111906376Y-41012812D01*
X111838456Y-41176784D01*
X111739853Y-41324354D01*
X111614354Y-41449853D01*
X111466784Y-41548456D01*
X111302812Y-41616376D01*
X111154341Y-41645908D01*
X111128742Y-41651000D01*
X110951258Y-41651000D01*
X110925659Y-41645908D01*
X110777188Y-41616376D01*
X110613216Y-41548456D01*
X110465646Y-41449853D01*
X110340147Y-41324354D01*
X110241544Y-41176784D01*
X110173624Y-41012812D01*
X110139000Y-40838741D01*
X110139000Y-40661259D01*
X110173624Y-40487188D01*
X110241544Y-40323216D01*
X110340147Y-40175646D01*
X110465646Y-40050147D01*
X110613216Y-39951544D01*
X110777188Y-39883624D01*
X110931204Y-39852989D01*
X110951258Y-39849000D01*
X111128742Y-39849000D01*
X111148796Y-39852989D01*
G37*
G36*
X109258600Y-39852989D02*
G01*
X109291652Y-39863015D01*
X109322103Y-39879292D01*
X109348799Y-39901201D01*
X109370708Y-39927897D01*
X109386985Y-39958348D01*
X109397011Y-39991400D01*
X109401000Y-40031903D01*
X109401000Y-41468097D01*
X109397011Y-41508600D01*
X109386985Y-41541652D01*
X109370708Y-41572103D01*
X109348799Y-41598799D01*
X109322103Y-41620708D01*
X109291652Y-41636985D01*
X109258600Y-41647011D01*
X109218097Y-41651000D01*
X107781903Y-41651000D01*
X107741400Y-41647011D01*
X107708348Y-41636985D01*
X107677897Y-41620708D01*
X107651201Y-41598799D01*
X107629292Y-41572103D01*
X107613015Y-41541652D01*
X107602989Y-41508600D01*
X107599000Y-41468097D01*
X107599000Y-40031903D01*
X107602989Y-39991400D01*
X107613015Y-39958348D01*
X107629292Y-39927897D01*
X107651201Y-39901201D01*
X107677897Y-39879292D01*
X107708348Y-39863015D01*
X107741400Y-39852989D01*
X107781903Y-39849000D01*
X109218097Y-39849000D01*
X109258600Y-39852989D01*
G37*
G36*
X83729890Y-39574017D02*
G01*
X83848364Y-39623091D01*
X83954988Y-39694335D01*
X84045665Y-39785012D01*
X84111556Y-39883624D01*
X84116910Y-39891638D01*
X84165983Y-40010110D01*
X84191000Y-40135881D01*
X84191000Y-40264119D01*
X84165983Y-40389890D01*
X84125681Y-40487188D01*
X84116909Y-40508364D01*
X84045665Y-40614988D01*
X83954988Y-40705665D01*
X83848364Y-40776909D01*
X83848363Y-40776910D01*
X83848362Y-40776910D01*
X83729890Y-40825983D01*
X83604119Y-40851000D01*
X83475881Y-40851000D01*
X83350110Y-40825983D01*
X83231638Y-40776910D01*
X83231637Y-40776910D01*
X83231636Y-40776909D01*
X83125012Y-40705665D01*
X83034335Y-40614988D01*
X82963091Y-40508364D01*
X82954320Y-40487188D01*
X82914017Y-40389890D01*
X82889000Y-40264119D01*
X82889000Y-40135881D01*
X82914017Y-40010110D01*
X82963090Y-39891638D01*
X82968445Y-39883624D01*
X83034335Y-39785012D01*
X83125012Y-39694335D01*
X83231636Y-39623091D01*
X83350110Y-39574017D01*
X83475881Y-39549000D01*
X83604119Y-39549000D01*
X83729890Y-39574017D01*
G37*
G36*
X87389890Y-39574017D02*
G01*
X87508364Y-39623091D01*
X87614988Y-39694335D01*
X87705665Y-39785012D01*
X87771556Y-39883624D01*
X87776910Y-39891638D01*
X87825983Y-40010110D01*
X87851000Y-40135881D01*
X87851000Y-40264119D01*
X87825983Y-40389890D01*
X87785681Y-40487188D01*
X87776909Y-40508364D01*
X87705665Y-40614988D01*
X87614988Y-40705665D01*
X87508364Y-40776909D01*
X87508363Y-40776910D01*
X87508362Y-40776910D01*
X87389890Y-40825983D01*
X87264119Y-40851000D01*
X87135881Y-40851000D01*
X87010110Y-40825983D01*
X86891638Y-40776910D01*
X86891637Y-40776910D01*
X86891636Y-40776909D01*
X86785012Y-40705665D01*
X86694335Y-40614988D01*
X86623091Y-40508364D01*
X86614320Y-40487188D01*
X86574017Y-40389890D01*
X86549000Y-40264119D01*
X86549000Y-40135881D01*
X86574017Y-40010110D01*
X86623090Y-39891638D01*
X86628445Y-39883624D01*
X86694335Y-39785012D01*
X86785012Y-39694335D01*
X86891636Y-39623091D01*
X87010110Y-39574017D01*
X87135881Y-39549000D01*
X87264119Y-39549000D01*
X87389890Y-39574017D01*
G37*
G36*
X89169890Y-39574017D02*
G01*
X89288364Y-39623091D01*
X89394988Y-39694335D01*
X89485665Y-39785012D01*
X89551556Y-39883624D01*
X89556910Y-39891638D01*
X89605983Y-40010110D01*
X89631000Y-40135881D01*
X89631000Y-40264119D01*
X89605983Y-40389890D01*
X89565681Y-40487188D01*
X89556909Y-40508364D01*
X89485665Y-40614988D01*
X89394988Y-40705665D01*
X89288364Y-40776909D01*
X89288363Y-40776910D01*
X89288362Y-40776910D01*
X89169890Y-40825983D01*
X89044119Y-40851000D01*
X88915881Y-40851000D01*
X88790110Y-40825983D01*
X88671638Y-40776910D01*
X88671637Y-40776910D01*
X88671636Y-40776909D01*
X88565012Y-40705665D01*
X88474335Y-40614988D01*
X88403091Y-40508364D01*
X88394320Y-40487188D01*
X88354017Y-40389890D01*
X88329000Y-40264119D01*
X88329000Y-40135881D01*
X88354017Y-40010110D01*
X88403090Y-39891638D01*
X88408445Y-39883624D01*
X88474335Y-39785012D01*
X88565012Y-39694335D01*
X88671636Y-39623091D01*
X88790110Y-39574017D01*
X88915881Y-39549000D01*
X89044119Y-39549000D01*
X89169890Y-39574017D01*
G37*
G36*
X85609890Y-39574017D02*
G01*
X85728364Y-39623091D01*
X85834988Y-39694335D01*
X85925665Y-39785012D01*
X85991556Y-39883624D01*
X85996910Y-39891638D01*
X86045983Y-40010110D01*
X86071000Y-40135881D01*
X86071000Y-40264119D01*
X86045983Y-40389890D01*
X86005681Y-40487188D01*
X85996909Y-40508364D01*
X85925665Y-40614988D01*
X85834988Y-40705665D01*
X85728364Y-40776909D01*
X85728363Y-40776910D01*
X85728362Y-40776910D01*
X85609890Y-40825983D01*
X85484119Y-40851000D01*
X85355881Y-40851000D01*
X85230110Y-40825983D01*
X85111638Y-40776910D01*
X85111637Y-40776910D01*
X85111636Y-40776909D01*
X85005012Y-40705665D01*
X84914335Y-40614988D01*
X84843091Y-40508364D01*
X84834320Y-40487188D01*
X84794017Y-40389890D01*
X84769000Y-40264119D01*
X84769000Y-40135881D01*
X84794017Y-40010110D01*
X84843090Y-39891638D01*
X84848445Y-39883624D01*
X84914335Y-39785012D01*
X85005012Y-39694335D01*
X85111636Y-39623091D01*
X85230110Y-39574017D01*
X85355881Y-39549000D01*
X85484119Y-39549000D01*
X85609890Y-39574017D01*
G37*
G36*
X90949890Y-39574017D02*
G01*
X91068364Y-39623091D01*
X91174988Y-39694335D01*
X91265665Y-39785012D01*
X91331556Y-39883624D01*
X91336910Y-39891638D01*
X91385983Y-40010110D01*
X91411000Y-40135881D01*
X91411000Y-40264119D01*
X91385983Y-40389890D01*
X91345681Y-40487188D01*
X91336909Y-40508364D01*
X91265665Y-40614988D01*
X91174988Y-40705665D01*
X91068364Y-40776909D01*
X91068363Y-40776910D01*
X91068362Y-40776910D01*
X90949890Y-40825983D01*
X90824119Y-40851000D01*
X90695881Y-40851000D01*
X90570110Y-40825983D01*
X90451638Y-40776910D01*
X90451637Y-40776910D01*
X90451636Y-40776909D01*
X90345012Y-40705665D01*
X90254335Y-40614988D01*
X90183091Y-40508364D01*
X90174320Y-40487188D01*
X90134017Y-40389890D01*
X90109000Y-40264119D01*
X90109000Y-40135881D01*
X90134017Y-40010110D01*
X90183090Y-39891638D01*
X90188445Y-39883624D01*
X90254335Y-39785012D01*
X90345012Y-39694335D01*
X90451636Y-39623091D01*
X90570110Y-39574017D01*
X90695881Y-39549000D01*
X90824119Y-39549000D01*
X90949890Y-39574017D01*
G37*
G36*
X92729890Y-39574017D02*
G01*
X92848364Y-39623091D01*
X92954988Y-39694335D01*
X93045665Y-39785012D01*
X93111556Y-39883624D01*
X93116910Y-39891638D01*
X93165983Y-40010110D01*
X93191000Y-40135881D01*
X93191000Y-40264119D01*
X93165983Y-40389890D01*
X93125681Y-40487188D01*
X93116909Y-40508364D01*
X93045665Y-40614988D01*
X92954988Y-40705665D01*
X92848364Y-40776909D01*
X92848363Y-40776910D01*
X92848362Y-40776910D01*
X92729890Y-40825983D01*
X92604119Y-40851000D01*
X92475881Y-40851000D01*
X92350110Y-40825983D01*
X92231638Y-40776910D01*
X92231637Y-40776910D01*
X92231636Y-40776909D01*
X92125012Y-40705665D01*
X92034335Y-40614988D01*
X91963091Y-40508364D01*
X91954320Y-40487188D01*
X91914017Y-40389890D01*
X91889000Y-40264119D01*
X91889000Y-40135881D01*
X91914017Y-40010110D01*
X91963090Y-39891638D01*
X91968445Y-39883624D01*
X92034335Y-39785012D01*
X92125012Y-39694335D01*
X92231636Y-39623091D01*
X92350110Y-39574017D01*
X92475881Y-39549000D01*
X92604119Y-39549000D01*
X92729890Y-39574017D01*
G37*
G36*
X94509890Y-39574017D02*
G01*
X94628364Y-39623091D01*
X94734988Y-39694335D01*
X94825665Y-39785012D01*
X94891556Y-39883624D01*
X94896910Y-39891638D01*
X94945983Y-40010110D01*
X94971000Y-40135881D01*
X94971000Y-40264119D01*
X94945983Y-40389890D01*
X94905681Y-40487188D01*
X94896909Y-40508364D01*
X94825665Y-40614988D01*
X94734988Y-40705665D01*
X94628364Y-40776909D01*
X94628363Y-40776910D01*
X94628362Y-40776910D01*
X94509890Y-40825983D01*
X94384119Y-40851000D01*
X94255881Y-40851000D01*
X94130110Y-40825983D01*
X94011638Y-40776910D01*
X94011637Y-40776910D01*
X94011636Y-40776909D01*
X93905012Y-40705665D01*
X93814335Y-40614988D01*
X93743091Y-40508364D01*
X93734320Y-40487188D01*
X93694017Y-40389890D01*
X93669000Y-40264119D01*
X93669000Y-40135881D01*
X93694017Y-40010110D01*
X93743090Y-39891638D01*
X93748445Y-39883624D01*
X93814335Y-39785012D01*
X93905012Y-39694335D01*
X94011636Y-39623091D01*
X94130110Y-39574017D01*
X94255881Y-39549000D01*
X94384119Y-39549000D01*
X94509890Y-39574017D01*
G37*
G36*
X96289890Y-39574017D02*
G01*
X96408364Y-39623091D01*
X96514988Y-39694335D01*
X96605665Y-39785012D01*
X96671556Y-39883624D01*
X96676910Y-39891638D01*
X96725983Y-40010110D01*
X96751000Y-40135881D01*
X96751000Y-40264119D01*
X96725983Y-40389890D01*
X96685681Y-40487188D01*
X96676909Y-40508364D01*
X96605665Y-40614988D01*
X96514988Y-40705665D01*
X96408364Y-40776909D01*
X96408363Y-40776910D01*
X96408362Y-40776910D01*
X96289890Y-40825983D01*
X96164119Y-40851000D01*
X96035881Y-40851000D01*
X95910110Y-40825983D01*
X95791638Y-40776910D01*
X95791637Y-40776910D01*
X95791636Y-40776909D01*
X95685012Y-40705665D01*
X95594335Y-40614988D01*
X95523091Y-40508364D01*
X95514320Y-40487188D01*
X95474017Y-40389890D01*
X95449000Y-40264119D01*
X95449000Y-40135881D01*
X95474017Y-40010110D01*
X95523090Y-39891638D01*
X95528445Y-39883624D01*
X95594335Y-39785012D01*
X95685012Y-39694335D01*
X95791636Y-39623091D01*
X95910110Y-39574017D01*
X96035881Y-39549000D01*
X96164119Y-39549000D01*
X96289890Y-39574017D01*
G37*
M02*
