G04 #@! TF.GenerationSoftware,KiCad,Pcbnew,(5.1.6-0-10_14)*
G04 #@! TF.CreationDate,2020-06-02T19:40:10-04:00*
G04 #@! TF.ProjectId,PMW3360_Adapter,504d5733-3336-4305-9f41-646170746572,rev?*
G04 #@! TF.SameCoordinates,Original*
G04 #@! TF.FileFunction,Legend,Top*
G04 #@! TF.FilePolarity,Positive*
%FSLAX46Y46*%
G04 Gerber Fmt 4.6, Leading zero omitted, Abs format (unit mm)*
G04 Created by KiCad (PCBNEW (5.1.6-0-10_14)) date 2020-06-02 19:40:10*
%MOMM*%
%LPD*%
G01*
G04 APERTURE LIST*
%ADD10C,0.150000*%
%ADD11C,0.120000*%
G04 APERTURE END LIST*
D10*
X81761904Y-56452380D02*
X81761904Y-55452380D01*
X82142857Y-55452380D01*
X82238095Y-55500000D01*
X82285714Y-55547619D01*
X82333333Y-55642857D01*
X82333333Y-55785714D01*
X82285714Y-55880952D01*
X82238095Y-55928571D01*
X82142857Y-55976190D01*
X81761904Y-55976190D01*
X82761904Y-56452380D02*
X82761904Y-55452380D01*
X83095238Y-56166666D01*
X83428571Y-55452380D01*
X83428571Y-56452380D01*
X83809523Y-55452380D02*
X84047619Y-56452380D01*
X84238095Y-55738095D01*
X84428571Y-56452380D01*
X84666666Y-55452380D01*
X84952380Y-55452380D02*
X85571428Y-55452380D01*
X85238095Y-55833333D01*
X85380952Y-55833333D01*
X85476190Y-55880952D01*
X85523809Y-55928571D01*
X85571428Y-56023809D01*
X85571428Y-56261904D01*
X85523809Y-56357142D01*
X85476190Y-56404761D01*
X85380952Y-56452380D01*
X85095238Y-56452380D01*
X85000000Y-56404761D01*
X84952380Y-56357142D01*
X85904761Y-55452380D02*
X86523809Y-55452380D01*
X86190476Y-55833333D01*
X86333333Y-55833333D01*
X86428571Y-55880952D01*
X86476190Y-55928571D01*
X86523809Y-56023809D01*
X86523809Y-56261904D01*
X86476190Y-56357142D01*
X86428571Y-56404761D01*
X86333333Y-56452380D01*
X86047619Y-56452380D01*
X85952380Y-56404761D01*
X85904761Y-56357142D01*
X87142857Y-55452380D02*
X87238095Y-55452380D01*
X87333333Y-55500000D01*
X87380952Y-55547619D01*
X87428571Y-55642857D01*
X87476190Y-55833333D01*
X87476190Y-56071428D01*
X87428571Y-56261904D01*
X87380952Y-56357142D01*
X87333333Y-56404761D01*
X87238095Y-56452380D01*
X87142857Y-56452380D01*
X87047619Y-56404761D01*
X87000000Y-56357142D01*
X86952380Y-56261904D01*
X86904761Y-56071428D01*
X86904761Y-55833333D01*
X86952380Y-55642857D01*
X87000000Y-55547619D01*
X87047619Y-55500000D01*
X87142857Y-55452380D01*
X88333333Y-55452380D02*
X88142857Y-55452380D01*
X88047619Y-55500000D01*
X88000000Y-55547619D01*
X87904761Y-55690476D01*
X87857142Y-55880952D01*
X87857142Y-56261904D01*
X87904761Y-56357142D01*
X87952380Y-56404761D01*
X88047619Y-56452380D01*
X88238095Y-56452380D01*
X88333333Y-56404761D01*
X88380952Y-56357142D01*
X88428571Y-56261904D01*
X88428571Y-56023809D01*
X88380952Y-55928571D01*
X88333333Y-55880952D01*
X88238095Y-55833333D01*
X88047619Y-55833333D01*
X87952380Y-55880952D01*
X87904761Y-55928571D01*
X87857142Y-56023809D01*
X89571428Y-55404761D02*
X88714285Y-56690476D01*
X89809523Y-55452380D02*
X90428571Y-55452380D01*
X90095238Y-55833333D01*
X90238095Y-55833333D01*
X90333333Y-55880952D01*
X90380952Y-55928571D01*
X90428571Y-56023809D01*
X90428571Y-56261904D01*
X90380952Y-56357142D01*
X90333333Y-56404761D01*
X90238095Y-56452380D01*
X89952380Y-56452380D01*
X89857142Y-56404761D01*
X89809523Y-56357142D01*
X90761904Y-55452380D02*
X91380952Y-55452380D01*
X91047619Y-55833333D01*
X91190476Y-55833333D01*
X91285714Y-55880952D01*
X91333333Y-55928571D01*
X91380952Y-56023809D01*
X91380952Y-56261904D01*
X91333333Y-56357142D01*
X91285714Y-56404761D01*
X91190476Y-56452380D01*
X90904761Y-56452380D01*
X90809523Y-56404761D01*
X90761904Y-56357142D01*
X91952380Y-55880952D02*
X91857142Y-55833333D01*
X91809523Y-55785714D01*
X91761904Y-55690476D01*
X91761904Y-55642857D01*
X91809523Y-55547619D01*
X91857142Y-55500000D01*
X91952380Y-55452380D01*
X92142857Y-55452380D01*
X92238095Y-55500000D01*
X92285714Y-55547619D01*
X92333333Y-55642857D01*
X92333333Y-55690476D01*
X92285714Y-55785714D01*
X92238095Y-55833333D01*
X92142857Y-55880952D01*
X91952380Y-55880952D01*
X91857142Y-55928571D01*
X91809523Y-55976190D01*
X91761904Y-56071428D01*
X91761904Y-56261904D01*
X91809523Y-56357142D01*
X91857142Y-56404761D01*
X91952380Y-56452380D01*
X92142857Y-56452380D01*
X92238095Y-56404761D01*
X92285714Y-56357142D01*
X92333333Y-56261904D01*
X92333333Y-56071428D01*
X92285714Y-55976190D01*
X92238095Y-55928571D01*
X92142857Y-55880952D01*
X92809523Y-56452380D02*
X93000000Y-56452380D01*
X93095238Y-56404761D01*
X93142857Y-56357142D01*
X93238095Y-56214285D01*
X93285714Y-56023809D01*
X93285714Y-55642857D01*
X93238095Y-55547619D01*
X93190476Y-55500000D01*
X93095238Y-55452380D01*
X92904761Y-55452380D01*
X92809523Y-55500000D01*
X92761904Y-55547619D01*
X92714285Y-55642857D01*
X92714285Y-55880952D01*
X92761904Y-55976190D01*
X92809523Y-56023809D01*
X92904761Y-56071428D01*
X93095238Y-56071428D01*
X93190476Y-56023809D01*
X93238095Y-55976190D01*
X93285714Y-55880952D01*
D11*
X105210000Y-35540000D02*
X114330000Y-35540000D01*
X114330000Y-35540000D02*
X114330000Y-56120000D01*
X114330000Y-56120000D02*
X105210000Y-56120000D01*
X105210000Y-56120000D02*
X105210000Y-35540000D01*
X105210000Y-43780000D02*
X106520000Y-43780000D01*
X106520000Y-43780000D02*
X106520000Y-36840000D01*
X106520000Y-36840000D02*
X113020000Y-36840000D01*
X113020000Y-36840000D02*
X113020000Y-54820000D01*
X113020000Y-54820000D02*
X106520000Y-54820000D01*
X106520000Y-54820000D02*
X106520000Y-47880000D01*
X106520000Y-47880000D02*
X106520000Y-47880000D01*
X106520000Y-47880000D02*
X105210000Y-47880000D01*
X104820000Y-40750000D02*
X103820000Y-40250000D01*
X103820000Y-40250000D02*
X103820000Y-41250000D01*
X103820000Y-41250000D02*
X104820000Y-40750000D01*
X101100000Y-39110000D02*
X103550000Y-39110000D01*
X102900000Y-35890000D02*
X101100000Y-35890000D01*
X101380000Y-45800000D02*
X101380000Y-47000000D01*
X99620000Y-47000000D02*
X99620000Y-45800000D01*
X96390000Y-37500000D02*
X96390000Y-36500000D01*
X94690000Y-36500000D02*
X94690000Y-37500000D01*
X98350000Y-37500000D02*
X98350000Y-36500000D01*
X96650000Y-36500000D02*
X96650000Y-37500000D01*
X93850000Y-37500000D02*
X93850000Y-36500000D01*
X92150000Y-36500000D02*
X92150000Y-37500000D01*
X91850000Y-37500000D02*
X91850000Y-36500000D01*
X90150000Y-36500000D02*
X90150000Y-37500000D01*
X87000000Y-37150000D02*
X86000000Y-37150000D01*
X86000000Y-38850000D02*
X87000000Y-38850000D01*
X87000000Y-35150000D02*
X86000000Y-35150000D01*
X86000000Y-36850000D02*
X87000000Y-36850000D01*
D10*
X109436666Y-34102380D02*
X109436666Y-34816666D01*
X109389047Y-34959523D01*
X109293809Y-35054761D01*
X109150952Y-35102380D01*
X109055714Y-35102380D01*
X110436666Y-35102380D02*
X109865238Y-35102380D01*
X110150952Y-35102380D02*
X110150952Y-34102380D01*
X110055714Y-34245238D01*
X109960476Y-34340476D01*
X109865238Y-34388095D01*
X101238095Y-33952380D02*
X101238095Y-34761904D01*
X101285714Y-34857142D01*
X101333333Y-34904761D01*
X101428571Y-34952380D01*
X101619047Y-34952380D01*
X101714285Y-34904761D01*
X101761904Y-34857142D01*
X101809523Y-34761904D01*
X101809523Y-33952380D01*
X102809523Y-34952380D02*
X102238095Y-34952380D01*
X102523809Y-34952380D02*
X102523809Y-33952380D01*
X102428571Y-34095238D01*
X102333333Y-34190476D01*
X102238095Y-34238095D01*
X97100000Y-40157142D02*
X97147619Y-40204761D01*
X97100000Y-40252380D01*
X97052380Y-40204761D01*
X97100000Y-40157142D01*
X97100000Y-40252380D01*
X100333333Y-43702380D02*
X100000000Y-43226190D01*
X99761904Y-43702380D02*
X99761904Y-42702380D01*
X100142857Y-42702380D01*
X100238095Y-42750000D01*
X100285714Y-42797619D01*
X100333333Y-42892857D01*
X100333333Y-43035714D01*
X100285714Y-43130952D01*
X100238095Y-43178571D01*
X100142857Y-43226190D01*
X99761904Y-43226190D01*
X101285714Y-43702380D02*
X100714285Y-43702380D01*
X101000000Y-43702380D02*
X101000000Y-42702380D01*
X100904761Y-42845238D01*
X100809523Y-42940476D01*
X100714285Y-42988095D01*
X95333333Y-34357142D02*
X95285714Y-34404761D01*
X95142857Y-34452380D01*
X95047619Y-34452380D01*
X94904761Y-34404761D01*
X94809523Y-34309523D01*
X94761904Y-34214285D01*
X94714285Y-34023809D01*
X94714285Y-33880952D01*
X94761904Y-33690476D01*
X94809523Y-33595238D01*
X94904761Y-33500000D01*
X95047619Y-33452380D01*
X95142857Y-33452380D01*
X95285714Y-33500000D01*
X95333333Y-33547619D01*
X96190476Y-33452380D02*
X96000000Y-33452380D01*
X95904761Y-33500000D01*
X95857142Y-33547619D01*
X95761904Y-33690476D01*
X95714285Y-33880952D01*
X95714285Y-34261904D01*
X95761904Y-34357142D01*
X95809523Y-34404761D01*
X95904761Y-34452380D01*
X96095238Y-34452380D01*
X96190476Y-34404761D01*
X96238095Y-34357142D01*
X96285714Y-34261904D01*
X96285714Y-34023809D01*
X96238095Y-33928571D01*
X96190476Y-33880952D01*
X96095238Y-33833333D01*
X95904761Y-33833333D01*
X95809523Y-33880952D01*
X95761904Y-33928571D01*
X95714285Y-34023809D01*
X97253333Y-34357142D02*
X97205714Y-34404761D01*
X97062857Y-34452380D01*
X96967619Y-34452380D01*
X96824761Y-34404761D01*
X96729523Y-34309523D01*
X96681904Y-34214285D01*
X96634285Y-34023809D01*
X96634285Y-33880952D01*
X96681904Y-33690476D01*
X96729523Y-33595238D01*
X96824761Y-33500000D01*
X96967619Y-33452380D01*
X97062857Y-33452380D01*
X97205714Y-33500000D01*
X97253333Y-33547619D01*
X98158095Y-33452380D02*
X97681904Y-33452380D01*
X97634285Y-33928571D01*
X97681904Y-33880952D01*
X97777142Y-33833333D01*
X98015238Y-33833333D01*
X98110476Y-33880952D01*
X98158095Y-33928571D01*
X98205714Y-34023809D01*
X98205714Y-34261904D01*
X98158095Y-34357142D01*
X98110476Y-34404761D01*
X98015238Y-34452380D01*
X97777142Y-34452380D01*
X97681904Y-34404761D01*
X97634285Y-34357142D01*
X92833333Y-34357142D02*
X92785714Y-34404761D01*
X92642857Y-34452380D01*
X92547619Y-34452380D01*
X92404761Y-34404761D01*
X92309523Y-34309523D01*
X92261904Y-34214285D01*
X92214285Y-34023809D01*
X92214285Y-33880952D01*
X92261904Y-33690476D01*
X92309523Y-33595238D01*
X92404761Y-33500000D01*
X92547619Y-33452380D01*
X92642857Y-33452380D01*
X92785714Y-33500000D01*
X92833333Y-33547619D01*
X93690476Y-33785714D02*
X93690476Y-34452380D01*
X93452380Y-33404761D02*
X93214285Y-34119047D01*
X93833333Y-34119047D01*
X90833333Y-34357142D02*
X90785714Y-34404761D01*
X90642857Y-34452380D01*
X90547619Y-34452380D01*
X90404761Y-34404761D01*
X90309523Y-34309523D01*
X90261904Y-34214285D01*
X90214285Y-34023809D01*
X90214285Y-33880952D01*
X90261904Y-33690476D01*
X90309523Y-33595238D01*
X90404761Y-33500000D01*
X90547619Y-33452380D01*
X90642857Y-33452380D01*
X90785714Y-33500000D01*
X90833333Y-33547619D01*
X91166666Y-33452380D02*
X91785714Y-33452380D01*
X91452380Y-33833333D01*
X91595238Y-33833333D01*
X91690476Y-33880952D01*
X91738095Y-33928571D01*
X91785714Y-34023809D01*
X91785714Y-34261904D01*
X91738095Y-34357142D01*
X91690476Y-34404761D01*
X91595238Y-34452380D01*
X91309523Y-34452380D01*
X91214285Y-34404761D01*
X91166666Y-34357142D01*
X83333333Y-38357142D02*
X83285714Y-38404761D01*
X83142857Y-38452380D01*
X83047619Y-38452380D01*
X82904761Y-38404761D01*
X82809523Y-38309523D01*
X82761904Y-38214285D01*
X82714285Y-38023809D01*
X82714285Y-37880952D01*
X82761904Y-37690476D01*
X82809523Y-37595238D01*
X82904761Y-37500000D01*
X83047619Y-37452380D01*
X83142857Y-37452380D01*
X83285714Y-37500000D01*
X83333333Y-37547619D01*
X83714285Y-37547619D02*
X83761904Y-37500000D01*
X83857142Y-37452380D01*
X84095238Y-37452380D01*
X84190476Y-37500000D01*
X84238095Y-37547619D01*
X84285714Y-37642857D01*
X84285714Y-37738095D01*
X84238095Y-37880952D01*
X83666666Y-38452380D01*
X84285714Y-38452380D01*
X83333333Y-36357142D02*
X83285714Y-36404761D01*
X83142857Y-36452380D01*
X83047619Y-36452380D01*
X82904761Y-36404761D01*
X82809523Y-36309523D01*
X82761904Y-36214285D01*
X82714285Y-36023809D01*
X82714285Y-35880952D01*
X82761904Y-35690476D01*
X82809523Y-35595238D01*
X82904761Y-35500000D01*
X83047619Y-35452380D01*
X83142857Y-35452380D01*
X83285714Y-35500000D01*
X83333333Y-35547619D01*
X84285714Y-36452380D02*
X83714285Y-36452380D01*
X84000000Y-36452380D02*
X84000000Y-35452380D01*
X83904761Y-35595238D01*
X83809523Y-35690476D01*
X83714285Y-35738095D01*
M02*
