G04 #@! TF.GenerationSoftware,KiCad,Pcbnew,5.0.2-bee76a0~70~ubuntu18.04.1*
G04 #@! TF.CreationDate,2019-04-29T21:23:14-04:00*
G04 #@! TF.ProjectId,E73 SCR,45373320-5343-4522-9e6b-696361645f70,rev?*
G04 #@! TF.SameCoordinates,Original*
G04 #@! TF.FileFunction,Soldermask,Top*
G04 #@! TF.FilePolarity,Negative*
%FSLAX46Y46*%
G04 Gerber Fmt 4.6, Leading zero omitted, Abs format (unit mm)*
G04 Created by KiCad (PCBNEW 5.0.2-bee76a0~70~ubuntu18.04.1) date Mon 29 Apr 2019 09:23:14 PM EDT*
%MOMM*%
%LPD*%
G01*
G04 APERTURE LIST*
%ADD10C,0.100000*%
G04 APERTURE END LIST*
D10*
G36*
X136551000Y-88901000D02*
X134049000Y-88901000D01*
X134049000Y-85299000D01*
X136551000Y-85299000D01*
X136551000Y-88901000D01*
X136551000Y-88901000D01*
G37*
G36*
X143601000Y-87951000D02*
X141499000Y-87951000D01*
X141499000Y-86249000D01*
X143601000Y-86249000D01*
X143601000Y-87951000D01*
X143601000Y-87951000D01*
G37*
G36*
X139601000Y-87951000D02*
X137499000Y-87951000D01*
X137499000Y-86249000D01*
X139601000Y-86249000D01*
X139601000Y-87951000D01*
X139601000Y-87951000D01*
G37*
G36*
X126327618Y-86108420D02*
X126409427Y-86133237D01*
X126450333Y-86145645D01*
X126550491Y-86199181D01*
X126563426Y-86206095D01*
X126662553Y-86287447D01*
X126743905Y-86386574D01*
X126743906Y-86386576D01*
X126804355Y-86499667D01*
X126804355Y-86499668D01*
X126841580Y-86622382D01*
X126851000Y-86718027D01*
X126851000Y-87281973D01*
X126841580Y-87377618D01*
X126816763Y-87459427D01*
X126804355Y-87500333D01*
X126750819Y-87600491D01*
X126743905Y-87613426D01*
X126662553Y-87712553D01*
X126563425Y-87793905D01*
X126510782Y-87822043D01*
X126450332Y-87854355D01*
X126409426Y-87866763D01*
X126327617Y-87891580D01*
X126200000Y-87904149D01*
X126072382Y-87891580D01*
X125990573Y-87866763D01*
X125949667Y-87854355D01*
X125836576Y-87793906D01*
X125836574Y-87793905D01*
X125737447Y-87712553D01*
X125656095Y-87613425D01*
X125595646Y-87500333D01*
X125595645Y-87500332D01*
X125583237Y-87459426D01*
X125558420Y-87377617D01*
X125549000Y-87281972D01*
X125549000Y-86718027D01*
X125558420Y-86622382D01*
X125595645Y-86499668D01*
X125595645Y-86499667D01*
X125656094Y-86386576D01*
X125656095Y-86386574D01*
X125737448Y-86287447D01*
X125836575Y-86206095D01*
X125849510Y-86199181D01*
X125949668Y-86145645D01*
X125990574Y-86133237D01*
X126072383Y-86108420D01*
X126200000Y-86095851D01*
X126327618Y-86108420D01*
X126327618Y-86108420D01*
G37*
G36*
X122327618Y-86108420D02*
X122409427Y-86133237D01*
X122450333Y-86145645D01*
X122550491Y-86199181D01*
X122563426Y-86206095D01*
X122662553Y-86287447D01*
X122743905Y-86386574D01*
X122743906Y-86386576D01*
X122804355Y-86499667D01*
X122804355Y-86499668D01*
X122841580Y-86622382D01*
X122851000Y-86718027D01*
X122851000Y-87281973D01*
X122841580Y-87377618D01*
X122816763Y-87459427D01*
X122804355Y-87500333D01*
X122750819Y-87600491D01*
X122743905Y-87613426D01*
X122662553Y-87712553D01*
X122563425Y-87793905D01*
X122510782Y-87822043D01*
X122450332Y-87854355D01*
X122409426Y-87866763D01*
X122327617Y-87891580D01*
X122200000Y-87904149D01*
X122072382Y-87891580D01*
X121990573Y-87866763D01*
X121949667Y-87854355D01*
X121836576Y-87793906D01*
X121836574Y-87793905D01*
X121737447Y-87712553D01*
X121656095Y-87613425D01*
X121595646Y-87500333D01*
X121595645Y-87500332D01*
X121583237Y-87459426D01*
X121558420Y-87377617D01*
X121549000Y-87281972D01*
X121549000Y-86718027D01*
X121558420Y-86622382D01*
X121595645Y-86499668D01*
X121595645Y-86499667D01*
X121656094Y-86386576D01*
X121656095Y-86386574D01*
X121737448Y-86287447D01*
X121836575Y-86206095D01*
X121849510Y-86199181D01*
X121949668Y-86145645D01*
X121990574Y-86133237D01*
X122072383Y-86108420D01*
X122200000Y-86095851D01*
X122327618Y-86108420D01*
X122327618Y-86108420D01*
G37*
G36*
X120327618Y-86108420D02*
X120409427Y-86133237D01*
X120450333Y-86145645D01*
X120550491Y-86199181D01*
X120563426Y-86206095D01*
X120662553Y-86287447D01*
X120743905Y-86386574D01*
X120743906Y-86386576D01*
X120804355Y-86499667D01*
X120804355Y-86499668D01*
X120841580Y-86622382D01*
X120851000Y-86718027D01*
X120851000Y-87281973D01*
X120841580Y-87377618D01*
X120816763Y-87459427D01*
X120804355Y-87500333D01*
X120750819Y-87600491D01*
X120743905Y-87613426D01*
X120662553Y-87712553D01*
X120563425Y-87793905D01*
X120510782Y-87822043D01*
X120450332Y-87854355D01*
X120409426Y-87866763D01*
X120327617Y-87891580D01*
X120200000Y-87904149D01*
X120072382Y-87891580D01*
X119990573Y-87866763D01*
X119949667Y-87854355D01*
X119836576Y-87793906D01*
X119836574Y-87793905D01*
X119737447Y-87712553D01*
X119656095Y-87613425D01*
X119595646Y-87500333D01*
X119595645Y-87500332D01*
X119583237Y-87459426D01*
X119558420Y-87377617D01*
X119549000Y-87281972D01*
X119549000Y-86718027D01*
X119558420Y-86622382D01*
X119595645Y-86499668D01*
X119595645Y-86499667D01*
X119656094Y-86386576D01*
X119656095Y-86386574D01*
X119737448Y-86287447D01*
X119836575Y-86206095D01*
X119849510Y-86199181D01*
X119949668Y-86145645D01*
X119990574Y-86133237D01*
X120072383Y-86108420D01*
X120200000Y-86095851D01*
X120327618Y-86108420D01*
X120327618Y-86108420D01*
G37*
G36*
X124327618Y-86108420D02*
X124409427Y-86133237D01*
X124450333Y-86145645D01*
X124550491Y-86199181D01*
X124563426Y-86206095D01*
X124662553Y-86287447D01*
X124743905Y-86386574D01*
X124743906Y-86386576D01*
X124804355Y-86499667D01*
X124804355Y-86499668D01*
X124841580Y-86622382D01*
X124851000Y-86718027D01*
X124851000Y-87281973D01*
X124841580Y-87377618D01*
X124816763Y-87459427D01*
X124804355Y-87500333D01*
X124750819Y-87600491D01*
X124743905Y-87613426D01*
X124662553Y-87712553D01*
X124563425Y-87793905D01*
X124510782Y-87822043D01*
X124450332Y-87854355D01*
X124409426Y-87866763D01*
X124327617Y-87891580D01*
X124200000Y-87904149D01*
X124072382Y-87891580D01*
X123990573Y-87866763D01*
X123949667Y-87854355D01*
X123836576Y-87793906D01*
X123836574Y-87793905D01*
X123737447Y-87712553D01*
X123656095Y-87613425D01*
X123595646Y-87500333D01*
X123595645Y-87500332D01*
X123583237Y-87459426D01*
X123558420Y-87377617D01*
X123549000Y-87281972D01*
X123549000Y-86718027D01*
X123558420Y-86622382D01*
X123595645Y-86499668D01*
X123595645Y-86499667D01*
X123656094Y-86386576D01*
X123656095Y-86386574D01*
X123737448Y-86287447D01*
X123836575Y-86206095D01*
X123849510Y-86199181D01*
X123949668Y-86145645D01*
X123990574Y-86133237D01*
X124072383Y-86108420D01*
X124200000Y-86095851D01*
X124327618Y-86108420D01*
X124327618Y-86108420D01*
G37*
G36*
X128327618Y-86108420D02*
X128409427Y-86133237D01*
X128450333Y-86145645D01*
X128550491Y-86199181D01*
X128563426Y-86206095D01*
X128662553Y-86287447D01*
X128743905Y-86386574D01*
X128743906Y-86386576D01*
X128804355Y-86499667D01*
X128804355Y-86499668D01*
X128841580Y-86622382D01*
X128851000Y-86718027D01*
X128851000Y-87281973D01*
X128841580Y-87377618D01*
X128816763Y-87459427D01*
X128804355Y-87500333D01*
X128750819Y-87600491D01*
X128743905Y-87613426D01*
X128662553Y-87712553D01*
X128563425Y-87793905D01*
X128510782Y-87822043D01*
X128450332Y-87854355D01*
X128409426Y-87866763D01*
X128327617Y-87891580D01*
X128200000Y-87904149D01*
X128072382Y-87891580D01*
X127990573Y-87866763D01*
X127949667Y-87854355D01*
X127836576Y-87793906D01*
X127836574Y-87793905D01*
X127737447Y-87712553D01*
X127656095Y-87613425D01*
X127595646Y-87500333D01*
X127595645Y-87500332D01*
X127583237Y-87459426D01*
X127558420Y-87377617D01*
X127549000Y-87281972D01*
X127549000Y-86718027D01*
X127558420Y-86622382D01*
X127595645Y-86499668D01*
X127595645Y-86499667D01*
X127656094Y-86386576D01*
X127656095Y-86386574D01*
X127737448Y-86287447D01*
X127836575Y-86206095D01*
X127849510Y-86199181D01*
X127949668Y-86145645D01*
X127990574Y-86133237D01*
X128072383Y-86108420D01*
X128200000Y-86095851D01*
X128327618Y-86108420D01*
X128327618Y-86108420D01*
G37*
G36*
X130851000Y-87901000D02*
X129549000Y-87901000D01*
X129549000Y-86099000D01*
X130851000Y-86099000D01*
X130851000Y-87901000D01*
X130851000Y-87901000D01*
G37*
G36*
X117151000Y-87851000D02*
X115549000Y-87851000D01*
X115549000Y-86449000D01*
X117151000Y-86449000D01*
X117151000Y-87851000D01*
X117151000Y-87851000D01*
G37*
G36*
X114451000Y-87851000D02*
X112849000Y-87851000D01*
X112849000Y-86449000D01*
X114451000Y-86449000D01*
X114451000Y-87851000D01*
X114451000Y-87851000D01*
G37*
G36*
X149401000Y-87551000D02*
X147599000Y-87551000D01*
X147599000Y-86249000D01*
X149401000Y-86249000D01*
X149401000Y-87551000D01*
X149401000Y-87551000D01*
G37*
G36*
X114451000Y-85751000D02*
X112849000Y-85751000D01*
X112849000Y-84349000D01*
X114451000Y-84349000D01*
X114451000Y-85751000D01*
X114451000Y-85751000D01*
G37*
G36*
X117151000Y-85751000D02*
X115549000Y-85751000D01*
X115549000Y-84349000D01*
X117151000Y-84349000D01*
X117151000Y-85751000D01*
X117151000Y-85751000D01*
G37*
G36*
X148813855Y-84252140D02*
X148877618Y-84258420D01*
X148959427Y-84283237D01*
X149000333Y-84295645D01*
X149100152Y-84349000D01*
X149113426Y-84356095D01*
X149212553Y-84437447D01*
X149293905Y-84536574D01*
X149293906Y-84536576D01*
X149354355Y-84649667D01*
X149354355Y-84649668D01*
X149391580Y-84772382D01*
X149404149Y-84900000D01*
X149391580Y-85027618D01*
X149366763Y-85109427D01*
X149354355Y-85150333D01*
X149300819Y-85250491D01*
X149293905Y-85263426D01*
X149212553Y-85362553D01*
X149113426Y-85443905D01*
X149113424Y-85443906D01*
X149000333Y-85504355D01*
X148959427Y-85516763D01*
X148877618Y-85541580D01*
X148813855Y-85547860D01*
X148781974Y-85551000D01*
X148218026Y-85551000D01*
X148186145Y-85547860D01*
X148122382Y-85541580D01*
X148040573Y-85516763D01*
X147999667Y-85504355D01*
X147886576Y-85443906D01*
X147886574Y-85443905D01*
X147787447Y-85362553D01*
X147706095Y-85263426D01*
X147699181Y-85250491D01*
X147645645Y-85150333D01*
X147633237Y-85109427D01*
X147608420Y-85027618D01*
X147595851Y-84900000D01*
X147608420Y-84772382D01*
X147645645Y-84649668D01*
X147645645Y-84649667D01*
X147706094Y-84536576D01*
X147706095Y-84536574D01*
X147787447Y-84437447D01*
X147886574Y-84356095D01*
X147899848Y-84349000D01*
X147999667Y-84295645D01*
X148040573Y-84283237D01*
X148122382Y-84258420D01*
X148186145Y-84252140D01*
X148218026Y-84249000D01*
X148781974Y-84249000D01*
X148813855Y-84252140D01*
X148813855Y-84252140D01*
G37*
G36*
X136551000Y-83701000D02*
X134049000Y-83701000D01*
X134049000Y-80099000D01*
X136551000Y-80099000D01*
X136551000Y-83701000D01*
X136551000Y-83701000D01*
G37*
G36*
X148813855Y-82252140D02*
X148877618Y-82258420D01*
X148959427Y-82283237D01*
X149000333Y-82295645D01*
X149100152Y-82349000D01*
X149113426Y-82356095D01*
X149212553Y-82437447D01*
X149293905Y-82536574D01*
X149293906Y-82536576D01*
X149354355Y-82649667D01*
X149354355Y-82649668D01*
X149391580Y-82772382D01*
X149404149Y-82900000D01*
X149391580Y-83027618D01*
X149366763Y-83109427D01*
X149354355Y-83150333D01*
X149300819Y-83250491D01*
X149293905Y-83263426D01*
X149212553Y-83362553D01*
X149113426Y-83443905D01*
X149113424Y-83443906D01*
X149000333Y-83504355D01*
X148959427Y-83516763D01*
X148877618Y-83541580D01*
X148813855Y-83547860D01*
X148781974Y-83551000D01*
X148218026Y-83551000D01*
X148186145Y-83547860D01*
X148122382Y-83541580D01*
X148040573Y-83516763D01*
X147999667Y-83504355D01*
X147886576Y-83443906D01*
X147886574Y-83443905D01*
X147787447Y-83362553D01*
X147706095Y-83263426D01*
X147699181Y-83250491D01*
X147645645Y-83150333D01*
X147633237Y-83109427D01*
X147608420Y-83027618D01*
X147595851Y-82900000D01*
X147608420Y-82772382D01*
X147645645Y-82649668D01*
X147645645Y-82649667D01*
X147706094Y-82536576D01*
X147706095Y-82536574D01*
X147787447Y-82437447D01*
X147886574Y-82356095D01*
X147899848Y-82349000D01*
X147999667Y-82295645D01*
X148040573Y-82283237D01*
X148122382Y-82258420D01*
X148186145Y-82252140D01*
X148218026Y-82249000D01*
X148781974Y-82249000D01*
X148813855Y-82252140D01*
X148813855Y-82252140D01*
G37*
G36*
X116326000Y-83451000D02*
X115474000Y-83451000D01*
X115474000Y-82349000D01*
X116326000Y-82349000D01*
X116326000Y-83451000D01*
X116326000Y-83451000D01*
G37*
G36*
X117626000Y-83451000D02*
X116774000Y-83451000D01*
X116774000Y-82349000D01*
X117626000Y-82349000D01*
X117626000Y-83451000D01*
X117626000Y-83451000D01*
G37*
G36*
X118876000Y-83451000D02*
X118024000Y-83451000D01*
X118024000Y-82349000D01*
X118876000Y-82349000D01*
X118876000Y-83451000D01*
X118876000Y-83451000D01*
G37*
G36*
X120176000Y-83451000D02*
X119324000Y-83451000D01*
X119324000Y-82349000D01*
X120176000Y-82349000D01*
X120176000Y-83451000D01*
X120176000Y-83451000D01*
G37*
G36*
X121426000Y-83451000D02*
X120574000Y-83451000D01*
X120574000Y-82349000D01*
X121426000Y-82349000D01*
X121426000Y-83451000D01*
X121426000Y-83451000D01*
G37*
G36*
X123976000Y-83451000D02*
X123124000Y-83451000D01*
X123124000Y-82349000D01*
X123976000Y-82349000D01*
X123976000Y-83451000D01*
X123976000Y-83451000D01*
G37*
G36*
X127776000Y-83451000D02*
X126924000Y-83451000D01*
X126924000Y-82349000D01*
X127776000Y-82349000D01*
X127776000Y-83451000D01*
X127776000Y-83451000D01*
G37*
G36*
X126526000Y-83451000D02*
X125674000Y-83451000D01*
X125674000Y-82349000D01*
X126526000Y-82349000D01*
X126526000Y-83451000D01*
X126526000Y-83451000D01*
G37*
G36*
X125226000Y-83451000D02*
X124374000Y-83451000D01*
X124374000Y-82349000D01*
X125226000Y-82349000D01*
X125226000Y-83451000D01*
X125226000Y-83451000D01*
G37*
G36*
X122676000Y-83451000D02*
X121824000Y-83451000D01*
X121824000Y-82349000D01*
X122676000Y-82349000D01*
X122676000Y-83451000D01*
X122676000Y-83451000D01*
G37*
G36*
X143601000Y-82751000D02*
X141499000Y-82751000D01*
X141499000Y-81049000D01*
X143601000Y-81049000D01*
X143601000Y-82751000D01*
X143601000Y-82751000D01*
G37*
G36*
X139601000Y-82751000D02*
X137499000Y-82751000D01*
X137499000Y-81049000D01*
X139601000Y-81049000D01*
X139601000Y-82751000D01*
X139601000Y-82751000D01*
G37*
G36*
X145851000Y-82451000D02*
X144149000Y-82451000D01*
X144149000Y-80349000D01*
X145851000Y-80349000D01*
X145851000Y-82451000D01*
X145851000Y-82451000D01*
G37*
G36*
X130051000Y-81726000D02*
X128949000Y-81726000D01*
X128949000Y-80874000D01*
X130051000Y-80874000D01*
X130051000Y-81726000D01*
X130051000Y-81726000D01*
G37*
G36*
X148813855Y-80252140D02*
X148877618Y-80258420D01*
X148959427Y-80283237D01*
X149000333Y-80295645D01*
X149100152Y-80349000D01*
X149113426Y-80356095D01*
X149212553Y-80437447D01*
X149293905Y-80536574D01*
X149293906Y-80536576D01*
X149354355Y-80649667D01*
X149354355Y-80649668D01*
X149391580Y-80772382D01*
X149404149Y-80900000D01*
X149391580Y-81027618D01*
X149366763Y-81109427D01*
X149354355Y-81150333D01*
X149300819Y-81250491D01*
X149293905Y-81263426D01*
X149212553Y-81362553D01*
X149113426Y-81443905D01*
X149113424Y-81443906D01*
X149000333Y-81504355D01*
X148959427Y-81516763D01*
X148877618Y-81541580D01*
X148813855Y-81547860D01*
X148781974Y-81551000D01*
X148218026Y-81551000D01*
X148186145Y-81547860D01*
X148122382Y-81541580D01*
X148040573Y-81516763D01*
X147999667Y-81504355D01*
X147886576Y-81443906D01*
X147886574Y-81443905D01*
X147787447Y-81362553D01*
X147706095Y-81263426D01*
X147699181Y-81250491D01*
X147645645Y-81150333D01*
X147633237Y-81109427D01*
X147608420Y-81027618D01*
X147595851Y-80900000D01*
X147608420Y-80772382D01*
X147645645Y-80649668D01*
X147645645Y-80649667D01*
X147706094Y-80536576D01*
X147706095Y-80536574D01*
X147787447Y-80437447D01*
X147886574Y-80356095D01*
X147899848Y-80349000D01*
X147999667Y-80295645D01*
X148040573Y-80283237D01*
X148122382Y-80258420D01*
X148186145Y-80252140D01*
X148218026Y-80249000D01*
X148781974Y-80249000D01*
X148813855Y-80252140D01*
X148813855Y-80252140D01*
G37*
G36*
X128401000Y-81201000D02*
X127299000Y-81201000D01*
X127299000Y-72499000D01*
X128401000Y-72499000D01*
X128401000Y-81201000D01*
X128401000Y-81201000D01*
G37*
G36*
X130051000Y-80426000D02*
X128949000Y-80426000D01*
X128949000Y-79574000D01*
X130051000Y-79574000D01*
X130051000Y-80426000D01*
X130051000Y-80426000D01*
G37*
G36*
X148813855Y-78252140D02*
X148877618Y-78258420D01*
X148959427Y-78283237D01*
X149000333Y-78295645D01*
X149100491Y-78349181D01*
X149113426Y-78356095D01*
X149212553Y-78437447D01*
X149293905Y-78536574D01*
X149293906Y-78536576D01*
X149354355Y-78649667D01*
X149354355Y-78649668D01*
X149391580Y-78772382D01*
X149404149Y-78900000D01*
X149391580Y-79027618D01*
X149366763Y-79109427D01*
X149354355Y-79150333D01*
X149300819Y-79250491D01*
X149293905Y-79263426D01*
X149212553Y-79362553D01*
X149113426Y-79443905D01*
X149113424Y-79443906D01*
X149000333Y-79504355D01*
X148959427Y-79516763D01*
X148877618Y-79541580D01*
X148813855Y-79547860D01*
X148781974Y-79551000D01*
X148218026Y-79551000D01*
X148186145Y-79547860D01*
X148122382Y-79541580D01*
X148040573Y-79516763D01*
X147999667Y-79504355D01*
X147886576Y-79443906D01*
X147886574Y-79443905D01*
X147787447Y-79362553D01*
X147706095Y-79263426D01*
X147699181Y-79250491D01*
X147645645Y-79150333D01*
X147633237Y-79109427D01*
X147608420Y-79027618D01*
X147595851Y-78900000D01*
X147608420Y-78772382D01*
X147645645Y-78649668D01*
X147645645Y-78649667D01*
X147706094Y-78536576D01*
X147706095Y-78536574D01*
X147787447Y-78437447D01*
X147886574Y-78356095D01*
X147899509Y-78349181D01*
X147999667Y-78295645D01*
X148040573Y-78283237D01*
X148122382Y-78258420D01*
X148186145Y-78252140D01*
X148218026Y-78249000D01*
X148781974Y-78249000D01*
X148813855Y-78252140D01*
X148813855Y-78252140D01*
G37*
G36*
X130051000Y-79176000D02*
X128949000Y-79176000D01*
X128949000Y-78324000D01*
X130051000Y-78324000D01*
X130051000Y-79176000D01*
X130051000Y-79176000D01*
G37*
G36*
X145851000Y-78451000D02*
X144149000Y-78451000D01*
X144149000Y-76349000D01*
X145851000Y-76349000D01*
X145851000Y-78451000D01*
X145851000Y-78451000D01*
G37*
G36*
X130051000Y-77926000D02*
X128949000Y-77926000D01*
X128949000Y-77074000D01*
X130051000Y-77074000D01*
X130051000Y-77926000D01*
X130051000Y-77926000D01*
G37*
G36*
X148813855Y-76252140D02*
X148877618Y-76258420D01*
X148959427Y-76283237D01*
X149000333Y-76295645D01*
X149100152Y-76349000D01*
X149113426Y-76356095D01*
X149212553Y-76437447D01*
X149293905Y-76536574D01*
X149293906Y-76536576D01*
X149354355Y-76649667D01*
X149354355Y-76649668D01*
X149391580Y-76772382D01*
X149404149Y-76900000D01*
X149391580Y-77027618D01*
X149377510Y-77074000D01*
X149354355Y-77150333D01*
X149300819Y-77250491D01*
X149293905Y-77263426D01*
X149212553Y-77362553D01*
X149113426Y-77443905D01*
X149113424Y-77443906D01*
X149000333Y-77504355D01*
X148959427Y-77516763D01*
X148877618Y-77541580D01*
X148813855Y-77547860D01*
X148781974Y-77551000D01*
X148218026Y-77551000D01*
X148186145Y-77547860D01*
X148122382Y-77541580D01*
X148040573Y-77516763D01*
X147999667Y-77504355D01*
X147886576Y-77443906D01*
X147886574Y-77443905D01*
X147787447Y-77362553D01*
X147706095Y-77263426D01*
X147699181Y-77250491D01*
X147645645Y-77150333D01*
X147622490Y-77074000D01*
X147608420Y-77027618D01*
X147595851Y-76900000D01*
X147608420Y-76772382D01*
X147645645Y-76649668D01*
X147645645Y-76649667D01*
X147706094Y-76536576D01*
X147706095Y-76536574D01*
X147787447Y-76437447D01*
X147886574Y-76356095D01*
X147899848Y-76349000D01*
X147999667Y-76295645D01*
X148040573Y-76283237D01*
X148122382Y-76258420D01*
X148186145Y-76252140D01*
X148218026Y-76249000D01*
X148781974Y-76249000D01*
X148813855Y-76252140D01*
X148813855Y-76252140D01*
G37*
G36*
X130051000Y-76626000D02*
X128949000Y-76626000D01*
X128949000Y-75774000D01*
X130051000Y-75774000D01*
X130051000Y-76626000D01*
X130051000Y-76626000D01*
G37*
G36*
X134851000Y-76551000D02*
X133149000Y-76551000D01*
X133149000Y-74449000D01*
X134851000Y-74449000D01*
X134851000Y-76551000D01*
X134851000Y-76551000D01*
G37*
G36*
X132701000Y-76551000D02*
X130999000Y-76551000D01*
X130999000Y-74449000D01*
X132701000Y-74449000D01*
X132701000Y-76551000D01*
X132701000Y-76551000D01*
G37*
G36*
X137001000Y-76551000D02*
X135299000Y-76551000D01*
X135299000Y-74449000D01*
X137001000Y-74449000D01*
X137001000Y-76551000D01*
X137001000Y-76551000D01*
G37*
G36*
X130051000Y-75376000D02*
X128949000Y-75376000D01*
X128949000Y-74524000D01*
X130051000Y-74524000D01*
X130051000Y-75376000D01*
X130051000Y-75376000D01*
G37*
G36*
X140281000Y-74426000D02*
X138619000Y-74426000D01*
X138619000Y-73674000D01*
X140281000Y-73674000D01*
X140281000Y-74426000D01*
X140281000Y-74426000D01*
G37*
G36*
X142981000Y-74426000D02*
X141319000Y-74426000D01*
X141319000Y-71774000D01*
X142981000Y-71774000D01*
X142981000Y-74426000D01*
X142981000Y-74426000D01*
G37*
G36*
X130051000Y-74126000D02*
X128949000Y-74126000D01*
X128949000Y-73274000D01*
X130051000Y-73274000D01*
X130051000Y-74126000D01*
X130051000Y-74126000D01*
G37*
G36*
X126001000Y-73001000D02*
X115949000Y-73001000D01*
X115949000Y-71899000D01*
X126001000Y-71899000D01*
X126001000Y-73001000D01*
X126001000Y-73001000D01*
G37*
G36*
X130051000Y-72826000D02*
X128949000Y-72826000D01*
X128949000Y-71974000D01*
X130051000Y-71974000D01*
X130051000Y-72826000D01*
X130051000Y-72826000D01*
G37*
G36*
X137001000Y-72551000D02*
X135299000Y-72551000D01*
X135299000Y-70449000D01*
X137001000Y-70449000D01*
X137001000Y-72551000D01*
X137001000Y-72551000D01*
G37*
G36*
X134851000Y-72551000D02*
X133149000Y-72551000D01*
X133149000Y-70449000D01*
X134851000Y-70449000D01*
X134851000Y-72551000D01*
X134851000Y-72551000D01*
G37*
G36*
X132701000Y-72551000D02*
X130999000Y-72551000D01*
X130999000Y-70449000D01*
X132701000Y-70449000D01*
X132701000Y-72551000D01*
X132701000Y-72551000D01*
G37*
G36*
X140281000Y-72526000D02*
X138619000Y-72526000D01*
X138619000Y-71774000D01*
X140281000Y-71774000D01*
X140281000Y-72526000D01*
X140281000Y-72526000D01*
G37*
G36*
X120176000Y-71351000D02*
X119324000Y-71351000D01*
X119324000Y-70249000D01*
X120176000Y-70249000D01*
X120176000Y-71351000D01*
X120176000Y-71351000D01*
G37*
G36*
X117626000Y-71351000D02*
X116774000Y-71351000D01*
X116774000Y-70249000D01*
X117626000Y-70249000D01*
X117626000Y-71351000D01*
X117626000Y-71351000D01*
G37*
G36*
X116326000Y-71351000D02*
X115474000Y-71351000D01*
X115474000Y-70249000D01*
X116326000Y-70249000D01*
X116326000Y-71351000D01*
X116326000Y-71351000D01*
G37*
G36*
X127776000Y-71351000D02*
X126924000Y-71351000D01*
X126924000Y-70249000D01*
X127776000Y-70249000D01*
X127776000Y-71351000D01*
X127776000Y-71351000D01*
G37*
G36*
X126526000Y-71351000D02*
X125674000Y-71351000D01*
X125674000Y-70249000D01*
X126526000Y-70249000D01*
X126526000Y-71351000D01*
X126526000Y-71351000D01*
G37*
G36*
X125226000Y-71351000D02*
X124374000Y-71351000D01*
X124374000Y-70249000D01*
X125226000Y-70249000D01*
X125226000Y-71351000D01*
X125226000Y-71351000D01*
G37*
G36*
X123976000Y-71351000D02*
X123124000Y-71351000D01*
X123124000Y-70249000D01*
X123976000Y-70249000D01*
X123976000Y-71351000D01*
X123976000Y-71351000D01*
G37*
G36*
X118876000Y-71351000D02*
X118024000Y-71351000D01*
X118024000Y-70249000D01*
X118876000Y-70249000D01*
X118876000Y-71351000D01*
X118876000Y-71351000D01*
G37*
G36*
X122676000Y-71351000D02*
X121824000Y-71351000D01*
X121824000Y-70249000D01*
X122676000Y-70249000D01*
X122676000Y-71351000D01*
X122676000Y-71351000D01*
G37*
G36*
X121426000Y-71351000D02*
X120574000Y-71351000D01*
X120574000Y-70249000D01*
X121426000Y-70249000D01*
X121426000Y-71351000D01*
X121426000Y-71351000D01*
G37*
G36*
X150701000Y-71251000D02*
X148899000Y-71251000D01*
X148899000Y-69949000D01*
X150701000Y-69949000D01*
X150701000Y-71251000D01*
X150701000Y-71251000D01*
G37*
G36*
X150102280Y-67951000D02*
X150177618Y-67958420D01*
X150259427Y-67983237D01*
X150300333Y-67995645D01*
X150400491Y-68049181D01*
X150413426Y-68056095D01*
X150512553Y-68137447D01*
X150593905Y-68236574D01*
X150593906Y-68236576D01*
X150654355Y-68349667D01*
X150654355Y-68349668D01*
X150691580Y-68472382D01*
X150704149Y-68600000D01*
X150691580Y-68727618D01*
X150666763Y-68809427D01*
X150654355Y-68850333D01*
X150600819Y-68950491D01*
X150593905Y-68963426D01*
X150512553Y-69062553D01*
X150413426Y-69143905D01*
X150413424Y-69143906D01*
X150300333Y-69204355D01*
X150259427Y-69216763D01*
X150177618Y-69241580D01*
X150113855Y-69247860D01*
X150081974Y-69251000D01*
X149518026Y-69251000D01*
X149486145Y-69247860D01*
X149422382Y-69241580D01*
X149340573Y-69216763D01*
X149299667Y-69204355D01*
X149186576Y-69143906D01*
X149186574Y-69143905D01*
X149087447Y-69062553D01*
X149006095Y-68963426D01*
X148999181Y-68950491D01*
X148945645Y-68850333D01*
X148933237Y-68809427D01*
X148908420Y-68727618D01*
X148895851Y-68600000D01*
X148908420Y-68472382D01*
X148945645Y-68349668D01*
X148945645Y-68349667D01*
X149006094Y-68236576D01*
X149006095Y-68236574D01*
X149087447Y-68137447D01*
X149186574Y-68056095D01*
X149199509Y-68049181D01*
X149299667Y-67995645D01*
X149340573Y-67983237D01*
X149422382Y-67958420D01*
X149497720Y-67951000D01*
X149518026Y-67949000D01*
X150081974Y-67949000D01*
X150102280Y-67951000D01*
X150102280Y-67951000D01*
G37*
G36*
X114451000Y-67861886D02*
X114451602Y-67874138D01*
X114454149Y-67900000D01*
X114451602Y-67925862D01*
X114451000Y-67938114D01*
X114451000Y-68011407D01*
X114442043Y-68028165D01*
X114437913Y-68039708D01*
X114418749Y-68102882D01*
X114404355Y-68150333D01*
X114358258Y-68236574D01*
X114343905Y-68263426D01*
X114262553Y-68362553D01*
X114163426Y-68443905D01*
X114163424Y-68443906D01*
X114050333Y-68504355D01*
X114009427Y-68516763D01*
X113927618Y-68541580D01*
X113863855Y-68547860D01*
X113831974Y-68551000D01*
X113068026Y-68551000D01*
X113036145Y-68547860D01*
X112972382Y-68541580D01*
X112890573Y-68516763D01*
X112849667Y-68504355D01*
X112736576Y-68443906D01*
X112736574Y-68443905D01*
X112637447Y-68362553D01*
X112556095Y-68263426D01*
X112541742Y-68236574D01*
X112495645Y-68150333D01*
X112481251Y-68102882D01*
X112462088Y-68039711D01*
X112452712Y-68017076D01*
X112449000Y-68011520D01*
X112449000Y-67938114D01*
X112448398Y-67925862D01*
X112445851Y-67900000D01*
X112448398Y-67874138D01*
X112449000Y-67861886D01*
X112449000Y-66649000D01*
X114451000Y-66649000D01*
X114451000Y-67861886D01*
X114451000Y-67861886D01*
G37*
G36*
X120538015Y-61876973D02*
X120641879Y-61908479D01*
X120737600Y-61959644D01*
X120821501Y-62028499D01*
X120890356Y-62112400D01*
X120941521Y-62208121D01*
X120945383Y-62220854D01*
X120954760Y-62243493D01*
X120968374Y-62263867D01*
X120985701Y-62281194D01*
X121006076Y-62294808D01*
X121028715Y-62304186D01*
X121052748Y-62308966D01*
X121077252Y-62308966D01*
X121101286Y-62304185D01*
X121123925Y-62294808D01*
X121144299Y-62281194D01*
X121161626Y-62263867D01*
X121175240Y-62243492D01*
X121184617Y-62220854D01*
X121188479Y-62208121D01*
X121239644Y-62112400D01*
X121308499Y-62028499D01*
X121392400Y-61959644D01*
X121488121Y-61908479D01*
X121591985Y-61876973D01*
X121672933Y-61869000D01*
X121727067Y-61869000D01*
X121808015Y-61876973D01*
X121911879Y-61908479D01*
X122007600Y-61959644D01*
X122091501Y-62028499D01*
X122160356Y-62112400D01*
X122211521Y-62208121D01*
X122243027Y-62311985D01*
X122253666Y-62420000D01*
X122243027Y-62528015D01*
X122211521Y-62631879D01*
X122160356Y-62727600D01*
X122091501Y-62811501D01*
X122007600Y-62880356D01*
X121911879Y-62931521D01*
X121899142Y-62935385D01*
X121876507Y-62944760D01*
X121856133Y-62958374D01*
X121838806Y-62975701D01*
X121825192Y-62996076D01*
X121815814Y-63018715D01*
X121811034Y-63042748D01*
X121811034Y-63067252D01*
X121815815Y-63091286D01*
X121825192Y-63113925D01*
X121838806Y-63134299D01*
X121856133Y-63151626D01*
X121876508Y-63165240D01*
X121899142Y-63174615D01*
X121911879Y-63178479D01*
X122007600Y-63229644D01*
X122091501Y-63298499D01*
X122160356Y-63382400D01*
X122211521Y-63478121D01*
X122243027Y-63581985D01*
X122253666Y-63690000D01*
X122243027Y-63798015D01*
X122211521Y-63901879D01*
X122160356Y-63997600D01*
X122091501Y-64081501D01*
X122007600Y-64150356D01*
X121911879Y-64201521D01*
X121899142Y-64205385D01*
X121876507Y-64214760D01*
X121856133Y-64228374D01*
X121838806Y-64245701D01*
X121825192Y-64266076D01*
X121815814Y-64288715D01*
X121811034Y-64312748D01*
X121811034Y-64337252D01*
X121815815Y-64361286D01*
X121825192Y-64383925D01*
X121838806Y-64404299D01*
X121856133Y-64421626D01*
X121876508Y-64435240D01*
X121899142Y-64444615D01*
X121911879Y-64448479D01*
X122007600Y-64499644D01*
X122091501Y-64568499D01*
X122160356Y-64652400D01*
X122211521Y-64748121D01*
X122243027Y-64851985D01*
X122253666Y-64960000D01*
X122243027Y-65068015D01*
X122211521Y-65171879D01*
X122160356Y-65267600D01*
X122091501Y-65351501D01*
X122007600Y-65420356D01*
X121911879Y-65471521D01*
X121899142Y-65475385D01*
X121876507Y-65484760D01*
X121856133Y-65498374D01*
X121838806Y-65515701D01*
X121825192Y-65536076D01*
X121815814Y-65558715D01*
X121811034Y-65582748D01*
X121811034Y-65607252D01*
X121815815Y-65631286D01*
X121825192Y-65653925D01*
X121838806Y-65674299D01*
X121856133Y-65691626D01*
X121876508Y-65705240D01*
X121899142Y-65714615D01*
X121911879Y-65718479D01*
X122007600Y-65769644D01*
X122091501Y-65838499D01*
X122160356Y-65922400D01*
X122211521Y-66018121D01*
X122243027Y-66121985D01*
X122253666Y-66230000D01*
X122243027Y-66338015D01*
X122211521Y-66441879D01*
X122160356Y-66537600D01*
X122091501Y-66621501D01*
X122007600Y-66690356D01*
X121963805Y-66713766D01*
X121943439Y-66727374D01*
X121926111Y-66744701D01*
X121912498Y-66765076D01*
X121903120Y-66787715D01*
X121898340Y-66811748D01*
X121898340Y-66836252D01*
X121903121Y-66860286D01*
X121912498Y-66882925D01*
X121926112Y-66903299D01*
X121943439Y-66920627D01*
X121963814Y-66934240D01*
X121986453Y-66943618D01*
X122022738Y-66949000D01*
X122251000Y-66949000D01*
X122251000Y-68051000D01*
X121149000Y-68051000D01*
X121149000Y-67822738D01*
X121146598Y-67798352D01*
X121139485Y-67774903D01*
X121127934Y-67753292D01*
X121112388Y-67734350D01*
X121093446Y-67718804D01*
X121071835Y-67707253D01*
X121048386Y-67700140D01*
X121024000Y-67697738D01*
X120999614Y-67700140D01*
X120976165Y-67707253D01*
X120954554Y-67718804D01*
X120935612Y-67734350D01*
X120913764Y-67763808D01*
X120890356Y-67807600D01*
X120821501Y-67891501D01*
X120737600Y-67960356D01*
X120641879Y-68011521D01*
X120538015Y-68043027D01*
X120457067Y-68051000D01*
X120402933Y-68051000D01*
X120321985Y-68043027D01*
X120218121Y-68011521D01*
X120122400Y-67960356D01*
X120038499Y-67891501D01*
X119969644Y-67807600D01*
X119918479Y-67711879D01*
X119886973Y-67608015D01*
X119876334Y-67500000D01*
X119886973Y-67391985D01*
X119918479Y-67288121D01*
X119969644Y-67192400D01*
X120038499Y-67108499D01*
X120122400Y-67039644D01*
X120218121Y-66988479D01*
X120230858Y-66984615D01*
X120253493Y-66975240D01*
X120273867Y-66961626D01*
X120291194Y-66944299D01*
X120304808Y-66923924D01*
X120314186Y-66901285D01*
X120318966Y-66877252D01*
X120318966Y-66852748D01*
X120541034Y-66852748D01*
X120541034Y-66877252D01*
X120545815Y-66901286D01*
X120555192Y-66923925D01*
X120568806Y-66944299D01*
X120586133Y-66961626D01*
X120606508Y-66975240D01*
X120629142Y-66984615D01*
X120641879Y-66988479D01*
X120737600Y-67039644D01*
X120821501Y-67108499D01*
X120890356Y-67192400D01*
X120913766Y-67236195D01*
X120927374Y-67256561D01*
X120944701Y-67273889D01*
X120965076Y-67287502D01*
X120987715Y-67296880D01*
X121011748Y-67301660D01*
X121036252Y-67301660D01*
X121060286Y-67296879D01*
X121082925Y-67287502D01*
X121103299Y-67273888D01*
X121120627Y-67256561D01*
X121134240Y-67236186D01*
X121143618Y-67213547D01*
X121149000Y-67177262D01*
X121149000Y-66949000D01*
X121377262Y-66949000D01*
X121401648Y-66946598D01*
X121425097Y-66939485D01*
X121446708Y-66927934D01*
X121465650Y-66912388D01*
X121481196Y-66893446D01*
X121492747Y-66871835D01*
X121499860Y-66848386D01*
X121502262Y-66824000D01*
X121499860Y-66799614D01*
X121492747Y-66776165D01*
X121481196Y-66754554D01*
X121465650Y-66735612D01*
X121436192Y-66713764D01*
X121392400Y-66690356D01*
X121308499Y-66621501D01*
X121239644Y-66537600D01*
X121188479Y-66441879D01*
X121184615Y-66429142D01*
X121175240Y-66406507D01*
X121161626Y-66386133D01*
X121144299Y-66368806D01*
X121123924Y-66355192D01*
X121101285Y-66345814D01*
X121077252Y-66341034D01*
X121052748Y-66341034D01*
X121028714Y-66345815D01*
X121006075Y-66355192D01*
X120985701Y-66368806D01*
X120968374Y-66386133D01*
X120954760Y-66406508D01*
X120945385Y-66429142D01*
X120941521Y-66441879D01*
X120890356Y-66537600D01*
X120821501Y-66621501D01*
X120737600Y-66690356D01*
X120641879Y-66741521D01*
X120629142Y-66745385D01*
X120606507Y-66754760D01*
X120586133Y-66768374D01*
X120568806Y-66785701D01*
X120555192Y-66806076D01*
X120545814Y-66828715D01*
X120541034Y-66852748D01*
X120318966Y-66852748D01*
X120314185Y-66828714D01*
X120304808Y-66806075D01*
X120291194Y-66785701D01*
X120273867Y-66768374D01*
X120253492Y-66754760D01*
X120230858Y-66745385D01*
X120218121Y-66741521D01*
X120122400Y-66690356D01*
X120038499Y-66621501D01*
X119969644Y-66537600D01*
X119918479Y-66441879D01*
X119886973Y-66338015D01*
X119876334Y-66230000D01*
X119886973Y-66121985D01*
X119918479Y-66018121D01*
X119969644Y-65922400D01*
X120038499Y-65838499D01*
X120122400Y-65769644D01*
X120218121Y-65718479D01*
X120230858Y-65714615D01*
X120253493Y-65705240D01*
X120273867Y-65691626D01*
X120291194Y-65674299D01*
X120304808Y-65653924D01*
X120314186Y-65631285D01*
X120318966Y-65607252D01*
X120318966Y-65582748D01*
X120541034Y-65582748D01*
X120541034Y-65607252D01*
X120545815Y-65631286D01*
X120555192Y-65653925D01*
X120568806Y-65674299D01*
X120586133Y-65691626D01*
X120606508Y-65705240D01*
X120629142Y-65714615D01*
X120641879Y-65718479D01*
X120737600Y-65769644D01*
X120821501Y-65838499D01*
X120890356Y-65922400D01*
X120941521Y-66018121D01*
X120945383Y-66030854D01*
X120954760Y-66053493D01*
X120968374Y-66073867D01*
X120985701Y-66091194D01*
X121006076Y-66104808D01*
X121028715Y-66114186D01*
X121052748Y-66118966D01*
X121077252Y-66118966D01*
X121101286Y-66114185D01*
X121123925Y-66104808D01*
X121144299Y-66091194D01*
X121161626Y-66073867D01*
X121175240Y-66053492D01*
X121184617Y-66030854D01*
X121188479Y-66018121D01*
X121239644Y-65922400D01*
X121308499Y-65838499D01*
X121392400Y-65769644D01*
X121488121Y-65718479D01*
X121500858Y-65714615D01*
X121523493Y-65705240D01*
X121543867Y-65691626D01*
X121561194Y-65674299D01*
X121574808Y-65653924D01*
X121584186Y-65631285D01*
X121588966Y-65607252D01*
X121588966Y-65582748D01*
X121584185Y-65558714D01*
X121574808Y-65536075D01*
X121561194Y-65515701D01*
X121543867Y-65498374D01*
X121523492Y-65484760D01*
X121500858Y-65475385D01*
X121488121Y-65471521D01*
X121392400Y-65420356D01*
X121308499Y-65351501D01*
X121239644Y-65267600D01*
X121188479Y-65171879D01*
X121184615Y-65159142D01*
X121175240Y-65136507D01*
X121161626Y-65116133D01*
X121144299Y-65098806D01*
X121123924Y-65085192D01*
X121101285Y-65075814D01*
X121077252Y-65071034D01*
X121052748Y-65071034D01*
X121028714Y-65075815D01*
X121006075Y-65085192D01*
X120985701Y-65098806D01*
X120968374Y-65116133D01*
X120954760Y-65136508D01*
X120945385Y-65159142D01*
X120941521Y-65171879D01*
X120890356Y-65267600D01*
X120821501Y-65351501D01*
X120737600Y-65420356D01*
X120641879Y-65471521D01*
X120629142Y-65475385D01*
X120606507Y-65484760D01*
X120586133Y-65498374D01*
X120568806Y-65515701D01*
X120555192Y-65536076D01*
X120545814Y-65558715D01*
X120541034Y-65582748D01*
X120318966Y-65582748D01*
X120314185Y-65558714D01*
X120304808Y-65536075D01*
X120291194Y-65515701D01*
X120273867Y-65498374D01*
X120253492Y-65484760D01*
X120230858Y-65475385D01*
X120218121Y-65471521D01*
X120122400Y-65420356D01*
X120038499Y-65351501D01*
X119969644Y-65267600D01*
X119918479Y-65171879D01*
X119886973Y-65068015D01*
X119876334Y-64960000D01*
X119886973Y-64851985D01*
X119918479Y-64748121D01*
X119969644Y-64652400D01*
X120038499Y-64568499D01*
X120122400Y-64499644D01*
X120218121Y-64448479D01*
X120230858Y-64444615D01*
X120253493Y-64435240D01*
X120273867Y-64421626D01*
X120291194Y-64404299D01*
X120304808Y-64383924D01*
X120314186Y-64361285D01*
X120318966Y-64337252D01*
X120318966Y-64312748D01*
X120541034Y-64312748D01*
X120541034Y-64337252D01*
X120545815Y-64361286D01*
X120555192Y-64383925D01*
X120568806Y-64404299D01*
X120586133Y-64421626D01*
X120606508Y-64435240D01*
X120629142Y-64444615D01*
X120641879Y-64448479D01*
X120737600Y-64499644D01*
X120821501Y-64568499D01*
X120890356Y-64652400D01*
X120941521Y-64748121D01*
X120945383Y-64760854D01*
X120954760Y-64783493D01*
X120968374Y-64803867D01*
X120985701Y-64821194D01*
X121006076Y-64834808D01*
X121028715Y-64844186D01*
X121052748Y-64848966D01*
X121077252Y-64848966D01*
X121101286Y-64844185D01*
X121123925Y-64834808D01*
X121144299Y-64821194D01*
X121161626Y-64803867D01*
X121175240Y-64783492D01*
X121184617Y-64760854D01*
X121188479Y-64748121D01*
X121239644Y-64652400D01*
X121308499Y-64568499D01*
X121392400Y-64499644D01*
X121488121Y-64448479D01*
X121500858Y-64444615D01*
X121523493Y-64435240D01*
X121543867Y-64421626D01*
X121561194Y-64404299D01*
X121574808Y-64383924D01*
X121584186Y-64361285D01*
X121588966Y-64337252D01*
X121588966Y-64312748D01*
X121584185Y-64288714D01*
X121574808Y-64266075D01*
X121561194Y-64245701D01*
X121543867Y-64228374D01*
X121523492Y-64214760D01*
X121500858Y-64205385D01*
X121488121Y-64201521D01*
X121392400Y-64150356D01*
X121308499Y-64081501D01*
X121239644Y-63997600D01*
X121188479Y-63901879D01*
X121184615Y-63889142D01*
X121175240Y-63866507D01*
X121161626Y-63846133D01*
X121144299Y-63828806D01*
X121123924Y-63815192D01*
X121101285Y-63805814D01*
X121077252Y-63801034D01*
X121052748Y-63801034D01*
X121028714Y-63805815D01*
X121006075Y-63815192D01*
X120985701Y-63828806D01*
X120968374Y-63846133D01*
X120954760Y-63866508D01*
X120945385Y-63889142D01*
X120941521Y-63901879D01*
X120890356Y-63997600D01*
X120821501Y-64081501D01*
X120737600Y-64150356D01*
X120641879Y-64201521D01*
X120629142Y-64205385D01*
X120606507Y-64214760D01*
X120586133Y-64228374D01*
X120568806Y-64245701D01*
X120555192Y-64266076D01*
X120545814Y-64288715D01*
X120541034Y-64312748D01*
X120318966Y-64312748D01*
X120314185Y-64288714D01*
X120304808Y-64266075D01*
X120291194Y-64245701D01*
X120273867Y-64228374D01*
X120253492Y-64214760D01*
X120230858Y-64205385D01*
X120218121Y-64201521D01*
X120122400Y-64150356D01*
X120038499Y-64081501D01*
X119969644Y-63997600D01*
X119918479Y-63901879D01*
X119886973Y-63798015D01*
X119876334Y-63690000D01*
X119886973Y-63581985D01*
X119918479Y-63478121D01*
X119969644Y-63382400D01*
X120038499Y-63298499D01*
X120122400Y-63229644D01*
X120218121Y-63178479D01*
X120230858Y-63174615D01*
X120253493Y-63165240D01*
X120273867Y-63151626D01*
X120291194Y-63134299D01*
X120304808Y-63113924D01*
X120314186Y-63091285D01*
X120318966Y-63067252D01*
X120318966Y-63042748D01*
X120541034Y-63042748D01*
X120541034Y-63067252D01*
X120545815Y-63091286D01*
X120555192Y-63113925D01*
X120568806Y-63134299D01*
X120586133Y-63151626D01*
X120606508Y-63165240D01*
X120629142Y-63174615D01*
X120641879Y-63178479D01*
X120737600Y-63229644D01*
X120821501Y-63298499D01*
X120890356Y-63382400D01*
X120941521Y-63478121D01*
X120945383Y-63490854D01*
X120954760Y-63513493D01*
X120968374Y-63533867D01*
X120985701Y-63551194D01*
X121006076Y-63564808D01*
X121028715Y-63574186D01*
X121052748Y-63578966D01*
X121077252Y-63578966D01*
X121101286Y-63574185D01*
X121123925Y-63564808D01*
X121144299Y-63551194D01*
X121161626Y-63533867D01*
X121175240Y-63513492D01*
X121184617Y-63490854D01*
X121188479Y-63478121D01*
X121239644Y-63382400D01*
X121308499Y-63298499D01*
X121392400Y-63229644D01*
X121488121Y-63178479D01*
X121500858Y-63174615D01*
X121523493Y-63165240D01*
X121543867Y-63151626D01*
X121561194Y-63134299D01*
X121574808Y-63113924D01*
X121584186Y-63091285D01*
X121588966Y-63067252D01*
X121588966Y-63042748D01*
X121584185Y-63018714D01*
X121574808Y-62996075D01*
X121561194Y-62975701D01*
X121543867Y-62958374D01*
X121523492Y-62944760D01*
X121500858Y-62935385D01*
X121488121Y-62931521D01*
X121392400Y-62880356D01*
X121308499Y-62811501D01*
X121239644Y-62727600D01*
X121188479Y-62631879D01*
X121184615Y-62619142D01*
X121175240Y-62596507D01*
X121161626Y-62576133D01*
X121144299Y-62558806D01*
X121123924Y-62545192D01*
X121101285Y-62535814D01*
X121077252Y-62531034D01*
X121052748Y-62531034D01*
X121028714Y-62535815D01*
X121006075Y-62545192D01*
X120985701Y-62558806D01*
X120968374Y-62576133D01*
X120954760Y-62596508D01*
X120945385Y-62619142D01*
X120941521Y-62631879D01*
X120890356Y-62727600D01*
X120821501Y-62811501D01*
X120737600Y-62880356D01*
X120641879Y-62931521D01*
X120629142Y-62935385D01*
X120606507Y-62944760D01*
X120586133Y-62958374D01*
X120568806Y-62975701D01*
X120555192Y-62996076D01*
X120545814Y-63018715D01*
X120541034Y-63042748D01*
X120318966Y-63042748D01*
X120314185Y-63018714D01*
X120304808Y-62996075D01*
X120291194Y-62975701D01*
X120273867Y-62958374D01*
X120253492Y-62944760D01*
X120230858Y-62935385D01*
X120218121Y-62931521D01*
X120122400Y-62880356D01*
X120038499Y-62811501D01*
X119969644Y-62727600D01*
X119918479Y-62631879D01*
X119886973Y-62528015D01*
X119876334Y-62420000D01*
X119886973Y-62311985D01*
X119918479Y-62208121D01*
X119969644Y-62112400D01*
X120038499Y-62028499D01*
X120122400Y-61959644D01*
X120218121Y-61908479D01*
X120321985Y-61876973D01*
X120402933Y-61869000D01*
X120457067Y-61869000D01*
X120538015Y-61876973D01*
X120538015Y-61876973D01*
G37*
G36*
X116376349Y-61153820D02*
X116376352Y-61153821D01*
X116376351Y-61153821D01*
X116517574Y-61212317D01*
X116642956Y-61296095D01*
X116644674Y-61297243D01*
X116752757Y-61405326D01*
X116752759Y-61405329D01*
X116837683Y-61532426D01*
X116882927Y-61641657D01*
X116896180Y-61673651D01*
X116926000Y-61823569D01*
X116926000Y-61976431D01*
X116896180Y-62126349D01*
X116896179Y-62126351D01*
X116837683Y-62267574D01*
X116808008Y-62311985D01*
X116752757Y-62394674D01*
X116644674Y-62502757D01*
X116644671Y-62502759D01*
X116517574Y-62587683D01*
X116467278Y-62608516D01*
X116445669Y-62620067D01*
X116426727Y-62635612D01*
X116411182Y-62654554D01*
X116399631Y-62676165D01*
X116392518Y-62699614D01*
X116390116Y-62724000D01*
X116392518Y-62748387D01*
X116399631Y-62771836D01*
X116411183Y-62793447D01*
X116426728Y-62812389D01*
X116445670Y-62827934D01*
X116467281Y-62839485D01*
X116490730Y-62846598D01*
X116515116Y-62849000D01*
X116876000Y-62849000D01*
X116876000Y-65951000D01*
X116515116Y-65951000D01*
X116490730Y-65953402D01*
X116467281Y-65960515D01*
X116445670Y-65972066D01*
X116426728Y-65987612D01*
X116411182Y-66006554D01*
X116399631Y-66028165D01*
X116392518Y-66051614D01*
X116390116Y-66076000D01*
X116392518Y-66100386D01*
X116399631Y-66123835D01*
X116411182Y-66145446D01*
X116426728Y-66164388D01*
X116445670Y-66179934D01*
X116467278Y-66191484D01*
X116517574Y-66212317D01*
X116517575Y-66212318D01*
X116644674Y-66297243D01*
X116752757Y-66405326D01*
X116752759Y-66405329D01*
X116837683Y-66532426D01*
X116856602Y-66578101D01*
X116896180Y-66673651D01*
X116926000Y-66823569D01*
X116926000Y-66976431D01*
X116896180Y-67126349D01*
X116896179Y-67126351D01*
X116837683Y-67267574D01*
X116837682Y-67267575D01*
X116752757Y-67394674D01*
X116644674Y-67502757D01*
X116644671Y-67502759D01*
X116517574Y-67587683D01*
X116408343Y-67632927D01*
X116376349Y-67646180D01*
X116226431Y-67676000D01*
X116073569Y-67676000D01*
X115923651Y-67646180D01*
X115891657Y-67632927D01*
X115782426Y-67587683D01*
X115655329Y-67502759D01*
X115655326Y-67502757D01*
X115547243Y-67394674D01*
X115462318Y-67267575D01*
X115462317Y-67267574D01*
X115403821Y-67126351D01*
X115403820Y-67126349D01*
X115374000Y-66976431D01*
X115374000Y-66823569D01*
X115403820Y-66673651D01*
X115443398Y-66578101D01*
X115462317Y-66532426D01*
X115547241Y-66405329D01*
X115547243Y-66405326D01*
X115655326Y-66297243D01*
X115782425Y-66212318D01*
X115782426Y-66212317D01*
X115832722Y-66191484D01*
X115854331Y-66179933D01*
X115873273Y-66164388D01*
X115888818Y-66145446D01*
X115900369Y-66123835D01*
X115907482Y-66100386D01*
X115909884Y-66076000D01*
X115907482Y-66051613D01*
X115900369Y-66028164D01*
X115888817Y-66006553D01*
X115873272Y-65987611D01*
X115854330Y-65972066D01*
X115832719Y-65960515D01*
X115809270Y-65953402D01*
X115784884Y-65951000D01*
X115424000Y-65951000D01*
X115424000Y-62849000D01*
X115784884Y-62849000D01*
X115809270Y-62846598D01*
X115832719Y-62839485D01*
X115854330Y-62827934D01*
X115873272Y-62812388D01*
X115888818Y-62793446D01*
X115900369Y-62771835D01*
X115907482Y-62748386D01*
X115909884Y-62724000D01*
X115907482Y-62699614D01*
X115900369Y-62676165D01*
X115888818Y-62654554D01*
X115873272Y-62635612D01*
X115854330Y-62620066D01*
X115832722Y-62608516D01*
X115782426Y-62587683D01*
X115655329Y-62502759D01*
X115655326Y-62502757D01*
X115547243Y-62394674D01*
X115491992Y-62311985D01*
X115462317Y-62267574D01*
X115403821Y-62126351D01*
X115403820Y-62126349D01*
X115374000Y-61976431D01*
X115374000Y-61823569D01*
X115403820Y-61673651D01*
X115417073Y-61641657D01*
X115462317Y-61532426D01*
X115547241Y-61405329D01*
X115547243Y-61405326D01*
X115655326Y-61297243D01*
X115657044Y-61296095D01*
X115782426Y-61212317D01*
X115923649Y-61153821D01*
X115923648Y-61153821D01*
X115923651Y-61153820D01*
X116073569Y-61124000D01*
X116226431Y-61124000D01*
X116376349Y-61153820D01*
X116376349Y-61153820D01*
G37*
G36*
X126206032Y-64164207D02*
X126404146Y-64224305D01*
X126586729Y-64321897D01*
X126708249Y-64421626D01*
X126746765Y-64453235D01*
X126878103Y-64613270D01*
X126975693Y-64795850D01*
X126975694Y-64795853D01*
X126975695Y-64795855D01*
X127035793Y-64993969D01*
X127051000Y-65148371D01*
X127051000Y-65751630D01*
X127035793Y-65906032D01*
X126975695Y-66104146D01*
X126878103Y-66286729D01*
X126878101Y-66286731D01*
X126746768Y-66446762D01*
X126746766Y-66446763D01*
X126746765Y-66446765D01*
X126586729Y-66578103D01*
X126404145Y-66675695D01*
X126206031Y-66735793D01*
X126000000Y-66756085D01*
X125793968Y-66735793D01*
X125595854Y-66675695D01*
X125413271Y-66578103D01*
X125349257Y-66525568D01*
X125253238Y-66446768D01*
X125253237Y-66446766D01*
X125253235Y-66446765D01*
X125121897Y-66286729D01*
X125024305Y-66104145D01*
X124964207Y-65906031D01*
X124949000Y-65751629D01*
X124949000Y-65148370D01*
X124964207Y-64993968D01*
X125024305Y-64795854D01*
X125121898Y-64613271D01*
X125121899Y-64613269D01*
X125253236Y-64453235D01*
X125291752Y-64421626D01*
X125413272Y-64321897D01*
X125595855Y-64224305D01*
X125793969Y-64164207D01*
X126000000Y-64143915D01*
X126206032Y-64164207D01*
X126206032Y-64164207D01*
G37*
G36*
X133206032Y-64164207D02*
X133404146Y-64224305D01*
X133586729Y-64321897D01*
X133708249Y-64421626D01*
X133746765Y-64453235D01*
X133878103Y-64613270D01*
X133975693Y-64795850D01*
X133975694Y-64795853D01*
X133975695Y-64795855D01*
X134035793Y-64993969D01*
X134051000Y-65148371D01*
X134051000Y-65751630D01*
X134035793Y-65906032D01*
X133975695Y-66104146D01*
X133878103Y-66286729D01*
X133878101Y-66286731D01*
X133746768Y-66446762D01*
X133746766Y-66446763D01*
X133746765Y-66446765D01*
X133586729Y-66578103D01*
X133404145Y-66675695D01*
X133206031Y-66735793D01*
X133000000Y-66756085D01*
X132793968Y-66735793D01*
X132595854Y-66675695D01*
X132413271Y-66578103D01*
X132349257Y-66525568D01*
X132253238Y-66446768D01*
X132253237Y-66446766D01*
X132253235Y-66446765D01*
X132121897Y-66286729D01*
X132024305Y-66104145D01*
X131964207Y-65906031D01*
X131949000Y-65751629D01*
X131949000Y-65148370D01*
X131964207Y-64993968D01*
X132024305Y-64795854D01*
X132121898Y-64613271D01*
X132121899Y-64613269D01*
X132253236Y-64453235D01*
X132291752Y-64421626D01*
X132413272Y-64321897D01*
X132595855Y-64224305D01*
X132793969Y-64164207D01*
X133000000Y-64143915D01*
X133206032Y-64164207D01*
X133206032Y-64164207D01*
G37*
G36*
X114451000Y-66201000D02*
X112449000Y-66201000D01*
X112449000Y-64599000D01*
X114451000Y-64599000D01*
X114451000Y-66201000D01*
X114451000Y-66201000D01*
G37*
G36*
X148506565Y-63139389D02*
X148697834Y-63218615D01*
X148869976Y-63333637D01*
X149016363Y-63480024D01*
X149131385Y-63652166D01*
X149210611Y-63843435D01*
X149251000Y-64046484D01*
X149251000Y-64253516D01*
X149210611Y-64456565D01*
X149131385Y-64647834D01*
X149016363Y-64819976D01*
X148869976Y-64966363D01*
X148697834Y-65081385D01*
X148506565Y-65160611D01*
X148303516Y-65201000D01*
X148096484Y-65201000D01*
X147893435Y-65160611D01*
X147702166Y-65081385D01*
X147530024Y-64966363D01*
X147383637Y-64819976D01*
X147268615Y-64647834D01*
X147189389Y-64456565D01*
X147149000Y-64253516D01*
X147149000Y-64251258D01*
X147146598Y-64226872D01*
X147139485Y-64203423D01*
X147127934Y-64181812D01*
X147112388Y-64162870D01*
X147096707Y-64150000D01*
X147112388Y-64137131D01*
X147127933Y-64118189D01*
X147139485Y-64096578D01*
X147146598Y-64073129D01*
X147149000Y-64048742D01*
X147149000Y-64046484D01*
X147189389Y-63843435D01*
X147268615Y-63652166D01*
X147383637Y-63480024D01*
X147530024Y-63333637D01*
X147702166Y-63218615D01*
X147893435Y-63139389D01*
X148096484Y-63099000D01*
X148303516Y-63099000D01*
X148506565Y-63139389D01*
X148506565Y-63139389D01*
G37*
G36*
X140306565Y-63139389D02*
X140497834Y-63218615D01*
X140669976Y-63333637D01*
X140816363Y-63480024D01*
X140931385Y-63652166D01*
X141010611Y-63843435D01*
X141051000Y-64046484D01*
X141051000Y-64048742D01*
X141053402Y-64073128D01*
X141060515Y-64096577D01*
X141072066Y-64118188D01*
X141087612Y-64137130D01*
X141103293Y-64150000D01*
X141087612Y-64162869D01*
X141072067Y-64181811D01*
X141060515Y-64203422D01*
X141053402Y-64226871D01*
X141051000Y-64251258D01*
X141051000Y-64253516D01*
X141010611Y-64456565D01*
X140931385Y-64647834D01*
X140816363Y-64819976D01*
X140669976Y-64966363D01*
X140497834Y-65081385D01*
X140306565Y-65160611D01*
X140103516Y-65201000D01*
X139896484Y-65201000D01*
X139693435Y-65160611D01*
X139502166Y-65081385D01*
X139330024Y-64966363D01*
X139183637Y-64819976D01*
X139068615Y-64647834D01*
X138989389Y-64456565D01*
X138949000Y-64253516D01*
X138949000Y-64046484D01*
X138989389Y-63843435D01*
X139068615Y-63652166D01*
X139183637Y-63480024D01*
X139330024Y-63333637D01*
X139502166Y-63218615D01*
X139693435Y-63139389D01*
X139896484Y-63099000D01*
X140103516Y-63099000D01*
X140306565Y-63139389D01*
X140306565Y-63139389D01*
G37*
G36*
X142333643Y-63379781D02*
X142479415Y-63440162D01*
X142610611Y-63527824D01*
X142722176Y-63639389D01*
X142809838Y-63770585D01*
X142870219Y-63916357D01*
X142901000Y-64071107D01*
X142901000Y-64228893D01*
X142870219Y-64383643D01*
X142809838Y-64529415D01*
X142722176Y-64660611D01*
X142610611Y-64772176D01*
X142479415Y-64859838D01*
X142333643Y-64920219D01*
X142178893Y-64951000D01*
X142021107Y-64951000D01*
X141866357Y-64920219D01*
X141720585Y-64859838D01*
X141589389Y-64772176D01*
X141477824Y-64660611D01*
X141390162Y-64529415D01*
X141329781Y-64383643D01*
X141298598Y-64226872D01*
X141291485Y-64203423D01*
X141279934Y-64181812D01*
X141264389Y-64162870D01*
X141248707Y-64150000D01*
X141264388Y-64137130D01*
X141279934Y-64118188D01*
X141291485Y-64096577D01*
X141298598Y-64073128D01*
X141329781Y-63916357D01*
X141390162Y-63770585D01*
X141477824Y-63639389D01*
X141589389Y-63527824D01*
X141720585Y-63440162D01*
X141866357Y-63379781D01*
X142021107Y-63349000D01*
X142178893Y-63349000D01*
X142333643Y-63379781D01*
X142333643Y-63379781D01*
G37*
G36*
X144333643Y-63379781D02*
X144479415Y-63440162D01*
X144610611Y-63527824D01*
X144722176Y-63639389D01*
X144809838Y-63770585D01*
X144870219Y-63916357D01*
X144901000Y-64071107D01*
X144901000Y-64228893D01*
X144870219Y-64383643D01*
X144809838Y-64529415D01*
X144722176Y-64660611D01*
X144610611Y-64772176D01*
X144479415Y-64859838D01*
X144333643Y-64920219D01*
X144178893Y-64951000D01*
X144021107Y-64951000D01*
X143866357Y-64920219D01*
X143720585Y-64859838D01*
X143589389Y-64772176D01*
X143477824Y-64660611D01*
X143390162Y-64529415D01*
X143329781Y-64383643D01*
X143299000Y-64228893D01*
X143299000Y-64071107D01*
X143329781Y-63916357D01*
X143390162Y-63770585D01*
X143477824Y-63639389D01*
X143589389Y-63527824D01*
X143720585Y-63440162D01*
X143866357Y-63379781D01*
X144021107Y-63349000D01*
X144178893Y-63349000D01*
X144333643Y-63379781D01*
X144333643Y-63379781D01*
G37*
G36*
X146333643Y-63379781D02*
X146479415Y-63440162D01*
X146610611Y-63527824D01*
X146722176Y-63639389D01*
X146809838Y-63770585D01*
X146870219Y-63916357D01*
X146901402Y-64073128D01*
X146908515Y-64096577D01*
X146920066Y-64118188D01*
X146935611Y-64137130D01*
X146951293Y-64150000D01*
X146935612Y-64162870D01*
X146920066Y-64181812D01*
X146908515Y-64203423D01*
X146901402Y-64226872D01*
X146870219Y-64383643D01*
X146809838Y-64529415D01*
X146722176Y-64660611D01*
X146610611Y-64772176D01*
X146479415Y-64859838D01*
X146333643Y-64920219D01*
X146178893Y-64951000D01*
X146021107Y-64951000D01*
X145866357Y-64920219D01*
X145720585Y-64859838D01*
X145589389Y-64772176D01*
X145477824Y-64660611D01*
X145390162Y-64529415D01*
X145329781Y-64383643D01*
X145299000Y-64228893D01*
X145299000Y-64071107D01*
X145329781Y-63916357D01*
X145390162Y-63770585D01*
X145477824Y-63639389D01*
X145589389Y-63527824D01*
X145720585Y-63440162D01*
X145866357Y-63379781D01*
X146021107Y-63349000D01*
X146178893Y-63349000D01*
X146333643Y-63379781D01*
X146333643Y-63379781D01*
G37*
G36*
X114451000Y-64201000D02*
X112449000Y-64201000D01*
X112449000Y-62599000D01*
X114451000Y-62599000D01*
X114451000Y-64201000D01*
X114451000Y-64201000D01*
G37*
G36*
X131907025Y-62170590D02*
X132058012Y-62216392D01*
X132197165Y-62290770D01*
X132319133Y-62390867D01*
X132419230Y-62512835D01*
X132493608Y-62651988D01*
X132539410Y-62802975D01*
X132554875Y-62960000D01*
X132539410Y-63117025D01*
X132493608Y-63268012D01*
X132419230Y-63407165D01*
X132319133Y-63529133D01*
X132197165Y-63629230D01*
X132058012Y-63703608D01*
X131907025Y-63749410D01*
X131789346Y-63761000D01*
X131710654Y-63761000D01*
X131592975Y-63749410D01*
X131441988Y-63703608D01*
X131302835Y-63629230D01*
X131180867Y-63529133D01*
X131080770Y-63407165D01*
X131006392Y-63268012D01*
X130960590Y-63117025D01*
X130945125Y-62960000D01*
X130960590Y-62802975D01*
X131006392Y-62651988D01*
X131080770Y-62512835D01*
X131180867Y-62390867D01*
X131302835Y-62290770D01*
X131441988Y-62216392D01*
X131592975Y-62170590D01*
X131710654Y-62159000D01*
X131789346Y-62159000D01*
X131907025Y-62170590D01*
X131907025Y-62170590D01*
G37*
G36*
X127407025Y-62160590D02*
X127558012Y-62206392D01*
X127697165Y-62280770D01*
X127819133Y-62380867D01*
X127919230Y-62502835D01*
X127993608Y-62641988D01*
X128039410Y-62792975D01*
X128054875Y-62950000D01*
X128039410Y-63107025D01*
X127993608Y-63258012D01*
X127919230Y-63397165D01*
X127819133Y-63519133D01*
X127697165Y-63619230D01*
X127558012Y-63693608D01*
X127407025Y-63739410D01*
X127289346Y-63751000D01*
X127210654Y-63751000D01*
X127092975Y-63739410D01*
X126941988Y-63693608D01*
X126802835Y-63619230D01*
X126680867Y-63519133D01*
X126580770Y-63397165D01*
X126506392Y-63258012D01*
X126460590Y-63107025D01*
X126445125Y-62950000D01*
X126460590Y-62792975D01*
X126506392Y-62641988D01*
X126580770Y-62502835D01*
X126680867Y-62380867D01*
X126802835Y-62280770D01*
X126941988Y-62206392D01*
X127092975Y-62160590D01*
X127210654Y-62149000D01*
X127289346Y-62149000D01*
X127407025Y-62160590D01*
X127407025Y-62160590D01*
G37*
G36*
X113863855Y-60252140D02*
X113927618Y-60258420D01*
X114009427Y-60283237D01*
X114050333Y-60295645D01*
X114150491Y-60349181D01*
X114163426Y-60356095D01*
X114262553Y-60437447D01*
X114343905Y-60536574D01*
X114343906Y-60536576D01*
X114404355Y-60649667D01*
X114437910Y-60760285D01*
X114447288Y-60782924D01*
X114451000Y-60788480D01*
X114451000Y-60861886D01*
X114451602Y-60874138D01*
X114454149Y-60900000D01*
X114451602Y-60925862D01*
X114451000Y-60938114D01*
X114451000Y-62151000D01*
X112449000Y-62151000D01*
X112449000Y-60938114D01*
X112448398Y-60925862D01*
X112445851Y-60900000D01*
X112448398Y-60874138D01*
X112449000Y-60861886D01*
X112449000Y-60788593D01*
X112457957Y-60771835D01*
X112462090Y-60760285D01*
X112495645Y-60649667D01*
X112556094Y-60536576D01*
X112556095Y-60536574D01*
X112637447Y-60437447D01*
X112736574Y-60356095D01*
X112749509Y-60349181D01*
X112849667Y-60295645D01*
X112890573Y-60283237D01*
X112972382Y-60258420D01*
X113036145Y-60252140D01*
X113068026Y-60249000D01*
X113831974Y-60249000D01*
X113863855Y-60252140D01*
X113863855Y-60252140D01*
G37*
M02*
