G04 #@! TF.GenerationSoftware,KiCad,Pcbnew,5.0.2-bee76a0~70~ubuntu18.04.1*
G04 #@! TF.CreationDate,2019-04-29T21:23:14-04:00*
G04 #@! TF.ProjectId,E73 SCR,45373320-5343-4522-9e6b-696361645f70,rev?*
G04 #@! TF.SameCoordinates,Original*
G04 #@! TF.FileFunction,Copper,L2,Bot*
G04 #@! TF.FilePolarity,Positive*
%FSLAX46Y46*%
G04 Gerber Fmt 4.6, Leading zero omitted, Abs format (unit mm)*
G04 Created by KiCad (PCBNEW 5.0.2-bee76a0~70~ubuntu18.04.1) date Mon 29 Apr 2019 09:23:14 PM EDT*
%MOMM*%
%LPD*%
G01*
G04 APERTURE LIST*
G04 #@! TA.AperFunction,ComponentPad*
%ADD10O,2.000000X2.500000*%
G04 #@! TD*
G04 #@! TA.AperFunction,ComponentPad*
%ADD11O,1.500000X1.500000*%
G04 #@! TD*
G04 #@! TA.AperFunction,SMDPad,CuDef*
%ADD12R,1.900000X0.800000*%
G04 #@! TD*
G04 #@! TA.AperFunction,SMDPad,CuDef*
%ADD13R,2.000000X1.600000*%
G04 #@! TD*
G04 #@! TA.AperFunction,ComponentPad*
%ADD14R,1.700000X1.200000*%
G04 #@! TD*
G04 #@! TA.AperFunction,ComponentPad*
%ADD15O,1.700000X1.200000*%
G04 #@! TD*
G04 #@! TA.AperFunction,ComponentPad*
%ADD16R,1.200000X1.700000*%
G04 #@! TD*
G04 #@! TA.AperFunction,ComponentPad*
%ADD17O,1.200000X1.700000*%
G04 #@! TD*
G04 #@! TA.AperFunction,SMDPad,CuDef*
%ADD18R,1.600000X2.000000*%
G04 #@! TD*
G04 #@! TA.AperFunction,SMDPad,CuDef*
%ADD19R,1.500000X1.300000*%
G04 #@! TD*
G04 #@! TA.AperFunction,ComponentPad*
%ADD20O,1.900000X1.200000*%
G04 #@! TD*
G04 #@! TA.AperFunction,ComponentPad*
%ADD21C,1.450000*%
G04 #@! TD*
G04 #@! TA.AperFunction,ComponentPad*
%ADD22O,1.000000X1.000000*%
G04 #@! TD*
G04 #@! TA.AperFunction,ComponentPad*
%ADD23R,1.000000X1.000000*%
G04 #@! TD*
G04 #@! TA.AperFunction,SMDPad,CuDef*
%ADD24R,1.300000X1.500000*%
G04 #@! TD*
G04 #@! TA.AperFunction,SMDPad,CuDef*
%ADD25R,0.650000X1.560000*%
G04 #@! TD*
G04 #@! TA.AperFunction,ComponentPad*
%ADD26C,1.500000*%
G04 #@! TD*
G04 #@! TA.AperFunction,ComponentPad*
%ADD27C,2.000000*%
G04 #@! TD*
G04 #@! TA.AperFunction,ViaPad*
%ADD28C,0.800000*%
G04 #@! TD*
G04 #@! TA.AperFunction,Conductor*
%ADD29C,0.250000*%
G04 #@! TD*
G04 #@! TA.AperFunction,Conductor*
%ADD30C,0.300000*%
G04 #@! TD*
G04 #@! TA.AperFunction,Conductor*
%ADD31C,0.254000*%
G04 #@! TD*
G04 APERTURE END LIST*
D10*
G04 #@! TO.P,RST1,*
G04 #@! TO.N,*
X126000000Y-65450000D03*
D11*
G04 #@! TO.P,RST1,2*
G04 #@! TO.N,RESET*
X127250000Y-62950000D03*
D10*
G04 #@! TO.P,RST1,*
G04 #@! TO.N,*
X133000000Y-65450000D03*
D11*
G04 #@! TO.P,RST1,1*
G04 #@! TO.N,GND*
X131750000Y-62960000D03*
G04 #@! TD*
D12*
G04 #@! TO.P,D1,3*
G04 #@! TO.N,VBUS*
X141600000Y-77700000D03*
G04 #@! TO.P,D1,2*
G04 #@! TO.N,Net-(C3-Pad1)*
X138600000Y-76750000D03*
G04 #@! TO.P,D1,1*
G04 #@! TO.N,Net-(D1-Pad1)*
X138600000Y-78650000D03*
G04 #@! TD*
D13*
G04 #@! TO.P,C5,2*
G04 #@! TO.N,GND*
X133200000Y-68800000D03*
G04 #@! TO.P,C5,1*
G04 #@! TO.N,VBUS*
X129200000Y-68800000D03*
G04 #@! TD*
D14*
G04 #@! TO.P,J5,1*
G04 #@! TO.N,GND*
X148500000Y-86900000D03*
D15*
G04 #@! TO.P,J5,2*
G04 #@! TO.N,+3V3*
X148500000Y-84900000D03*
G04 #@! TO.P,J5,3*
G04 #@! TO.N,LCLK*
X148500000Y-82900000D03*
G04 #@! TO.P,J5,4*
G04 #@! TO.N,RCLK*
X148500000Y-80900000D03*
G04 #@! TO.P,J5,5*
G04 #@! TO.N,P1_11*
X148500000Y-78900000D03*
G04 #@! TO.P,J5,6*
G04 #@! TO.N,P1_09*
X148500000Y-76900000D03*
G04 #@! TD*
D16*
G04 #@! TO.P,J6,1*
G04 #@! TO.N,GND*
X130200000Y-87000000D03*
D17*
G04 #@! TO.P,J6,2*
G04 #@! TO.N,+3V3*
X128200000Y-87000000D03*
G04 #@! TO.P,J6,3*
G04 #@! TO.N,X*
X126200000Y-87000000D03*
G04 #@! TO.P,J6,4*
G04 #@! TO.N,Y*
X124200000Y-87000000D03*
G04 #@! TO.P,J6,5*
G04 #@! TO.N,SW*
X122200000Y-87000000D03*
G04 #@! TO.P,J6,6*
G04 #@! TO.N,A1_P003*
X120200000Y-87000000D03*
G04 #@! TD*
D18*
G04 #@! TO.P,C3,1*
G04 #@! TO.N,Net-(C3-Pad1)*
X145200000Y-66900000D03*
G04 #@! TO.P,C3,2*
G04 #@! TO.N,GND*
X145200000Y-70900000D03*
G04 #@! TD*
D19*
G04 #@! TO.P,D3,1*
G04 #@! TO.N,Net-(D3-Pad1)*
X138550000Y-60100000D03*
G04 #@! TO.P,D3,2*
G04 #@! TO.N,VBUS*
X135850000Y-60100000D03*
G04 #@! TD*
D20*
G04 #@! TO.P,J1,6*
G04 #@! TO.N,Net-(J1-Pad6)*
X113450000Y-67900000D03*
X113450000Y-60900000D03*
D21*
X116150000Y-66900000D03*
X116150000Y-61900000D03*
G04 #@! TD*
D15*
G04 #@! TO.P,J2,2*
G04 #@! TO.N,+BATT*
X149800000Y-68600000D03*
D14*
G04 #@! TO.P,J2,1*
G04 #@! TO.N,GND*
X149800000Y-70600000D03*
G04 #@! TD*
D22*
G04 #@! TO.P,J3,10*
G04 #@! TO.N,RESET*
X120430000Y-62420000D03*
G04 #@! TO.P,J3,9*
G04 #@! TO.N,GND*
X121700000Y-62420000D03*
G04 #@! TO.P,J3,8*
G04 #@! TO.N,Net-(J3-Pad8)*
X120430000Y-63690000D03*
G04 #@! TO.P,J3,7*
G04 #@! TO.N,Net-(J3-Pad7)*
X121700000Y-63690000D03*
G04 #@! TO.P,J3,6*
G04 #@! TO.N,Net-(J3-Pad6)*
X120430000Y-64960000D03*
G04 #@! TO.P,J3,5*
G04 #@! TO.N,GND*
X121700000Y-64960000D03*
G04 #@! TO.P,J3,4*
G04 #@! TO.N,SWCLK*
X120430000Y-66230000D03*
G04 #@! TO.P,J3,3*
G04 #@! TO.N,GND*
X121700000Y-66230000D03*
G04 #@! TO.P,J3,2*
G04 #@! TO.N,SWDIO*
X120430000Y-67500000D03*
D23*
G04 #@! TO.P,J3,1*
G04 #@! TO.N,+3V3*
X121700000Y-67500000D03*
G04 #@! TD*
D12*
G04 #@! TO.P,Q1,1*
G04 #@! TO.N,VBUS*
X133200000Y-72250000D03*
G04 #@! TO.P,Q1,2*
G04 #@! TO.N,Net-(C3-Pad1)*
X133200000Y-74150000D03*
G04 #@! TO.P,Q1,3*
G04 #@! TO.N,+BATT*
X130200000Y-73200000D03*
G04 #@! TD*
D24*
G04 #@! TO.P,R1,1*
G04 #@! TO.N,VBUS*
X135700000Y-64150000D03*
G04 #@! TO.P,R1,2*
G04 #@! TO.N,GND*
X135700000Y-66850000D03*
G04 #@! TD*
G04 #@! TO.P,R2,2*
G04 #@! TO.N,Net-(R2-Pad2)*
X141600000Y-66450000D03*
G04 #@! TO.P,R2,1*
G04 #@! TO.N,Net-(C3-Pad1)*
X141600000Y-69150000D03*
G04 #@! TD*
D19*
G04 #@! TO.P,R4,2*
G04 #@! TO.N,Net-(R4-Pad2)*
X138550000Y-62000000D03*
G04 #@! TO.P,R4,1*
G04 #@! TO.N,Net-(D3-Pad1)*
X135850000Y-62000000D03*
G04 #@! TD*
G04 #@! TO.P,R5,2*
G04 #@! TO.N,BATSENSE*
X119750000Y-77650000D03*
G04 #@! TO.P,R5,1*
G04 #@! TO.N,+BATT*
X122450000Y-77650000D03*
G04 #@! TD*
G04 #@! TO.P,R6,1*
G04 #@! TO.N,BATSENSE*
X119800000Y-80400000D03*
G04 #@! TO.P,R6,2*
G04 #@! TO.N,GND*
X122500000Y-80400000D03*
G04 #@! TD*
G04 #@! TO.P,RPROG1,1*
G04 #@! TO.N,Net-(RPROG1-Pad1)*
X144650000Y-74100000D03*
G04 #@! TO.P,RPROG1,2*
G04 #@! TO.N,GND*
X147350000Y-74100000D03*
G04 #@! TD*
D25*
G04 #@! TO.P,U2,5*
G04 #@! TO.N,Net-(RPROG1-Pad1)*
X139550000Y-67150000D03*
G04 #@! TO.P,U2,4*
G04 #@! TO.N,VBUS*
X137650000Y-67150000D03*
G04 #@! TO.P,U2,3*
G04 #@! TO.N,+BATT*
X137650000Y-69850000D03*
G04 #@! TO.P,U2,2*
G04 #@! TO.N,GND*
X138600000Y-69850000D03*
G04 #@! TO.P,U2,1*
G04 #@! TO.N,Net-(R4-Pad2)*
X139550000Y-69850000D03*
G04 #@! TD*
D26*
G04 #@! TO.P,SW1,1*
G04 #@! TO.N,GND*
X146100000Y-64150000D03*
G04 #@! TO.P,SW1,2*
G04 #@! TO.N,Net-(SW1-Pad2)*
X144100000Y-64150000D03*
G04 #@! TO.P,SW1,3*
G04 #@! TO.N,Net-(R2-Pad2)*
X142100000Y-64150000D03*
D27*
G04 #@! TO.P,SW1,*
G04 #@! TO.N,*
X140000000Y-64150000D03*
X148200000Y-64150000D03*
G04 #@! TD*
D28*
G04 #@! TO.N,GND*
X121400000Y-83974990D03*
X118000000Y-88100000D03*
X126200000Y-73750000D03*
X130400000Y-75100000D03*
X137700000Y-71500000D03*
X135700000Y-69100000D03*
X118000000Y-66500000D03*
X147200000Y-67000000D03*
X146100000Y-64150000D03*
X142550000Y-84400000D03*
G04 #@! TO.N,+3V3*
X123700000Y-60600000D03*
X123400000Y-63700000D03*
G04 #@! TO.N,Net-(C3-Pad1)*
X143000000Y-76000000D03*
X144300000Y-69000000D03*
G04 #@! TO.N,VBUS*
X126200000Y-69100000D03*
X125500000Y-59624990D03*
G04 #@! TO.N,+BATT*
X136431384Y-73100012D03*
X131700000Y-73200000D03*
G04 #@! TO.N,SWCLK*
X118700000Y-68700000D03*
G04 #@! TO.N,SWDIO*
X119900000Y-69500022D03*
G04 #@! TO.N,P1_11*
X131500000Y-78500000D03*
X125800000Y-79300000D03*
G04 #@! TO.N,BATSENSE*
X119780409Y-81925010D03*
G04 #@! TD*
D29*
G04 #@! TO.N,+3V3*
X148250000Y-84900000D02*
X144250000Y-88900000D01*
X148500000Y-84900000D02*
X148250000Y-84900000D01*
X128200000Y-87250000D02*
X128200000Y-87000000D01*
X129850000Y-88900000D02*
X128200000Y-87250000D01*
X144250000Y-88900000D02*
X129850000Y-88900000D01*
G04 #@! TO.N,GND*
X145000000Y-70700000D02*
X145100000Y-70600000D01*
X138600000Y-69850000D02*
X138600000Y-71600000D01*
X146250000Y-70900000D02*
X146800000Y-70350000D01*
X145200000Y-70900000D02*
X146250000Y-70900000D01*
G04 #@! TO.N,+3V3*
X123700000Y-60600000D02*
X123700000Y-63400000D01*
X123700000Y-63400000D02*
X123400000Y-63700000D01*
G04 #@! TO.N,Net-(C3-Pad1)*
X143750000Y-66900000D02*
X144150000Y-66900000D01*
X141600000Y-69050000D02*
X143750000Y-66900000D01*
X141600000Y-69150000D02*
X141600000Y-69050000D01*
X144150000Y-66900000D02*
X145200000Y-66900000D01*
X137000000Y-76750000D02*
X137400000Y-76750000D01*
X134400000Y-74150000D02*
X137000000Y-76750000D01*
X133200000Y-74150000D02*
X134400000Y-74150000D01*
X137400000Y-76750000D02*
X138600000Y-76750000D01*
X143000000Y-76000000D02*
X143000000Y-78500000D01*
X139150000Y-76750000D02*
X138600000Y-76750000D01*
X139800000Y-77400000D02*
X139150000Y-76750000D01*
X139800000Y-77950000D02*
X139800000Y-77400000D01*
X140350000Y-78500000D02*
X139800000Y-77950000D01*
X143000000Y-78500000D02*
X140350000Y-78500000D01*
X144150000Y-69150000D02*
X144300000Y-69000000D01*
X141600000Y-69150000D02*
X144150000Y-69150000D01*
D30*
G04 #@! TO.N,VBUS*
X129200000Y-68800000D02*
X126500000Y-68800000D01*
X126500000Y-68800000D02*
X126200000Y-69100000D01*
X132907998Y-60100000D02*
X134800000Y-60100000D01*
X134800000Y-60100000D02*
X135850000Y-60100000D01*
X129200000Y-63807998D02*
X132907998Y-60100000D01*
X129200000Y-68800000D02*
X129200000Y-63807998D01*
X132907998Y-62307998D02*
X132907998Y-60100000D01*
X134750000Y-64150000D02*
X132907998Y-62307998D01*
X135700000Y-64150000D02*
X134750000Y-64150000D01*
X135700000Y-64250000D02*
X135700000Y-64150000D01*
X137650000Y-66200000D02*
X135700000Y-64250000D01*
X137650000Y-67150000D02*
X137650000Y-66200000D01*
X132850000Y-72250000D02*
X133200000Y-72250000D01*
X129400000Y-68800000D02*
X132850000Y-72250000D01*
X129200000Y-68800000D02*
X129400000Y-68800000D01*
X141600000Y-77000000D02*
X141600000Y-77700000D01*
X134450000Y-72250000D02*
X138149999Y-75949999D01*
X133200000Y-72250000D02*
X134450000Y-72250000D01*
X140549999Y-75949999D02*
X141600000Y-77000000D01*
X138149999Y-75949999D02*
X140549999Y-75949999D01*
X129200000Y-62759305D02*
X126065685Y-59624990D01*
X129200000Y-63807998D02*
X129200000Y-62759305D01*
X126065685Y-59624990D02*
X125500000Y-59624990D01*
D29*
G04 #@! TO.N,Net-(D3-Pad1)*
X135950000Y-62000000D02*
X137850000Y-60100000D01*
G04 #@! TO.N,+BATT*
X136431384Y-72534327D02*
X136431384Y-73100012D01*
X136431384Y-71523616D02*
X136431384Y-72534327D01*
X137650000Y-70305000D02*
X136431384Y-71523616D01*
X137650000Y-69850000D02*
X137650000Y-70305000D01*
X148700000Y-69450000D02*
X149550000Y-68600000D01*
X146274999Y-72125001D02*
X148700000Y-69700000D01*
X146274999Y-74460003D02*
X146274999Y-72125001D01*
X149550000Y-68600000D02*
X149800000Y-68600000D01*
X145660001Y-75075001D02*
X146274999Y-74460003D01*
X138406373Y-75075001D02*
X145660001Y-75075001D01*
X148700000Y-69700000D02*
X148700000Y-69450000D01*
X136431384Y-73100012D02*
X138406373Y-75075001D01*
X131700000Y-73200000D02*
X131134315Y-73200000D01*
X131134315Y-73200000D02*
X126684315Y-77650000D01*
X126684315Y-77650000D02*
X123450000Y-77650000D01*
X123450000Y-77650000D02*
X122450000Y-77650000D01*
G04 #@! TO.N,SWCLK*
X120430000Y-66230000D02*
X118700000Y-67960000D01*
X118700000Y-67960000D02*
X118700000Y-68700000D01*
G04 #@! TO.N,SWDIO*
X120430000Y-67500000D02*
X120430000Y-68970022D01*
X120430000Y-68970022D02*
X119900000Y-69500022D01*
G04 #@! TO.N,P1_11*
X131500000Y-78500000D02*
X126600000Y-78500000D01*
X126600000Y-78500000D02*
X125800000Y-79300000D01*
G04 #@! TO.N,Net-(R2-Pad2)*
X141600000Y-64650000D02*
X142100000Y-64150000D01*
X141600000Y-66450000D02*
X141600000Y-64650000D01*
G04 #@! TO.N,Net-(R4-Pad2)*
X139550000Y-68820000D02*
X139550000Y-69850000D01*
X138550000Y-67820000D02*
X139550000Y-68820000D01*
X138550000Y-62000000D02*
X138550000Y-67820000D01*
G04 #@! TO.N,BATSENSE*
X119750000Y-80350000D02*
X119800000Y-80400000D01*
X119750000Y-77650000D02*
X119750000Y-80350000D01*
X119800000Y-81905419D02*
X119780409Y-81925010D01*
X119800000Y-80400000D02*
X119800000Y-81905419D01*
G04 #@! TO.N,Net-(RPROG1-Pad1)*
X144550000Y-74100000D02*
X144650000Y-74100000D01*
X140624999Y-67649999D02*
X140624999Y-70174999D01*
X140624999Y-70174999D02*
X144550000Y-74100000D01*
X140125000Y-67150000D02*
X140624999Y-67649999D01*
X139550000Y-67150000D02*
X140125000Y-67150000D01*
G04 #@! TD*
D31*
G04 #@! TO.N,GND*
G36*
X124913720Y-58747559D02*
X124622569Y-59038710D01*
X124465000Y-59419116D01*
X124465000Y-59830864D01*
X124514798Y-59951087D01*
X124286280Y-59722569D01*
X123905874Y-59565000D01*
X123494126Y-59565000D01*
X123113720Y-59722569D01*
X122822569Y-60013720D01*
X122665000Y-60394126D01*
X122665000Y-60805874D01*
X122822569Y-61186280D01*
X122940000Y-61303711D01*
X122940001Y-62770262D01*
X122813720Y-62822569D01*
X122709076Y-62927213D01*
X122794119Y-62721874D01*
X122667954Y-62547000D01*
X121827000Y-62547000D01*
X121827000Y-62558027D01*
X121811783Y-62555000D01*
X121588217Y-62555000D01*
X121573000Y-62558027D01*
X121573000Y-62547000D01*
X121561973Y-62547000D01*
X121587235Y-62420000D01*
X121561973Y-62293000D01*
X121573000Y-62293000D01*
X121573000Y-61450865D01*
X121827000Y-61450865D01*
X121827000Y-62293000D01*
X122667954Y-62293000D01*
X122794119Y-62118126D01*
X122687127Y-61859791D01*
X122397604Y-61524677D01*
X122001877Y-61325868D01*
X121827000Y-61450865D01*
X121573000Y-61450865D01*
X121398123Y-61325868D01*
X121076947Y-61487224D01*
X120872855Y-61350854D01*
X120541783Y-61285000D01*
X120318217Y-61285000D01*
X119987145Y-61350854D01*
X119611711Y-61601711D01*
X119360854Y-61977145D01*
X119272765Y-62420000D01*
X119360854Y-62862855D01*
X119489241Y-63055000D01*
X119360854Y-63247145D01*
X119272765Y-63690000D01*
X119360854Y-64132855D01*
X119489241Y-64325000D01*
X119360854Y-64517145D01*
X119272765Y-64960000D01*
X119360854Y-65402855D01*
X119489241Y-65595000D01*
X119360854Y-65787145D01*
X119272765Y-66230000D01*
X119286441Y-66298756D01*
X118215530Y-67369669D01*
X118152071Y-67412071D01*
X117984096Y-67663464D01*
X117940000Y-67885149D01*
X117940000Y-67885153D01*
X117925112Y-67960000D01*
X117933603Y-68002686D01*
X117822569Y-68113720D01*
X117665000Y-68494126D01*
X117665000Y-68905874D01*
X117822569Y-69286280D01*
X118113720Y-69577431D01*
X118494126Y-69735000D01*
X118877055Y-69735000D01*
X119022569Y-70086302D01*
X119313720Y-70377453D01*
X119694126Y-70535022D01*
X120105874Y-70535022D01*
X120486280Y-70377453D01*
X120777431Y-70086302D01*
X120935000Y-69705896D01*
X120935000Y-69546635D01*
X120977929Y-69517951D01*
X121145904Y-69266559D01*
X121190000Y-69044874D01*
X121190000Y-69044870D01*
X121204888Y-68970023D01*
X121190000Y-68895176D01*
X121190000Y-68645451D01*
X121200000Y-68647440D01*
X122200000Y-68647440D01*
X122447765Y-68598157D01*
X122657809Y-68457809D01*
X122798157Y-68247765D01*
X122847440Y-68000000D01*
X122847440Y-67000000D01*
X122798157Y-66752235D01*
X122739322Y-66664183D01*
X122794119Y-66531874D01*
X122667954Y-66357000D01*
X122222322Y-66357000D01*
X122200000Y-66352560D01*
X121562856Y-66352560D01*
X121587235Y-66230000D01*
X121561973Y-66103000D01*
X121573000Y-66103000D01*
X121573000Y-65087000D01*
X121827000Y-65087000D01*
X121827000Y-66103000D01*
X122667954Y-66103000D01*
X122794119Y-65928126D01*
X122687127Y-65669791D01*
X122622511Y-65595000D01*
X122687127Y-65520209D01*
X122794119Y-65261874D01*
X122667954Y-65087000D01*
X121827000Y-65087000D01*
X121573000Y-65087000D01*
X121561973Y-65087000D01*
X121587235Y-64960000D01*
X121561973Y-64833000D01*
X121573000Y-64833000D01*
X121573000Y-64821973D01*
X121588217Y-64825000D01*
X121811783Y-64825000D01*
X121827000Y-64821973D01*
X121827000Y-64833000D01*
X122667954Y-64833000D01*
X122794119Y-64658126D01*
X122723215Y-64486926D01*
X122813720Y-64577431D01*
X123194126Y-64735000D01*
X123605874Y-64735000D01*
X123986280Y-64577431D01*
X124277431Y-64286280D01*
X124435000Y-63905874D01*
X124435000Y-63600535D01*
X124460000Y-63474852D01*
X124460000Y-63474848D01*
X124474888Y-63400001D01*
X124460000Y-63325154D01*
X124460000Y-61303711D01*
X124577431Y-61186280D01*
X124735000Y-60805874D01*
X124735000Y-60394126D01*
X124685202Y-60273903D01*
X124913720Y-60502421D01*
X125294126Y-60659990D01*
X125705874Y-60659990D01*
X125907155Y-60576617D01*
X126931715Y-61601178D01*
X126709600Y-61645359D01*
X126251471Y-61951471D01*
X125945359Y-62409600D01*
X125837867Y-62950000D01*
X125945359Y-63490400D01*
X125976876Y-63537569D01*
X125362056Y-63659864D01*
X124821231Y-64021231D01*
X124459864Y-64562055D01*
X124365000Y-65038969D01*
X124365000Y-65861030D01*
X124459864Y-66337944D01*
X124821231Y-66878769D01*
X125362055Y-67240136D01*
X126000000Y-67367031D01*
X126637944Y-67240136D01*
X127178769Y-66878769D01*
X127540136Y-66337945D01*
X127635000Y-65861031D01*
X127635000Y-65038970D01*
X127540136Y-64562055D01*
X127388186Y-64334646D01*
X127790400Y-64254641D01*
X128248529Y-63948529D01*
X128415000Y-63699387D01*
X128415000Y-63730686D01*
X128399622Y-63807998D01*
X128415000Y-63885310D01*
X128415000Y-63885313D01*
X128415001Y-63885318D01*
X128415000Y-67352560D01*
X128200000Y-67352560D01*
X127952235Y-67401843D01*
X127742191Y-67542191D01*
X127601843Y-67752235D01*
X127552560Y-68000000D01*
X127552560Y-68015000D01*
X126577311Y-68015000D01*
X126499999Y-67999622D01*
X126422687Y-68015000D01*
X126422684Y-68015000D01*
X126193708Y-68060546D01*
X126187042Y-68065000D01*
X125994126Y-68065000D01*
X125613720Y-68222569D01*
X125322569Y-68513720D01*
X125165000Y-68894126D01*
X125165000Y-69305874D01*
X125322569Y-69686280D01*
X125613720Y-69977431D01*
X125994126Y-70135000D01*
X126405874Y-70135000D01*
X126786280Y-69977431D01*
X127077431Y-69686280D01*
X127119382Y-69585000D01*
X127552560Y-69585000D01*
X127552560Y-69600000D01*
X127601843Y-69847765D01*
X127742191Y-70057809D01*
X127952235Y-70198157D01*
X128200000Y-70247440D01*
X129737283Y-70247440D01*
X131602560Y-72112718D01*
X131602560Y-72165000D01*
X131494126Y-72165000D01*
X131400602Y-72203739D01*
X131397765Y-72201843D01*
X131150000Y-72152560D01*
X129250000Y-72152560D01*
X129002235Y-72201843D01*
X128792191Y-72342191D01*
X128651843Y-72552235D01*
X128602560Y-72800000D01*
X128602560Y-73600000D01*
X128651843Y-73847765D01*
X128792191Y-74057809D01*
X129002235Y-74198157D01*
X129051547Y-74207966D01*
X126369514Y-76890000D01*
X123825560Y-76890000D01*
X123798157Y-76752235D01*
X123657809Y-76542191D01*
X123447765Y-76401843D01*
X123200000Y-76352560D01*
X121700000Y-76352560D01*
X121452235Y-76401843D01*
X121242191Y-76542191D01*
X121101843Y-76752235D01*
X121100000Y-76761500D01*
X121098157Y-76752235D01*
X120957809Y-76542191D01*
X120747765Y-76401843D01*
X120500000Y-76352560D01*
X119000000Y-76352560D01*
X118752235Y-76401843D01*
X118542191Y-76542191D01*
X118401843Y-76752235D01*
X118352560Y-77000000D01*
X118352560Y-78300000D01*
X118401843Y-78547765D01*
X118542191Y-78757809D01*
X118752235Y-78898157D01*
X118990000Y-78945451D01*
X118990001Y-79114495D01*
X118802235Y-79151843D01*
X118592191Y-79292191D01*
X118451843Y-79502235D01*
X118402560Y-79750000D01*
X118402560Y-81050000D01*
X118451843Y-81297765D01*
X118592191Y-81507809D01*
X118780755Y-81633804D01*
X118745409Y-81719136D01*
X118745409Y-82130884D01*
X118902978Y-82511290D01*
X119194129Y-82802441D01*
X119574535Y-82960010D01*
X119986283Y-82960010D01*
X120366689Y-82802441D01*
X120657840Y-82511290D01*
X120815409Y-82130884D01*
X120815409Y-81719136D01*
X120786903Y-81650317D01*
X120797765Y-81648157D01*
X121007809Y-81507809D01*
X121148157Y-81297765D01*
X121153721Y-81269791D01*
X121211673Y-81409699D01*
X121390302Y-81588327D01*
X121623691Y-81685000D01*
X122214250Y-81685000D01*
X122373000Y-81526250D01*
X122373000Y-80527000D01*
X122627000Y-80527000D01*
X122627000Y-81526250D01*
X122785750Y-81685000D01*
X123376309Y-81685000D01*
X123609698Y-81588327D01*
X123788327Y-81409699D01*
X123885000Y-81176310D01*
X123885000Y-80685750D01*
X123726250Y-80527000D01*
X122627000Y-80527000D01*
X122373000Y-80527000D01*
X122353000Y-80527000D01*
X122353000Y-80273000D01*
X122373000Y-80273000D01*
X122373000Y-79273750D01*
X122627000Y-79273750D01*
X122627000Y-80273000D01*
X123726250Y-80273000D01*
X123885000Y-80114250D01*
X123885000Y-79623690D01*
X123788327Y-79390301D01*
X123609698Y-79211673D01*
X123376309Y-79115000D01*
X122785750Y-79115000D01*
X122627000Y-79273750D01*
X122373000Y-79273750D01*
X122214250Y-79115000D01*
X121623691Y-79115000D01*
X121390302Y-79211673D01*
X121211673Y-79390301D01*
X121153721Y-79530209D01*
X121148157Y-79502235D01*
X121007809Y-79292191D01*
X120797765Y-79151843D01*
X120550000Y-79102560D01*
X120510000Y-79102560D01*
X120510000Y-78945451D01*
X120747765Y-78898157D01*
X120957809Y-78757809D01*
X121098157Y-78547765D01*
X121100000Y-78538500D01*
X121101843Y-78547765D01*
X121242191Y-78757809D01*
X121452235Y-78898157D01*
X121700000Y-78947440D01*
X123200000Y-78947440D01*
X123447765Y-78898157D01*
X123657809Y-78757809D01*
X123798157Y-78547765D01*
X123825560Y-78410000D01*
X125244064Y-78410000D01*
X125213720Y-78422569D01*
X124922569Y-78713720D01*
X124765000Y-79094126D01*
X124765000Y-79505874D01*
X124922569Y-79886280D01*
X125213720Y-80177431D01*
X125594126Y-80335000D01*
X126005874Y-80335000D01*
X126386280Y-80177431D01*
X126677431Y-79886280D01*
X126835000Y-79505874D01*
X126835000Y-79339802D01*
X126914802Y-79260000D01*
X130796289Y-79260000D01*
X130913720Y-79377431D01*
X131294126Y-79535000D01*
X131705874Y-79535000D01*
X132086280Y-79377431D01*
X132377431Y-79086280D01*
X132535000Y-78705874D01*
X132535000Y-78294126D01*
X132377431Y-77913720D01*
X132086280Y-77622569D01*
X131705874Y-77465000D01*
X131294126Y-77465000D01*
X130913720Y-77622569D01*
X130796289Y-77740000D01*
X127669116Y-77740000D01*
X131164577Y-74244540D01*
X131397765Y-74198157D01*
X131400602Y-74196261D01*
X131494126Y-74235000D01*
X131602560Y-74235000D01*
X131602560Y-74550000D01*
X131651843Y-74797765D01*
X131792191Y-75007809D01*
X132002235Y-75148157D01*
X132250000Y-75197440D01*
X134150000Y-75197440D01*
X134335701Y-75160502D01*
X136409670Y-77234472D01*
X136452071Y-77297929D01*
X136703463Y-77465904D01*
X136925148Y-77510000D01*
X136925152Y-77510000D01*
X136999999Y-77524888D01*
X137074846Y-77510000D01*
X137126837Y-77510000D01*
X137192191Y-77607809D01*
X137330164Y-77700000D01*
X137192191Y-77792191D01*
X137051843Y-78002235D01*
X137002560Y-78250000D01*
X137002560Y-79050000D01*
X137051843Y-79297765D01*
X137192191Y-79507809D01*
X137402235Y-79648157D01*
X137650000Y-79697440D01*
X139550000Y-79697440D01*
X139797765Y-79648157D01*
X140007809Y-79507809D01*
X140148157Y-79297765D01*
X140160216Y-79237139D01*
X140275148Y-79260000D01*
X140275152Y-79260000D01*
X140349999Y-79274888D01*
X140424846Y-79260000D01*
X142925148Y-79260000D01*
X143000000Y-79274889D01*
X143296537Y-79215904D01*
X143547929Y-79047929D01*
X143715904Y-78796537D01*
X143760000Y-78574852D01*
X143774889Y-78500000D01*
X143760000Y-78425148D01*
X143760000Y-76703711D01*
X143877431Y-76586280D01*
X144035000Y-76205874D01*
X144035000Y-75835001D01*
X145585154Y-75835001D01*
X145660001Y-75849889D01*
X145734848Y-75835001D01*
X145734853Y-75835001D01*
X145956538Y-75790905D01*
X146207930Y-75622930D01*
X146250332Y-75559471D01*
X146439122Y-75370681D01*
X146473691Y-75385000D01*
X147064250Y-75385000D01*
X147223000Y-75226250D01*
X147223000Y-74227000D01*
X147477000Y-74227000D01*
X147477000Y-75226250D01*
X147635750Y-75385000D01*
X148226309Y-75385000D01*
X148459698Y-75288327D01*
X148638327Y-75109699D01*
X148735000Y-74876310D01*
X148735000Y-74385750D01*
X148576250Y-74227000D01*
X147477000Y-74227000D01*
X147223000Y-74227000D01*
X147203000Y-74227000D01*
X147203000Y-73973000D01*
X147223000Y-73973000D01*
X147223000Y-72973750D01*
X147477000Y-72973750D01*
X147477000Y-73973000D01*
X148576250Y-73973000D01*
X148735000Y-73814250D01*
X148735000Y-73323690D01*
X148638327Y-73090301D01*
X148459698Y-72911673D01*
X148226309Y-72815000D01*
X147635750Y-72815000D01*
X147477000Y-72973750D01*
X147223000Y-72973750D01*
X147064250Y-72815000D01*
X147034999Y-72815000D01*
X147034999Y-72439802D01*
X148315000Y-71159802D01*
X148315000Y-71326309D01*
X148411673Y-71559698D01*
X148590301Y-71738327D01*
X148823690Y-71835000D01*
X149514250Y-71835000D01*
X149673000Y-71676250D01*
X149673000Y-70727000D01*
X149927000Y-70727000D01*
X149927000Y-71676250D01*
X150085750Y-71835000D01*
X150776310Y-71835000D01*
X151009699Y-71738327D01*
X151188327Y-71559698D01*
X151285000Y-71326309D01*
X151285000Y-70885750D01*
X151126250Y-70727000D01*
X149927000Y-70727000D01*
X149673000Y-70727000D01*
X149653000Y-70727000D01*
X149653000Y-70473000D01*
X149673000Y-70473000D01*
X149673000Y-70453000D01*
X149927000Y-70453000D01*
X149927000Y-70473000D01*
X151126250Y-70473000D01*
X151285000Y-70314250D01*
X151285000Y-69873691D01*
X151188327Y-69640302D01*
X151009699Y-69461673D01*
X150970436Y-69445410D01*
X151213344Y-69081873D01*
X151290000Y-68696498D01*
X151290001Y-88930065D01*
X151255074Y-89105655D01*
X151195225Y-89195226D01*
X151105655Y-89255074D01*
X150930070Y-89290000D01*
X144934801Y-89290000D01*
X147015000Y-87209802D01*
X147015000Y-87626309D01*
X147111673Y-87859698D01*
X147290301Y-88038327D01*
X147523690Y-88135000D01*
X148214250Y-88135000D01*
X148373000Y-87976250D01*
X148373000Y-87027000D01*
X148627000Y-87027000D01*
X148627000Y-87976250D01*
X148785750Y-88135000D01*
X149476310Y-88135000D01*
X149709699Y-88038327D01*
X149888327Y-87859698D01*
X149985000Y-87626309D01*
X149985000Y-87185750D01*
X149826250Y-87027000D01*
X148627000Y-87027000D01*
X148373000Y-87027000D01*
X148353000Y-87027000D01*
X148353000Y-86773000D01*
X148373000Y-86773000D01*
X148373000Y-86753000D01*
X148627000Y-86753000D01*
X148627000Y-86773000D01*
X149826250Y-86773000D01*
X149985000Y-86614250D01*
X149985000Y-86173691D01*
X149888327Y-85940302D01*
X149709699Y-85761673D01*
X149670436Y-85745410D01*
X149913344Y-85381873D01*
X150009195Y-84900000D01*
X149913344Y-84418127D01*
X149640385Y-84009615D01*
X149476335Y-83900000D01*
X149640385Y-83790385D01*
X149913344Y-83381873D01*
X150009195Y-82900000D01*
X149913344Y-82418127D01*
X149640385Y-82009615D01*
X149476335Y-81900000D01*
X149640385Y-81790385D01*
X149913344Y-81381873D01*
X150009195Y-80900000D01*
X149913344Y-80418127D01*
X149640385Y-80009615D01*
X149476335Y-79900000D01*
X149640385Y-79790385D01*
X149913344Y-79381873D01*
X150009195Y-78900000D01*
X149913344Y-78418127D01*
X149640385Y-78009615D01*
X149476335Y-77900000D01*
X149640385Y-77790385D01*
X149913344Y-77381873D01*
X150009195Y-76900000D01*
X149913344Y-76418127D01*
X149640385Y-76009615D01*
X149231873Y-75736656D01*
X148871636Y-75665000D01*
X148128364Y-75665000D01*
X147768127Y-75736656D01*
X147359615Y-76009615D01*
X147086656Y-76418127D01*
X146990805Y-76900000D01*
X147086656Y-77381873D01*
X147359615Y-77790385D01*
X147523665Y-77900000D01*
X147359615Y-78009615D01*
X147086656Y-78418127D01*
X146990805Y-78900000D01*
X147086656Y-79381873D01*
X147359615Y-79790385D01*
X147523665Y-79900000D01*
X147359615Y-80009615D01*
X147086656Y-80418127D01*
X146990805Y-80900000D01*
X147086656Y-81381873D01*
X147359615Y-81790385D01*
X147523665Y-81900000D01*
X147359615Y-82009615D01*
X147086656Y-82418127D01*
X146990805Y-82900000D01*
X147086656Y-83381873D01*
X147359615Y-83790385D01*
X147523665Y-83900000D01*
X147359615Y-84009615D01*
X147086656Y-84418127D01*
X146990805Y-84900000D01*
X147021398Y-85053800D01*
X143935199Y-88140000D01*
X131367197Y-88140000D01*
X131435000Y-87976310D01*
X131435000Y-87285750D01*
X131276250Y-87127000D01*
X130327000Y-87127000D01*
X130327000Y-87147000D01*
X130073000Y-87147000D01*
X130073000Y-87127000D01*
X130053000Y-87127000D01*
X130053000Y-86873000D01*
X130073000Y-86873000D01*
X130073000Y-85673750D01*
X130327000Y-85673750D01*
X130327000Y-86873000D01*
X131276250Y-86873000D01*
X131435000Y-86714250D01*
X131435000Y-86023690D01*
X131338327Y-85790301D01*
X131159698Y-85611673D01*
X130926309Y-85515000D01*
X130485750Y-85515000D01*
X130327000Y-85673750D01*
X130073000Y-85673750D01*
X129914250Y-85515000D01*
X129473691Y-85515000D01*
X129240302Y-85611673D01*
X129061673Y-85790301D01*
X129045410Y-85829564D01*
X128681873Y-85586656D01*
X128200000Y-85490805D01*
X127718128Y-85586656D01*
X127309616Y-85859615D01*
X127200000Y-86023666D01*
X127090385Y-85859615D01*
X126681873Y-85586656D01*
X126200000Y-85490805D01*
X125718128Y-85586656D01*
X125309616Y-85859615D01*
X125200000Y-86023666D01*
X125090385Y-85859615D01*
X124681873Y-85586656D01*
X124200000Y-85490805D01*
X123718128Y-85586656D01*
X123309616Y-85859615D01*
X123200000Y-86023666D01*
X123090385Y-85859615D01*
X122681873Y-85586656D01*
X122200000Y-85490805D01*
X121718128Y-85586656D01*
X121309616Y-85859615D01*
X121200000Y-86023666D01*
X121090385Y-85859615D01*
X120681873Y-85586656D01*
X120200000Y-85490805D01*
X119718128Y-85586656D01*
X119309616Y-85859615D01*
X119036656Y-86268127D01*
X118965000Y-86628364D01*
X118965000Y-87371635D01*
X119036656Y-87731872D01*
X119309615Y-88140385D01*
X119718127Y-88413344D01*
X120200000Y-88509195D01*
X120681872Y-88413344D01*
X121090385Y-88140385D01*
X121200000Y-87976334D01*
X121309615Y-88140385D01*
X121718127Y-88413344D01*
X122200000Y-88509195D01*
X122681872Y-88413344D01*
X123090385Y-88140385D01*
X123200000Y-87976334D01*
X123309615Y-88140385D01*
X123718127Y-88413344D01*
X124200000Y-88509195D01*
X124681872Y-88413344D01*
X125090385Y-88140385D01*
X125200000Y-87976334D01*
X125309615Y-88140385D01*
X125718127Y-88413344D01*
X126200000Y-88509195D01*
X126681872Y-88413344D01*
X127090385Y-88140385D01*
X127200000Y-87976334D01*
X127309615Y-88140385D01*
X127718127Y-88413344D01*
X128200000Y-88509195D01*
X128353800Y-88478602D01*
X129165197Y-89290000D01*
X113069930Y-89290000D01*
X112894345Y-89255074D01*
X112804774Y-89195225D01*
X112744926Y-89105655D01*
X112710000Y-88930070D01*
X112710000Y-83577000D01*
X115350000Y-83577000D01*
X115398156Y-83567516D01*
X115439462Y-83540142D01*
X115467148Y-83499045D01*
X115476999Y-83450481D01*
X115526999Y-70250481D01*
X115517333Y-70201399D01*
X115489803Y-70160197D01*
X115448601Y-70132667D01*
X115400000Y-70123000D01*
X112710000Y-70123000D01*
X112710000Y-69081619D01*
X112978364Y-69135000D01*
X113921636Y-69135000D01*
X114281873Y-69063344D01*
X114690385Y-68790385D01*
X114963344Y-68381873D01*
X115059195Y-67900000D01*
X115017610Y-67690940D01*
X115379622Y-68052952D01*
X115879479Y-68260000D01*
X116420521Y-68260000D01*
X116920378Y-68052952D01*
X117302952Y-67670378D01*
X117510000Y-67170521D01*
X117510000Y-66629479D01*
X117302952Y-66129622D01*
X116920378Y-65747048D01*
X116420521Y-65540000D01*
X115879479Y-65540000D01*
X115379622Y-65747048D01*
X114997048Y-66129622D01*
X114790000Y-66629479D01*
X114790000Y-67158699D01*
X114690385Y-67009615D01*
X114281873Y-66736656D01*
X113921636Y-66665000D01*
X112978364Y-66665000D01*
X112710000Y-66718381D01*
X112710000Y-62081619D01*
X112978364Y-62135000D01*
X113921636Y-62135000D01*
X114281873Y-62063344D01*
X114690385Y-61790385D01*
X114790000Y-61641301D01*
X114790000Y-62170521D01*
X114997048Y-62670378D01*
X115379622Y-63052952D01*
X115879479Y-63260000D01*
X116420521Y-63260000D01*
X116920378Y-63052952D01*
X117302952Y-62670378D01*
X117510000Y-62170521D01*
X117510000Y-61629479D01*
X117302952Y-61129622D01*
X116920378Y-60747048D01*
X116420521Y-60540000D01*
X115879479Y-60540000D01*
X115379622Y-60747048D01*
X115017610Y-61109060D01*
X115059195Y-60900000D01*
X114963344Y-60418127D01*
X114690385Y-60009615D01*
X114281873Y-59736656D01*
X113921636Y-59665000D01*
X112978364Y-59665000D01*
X112710000Y-59718381D01*
X112710000Y-59069930D01*
X112744926Y-58894345D01*
X112804774Y-58804775D01*
X112894345Y-58744926D01*
X113069930Y-58710000D01*
X125004396Y-58710000D01*
X124913720Y-58747559D01*
X124913720Y-58747559D01*
G37*
X124913720Y-58747559D02*
X124622569Y-59038710D01*
X124465000Y-59419116D01*
X124465000Y-59830864D01*
X124514798Y-59951087D01*
X124286280Y-59722569D01*
X123905874Y-59565000D01*
X123494126Y-59565000D01*
X123113720Y-59722569D01*
X122822569Y-60013720D01*
X122665000Y-60394126D01*
X122665000Y-60805874D01*
X122822569Y-61186280D01*
X122940000Y-61303711D01*
X122940001Y-62770262D01*
X122813720Y-62822569D01*
X122709076Y-62927213D01*
X122794119Y-62721874D01*
X122667954Y-62547000D01*
X121827000Y-62547000D01*
X121827000Y-62558027D01*
X121811783Y-62555000D01*
X121588217Y-62555000D01*
X121573000Y-62558027D01*
X121573000Y-62547000D01*
X121561973Y-62547000D01*
X121587235Y-62420000D01*
X121561973Y-62293000D01*
X121573000Y-62293000D01*
X121573000Y-61450865D01*
X121827000Y-61450865D01*
X121827000Y-62293000D01*
X122667954Y-62293000D01*
X122794119Y-62118126D01*
X122687127Y-61859791D01*
X122397604Y-61524677D01*
X122001877Y-61325868D01*
X121827000Y-61450865D01*
X121573000Y-61450865D01*
X121398123Y-61325868D01*
X121076947Y-61487224D01*
X120872855Y-61350854D01*
X120541783Y-61285000D01*
X120318217Y-61285000D01*
X119987145Y-61350854D01*
X119611711Y-61601711D01*
X119360854Y-61977145D01*
X119272765Y-62420000D01*
X119360854Y-62862855D01*
X119489241Y-63055000D01*
X119360854Y-63247145D01*
X119272765Y-63690000D01*
X119360854Y-64132855D01*
X119489241Y-64325000D01*
X119360854Y-64517145D01*
X119272765Y-64960000D01*
X119360854Y-65402855D01*
X119489241Y-65595000D01*
X119360854Y-65787145D01*
X119272765Y-66230000D01*
X119286441Y-66298756D01*
X118215530Y-67369669D01*
X118152071Y-67412071D01*
X117984096Y-67663464D01*
X117940000Y-67885149D01*
X117940000Y-67885153D01*
X117925112Y-67960000D01*
X117933603Y-68002686D01*
X117822569Y-68113720D01*
X117665000Y-68494126D01*
X117665000Y-68905874D01*
X117822569Y-69286280D01*
X118113720Y-69577431D01*
X118494126Y-69735000D01*
X118877055Y-69735000D01*
X119022569Y-70086302D01*
X119313720Y-70377453D01*
X119694126Y-70535022D01*
X120105874Y-70535022D01*
X120486280Y-70377453D01*
X120777431Y-70086302D01*
X120935000Y-69705896D01*
X120935000Y-69546635D01*
X120977929Y-69517951D01*
X121145904Y-69266559D01*
X121190000Y-69044874D01*
X121190000Y-69044870D01*
X121204888Y-68970023D01*
X121190000Y-68895176D01*
X121190000Y-68645451D01*
X121200000Y-68647440D01*
X122200000Y-68647440D01*
X122447765Y-68598157D01*
X122657809Y-68457809D01*
X122798157Y-68247765D01*
X122847440Y-68000000D01*
X122847440Y-67000000D01*
X122798157Y-66752235D01*
X122739322Y-66664183D01*
X122794119Y-66531874D01*
X122667954Y-66357000D01*
X122222322Y-66357000D01*
X122200000Y-66352560D01*
X121562856Y-66352560D01*
X121587235Y-66230000D01*
X121561973Y-66103000D01*
X121573000Y-66103000D01*
X121573000Y-65087000D01*
X121827000Y-65087000D01*
X121827000Y-66103000D01*
X122667954Y-66103000D01*
X122794119Y-65928126D01*
X122687127Y-65669791D01*
X122622511Y-65595000D01*
X122687127Y-65520209D01*
X122794119Y-65261874D01*
X122667954Y-65087000D01*
X121827000Y-65087000D01*
X121573000Y-65087000D01*
X121561973Y-65087000D01*
X121587235Y-64960000D01*
X121561973Y-64833000D01*
X121573000Y-64833000D01*
X121573000Y-64821973D01*
X121588217Y-64825000D01*
X121811783Y-64825000D01*
X121827000Y-64821973D01*
X121827000Y-64833000D01*
X122667954Y-64833000D01*
X122794119Y-64658126D01*
X122723215Y-64486926D01*
X122813720Y-64577431D01*
X123194126Y-64735000D01*
X123605874Y-64735000D01*
X123986280Y-64577431D01*
X124277431Y-64286280D01*
X124435000Y-63905874D01*
X124435000Y-63600535D01*
X124460000Y-63474852D01*
X124460000Y-63474848D01*
X124474888Y-63400001D01*
X124460000Y-63325154D01*
X124460000Y-61303711D01*
X124577431Y-61186280D01*
X124735000Y-60805874D01*
X124735000Y-60394126D01*
X124685202Y-60273903D01*
X124913720Y-60502421D01*
X125294126Y-60659990D01*
X125705874Y-60659990D01*
X125907155Y-60576617D01*
X126931715Y-61601178D01*
X126709600Y-61645359D01*
X126251471Y-61951471D01*
X125945359Y-62409600D01*
X125837867Y-62950000D01*
X125945359Y-63490400D01*
X125976876Y-63537569D01*
X125362056Y-63659864D01*
X124821231Y-64021231D01*
X124459864Y-64562055D01*
X124365000Y-65038969D01*
X124365000Y-65861030D01*
X124459864Y-66337944D01*
X124821231Y-66878769D01*
X125362055Y-67240136D01*
X126000000Y-67367031D01*
X126637944Y-67240136D01*
X127178769Y-66878769D01*
X127540136Y-66337945D01*
X127635000Y-65861031D01*
X127635000Y-65038970D01*
X127540136Y-64562055D01*
X127388186Y-64334646D01*
X127790400Y-64254641D01*
X128248529Y-63948529D01*
X128415000Y-63699387D01*
X128415000Y-63730686D01*
X128399622Y-63807998D01*
X128415000Y-63885310D01*
X128415000Y-63885313D01*
X128415001Y-63885318D01*
X128415000Y-67352560D01*
X128200000Y-67352560D01*
X127952235Y-67401843D01*
X127742191Y-67542191D01*
X127601843Y-67752235D01*
X127552560Y-68000000D01*
X127552560Y-68015000D01*
X126577311Y-68015000D01*
X126499999Y-67999622D01*
X126422687Y-68015000D01*
X126422684Y-68015000D01*
X126193708Y-68060546D01*
X126187042Y-68065000D01*
X125994126Y-68065000D01*
X125613720Y-68222569D01*
X125322569Y-68513720D01*
X125165000Y-68894126D01*
X125165000Y-69305874D01*
X125322569Y-69686280D01*
X125613720Y-69977431D01*
X125994126Y-70135000D01*
X126405874Y-70135000D01*
X126786280Y-69977431D01*
X127077431Y-69686280D01*
X127119382Y-69585000D01*
X127552560Y-69585000D01*
X127552560Y-69600000D01*
X127601843Y-69847765D01*
X127742191Y-70057809D01*
X127952235Y-70198157D01*
X128200000Y-70247440D01*
X129737283Y-70247440D01*
X131602560Y-72112718D01*
X131602560Y-72165000D01*
X131494126Y-72165000D01*
X131400602Y-72203739D01*
X131397765Y-72201843D01*
X131150000Y-72152560D01*
X129250000Y-72152560D01*
X129002235Y-72201843D01*
X128792191Y-72342191D01*
X128651843Y-72552235D01*
X128602560Y-72800000D01*
X128602560Y-73600000D01*
X128651843Y-73847765D01*
X128792191Y-74057809D01*
X129002235Y-74198157D01*
X129051547Y-74207966D01*
X126369514Y-76890000D01*
X123825560Y-76890000D01*
X123798157Y-76752235D01*
X123657809Y-76542191D01*
X123447765Y-76401843D01*
X123200000Y-76352560D01*
X121700000Y-76352560D01*
X121452235Y-76401843D01*
X121242191Y-76542191D01*
X121101843Y-76752235D01*
X121100000Y-76761500D01*
X121098157Y-76752235D01*
X120957809Y-76542191D01*
X120747765Y-76401843D01*
X120500000Y-76352560D01*
X119000000Y-76352560D01*
X118752235Y-76401843D01*
X118542191Y-76542191D01*
X118401843Y-76752235D01*
X118352560Y-77000000D01*
X118352560Y-78300000D01*
X118401843Y-78547765D01*
X118542191Y-78757809D01*
X118752235Y-78898157D01*
X118990000Y-78945451D01*
X118990001Y-79114495D01*
X118802235Y-79151843D01*
X118592191Y-79292191D01*
X118451843Y-79502235D01*
X118402560Y-79750000D01*
X118402560Y-81050000D01*
X118451843Y-81297765D01*
X118592191Y-81507809D01*
X118780755Y-81633804D01*
X118745409Y-81719136D01*
X118745409Y-82130884D01*
X118902978Y-82511290D01*
X119194129Y-82802441D01*
X119574535Y-82960010D01*
X119986283Y-82960010D01*
X120366689Y-82802441D01*
X120657840Y-82511290D01*
X120815409Y-82130884D01*
X120815409Y-81719136D01*
X120786903Y-81650317D01*
X120797765Y-81648157D01*
X121007809Y-81507809D01*
X121148157Y-81297765D01*
X121153721Y-81269791D01*
X121211673Y-81409699D01*
X121390302Y-81588327D01*
X121623691Y-81685000D01*
X122214250Y-81685000D01*
X122373000Y-81526250D01*
X122373000Y-80527000D01*
X122627000Y-80527000D01*
X122627000Y-81526250D01*
X122785750Y-81685000D01*
X123376309Y-81685000D01*
X123609698Y-81588327D01*
X123788327Y-81409699D01*
X123885000Y-81176310D01*
X123885000Y-80685750D01*
X123726250Y-80527000D01*
X122627000Y-80527000D01*
X122373000Y-80527000D01*
X122353000Y-80527000D01*
X122353000Y-80273000D01*
X122373000Y-80273000D01*
X122373000Y-79273750D01*
X122627000Y-79273750D01*
X122627000Y-80273000D01*
X123726250Y-80273000D01*
X123885000Y-80114250D01*
X123885000Y-79623690D01*
X123788327Y-79390301D01*
X123609698Y-79211673D01*
X123376309Y-79115000D01*
X122785750Y-79115000D01*
X122627000Y-79273750D01*
X122373000Y-79273750D01*
X122214250Y-79115000D01*
X121623691Y-79115000D01*
X121390302Y-79211673D01*
X121211673Y-79390301D01*
X121153721Y-79530209D01*
X121148157Y-79502235D01*
X121007809Y-79292191D01*
X120797765Y-79151843D01*
X120550000Y-79102560D01*
X120510000Y-79102560D01*
X120510000Y-78945451D01*
X120747765Y-78898157D01*
X120957809Y-78757809D01*
X121098157Y-78547765D01*
X121100000Y-78538500D01*
X121101843Y-78547765D01*
X121242191Y-78757809D01*
X121452235Y-78898157D01*
X121700000Y-78947440D01*
X123200000Y-78947440D01*
X123447765Y-78898157D01*
X123657809Y-78757809D01*
X123798157Y-78547765D01*
X123825560Y-78410000D01*
X125244064Y-78410000D01*
X125213720Y-78422569D01*
X124922569Y-78713720D01*
X124765000Y-79094126D01*
X124765000Y-79505874D01*
X124922569Y-79886280D01*
X125213720Y-80177431D01*
X125594126Y-80335000D01*
X126005874Y-80335000D01*
X126386280Y-80177431D01*
X126677431Y-79886280D01*
X126835000Y-79505874D01*
X126835000Y-79339802D01*
X126914802Y-79260000D01*
X130796289Y-79260000D01*
X130913720Y-79377431D01*
X131294126Y-79535000D01*
X131705874Y-79535000D01*
X132086280Y-79377431D01*
X132377431Y-79086280D01*
X132535000Y-78705874D01*
X132535000Y-78294126D01*
X132377431Y-77913720D01*
X132086280Y-77622569D01*
X131705874Y-77465000D01*
X131294126Y-77465000D01*
X130913720Y-77622569D01*
X130796289Y-77740000D01*
X127669116Y-77740000D01*
X131164577Y-74244540D01*
X131397765Y-74198157D01*
X131400602Y-74196261D01*
X131494126Y-74235000D01*
X131602560Y-74235000D01*
X131602560Y-74550000D01*
X131651843Y-74797765D01*
X131792191Y-75007809D01*
X132002235Y-75148157D01*
X132250000Y-75197440D01*
X134150000Y-75197440D01*
X134335701Y-75160502D01*
X136409670Y-77234472D01*
X136452071Y-77297929D01*
X136703463Y-77465904D01*
X136925148Y-77510000D01*
X136925152Y-77510000D01*
X136999999Y-77524888D01*
X137074846Y-77510000D01*
X137126837Y-77510000D01*
X137192191Y-77607809D01*
X137330164Y-77700000D01*
X137192191Y-77792191D01*
X137051843Y-78002235D01*
X137002560Y-78250000D01*
X137002560Y-79050000D01*
X137051843Y-79297765D01*
X137192191Y-79507809D01*
X137402235Y-79648157D01*
X137650000Y-79697440D01*
X139550000Y-79697440D01*
X139797765Y-79648157D01*
X140007809Y-79507809D01*
X140148157Y-79297765D01*
X140160216Y-79237139D01*
X140275148Y-79260000D01*
X140275152Y-79260000D01*
X140349999Y-79274888D01*
X140424846Y-79260000D01*
X142925148Y-79260000D01*
X143000000Y-79274889D01*
X143296537Y-79215904D01*
X143547929Y-79047929D01*
X143715904Y-78796537D01*
X143760000Y-78574852D01*
X143774889Y-78500000D01*
X143760000Y-78425148D01*
X143760000Y-76703711D01*
X143877431Y-76586280D01*
X144035000Y-76205874D01*
X144035000Y-75835001D01*
X145585154Y-75835001D01*
X145660001Y-75849889D01*
X145734848Y-75835001D01*
X145734853Y-75835001D01*
X145956538Y-75790905D01*
X146207930Y-75622930D01*
X146250332Y-75559471D01*
X146439122Y-75370681D01*
X146473691Y-75385000D01*
X147064250Y-75385000D01*
X147223000Y-75226250D01*
X147223000Y-74227000D01*
X147477000Y-74227000D01*
X147477000Y-75226250D01*
X147635750Y-75385000D01*
X148226309Y-75385000D01*
X148459698Y-75288327D01*
X148638327Y-75109699D01*
X148735000Y-74876310D01*
X148735000Y-74385750D01*
X148576250Y-74227000D01*
X147477000Y-74227000D01*
X147223000Y-74227000D01*
X147203000Y-74227000D01*
X147203000Y-73973000D01*
X147223000Y-73973000D01*
X147223000Y-72973750D01*
X147477000Y-72973750D01*
X147477000Y-73973000D01*
X148576250Y-73973000D01*
X148735000Y-73814250D01*
X148735000Y-73323690D01*
X148638327Y-73090301D01*
X148459698Y-72911673D01*
X148226309Y-72815000D01*
X147635750Y-72815000D01*
X147477000Y-72973750D01*
X147223000Y-72973750D01*
X147064250Y-72815000D01*
X147034999Y-72815000D01*
X147034999Y-72439802D01*
X148315000Y-71159802D01*
X148315000Y-71326309D01*
X148411673Y-71559698D01*
X148590301Y-71738327D01*
X148823690Y-71835000D01*
X149514250Y-71835000D01*
X149673000Y-71676250D01*
X149673000Y-70727000D01*
X149927000Y-70727000D01*
X149927000Y-71676250D01*
X150085750Y-71835000D01*
X150776310Y-71835000D01*
X151009699Y-71738327D01*
X151188327Y-71559698D01*
X151285000Y-71326309D01*
X151285000Y-70885750D01*
X151126250Y-70727000D01*
X149927000Y-70727000D01*
X149673000Y-70727000D01*
X149653000Y-70727000D01*
X149653000Y-70473000D01*
X149673000Y-70473000D01*
X149673000Y-70453000D01*
X149927000Y-70453000D01*
X149927000Y-70473000D01*
X151126250Y-70473000D01*
X151285000Y-70314250D01*
X151285000Y-69873691D01*
X151188327Y-69640302D01*
X151009699Y-69461673D01*
X150970436Y-69445410D01*
X151213344Y-69081873D01*
X151290000Y-68696498D01*
X151290001Y-88930065D01*
X151255074Y-89105655D01*
X151195225Y-89195226D01*
X151105655Y-89255074D01*
X150930070Y-89290000D01*
X144934801Y-89290000D01*
X147015000Y-87209802D01*
X147015000Y-87626309D01*
X147111673Y-87859698D01*
X147290301Y-88038327D01*
X147523690Y-88135000D01*
X148214250Y-88135000D01*
X148373000Y-87976250D01*
X148373000Y-87027000D01*
X148627000Y-87027000D01*
X148627000Y-87976250D01*
X148785750Y-88135000D01*
X149476310Y-88135000D01*
X149709699Y-88038327D01*
X149888327Y-87859698D01*
X149985000Y-87626309D01*
X149985000Y-87185750D01*
X149826250Y-87027000D01*
X148627000Y-87027000D01*
X148373000Y-87027000D01*
X148353000Y-87027000D01*
X148353000Y-86773000D01*
X148373000Y-86773000D01*
X148373000Y-86753000D01*
X148627000Y-86753000D01*
X148627000Y-86773000D01*
X149826250Y-86773000D01*
X149985000Y-86614250D01*
X149985000Y-86173691D01*
X149888327Y-85940302D01*
X149709699Y-85761673D01*
X149670436Y-85745410D01*
X149913344Y-85381873D01*
X150009195Y-84900000D01*
X149913344Y-84418127D01*
X149640385Y-84009615D01*
X149476335Y-83900000D01*
X149640385Y-83790385D01*
X149913344Y-83381873D01*
X150009195Y-82900000D01*
X149913344Y-82418127D01*
X149640385Y-82009615D01*
X149476335Y-81900000D01*
X149640385Y-81790385D01*
X149913344Y-81381873D01*
X150009195Y-80900000D01*
X149913344Y-80418127D01*
X149640385Y-80009615D01*
X149476335Y-79900000D01*
X149640385Y-79790385D01*
X149913344Y-79381873D01*
X150009195Y-78900000D01*
X149913344Y-78418127D01*
X149640385Y-78009615D01*
X149476335Y-77900000D01*
X149640385Y-77790385D01*
X149913344Y-77381873D01*
X150009195Y-76900000D01*
X149913344Y-76418127D01*
X149640385Y-76009615D01*
X149231873Y-75736656D01*
X148871636Y-75665000D01*
X148128364Y-75665000D01*
X147768127Y-75736656D01*
X147359615Y-76009615D01*
X147086656Y-76418127D01*
X146990805Y-76900000D01*
X147086656Y-77381873D01*
X147359615Y-77790385D01*
X147523665Y-77900000D01*
X147359615Y-78009615D01*
X147086656Y-78418127D01*
X146990805Y-78900000D01*
X147086656Y-79381873D01*
X147359615Y-79790385D01*
X147523665Y-79900000D01*
X147359615Y-80009615D01*
X147086656Y-80418127D01*
X146990805Y-80900000D01*
X147086656Y-81381873D01*
X147359615Y-81790385D01*
X147523665Y-81900000D01*
X147359615Y-82009615D01*
X147086656Y-82418127D01*
X146990805Y-82900000D01*
X147086656Y-83381873D01*
X147359615Y-83790385D01*
X147523665Y-83900000D01*
X147359615Y-84009615D01*
X147086656Y-84418127D01*
X146990805Y-84900000D01*
X147021398Y-85053800D01*
X143935199Y-88140000D01*
X131367197Y-88140000D01*
X131435000Y-87976310D01*
X131435000Y-87285750D01*
X131276250Y-87127000D01*
X130327000Y-87127000D01*
X130327000Y-87147000D01*
X130073000Y-87147000D01*
X130073000Y-87127000D01*
X130053000Y-87127000D01*
X130053000Y-86873000D01*
X130073000Y-86873000D01*
X130073000Y-85673750D01*
X130327000Y-85673750D01*
X130327000Y-86873000D01*
X131276250Y-86873000D01*
X131435000Y-86714250D01*
X131435000Y-86023690D01*
X131338327Y-85790301D01*
X131159698Y-85611673D01*
X130926309Y-85515000D01*
X130485750Y-85515000D01*
X130327000Y-85673750D01*
X130073000Y-85673750D01*
X129914250Y-85515000D01*
X129473691Y-85515000D01*
X129240302Y-85611673D01*
X129061673Y-85790301D01*
X129045410Y-85829564D01*
X128681873Y-85586656D01*
X128200000Y-85490805D01*
X127718128Y-85586656D01*
X127309616Y-85859615D01*
X127200000Y-86023666D01*
X127090385Y-85859615D01*
X126681873Y-85586656D01*
X126200000Y-85490805D01*
X125718128Y-85586656D01*
X125309616Y-85859615D01*
X125200000Y-86023666D01*
X125090385Y-85859615D01*
X124681873Y-85586656D01*
X124200000Y-85490805D01*
X123718128Y-85586656D01*
X123309616Y-85859615D01*
X123200000Y-86023666D01*
X123090385Y-85859615D01*
X122681873Y-85586656D01*
X122200000Y-85490805D01*
X121718128Y-85586656D01*
X121309616Y-85859615D01*
X121200000Y-86023666D01*
X121090385Y-85859615D01*
X120681873Y-85586656D01*
X120200000Y-85490805D01*
X119718128Y-85586656D01*
X119309616Y-85859615D01*
X119036656Y-86268127D01*
X118965000Y-86628364D01*
X118965000Y-87371635D01*
X119036656Y-87731872D01*
X119309615Y-88140385D01*
X119718127Y-88413344D01*
X120200000Y-88509195D01*
X120681872Y-88413344D01*
X121090385Y-88140385D01*
X121200000Y-87976334D01*
X121309615Y-88140385D01*
X121718127Y-88413344D01*
X122200000Y-88509195D01*
X122681872Y-88413344D01*
X123090385Y-88140385D01*
X123200000Y-87976334D01*
X123309615Y-88140385D01*
X123718127Y-88413344D01*
X124200000Y-88509195D01*
X124681872Y-88413344D01*
X125090385Y-88140385D01*
X125200000Y-87976334D01*
X125309615Y-88140385D01*
X125718127Y-88413344D01*
X126200000Y-88509195D01*
X126681872Y-88413344D01*
X127090385Y-88140385D01*
X127200000Y-87976334D01*
X127309615Y-88140385D01*
X127718127Y-88413344D01*
X128200000Y-88509195D01*
X128353800Y-88478602D01*
X129165197Y-89290000D01*
X113069930Y-89290000D01*
X112894345Y-89255074D01*
X112804774Y-89195225D01*
X112744926Y-89105655D01*
X112710000Y-88930070D01*
X112710000Y-83577000D01*
X115350000Y-83577000D01*
X115398156Y-83567516D01*
X115439462Y-83540142D01*
X115467148Y-83499045D01*
X115476999Y-83450481D01*
X115526999Y-70250481D01*
X115517333Y-70201399D01*
X115489803Y-70160197D01*
X115448601Y-70132667D01*
X115400000Y-70123000D01*
X112710000Y-70123000D01*
X112710000Y-69081619D01*
X112978364Y-69135000D01*
X113921636Y-69135000D01*
X114281873Y-69063344D01*
X114690385Y-68790385D01*
X114963344Y-68381873D01*
X115059195Y-67900000D01*
X115017610Y-67690940D01*
X115379622Y-68052952D01*
X115879479Y-68260000D01*
X116420521Y-68260000D01*
X116920378Y-68052952D01*
X117302952Y-67670378D01*
X117510000Y-67170521D01*
X117510000Y-66629479D01*
X117302952Y-66129622D01*
X116920378Y-65747048D01*
X116420521Y-65540000D01*
X115879479Y-65540000D01*
X115379622Y-65747048D01*
X114997048Y-66129622D01*
X114790000Y-66629479D01*
X114790000Y-67158699D01*
X114690385Y-67009615D01*
X114281873Y-66736656D01*
X113921636Y-66665000D01*
X112978364Y-66665000D01*
X112710000Y-66718381D01*
X112710000Y-62081619D01*
X112978364Y-62135000D01*
X113921636Y-62135000D01*
X114281873Y-62063344D01*
X114690385Y-61790385D01*
X114790000Y-61641301D01*
X114790000Y-62170521D01*
X114997048Y-62670378D01*
X115379622Y-63052952D01*
X115879479Y-63260000D01*
X116420521Y-63260000D01*
X116920378Y-63052952D01*
X117302952Y-62670378D01*
X117510000Y-62170521D01*
X117510000Y-61629479D01*
X117302952Y-61129622D01*
X116920378Y-60747048D01*
X116420521Y-60540000D01*
X115879479Y-60540000D01*
X115379622Y-60747048D01*
X115017610Y-61109060D01*
X115059195Y-60900000D01*
X114963344Y-60418127D01*
X114690385Y-60009615D01*
X114281873Y-59736656D01*
X113921636Y-59665000D01*
X112978364Y-59665000D01*
X112710000Y-59718381D01*
X112710000Y-59069930D01*
X112744926Y-58894345D01*
X112804774Y-58804775D01*
X112894345Y-58744926D01*
X113069930Y-58710000D01*
X125004396Y-58710000D01*
X124913720Y-58747559D01*
G36*
X138626843Y-70877765D02*
X138727000Y-71027659D01*
X138727000Y-71106250D01*
X138885750Y-71265000D01*
X139051310Y-71265000D01*
X139087369Y-71250064D01*
X139225000Y-71277440D01*
X139875000Y-71277440D01*
X140122765Y-71228157D01*
X140332809Y-71087809D01*
X140384960Y-71009761D01*
X143252560Y-73877362D01*
X143252560Y-74315001D01*
X138721175Y-74315001D01*
X137466384Y-73060211D01*
X137466384Y-72894138D01*
X137308815Y-72513732D01*
X137191384Y-72396301D01*
X137191384Y-71838417D01*
X137752362Y-71277440D01*
X137975000Y-71277440D01*
X138112631Y-71250064D01*
X138148690Y-71265000D01*
X138314250Y-71265000D01*
X138473000Y-71106250D01*
X138473000Y-71027659D01*
X138573157Y-70877765D01*
X138600000Y-70742815D01*
X138626843Y-70877765D01*
X138626843Y-70877765D01*
G37*
X138626843Y-70877765D02*
X138727000Y-71027659D01*
X138727000Y-71106250D01*
X138885750Y-71265000D01*
X139051310Y-71265000D01*
X139087369Y-71250064D01*
X139225000Y-71277440D01*
X139875000Y-71277440D01*
X140122765Y-71228157D01*
X140332809Y-71087809D01*
X140384960Y-71009761D01*
X143252560Y-73877362D01*
X143252560Y-74315001D01*
X138721175Y-74315001D01*
X137466384Y-73060211D01*
X137466384Y-72894138D01*
X137308815Y-72513732D01*
X137191384Y-72396301D01*
X137191384Y-71838417D01*
X137752362Y-71277440D01*
X137975000Y-71277440D01*
X138112631Y-71250064D01*
X138148690Y-71265000D01*
X138314250Y-71265000D01*
X138473000Y-71106250D01*
X138473000Y-71027659D01*
X138573157Y-70877765D01*
X138600000Y-70742815D01*
X138626843Y-70877765D01*
G36*
X143765000Y-70614250D02*
X143923750Y-70773000D01*
X145073000Y-70773000D01*
X145073000Y-70753000D01*
X145327000Y-70753000D01*
X145327000Y-70773000D01*
X145347000Y-70773000D01*
X145347000Y-71027000D01*
X145327000Y-71027000D01*
X145327000Y-72376250D01*
X145485750Y-72535000D01*
X145515000Y-72535000D01*
X145515000Y-72825435D01*
X145400000Y-72802560D01*
X144327362Y-72802560D01*
X142710552Y-71185750D01*
X143765000Y-71185750D01*
X143765000Y-72026309D01*
X143861673Y-72259698D01*
X144040301Y-72438327D01*
X144273690Y-72535000D01*
X144914250Y-72535000D01*
X145073000Y-72376250D01*
X145073000Y-71027000D01*
X143923750Y-71027000D01*
X143765000Y-71185750D01*
X142710552Y-71185750D01*
X142072241Y-70547440D01*
X142250000Y-70547440D01*
X142497765Y-70498157D01*
X142707809Y-70357809D01*
X142848157Y-70147765D01*
X142895451Y-69910000D01*
X143765000Y-69910000D01*
X143765000Y-70614250D01*
X143765000Y-70614250D01*
G37*
X143765000Y-70614250D02*
X143923750Y-70773000D01*
X145073000Y-70773000D01*
X145073000Y-70753000D01*
X145327000Y-70753000D01*
X145327000Y-70773000D01*
X145347000Y-70773000D01*
X145347000Y-71027000D01*
X145327000Y-71027000D01*
X145327000Y-72376250D01*
X145485750Y-72535000D01*
X145515000Y-72535000D01*
X145515000Y-72825435D01*
X145400000Y-72802560D01*
X144327362Y-72802560D01*
X142710552Y-71185750D01*
X143765000Y-71185750D01*
X143765000Y-72026309D01*
X143861673Y-72259698D01*
X144040301Y-72438327D01*
X144273690Y-72535000D01*
X144914250Y-72535000D01*
X145073000Y-72376250D01*
X145073000Y-71027000D01*
X143923750Y-71027000D01*
X143765000Y-71185750D01*
X142710552Y-71185750D01*
X142072241Y-70547440D01*
X142250000Y-70547440D01*
X142497765Y-70498157D01*
X142707809Y-70357809D01*
X142848157Y-70147765D01*
X142895451Y-69910000D01*
X143765000Y-69910000D01*
X143765000Y-70614250D01*
G36*
X130559575Y-63667914D02*
X130921098Y-64069583D01*
X131408813Y-64302328D01*
X131622998Y-64180426D01*
X131622998Y-64317908D01*
X131459864Y-64562055D01*
X131365000Y-65038969D01*
X131365000Y-65861030D01*
X131459864Y-66337944D01*
X131821231Y-66878769D01*
X132362055Y-67240136D01*
X133000000Y-67367031D01*
X133637944Y-67240136D01*
X134178769Y-66878769D01*
X134415000Y-66525224D01*
X134415000Y-66564250D01*
X134573750Y-66723000D01*
X135573000Y-66723000D01*
X135573000Y-66703000D01*
X135827000Y-66703000D01*
X135827000Y-66723000D01*
X135847000Y-66723000D01*
X135847000Y-66977000D01*
X135827000Y-66977000D01*
X135827000Y-68076250D01*
X135985750Y-68235000D01*
X136476310Y-68235000D01*
X136709699Y-68138327D01*
X136717456Y-68130570D01*
X136726843Y-68177765D01*
X136867191Y-68387809D01*
X137035095Y-68500000D01*
X136867191Y-68612191D01*
X136726843Y-68822235D01*
X136677560Y-69070000D01*
X136677560Y-70202638D01*
X135946914Y-70933285D01*
X135883455Y-70975687D01*
X135715480Y-71227080D01*
X135671384Y-71448765D01*
X135671384Y-71448769D01*
X135656496Y-71523616D01*
X135671384Y-71598464D01*
X135671385Y-72361228D01*
X135059748Y-71749591D01*
X135015953Y-71684047D01*
X134756292Y-71510546D01*
X134676254Y-71494626D01*
X134607809Y-71392191D01*
X134397765Y-71251843D01*
X134150000Y-71202560D01*
X132912718Y-71202560D01*
X131854270Y-70144113D01*
X132073691Y-70235000D01*
X132914250Y-70235000D01*
X133073000Y-70076250D01*
X133073000Y-68927000D01*
X133327000Y-68927000D01*
X133327000Y-70076250D01*
X133485750Y-70235000D01*
X134326309Y-70235000D01*
X134559698Y-70138327D01*
X134738327Y-69959699D01*
X134835000Y-69726310D01*
X134835000Y-69085750D01*
X134676250Y-68927000D01*
X133327000Y-68927000D01*
X133073000Y-68927000D01*
X131723750Y-68927000D01*
X131565000Y-69085750D01*
X131565000Y-69726310D01*
X131655886Y-69945729D01*
X130847440Y-69137283D01*
X130847440Y-68000000D01*
X130822316Y-67873690D01*
X131565000Y-67873690D01*
X131565000Y-68514250D01*
X131723750Y-68673000D01*
X133073000Y-68673000D01*
X133073000Y-67523750D01*
X133327000Y-67523750D01*
X133327000Y-68673000D01*
X134676250Y-68673000D01*
X134835000Y-68514250D01*
X134835000Y-68198263D01*
X134923690Y-68235000D01*
X135414250Y-68235000D01*
X135573000Y-68076250D01*
X135573000Y-66977000D01*
X134573750Y-66977000D01*
X134415000Y-67135750D01*
X134415000Y-67401737D01*
X134326309Y-67365000D01*
X133485750Y-67365000D01*
X133327000Y-67523750D01*
X133073000Y-67523750D01*
X132914250Y-67365000D01*
X132073691Y-67365000D01*
X131840302Y-67461673D01*
X131661673Y-67640301D01*
X131565000Y-67873690D01*
X130822316Y-67873690D01*
X130798157Y-67752235D01*
X130657809Y-67542191D01*
X130447765Y-67401843D01*
X130200000Y-67352560D01*
X129985000Y-67352560D01*
X129985000Y-64133155D01*
X130527554Y-63590602D01*
X130559575Y-63667914D01*
X130559575Y-63667914D01*
G37*
X130559575Y-63667914D02*
X130921098Y-64069583D01*
X131408813Y-64302328D01*
X131622998Y-64180426D01*
X131622998Y-64317908D01*
X131459864Y-64562055D01*
X131365000Y-65038969D01*
X131365000Y-65861030D01*
X131459864Y-66337944D01*
X131821231Y-66878769D01*
X132362055Y-67240136D01*
X133000000Y-67367031D01*
X133637944Y-67240136D01*
X134178769Y-66878769D01*
X134415000Y-66525224D01*
X134415000Y-66564250D01*
X134573750Y-66723000D01*
X135573000Y-66723000D01*
X135573000Y-66703000D01*
X135827000Y-66703000D01*
X135827000Y-66723000D01*
X135847000Y-66723000D01*
X135847000Y-66977000D01*
X135827000Y-66977000D01*
X135827000Y-68076250D01*
X135985750Y-68235000D01*
X136476310Y-68235000D01*
X136709699Y-68138327D01*
X136717456Y-68130570D01*
X136726843Y-68177765D01*
X136867191Y-68387809D01*
X137035095Y-68500000D01*
X136867191Y-68612191D01*
X136726843Y-68822235D01*
X136677560Y-69070000D01*
X136677560Y-70202638D01*
X135946914Y-70933285D01*
X135883455Y-70975687D01*
X135715480Y-71227080D01*
X135671384Y-71448765D01*
X135671384Y-71448769D01*
X135656496Y-71523616D01*
X135671384Y-71598464D01*
X135671385Y-72361228D01*
X135059748Y-71749591D01*
X135015953Y-71684047D01*
X134756292Y-71510546D01*
X134676254Y-71494626D01*
X134607809Y-71392191D01*
X134397765Y-71251843D01*
X134150000Y-71202560D01*
X132912718Y-71202560D01*
X131854270Y-70144113D01*
X132073691Y-70235000D01*
X132914250Y-70235000D01*
X133073000Y-70076250D01*
X133073000Y-68927000D01*
X133327000Y-68927000D01*
X133327000Y-70076250D01*
X133485750Y-70235000D01*
X134326309Y-70235000D01*
X134559698Y-70138327D01*
X134738327Y-69959699D01*
X134835000Y-69726310D01*
X134835000Y-69085750D01*
X134676250Y-68927000D01*
X133327000Y-68927000D01*
X133073000Y-68927000D01*
X131723750Y-68927000D01*
X131565000Y-69085750D01*
X131565000Y-69726310D01*
X131655886Y-69945729D01*
X130847440Y-69137283D01*
X130847440Y-68000000D01*
X130822316Y-67873690D01*
X131565000Y-67873690D01*
X131565000Y-68514250D01*
X131723750Y-68673000D01*
X133073000Y-68673000D01*
X133073000Y-67523750D01*
X133327000Y-67523750D01*
X133327000Y-68673000D01*
X134676250Y-68673000D01*
X134835000Y-68514250D01*
X134835000Y-68198263D01*
X134923690Y-68235000D01*
X135414250Y-68235000D01*
X135573000Y-68076250D01*
X135573000Y-66977000D01*
X134573750Y-66977000D01*
X134415000Y-67135750D01*
X134415000Y-67401737D01*
X134326309Y-67365000D01*
X133485750Y-67365000D01*
X133327000Y-67523750D01*
X133073000Y-67523750D01*
X132914250Y-67365000D01*
X132073691Y-67365000D01*
X131840302Y-67461673D01*
X131661673Y-67640301D01*
X131565000Y-67873690D01*
X130822316Y-67873690D01*
X130798157Y-67752235D01*
X130657809Y-67542191D01*
X130447765Y-67401843D01*
X130200000Y-67352560D01*
X129985000Y-67352560D01*
X129985000Y-64133155D01*
X130527554Y-63590602D01*
X130559575Y-63667914D01*
G36*
X151105655Y-58744926D02*
X151195225Y-58804774D01*
X151255074Y-58894345D01*
X151290000Y-59069930D01*
X151290000Y-68503502D01*
X151213344Y-68118127D01*
X150940385Y-67709615D01*
X150531873Y-67436656D01*
X150171636Y-67365000D01*
X149428364Y-67365000D01*
X149068127Y-67436656D01*
X148659615Y-67709615D01*
X148386656Y-68118127D01*
X148290805Y-68600000D01*
X148321398Y-68753801D01*
X148215529Y-68859670D01*
X148152071Y-68902071D01*
X147984096Y-69153463D01*
X147940000Y-69375148D01*
X147940000Y-69375153D01*
X147937506Y-69387691D01*
X146552201Y-70772998D01*
X146476252Y-70772998D01*
X146635000Y-70614250D01*
X146635000Y-69773691D01*
X146538327Y-69540302D01*
X146359699Y-69361673D01*
X146126310Y-69265000D01*
X145485750Y-69265000D01*
X145327002Y-69423748D01*
X145327002Y-69265000D01*
X145310509Y-69265000D01*
X145335000Y-69205874D01*
X145335000Y-68794126D01*
X145232820Y-68547440D01*
X146000000Y-68547440D01*
X146247765Y-68498157D01*
X146457809Y-68357809D01*
X146598157Y-68147765D01*
X146647440Y-67900000D01*
X146647440Y-65900000D01*
X146598157Y-65652235D01*
X146495447Y-65498520D01*
X146823923Y-65362460D01*
X146884730Y-65146969D01*
X147273847Y-65536086D01*
X147874778Y-65785000D01*
X148525222Y-65785000D01*
X149126153Y-65536086D01*
X149586086Y-65076153D01*
X149835000Y-64475222D01*
X149835000Y-63824778D01*
X149586086Y-63223847D01*
X149126153Y-62763914D01*
X148525222Y-62515000D01*
X147874778Y-62515000D01*
X147273847Y-62763914D01*
X146884730Y-63153031D01*
X146823923Y-62937540D01*
X146304829Y-62752799D01*
X145754552Y-62780770D01*
X145376077Y-62937540D01*
X145308088Y-63178483D01*
X146100000Y-63970395D01*
X146114143Y-63956253D01*
X146293748Y-64135858D01*
X146279605Y-64150000D01*
X146293748Y-64164143D01*
X146114143Y-64343748D01*
X146100000Y-64329605D01*
X145308088Y-65121517D01*
X145345066Y-65252560D01*
X144956127Y-65252560D01*
X145274147Y-64934540D01*
X145371934Y-64698461D01*
X145920395Y-64150000D01*
X145371934Y-63601539D01*
X145274147Y-63365460D01*
X144884540Y-62975853D01*
X144375494Y-62765000D01*
X143824506Y-62765000D01*
X143315460Y-62975853D01*
X143100000Y-63191313D01*
X142884540Y-62975853D01*
X142375494Y-62765000D01*
X141824506Y-62765000D01*
X141315460Y-62975853D01*
X141226776Y-63064537D01*
X140926153Y-62763914D01*
X140325222Y-62515000D01*
X139947440Y-62515000D01*
X139947440Y-61350000D01*
X139898157Y-61102235D01*
X139863254Y-61050000D01*
X139898157Y-60997765D01*
X139947440Y-60750000D01*
X139947440Y-59450000D01*
X139898157Y-59202235D01*
X139757809Y-58992191D01*
X139547765Y-58851843D01*
X139300000Y-58802560D01*
X137800000Y-58802560D01*
X137552235Y-58851843D01*
X137342191Y-58992191D01*
X137201843Y-59202235D01*
X137200000Y-59211500D01*
X137198157Y-59202235D01*
X137057809Y-58992191D01*
X136847765Y-58851843D01*
X136600000Y-58802560D01*
X135100000Y-58802560D01*
X134852235Y-58851843D01*
X134642191Y-58992191D01*
X134501843Y-59202235D01*
X134479413Y-59315000D01*
X132985314Y-59315000D01*
X132907998Y-59299621D01*
X132830682Y-59315000D01*
X132601706Y-59360546D01*
X132407589Y-59490251D01*
X132407587Y-59490253D01*
X132342045Y-59534047D01*
X132298251Y-59599589D01*
X129729108Y-62168733D01*
X129700411Y-62149558D01*
X126675434Y-59124582D01*
X126631638Y-59059037D01*
X126371977Y-58885536D01*
X126187578Y-58848857D01*
X126086280Y-58747559D01*
X125995604Y-58710000D01*
X150930070Y-58710000D01*
X151105655Y-58744926D01*
X151105655Y-58744926D01*
G37*
X151105655Y-58744926D02*
X151195225Y-58804774D01*
X151255074Y-58894345D01*
X151290000Y-59069930D01*
X151290000Y-68503502D01*
X151213344Y-68118127D01*
X150940385Y-67709615D01*
X150531873Y-67436656D01*
X150171636Y-67365000D01*
X149428364Y-67365000D01*
X149068127Y-67436656D01*
X148659615Y-67709615D01*
X148386656Y-68118127D01*
X148290805Y-68600000D01*
X148321398Y-68753801D01*
X148215529Y-68859670D01*
X148152071Y-68902071D01*
X147984096Y-69153463D01*
X147940000Y-69375148D01*
X147940000Y-69375153D01*
X147937506Y-69387691D01*
X146552201Y-70772998D01*
X146476252Y-70772998D01*
X146635000Y-70614250D01*
X146635000Y-69773691D01*
X146538327Y-69540302D01*
X146359699Y-69361673D01*
X146126310Y-69265000D01*
X145485750Y-69265000D01*
X145327002Y-69423748D01*
X145327002Y-69265000D01*
X145310509Y-69265000D01*
X145335000Y-69205874D01*
X145335000Y-68794126D01*
X145232820Y-68547440D01*
X146000000Y-68547440D01*
X146247765Y-68498157D01*
X146457809Y-68357809D01*
X146598157Y-68147765D01*
X146647440Y-67900000D01*
X146647440Y-65900000D01*
X146598157Y-65652235D01*
X146495447Y-65498520D01*
X146823923Y-65362460D01*
X146884730Y-65146969D01*
X147273847Y-65536086D01*
X147874778Y-65785000D01*
X148525222Y-65785000D01*
X149126153Y-65536086D01*
X149586086Y-65076153D01*
X149835000Y-64475222D01*
X149835000Y-63824778D01*
X149586086Y-63223847D01*
X149126153Y-62763914D01*
X148525222Y-62515000D01*
X147874778Y-62515000D01*
X147273847Y-62763914D01*
X146884730Y-63153031D01*
X146823923Y-62937540D01*
X146304829Y-62752799D01*
X145754552Y-62780770D01*
X145376077Y-62937540D01*
X145308088Y-63178483D01*
X146100000Y-63970395D01*
X146114143Y-63956253D01*
X146293748Y-64135858D01*
X146279605Y-64150000D01*
X146293748Y-64164143D01*
X146114143Y-64343748D01*
X146100000Y-64329605D01*
X145308088Y-65121517D01*
X145345066Y-65252560D01*
X144956127Y-65252560D01*
X145274147Y-64934540D01*
X145371934Y-64698461D01*
X145920395Y-64150000D01*
X145371934Y-63601539D01*
X145274147Y-63365460D01*
X144884540Y-62975853D01*
X144375494Y-62765000D01*
X143824506Y-62765000D01*
X143315460Y-62975853D01*
X143100000Y-63191313D01*
X142884540Y-62975853D01*
X142375494Y-62765000D01*
X141824506Y-62765000D01*
X141315460Y-62975853D01*
X141226776Y-63064537D01*
X140926153Y-62763914D01*
X140325222Y-62515000D01*
X139947440Y-62515000D01*
X139947440Y-61350000D01*
X139898157Y-61102235D01*
X139863254Y-61050000D01*
X139898157Y-60997765D01*
X139947440Y-60750000D01*
X139947440Y-59450000D01*
X139898157Y-59202235D01*
X139757809Y-58992191D01*
X139547765Y-58851843D01*
X139300000Y-58802560D01*
X137800000Y-58802560D01*
X137552235Y-58851843D01*
X137342191Y-58992191D01*
X137201843Y-59202235D01*
X137200000Y-59211500D01*
X137198157Y-59202235D01*
X137057809Y-58992191D01*
X136847765Y-58851843D01*
X136600000Y-58802560D01*
X135100000Y-58802560D01*
X134852235Y-58851843D01*
X134642191Y-58992191D01*
X134501843Y-59202235D01*
X134479413Y-59315000D01*
X132985314Y-59315000D01*
X132907998Y-59299621D01*
X132830682Y-59315000D01*
X132601706Y-59360546D01*
X132407589Y-59490251D01*
X132407587Y-59490253D01*
X132342045Y-59534047D01*
X132298251Y-59599589D01*
X129729108Y-62168733D01*
X129700411Y-62149558D01*
X126675434Y-59124582D01*
X126631638Y-59059037D01*
X126371977Y-58885536D01*
X126187578Y-58848857D01*
X126086280Y-58747559D01*
X125995604Y-58710000D01*
X150930070Y-58710000D01*
X151105655Y-58744926D01*
G36*
X131877000Y-62833000D02*
X131897000Y-62833000D01*
X131897000Y-63087000D01*
X131877000Y-63087000D01*
X131877000Y-63107000D01*
X131623000Y-63107000D01*
X131623000Y-63087000D01*
X131603000Y-63087000D01*
X131603000Y-62833000D01*
X131623000Y-62833000D01*
X131623000Y-62813000D01*
X131877000Y-62813000D01*
X131877000Y-62833000D01*
X131877000Y-62833000D01*
G37*
X131877000Y-62833000D02*
X131897000Y-62833000D01*
X131897000Y-63087000D01*
X131877000Y-63087000D01*
X131877000Y-63107000D01*
X131623000Y-63107000D01*
X131623000Y-63087000D01*
X131603000Y-63087000D01*
X131603000Y-62833000D01*
X131623000Y-62833000D01*
X131623000Y-62813000D01*
X131877000Y-62813000D01*
X131877000Y-62833000D01*
G04 #@! TD*
M02*
