M48
;DRILL file {KiCad 5.0.2-bee76a0~70~ubuntu18.04.1} date Mon 29 Apr 2019 09:23:40 PM EDT
;FORMAT={-:-/ absolute / inch / decimal}
FMAT,2
INCH,TZ
T1C0.0157
T2C0.0236
T3C0.0256
T4C0.0295
T5C0.0315
T6C0.0335
T7C0.0394
T8C0.0512
T9C0.0591
%
G90
G05
T1
X4.6457Y-2.6181
X4.6457Y-3.4685
X4.6732Y-2.7047
X4.7158Y-3.2254
X4.7205Y-2.7362
X4.7795Y-3.3061
X4.8583Y-2.5079
X4.8701Y-2.3858
X4.9409Y-2.3474
X4.9528Y-3.122
X4.9685Y-2.7205
X4.9685Y-2.9035
X5.1339Y-2.9567
X5.1772Y-3.0906
X5.185Y-2.8819
X5.3425Y-2.7205
X5.3713Y-2.878
X5.4213Y-2.815
X5.6122Y-3.3228
X5.6299Y-2.9921
X5.6811Y-2.7165
X5.752Y-2.5256
X5.7953Y-2.6378
T3
X4.7413Y-2.4575
X4.7413Y-2.5075
X4.7413Y-2.5575
X4.7413Y-2.6075
X4.7413Y-2.6575
X4.7913Y-2.4575
X4.7913Y-2.5075
X4.7913Y-2.5575
X4.7913Y-2.6075
X4.7913Y-2.6575
T4
X4.7323Y-3.4252
X4.811Y-3.4252
X4.8898Y-3.4252
X4.9685Y-3.4252
X5.0472Y-3.4252
X5.126Y-3.4252
X5.8465Y-3.0276
X5.8465Y-3.1063
X5.8465Y-3.185
X5.8465Y-3.2638
X5.8465Y-3.3425
X5.8465Y-3.4213
X5.8976Y-2.7008
X5.8976Y-2.7795
T5
X5.5945Y-2.5256
X5.6732Y-2.5256
X5.752Y-2.5256
T6
X4.5728Y-2.437
X4.5728Y-2.6339
T7
X5.0098Y-2.4783
X5.187Y-2.4787
T8
X4.9606Y-2.5768
X5.2362Y-2.5768
T9
X5.5118Y-2.5256
X5.8346Y-2.5256
T2
X4.4528Y-2.3976G85X4.4803Y-2.3976
G05
X4.4803Y-2.6732G85X4.4528Y-2.6732
G05
T0
M30
