G04 #@! TF.GenerationSoftware,KiCad,Pcbnew,5.0.2-bee76a0~70~ubuntu18.04.1*
G04 #@! TF.CreationDate,2019-04-29T21:23:14-04:00*
G04 #@! TF.ProjectId,E73 SCR,45373320-5343-4522-9e6b-696361645f70,rev?*
G04 #@! TF.SameCoordinates,Original*
G04 #@! TF.FileFunction,Paste,Top*
G04 #@! TF.FilePolarity,Positive*
%FSLAX46Y46*%
G04 Gerber Fmt 4.6, Leading zero omitted, Abs format (unit mm)*
G04 Created by KiCad (PCBNEW 5.0.2-bee76a0~70~ubuntu18.04.1) date Mon 29 Apr 2019 09:23:14 PM EDT*
%MOMM*%
%LPD*%
G01*
G04 APERTURE LIST*
%ADD10R,1.600000X2.000000*%
%ADD11R,2.000000X1.600000*%
%ADD12R,1.500000X1.300000*%
%ADD13R,1.900000X1.500000*%
%ADD14R,1.350000X0.400000*%
%ADD15R,1.560000X0.650000*%
%ADD16R,1.000000X1.000000*%
%ADD17R,0.750000X1.000000*%
%ADD18R,1.000000X0.750000*%
%ADD19R,2.400000X3.500000*%
G04 APERTURE END LIST*
D10*
G04 #@! TO.C,C1*
X136150000Y-71500000D03*
X136150000Y-75500000D03*
G04 #@! TD*
G04 #@! TO.C,C2*
X134000000Y-75500000D03*
X134000000Y-71500000D03*
G04 #@! TD*
G04 #@! TO.C,C4*
X131850000Y-75500000D03*
X131850000Y-71500000D03*
G04 #@! TD*
D11*
G04 #@! TO.C,C8*
X138550000Y-81900000D03*
X142550000Y-81900000D03*
G04 #@! TD*
G04 #@! TO.C,C7*
X142550000Y-87100000D03*
X138550000Y-87100000D03*
G04 #@! TD*
D10*
G04 #@! TO.C,C6*
X145000000Y-81400000D03*
X145000000Y-77400000D03*
G04 #@! TD*
D12*
G04 #@! TO.C,D2*
X116350000Y-85050000D03*
X113650000Y-85050000D03*
G04 #@! TD*
D13*
G04 #@! TO.C,J1*
X113450000Y-63400000D03*
D14*
X116150000Y-64400000D03*
X116150000Y-65050000D03*
X116150000Y-65700000D03*
X116150000Y-63100000D03*
X116150000Y-63750000D03*
D13*
X113450000Y-65400000D03*
G04 #@! TD*
D12*
G04 #@! TO.C,R3*
X113650000Y-87150000D03*
X116350000Y-87150000D03*
G04 #@! TD*
D15*
G04 #@! TO.C,U1*
X142150000Y-74050000D03*
X142150000Y-73100000D03*
X142150000Y-72150000D03*
X139450000Y-72150000D03*
X139450000Y-74050000D03*
G04 #@! TD*
D16*
G04 #@! TO.C,U3*
X116500000Y-72450000D03*
X117800000Y-72450000D03*
X119100000Y-72450000D03*
X120350000Y-72450000D03*
X121650000Y-72450000D03*
X122900000Y-72450000D03*
X124200000Y-72450000D03*
X125450000Y-72450000D03*
X127850000Y-73050000D03*
X127850000Y-74300000D03*
X127850000Y-75600000D03*
X127850000Y-76850000D03*
X127850000Y-78100000D03*
X127850000Y-79400000D03*
X127850000Y-80650000D03*
D17*
X115900000Y-70800000D03*
X117200000Y-70800000D03*
X118450000Y-70800000D03*
X119750000Y-70800000D03*
X121000000Y-70800000D03*
X122250000Y-70800000D03*
X123550000Y-70800000D03*
X124800000Y-70800000D03*
X126100000Y-70800000D03*
X127350000Y-70800000D03*
D18*
X129500000Y-72400000D03*
X129500000Y-73700000D03*
X129500000Y-74950000D03*
X129500000Y-76200000D03*
X129500000Y-77500000D03*
X129500000Y-78750000D03*
X129500000Y-80000000D03*
X129500000Y-81300000D03*
D17*
X127350000Y-82900000D03*
X126100000Y-82900000D03*
X124800000Y-82900000D03*
X123550000Y-82900000D03*
X122250000Y-82900000D03*
X121000000Y-82900000D03*
X119750000Y-82900000D03*
X118450000Y-82900000D03*
X117200000Y-82900000D03*
X115900000Y-82900000D03*
G04 #@! TD*
D19*
G04 #@! TO.C,Y1*
X135300000Y-81900000D03*
X135300000Y-87100000D03*
G04 #@! TD*
M02*
