<?xml version="1.0" standalone="no"?>
 <!DOCTYPE svg PUBLIC "-//W3C//DTD SVG 1.1//EN" 
 "http://www.w3.org/Graphics/SVG/1.1/DTD/svg11.dtd"> 
<svg
  xmlns:svg="http://www.w3.org/2000/svg"
  xmlns="http://www.w3.org/2000/svg"
  xmlns:xlink="http://www.w3.org/1999/xlink"
  version="1.1"
  width="29.700220cm" height="21.000720cm" viewBox="0 0 116930 82680">
<title>SVG Picture created as 4_Channel_Level_Shifter-B_SilkS.svg date 2020/08/25 19:22:08 </title>
  <desc>Picture generated by PCBNEW </desc>
<g style="fill:#000000; fill-opacity:1;stroke:#000000; stroke-opacity:1;
stroke-linecap:round; stroke-linejoin:round;"
 transform="translate(0 0) scale(1 1)">
</g>
<g style="fill:#000000; fill-opacity:0.0; 
stroke:#000000; stroke-width:-0.000393701; stroke-opacity:1; 
stroke-linecap:round; stroke-linejoin:round;">
</g>
<g style="fill:#000000; fill-opacity:0.0; 
stroke:#000000; stroke-width:49.2126; stroke-opacity:1; 
stroke-linecap:round; stroke-linejoin:round;">
<text x="68110.2" y="42815"
textLength="1291.81" font-size="262.467" lengthAdjust="spacingAndGlyphs"
text-anchor="middle" opacity="0">2020-06</text>
<path d="M68757 42627
L68747 42618
L68728 42608
L68682 42608
L68663 42618
L68653 42627
L68644 42646
L68644 42664
L68653 42693
L68766 42805
L68644 42805
" />
<path d="M68522 42608
L68503 42608
L68485 42618
L68475 42627
L68466 42646
L68457 42683
L68457 42730
L68466 42768
L68475 42786
L68485 42796
L68503 42805
L68522 42805
L68541 42796
L68550 42786
L68560 42768
L68569 42730
L68569 42683
L68560 42646
L68550 42627
L68541 42618
L68522 42608
" />
<path d="M68382 42627
L68372 42618
L68353 42608
L68307 42608
L68288 42618
L68278 42627
L68269 42646
L68269 42664
L68278 42693
L68391 42805
L68269 42805
" />
<path d="M68147 42608
L68128 42608
L68110 42618
L68100 42627
L68091 42646
L68082 42683
L68082 42730
L68091 42768
L68100 42786
L68110 42796
L68128 42805
L68147 42805
L68166 42796
L68175 42786
L68185 42768
L68194 42730
L68194 42683
L68185 42646
L68175 42627
L68166 42618
L68147 42608
" />
<path d="M67997 42730
L67847 42730
" />
<path d="M67716 42608
L67697 42608
L67679 42618
L67669 42627
L67660 42646
L67650 42683
L67650 42730
L67660 42768
L67669 42786
L67679 42796
L67697 42805
L67716 42805
L67735 42796
L67744 42786
L67754 42768
L67763 42730
L67763 42683
L67754 42646
L67744 42627
L67735 42618
L67716 42608
" />
<path d="M67482 42608
L67519 42608
L67538 42618
L67547 42627
L67566 42655
L67575 42693
L67575 42768
L67566 42786
L67557 42796
L67538 42805
L67500 42805
L67482 42796
L67472 42786
L67463 42768
L67463 42721
L67472 42702
L67482 42693
L67500 42683
L67538 42683
L67557 42693
L67566 42702
L67575 42721
" />
</g>
<g style="fill:#000000; fill-opacity:0.0; 
stroke:#000000; stroke-width:59.0551; stroke-opacity:1; 
stroke-linecap:round; stroke-linejoin:round;">
<text x="64960.6" y="41476.4"
textLength="4041.76" font-size="524.934" lengthAdjust="spacingAndGlyphs"
text-anchor="middle" opacity="0">BVH - AB4EN</text>
<path d="M66788 41251
L66732 41270
L66713 41288
L66694 41326
L66694 41382
L66713 41420
L66732 41438
L66769 41457
L66919 41457
L66919 41063
L66788 41063
L66751 41082
L66732 41101
L66713 41138
L66713 41176
L66732 41213
L66751 41232
L66788 41251
L66919 41251
" />
<path d="M66582 41063
L66451 41457
L66319 41063
" />
<path d="M66188 41457
L66188 41063
" />
<path d="M66188 41251
L65963 41251
" />
<path d="M65963 41457
L65963 41063
" />
<path d="M65476 41307
L65176 41307
" />
<path d="M64707 41345
L64520 41345
" />
<path d="M64745 41457
L64613 41063
L64482 41457
" />
<path d="M64220 41251
L64163 41270
L64145 41288
L64126 41326
L64126 41382
L64145 41420
L64163 41438
L64201 41457
L64351 41457
L64351 41063
L64220 41063
L64182 41082
L64163 41101
L64145 41138
L64145 41176
L64163 41213
L64182 41232
L64220 41251
L64351 41251
" />
<path d="M63788 41195
L63788 41457
" />
<path d="M63882 41045
L63976 41326
L63732 41326
" />
<path d="M63582 41251
L63451 41251
" />
<path d="M63395 41457
L63582 41457
L63582 41063
L63395 41063
" />
<path d="M63226 41457
L63226 41063
L63001 41457
L63001 41063
" />
<text x="64960.6" y="42126"
textLength="4703.88" font-size="524.934" lengthAdjust="spacingAndGlyphs"
text-anchor="middle" opacity="0">SCR Peripheral </text>
<path d="M67275 42088
L67219 42107
L67125 42107
L67088 42088
L67069 42069
L67050 42032
L67050 41994
L67069 41957
L67088 41938
L67125 41919
L67200 41901
L67238 41882
L67257 41863
L67275 41826
L67275 41788
L67257 41751
L67238 41732
L67200 41713
L67107 41713
L67050 41732
" />
<path d="M66657 42069
L66676 42088
L66732 42107
L66769 42107
L66826 42088
L66863 42050
L66882 42013
L66901 41938
L66901 41882
L66882 41807
L66863 41769
L66826 41732
L66769 41713
L66732 41713
L66676 41732
L66657 41751
" />
<path d="M66263 42107
L66394 41919
" />
<path d="M66488 42107
L66488 41713
L66338 41713
L66301 41732
L66282 41751
L66263 41788
L66263 41844
L66282 41882
L66301 41901
L66338 41919
L66488 41919
" />
<path d="M65794 42107
L65794 41713
L65644 41713
L65607 41732
L65588 41751
L65569 41788
L65569 41844
L65588 41882
L65607 41901
L65644 41919
L65794 41919
" />
<path d="M65251 42088
L65288 42107
L65363 42107
L65401 42088
L65419 42050
L65419 41901
L65401 41863
L65363 41844
L65288 41844
L65251 41863
L65232 41901
L65232 41938
L65419 41976
" />
<path d="M65063 42107
L65063 41844
" />
<path d="M65063 41919
L65044 41882
L65026 41863
L64988 41844
L64951 41844
" />
<path d="M64820 42107
L64820 41844
" />
<path d="M64820 41713
L64838 41732
L64820 41751
L64801 41732
L64820 41713
L64820 41751
" />
<path d="M64632 41844
L64632 42238
" />
<path d="M64632 41863
L64595 41844
L64520 41844
L64482 41863
L64463 41882
L64445 41919
L64445 42032
L64463 42069
L64482 42088
L64520 42107
L64595 42107
L64632 42088
" />
<path d="M64276 42107
L64276 41713
" />
<path d="M64107 42107
L64107 41901
L64126 41863
L64163 41844
L64220 41844
L64257 41863
L64276 41882
" />
<path d="M63770 42088
L63807 42107
L63882 42107
L63920 42088
L63938 42050
L63938 41901
L63920 41863
L63882 41844
L63807 41844
L63770 41863
L63751 41901
L63751 41938
L63938 41976
" />
<path d="M63582 42107
L63582 41844
" />
<path d="M63582 41919
L63563 41882
L63545 41863
L63507 41844
L63470 41844
" />
<path d="M63170 42107
L63170 41901
L63188 41863
L63226 41844
L63301 41844
L63338 41863
" />
<path d="M63170 42088
L63207 42107
L63301 42107
L63338 42088
L63357 42050
L63357 42013
L63338 41976
L63301 41957
L63207 41957
L63170 41938
" />
<path d="M62926 42107
L62964 42088
L62982 42050
L62982 41713
" />
<text x="64960.6" y="42775.6"
textLength="4347.68" font-size="524.934" lengthAdjust="spacingAndGlyphs"
text-anchor="middle" opacity="0">Voltage Supply</text>
<path d="M67135 42363
L67004 42756
L66872 42363
" />
<path d="M66685 42756
L66722 42738
L66741 42719
L66760 42681
L66760 42569
L66741 42531
L66722 42513
L66685 42494
L66629 42494
L66591 42513
L66572 42531
L66554 42569
L66554 42681
L66572 42719
L66591 42738
L66629 42756
L66685 42756
" />
<path d="M66329 42756
L66366 42738
L66385 42700
L66385 42363
" />
<path d="M66235 42494
L66085 42494
" />
<path d="M66179 42363
L66179 42700
L66160 42738
L66122 42756
L66085 42756
" />
<path d="M65785 42756
L65785 42550
L65804 42513
L65841 42494
L65916 42494
L65954 42513
" />
<path d="M65785 42738
L65823 42756
L65916 42756
L65954 42738
L65973 42700
L65973 42663
L65954 42625
L65916 42606
L65823 42606
L65785 42588
" />
<path d="M65429 42494
L65429 42813
L65448 42850
L65466 42869
L65504 42888
L65560 42888
L65598 42869
" />
<path d="M65429 42738
L65466 42756
L65541 42756
L65579 42738
L65598 42719
L65616 42681
L65616 42569
L65598 42531
L65579 42513
L65541 42494
L65466 42494
L65429 42513
" />
<path d="M65091 42738
L65129 42756
L65204 42756
L65241 42738
L65260 42700
L65260 42550
L65241 42513
L65204 42494
L65129 42494
L65091 42513
L65073 42550
L65073 42588
L65260 42625
" />
<path d="M64623 42738
L64566 42756
L64473 42756
L64435 42738
L64416 42719
L64398 42681
L64398 42644
L64416 42606
L64435 42588
L64473 42569
L64548 42550
L64585 42531
L64604 42513
L64623 42475
L64623 42438
L64604 42400
L64585 42381
L64548 42363
L64454 42363
L64398 42381
" />
<path d="M64060 42494
L64060 42756
" />
<path d="M64229 42494
L64229 42700
L64210 42738
L64173 42756
L64116 42756
L64079 42738
L64060 42719
" />
<path d="M63873 42494
L63873 42888
" />
<path d="M63873 42513
L63835 42494
L63760 42494
L63723 42513
L63704 42531
L63685 42569
L63685 42681
L63704 42719
L63723 42738
L63760 42756
L63835 42756
L63873 42738
" />
<path d="M63517 42494
L63517 42888
" />
<path d="M63517 42513
L63479 42494
L63404 42494
L63367 42513
L63348 42531
L63329 42569
L63329 42681
L63348 42719
L63367 42738
L63404 42756
L63479 42756
L63517 42738
" />
<path d="M63104 42756
L63142 42738
L63160 42700
L63160 42363
" />
<path d="M62992 42494
L62898 42756
" />
<path d="M62804 42494
L62898 42756
L62935 42850
L62954 42869
L62992 42888
" />
</g>
<g style="fill:#000000; fill-opacity:1.0; 
stroke:#000000; stroke-width:3.93701; stroke-opacity:1; 
stroke-linecap:round; stroke-linejoin:round;">
<path style="fill:#000000; fill-opacity:1.0; 
stroke:#000000; stroke-width:3.93701; stroke-opacity:1; 
stroke-linecap:round; stroke-linejoin:round;fill-rule:evenodd;"
d="M 64705.6,37175.7
64575.2,37197.8
64504.7,37219.4
64343,37315.6
64188.7,37456.6
64061.9,37621.9
64006.4,37726.6
63927.7,37908.6
63744.3,37909.3
63495.7,37936.6
63274.1,38013
63089,38133.4
62949.7,38292.8
62917.6,38348.8
62863.2,38506.7
62837.2,38694.9
62840.8,38885.6
62875.2,39051
62885,39076.4
63004.8,39278.5
63171.9,39437.3
63379,39547.7
63618.9,39604.6
63654.3,39608
63885.8,39626.4
63698.4,39865.6
63616,39972.6
63552,40059
63515.8,40112.1
63511,40122.2
63541,40134
63617.5,40144.9
63676.2,40149.6
63841.4,40159.7
63606.6,40470.7
63515.8,40593.1
63443.3,40694.7
63396.6,40764.7
63383.1,40792.2
63412.8,40777.6
63490.4,40730.8
63608.4,40656.6
63759.3,40559.9
63935.4,40445.5
64094.3,40341.1
64794.3,39879.4
64518.6,39869.6
64242.8,39859.7
64449.2,39609.7
65321.8,39609
65588.7,39608.4
65797.8,39606.8
65958.2,39603.6
66078.6,39598.2
66168,39590
66235.4,39578.3
66289.7,39562.7
66339.7,39542.4
66344.3,39540.3
66546.5,39415.9
66696.7,39252.4
66791.8,39056.1
66828.8,38833.3
66811.4,38647.1
65946,38647.1
65886.8,38721.5
65790,38840.7
65694.3,38953.6
65609.8,39049.2
65546.4,39116.1
65514.2,39143
65513.5,39143
65480,39123.2
65409.5,39070.6
65315.9,38995.6
65293.7,38977.2
65197.4,38898.7
65121.6,38840.1
65080.1,38811.7
65076.9,38810.6
65051.5,38835.1
64992.8,38903.5
64908.4,39006.5
64805.7,39135.1
64747.1,39209.7
64434.6,39609.7
64167.7,39609.7
64036.5,39608.7
63961.2,39603.9
63931,39592.3
63935.2,39571
63950.5,39551.4
64015.9,39472.1
64103.7,39361.6
64206.4,39229.9
64316.3,39087.2
64425.9,38943.2
64527.5,38808.2
64613.5,38692
64676.4,38604.8
64708.5,38556.4
64711,38550.5
64685.8,38520.1
64617.9,38460.8
64518.8,38382.3
64444.3,38326.4
64331.6,38241.6
64242.5,38171.1
64188.5,38124.2
64177.7,38110.7
64207.3,38093.2
64288,38060.3
64407.1,38016.8
64542.5,37970.7
64907.4,37850.1
65426.7,38248.6
65946,38647.1
66811.4,38647.1
66807.3,38603.4
66773.3,38485.5
66718.2,38389
66625.8,38286.1
66612.9,38273.4
66461.2,38153.4
66293.1,38079.9
66091.5,38046.6
65979.6,38043
65864.4,38035.1
65813.7,38011.3
65811,38001.4
65792.6,37926.9
65744.5,37817.5
65676.9,37691.8
65600,37568.3
65524.3,37465.3
65492.8,37430.2
65309.5,37283.9
65102.2,37197.3
64862.8,37167.1
64845.1,37167
Z" /> 
<g >
</g>
</g> 
</svg>
