<?xml version="1.0" encoding="UTF-8" standalone="no"?>
<svg
   xmlns:dc="http://purl.org/dc/elements/1.1/"
   xmlns:cc="http://creativecommons.org/ns#"
   xmlns:rdf="http://www.w3.org/1999/02/22-rdf-syntax-ns#"
   xmlns:svg="http://www.w3.org/2000/svg"
   xmlns="http://www.w3.org/2000/svg"
   xmlns:sodipodi="http://sodipodi.sourceforge.net/DTD/sodipodi-0.dtd"
   xmlns:inkscape="http://www.inkscape.org/namespaces/inkscape"
   version="1.1"
   width="4.7026424cm"
   height="3.7172039cm"
   viewBox="0 0 18514.34 14634.661"
   id="svg4173"
   sodipodi:docname="4_Channel_Level_Shifter-F_Paste.svg"
   inkscape:version="0.92.5 (2060ec1f9f, 2020-04-08)">
  <metadata
     id="metadata4179">
    <rdf:RDF>
      <cc:Work
         rdf:about="">
        <dc:format>image/svg+xml</dc:format>
        <dc:type
           rdf:resource="http://purl.org/dc/dcmitype/StillImage" />
        <dc:title>SVG Picture created as 4_Channel_Level_Shifter-F_Paste.svg date 2020/08/25 19:22:08 </dc:title>
      </cc:Work>
    </rdf:RDF>
  </metadata>
  <defs
     id="defs4177" />
  <sodipodi:namedview
     pagecolor="#ffffff"
     bordercolor="#666666"
     borderopacity="1"
     objecttolerance="10"
     gridtolerance="10"
     guidetolerance="10"
     inkscape:pageopacity="0"
     inkscape:pageshadow="2"
     inkscape:window-width="2560"
     inkscape:window-height="1376"
     id="namedview4175"
     showgrid="false"
     inkscape:zoom="4.2690391"
     inkscape:cx="-11.058013"
     inkscape:cy="46.698926"
     inkscape:window-x="0"
     inkscape:window-y="27"
     inkscape:window-maximized="1"
     inkscape:current-layer="svg4173"
     fit-margin-top="0"
     fit-margin-left="0"
     fit-margin-right="0"
     fit-margin-bottom="0" />
  <title
     id="title4039">SVG Picture created as 4_Channel_Level_Shifter-F_Paste.svg date 2020/08/25 19:22:08 </title>
  <desc
     id="desc4041">Picture generated by PCBNEW </desc>
  <g
     style="fill:#000000;fill-opacity:1;stroke:#000000;stroke-linecap:round;stroke-linejoin:round;stroke-opacity:1"
     id="g4043"
     transform="translate(-55446.842,-31691.88)" />
  <g
     style="fill:#0000ff;fill-opacity:1;stroke:#0000e0;stroke-width:-0.0003937;stroke-linecap:round;stroke-linejoin:round;stroke-opacity:1"
     id="g4171"
     transform="translate(-55614.88,-32734.319)">
    <g
       id="g4045"
       style="fill:#0000ff;fill-opacity:1;stroke:#0000e0;stroke-opacity:1" />
    <g
       id="g4047"
       style="fill:#0000ff;fill-opacity:1;stroke:#0000e0;stroke-opacity:1" />
    <g
       style="fill:#0000ff;fill-opacity:1;stroke:#0000e0;stroke-width:-0.0003937;stroke-linecap:round;stroke-linejoin:round;stroke-opacity:1"
       id="g4049" />
    <g
       style="fill:#0000ff;fill-opacity:1;stroke:#0000e0;stroke-width:0;stroke-linecap:round;stroke-linejoin:round;stroke-opacity:1"
       id="g4051" />
    <g
       style="fill:#0000ff;fill-opacity:1;stroke:#0000e0;stroke-width:0;stroke-linecap:round;stroke-linejoin:round;stroke-opacity:1"
       id="g4063">
      <path
         style="fill:#0000ff;fill-opacity:1;fill-rule:evenodd;stroke:#0000e0;stroke-width:0;stroke-linecap:round;stroke-linejoin:round;stroke-opacity:1"
         d="m 65145.7,41486.2 v -255.9 h 417.3 v 255.9 z"
         id="path4053"
         inkscape:connector-curvature="0" />
      <path
         style="fill:#0000ff;fill-opacity:1;fill-rule:evenodd;stroke:#0000e0;stroke-width:0;stroke-linecap:round;stroke-linejoin:round;stroke-opacity:1"
         d="m 65145.7,42234.3 v -256 h 417.3 v 256 z"
         id="path4055"
         inkscape:connector-curvature="0" />
      <path
         style="fill:#0000ff;fill-opacity:1;fill-rule:evenodd;stroke:#0000e0;stroke-width:0;stroke-linecap:round;stroke-linejoin:round;stroke-opacity:1"
         d="m 64279.5,42234.3 v -256 h 417.4 v 256 z"
         id="path4057"
         inkscape:connector-curvature="0" />
      <path
         style="fill:#0000ff;fill-opacity:1;fill-rule:evenodd;stroke:#0000e0;stroke-width:0;stroke-linecap:round;stroke-linejoin:round;stroke-opacity:1"
         d="m 64279.5,41860.2 v -255.9 h 417.4 v 255.9 z"
         id="path4059"
         inkscape:connector-curvature="0" />
      <path
         style="fill:#0000ff;fill-opacity:1;fill-rule:evenodd;stroke:#0000e0;stroke-width:0;stroke-linecap:round;stroke-linejoin:round;stroke-opacity:1"
         d="m 64279.5,41486.2 v -255.9 h 417.4 v 255.9 z"
         id="path4061"
         inkscape:connector-curvature="0" />
    </g>
    <g
       id="g4065"
       style="fill:#0000ff;fill-opacity:1;stroke:#0000e0;stroke-opacity:1" />
    <g
       style="fill:#0000ff;fill-opacity:1;stroke:#0000e0;stroke-width:0;stroke-linecap:round;stroke-linejoin:round;stroke-opacity:1"
       id="g4071">
      <path
         style="fill:#0000ff;fill-opacity:1;fill-rule:evenodd;stroke:#0000e0;stroke-width:0;stroke-linecap:round;stroke-linejoin:round;stroke-opacity:1"
         d="m 67039.4,37810.5 9.3,1.4 9.2,2.3 8.8,3.1 8.6,4.1 8,4.8 7.6,5.6 7,6.3 6.3,7 5.6,7.6 4.9,8.1 4,8.5 3.2,8.8 2.2,9.2 1.4,9.3 0.5,9.4 v 191.9 l -0.5,9.4 -1.4,9.4 -2.2,9.1 -3.2,8.9 -4,8.5 -4.9,8 -5.6,7.6 -6.3,7 -7,6.3 -7.6,5.6 -8,4.9 -8.6,4 -8.8,3.2 -9.2,2.3 -9.3,1.3 -9.4,0.5 h -359.2 l -9.4,-0.5 -9.4,-1.3 -9.1,-2.3 -8.9,-3.2 -8.5,-4 -8,-4.9 -7.6,-5.6 -7,-6.3 -6.3,-7 -5.6,-7.6 -4.9,-8 -4,-8.5 -3.2,-8.9 -2.3,-9.1 -1.3,-9.4 -0.5,-9.4 V 37906 l 0.5,-9.4 1.3,-9.3 2.3,-9.2 3.2,-8.8 4,-8.5 4.9,-8.1 5.6,-7.6 6.3,-7 7,-6.3 7.6,-5.6 8,-4.8 8.5,-4.1 8.9,-3.1 9.1,-2.3 9.4,-1.4 9.4,-0.5 h 359.2 z"
         id="path4067"
         inkscape:connector-curvature="0" />
      <path
         style="fill:#0000ff;fill-opacity:1;fill-rule:evenodd;stroke:#0000e0;stroke-width:0;stroke-linecap:round;stroke-linejoin:round;stroke-opacity:1"
         d="m 67039.4,38548.7 9.3,1.4 9.2,2.3 8.8,3.1 8.6,4.1 8,4.8 7.6,5.6 7,6.3 6.3,7 5.6,7.6 4.9,8.1 4,8.5 3.2,8.8 2.2,9.2 1.4,9.3 0.5,9.4 v 191.9 l -0.5,9.4 -1.4,9.3 -2.2,9.2 -3.2,8.8 -4,8.6 -4.9,8 -5.6,7.6 -6.3,7 -7,6.3 -7.6,5.6 -8,4.9 -8.6,4 -8.8,3.2 -9.2,2.2 -9.3,1.4 -9.4,0.5 h -359.2 l -9.4,-0.5 -9.4,-1.4 -9.1,-2.2 -8.9,-3.2 -8.5,-4 -8,-4.9 -7.6,-5.6 -7,-6.3 -6.3,-7 -5.6,-7.6 -4.9,-8 -4,-8.6 -3.2,-8.8 -2.3,-9.2 -1.3,-9.3 -0.5,-9.4 v -191.9 l 0.5,-9.4 1.3,-9.3 2.3,-9.2 3.2,-8.8 4,-8.5 4.9,-8.1 5.6,-7.6 6.3,-7 7,-6.3 7.6,-5.6 8,-4.8 8.5,-4.1 8.9,-3.1 9.1,-2.3 9.4,-1.4 9.4,-0.5 h 359.2 z"
         id="path4069"
         inkscape:connector-curvature="0" />
    </g>
    <g
       id="g4073"
       style="fill:#0000ff;fill-opacity:1;stroke:#0000e0;stroke-opacity:1" />
    <g
       style="fill:#0000ff;fill-opacity:1;stroke:#0000e0;stroke-width:0;stroke-linecap:round;stroke-linejoin:round;stroke-opacity:1"
       id="g4079">
      <path
         style="fill:#0000ff;fill-opacity:1;fill-rule:evenodd;stroke:#0000e0;stroke-width:0;stroke-linecap:round;stroke-linejoin:round;stroke-opacity:1"
         d="m 64480.4,37849.9 9.3,1.4 9.1,2.2 8.9,3.2 8.5,4 8.1,4.9 7.5,5.6 7,6.3 6.3,7 5.7,7.6 4.8,8 4,8.6 3.2,8.8 2.3,9.2 1.4,9.3 0.4,9.4 v 191.9 l -0.4,9.4 -1.4,9.3 -2.3,9.2 -3.2,8.8 -4,8.5 -4.8,8.1 -5.7,7.6 -6.3,7 -7,6.3 -7.5,5.6 -8.1,4.8 -8.5,4.1 -8.9,3.1 -9.1,2.3 -9.3,1.4 -9.4,0.5 h -359.3 l -9.4,-0.5 -9.3,-1.4 -9.1,-2.3 -8.9,-3.1 -8.5,-4.1 -8.1,-4.8 -7.6,-5.6 -6.9,-6.3 -6.4,-7 -5.6,-7.6 -4.8,-8.1 -4,-8.5 -3.2,-8.8 -2.3,-9.2 -1.4,-9.3 -0.5,-9.4 v -191.9 l 0.5,-9.4 1.4,-9.3 2.3,-9.2 3.2,-8.8 4,-8.6 4.8,-8 5.6,-7.6 6.4,-7 6.9,-6.3 7.6,-5.6 8.1,-4.9 8.5,-4 8.9,-3.2 9.1,-2.2 9.3,-1.4 9.4,-0.5 h 359.3 z"
         id="path4075"
         inkscape:connector-curvature="0" />
      <path
         style="fill:#0000ff;fill-opacity:1;fill-rule:evenodd;stroke:#0000e0;stroke-width:0;stroke-linecap:round;stroke-linejoin:round;stroke-opacity:1"
         d="m 64480.4,38588.1 9.3,1.3 9.1,2.3 8.9,3.2 8.5,4 8.1,4.9 7.5,5.6 7,6.3 6.3,7 5.7,7.5 4.8,8.1 4,8.5 3.2,8.9 2.3,9.1 1.4,9.4 0.4,9.4 v 191.9 l -0.4,9.4 -1.4,9.3 -2.3,9.1 -3.2,8.9 -4,8.5 -4.8,8.1 -5.7,7.6 -6.3,6.9 -7,6.4 -7.5,5.6 -8.1,4.8 -8.5,4.1 -8.9,3.1 -9.1,2.3 -9.3,1.4 -9.4,0.5 h -359.3 l -9.4,-0.5 -9.3,-1.4 -9.1,-2.3 -8.9,-3.1 -8.5,-4.1 -8.1,-4.8 -7.6,-5.6 -6.9,-6.4 -6.4,-6.9 -5.6,-7.6 -4.8,-8.1 -4,-8.5 -3.2,-8.9 -2.3,-9.1 -1.4,-9.3 -0.5,-9.4 v -191.9 l 0.5,-9.4 1.4,-9.4 2.3,-9.1 3.2,-8.9 4,-8.5 4.8,-8.1 5.6,-7.5 6.4,-7 6.9,-6.3 7.6,-5.6 8.1,-4.9 8.5,-4 8.9,-3.2 9.1,-2.3 9.3,-1.3 9.4,-0.5 h 359.3 z"
         id="path4077"
         inkscape:connector-curvature="0" />
    </g>
    <g
       id="g4081"
       style="fill:#0000ff;fill-opacity:1;stroke:#0000e0;stroke-opacity:1" />
    <g
       style="fill:#0000ff;fill-opacity:1;stroke:#0000e0;stroke-width:0;stroke-linecap:round;stroke-linejoin:round;stroke-opacity:1"
       id="g4087">
      <path
         style="fill:#0000ff;fill-opacity:1;fill-rule:evenodd;stroke:#0000e0;stroke-width:0;stroke-linecap:round;stroke-linejoin:round;stroke-opacity:1"
         d="m 67039.4,39729.8 9.3,1.4 9.2,2.3 8.8,3.1 8.6,4.1 8,4.8 7.6,5.6 7,6.3 6.3,7 5.6,7.6 4.9,8.1 4,8.5 3.2,8.8 2.2,9.2 1.4,9.3 0.5,9.4 v 191.9 l -0.5,9.4 -1.4,9.3 -2.2,9.2 -3.2,8.8 -4,8.6 -4.9,8 -5.6,7.6 -6.3,7 -7,6.3 -7.6,5.6 -8,4.9 -8.6,4 -8.8,3.2 -9.2,2.2 -9.3,1.4 -9.4,0.5 h -359.2 l -9.4,-0.5 -9.4,-1.4 -9.1,-2.2 -8.9,-3.2 -8.5,-4 -8,-4.9 -7.6,-5.6 -7,-6.3 -6.3,-7 -5.6,-7.6 -4.9,-8 -4,-8.6 -3.2,-8.8 -2.3,-9.2 -1.3,-9.3 -0.5,-9.4 v -191.9 l 0.5,-9.4 1.3,-9.3 2.3,-9.2 3.2,-8.8 4,-8.5 4.9,-8.1 5.6,-7.6 6.3,-7 7,-6.3 7.6,-5.6 8,-4.8 8.5,-4.1 8.9,-3.1 9.1,-2.3 9.4,-1.4 9.4,-0.5 h 359.2 z"
         id="path4083"
         inkscape:connector-curvature="0" />
      <path
         style="fill:#0000ff;fill-opacity:1;fill-rule:evenodd;stroke:#0000e0;stroke-width:0;stroke-linecap:round;stroke-linejoin:round;stroke-opacity:1"
         d="m 67039.4,40468 9.3,1.4 9.2,2.3 8.8,3.1 8.6,4.1 8,4.8 7.6,5.6 7,6.3 6.3,7 5.6,7.6 4.9,8 4,8.6 3.2,8.8 2.2,9.2 1.4,9.3 0.5,9.4 v 191.9 l -0.5,9.4 -1.4,9.3 -2.2,9.2 -3.2,8.8 -4,8.6 -4.9,8 -5.6,7.6 -6.3,7 -7,6.3 -7.6,5.6 -8,4.8 -8.6,4.1 -8.8,3.1 -9.2,2.3 -9.3,1.4 -9.4,0.5 h -359.2 l -9.4,-0.5 -9.4,-1.4 -9.1,-2.3 -8.9,-3.1 -8.5,-4.1 -8,-4.8 -7.6,-5.6 -7,-6.3 -6.3,-7 -5.6,-7.6 -4.9,-8 -4,-8.6 -3.2,-8.8 -2.3,-9.2 -1.3,-9.3 -0.5,-9.4 v -191.9 l 0.5,-9.4 1.3,-9.3 2.3,-9.2 3.2,-8.8 4,-8.6 4.9,-8 5.6,-7.6 6.3,-7 7,-6.3 7.6,-5.6 8,-4.8 8.5,-4.1 8.9,-3.1 9.1,-2.3 9.4,-1.4 9.4,-0.5 h 359.2 z"
         id="path4085"
         inkscape:connector-curvature="0" />
    </g>
    <g
       id="g4089"
       style="fill:#0000ff;fill-opacity:1;stroke:#0000e0;stroke-opacity:1" />
    <g
       style="fill:#0000ff;fill-opacity:1;stroke:#0000e0;stroke-width:0;stroke-linecap:round;stroke-linejoin:round;stroke-opacity:1"
       id="g4095">
      <path
         style="fill:#0000ff;fill-opacity:1;fill-rule:evenodd;stroke:#0000e0;stroke-width:0;stroke-linecap:round;stroke-linejoin:round;stroke-opacity:1"
         d="m 64480.4,39715 9.3,1.4 9.1,2.3 8.9,3.2 8.5,4 8.1,4.8 7.5,5.6 7,6.4 6.3,7 5.7,7.5 4.8,8.1 4,8.5 3.2,8.9 2.3,9.1 1.4,9.3 0.4,9.4 v 192 l -0.4,9.4 -1.4,9.3 -2.3,9.1 -3.2,8.9 -4,8.5 -4.8,8.1 -5.7,7.5 -6.3,7 -7,6.3 -7.5,5.7 -8.1,4.8 -8.5,4 -8.9,3.2 -9.1,2.3 -9.3,1.4 -9.4,0.4 h -359.3 l -9.4,-0.4 -9.3,-1.4 -9.1,-2.3 -8.9,-3.2 -8.5,-4 -8.1,-4.8 -7.6,-5.7 -6.9,-6.3 -6.4,-7 -5.6,-7.5 -4.8,-8.1 -4,-8.5 -3.2,-8.9 -2.3,-9.1 -1.4,-9.3 -0.5,-9.4 v -192 l 0.5,-9.4 1.4,-9.3 2.3,-9.1 3.2,-8.9 4,-8.5 4.8,-8.1 5.6,-7.5 6.4,-7 6.9,-6.4 7.6,-5.6 8.1,-4.8 8.5,-4 8.9,-3.2 9.1,-2.3 9.3,-1.4 9.4,-0.4 h 359.3 z"
         id="path4091"
         inkscape:connector-curvature="0" />
      <path
         style="fill:#0000ff;fill-opacity:1;fill-rule:evenodd;stroke:#0000e0;stroke-width:0;stroke-linecap:round;stroke-linejoin:round;stroke-opacity:1"
         d="m 64480.4,40453.2 9.3,1.4 9.1,2.3 8.9,3.2 8.5,4 8.1,4.8 7.5,5.6 7,6.4 6.3,6.9 5.7,7.6 4.8,8.1 4,8.5 3.2,8.9 2.3,9.1 1.4,9.3 0.4,9.4 v 191.9 l -0.4,9.5 -1.4,9.3 -2.3,9.1 -3.2,8.9 -4,8.5 -4.8,8.1 -5.7,7.5 -6.3,7 -7,6.3 -7.5,5.6 -8.1,4.9 -8.5,4 -8.9,3.2 -9.1,2.3 -9.3,1.4 -9.4,0.4 h -359.3 l -9.4,-0.4 -9.3,-1.4 -9.1,-2.3 -8.9,-3.2 -8.5,-4 -8.1,-4.9 -7.6,-5.6 -6.9,-6.3 -6.4,-7 -5.6,-7.5 -4.8,-8.1 -4,-8.5 -3.2,-8.9 -2.3,-9.1 -1.4,-9.3 -0.5,-9.5 v -191.9 l 0.5,-9.4 1.4,-9.3 2.3,-9.1 3.2,-8.9 4,-8.5 4.8,-8.1 5.6,-7.6 6.4,-6.9 6.9,-6.4 7.6,-5.6 8.1,-4.8 8.5,-4 8.9,-3.2 9.1,-2.3 9.3,-1.4 9.4,-0.4 h 359.3 z"
         id="path4093"
         inkscape:connector-curvature="0" />
    </g>
    <g
       id="g4097"
       style="fill:#0000ff;fill-opacity:1;stroke:#0000e0;stroke-opacity:1" />
    <g
       style="fill:#0000ff;fill-opacity:1;stroke:#0000e0;stroke-width:0;stroke-linecap:round;stroke-linejoin:round;stroke-opacity:1"
       id="g4105">
      <path
         style="fill:#0000ff;fill-opacity:1;fill-rule:evenodd;stroke:#0000e0;stroke-width:0;stroke-linecap:round;stroke-linejoin:round;stroke-opacity:1"
         d="m 65531.5,38189 v 314.9 h -354.3 V 38189 Z"
         id="path4099"
         inkscape:connector-curvature="0" />
      <path
         style="fill:#0000ff;fill-opacity:1;fill-rule:evenodd;stroke:#0000e0;stroke-width:0;stroke-linecap:round;stroke-linejoin:round;stroke-opacity:1"
         d="m 66318.9,37815 v 314.9 h -354.3 V 37815 Z"
         id="path4101"
         inkscape:connector-curvature="0" />
      <path
         style="fill:#0000ff;fill-opacity:1;fill-rule:evenodd;stroke:#0000e0;stroke-width:0;stroke-linecap:round;stroke-linejoin:round;stroke-opacity:1"
         d="m 66318.9,38563 v 315 h -354.3 v -315 z"
         id="path4103"
         inkscape:connector-curvature="0" />
    </g>
    <g
       id="g4107"
       style="fill:#0000ff;fill-opacity:1;stroke:#0000e0;stroke-opacity:1" />
    <g
       style="fill:#0000ff;fill-opacity:1;stroke:#0000e0;stroke-width:0;stroke-linecap:round;stroke-linejoin:round;stroke-opacity:1"
       id="g4115">
      <path
         style="fill:#0000ff;fill-opacity:1;fill-rule:evenodd;stroke:#0000e0;stroke-width:0;stroke-linecap:round;stroke-linejoin:round;stroke-opacity:1"
         d="m 62972.4,38228.3 v 315 h -354.3 v -315 z"
         id="path4109"
         inkscape:connector-curvature="0" />
      <path
         style="fill:#0000ff;fill-opacity:1;fill-rule:evenodd;stroke:#0000e0;stroke-width:0;stroke-linecap:round;stroke-linejoin:round;stroke-opacity:1"
         d="m 63759.8,37854.3 v 315 h -354.3 v -315 z"
         id="path4111"
         inkscape:connector-curvature="0" />
      <path
         style="fill:#0000ff;fill-opacity:1;fill-rule:evenodd;stroke:#0000e0;stroke-width:0;stroke-linecap:round;stroke-linejoin:round;stroke-opacity:1"
         d="m 63759.8,38602.4 v 314.9 h -354.3 v -314.9 z"
         id="path4113"
         inkscape:connector-curvature="0" />
    </g>
    <g
       id="g4117"
       style="fill:#0000ff;fill-opacity:1;stroke:#0000e0;stroke-opacity:1" />
    <g
       style="fill:#0000ff;fill-opacity:1;stroke:#0000e0;stroke-width:0;stroke-linecap:round;stroke-linejoin:round;stroke-opacity:1"
       id="g4125">
      <path
         style="fill:#0000ff;fill-opacity:1;fill-rule:evenodd;stroke:#0000e0;stroke-width:0;stroke-linecap:round;stroke-linejoin:round;stroke-opacity:1"
         d="m 65531.5,40157.5 v 314.9 h -354.3 v -314.9 z"
         id="path4119"
         inkscape:connector-curvature="0" />
      <path
         style="fill:#0000ff;fill-opacity:1;fill-rule:evenodd;stroke:#0000e0;stroke-width:0;stroke-linecap:round;stroke-linejoin:round;stroke-opacity:1"
         d="m 66318.9,39783.5 v 314.9 h -354.3 v -314.9 z"
         id="path4121"
         inkscape:connector-curvature="0" />
      <path
         style="fill:#0000ff;fill-opacity:1;fill-rule:evenodd;stroke:#0000e0;stroke-width:0;stroke-linecap:round;stroke-linejoin:round;stroke-opacity:1"
         d="m 66318.9,40531.5 v 315 h -354.3 v -315 z"
         id="path4123"
         inkscape:connector-curvature="0" />
    </g>
    <g
       id="g4127"
       style="fill:#0000ff;fill-opacity:1;stroke:#0000e0;stroke-opacity:1" />
    <g
       style="fill:#0000ff;fill-opacity:1;stroke:#0000e0;stroke-width:0;stroke-linecap:round;stroke-linejoin:round;stroke-opacity:1"
       id="g4135">
      <path
         style="fill:#0000ff;fill-opacity:1;fill-rule:evenodd;stroke:#0000e0;stroke-width:0;stroke-linecap:round;stroke-linejoin:round;stroke-opacity:1"
         d="m 62972.4,40118.1 v 315 h -354.3 v -315 z"
         id="path4129"
         inkscape:connector-curvature="0" />
      <path
         style="fill:#0000ff;fill-opacity:1;fill-rule:evenodd;stroke:#0000e0;stroke-width:0;stroke-linecap:round;stroke-linejoin:round;stroke-opacity:1"
         d="m 63759.8,39744.1 v 315 h -354.3 v -315 z"
         id="path4131"
         inkscape:connector-curvature="0" />
      <path
         style="fill:#0000ff;fill-opacity:1;fill-rule:evenodd;stroke:#0000e0;stroke-width:0;stroke-linecap:round;stroke-linejoin:round;stroke-opacity:1"
         d="m 63759.8,40492.1 v 315 h -354.3 v -315 z"
         id="path4133"
         inkscape:connector-curvature="0" />
    </g>
    <g
       id="g4137"
       style="fill:#0000ff;fill-opacity:1;stroke:#0000e0;stroke-opacity:1" />
    <g
       id="g4139"
       style="fill:#0000ff;fill-opacity:1;stroke:#0000e0;stroke-opacity:1" />
    <g
       id="g4141"
       style="fill:#0000ff;fill-opacity:1;stroke:#0000e0;stroke-opacity:1" />
    <g
       style="fill:#0000ff;fill-opacity:1;stroke:#0000e0;stroke-width:0;stroke-linecap:round;stroke-linejoin:round;stroke-opacity:1"
       id="g4147">
      <path
         style="fill:#0000ff;fill-opacity:1;fill-rule:evenodd;stroke:#0000e0;stroke-width:0;stroke-linecap:round;stroke-linejoin:round;stroke-opacity:1"
         d="m 66291.4,41909.9 9.3,1.4 9.1,2.3 8.9,3.2 8.5,4 8.1,4.8 7.6,5.6 6.9,6.4 6.4,6.9 5.6,7.6 4.8,8.1 4,8.5 3.2,8.9 2.3,9.1 1.4,9.3 0.5,9.4 v 191.9 l -0.5,9.4 -1.4,9.4 -2.3,9.1 -3.2,8.9 -4,8.5 -4.8,8.1 -5.6,7.5 -6.4,7 -6.9,6.3 -7.6,5.6 -8.1,4.9 -8.5,4 -8.9,3.2 -9.1,2.3 -9.3,1.3 -9.4,0.5 h -359.3 l -9.4,-0.5 -9.3,-1.3 -9.1,-2.3 -8.9,-3.2 -8.5,-4 -8.1,-4.9 -7.5,-5.6 -7,-6.3 -6.3,-7 -5.7,-7.5 -4.8,-8.1 -4,-8.5 -3.2,-8.9 -2.3,-9.1 -1.4,-9.4 -0.4,-9.4 v -191.9 l 0.4,-9.4 1.4,-9.3 2.3,-9.1 3.2,-8.9 4,-8.5 4.8,-8.1 5.7,-7.6 6.3,-6.9 7,-6.4 7.5,-5.6 8.1,-4.8 8.5,-4 8.9,-3.2 9.1,-2.3 9.3,-1.4 9.4,-0.5 h 359.3 z"
         id="path4143"
         inkscape:connector-curvature="0" />
      <path
         style="fill:#0000ff;fill-opacity:1;fill-rule:evenodd;stroke:#0000e0;stroke-width:0;stroke-linecap:round;stroke-linejoin:round;stroke-opacity:1"
         d="m 66291.4,41171.7 9.3,1.4 9.1,2.3 8.9,3.2 8.5,4 8.1,4.8 7.6,5.6 6.9,6.4 6.4,6.9 5.6,7.6 4.8,8.1 4,8.5 3.2,8.9 2.3,9.1 1.4,9.3 0.5,9.4 v 192 l -0.5,9.4 -1.4,9.3 -2.3,9.1 -3.2,8.9 -4,8.5 -4.8,8.1 -5.6,7.5 -6.4,7 -6.9,6.3 -7.6,5.6 -8.1,4.9 -8.5,4 -8.9,3.2 -9.1,2.3 -9.3,1.4 -9.4,0.4 h -359.3 l -9.4,-0.4 -9.3,-1.4 -9.1,-2.3 -8.9,-3.2 -8.5,-4 -8.1,-4.9 -7.5,-5.6 -7,-6.3 -6.3,-7 -5.7,-7.5 -4.8,-8.1 -4,-8.5 -3.2,-8.9 -2.3,-9.1 -1.4,-9.3 -0.4,-9.4 v -192 l 0.4,-9.4 1.4,-9.3 2.3,-9.1 3.2,-8.9 4,-8.5 4.8,-8.1 5.7,-7.6 6.3,-6.9 7,-6.4 7.5,-5.6 8.1,-4.8 8.5,-4 8.9,-3.2 9.1,-2.3 9.3,-1.4 9.4,-0.4 h 359.3 z"
         id="path4145"
         inkscape:connector-curvature="0" />
    </g>
    <g
       id="g4149"
       style="fill:#0000ff;fill-opacity:1;stroke:#0000e0;stroke-opacity:1" />
    <g
       style="fill:#0000ff;fill-opacity:1;stroke:#0000e0;stroke-width:0;stroke-linecap:round;stroke-linejoin:round;stroke-opacity:1"
       id="g4155">
      <path
         style="fill:#0000ff;fill-opacity:1;fill-rule:evenodd;stroke:#0000e0;stroke-width:0;stroke-linecap:round;stroke-linejoin:round;stroke-opacity:1"
         d="m 63929.2,41895.1 9.3,1.4 9.1,2.3 8.9,3.2 8.5,4 8.1,4.9 7.6,5.6 6.9,6.3 6.4,7 5.6,7.5 4.8,8.1 4,8.5 3.2,8.9 2.3,9.1 1.4,9.3 0.4,9.4 v 192 l -0.4,9.4 -1.4,9.3 -2.3,9.1 -3.2,8.9 -4,8.5 -4.8,8.1 -5.6,7.6 -6.4,6.9 -6.9,6.4 -7.6,5.6 -8.1,4.8 -8.5,4 -8.9,3.2 -9.1,2.3 -9.3,1.4 -9.4,0.4 h -359.3 l -9.4,-0.4 -9.3,-1.4 -9.1,-2.3 -8.9,-3.2 -8.5,-4 -8.1,-4.8 -7.5,-5.6 -7,-6.4 -6.4,-6.9 -5.6,-7.6 -4.8,-8.1 -4,-8.5 -3.2,-8.9 -2.3,-9.1 -1.4,-9.3 -0.4,-9.4 v -192 l 0.4,-9.4 1.4,-9.3 2.3,-9.1 3.2,-8.9 4,-8.5 4.8,-8.1 5.6,-7.5 6.4,-7 7,-6.3 7.5,-5.6 8.1,-4.9 8.5,-4 8.9,-3.2 9.1,-2.3 9.3,-1.4 9.4,-0.4 h 359.3 z"
         id="path4151"
         inkscape:connector-curvature="0" />
      <path
         style="fill:#0000ff;fill-opacity:1;fill-rule:evenodd;stroke:#0000e0;stroke-width:0;stroke-linecap:round;stroke-linejoin:round;stroke-opacity:1"
         d="m 63929.2,41157 9.3,1.3 9.1,2.3 8.9,3.2 8.5,4 8.1,4.9 7.6,5.6 6.9,6.3 6.4,7 5.6,7.5 4.8,8.1 4,8.5 3.2,8.9 2.3,9.1 1.4,9.4 0.4,9.4 v 191.9 l -0.4,9.4 -1.4,9.3 -2.3,9.1 -3.2,8.9 -4,8.5 -4.8,8.1 -5.6,7.6 -6.4,6.9 -6.9,6.4 -7.6,5.6 -8.1,4.8 -8.5,4 -8.9,3.2 -9.1,2.3 -9.3,1.4 -9.4,0.5 h -359.3 l -9.4,-0.5 -9.3,-1.4 -9.1,-2.3 -8.9,-3.2 -8.5,-4 -8.1,-4.8 -7.5,-5.6 -7,-6.4 -6.4,-6.9 -5.6,-7.6 -4.8,-8.1 -4,-8.5 -3.2,-8.9 -2.3,-9.1 -1.4,-9.3 -0.4,-9.4 v -191.9 l 0.4,-9.4 1.4,-9.4 2.3,-9.1 3.2,-8.9 4,-8.5 4.8,-8.1 5.6,-7.5 6.4,-7 7,-6.3 7.5,-5.6 8.1,-4.9 8.5,-4 8.9,-3.2 9.1,-2.3 9.3,-1.3 9.4,-0.5 h 359.3 z"
         id="path4153"
         inkscape:connector-curvature="0" />
    </g>
    <g
       id="g4157"
       style="fill:#0000ff;fill-opacity:1;stroke:#0000e0;stroke-opacity:1" />
    <g
       style="fill:#0000ff;fill-opacity:1;stroke:#0000e0;stroke-width:0;stroke-linecap:round;stroke-linejoin:round;stroke-opacity:1"
       id="g4163">
      <path
         style="fill:#0000ff;fill-opacity:1;fill-rule:evenodd;stroke:#0000e0;stroke-width:0;stroke-linecap:round;stroke-linejoin:round;stroke-opacity:1"
         d="m 63141.8,41895.1 9.3,1.4 9.1,2.3 8.9,3.2 8.5,4 8.1,4.9 7.6,5.6 6.9,6.3 6.4,7 5.6,7.5 4.8,8.1 4,8.5 3.2,8.9 2.3,9.1 1.4,9.3 0.4,9.4 v 192 l -0.4,9.4 -1.4,9.3 -2.3,9.1 -3.2,8.9 -4,8.5 -4.8,8.1 -5.6,7.6 -6.4,6.9 -6.9,6.4 -7.6,5.6 -8.1,4.8 -8.5,4 -8.9,3.2 -9.1,2.3 -9.3,1.4 -9.4,0.4 h -359.3 l -9.4,-0.4 -9.3,-1.4 -9.1,-2.3 -8.9,-3.2 -8.5,-4 -8.1,-4.8 -7.5,-5.6 -7,-6.4 -6.4,-6.9 -5.6,-7.6 -4.8,-8.1 -4,-8.5 -3.2,-8.9 -2.3,-9.1 -1.4,-9.3 -0.4,-9.4 v -192 l 0.4,-9.4 1.4,-9.3 2.3,-9.1 3.2,-8.9 4,-8.5 4.8,-8.1 5.6,-7.5 6.4,-7 7,-6.3 7.5,-5.6 8.1,-4.9 8.5,-4 8.9,-3.2 9.1,-2.3 9.3,-1.4 9.4,-0.4 h 359.3 z"
         id="path4159"
         inkscape:connector-curvature="0" />
      <path
         style="fill:#0000ff;fill-opacity:1;fill-rule:evenodd;stroke:#0000e0;stroke-width:0;stroke-linecap:round;stroke-linejoin:round;stroke-opacity:1"
         d="m 63141.8,41157 9.3,1.3 9.1,2.3 8.9,3.2 8.5,4 8.1,4.9 7.6,5.6 6.9,6.3 6.4,7 5.6,7.5 4.8,8.1 4,8.5 3.2,8.9 2.3,9.1 1.4,9.4 0.4,9.4 v 191.9 l -0.4,9.4 -1.4,9.3 -2.3,9.1 -3.2,8.9 -4,8.5 -4.8,8.1 -5.6,7.6 -6.4,6.9 -6.9,6.4 -7.6,5.6 -8.1,4.8 -8.5,4 -8.9,3.2 -9.1,2.3 -9.3,1.4 -9.4,0.5 h -359.3 l -9.4,-0.5 -9.3,-1.4 -9.1,-2.3 -8.9,-3.2 -8.5,-4 -8.1,-4.8 -7.5,-5.6 -7,-6.4 -6.4,-6.9 -5.6,-7.6 -4.8,-8.1 -4,-8.5 -3.2,-8.9 -2.3,-9.1 -1.4,-9.3 -0.4,-9.4 v -191.9 l 0.4,-9.4 1.4,-9.4 2.3,-9.1 3.2,-8.9 4,-8.5 4.8,-8.1 5.6,-7.5 6.4,-7 7,-6.3 7.5,-5.6 8.1,-4.9 8.5,-4 8.9,-3.2 9.1,-2.3 9.3,-1.3 9.4,-0.5 h 359.3 z"
         id="path4161"
         inkscape:connector-curvature="0" />
    </g>
    <g
       id="g4165"
       style="fill:#0000ff;fill-opacity:1;stroke:#0000e0;stroke-opacity:1" />
    <g
       id="g4167"
       style="fill:#0000ff;fill-opacity:1;stroke:#0000e0;stroke-opacity:1" />
    <g
       id="g4169"
       style="fill:#0000ff;fill-opacity:1;stroke:#0000e0;stroke-opacity:1" />
  </g>
  <rect
     id="rect4181"
     width="18410.174"
     height="14530.495"
     x="52.083336"
     y="52.083336"
     style="fill:none;stroke:#ff0000;stroke-width:104.16667175;stroke-opacity:1" />
</svg>
