%TF.GenerationSoftware,KiCad,Pcbnew,5.1.6-c6e7f7d~87~ubuntu20.04.1*%
%TF.CreationDate,2020-08-25T19:21:37-04:00*%
%TF.ProjectId,4_Channel_Level_Shifter,345f4368-616e-46e6-956c-5f4c6576656c,rev?*%
%TF.SameCoordinates,Original*%
%TF.FileFunction,Legend,Top*%
%TF.FilePolarity,Positive*%
%FSLAX46Y46*%
G04 Gerber Fmt 4.6, Leading zero omitted, Abs format (unit mm)*
G04 Created by KiCad (PCBNEW 5.1.6-c6e7f7d~87~ubuntu20.04.1) date 2020-08-25 19:21:37*
%MOMM*%
%LPD*%
G01*
G04 APERTURE LIST*
%ADD10C,0.250000*%
%ADD11C,0.120000*%
%ADD12C,0.150000*%
G04 APERTURE END LIST*
D10*
X168714285Y-109152380D02*
X168238095Y-109152380D01*
X168238095Y-108152380D01*
X169238095Y-108152380D02*
X169428571Y-108152380D01*
X169523809Y-108200000D01*
X169619047Y-108295238D01*
X169666666Y-108485714D01*
X169666666Y-108819047D01*
X169619047Y-109009523D01*
X169523809Y-109104761D01*
X169428571Y-109152380D01*
X169238095Y-109152380D01*
X169142857Y-109104761D01*
X169047619Y-109009523D01*
X169000000Y-108819047D01*
X169000000Y-108485714D01*
X169047619Y-108295238D01*
X169142857Y-108200000D01*
X169238095Y-108152380D01*
X170000000Y-108152380D02*
X170238095Y-109152380D01*
X170428571Y-108438095D01*
X170619047Y-109152380D01*
X170857142Y-108152380D01*
D11*
%TO.C,U1*%
X165800000Y-104390000D02*
X163350000Y-104390000D01*
X164000000Y-107610000D02*
X165800000Y-107610000D01*
%TO.C,R4*%
X170510000Y-97721078D02*
X170510000Y-97203922D01*
X169090000Y-97721078D02*
X169090000Y-97203922D01*
%TO.C,R3*%
X164010000Y-97821078D02*
X164010000Y-97303922D01*
X162590000Y-97821078D02*
X162590000Y-97303922D01*
%TO.C,R2*%
X170510000Y-102596078D02*
X170510000Y-102078922D01*
X169090000Y-102596078D02*
X169090000Y-102078922D01*
%TO.C,R1*%
X164010000Y-102558578D02*
X164010000Y-102041422D01*
X162590000Y-102558578D02*
X162590000Y-102041422D01*
%TO.C,Q4*%
X166240000Y-95820000D02*
X167700000Y-95820000D01*
X166240000Y-98980000D02*
X168400000Y-98980000D01*
X166240000Y-98980000D02*
X166240000Y-98050000D01*
X166240000Y-95820000D02*
X166240000Y-96750000D01*
%TO.C,Q3*%
X159740000Y-95920000D02*
X161200000Y-95920000D01*
X159740000Y-99080000D02*
X161900000Y-99080000D01*
X159740000Y-99080000D02*
X159740000Y-98150000D01*
X159740000Y-95920000D02*
X159740000Y-96850000D01*
%TO.C,Q2*%
X166240000Y-100820000D02*
X167700000Y-100820000D01*
X166240000Y-103980000D02*
X168400000Y-103980000D01*
X166240000Y-103980000D02*
X166240000Y-103050000D01*
X166240000Y-100820000D02*
X166240000Y-101750000D01*
%TO.C,Q1*%
X159740000Y-100720000D02*
X161200000Y-100720000D01*
X159740000Y-103880000D02*
X161900000Y-103880000D01*
X159740000Y-103880000D02*
X159740000Y-102950000D01*
X159740000Y-100720000D02*
X159740000Y-101650000D01*
%TO.C,J2*%
X171090000Y-108760000D02*
X172340000Y-108760000D01*
X171090000Y-107510000D02*
X171090000Y-108760000D01*
X175500000Y-97400000D02*
X175000000Y-97400000D01*
X175000000Y-97300000D02*
X175500000Y-97300000D01*
X175000000Y-97500000D02*
X175000000Y-97300000D01*
X175500000Y-97500000D02*
X175000000Y-97500000D01*
X175500000Y-99400000D02*
X175000000Y-99400000D01*
X175000000Y-99300000D02*
X175500000Y-99300000D01*
X175000000Y-99500000D02*
X175000000Y-99300000D01*
X175500000Y-99500000D02*
X175000000Y-99500000D01*
X175500000Y-101400000D02*
X175000000Y-101400000D01*
X175000000Y-101300000D02*
X175500000Y-101300000D01*
X175000000Y-101500000D02*
X175000000Y-101300000D01*
X175500000Y-101500000D02*
X175000000Y-101500000D01*
X175500000Y-103400000D02*
X175000000Y-103400000D01*
X175000000Y-103300000D02*
X175500000Y-103300000D01*
X175000000Y-103500000D02*
X175000000Y-103300000D01*
X175500000Y-103500000D02*
X175000000Y-103500000D01*
X175500000Y-105400000D02*
X175000000Y-105400000D01*
X175000000Y-105300000D02*
X175500000Y-105300000D01*
X175000000Y-105500000D02*
X175000000Y-105300000D01*
X175500000Y-105500000D02*
X175000000Y-105500000D01*
X174000000Y-94340000D02*
X174000000Y-94950000D01*
X172700000Y-94340000D02*
X172700000Y-94950000D01*
X174000000Y-108460000D02*
X174000000Y-107850000D01*
X172700000Y-108460000D02*
X172700000Y-107850000D01*
X172000000Y-96900000D02*
X171390000Y-96900000D01*
X172000000Y-94950000D02*
X172000000Y-96900000D01*
X175500000Y-94950000D02*
X172000000Y-94950000D01*
X175500000Y-107850000D02*
X175500000Y-94950000D01*
X172000000Y-107850000D02*
X175500000Y-107850000D01*
X172000000Y-105900000D02*
X172000000Y-107850000D01*
X171390000Y-105900000D02*
X172000000Y-105900000D01*
X171290000Y-106700000D02*
X171290000Y-107000000D01*
X171190000Y-107000000D02*
X171390000Y-107000000D01*
X171190000Y-106700000D02*
X171190000Y-107000000D01*
X171390000Y-106700000D02*
X171190000Y-106700000D01*
X171390000Y-94340000D02*
X171390000Y-108460000D01*
X176110000Y-94340000D02*
X171390000Y-94340000D01*
X176110000Y-108460000D02*
X176110000Y-94340000D01*
X171390000Y-108460000D02*
X176110000Y-108460000D01*
%TO.C,J1*%
X153090000Y-108760000D02*
X154340000Y-108760000D01*
X153090000Y-107510000D02*
X153090000Y-108760000D01*
X157500000Y-97400000D02*
X157000000Y-97400000D01*
X157000000Y-97300000D02*
X157500000Y-97300000D01*
X157000000Y-97500000D02*
X157000000Y-97300000D01*
X157500000Y-97500000D02*
X157000000Y-97500000D01*
X157500000Y-99400000D02*
X157000000Y-99400000D01*
X157000000Y-99300000D02*
X157500000Y-99300000D01*
X157000000Y-99500000D02*
X157000000Y-99300000D01*
X157500000Y-99500000D02*
X157000000Y-99500000D01*
X157500000Y-101400000D02*
X157000000Y-101400000D01*
X157000000Y-101300000D02*
X157500000Y-101300000D01*
X157000000Y-101500000D02*
X157000000Y-101300000D01*
X157500000Y-101500000D02*
X157000000Y-101500000D01*
X157500000Y-103400000D02*
X157000000Y-103400000D01*
X157000000Y-103300000D02*
X157500000Y-103300000D01*
X157000000Y-103500000D02*
X157000000Y-103300000D01*
X157500000Y-103500000D02*
X157000000Y-103500000D01*
X157500000Y-105400000D02*
X157000000Y-105400000D01*
X157000000Y-105300000D02*
X157500000Y-105300000D01*
X157000000Y-105500000D02*
X157000000Y-105300000D01*
X157500000Y-105500000D02*
X157000000Y-105500000D01*
X156000000Y-94340000D02*
X156000000Y-94950000D01*
X154700000Y-94340000D02*
X154700000Y-94950000D01*
X156000000Y-108460000D02*
X156000000Y-107850000D01*
X154700000Y-108460000D02*
X154700000Y-107850000D01*
X154000000Y-96900000D02*
X153390000Y-96900000D01*
X154000000Y-94950000D02*
X154000000Y-96900000D01*
X157500000Y-94950000D02*
X154000000Y-94950000D01*
X157500000Y-107850000D02*
X157500000Y-94950000D01*
X154000000Y-107850000D02*
X157500000Y-107850000D01*
X154000000Y-105900000D02*
X154000000Y-107850000D01*
X153390000Y-105900000D02*
X154000000Y-105900000D01*
X153290000Y-106700000D02*
X153290000Y-107000000D01*
X153190000Y-107000000D02*
X153390000Y-107000000D01*
X153190000Y-106700000D02*
X153190000Y-107000000D01*
X153390000Y-106700000D02*
X153190000Y-106700000D01*
X153390000Y-94340000D02*
X153390000Y-108460000D01*
X158110000Y-94340000D02*
X153390000Y-94340000D01*
X158110000Y-108460000D02*
X158110000Y-94340000D01*
X153390000Y-108460000D02*
X158110000Y-108460000D01*
%TO.C,C3*%
X167190000Y-105741422D02*
X167190000Y-106258578D01*
X168610000Y-105741422D02*
X168610000Y-106258578D01*
%TO.C,C2*%
X161190000Y-105703922D02*
X161190000Y-106221078D01*
X162610000Y-105703922D02*
X162610000Y-106221078D01*
%TO.C,C1*%
X159190000Y-105703922D02*
X159190000Y-106221078D01*
X160610000Y-105703922D02*
X160610000Y-106221078D01*
%TO.C,U1*%
D12*
X164138095Y-107952380D02*
X164138095Y-108761904D01*
X164185714Y-108857142D01*
X164233333Y-108904761D01*
X164328571Y-108952380D01*
X164519047Y-108952380D01*
X164614285Y-108904761D01*
X164661904Y-108857142D01*
X164709523Y-108761904D01*
X164709523Y-107952380D01*
X165709523Y-108952380D02*
X165138095Y-108952380D01*
X165423809Y-108952380D02*
X165423809Y-107952380D01*
X165328571Y-108095238D01*
X165233333Y-108190476D01*
X165138095Y-108238095D01*
%TO.C,R4*%
X168333333Y-95452380D02*
X168000000Y-94976190D01*
X167761904Y-95452380D02*
X167761904Y-94452380D01*
X168142857Y-94452380D01*
X168238095Y-94500000D01*
X168285714Y-94547619D01*
X168333333Y-94642857D01*
X168333333Y-94785714D01*
X168285714Y-94880952D01*
X168238095Y-94928571D01*
X168142857Y-94976190D01*
X167761904Y-94976190D01*
X169190476Y-94785714D02*
X169190476Y-95452380D01*
X168952380Y-94404761D02*
X168714285Y-95119047D01*
X169333333Y-95119047D01*
%TO.C,R3*%
X163133333Y-95652380D02*
X162800000Y-95176190D01*
X162561904Y-95652380D02*
X162561904Y-94652380D01*
X162942857Y-94652380D01*
X163038095Y-94700000D01*
X163085714Y-94747619D01*
X163133333Y-94842857D01*
X163133333Y-94985714D01*
X163085714Y-95080952D01*
X163038095Y-95128571D01*
X162942857Y-95176190D01*
X162561904Y-95176190D01*
X163466666Y-94652380D02*
X164085714Y-94652380D01*
X163752380Y-95033333D01*
X163895238Y-95033333D01*
X163990476Y-95080952D01*
X164038095Y-95128571D01*
X164085714Y-95223809D01*
X164085714Y-95461904D01*
X164038095Y-95557142D01*
X163990476Y-95604761D01*
X163895238Y-95652380D01*
X163609523Y-95652380D01*
X163514285Y-95604761D01*
X163466666Y-95557142D01*
%TO.C,R2*%
X169633333Y-100452380D02*
X169300000Y-99976190D01*
X169061904Y-100452380D02*
X169061904Y-99452380D01*
X169442857Y-99452380D01*
X169538095Y-99500000D01*
X169585714Y-99547619D01*
X169633333Y-99642857D01*
X169633333Y-99785714D01*
X169585714Y-99880952D01*
X169538095Y-99928571D01*
X169442857Y-99976190D01*
X169061904Y-99976190D01*
X170014285Y-99547619D02*
X170061904Y-99500000D01*
X170157142Y-99452380D01*
X170395238Y-99452380D01*
X170490476Y-99500000D01*
X170538095Y-99547619D01*
X170585714Y-99642857D01*
X170585714Y-99738095D01*
X170538095Y-99880952D01*
X169966666Y-100452380D01*
X170585714Y-100452380D01*
%TO.C,R1*%
X163033333Y-100452380D02*
X162700000Y-99976190D01*
X162461904Y-100452380D02*
X162461904Y-99452380D01*
X162842857Y-99452380D01*
X162938095Y-99500000D01*
X162985714Y-99547619D01*
X163033333Y-99642857D01*
X163033333Y-99785714D01*
X162985714Y-99880952D01*
X162938095Y-99928571D01*
X162842857Y-99976190D01*
X162461904Y-99976190D01*
X163985714Y-100452380D02*
X163414285Y-100452380D01*
X163700000Y-100452380D02*
X163700000Y-99452380D01*
X163604761Y-99595238D01*
X163509523Y-99690476D01*
X163414285Y-99738095D01*
%TO.C,Q4*%
X165904761Y-95547619D02*
X165809523Y-95500000D01*
X165714285Y-95404761D01*
X165571428Y-95261904D01*
X165476190Y-95214285D01*
X165380952Y-95214285D01*
X165428571Y-95452380D02*
X165333333Y-95404761D01*
X165238095Y-95309523D01*
X165190476Y-95119047D01*
X165190476Y-94785714D01*
X165238095Y-94595238D01*
X165333333Y-94500000D01*
X165428571Y-94452380D01*
X165619047Y-94452380D01*
X165714285Y-94500000D01*
X165809523Y-94595238D01*
X165857142Y-94785714D01*
X165857142Y-95119047D01*
X165809523Y-95309523D01*
X165714285Y-95404761D01*
X165619047Y-95452380D01*
X165428571Y-95452380D01*
X166714285Y-94785714D02*
X166714285Y-95452380D01*
X166476190Y-94404761D02*
X166238095Y-95119047D01*
X166857142Y-95119047D01*
%TO.C,Q3*%
X160804761Y-95547619D02*
X160709523Y-95500000D01*
X160614285Y-95404761D01*
X160471428Y-95261904D01*
X160376190Y-95214285D01*
X160280952Y-95214285D01*
X160328571Y-95452380D02*
X160233333Y-95404761D01*
X160138095Y-95309523D01*
X160090476Y-95119047D01*
X160090476Y-94785714D01*
X160138095Y-94595238D01*
X160233333Y-94500000D01*
X160328571Y-94452380D01*
X160519047Y-94452380D01*
X160614285Y-94500000D01*
X160709523Y-94595238D01*
X160757142Y-94785714D01*
X160757142Y-95119047D01*
X160709523Y-95309523D01*
X160614285Y-95404761D01*
X160519047Y-95452380D01*
X160328571Y-95452380D01*
X161090476Y-94452380D02*
X161709523Y-94452380D01*
X161376190Y-94833333D01*
X161519047Y-94833333D01*
X161614285Y-94880952D01*
X161661904Y-94928571D01*
X161709523Y-95023809D01*
X161709523Y-95261904D01*
X161661904Y-95357142D01*
X161614285Y-95404761D01*
X161519047Y-95452380D01*
X161233333Y-95452380D01*
X161138095Y-95404761D01*
X161090476Y-95357142D01*
%TO.C,Q2*%
X167004761Y-100447619D02*
X166909523Y-100400000D01*
X166814285Y-100304761D01*
X166671428Y-100161904D01*
X166576190Y-100114285D01*
X166480952Y-100114285D01*
X166528571Y-100352380D02*
X166433333Y-100304761D01*
X166338095Y-100209523D01*
X166290476Y-100019047D01*
X166290476Y-99685714D01*
X166338095Y-99495238D01*
X166433333Y-99400000D01*
X166528571Y-99352380D01*
X166719047Y-99352380D01*
X166814285Y-99400000D01*
X166909523Y-99495238D01*
X166957142Y-99685714D01*
X166957142Y-100019047D01*
X166909523Y-100209523D01*
X166814285Y-100304761D01*
X166719047Y-100352380D01*
X166528571Y-100352380D01*
X167338095Y-99447619D02*
X167385714Y-99400000D01*
X167480952Y-99352380D01*
X167719047Y-99352380D01*
X167814285Y-99400000D01*
X167861904Y-99447619D01*
X167909523Y-99542857D01*
X167909523Y-99638095D01*
X167861904Y-99780952D01*
X167290476Y-100352380D01*
X167909523Y-100352380D01*
%TO.C,Q1*%
X160604761Y-100447619D02*
X160509523Y-100400000D01*
X160414285Y-100304761D01*
X160271428Y-100161904D01*
X160176190Y-100114285D01*
X160080952Y-100114285D01*
X160128571Y-100352380D02*
X160033333Y-100304761D01*
X159938095Y-100209523D01*
X159890476Y-100019047D01*
X159890476Y-99685714D01*
X159938095Y-99495238D01*
X160033333Y-99400000D01*
X160128571Y-99352380D01*
X160319047Y-99352380D01*
X160414285Y-99400000D01*
X160509523Y-99495238D01*
X160557142Y-99685714D01*
X160557142Y-100019047D01*
X160509523Y-100209523D01*
X160414285Y-100304761D01*
X160319047Y-100352380D01*
X160128571Y-100352380D01*
X161509523Y-100352380D02*
X160938095Y-100352380D01*
X161223809Y-100352380D02*
X161223809Y-99352380D01*
X161128571Y-99495238D01*
X161033333Y-99590476D01*
X160938095Y-99638095D01*
%TO.C,J2*%
X170166666Y-93952380D02*
X170166666Y-94666666D01*
X170119047Y-94809523D01*
X170023809Y-94904761D01*
X169880952Y-94952380D01*
X169785714Y-94952380D01*
X170595238Y-94047619D02*
X170642857Y-94000000D01*
X170738095Y-93952380D01*
X170976190Y-93952380D01*
X171071428Y-94000000D01*
X171119047Y-94047619D01*
X171166666Y-94142857D01*
X171166666Y-94238095D01*
X171119047Y-94380952D01*
X170547619Y-94952380D01*
X171166666Y-94952380D01*
%TO.C,J1*%
X158666666Y-94452380D02*
X158666666Y-95166666D01*
X158619047Y-95309523D01*
X158523809Y-95404761D01*
X158380952Y-95452380D01*
X158285714Y-95452380D01*
X159666666Y-95452380D02*
X159095238Y-95452380D01*
X159380952Y-95452380D02*
X159380952Y-94452380D01*
X159285714Y-94595238D01*
X159190476Y-94690476D01*
X159095238Y-94738095D01*
%TO.C,C3*%
X169907142Y-106166666D02*
X169954761Y-106214285D01*
X170002380Y-106357142D01*
X170002380Y-106452380D01*
X169954761Y-106595238D01*
X169859523Y-106690476D01*
X169764285Y-106738095D01*
X169573809Y-106785714D01*
X169430952Y-106785714D01*
X169240476Y-106738095D01*
X169145238Y-106690476D01*
X169050000Y-106595238D01*
X169002380Y-106452380D01*
X169002380Y-106357142D01*
X169050000Y-106214285D01*
X169097619Y-106166666D01*
X169002380Y-105833333D02*
X169002380Y-105214285D01*
X169383333Y-105547619D01*
X169383333Y-105404761D01*
X169430952Y-105309523D01*
X169478571Y-105261904D01*
X169573809Y-105214285D01*
X169811904Y-105214285D01*
X169907142Y-105261904D01*
X169954761Y-105309523D01*
X170002380Y-105404761D01*
X170002380Y-105690476D01*
X169954761Y-105785714D01*
X169907142Y-105833333D01*
%TO.C,C2*%
X161633333Y-108657142D02*
X161585714Y-108704761D01*
X161442857Y-108752380D01*
X161347619Y-108752380D01*
X161204761Y-108704761D01*
X161109523Y-108609523D01*
X161061904Y-108514285D01*
X161014285Y-108323809D01*
X161014285Y-108180952D01*
X161061904Y-107990476D01*
X161109523Y-107895238D01*
X161204761Y-107800000D01*
X161347619Y-107752380D01*
X161442857Y-107752380D01*
X161585714Y-107800000D01*
X161633333Y-107847619D01*
X162014285Y-107847619D02*
X162061904Y-107800000D01*
X162157142Y-107752380D01*
X162395238Y-107752380D01*
X162490476Y-107800000D01*
X162538095Y-107847619D01*
X162585714Y-107942857D01*
X162585714Y-108038095D01*
X162538095Y-108180952D01*
X161966666Y-108752380D01*
X162585714Y-108752380D01*
%TO.C,C1*%
X159833333Y-108657142D02*
X159785714Y-108704761D01*
X159642857Y-108752380D01*
X159547619Y-108752380D01*
X159404761Y-108704761D01*
X159309523Y-108609523D01*
X159261904Y-108514285D01*
X159214285Y-108323809D01*
X159214285Y-108180952D01*
X159261904Y-107990476D01*
X159309523Y-107895238D01*
X159404761Y-107800000D01*
X159547619Y-107752380D01*
X159642857Y-107752380D01*
X159785714Y-107800000D01*
X159833333Y-107847619D01*
X160785714Y-108752380D02*
X160214285Y-108752380D01*
X160500000Y-108752380D02*
X160500000Y-107752380D01*
X160404761Y-107895238D01*
X160309523Y-107990476D01*
X160214285Y-108038095D01*
%TD*%
M02*
