<?xml version="1.0" standalone="no"?>
 <!DOCTYPE svg PUBLIC "-//W3C//DTD SVG 1.1//EN" 
 "http://www.w3.org/Graphics/SVG/1.1/DTD/svg11.dtd"> 
<svg
  xmlns:svg="http://www.w3.org/2000/svg"
  xmlns="http://www.w3.org/2000/svg"
  xmlns:xlink="http://www.w3.org/1999/xlink"
  version="1.1"
  width="29.700220cm" height="21.000720cm" viewBox="0 0 116930 82680">
<title>SVG Picture created as 4_Channel_Level_Shifter-F_SilkS.svg date 2020/08/25 19:22:08 </title>
  <desc>Picture generated by PCBNEW </desc>
<g style="fill:#000000; fill-opacity:1;stroke:#000000; stroke-opacity:1;
stroke-linecap:round; stroke-linejoin:round;"
 transform="translate(0 0) scale(1 1)">
</g>
<g style="fill:#000000; fill-opacity:0.0; 
stroke:#000000; stroke-width:-0.000393701; stroke-opacity:1; 
stroke-linecap:round; stroke-linejoin:round;">
</g>
<g style="fill:#000000; fill-opacity:0.0; 
stroke:#000000; stroke-width:98.4252; stroke-opacity:1; 
stroke-linecap:round; stroke-linejoin:round;">
<text x="66732.3" y="42992.1"
textLength="1257.87" font-size="524.934" lengthAdjust="spacingAndGlyphs"
text-anchor="middle" opacity="0">LOW</text>
<path d="M66422 42973
L66235 42973
L66235 42579
" />
<path d="M66629 42579
L66704 42579
L66741 42598
L66779 42635
L66797 42710
L66797 42842
L66779 42917
L66741 42954
L66704 42973
L66629 42973
L66591 42954
L66554 42917
L66535 42842
L66535 42710
L66554 42635
L66591 42598
L66629 42579
" />
<path d="M66929 42579
L67022 42973
L67097 42692
L67172 42973
L67266 42579
" />
</g>
<g style="fill:#000000; fill-opacity:0.0; 
stroke:#000000; stroke-width:47.2441; stroke-opacity:1; 
stroke-linecap:round; stroke-linejoin:round;">
<path d="M65275 41098
L64311 41098
" />
<path d="M64566 42366
L65275 42366
" />
<path d="M67129 38472
L67129 38269
" />
<path d="M66570 38472
L66570 38269
" />
<path d="M64570 38512
L64570 38308
" />
<path d="M64011 38512
L64011 38308
" />
<path d="M67129 40392
L67129 40188
" />
<path d="M66570 40392
L66570 40188
" />
<path d="M64570 40377
L64570 40173
" />
<path d="M64011 40377
L64011 40173
" />
<path d="M65448 37724
L66023 37724
" />
<path d="M65448 38968
L66299 38968
" />
<path d="M65448 38968
L65448 38602
" />
<path d="M65448 37724
L65448 38090
" />
<path d="M62889 37763
L63464 37763
" />
<path d="M62889 39007
L63740 39007
" />
<path d="M62889 39007
L62889 38641
" />
<path d="M62889 37763
L62889 38129
" />
<path d="M65448 39692
L66023 39692
" />
<path d="M65448 40937
L66299 40937
" />
<path d="M65448 40937
L65448 40570
" />
<path d="M65448 39692
L65448 40059
" />
<path d="M62889 39653
L63464 39653
" />
<path d="M62889 40897
L63740 40897
" />
<path d="M62889 40897
L62889 40531
" />
<path d="M62889 39653
L62889 40019
" />
<path d="M67358 42818
L67850 42818
" />
<path d="M67358 42326
L67358 42818
" />
<path d="M69094 38346
L68897 38346
" />
<path d="M68897 38307
L69094 38307
" />
<path d="M68897 38385
L68897 38307
" />
<path d="M69094 38385
L68897 38385
" />
<path d="M69094 39133
L68897 39133
" />
<path d="M68897 39094
L69094 39094
" />
<path d="M68897 39173
L68897 39094
" />
<path d="M69094 39173
L68897 39173
" />
<path d="M69094 39921
L68897 39921
" />
<path d="M68897 39881
L69094 39881
" />
<path d="M68897 39960
L68897 39881
" />
<path d="M69094 39960
L68897 39960
" />
<path d="M69094 40708
L68897 40708
" />
<path d="M68897 40669
L69094 40669
" />
<path d="M68897 40748
L68897 40669
" />
<path d="M69094 40748
L68897 40748
" />
<path d="M69094 41496
L68897 41496
" />
<path d="M68897 41456
L69094 41456
" />
<path d="M68897 41535
L68897 41456
" />
<path d="M69094 41535
L68897 41535
" />
<path d="M68503 37141
L68503 37381
" />
<path d="M67992 37141
L67992 37381
" />
<path d="M68503 42700
L68503 42460
" />
<path d="M67992 42700
L67992 42460
" />
<path d="M67716 38149
L67476 38149
" />
<path d="M67716 37381
L67716 38149
" />
<path d="M69094 37381
L67716 37381
" />
<path d="M69094 42460
L69094 37381
" />
<path d="M67716 42460
L69094 42460
" />
<path d="M67716 41692
L67716 42460
" />
<path d="M67476 41692
L67716 41692
" />
<path d="M67437 42007
L67437 42125
" />
<path d="M67397 42125
L67476 42125
" />
<path d="M67397 42007
L67397 42125
" />
<path d="M67476 42007
L67397 42007
" />
<path d="M67476 37141
L67476 42700
" />
<path d="M69334 37141
L67476 37141
" />
<path d="M69334 42700
L69334 37141
" />
<path d="M67476 42700
L69334 42700
" />
<path d="M60271 42818
L60763 42818
" />
<path d="M60271 42326
L60271 42818
" />
<path d="M62007 38346
L61811 38346
" />
<path d="M61811 38307
L62007 38307
" />
<path d="M61811 38385
L61811 38307
" />
<path d="M62007 38385
L61811 38385
" />
<path d="M62007 39133
L61811 39133
" />
<path d="M61811 39094
L62007 39094
" />
<path d="M61811 39173
L61811 39094
" />
<path d="M62007 39173
L61811 39173
" />
<path d="M62007 39921
L61811 39921
" />
<path d="M61811 39881
L62007 39881
" />
<path d="M61811 39960
L61811 39881
" />
<path d="M62007 39960
L61811 39960
" />
<path d="M62007 40708
L61811 40708
" />
<path d="M61811 40669
L62007 40669
" />
<path d="M61811 40748
L61811 40669
" />
<path d="M62007 40748
L61811 40748
" />
<path d="M62007 41496
L61811 41496
" />
<path d="M61811 41456
L62007 41456
" />
<path d="M61811 41535
L61811 41456
" />
<path d="M62007 41535
L61811 41535
" />
<path d="M61417 37141
L61417 37381
" />
<path d="M60905 37141
L60905 37381
" />
<path d="M61417 42700
L61417 42460
" />
<path d="M60905 42700
L60905 42460
" />
<path d="M60629 38149
L60389 38149
" />
<path d="M60629 37381
L60629 38149
" />
<path d="M62007 37381
L60629 37381
" />
<path d="M62007 42460
L62007 37381
" />
<path d="M60629 42460
L62007 42460
" />
<path d="M60629 41692
L60629 42460
" />
<path d="M60389 41692
L60629 41692
" />
<path d="M60350 42007
L60350 42125
" />
<path d="M60311 42125
L60389 42125
" />
<path d="M60311 42007
L60311 42125
" />
<path d="M60389 42007
L60311 42007
" />
<path d="M60389 37141
L60389 42700
" />
<path d="M62248 37141
L60389 37141
" />
<path d="M62248 42700
L62248 37141
" />
<path d="M60389 42700
L62248 42700
" />
<path d="M65822 41630
L65822 41834
" />
<path d="M66381 41630
L66381 41834
" />
<path d="M63460 41615
L63460 41819
" />
<path d="M64019 41615
L64019 41819
" />
<path d="M62673 41615
L62673 41819
" />
<path d="M63232 41615
L63232 41819
" />
</g>
<g style="fill:#000000; fill-opacity:0.0; 
stroke:#000000; stroke-width:59.0551; stroke-opacity:1; 
stroke-linecap:round; stroke-linejoin:round;">
<text x="64921.3" y="42913.4"
textLength="915.354" font-size="524.934" lengthAdjust="spacingAndGlyphs"
text-anchor="middle" opacity="0">U1</text>
<path d="M64621 42500
L64621 42819
L64640 42857
L64658 42875
L64696 42894
L64771 42894
L64808 42875
L64827 42857
L64846 42819
L64846 42500
" />
<path d="M65239 42894
L65014 42894
" />
<path d="M65127 42894
L65127 42500
L65089 42557
L65052 42594
L65014 42613
" />
<text x="66338.6" y="37598.4"
textLength="845.426" font-size="524.934" lengthAdjust="spacingAndGlyphs"
text-anchor="middle" opacity="0">R4</text>
<path d="M66272 37579
L66141 37392
" />
<path d="M66047 37579
L66047 37185
L66197 37185
L66235 37204
L66254 37223
L66272 37260
L66272 37317
L66254 37354
L66235 37373
L66197 37392
L66047 37392
" />
<path d="M66610 37317
L66610 37579
" />
<path d="M66516 37167
L66422 37448
L66666 37448
" />
<text x="64291.3" y="37677.2"
textLength="845.426" font-size="524.934" lengthAdjust="spacingAndGlyphs"
text-anchor="middle" opacity="0">R3</text>
<path d="M64225 37658
L64094 37470
" />
<path d="M64000 37658
L64000 37264
L64150 37264
L64188 37283
L64206 37302
L64225 37339
L64225 37395
L64206 37433
L64188 37452
L64150 37470
L64000 37470
" />
<path d="M64356 37264
L64600 37264
L64469 37414
L64525 37414
L64563 37433
L64581 37452
L64600 37489
L64600 37583
L64581 37620
L64563 37639
L64525 37658
L64413 37658
L64375 37639
L64356 37620
" />
<text x="66850.4" y="39566.9"
textLength="845.426" font-size="524.934" lengthAdjust="spacingAndGlyphs"
text-anchor="middle" opacity="0">R2</text>
<path d="M66784 39548
L66653 39360
" />
<path d="M66559 39548
L66559 39154
L66709 39154
L66747 39173
L66766 39191
L66784 39229
L66784 39285
L66766 39323
L66747 39341
L66709 39360
L66559 39360
" />
<path d="M66934 39191
L66953 39173
L66991 39154
L67084 39154
L67122 39173
L67140 39191
L67159 39229
L67159 39266
L67140 39323
L66916 39548
L67159 39548
" />
<text x="64252" y="39566.9"
textLength="845.426" font-size="524.934" lengthAdjust="spacingAndGlyphs"
text-anchor="middle" opacity="0">R1</text>
<path d="M64186 39548
L64055 39360
" />
<path d="M63961 39548
L63961 39154
L64111 39154
L64148 39173
L64167 39191
L64186 39229
L64186 39285
L64167 39323
L64148 39341
L64111 39360
L63961 39360
" />
<path d="M64561 39548
L64336 39548
" />
<path d="M64448 39548
L64448 39154
L64411 39210
L64373 39248
L64336 39266
" />
<text x="65354.3" y="37598.4"
textLength="864.173" font-size="524.934" lengthAdjust="spacingAndGlyphs"
text-anchor="middle" opacity="0">Q4</text>
<path d="M65316 37617
L65279 37598
L65241 37560
L65185 37504
L65148 37485
L65110 37485
" />
<path d="M65129 37579
L65091 37560
L65054 37523
L65035 37448
L65035 37317
L65054 37242
L65091 37204
L65129 37185
L65204 37185
L65241 37204
L65279 37242
L65298 37317
L65298 37448
L65279 37523
L65241 37560
L65204 37579
L65129 37579
" />
<path d="M65635 37317
L65635 37579
" />
<path d="M65541 37167
L65448 37448
L65691 37448
" />
<text x="63346.5" y="37598.4"
textLength="864.173" font-size="524.934" lengthAdjust="spacingAndGlyphs"
text-anchor="middle" opacity="0">Q3</text>
<path d="M63308 37617
L63271 37598
L63233 37560
L63177 37504
L63140 37485
L63102 37485
" />
<path d="M63121 37579
L63083 37560
L63046 37523
L63027 37448
L63027 37317
L63046 37242
L63083 37204
L63121 37185
L63196 37185
L63233 37204
L63271 37242
L63290 37317
L63290 37448
L63271 37523
L63233 37560
L63196 37579
L63121 37579
" />
<path d="M63421 37185
L63665 37185
L63533 37335
L63590 37335
L63627 37354
L63646 37373
L63665 37410
L63665 37504
L63646 37542
L63627 37560
L63590 37579
L63477 37579
L63440 37560
L63421 37542
" />
<text x="65787.4" y="39527.6"
textLength="864.173" font-size="524.934" lengthAdjust="spacingAndGlyphs"
text-anchor="middle" opacity="0">Q2</text>
<path d="M65749 39546
L65712 39527
L65674 39490
L65618 39433
L65581 39415
L65543 39415
" />
<path d="M65562 39508
L65524 39490
L65487 39452
L65468 39377
L65468 39246
L65487 39171
L65524 39133
L65562 39115
L65637 39115
L65674 39133
L65712 39171
L65731 39246
L65731 39377
L65712 39452
L65674 39490
L65637 39508
L65562 39508
" />
<path d="M65881 39152
L65899 39133
L65937 39115
L66031 39115
L66068 39133
L66087 39152
L66106 39190
L66106 39227
L66087 39283
L65862 39508
L66106 39508
" />
<text x="63267.7" y="39527.6"
textLength="864.173" font-size="524.934" lengthAdjust="spacingAndGlyphs"
text-anchor="middle" opacity="0">Q1</text>
<path d="M63230 39546
L63192 39527
L63155 39490
L63098 39433
L63061 39415
L63023 39415
" />
<path d="M63042 39508
L63005 39490
L62967 39452
L62949 39377
L62949 39246
L62967 39171
L63005 39133
L63042 39115
L63117 39115
L63155 39133
L63192 39171
L63211 39246
L63211 39377
L63192 39452
L63155 39490
L63117 39508
L63042 39508
" />
<path d="M63586 39508
L63361 39508
" />
<path d="M63473 39508
L63473 39115
L63436 39171
L63398 39208
L63361 39227
" />
<text x="67126" y="37401.6"
textLength="751.687" font-size="524.934" lengthAdjust="spacingAndGlyphs"
text-anchor="middle" opacity="0">J2</text>
<path d="M66994 36989
L66994 37270
L66976 37326
L66938 37364
L66882 37382
L66844 37382
" />
<path d="M67163 37026
L67182 37007
L67219 36989
L67313 36989
L67350 37007
L67369 37026
L67388 37064
L67388 37101
L67369 37157
L67144 37382
L67388 37382
" />
<text x="62598.4" y="37598.4"
textLength="751.687" font-size="524.934" lengthAdjust="spacingAndGlyphs"
text-anchor="middle" opacity="0">J1</text>
<path d="M62467 37185
L62467 37467
L62448 37523
L62410 37560
L62354 37579
L62317 37579
" />
<path d="M62860 37579
L62635 37579
" />
<path d="M62748 37579
L62748 37185
L62710 37242
L62673 37279
L62635 37298
" />
<g transform="rotate(-90 66752 41732.3)">
<text x="66752" y="41929.1"
textLength="845.426" font-size="524.934" lengthAdjust="spacingAndGlyphs"
text-anchor="middle" opacity="0">C3</text>
</g>
<path d="M66892 41797
L66911 41816
L66930 41872
L66930 41910
L66911 41966
L66873 42004
L66836 42022
L66761 42041
L66705 42041
L66630 42022
L66592 42004
L66555 41966
L66536 41910
L66536 41872
L66555 41816
L66573 41797
" />
<path d="M66536 41666
L66536 41422
L66686 41554
L66686 41497
L66705 41460
L66723 41441
L66761 41422
L66855 41422
L66892 41441
L66911 41460
L66930 41497
L66930 41610
L66911 41647
L66892 41666
" />
<text x="63700.8" y="42834.6"
textLength="845.426" font-size="524.934" lengthAdjust="spacingAndGlyphs"
text-anchor="middle" opacity="0">C2</text>
<path d="M63635 42778
L63616 42797
L63560 42815
L63522 42815
L63466 42797
L63428 42759
L63410 42722
L63391 42647
L63391 42590
L63410 42515
L63428 42478
L63466 42440
L63522 42422
L63560 42422
L63616 42440
L63635 42459
" />
<path d="M63785 42459
L63803 42440
L63841 42422
L63935 42422
L63972 42440
L63991 42459
L64010 42497
L64010 42534
L63991 42590
L63766 42815
L64010 42815
" />
<text x="62992.1" y="42834.6"
textLength="845.426" font-size="524.934" lengthAdjust="spacingAndGlyphs"
text-anchor="middle" opacity="0">C1</text>
<path d="M62926 42778
L62907 42797
L62851 42815
L62814 42815
L62757 42797
L62720 42759
L62701 42722
L62682 42647
L62682 42590
L62701 42515
L62720 42478
L62757 42440
L62814 42422
L62851 42422
L62907 42440
L62926 42459
" />
<path d="M63301 42815
L63076 42815
" />
<path d="M63188 42815
L63188 42422
L63151 42478
L63113 42515
L63076 42534
" />
<g >
</g>
</g> 
</svg>
