<?xml version="1.0" standalone="no"?>
 <!DOCTYPE svg PUBLIC "-//W3C//DTD SVG 1.1//EN" 
 "http://www.w3.org/Graphics/SVG/1.1/DTD/svg11.dtd"> 
<svg
  xmlns:svg="http://www.w3.org/2000/svg"
  xmlns="http://www.w3.org/2000/svg"
  xmlns:xlink="http://www.w3.org/1999/xlink"
  version="1.1"
  width="29.700220cm" height="21.000720cm" viewBox="0 0 116930 82680">
<title>SVG Picture created as 4_Channel_Level_Shifter-B_Mask.svg date 2020/08/25 19:22:08 </title>
  <desc>Picture generated by PCBNEW </desc>
<g style="fill:#000000; fill-opacity:1;stroke:#000000; stroke-opacity:1;
stroke-linecap:round; stroke-linejoin:round;"
 transform="translate(0 0) scale(1 1)">
</g>
<g style="fill:#000000; fill-opacity:0.0; 
stroke:#000000; stroke-width:-0.000393701; stroke-opacity:1; 
stroke-linecap:round; stroke-linejoin:round;">
<g >
</g>
<g >
</g>
<g >
</g>
<g >
</g>
<g >
</g>
<g >
</g>
<g >
</g>
<g >
</g>
<g >
</g>
<g >
</g>
<g >
</g>
<g style="fill:#000000; fill-opacity:0.0; 
stroke:#000000; stroke-width:-0.000393701; stroke-opacity:1; 
stroke-linecap:round; stroke-linejoin:round;">
</g>
<g style="fill:#000000; fill-opacity:0.0; 
stroke:#000000; stroke-width:511.811; stroke-opacity:1; 
stroke-linecap:round; stroke-linejoin:round;">
<path d="M68080 37952
L68297 37952
" />
<path d="M68080 38740
L68297 38740
" />
<path d="M68080 39527
L68297 39527
" />
<path d="M68080 40314
L68297 40314
" />
<path d="M68080 41102
L68297 41102
" />
</g>
<g style="fill:#000000; fill-opacity:0.0; 
stroke:#000000; stroke-width:0; stroke-opacity:1; 
stroke-linecap:round; stroke-linejoin:round;">
</g>
<g style="fill:#000000; fill-opacity:1.0; 
stroke:#000000; stroke-width:0; stroke-opacity:1; 
stroke-linecap:round; stroke-linejoin:round;">
<path style="fill:#000000; fill-opacity:1.0; 
stroke:#000000; stroke-width:0; stroke-opacity:1; 
stroke-linecap:round; stroke-linejoin:round;fill-rule:evenodd;"
d="M 68457,41634.4
68467.3,41635.9
68477.5,41638.4
68487.3,41642
68496.8,41646.4
68505.8,41651.8
68514.2,41658.1
68521.9,41665.1
68528.9,41672.8
68535.2,41681.2
68540.6,41690.2
68545,41699.7
68548.6,41709.5
68551.1,41719.7
68552.6,41730
68553.1,41740.5
68553.1,42039
68552.6,42049.5
68551.1,42059.8
68548.6,42070
68545,42079.8
68540.6,42089.3
68535.2,42098.3
68528.9,42106.7
68521.9,42114.4
68514.2,42121.5
68505.8,42127.7
68496.8,42133.1
68487.3,42137.6
68477.5,42141.1
68467.3,42143.6
68457,42145.2
68446.5,42145.7
67931.4,42145.7
67921,42145.2
67910.6,42143.6
67900.5,42141.1
67890.6,42137.6
67881.2,42133.1
67872.2,42127.7
67863.8,42121.5
67856,42114.4
67849,42106.7
67842.8,42098.3
67837.4,42089.3
67832.9,42079.8
67829.4,42070
67826.9,42059.8
67825.3,42049.5
67824.8,42039
67824.8,41740.5
67825.3,41730
67826.9,41719.7
67829.4,41709.5
67832.9,41699.7
67837.4,41690.2
67842.8,41681.2
67849,41672.8
67856,41665.1
67863.8,41658.1
67872.2,41651.8
67881.2,41646.4
67890.6,41642
67900.5,41638.4
67910.6,41635.9
67921,41634.4
67931.4,41633.9
68446.5,41633.9
Z" /> 
</g>
<g >
</g>
<g style="fill:#000000; fill-opacity:1.0; 
stroke:#000000; stroke-width:0; stroke-opacity:1; 
stroke-linecap:round; stroke-linejoin:round;">
</g>
<g style="fill:#000000; fill-opacity:1.0; 
stroke:#000000; stroke-width:511.811; stroke-opacity:1; 
stroke-linecap:round; stroke-linejoin:round;">
</g>
<g style="fill:#000000; fill-opacity:0.0; 
stroke:#000000; stroke-width:511.811; stroke-opacity:1; 
stroke-linecap:round; stroke-linejoin:round;">
<path d="M60994 37952
L61210 37952
" />
<path d="M60994 38740
L61210 38740
" />
<path d="M60994 39527
L61210 39527
" />
<path d="M60994 40314
L61210 40314
" />
<path d="M60994 41102
L61210 41102
" />
</g>
<g style="fill:#000000; fill-opacity:0.0; 
stroke:#000000; stroke-width:0; stroke-opacity:1; 
stroke-linecap:round; stroke-linejoin:round;">
</g>
<g style="fill:#000000; fill-opacity:1.0; 
stroke:#000000; stroke-width:0; stroke-opacity:1; 
stroke-linecap:round; stroke-linejoin:round;">
<path style="fill:#000000; fill-opacity:1.0; 
stroke:#000000; stroke-width:0; stroke-opacity:1; 
stroke-linecap:round; stroke-linejoin:round;fill-rule:evenodd;"
d="M 61370.4,41634.4
61380.7,41635.9
61390.9,41638.4
61400.7,41642
61410.2,41646.4
61419.1,41651.8
61427.6,41658.1
61435.3,41665.1
61442.3,41672.8
61448.6,41681.2
61453.9,41690.2
61458.4,41699.7
61461.9,41709.5
61464.5,41719.7
61466,41730
61466.5,41740.5
61466.5,42039
61466,42049.5
61464.5,42059.8
61461.9,42070
61458.4,42079.8
61453.9,42089.3
61448.6,42098.3
61442.3,42106.7
61435.3,42114.4
61427.6,42121.5
61419.1,42127.7
61410.2,42133.1
61400.7,42137.6
61390.9,42141.1
61380.7,42143.6
61370.4,42145.2
61359.9,42145.7
60844.8,42145.7
60834.4,42145.2
60824,42143.6
60813.9,42141.1
60804,42137.6
60794.6,42133.1
60785.6,42127.7
60777.2,42121.5
60769.4,42114.4
60762.4,42106.7
60756.2,42098.3
60750.8,42089.3
60746.3,42079.8
60742.8,42070
60740.2,42059.8
60738.7,42049.5
60738.2,42039
60738.2,41740.5
60738.7,41730
60740.2,41719.7
60742.8,41709.5
60746.3,41699.7
60750.8,41690.2
60756.2,41681.2
60762.4,41672.8
60769.4,41665.1
60777.2,41658.1
60785.6,41651.8
60794.6,41646.4
60804,41642
60813.9,41638.4
60824,41635.9
60834.4,41634.4
60844.8,41633.9
61359.9,41633.9
Z" /> 
</g>
<g >
</g>
<g >
</g>
<g >
</g>
<g >
</g>
<g >
</g>
<g >
</g>
</g> 
</svg>
