<?xml version="1.0" standalone="no"?>
 <!DOCTYPE svg PUBLIC "-//W3C//DTD SVG 1.1//EN" 
 "http://www.w3.org/Graphics/SVG/1.1/DTD/svg11.dtd"> 
<svg
  xmlns:svg="http://www.w3.org/2000/svg"
  xmlns="http://www.w3.org/2000/svg"
  xmlns:xlink="http://www.w3.org/1999/xlink"
  version="1.1"
  width="29.700220cm" height="21.000720cm" viewBox="0 0 116930 82680">
<title>SVG Picture created as 4_Channel_Level_Shifter-F_Mask.svg date 2020/08/25 19:22:08 </title>
  <desc>Picture generated by PCBNEW </desc>
<g style="fill:#000000; fill-opacity:1;stroke:#000000; stroke-opacity:1;
stroke-linecap:round; stroke-linejoin:round;"
 transform="translate(0 0) scale(1 1)">
</g>
<g style="fill:#000000; fill-opacity:0.0; 
stroke:#000000; stroke-width:-0.000393701; stroke-opacity:1; 
stroke-linecap:round; stroke-linejoin:round;">
<g >
</g>
<g >
</g>
<g style="fill:#000000; fill-opacity:0.0; 
stroke:#000000; stroke-width:-0.000393701; stroke-opacity:1; 
stroke-linecap:round; stroke-linejoin:round;">
</g>
<g style="fill:#000000; fill-opacity:0.0; 
stroke:#000000; stroke-width:0; stroke-opacity:1; 
stroke-linecap:round; stroke-linejoin:round;">
</g>
<g style="fill:#000000; fill-opacity:1.0; 
stroke:#000000; stroke-width:0; stroke-opacity:1; 
stroke-linecap:round; stroke-linejoin:round;">
<path style="fill:#000000; fill-opacity:1.0; 
stroke:#000000; stroke-width:0; stroke-opacity:1; 
stroke-linecap:round; stroke-linejoin:round;fill-rule:evenodd;"
d="M 65126,41505.9
65126,41210.6
65582.7,41210.6
65582.7,41505.9
Z" /> 
<path style="fill:#000000; fill-opacity:1.0; 
stroke:#000000; stroke-width:0; stroke-opacity:1; 
stroke-linecap:round; stroke-linejoin:round;fill-rule:evenodd;"
d="M 65126,42253.9
65126,41958.7
65582.7,41958.7
65582.7,42253.9
Z" /> 
<path style="fill:#000000; fill-opacity:1.0; 
stroke:#000000; stroke-width:0; stroke-opacity:1; 
stroke-linecap:round; stroke-linejoin:round;fill-rule:evenodd;"
d="M 64259.8,42253.9
64259.8,41958.7
64716.5,41958.7
64716.5,42253.9
Z" /> 
<path style="fill:#000000; fill-opacity:1.0; 
stroke:#000000; stroke-width:0; stroke-opacity:1; 
stroke-linecap:round; stroke-linejoin:round;fill-rule:evenodd;"
d="M 64259.8,41879.9
64259.8,41584.6
64716.5,41584.6
64716.5,41879.9
Z" /> 
<path style="fill:#000000; fill-opacity:1.0; 
stroke:#000000; stroke-width:0; stroke-opacity:1; 
stroke-linecap:round; stroke-linejoin:round;fill-rule:evenodd;"
d="M 64259.8,41505.9
64259.8,41210.6
64716.5,41210.6
64716.5,41505.9
Z" /> 
</g>
<g >
</g>
<g style="fill:#000000; fill-opacity:1.0; 
stroke:#000000; stroke-width:0; stroke-opacity:1; 
stroke-linecap:round; stroke-linejoin:round;">
<path style="fill:#000000; fill-opacity:1.0; 
stroke:#000000; stroke-width:0; stroke-opacity:1; 
stroke-linecap:round; stroke-linejoin:round;fill-rule:evenodd;"
d="M 67050.2,37790.9
67060.5,37792.4
67070.6,37794.9
67080.4,37798.4
67089.7,37802.8
67098.6,37808.2
67107,37814.4
67114.7,37821.3
67121.7,37829
67127.8,37837.4
67133.2,37846.3
67137.6,37855.7
67141.1,37865.4
67143.6,37875.5
67145.2,37885.8
67145.7,37896.2
67145.7,38107.8
67145.2,38118.1
67143.6,38128.4
67141.1,38138.5
67137.6,38148.3
67133.2,38157.7
67127.8,38166.6
67121.7,38174.9
67114.7,38182.6
67107,38189.6
67098.6,38195.8
67089.7,38201.1
67080.4,38205.5
67070.6,38209
67060.5,38211.5
67050.2,38213.1
67039.9,38213.6
66660.9,38213.6
66650.6,38213.1
66640.3,38211.5
66630.2,38209
66620.4,38205.5
66611,38201.1
66602.1,38195.8
66593.8,38189.6
66586.1,38182.6
66579.1,38174.9
66572.9,38166.6
66567.6,38157.7
66563.2,38148.3
66559.7,38138.5
66557.2,38128.4
66555.6,38118.1
66555.1,38107.8
66555.1,37896.2
66555.6,37885.8
66557.2,37875.5
66559.7,37865.4
66563.2,37855.7
66567.6,37846.3
66572.9,37837.4
66579.1,37829
66586.1,37821.3
66593.8,37814.4
66602.1,37808.2
66611,37802.8
66620.4,37798.4
66630.2,37794.9
66640.3,37792.4
66650.6,37790.9
66660.9,37790.4
67039.9,37790.4
Z" /> 
<path style="fill:#000000; fill-opacity:1.0; 
stroke:#000000; stroke-width:0; stroke-opacity:1; 
stroke-linecap:round; stroke-linejoin:round;fill-rule:evenodd;"
d="M 67050.2,38529.1
67060.5,38530.6
67070.6,38533.1
67080.4,38536.6
67089.7,38541
67098.6,38546.4
67107,38552.6
67114.7,38559.5
67121.7,38567.2
67127.8,38575.6
67133.2,38584.5
67137.6,38593.9
67141.1,38603.6
67143.6,38613.7
67145.2,38624
67145.7,38634.4
67145.7,38846
67145.2,38856.3
67143.6,38866.6
67141.1,38876.7
67137.6,38886.5
67133.2,38895.8
67127.8,38904.7
67121.7,38913.1
67114.7,38920.8
67107,38927.8
67098.6,38933.9
67089.7,38939.3
67080.4,38943.7
67070.6,38947.2
67060.5,38949.7
67050.2,38951.3
67039.9,38951.8
66660.9,38951.8
66650.6,38951.3
66640.3,38949.7
66630.2,38947.2
66620.4,38943.7
66611,38939.3
66602.1,38933.9
66593.8,38927.8
66586.1,38920.8
66579.1,38913.1
66572.9,38904.7
66567.6,38895.8
66563.2,38886.5
66559.7,38876.7
66557.2,38866.6
66555.6,38856.3
66555.1,38846
66555.1,38634.4
66555.6,38624
66557.2,38613.7
66559.7,38603.6
66563.2,38593.9
66567.6,38584.5
66572.9,38575.6
66579.1,38567.2
66586.1,38559.5
66593.8,38552.6
66602.1,38546.4
66611,38541
66620.4,38536.6
66630.2,38533.1
66640.3,38530.6
66650.6,38529.1
66660.9,38528.5
67039.9,38528.5
Z" /> 
</g>
<g >
</g>
<g style="fill:#000000; fill-opacity:1.0; 
stroke:#000000; stroke-width:0; stroke-opacity:1; 
stroke-linecap:round; stroke-linejoin:round;">
<path style="fill:#000000; fill-opacity:1.0; 
stroke:#000000; stroke-width:0; stroke-opacity:1; 
stroke-linecap:round; stroke-linejoin:round;fill-rule:evenodd;"
d="M 64491.2,37830.2
64501.4,37831.8
64511.5,37834.3
64521.3,37837.8
64530.7,37842.2
64539.6,37847.6
64547.9,37853.7
64555.6,37860.7
64562.6,37868.4
64568.8,37876.7
64574.1,37885.7
64578.6,37895
64582.1,37904.8
64584.6,37914.9
64586.1,37925.2
64586.6,37935.5
64586.6,38147.1
64586.1,38157.5
64584.6,38167.8
64582.1,38177.9
64578.6,38187.6
64574.1,38197
64568.8,38205.9
64562.6,38214.3
64555.6,38222
64547.9,38228.9
64539.6,38235.1
64530.7,38240.5
64521.3,38244.9
64511.5,38248.4
64501.4,38250.9
64491.2,38252.4
64480.8,38253
64101.9,38253
64091.5,38252.4
64081.2,38250.9
64071.2,38248.4
64061.4,38244.9
64052,38240.5
64043.1,38235.1
64034.7,38228.9
64027.1,38222
64020.1,38214.3
64013.9,38205.9
64008.6,38197
64004.1,38187.6
64000.6,38177.9
63998.1,38167.8
63996.6,38157.5
63996.1,38147.1
63996.1,37935.5
63996.6,37925.2
63998.1,37914.9
64000.6,37904.8
64004.1,37895
64008.6,37885.7
64013.9,37876.7
64020.1,37868.4
64027.1,37860.7
64034.7,37853.7
64043.1,37847.6
64052,37842.2
64061.4,37837.8
64071.2,37834.3
64081.2,37831.8
64091.5,37830.2
64101.9,37829.7
64480.8,37829.7
Z" /> 
<path style="fill:#000000; fill-opacity:1.0; 
stroke:#000000; stroke-width:0; stroke-opacity:1; 
stroke-linecap:round; stroke-linejoin:round;fill-rule:evenodd;"
d="M 64491.2,38568.4
64501.4,38569.9
64511.5,38572.5
64521.3,38576
64530.7,38580.4
64539.6,38585.7
64547.9,38591.9
64555.6,38598.9
64562.6,38606.6
64568.8,38614.9
64574.1,38623.8
64578.6,38633.2
64582.1,38643
64584.6,38653.1
64586.1,38663.3
64586.6,38673.7
64586.6,38885.3
64586.1,38895.7
64584.6,38906
64582.1,38916
64578.6,38925.8
64574.1,38935.2
64568.8,38944.1
64562.6,38952.5
64555.6,38960.2
64547.9,38967.1
64539.6,38973.3
64530.7,38978.6
64521.3,38983.1
64511.5,38986.6
64501.4,38989.1
64491.2,38990.6
64480.8,38991.1
64101.9,38991.1
64091.5,38990.6
64081.2,38989.1
64071.2,38986.6
64061.4,38983.1
64052,38978.6
64043.1,38973.3
64034.7,38967.1
64027.1,38960.2
64020.1,38952.5
64013.9,38944.1
64008.6,38935.2
64004.1,38925.8
64000.6,38916
63998.1,38906
63996.6,38895.7
63996.1,38885.3
63996.1,38673.7
63996.6,38663.3
63998.1,38653.1
64000.6,38643
64004.1,38633.2
64008.6,38623.8
64013.9,38614.9
64020.1,38606.6
64027.1,38598.9
64034.7,38591.9
64043.1,38585.7
64052,38580.4
64061.4,38576
64071.2,38572.5
64081.2,38569.9
64091.5,38568.4
64101.9,38567.9
64480.8,38567.9
Z" /> 
</g>
<g >
</g>
<g style="fill:#000000; fill-opacity:1.0; 
stroke:#000000; stroke-width:0; stroke-opacity:1; 
stroke-linecap:round; stroke-linejoin:round;">
<path style="fill:#000000; fill-opacity:1.0; 
stroke:#000000; stroke-width:0; stroke-opacity:1; 
stroke-linecap:round; stroke-linejoin:round;fill-rule:evenodd;"
d="M 67050.2,39710.2
67060.5,39711.7
67070.6,39714.2
67080.4,39717.7
67089.7,39722.1
67098.6,39727.5
67107,39733.7
67114.7,39740.6
67121.7,39748.3
67127.8,39756.7
67133.2,39765.6
67137.6,39775
67141.1,39784.7
67143.6,39794.8
67145.2,39805.1
67145.7,39815.5
67145.7,40027.1
67145.2,40037.4
67143.6,40047.7
67141.1,40057.8
67137.6,40067.6
67133.2,40076.9
67127.8,40085.9
67121.7,40094.2
67114.7,40101.9
67107,40108.9
67098.6,40115
67089.7,40120.4
67080.4,40124.8
67070.6,40128.3
67060.5,40130.8
67050.2,40132.4
67039.9,40132.9
66660.9,40132.9
66650.6,40132.4
66640.3,40130.8
66630.2,40128.3
66620.4,40124.8
66611,40120.4
66602.1,40115
66593.8,40108.9
66586.1,40101.9
66579.1,40094.2
66572.9,40085.9
66567.6,40076.9
66563.2,40067.6
66559.7,40057.8
66557.2,40047.7
66555.6,40037.4
66555.1,40027.1
66555.1,39815.5
66555.6,39805.1
66557.2,39794.8
66559.7,39784.7
66563.2,39775
66567.6,39765.6
66572.9,39756.7
66579.1,39748.3
66586.1,39740.6
66593.8,39733.7
66602.1,39727.5
66611,39722.1
66620.4,39717.7
66630.2,39714.2
66640.3,39711.7
66650.6,39710.2
66660.9,39709.6
67039.9,39709.6
Z" /> 
<path style="fill:#000000; fill-opacity:1.0; 
stroke:#000000; stroke-width:0; stroke-opacity:1; 
stroke-linecap:round; stroke-linejoin:round;fill-rule:evenodd;"
d="M 67050.2,40448.3
67060.5,40449.9
67070.6,40452.4
67080.4,40455.9
67089.7,40460.3
67098.6,40465.7
67107,40471.9
67114.7,40478.8
67121.7,40486.5
67127.8,40494.9
67133.2,40503.8
67137.6,40513.2
67141.1,40522.9
67143.6,40533
67145.2,40543.3
67145.7,40553.6
67145.7,40765.3
67145.2,40775.6
67143.6,40785.9
67141.1,40796
67137.6,40805.7
67133.2,40815.1
67127.8,40824
67121.7,40832.4
67114.7,40840.1
67107,40847
67098.6,40853.2
67089.7,40858.6
67080.4,40863
67070.6,40866.5
67060.5,40869
67050.2,40870.6
67039.9,40871.1
66660.9,40871.1
66650.6,40870.6
66640.3,40869
66630.2,40866.5
66620.4,40863
66611,40858.6
66602.1,40853.2
66593.8,40847
66586.1,40840.1
66579.1,40832.4
66572.9,40824
66567.6,40815.1
66563.2,40805.7
66559.7,40796
66557.2,40785.9
66555.6,40775.6
66555.1,40765.3
66555.1,40553.6
66555.6,40543.3
66557.2,40533
66559.7,40522.9
66563.2,40513.2
66567.6,40503.8
66572.9,40494.9
66579.1,40486.5
66586.1,40478.8
66593.8,40471.9
66602.1,40465.7
66611,40460.3
66620.4,40455.9
66630.2,40452.4
66640.3,40449.9
66650.6,40448.3
66660.9,40447.8
67039.9,40447.8
Z" /> 
</g>
<g >
</g>
<g style="fill:#000000; fill-opacity:1.0; 
stroke:#000000; stroke-width:0; stroke-opacity:1; 
stroke-linecap:round; stroke-linejoin:round;">
<path style="fill:#000000; fill-opacity:1.0; 
stroke:#000000; stroke-width:0; stroke-opacity:1; 
stroke-linecap:round; stroke-linejoin:round;fill-rule:evenodd;"
d="M 64491.2,39695.4
64501.4,39696.9
64511.5,39699.4
64521.3,39702.9
64530.7,39707.4
64539.6,39712.7
64547.9,39718.9
64555.6,39725.9
64562.6,39733.6
64568.8,39741.9
64574.1,39750.8
64578.6,39760.2
64582.1,39770
64584.6,39780
64586.1,39790.3
64586.6,39800.7
64586.6,40012.3
64586.1,40022.7
64584.6,40032.9
64582.1,40043
64578.6,40052.8
64574.1,40062.2
64568.8,40071.1
64562.6,40079.4
64555.6,40087.1
64547.9,40094.1
64539.6,40100.3
64530.7,40105.6
64521.3,40110.1
64511.5,40113.6
64501.4,40116.1
64491.2,40117.6
64480.8,40118.1
64101.9,40118.1
64091.5,40117.6
64081.2,40116.1
64071.2,40113.6
64061.4,40110.1
64052,40105.6
64043.1,40100.3
64034.7,40094.1
64027.1,40087.1
64020.1,40079.4
64013.9,40071.1
64008.6,40062.2
64004.1,40052.8
64000.6,40043
63998.1,40032.9
63996.6,40022.7
63996.1,40012.3
63996.1,39800.7
63996.6,39790.3
63998.1,39780
64000.6,39770
64004.1,39760.2
64008.6,39750.8
64013.9,39741.9
64020.1,39733.6
64027.1,39725.9
64034.7,39718.9
64043.1,39712.7
64052,39707.4
64061.4,39702.9
64071.2,39699.4
64081.2,39696.9
64091.5,39695.4
64101.9,39694.9
64480.8,39694.9
Z" /> 
<path style="fill:#000000; fill-opacity:1.0; 
stroke:#000000; stroke-width:0; stroke-opacity:1; 
stroke-linecap:round; stroke-linejoin:round;fill-rule:evenodd;"
d="M 64491.2,40433.6
64501.4,40435.1
64511.5,40437.6
64521.3,40441.1
64530.7,40445.6
64539.6,40450.9
64547.9,40457.1
64555.6,40464.1
64562.6,40471.8
64568.8,40480.1
64574.1,40489
64578.6,40498.4
64582.1,40508.2
64584.6,40518.2
64586.1,40528.5
64586.6,40538.9
64586.6,40750.5
64586.1,40760.9
64584.6,40771.1
64582.1,40781.2
64578.6,40791
64574.1,40800.4
64568.8,40809.3
64562.6,40817.6
64555.6,40825.3
64547.9,40832.3
64539.6,40838.5
64530.7,40843.8
64521.3,40848.2
64511.5,40851.7
64501.4,40854.3
64491.2,40855.8
64480.8,40856.3
64101.9,40856.3
64091.5,40855.8
64081.2,40854.3
64071.2,40851.7
64061.4,40848.2
64052,40843.8
64043.1,40838.5
64034.7,40832.3
64027.1,40825.3
64020.1,40817.6
64013.9,40809.3
64008.6,40800.4
64004.1,40791
64000.6,40781.2
63998.1,40771.1
63996.6,40760.9
63996.1,40750.5
63996.1,40538.9
63996.6,40528.5
63998.1,40518.2
64000.6,40508.2
64004.1,40498.4
64008.6,40489
64013.9,40480.1
64020.1,40471.8
64027.1,40464.1
64034.7,40457.1
64043.1,40450.9
64052,40445.6
64061.4,40441.1
64071.2,40437.6
64081.2,40435.1
64091.5,40433.6
64101.9,40433.1
64480.8,40433.1
Z" /> 
</g>
<g >
</g>
<g style="fill:#000000; fill-opacity:1.0; 
stroke:#000000; stroke-width:0; stroke-opacity:1; 
stroke-linecap:round; stroke-linejoin:round;">
<path style="fill:#000000; fill-opacity:1.0; 
stroke:#000000; stroke-width:0; stroke-opacity:1; 
stroke-linecap:round; stroke-linejoin:round;fill-rule:evenodd;"
d="M 65551.2,38169.3
65551.2,38523.6
65157.5,38523.6
65157.5,38169.3
Z" /> 
<path style="fill:#000000; fill-opacity:1.0; 
stroke:#000000; stroke-width:0; stroke-opacity:1; 
stroke-linecap:round; stroke-linejoin:round;fill-rule:evenodd;"
d="M 66338.6,37795.3
66338.6,38149.6
65944.9,38149.6
65944.9,37795.3
Z" /> 
<path style="fill:#000000; fill-opacity:1.0; 
stroke:#000000; stroke-width:0; stroke-opacity:1; 
stroke-linecap:round; stroke-linejoin:round;fill-rule:evenodd;"
d="M 66338.6,38543.3
66338.6,38897.6
65944.9,38897.6
65944.9,38543.3
Z" /> 
</g>
<g >
</g>
<g style="fill:#000000; fill-opacity:1.0; 
stroke:#000000; stroke-width:0; stroke-opacity:1; 
stroke-linecap:round; stroke-linejoin:round;">
<path style="fill:#000000; fill-opacity:1.0; 
stroke:#000000; stroke-width:0; stroke-opacity:1; 
stroke-linecap:round; stroke-linejoin:round;fill-rule:evenodd;"
d="M 62992.1,38208.7
62992.1,38563
62598.4,38563
62598.4,38208.7
Z" /> 
<path style="fill:#000000; fill-opacity:1.0; 
stroke:#000000; stroke-width:0; stroke-opacity:1; 
stroke-linecap:round; stroke-linejoin:round;fill-rule:evenodd;"
d="M 63779.5,37834.6
63779.5,38189
63385.8,38189
63385.8,37834.6
Z" /> 
<path style="fill:#000000; fill-opacity:1.0; 
stroke:#000000; stroke-width:0; stroke-opacity:1; 
stroke-linecap:round; stroke-linejoin:round;fill-rule:evenodd;"
d="M 63779.5,38582.7
63779.5,38937
63385.8,38937
63385.8,38582.7
Z" /> 
</g>
<g >
</g>
<g style="fill:#000000; fill-opacity:1.0; 
stroke:#000000; stroke-width:0; stroke-opacity:1; 
stroke-linecap:round; stroke-linejoin:round;">
<path style="fill:#000000; fill-opacity:1.0; 
stroke:#000000; stroke-width:0; stroke-opacity:1; 
stroke-linecap:round; stroke-linejoin:round;fill-rule:evenodd;"
d="M 65551.2,40137.8
65551.2,40492.1
65157.5,40492.1
65157.5,40137.8
Z" /> 
<path style="fill:#000000; fill-opacity:1.0; 
stroke:#000000; stroke-width:0; stroke-opacity:1; 
stroke-linecap:round; stroke-linejoin:round;fill-rule:evenodd;"
d="M 66338.6,39763.8
66338.6,40118.1
65944.9,40118.1
65944.9,39763.8
Z" /> 
<path style="fill:#000000; fill-opacity:1.0; 
stroke:#000000; stroke-width:0; stroke-opacity:1; 
stroke-linecap:round; stroke-linejoin:round;fill-rule:evenodd;"
d="M 66338.6,40511.8
66338.6,40866.1
65944.9,40866.1
65944.9,40511.8
Z" /> 
</g>
<g >
</g>
<g style="fill:#000000; fill-opacity:1.0; 
stroke:#000000; stroke-width:0; stroke-opacity:1; 
stroke-linecap:round; stroke-linejoin:round;">
<path style="fill:#000000; fill-opacity:1.0; 
stroke:#000000; stroke-width:0; stroke-opacity:1; 
stroke-linecap:round; stroke-linejoin:round;fill-rule:evenodd;"
d="M 62992.1,40098.4
62992.1,40452.8
62598.4,40452.8
62598.4,40098.4
Z" /> 
<path style="fill:#000000; fill-opacity:1.0; 
stroke:#000000; stroke-width:0; stroke-opacity:1; 
stroke-linecap:round; stroke-linejoin:round;fill-rule:evenodd;"
d="M 63779.5,39724.4
63779.5,40078.7
63385.8,40078.7
63385.8,39724.4
Z" /> 
<path style="fill:#000000; fill-opacity:1.0; 
stroke:#000000; stroke-width:0; stroke-opacity:1; 
stroke-linecap:round; stroke-linejoin:round;fill-rule:evenodd;"
d="M 63779.5,40472.4
63779.5,40826.8
63385.8,40826.8
63385.8,40472.4
Z" /> 
</g>
<g >
</g>
<g style="fill:#000000; fill-opacity:1.0; 
stroke:#000000; stroke-width:0; stroke-opacity:1; 
stroke-linecap:round; stroke-linejoin:round;">
</g>
<g style="fill:#000000; fill-opacity:1.0; 
stroke:#000000; stroke-width:511.811; stroke-opacity:1; 
stroke-linecap:round; stroke-linejoin:round;">
</g>
<g style="fill:#000000; fill-opacity:0.0; 
stroke:#000000; stroke-width:511.811; stroke-opacity:1; 
stroke-linecap:round; stroke-linejoin:round;">
<path d="M68080 37952
L68297 37952
" />
<path d="M68080 38740
L68297 38740
" />
<path d="M68080 39527
L68297 39527
" />
<path d="M68080 40314
L68297 40314
" />
<path d="M68080 41102
L68297 41102
" />
</g>
<g style="fill:#000000; fill-opacity:0.0; 
stroke:#000000; stroke-width:0; stroke-opacity:1; 
stroke-linecap:round; stroke-linejoin:round;">
</g>
<g style="fill:#000000; fill-opacity:1.0; 
stroke:#000000; stroke-width:0; stroke-opacity:1; 
stroke-linecap:round; stroke-linejoin:round;">
<path style="fill:#000000; fill-opacity:1.0; 
stroke:#000000; stroke-width:0; stroke-opacity:1; 
stroke-linecap:round; stroke-linejoin:round;fill-rule:evenodd;"
d="M 68457,41634.4
68467.3,41635.9
68477.5,41638.4
68487.3,41642
68496.8,41646.4
68505.8,41651.8
68514.2,41658.1
68521.9,41665.1
68528.9,41672.8
68535.2,41681.2
68540.6,41690.2
68545,41699.7
68548.6,41709.5
68551.1,41719.7
68552.6,41730
68553.1,41740.5
68553.1,42039
68552.6,42049.5
68551.1,42059.8
68548.6,42070
68545,42079.8
68540.6,42089.3
68535.2,42098.3
68528.9,42106.7
68521.9,42114.4
68514.2,42121.5
68505.8,42127.7
68496.8,42133.1
68487.3,42137.6
68477.5,42141.1
68467.3,42143.6
68457,42145.2
68446.5,42145.7
67931.4,42145.7
67921,42145.2
67910.6,42143.6
67900.5,42141.1
67890.6,42137.6
67881.2,42133.1
67872.2,42127.7
67863.8,42121.5
67856,42114.4
67849,42106.7
67842.8,42098.3
67837.4,42089.3
67832.9,42079.8
67829.4,42070
67826.9,42059.8
67825.3,42049.5
67824.8,42039
67824.8,41740.5
67825.3,41730
67826.9,41719.7
67829.4,41709.5
67832.9,41699.7
67837.4,41690.2
67842.8,41681.2
67849,41672.8
67856,41665.1
67863.8,41658.1
67872.2,41651.8
67881.2,41646.4
67890.6,41642
67900.5,41638.4
67910.6,41635.9
67921,41634.4
67931.4,41633.9
68446.5,41633.9
Z" /> 
</g>
<g >
</g>
<g style="fill:#000000; fill-opacity:1.0; 
stroke:#000000; stroke-width:0; stroke-opacity:1; 
stroke-linecap:round; stroke-linejoin:round;">
</g>
<g style="fill:#000000; fill-opacity:1.0; 
stroke:#000000; stroke-width:511.811; stroke-opacity:1; 
stroke-linecap:round; stroke-linejoin:round;">
</g>
<g style="fill:#000000; fill-opacity:0.0; 
stroke:#000000; stroke-width:511.811; stroke-opacity:1; 
stroke-linecap:round; stroke-linejoin:round;">
<path d="M60994 37952
L61210 37952
" />
<path d="M60994 38740
L61210 38740
" />
<path d="M60994 39527
L61210 39527
" />
<path d="M60994 40314
L61210 40314
" />
<path d="M60994 41102
L61210 41102
" />
</g>
<g style="fill:#000000; fill-opacity:0.0; 
stroke:#000000; stroke-width:0; stroke-opacity:1; 
stroke-linecap:round; stroke-linejoin:round;">
</g>
<g style="fill:#000000; fill-opacity:1.0; 
stroke:#000000; stroke-width:0; stroke-opacity:1; 
stroke-linecap:round; stroke-linejoin:round;">
<path style="fill:#000000; fill-opacity:1.0; 
stroke:#000000; stroke-width:0; stroke-opacity:1; 
stroke-linecap:round; stroke-linejoin:round;fill-rule:evenodd;"
d="M 61370.4,41634.4
61380.7,41635.9
61390.9,41638.4
61400.7,41642
61410.2,41646.4
61419.1,41651.8
61427.6,41658.1
61435.3,41665.1
61442.3,41672.8
61448.6,41681.2
61453.9,41690.2
61458.4,41699.7
61461.9,41709.5
61464.5,41719.7
61466,41730
61466.5,41740.5
61466.5,42039
61466,42049.5
61464.5,42059.8
61461.9,42070
61458.4,42079.8
61453.9,42089.3
61448.6,42098.3
61442.3,42106.7
61435.3,42114.4
61427.6,42121.5
61419.1,42127.7
61410.2,42133.1
61400.7,42137.6
61390.9,42141.1
61380.7,42143.6
61370.4,42145.2
61359.9,42145.7
60844.8,42145.7
60834.4,42145.2
60824,42143.6
60813.9,42141.1
60804,42137.6
60794.6,42133.1
60785.6,42127.7
60777.2,42121.5
60769.4,42114.4
60762.4,42106.7
60756.2,42098.3
60750.8,42089.3
60746.3,42079.8
60742.8,42070
60740.2,42059.8
60738.7,42049.5
60738.2,42039
60738.2,41740.5
60738.7,41730
60740.2,41719.7
60742.8,41709.5
60746.3,41699.7
60750.8,41690.2
60756.2,41681.2
60762.4,41672.8
60769.4,41665.1
60777.2,41658.1
60785.6,41651.8
60794.6,41646.4
60804,41642
60813.9,41638.4
60824,41635.9
60834.4,41634.4
60844.8,41633.9
61359.9,41633.9
Z" /> 
</g>
<g >
</g>
<g style="fill:#000000; fill-opacity:1.0; 
stroke:#000000; stroke-width:0; stroke-opacity:1; 
stroke-linecap:round; stroke-linejoin:round;">
<path style="fill:#000000; fill-opacity:1.0; 
stroke:#000000; stroke-width:0; stroke-opacity:1; 
stroke-linecap:round; stroke-linejoin:round;fill-rule:evenodd;"
d="M 66302.2,41890.3
66312.5,41891.8
66322.5,41894.3
66332.3,41897.8
66341.7,41902.3
66350.6,41907.6
66359,41913.8
66366.6,41920.8
66373.6,41928.4
66379.8,41936.8
66385.1,41945.7
66389.6,41955.1
66393.1,41964.9
66395.6,41974.9
66397.1,41985.2
66397.6,41995.6
66397.6,42207.2
66397.1,42217.6
66395.6,42227.8
66393.1,42237.9
66389.6,42247.7
66385.1,42257.1
66379.8,42266
66373.6,42274.3
66366.6,42282
66359,42289
66350.6,42295.2
66341.7,42300.5
66332.3,42304.9
66322.5,42308.4
66312.5,42311
66302.2,42312.5
66291.8,42313
65912.9,42313
65902.5,42312.5
65892.3,42311
65882.2,42308.4
65872.4,42304.9
65863,42300.5
65854.1,42295.2
65845.8,42289
65838.1,42282
65831.1,42274.3
65824.9,42266
65819.6,42257.1
65815.1,42247.7
65811.6,42237.9
65809.1,42227.8
65807.6,42217.6
65807.1,42207.2
65807.1,41995.6
65807.6,41985.2
65809.1,41974.9
65811.6,41964.9
65815.1,41955.1
65819.6,41945.7
65824.9,41936.8
65831.1,41928.4
65838.1,41920.8
65845.8,41913.8
65854.1,41907.6
65863,41902.3
65872.4,41897.8
65882.2,41894.3
65892.3,41891.8
65902.5,41890.3
65912.9,41889.8
66291.8,41889.8
Z" /> 
<path style="fill:#000000; fill-opacity:1.0; 
stroke:#000000; stroke-width:0; stroke-opacity:1; 
stroke-linecap:round; stroke-linejoin:round;fill-rule:evenodd;"
d="M 66302.2,41152.1
66312.5,41153.6
66322.5,41156.1
66332.3,41159.6
66341.7,41164.1
66350.6,41169.4
66359,41175.6
66366.6,41182.6
66373.6,41190.3
66379.8,41198.6
66385.1,41207.5
66389.6,41216.9
66393.1,41226.7
66395.6,41236.7
66397.1,41247
66397.6,41257.4
66397.6,41469
66397.1,41479.4
66395.6,41489.6
66393.1,41499.7
66389.6,41509.5
66385.1,41518.9
66379.8,41527.8
66373.6,41536.1
66366.6,41543.8
66359,41550.8
66350.6,41557
66341.7,41562.3
66332.3,41566.7
66322.5,41570.2
66312.5,41572.8
66302.2,41574.3
66291.8,41574.8
65912.9,41574.8
65902.5,41574.3
65892.3,41572.8
65882.2,41570.2
65872.4,41566.7
65863,41562.3
65854.1,41557
65845.8,41550.8
65838.1,41543.8
65831.1,41536.1
65824.9,41527.8
65819.6,41518.9
65815.1,41509.5
65811.6,41499.7
65809.1,41489.6
65807.6,41479.4
65807.1,41469
65807.1,41257.4
65807.6,41247
65809.1,41236.7
65811.6,41226.7
65815.1,41216.9
65819.6,41207.5
65824.9,41198.6
65831.1,41190.3
65838.1,41182.6
65845.8,41175.6
65854.1,41169.4
65863,41164.1
65872.4,41159.6
65882.2,41156.1
65892.3,41153.6
65902.5,41152.1
65912.9,41151.6
66291.8,41151.6
Z" /> 
</g>
<g >
</g>
<g style="fill:#000000; fill-opacity:1.0; 
stroke:#000000; stroke-width:0; stroke-opacity:1; 
stroke-linecap:round; stroke-linejoin:round;">
<path style="fill:#000000; fill-opacity:1.0; 
stroke:#000000; stroke-width:0; stroke-opacity:1; 
stroke-linecap:round; stroke-linejoin:round;fill-rule:evenodd;"
d="M 63940,41875.5
63950.3,41877
63960.3,41879.6
63970.1,41883.1
63979.5,41887.5
63988.4,41892.8
63996.7,41899
64004.4,41906
64011.4,41913.7
64017.6,41922
64022.9,41930.9
64027.4,41940.3
64030.9,41950.1
64033.4,41960.2
64034.9,41970.4
64035.4,41980.8
64035.4,42192.4
64034.9,42202.8
64033.4,42213.1
64030.9,42223.1
64027.4,42232.9
64022.9,42242.3
64017.6,42251.2
64011.4,42259.5
64004.4,42267.2
63996.7,42274.2
63988.4,42280.4
63979.5,42285.7
63970.1,42290.2
63960.3,42293.7
63950.3,42296.2
63940,42297.7
63929.6,42298.2
63550.7,42298.2
63540.3,42297.7
63530,42296.2
63520,42293.7
63510.2,42290.2
63500.8,42285.7
63491.9,42280.4
63483.6,42274.2
63475.9,42267.2
63468.9,42259.5
63462.7,42251.2
63457.4,42242.3
63452.9,42232.9
63449.4,42223.1
63446.9,42213.1
63445.4,42202.8
63444.9,42192.4
63444.9,41980.8
63445.4,41970.4
63446.9,41960.2
63449.4,41950.1
63452.9,41940.3
63457.4,41930.9
63462.7,41922
63468.9,41913.7
63475.9,41906
63483.6,41899
63491.9,41892.8
63500.8,41887.5
63510.2,41883.1
63520,41879.6
63530,41877
63540.3,41875.5
63550.7,41875
63929.6,41875
Z" /> 
<path style="fill:#000000; fill-opacity:1.0; 
stroke:#000000; stroke-width:0; stroke-opacity:1; 
stroke-linecap:round; stroke-linejoin:round;fill-rule:evenodd;"
d="M 63940,41137.3
63950.3,41138.8
63960.3,41141.4
63970.1,41144.9
63979.5,41149.3
63988.4,41154.6
63996.7,41160.8
64004.4,41167.8
64011.4,41175.5
64017.6,41183.8
64022.9,41192.7
64027.4,41202.1
64030.9,41211.9
64033.4,41222
64034.9,41232.2
64035.4,41242.6
64035.4,41454.2
64034.9,41464.6
64033.4,41474.9
64030.9,41484.9
64027.4,41494.7
64022.9,41504.1
64017.6,41513
64011.4,41521.4
64004.4,41529
63996.7,41536
63988.4,41542.2
63979.5,41547.5
63970.1,41552
63960.3,41555.5
63950.3,41558
63940,41559.5
63929.6,41560
63550.7,41560
63540.3,41559.5
63530,41558
63520,41555.5
63510.2,41552
63500.8,41547.5
63491.9,41542.2
63483.6,41536
63475.9,41529
63468.9,41521.4
63462.7,41513
63457.4,41504.1
63452.9,41494.7
63449.4,41484.9
63446.9,41474.9
63445.4,41464.6
63444.9,41454.2
63444.9,41242.6
63445.4,41232.2
63446.9,41222
63449.4,41211.9
63452.9,41202.1
63457.4,41192.7
63462.7,41183.8
63468.9,41175.5
63475.9,41167.8
63483.6,41160.8
63491.9,41154.6
63500.8,41149.3
63510.2,41144.9
63520,41141.4
63530,41138.8
63540.3,41137.3
63550.7,41136.8
63929.6,41136.8
Z" /> 
</g>
<g >
</g>
<g style="fill:#000000; fill-opacity:1.0; 
stroke:#000000; stroke-width:0; stroke-opacity:1; 
stroke-linecap:round; stroke-linejoin:round;">
<path style="fill:#000000; fill-opacity:1.0; 
stroke:#000000; stroke-width:0; stroke-opacity:1; 
stroke-linecap:round; stroke-linejoin:round;fill-rule:evenodd;"
d="M 63152.6,41875.5
63162.9,41877
63172.9,41879.6
63182.7,41883.1
63192.1,41887.5
63201,41892.8
63209.3,41899
63217,41906
63224,41913.7
63230.2,41922
63235.5,41930.9
63240,41940.3
63243.5,41950.1
63246,41960.2
63247.5,41970.4
63248,41980.8
63248,42192.4
63247.5,42202.8
63246,42213.1
63243.5,42223.1
63240,42232.9
63235.5,42242.3
63230.2,42251.2
63224,42259.5
63217,42267.2
63209.3,42274.2
63201,42280.4
63192.1,42285.7
63182.7,42290.2
63172.9,42293.7
63162.9,42296.2
63152.6,42297.7
63142.2,42298.2
62763.3,42298.2
62752.9,42297.7
62742.6,42296.2
62732.6,42293.7
62722.8,42290.2
62713.4,42285.7
62704.5,42280.4
62696.2,42274.2
62688.5,42267.2
62681.5,42259.5
62675.3,42251.2
62670,42242.3
62665.5,42232.9
62662,42223.1
62659.5,42213.1
62658,42202.8
62657.5,42192.4
62657.5,41980.8
62658,41970.4
62659.5,41960.2
62662,41950.1
62665.5,41940.3
62670,41930.9
62675.3,41922
62681.5,41913.7
62688.5,41906
62696.2,41899
62704.5,41892.8
62713.4,41887.5
62722.8,41883.1
62732.6,41879.6
62742.6,41877
62752.9,41875.5
62763.3,41875
63142.2,41875
Z" /> 
<path style="fill:#000000; fill-opacity:1.0; 
stroke:#000000; stroke-width:0; stroke-opacity:1; 
stroke-linecap:round; stroke-linejoin:round;fill-rule:evenodd;"
d="M 63152.6,41137.3
63162.9,41138.8
63172.9,41141.4
63182.7,41144.9
63192.1,41149.3
63201,41154.6
63209.3,41160.8
63217,41167.8
63224,41175.5
63230.2,41183.8
63235.5,41192.7
63240,41202.1
63243.5,41211.9
63246,41222
63247.5,41232.2
63248,41242.6
63248,41454.2
63247.5,41464.6
63246,41474.9
63243.5,41484.9
63240,41494.7
63235.5,41504.1
63230.2,41513
63224,41521.4
63217,41529
63209.3,41536
63201,41542.2
63192.1,41547.5
63182.7,41552
63172.9,41555.5
63162.9,41558
63152.6,41559.5
63142.2,41560
62763.3,41560
62752.9,41559.5
62742.6,41558
62732.6,41555.5
62722.8,41552
62713.4,41547.5
62704.5,41542.2
62696.2,41536
62688.5,41529
62681.5,41521.4
62675.3,41513
62670,41504.1
62665.5,41494.7
62662,41484.9
62659.5,41474.9
62658,41464.6
62657.5,41454.2
62657.5,41242.6
62658,41232.2
62659.5,41222
62662,41211.9
62665.5,41202.1
62670,41192.7
62675.3,41183.8
62681.5,41175.5
62688.5,41167.8
62696.2,41160.8
62704.5,41154.6
62713.4,41149.3
62722.8,41144.9
62732.6,41141.4
62742.6,41138.8
62752.9,41137.3
62763.3,41136.8
63142.2,41136.8
Z" /> 
</g>
<g >
</g>
<g >
</g>
<g >
</g>
</g> 
</svg>
