%TF.GenerationSoftware,KiCad,Pcbnew,5.1.6-c6e7f7d~87~ubuntu20.04.1*%
%TF.CreationDate,2020-08-25T19:21:37-04:00*%
%TF.ProjectId,4_Channel_Level_Shifter,345f4368-616e-46e6-956c-5f4c6576656c,rev?*%
%TF.SameCoordinates,Original*%
%TF.FileFunction,Soldermask,Top*%
%TF.FilePolarity,Negative*%
%FSLAX46Y46*%
G04 Gerber Fmt 4.6, Leading zero omitted, Abs format (unit mm)*
G04 Created by KiCad (PCBNEW 5.1.6-c6e7f7d~87~ubuntu20.04.1) date 2020-08-25 19:21:37*
%MOMM*%
%LPD*%
G01*
G04 APERTURE LIST*
%ADD10R,1.160000X0.750000*%
%ADD11R,1.000000X0.900000*%
%ADD12O,1.850000X1.300000*%
G04 APERTURE END LIST*
D10*
%TO.C,U1*%
X166000000Y-105050000D03*
X166000000Y-106950000D03*
X163800000Y-106950000D03*
X163800000Y-106000000D03*
X163800000Y-105050000D03*
%TD*%
%TO.C,R4*%
G36*
G01*
X170281250Y-97062500D02*
X169318750Y-97062500D01*
G75*
G02*
X169050000Y-96793750I0J268750D01*
G01*
X169050000Y-96256250D01*
G75*
G02*
X169318750Y-95987500I268750J0D01*
G01*
X170281250Y-95987500D01*
G75*
G02*
X170550000Y-96256250I0J-268750D01*
G01*
X170550000Y-96793750D01*
G75*
G02*
X170281250Y-97062500I-268750J0D01*
G01*
G37*
G36*
G01*
X170281250Y-98937500D02*
X169318750Y-98937500D01*
G75*
G02*
X169050000Y-98668750I0J268750D01*
G01*
X169050000Y-98131250D01*
G75*
G02*
X169318750Y-97862500I268750J0D01*
G01*
X170281250Y-97862500D01*
G75*
G02*
X170550000Y-98131250I0J-268750D01*
G01*
X170550000Y-98668750D01*
G75*
G02*
X170281250Y-98937500I-268750J0D01*
G01*
G37*
%TD*%
%TO.C,R3*%
G36*
G01*
X163781250Y-97162500D02*
X162818750Y-97162500D01*
G75*
G02*
X162550000Y-96893750I0J268750D01*
G01*
X162550000Y-96356250D01*
G75*
G02*
X162818750Y-96087500I268750J0D01*
G01*
X163781250Y-96087500D01*
G75*
G02*
X164050000Y-96356250I0J-268750D01*
G01*
X164050000Y-96893750D01*
G75*
G02*
X163781250Y-97162500I-268750J0D01*
G01*
G37*
G36*
G01*
X163781250Y-99037500D02*
X162818750Y-99037500D01*
G75*
G02*
X162550000Y-98768750I0J268750D01*
G01*
X162550000Y-98231250D01*
G75*
G02*
X162818750Y-97962500I268750J0D01*
G01*
X163781250Y-97962500D01*
G75*
G02*
X164050000Y-98231250I0J-268750D01*
G01*
X164050000Y-98768750D01*
G75*
G02*
X163781250Y-99037500I-268750J0D01*
G01*
G37*
%TD*%
%TO.C,R2*%
G36*
G01*
X170281250Y-101937500D02*
X169318750Y-101937500D01*
G75*
G02*
X169050000Y-101668750I0J268750D01*
G01*
X169050000Y-101131250D01*
G75*
G02*
X169318750Y-100862500I268750J0D01*
G01*
X170281250Y-100862500D01*
G75*
G02*
X170550000Y-101131250I0J-268750D01*
G01*
X170550000Y-101668750D01*
G75*
G02*
X170281250Y-101937500I-268750J0D01*
G01*
G37*
G36*
G01*
X170281250Y-103812500D02*
X169318750Y-103812500D01*
G75*
G02*
X169050000Y-103543750I0J268750D01*
G01*
X169050000Y-103006250D01*
G75*
G02*
X169318750Y-102737500I268750J0D01*
G01*
X170281250Y-102737500D01*
G75*
G02*
X170550000Y-103006250I0J-268750D01*
G01*
X170550000Y-103543750D01*
G75*
G02*
X170281250Y-103812500I-268750J0D01*
G01*
G37*
%TD*%
%TO.C,R1*%
G36*
G01*
X163781250Y-101900000D02*
X162818750Y-101900000D01*
G75*
G02*
X162550000Y-101631250I0J268750D01*
G01*
X162550000Y-101093750D01*
G75*
G02*
X162818750Y-100825000I268750J0D01*
G01*
X163781250Y-100825000D01*
G75*
G02*
X164050000Y-101093750I0J-268750D01*
G01*
X164050000Y-101631250D01*
G75*
G02*
X163781250Y-101900000I-268750J0D01*
G01*
G37*
G36*
G01*
X163781250Y-103775000D02*
X162818750Y-103775000D01*
G75*
G02*
X162550000Y-103506250I0J268750D01*
G01*
X162550000Y-102968750D01*
G75*
G02*
X162818750Y-102700000I268750J0D01*
G01*
X163781250Y-102700000D01*
G75*
G02*
X164050000Y-102968750I0J-268750D01*
G01*
X164050000Y-103506250D01*
G75*
G02*
X163781250Y-103775000I-268750J0D01*
G01*
G37*
%TD*%
D11*
%TO.C,Q4*%
X166000000Y-97400000D03*
X168000000Y-96450000D03*
X168000000Y-98350000D03*
%TD*%
%TO.C,Q3*%
X159500000Y-97500000D03*
X161500000Y-96550000D03*
X161500000Y-98450000D03*
%TD*%
%TO.C,Q2*%
X166000000Y-102400000D03*
X168000000Y-101450000D03*
X168000000Y-103350000D03*
%TD*%
%TO.C,Q1*%
X159500000Y-102300000D03*
X161500000Y-101350000D03*
X161500000Y-103250000D03*
%TD*%
D12*
%TO.C,J2*%
X173200000Y-96400000D03*
X173200000Y-98400000D03*
X173200000Y-100400000D03*
X173200000Y-102400000D03*
X173200000Y-104400000D03*
G36*
G01*
X173854168Y-107050000D02*
X172545832Y-107050000D01*
G75*
G02*
X172275000Y-106779168I0J270832D01*
G01*
X172275000Y-106020832D01*
G75*
G02*
X172545832Y-105750000I270832J0D01*
G01*
X173854168Y-105750000D01*
G75*
G02*
X174125000Y-106020832I0J-270832D01*
G01*
X174125000Y-106779168D01*
G75*
G02*
X173854168Y-107050000I-270832J0D01*
G01*
G37*
%TD*%
%TO.C,J1*%
X155200000Y-96400000D03*
X155200000Y-98400000D03*
X155200000Y-100400000D03*
X155200000Y-102400000D03*
X155200000Y-104400000D03*
G36*
G01*
X155854168Y-107050000D02*
X154545832Y-107050000D01*
G75*
G02*
X154275000Y-106779168I0J270832D01*
G01*
X154275000Y-106020832D01*
G75*
G02*
X154545832Y-105750000I270832J0D01*
G01*
X155854168Y-105750000D01*
G75*
G02*
X156125000Y-106020832I0J-270832D01*
G01*
X156125000Y-106779168D01*
G75*
G02*
X155854168Y-107050000I-270832J0D01*
G01*
G37*
%TD*%
%TO.C,C3*%
G36*
G01*
X167418750Y-106400000D02*
X168381250Y-106400000D01*
G75*
G02*
X168650000Y-106668750I0J-268750D01*
G01*
X168650000Y-107206250D01*
G75*
G02*
X168381250Y-107475000I-268750J0D01*
G01*
X167418750Y-107475000D01*
G75*
G02*
X167150000Y-107206250I0J268750D01*
G01*
X167150000Y-106668750D01*
G75*
G02*
X167418750Y-106400000I268750J0D01*
G01*
G37*
G36*
G01*
X167418750Y-104525000D02*
X168381250Y-104525000D01*
G75*
G02*
X168650000Y-104793750I0J-268750D01*
G01*
X168650000Y-105331250D01*
G75*
G02*
X168381250Y-105600000I-268750J0D01*
G01*
X167418750Y-105600000D01*
G75*
G02*
X167150000Y-105331250I0J268750D01*
G01*
X167150000Y-104793750D01*
G75*
G02*
X167418750Y-104525000I268750J0D01*
G01*
G37*
%TD*%
%TO.C,C2*%
G36*
G01*
X161418750Y-106362500D02*
X162381250Y-106362500D01*
G75*
G02*
X162650000Y-106631250I0J-268750D01*
G01*
X162650000Y-107168750D01*
G75*
G02*
X162381250Y-107437500I-268750J0D01*
G01*
X161418750Y-107437500D01*
G75*
G02*
X161150000Y-107168750I0J268750D01*
G01*
X161150000Y-106631250D01*
G75*
G02*
X161418750Y-106362500I268750J0D01*
G01*
G37*
G36*
G01*
X161418750Y-104487500D02*
X162381250Y-104487500D01*
G75*
G02*
X162650000Y-104756250I0J-268750D01*
G01*
X162650000Y-105293750D01*
G75*
G02*
X162381250Y-105562500I-268750J0D01*
G01*
X161418750Y-105562500D01*
G75*
G02*
X161150000Y-105293750I0J268750D01*
G01*
X161150000Y-104756250D01*
G75*
G02*
X161418750Y-104487500I268750J0D01*
G01*
G37*
%TD*%
%TO.C,C1*%
G36*
G01*
X159418750Y-106362500D02*
X160381250Y-106362500D01*
G75*
G02*
X160650000Y-106631250I0J-268750D01*
G01*
X160650000Y-107168750D01*
G75*
G02*
X160381250Y-107437500I-268750J0D01*
G01*
X159418750Y-107437500D01*
G75*
G02*
X159150000Y-107168750I0J268750D01*
G01*
X159150000Y-106631250D01*
G75*
G02*
X159418750Y-106362500I268750J0D01*
G01*
G37*
G36*
G01*
X159418750Y-104487500D02*
X160381250Y-104487500D01*
G75*
G02*
X160650000Y-104756250I0J-268750D01*
G01*
X160650000Y-105293750D01*
G75*
G02*
X160381250Y-105562500I-268750J0D01*
G01*
X159418750Y-105562500D01*
G75*
G02*
X159150000Y-105293750I0J268750D01*
G01*
X159150000Y-104756250D01*
G75*
G02*
X159418750Y-104487500I268750J0D01*
G01*
G37*
%TD*%
M02*
