<?xml version="1.0" standalone="no"?>
 <!DOCTYPE svg PUBLIC "-//W3C//DTD SVG 1.1//EN" 
 "http://www.w3.org/Graphics/SVG/1.1/DTD/svg11.dtd"> 
<svg
  xmlns:svg="http://www.w3.org/2000/svg"
  xmlns="http://www.w3.org/2000/svg"
  xmlns:xlink="http://www.w3.org/1999/xlink"
  version="1.1"
  width="29.700220cm" height="21.000720cm" viewBox="0 0 116930 82680">
<title>SVG Picture created as 4_Channel_Level_Shifter-F_Cu.svg date 2020/08/25 19:22:08 </title>
  <desc>Picture generated by PCBNEW </desc>
<g style="fill:#000000; fill-opacity:1;stroke:#000000; stroke-opacity:1;
stroke-linecap:round; stroke-linejoin:round;"
 transform="translate(0 0) scale(1 1)">
</g>
<g style="fill:#000000; fill-opacity:0.0; 
stroke:#000000; stroke-width:-0.000393701; stroke-opacity:1; 
stroke-linecap:round; stroke-linejoin:round;">
<g >
</g>
<g >
</g>
<g style="fill:#000000; fill-opacity:0.0; 
stroke:#000000; stroke-width:-0.000393701; stroke-opacity:1; 
stroke-linecap:round; stroke-linejoin:round;">
</g>
<g style="fill:#000000; fill-opacity:0.0; 
stroke:#000000; stroke-width:0; stroke-opacity:1; 
stroke-linecap:round; stroke-linejoin:round;">
</g>
<g style="fill:#000000; fill-opacity:1.0; 
stroke:#000000; stroke-width:0; stroke-opacity:1; 
stroke-linecap:round; stroke-linejoin:round;">
<path style="fill:#000000; fill-opacity:1.0; 
stroke:#000000; stroke-width:0; stroke-opacity:1; 
stroke-linecap:round; stroke-linejoin:round;fill-rule:evenodd;"
d="M 65145.7,41486.2
65145.7,41230.3
65563,41230.3
65563,41486.2
Z" /> 
<path style="fill:#000000; fill-opacity:1.0; 
stroke:#000000; stroke-width:0; stroke-opacity:1; 
stroke-linecap:round; stroke-linejoin:round;fill-rule:evenodd;"
d="M 65145.7,42234.3
65145.7,41978.3
65563,41978.3
65563,42234.3
Z" /> 
<path style="fill:#000000; fill-opacity:1.0; 
stroke:#000000; stroke-width:0; stroke-opacity:1; 
stroke-linecap:round; stroke-linejoin:round;fill-rule:evenodd;"
d="M 64279.5,42234.3
64279.5,41978.3
64696.9,41978.3
64696.9,42234.3
Z" /> 
<path style="fill:#000000; fill-opacity:1.0; 
stroke:#000000; stroke-width:0; stroke-opacity:1; 
stroke-linecap:round; stroke-linejoin:round;fill-rule:evenodd;"
d="M 64279.5,41860.2
64279.5,41604.3
64696.9,41604.3
64696.9,41860.2
Z" /> 
<path style="fill:#000000; fill-opacity:1.0; 
stroke:#000000; stroke-width:0; stroke-opacity:1; 
stroke-linecap:round; stroke-linejoin:round;fill-rule:evenodd;"
d="M 64279.5,41486.2
64279.5,41230.3
64696.9,41230.3
64696.9,41486.2
Z" /> 
</g>
<g >
</g>
<g style="fill:#000000; fill-opacity:1.0; 
stroke:#000000; stroke-width:0; stroke-opacity:1; 
stroke-linecap:round; stroke-linejoin:round;">
<path style="fill:#000000; fill-opacity:1.0; 
stroke:#000000; stroke-width:0; stroke-opacity:1; 
stroke-linecap:round; stroke-linejoin:round;fill-rule:evenodd;"
d="M 67039.4,37810.5
67048.7,37811.9
67057.9,37814.2
67066.7,37817.3
67075.3,37821.4
67083.3,37826.2
67090.9,37831.8
67097.9,37838.1
67104.2,37845.1
67109.8,37852.7
67114.7,37860.8
67118.7,37869.3
67121.9,37878.1
67124.1,37887.3
67125.5,37896.6
67126,37906
67126,38097.9
67125.5,38107.3
67124.1,38116.7
67121.9,38125.8
67118.7,38134.7
67114.7,38143.2
67109.8,38151.2
67104.2,38158.8
67097.9,38165.8
67090.9,38172.1
67083.3,38177.7
67075.3,38182.6
67066.7,38186.6
67057.9,38189.8
67048.7,38192.1
67039.4,38193.4
67030,38193.9
66670.8,38193.9
66661.4,38193.4
66652,38192.1
66642.9,38189.8
66634,38186.6
66625.5,38182.6
66617.5,38177.7
66609.9,38172.1
66602.9,38165.8
66596.6,38158.8
66591,38151.2
66586.1,38143.2
66582.1,38134.7
66578.9,38125.8
66576.6,38116.7
66575.3,38107.3
66574.8,38097.9
66574.8,37906
66575.3,37896.6
66576.6,37887.3
66578.9,37878.1
66582.1,37869.3
66586.1,37860.8
66591,37852.7
66596.6,37845.1
66602.9,37838.1
66609.9,37831.8
66617.5,37826.2
66625.5,37821.4
66634,37817.3
66642.9,37814.2
66652,37811.9
66661.4,37810.5
66670.8,37810
67030,37810
Z" /> 
<path style="fill:#000000; fill-opacity:1.0; 
stroke:#000000; stroke-width:0; stroke-opacity:1; 
stroke-linecap:round; stroke-linejoin:round;fill-rule:evenodd;"
d="M 67039.4,38548.7
67048.7,38550.1
67057.9,38552.4
67066.7,38555.5
67075.3,38559.6
67083.3,38564.4
67090.9,38570
67097.9,38576.3
67104.2,38583.3
67109.8,38590.9
67114.7,38599
67118.7,38607.5
67121.9,38616.3
67124.1,38625.5
67125.5,38634.8
67126,38644.2
67126,38836.1
67125.5,38845.5
67124.1,38854.8
67121.9,38864
67118.7,38872.8
67114.7,38881.4
67109.8,38889.4
67104.2,38897
67097.9,38904
67090.9,38910.3
67083.3,38915.9
67075.3,38920.8
67066.7,38924.8
67057.9,38928
67048.7,38930.2
67039.4,38931.6
67030,38932.1
66670.8,38932.1
66661.4,38931.6
66652,38930.2
66642.9,38928
66634,38924.8
66625.5,38920.8
66617.5,38915.9
66609.9,38910.3
66602.9,38904
66596.6,38897
66591,38889.4
66586.1,38881.4
66582.1,38872.8
66578.9,38864
66576.6,38854.8
66575.3,38845.5
66574.8,38836.1
66574.8,38644.2
66575.3,38634.8
66576.6,38625.5
66578.9,38616.3
66582.1,38607.5
66586.1,38599
66591,38590.9
66596.6,38583.3
66602.9,38576.3
66609.9,38570
66617.5,38564.4
66625.5,38559.6
66634,38555.5
66642.9,38552.4
66652,38550.1
66661.4,38548.7
66670.8,38548.2
67030,38548.2
Z" /> 
</g>
<g >
</g>
<g style="fill:#000000; fill-opacity:1.0; 
stroke:#000000; stroke-width:0; stroke-opacity:1; 
stroke-linecap:round; stroke-linejoin:round;">
<path style="fill:#000000; fill-opacity:1.0; 
stroke:#000000; stroke-width:0; stroke-opacity:1; 
stroke-linecap:round; stroke-linejoin:round;fill-rule:evenodd;"
d="M 64480.4,37849.9
64489.7,37851.3
64498.8,37853.5
64507.7,37856.7
64516.2,37860.7
64524.3,37865.6
64531.8,37871.2
64538.8,37877.5
64545.1,37884.5
64550.8,37892.1
64555.6,37900.1
64559.6,37908.7
64562.8,37917.5
64565.1,37926.7
64566.5,37936
64566.9,37945.4
64566.9,38137.3
64566.5,38146.7
64565.1,38156
64562.8,38165.2
64559.6,38174
64555.6,38182.5
64550.8,38190.6
64545.1,38198.2
64538.8,38205.2
64531.8,38211.5
64524.3,38217.1
64516.2,38221.9
64507.7,38226
64498.8,38229.1
64489.7,38231.4
64480.4,38232.8
64471,38233.3
64111.7,38233.3
64102.3,38232.8
64093,38231.4
64083.9,38229.1
64075,38226
64066.5,38221.9
64058.4,38217.1
64050.8,38211.5
64043.9,38205.2
64037.5,38198.2
64031.9,38190.6
64027.1,38182.5
64023.1,38174
64019.9,38165.2
64017.6,38156
64016.2,38146.7
64015.7,38137.3
64015.7,37945.4
64016.2,37936
64017.6,37926.7
64019.9,37917.5
64023.1,37908.7
64027.1,37900.1
64031.9,37892.1
64037.5,37884.5
64043.9,37877.5
64050.8,37871.2
64058.4,37865.6
64066.5,37860.7
64075,37856.7
64083.9,37853.5
64093,37851.3
64102.3,37849.9
64111.7,37849.4
64471,37849.4
Z" /> 
<path style="fill:#000000; fill-opacity:1.0; 
stroke:#000000; stroke-width:0; stroke-opacity:1; 
stroke-linecap:round; stroke-linejoin:round;fill-rule:evenodd;"
d="M 64480.4,38588.1
64489.7,38589.4
64498.8,38591.7
64507.7,38594.9
64516.2,38598.9
64524.3,38603.8
64531.8,38609.4
64538.8,38615.7
64545.1,38622.7
64550.8,38630.2
64555.6,38638.3
64559.6,38646.8
64562.8,38655.7
64565.1,38664.8
64566.5,38674.2
64566.9,38683.6
64566.9,38875.5
64566.5,38884.9
64565.1,38894.2
64562.8,38903.3
64559.6,38912.2
64555.6,38920.7
64550.8,38928.8
64545.1,38936.4
64538.8,38943.3
64531.8,38949.7
64524.3,38955.3
64516.2,38960.1
64507.7,38964.2
64498.8,38967.3
64489.7,38969.6
64480.4,38971
64471,38971.5
64111.7,38971.5
64102.3,38971
64093,38969.6
64083.9,38967.3
64075,38964.2
64066.5,38960.1
64058.4,38955.3
64050.8,38949.7
64043.9,38943.3
64037.5,38936.4
64031.9,38928.8
64027.1,38920.7
64023.1,38912.2
64019.9,38903.3
64017.6,38894.2
64016.2,38884.9
64015.7,38875.5
64015.7,38683.6
64016.2,38674.2
64017.6,38664.8
64019.9,38655.7
64023.1,38646.8
64027.1,38638.3
64031.9,38630.2
64037.5,38622.7
64043.9,38615.7
64050.8,38609.4
64058.4,38603.8
64066.5,38598.9
64075,38594.9
64083.9,38591.7
64093,38589.4
64102.3,38588.1
64111.7,38587.6
64471,38587.6
Z" /> 
</g>
<g >
</g>
<g style="fill:#000000; fill-opacity:1.0; 
stroke:#000000; stroke-width:0; stroke-opacity:1; 
stroke-linecap:round; stroke-linejoin:round;">
<path style="fill:#000000; fill-opacity:1.0; 
stroke:#000000; stroke-width:0; stroke-opacity:1; 
stroke-linecap:round; stroke-linejoin:round;fill-rule:evenodd;"
d="M 67039.4,39729.8
67048.7,39731.2
67057.9,39733.5
67066.7,39736.6
67075.3,39740.7
67083.3,39745.5
67090.9,39751.1
67097.9,39757.4
67104.2,39764.4
67109.8,39772
67114.7,39780.1
67118.7,39788.6
67121.9,39797.4
67124.1,39806.6
67125.5,39815.9
67126,39825.3
67126,40017.2
67125.5,40026.6
67124.1,40035.9
67121.9,40045.1
67118.7,40053.9
67114.7,40062.5
67109.8,40070.5
67104.2,40078.1
67097.9,40085.1
67090.9,40091.4
67083.3,40097
67075.3,40101.9
67066.7,40105.9
67057.9,40109.1
67048.7,40111.3
67039.4,40112.7
67030,40113.2
66670.8,40113.2
66661.4,40112.7
66652,40111.3
66642.9,40109.1
66634,40105.9
66625.5,40101.9
66617.5,40097
66609.9,40091.4
66602.9,40085.1
66596.6,40078.1
66591,40070.5
66586.1,40062.5
66582.1,40053.9
66578.9,40045.1
66576.6,40035.9
66575.3,40026.6
66574.8,40017.2
66574.8,39825.3
66575.3,39815.9
66576.6,39806.6
66578.9,39797.4
66582.1,39788.6
66586.1,39780.1
66591,39772
66596.6,39764.4
66602.9,39757.4
66609.9,39751.1
66617.5,39745.5
66625.5,39740.7
66634,39736.6
66642.9,39733.5
66652,39731.2
66661.4,39729.8
66670.8,39729.3
67030,39729.3
Z" /> 
<path style="fill:#000000; fill-opacity:1.0; 
stroke:#000000; stroke-width:0; stroke-opacity:1; 
stroke-linecap:round; stroke-linejoin:round;fill-rule:evenodd;"
d="M 67039.4,40468
67048.7,40469.4
67057.9,40471.7
67066.7,40474.8
67075.3,40478.9
67083.3,40483.7
67090.9,40489.3
67097.9,40495.6
67104.2,40502.6
67109.8,40510.2
67114.7,40518.2
67118.7,40526.8
67121.9,40535.6
67124.1,40544.8
67125.5,40554.1
67126,40563.5
67126,40755.4
67125.5,40764.8
67124.1,40774.1
67121.9,40783.3
67118.7,40792.1
67114.7,40800.7
67109.8,40808.7
67104.2,40816.3
67097.9,40823.3
67090.9,40829.6
67083.3,40835.2
67075.3,40840
67066.7,40844.1
67057.9,40847.2
67048.7,40849.5
67039.4,40850.9
67030,40851.4
66670.8,40851.4
66661.4,40850.9
66652,40849.5
66642.9,40847.2
66634,40844.1
66625.5,40840
66617.5,40835.2
66609.9,40829.6
66602.9,40823.3
66596.6,40816.3
66591,40808.7
66586.1,40800.7
66582.1,40792.1
66578.9,40783.3
66576.6,40774.1
66575.3,40764.8
66574.8,40755.4
66574.8,40563.5
66575.3,40554.1
66576.6,40544.8
66578.9,40535.6
66582.1,40526.8
66586.1,40518.2
66591,40510.2
66596.6,40502.6
66602.9,40495.6
66609.9,40489.3
66617.5,40483.7
66625.5,40478.9
66634,40474.8
66642.9,40471.7
66652,40469.4
66661.4,40468
66670.8,40467.5
67030,40467.5
Z" /> 
</g>
<g >
</g>
<g style="fill:#000000; fill-opacity:1.0; 
stroke:#000000; stroke-width:0; stroke-opacity:1; 
stroke-linecap:round; stroke-linejoin:round;">
<path style="fill:#000000; fill-opacity:1.0; 
stroke:#000000; stroke-width:0; stroke-opacity:1; 
stroke-linecap:round; stroke-linejoin:round;fill-rule:evenodd;"
d="M 64480.4,39715
64489.7,39716.4
64498.8,39718.7
64507.7,39721.9
64516.2,39725.9
64524.3,39730.7
64531.8,39736.3
64538.8,39742.7
64545.1,39749.7
64550.8,39757.2
64555.6,39765.3
64559.6,39773.8
64562.8,39782.7
64565.1,39791.8
64566.5,39801.1
64566.9,39810.5
64566.9,40002.5
64566.5,40011.9
64565.1,40021.2
64562.8,40030.3
64559.6,40039.2
64555.6,40047.7
64550.8,40055.8
64545.1,40063.3
64538.8,40070.3
64531.8,40076.6
64524.3,40082.3
64516.2,40087.1
64507.7,40091.1
64498.8,40094.3
64489.7,40096.6
64480.4,40098
64471,40098.4
64111.7,40098.4
64102.3,40098
64093,40096.6
64083.9,40094.3
64075,40091.1
64066.5,40087.1
64058.4,40082.3
64050.8,40076.6
64043.9,40070.3
64037.5,40063.3
64031.9,40055.8
64027.1,40047.7
64023.1,40039.2
64019.9,40030.3
64017.6,40021.2
64016.2,40011.9
64015.7,40002.5
64015.7,39810.5
64016.2,39801.1
64017.6,39791.8
64019.9,39782.7
64023.1,39773.8
64027.1,39765.3
64031.9,39757.2
64037.5,39749.7
64043.9,39742.7
64050.8,39736.3
64058.4,39730.7
64066.5,39725.9
64075,39721.9
64083.9,39718.7
64093,39716.4
64102.3,39715
64111.7,39714.6
64471,39714.6
Z" /> 
<path style="fill:#000000; fill-opacity:1.0; 
stroke:#000000; stroke-width:0; stroke-opacity:1; 
stroke-linecap:round; stroke-linejoin:round;fill-rule:evenodd;"
d="M 64480.4,40453.2
64489.7,40454.6
64498.8,40456.9
64507.7,40460.1
64516.2,40464.1
64524.3,40468.9
64531.8,40474.5
64538.8,40480.9
64545.1,40487.8
64550.8,40495.4
64555.6,40503.5
64559.6,40512
64562.8,40520.9
64565.1,40530
64566.5,40539.3
64566.9,40548.7
64566.9,40740.6
64566.5,40750.1
64565.1,40759.4
64562.8,40768.5
64559.6,40777.4
64555.6,40785.9
64550.8,40794
64545.1,40801.5
64538.8,40808.5
64531.8,40814.8
64524.3,40820.4
64516.2,40825.3
64507.7,40829.3
64498.8,40832.5
64489.7,40834.8
64480.4,40836.2
64471,40836.6
64111.7,40836.6
64102.3,40836.2
64093,40834.8
64083.9,40832.5
64075,40829.3
64066.5,40825.3
64058.4,40820.4
64050.8,40814.8
64043.9,40808.5
64037.5,40801.5
64031.9,40794
64027.1,40785.9
64023.1,40777.4
64019.9,40768.5
64017.6,40759.4
64016.2,40750.1
64015.7,40740.6
64015.7,40548.7
64016.2,40539.3
64017.6,40530
64019.9,40520.9
64023.1,40512
64027.1,40503.5
64031.9,40495.4
64037.5,40487.8
64043.9,40480.9
64050.8,40474.5
64058.4,40468.9
64066.5,40464.1
64075,40460.1
64083.9,40456.9
64093,40454.6
64102.3,40453.2
64111.7,40452.8
64471,40452.8
Z" /> 
</g>
<g >
</g>
<g style="fill:#000000; fill-opacity:1.0; 
stroke:#000000; stroke-width:0; stroke-opacity:1; 
stroke-linecap:round; stroke-linejoin:round;">
<path style="fill:#000000; fill-opacity:1.0; 
stroke:#000000; stroke-width:0; stroke-opacity:1; 
stroke-linecap:round; stroke-linejoin:round;fill-rule:evenodd;"
d="M 65531.5,38189
65531.5,38503.9
65177.2,38503.9
65177.2,38189
Z" /> 
<path style="fill:#000000; fill-opacity:1.0; 
stroke:#000000; stroke-width:0; stroke-opacity:1; 
stroke-linecap:round; stroke-linejoin:round;fill-rule:evenodd;"
d="M 66318.9,37815
66318.9,38129.9
65964.6,38129.9
65964.6,37815
Z" /> 
<path style="fill:#000000; fill-opacity:1.0; 
stroke:#000000; stroke-width:0; stroke-opacity:1; 
stroke-linecap:round; stroke-linejoin:round;fill-rule:evenodd;"
d="M 66318.9,38563
66318.9,38878
65964.6,38878
65964.6,38563
Z" /> 
</g>
<g >
</g>
<g style="fill:#000000; fill-opacity:1.0; 
stroke:#000000; stroke-width:0; stroke-opacity:1; 
stroke-linecap:round; stroke-linejoin:round;">
<path style="fill:#000000; fill-opacity:1.0; 
stroke:#000000; stroke-width:0; stroke-opacity:1; 
stroke-linecap:round; stroke-linejoin:round;fill-rule:evenodd;"
d="M 62972.4,38228.3
62972.4,38543.3
62618.1,38543.3
62618.1,38228.3
Z" /> 
<path style="fill:#000000; fill-opacity:1.0; 
stroke:#000000; stroke-width:0; stroke-opacity:1; 
stroke-linecap:round; stroke-linejoin:round;fill-rule:evenodd;"
d="M 63759.8,37854.3
63759.8,38169.3
63405.5,38169.3
63405.5,37854.3
Z" /> 
<path style="fill:#000000; fill-opacity:1.0; 
stroke:#000000; stroke-width:0; stroke-opacity:1; 
stroke-linecap:round; stroke-linejoin:round;fill-rule:evenodd;"
d="M 63759.8,38602.4
63759.8,38917.3
63405.5,38917.3
63405.5,38602.4
Z" /> 
</g>
<g >
</g>
<g style="fill:#000000; fill-opacity:1.0; 
stroke:#000000; stroke-width:0; stroke-opacity:1; 
stroke-linecap:round; stroke-linejoin:round;">
<path style="fill:#000000; fill-opacity:1.0; 
stroke:#000000; stroke-width:0; stroke-opacity:1; 
stroke-linecap:round; stroke-linejoin:round;fill-rule:evenodd;"
d="M 65531.5,40157.5
65531.5,40472.4
65177.2,40472.4
65177.2,40157.5
Z" /> 
<path style="fill:#000000; fill-opacity:1.0; 
stroke:#000000; stroke-width:0; stroke-opacity:1; 
stroke-linecap:round; stroke-linejoin:round;fill-rule:evenodd;"
d="M 66318.9,39783.5
66318.9,40098.4
65964.6,40098.4
65964.6,39783.5
Z" /> 
<path style="fill:#000000; fill-opacity:1.0; 
stroke:#000000; stroke-width:0; stroke-opacity:1; 
stroke-linecap:round; stroke-linejoin:round;fill-rule:evenodd;"
d="M 66318.9,40531.5
66318.9,40846.5
65964.6,40846.5
65964.6,40531.5
Z" /> 
</g>
<g >
</g>
<g style="fill:#000000; fill-opacity:1.0; 
stroke:#000000; stroke-width:0; stroke-opacity:1; 
stroke-linecap:round; stroke-linejoin:round;">
<path style="fill:#000000; fill-opacity:1.0; 
stroke:#000000; stroke-width:0; stroke-opacity:1; 
stroke-linecap:round; stroke-linejoin:round;fill-rule:evenodd;"
d="M 62972.4,40118.1
62972.4,40433.1
62618.1,40433.1
62618.1,40118.1
Z" /> 
<path style="fill:#000000; fill-opacity:1.0; 
stroke:#000000; stroke-width:0; stroke-opacity:1; 
stroke-linecap:round; stroke-linejoin:round;fill-rule:evenodd;"
d="M 63759.8,39744.1
63759.8,40059.1
63405.5,40059.1
63405.5,39744.1
Z" /> 
<path style="fill:#000000; fill-opacity:1.0; 
stroke:#000000; stroke-width:0; stroke-opacity:1; 
stroke-linecap:round; stroke-linejoin:round;fill-rule:evenodd;"
d="M 63759.8,40492.1
63759.8,40807.1
63405.5,40807.1
63405.5,40492.1
Z" /> 
</g>
<g >
</g>
<g style="fill:#000000; fill-opacity:1.0; 
stroke:#000000; stroke-width:0; stroke-opacity:1; 
stroke-linecap:round; stroke-linejoin:round;">
</g>
<g style="fill:#000000; fill-opacity:1.0; 
stroke:#000000; stroke-width:472.441; stroke-opacity:1; 
stroke-linecap:round; stroke-linejoin:round;">
</g>
<g style="fill:#000000; fill-opacity:0.0; 
stroke:#000000; stroke-width:472.441; stroke-opacity:1; 
stroke-linecap:round; stroke-linejoin:round;">
<path d="M68080 37952
L68297 37952
" />
<path d="M68080 38740
L68297 38740
" />
<path d="M68080 39527
L68297 39527
" />
<path d="M68080 40314
L68297 40314
" />
<path d="M68080 41102
L68297 41102
" />
</g>
<g style="fill:#000000; fill-opacity:0.0; 
stroke:#000000; stroke-width:0; stroke-opacity:1; 
stroke-linecap:round; stroke-linejoin:round;">
</g>
<g style="fill:#000000; fill-opacity:1.0; 
stroke:#000000; stroke-width:0; stroke-opacity:1; 
stroke-linecap:round; stroke-linejoin:round;">
<path style="fill:#000000; fill-opacity:1.0; 
stroke:#000000; stroke-width:0; stroke-opacity:1; 
stroke-linecap:round; stroke-linejoin:round;fill-rule:evenodd;"
d="M 68444.7,41654
68454.2,41655.4
68463.6,41657.8
68472.7,41661
68481.4,41665.2
68489.7,41670.1
68497.5,41675.9
68504.6,41682.4
68511.1,41689.5
68516.9,41697.3
68521.8,41705.6
68526,41714.3
68529.2,41723.4
68531.6,41732.8
68533,41742.3
68533.5,41752
68533.5,42027.6
68533,42037.2
68531.6,42046.8
68529.2,42056.1
68526,42065.2
68521.8,42074
68516.9,42082.2
68511.1,42090
68504.6,42097.2
68497.5,42103.6
68489.7,42109.4
68481.4,42114.4
68472.7,42118.5
68463.6,42121.7
68454.2,42124.1
68444.7,42125.5
68435,42126
67942.9,42126
67933.3,42125.5
67923.7,42124.1
67914.3,42121.7
67905.2,42118.5
67896.5,42114.4
67888.2,42109.4
67880.5,42103.6
67873.3,42097.2
67866.8,42090
67861.1,42082.2
67856.1,42074
67852,42065.2
67848.7,42056.1
67846.4,42046.8
67845,42037.2
67844.5,42027.6
67844.5,41752
67845,41742.3
67846.4,41732.8
67848.7,41723.4
67852,41714.3
67856.1,41705.6
67861.1,41697.3
67866.8,41689.5
67873.3,41682.4
67880.5,41675.9
67888.2,41670.1
67896.5,41665.2
67905.2,41661
67914.3,41657.8
67923.7,41655.4
67933.3,41654
67942.9,41653.5
68435,41653.5
Z" /> 
</g>
<g >
</g>
<g style="fill:#000000; fill-opacity:1.0; 
stroke:#000000; stroke-width:0; stroke-opacity:1; 
stroke-linecap:round; stroke-linejoin:round;">
</g>
<g style="fill:#000000; fill-opacity:1.0; 
stroke:#000000; stroke-width:472.441; stroke-opacity:1; 
stroke-linecap:round; stroke-linejoin:round;">
</g>
<g style="fill:#000000; fill-opacity:0.0; 
stroke:#000000; stroke-width:472.441; stroke-opacity:1; 
stroke-linecap:round; stroke-linejoin:round;">
<path d="M60994 37952
L61210 37952
" />
<path d="M60994 38740
L61210 38740
" />
<path d="M60994 39527
L61210 39527
" />
<path d="M60994 40314
L61210 40314
" />
<path d="M60994 41102
L61210 41102
" />
</g>
<g style="fill:#000000; fill-opacity:0.0; 
stroke:#000000; stroke-width:0; stroke-opacity:1; 
stroke-linecap:round; stroke-linejoin:round;">
</g>
<g style="fill:#000000; fill-opacity:1.0; 
stroke:#000000; stroke-width:0; stroke-opacity:1; 
stroke-linecap:round; stroke-linejoin:round;">
<path style="fill:#000000; fill-opacity:1.0; 
stroke:#000000; stroke-width:0; stroke-opacity:1; 
stroke-linecap:round; stroke-linejoin:round;fill-rule:evenodd;"
d="M 61358.1,41654
61367.6,41655.4
61377,41657.8
61386.1,41661
61394.8,41665.2
61403.1,41670.1
61410.9,41675.9
61418,41682.4
61424.5,41689.5
61430.3,41697.3
61435.2,41705.6
61439.4,41714.3
61442.6,41723.4
61445,41732.8
61446.4,41742.3
61446.9,41752
61446.9,42027.6
61446.4,42037.2
61445,42046.8
61442.6,42056.1
61439.4,42065.2
61435.2,42074
61430.3,42082.2
61424.5,42090
61418,42097.2
61410.9,42103.6
61403.1,42109.4
61394.8,42114.4
61386.1,42118.5
61377,42121.7
61367.6,42124.1
61358.1,42125.5
61348.4,42126
60856.3,42126
60846.7,42125.5
60837.1,42124.1
60827.7,42121.7
60818.6,42118.5
60809.9,42114.4
60801.6,42109.4
60793.9,42103.6
60786.7,42097.2
60780.2,42090
60774.5,42082.2
60769.5,42074
60765.4,42065.2
60762.1,42056.1
60759.8,42046.8
60758.3,42037.2
60757.9,42027.6
60757.9,41752
60758.3,41742.3
60759.8,41732.8
60762.1,41723.4
60765.4,41714.3
60769.5,41705.6
60774.5,41697.3
60780.2,41689.5
60786.7,41682.4
60793.9,41675.9
60801.6,41670.1
60809.9,41665.2
60818.6,41661
60827.7,41657.8
60837.1,41655.4
60846.7,41654
60856.3,41653.5
61348.4,41653.5
Z" /> 
</g>
<g >
</g>
<g style="fill:#000000; fill-opacity:1.0; 
stroke:#000000; stroke-width:0; stroke-opacity:1; 
stroke-linecap:round; stroke-linejoin:round;">
<path style="fill:#000000; fill-opacity:1.0; 
stroke:#000000; stroke-width:0; stroke-opacity:1; 
stroke-linecap:round; stroke-linejoin:round;fill-rule:evenodd;"
d="M 66291.4,41909.9
66300.7,41911.3
66309.8,41913.6
66318.7,41916.8
66327.2,41920.8
66335.3,41925.6
66342.9,41931.2
66349.8,41937.6
66356.2,41944.5
66361.8,41952.1
66366.6,41960.2
66370.6,41968.7
66373.8,41977.6
66376.1,41986.7
66377.5,41996
66378,42005.4
66378,42197.3
66377.5,42206.7
66376.1,42216.1
66373.8,42225.2
66370.6,42234.1
66366.6,42242.6
66361.8,42250.7
66356.2,42258.2
66349.8,42265.2
66342.9,42271.5
66335.3,42277.1
66327.2,42282
66318.7,42286
66309.8,42289.2
66300.7,42291.5
66291.4,42292.8
66282,42293.3
65922.7,42293.3
65913.3,42292.8
65904,42291.5
65894.9,42289.2
65886,42286
65877.5,42282
65869.4,42277.1
65861.9,42271.5
65854.9,42265.2
65848.6,42258.2
65842.9,42250.7
65838.1,42242.6
65834.1,42234.1
65830.9,42225.2
65828.6,42216.1
65827.2,42206.7
65826.8,42197.3
65826.8,42005.4
65827.2,41996
65828.6,41986.7
65830.9,41977.6
65834.1,41968.7
65838.1,41960.2
65842.9,41952.1
65848.6,41944.5
65854.9,41937.6
65861.9,41931.2
65869.4,41925.6
65877.5,41920.8
65886,41916.8
65894.9,41913.6
65904,41911.3
65913.3,41909.9
65922.7,41909.4
66282,41909.4
Z" /> 
<path style="fill:#000000; fill-opacity:1.0; 
stroke:#000000; stroke-width:0; stroke-opacity:1; 
stroke-linecap:round; stroke-linejoin:round;fill-rule:evenodd;"
d="M 66291.4,41171.7
66300.7,41173.1
66309.8,41175.4
66318.7,41178.6
66327.2,41182.6
66335.3,41187.4
66342.9,41193
66349.8,41199.4
66356.2,41206.3
66361.8,41213.9
66366.6,41222
66370.6,41230.5
66373.8,41239.4
66376.1,41248.5
66377.5,41257.8
66378,41267.2
66378,41459.2
66377.5,41468.6
66376.1,41477.9
66373.8,41487
66370.6,41495.9
66366.6,41504.4
66361.8,41512.5
66356.2,41520
66349.8,41527
66342.9,41533.3
66335.3,41538.9
66327.2,41543.8
66318.7,41547.8
66309.8,41551
66300.7,41553.3
66291.4,41554.7
66282,41555.1
65922.7,41555.1
65913.3,41554.7
65904,41553.3
65894.9,41551
65886,41547.8
65877.5,41543.8
65869.4,41538.9
65861.9,41533.3
65854.9,41527
65848.6,41520
65842.9,41512.5
65838.1,41504.4
65834.1,41495.9
65830.9,41487
65828.6,41477.9
65827.2,41468.6
65826.8,41459.2
65826.8,41267.2
65827.2,41257.8
65828.6,41248.5
65830.9,41239.4
65834.1,41230.5
65838.1,41222
65842.9,41213.9
65848.6,41206.3
65854.9,41199.4
65861.9,41193
65869.4,41187.4
65877.5,41182.6
65886,41178.6
65894.9,41175.4
65904,41173.1
65913.3,41171.7
65922.7,41171.3
66282,41171.3
Z" /> 
</g>
<g >
</g>
<g style="fill:#000000; fill-opacity:1.0; 
stroke:#000000; stroke-width:0; stroke-opacity:1; 
stroke-linecap:round; stroke-linejoin:round;">
<path style="fill:#000000; fill-opacity:1.0; 
stroke:#000000; stroke-width:0; stroke-opacity:1; 
stroke-linecap:round; stroke-linejoin:round;fill-rule:evenodd;"
d="M 63929.2,41895.1
63938.5,41896.5
63947.6,41898.8
63956.5,41902
63965,41906
63973.1,41910.9
63980.7,41916.5
63987.6,41922.8
63994,41929.8
63999.6,41937.3
64004.4,41945.4
64008.4,41953.9
64011.6,41962.8
64013.9,41971.9
64015.3,41981.2
64015.7,41990.6
64015.7,42182.6
64015.3,42192
64013.9,42201.3
64011.6,42210.4
64008.4,42219.3
64004.4,42227.8
63999.6,42235.9
63994,42243.5
63987.6,42250.4
63980.7,42256.8
63973.1,42262.4
63965,42267.2
63956.5,42271.2
63947.6,42274.4
63938.5,42276.7
63929.2,42278.1
63919.8,42278.5
63560.5,42278.5
63551.1,42278.1
63541.8,42276.7
63532.7,42274.4
63523.8,42271.2
63515.3,42267.2
63507.2,42262.4
63499.7,42256.8
63492.7,42250.4
63486.3,42243.5
63480.7,42235.9
63475.9,42227.8
63471.9,42219.3
63468.7,42210.4
63466.4,42201.3
63465,42192
63464.6,42182.6
63464.6,41990.6
63465,41981.2
63466.4,41971.9
63468.7,41962.8
63471.9,41953.9
63475.9,41945.4
63480.7,41937.3
63486.3,41929.8
63492.7,41922.8
63499.7,41916.5
63507.2,41910.9
63515.3,41906
63523.8,41902
63532.7,41898.8
63541.8,41896.5
63551.1,41895.1
63560.5,41894.7
63919.8,41894.7
Z" /> 
<path style="fill:#000000; fill-opacity:1.0; 
stroke:#000000; stroke-width:0; stroke-opacity:1; 
stroke-linecap:round; stroke-linejoin:round;fill-rule:evenodd;"
d="M 63929.2,41157
63938.5,41158.3
63947.6,41160.6
63956.5,41163.8
63965,41167.8
63973.1,41172.7
63980.7,41178.3
63987.6,41184.6
63994,41191.6
63999.6,41199.1
64004.4,41207.2
64008.4,41215.7
64011.6,41224.6
64013.9,41233.7
64015.3,41243.1
64015.7,41252.5
64015.7,41444.4
64015.3,41453.8
64013.9,41463.1
64011.6,41472.2
64008.4,41481.1
64004.4,41489.6
63999.6,41497.7
63994,41505.3
63987.6,41512.2
63980.7,41518.6
63973.1,41524.2
63965,41529
63956.5,41533
63947.6,41536.2
63938.5,41538.5
63929.2,41539.9
63919.8,41540.4
63560.5,41540.4
63551.1,41539.9
63541.8,41538.5
63532.7,41536.2
63523.8,41533
63515.3,41529
63507.2,41524.2
63499.7,41518.6
63492.7,41512.2
63486.3,41505.3
63480.7,41497.7
63475.9,41489.6
63471.9,41481.1
63468.7,41472.2
63466.4,41463.1
63465,41453.8
63464.6,41444.4
63464.6,41252.5
63465,41243.1
63466.4,41233.7
63468.7,41224.6
63471.9,41215.7
63475.9,41207.2
63480.7,41199.1
63486.3,41191.6
63492.7,41184.6
63499.7,41178.3
63507.2,41172.7
63515.3,41167.8
63523.8,41163.8
63532.7,41160.6
63541.8,41158.3
63551.1,41157
63560.5,41156.5
63919.8,41156.5
Z" /> 
</g>
<g >
</g>
<g style="fill:#000000; fill-opacity:1.0; 
stroke:#000000; stroke-width:0; stroke-opacity:1; 
stroke-linecap:round; stroke-linejoin:round;">
<path style="fill:#000000; fill-opacity:1.0; 
stroke:#000000; stroke-width:0; stroke-opacity:1; 
stroke-linecap:round; stroke-linejoin:round;fill-rule:evenodd;"
d="M 63141.8,41895.1
63151.1,41896.5
63160.2,41898.8
63169.1,41902
63177.6,41906
63185.7,41910.9
63193.3,41916.5
63200.2,41922.8
63206.6,41929.8
63212.2,41937.3
63217,41945.4
63221,41953.9
63224.2,41962.8
63226.5,41971.9
63227.9,41981.2
63228.3,41990.6
63228.3,42182.6
63227.9,42192
63226.5,42201.3
63224.2,42210.4
63221,42219.3
63217,42227.8
63212.2,42235.9
63206.6,42243.5
63200.2,42250.4
63193.3,42256.8
63185.7,42262.4
63177.6,42267.2
63169.1,42271.2
63160.2,42274.4
63151.1,42276.7
63141.8,42278.1
63132.4,42278.5
62773.1,42278.5
62763.7,42278.1
62754.4,42276.7
62745.3,42274.4
62736.4,42271.2
62727.9,42267.2
62719.8,42262.4
62712.3,42256.8
62705.3,42250.4
62698.9,42243.5
62693.3,42235.9
62688.5,42227.8
62684.5,42219.3
62681.3,42210.4
62679,42201.3
62677.6,42192
62677.2,42182.6
62677.2,41990.6
62677.6,41981.2
62679,41971.9
62681.3,41962.8
62684.5,41953.9
62688.5,41945.4
62693.3,41937.3
62698.9,41929.8
62705.3,41922.8
62712.3,41916.5
62719.8,41910.9
62727.9,41906
62736.4,41902
62745.3,41898.8
62754.4,41896.5
62763.7,41895.1
62773.1,41894.7
63132.4,41894.7
Z" /> 
<path style="fill:#000000; fill-opacity:1.0; 
stroke:#000000; stroke-width:0; stroke-opacity:1; 
stroke-linecap:round; stroke-linejoin:round;fill-rule:evenodd;"
d="M 63141.8,41157
63151.1,41158.3
63160.2,41160.6
63169.1,41163.8
63177.6,41167.8
63185.7,41172.7
63193.3,41178.3
63200.2,41184.6
63206.6,41191.6
63212.2,41199.1
63217,41207.2
63221,41215.7
63224.2,41224.6
63226.5,41233.7
63227.9,41243.1
63228.3,41252.5
63228.3,41444.4
63227.9,41453.8
63226.5,41463.1
63224.2,41472.2
63221,41481.1
63217,41489.6
63212.2,41497.7
63206.6,41505.3
63200.2,41512.2
63193.3,41518.6
63185.7,41524.2
63177.6,41529
63169.1,41533
63160.2,41536.2
63151.1,41538.5
63141.8,41539.9
63132.4,41540.4
62773.1,41540.4
62763.7,41539.9
62754.4,41538.5
62745.3,41536.2
62736.4,41533
62727.9,41529
62719.8,41524.2
62712.3,41518.6
62705.3,41512.2
62698.9,41505.3
62693.3,41497.7
62688.5,41489.6
62684.5,41481.1
62681.3,41472.2
62679,41463.1
62677.6,41453.8
62677.2,41444.4
62677.2,41252.5
62677.6,41243.1
62679,41233.7
62681.3,41224.6
62684.5,41215.7
62688.5,41207.2
62693.3,41199.1
62698.9,41191.6
62705.3,41184.6
62712.3,41178.3
62719.8,41172.7
62727.9,41167.8
62736.4,41163.8
62745.3,41160.6
62754.4,41158.3
62763.7,41157
62773.1,41156.5
63132.4,41156.5
Z" /> 
</g>
<g >
</g>
<g style="fill:#000000; fill-opacity:1.0; 
stroke:#000000; stroke-width:0; stroke-opacity:1; 
stroke-linecap:round; stroke-linejoin:round;">
<circle cx="62401.6" cy="42322.8" r="157.48" /> 
</g>
<g style="fill:#000000; fill-opacity:1.0; 
stroke:#000000; stroke-width:39.3701; stroke-opacity:1; 
stroke-linecap:round; stroke-linejoin:round;">
</g>
<g style="fill:#000000; fill-opacity:1.0; 
stroke:#000000; stroke-width:0; stroke-opacity:1; 
stroke-linecap:round; stroke-linejoin:round;">
<circle cx="64173.2" cy="42519.7" r="157.48" /> 
</g>
<g style="fill:#000000; fill-opacity:1.0; 
stroke:#000000; stroke-width:39.3701; stroke-opacity:1; 
stroke-linecap:round; stroke-linejoin:round;">
</g>
<g style="fill:#000000; fill-opacity:1.0; 
stroke:#000000; stroke-width:0; stroke-opacity:1; 
stroke-linecap:round; stroke-linejoin:round;">
<circle cx="64960.6" cy="41732.3" r="157.48" /> 
</g>
<g style="fill:#000000; fill-opacity:1.0; 
stroke:#000000; stroke-width:39.3701; stroke-opacity:1; 
stroke-linecap:round; stroke-linejoin:round;">
</g>
<g style="fill:#000000; fill-opacity:1.0; 
stroke:#000000; stroke-width:0; stroke-opacity:1; 
stroke-linecap:round; stroke-linejoin:round;">
<circle cx="66535.4" cy="42322.8" r="157.48" /> 
</g>
<g style="fill:#000000; fill-opacity:1.0; 
stroke:#000000; stroke-width:39.3701; stroke-opacity:1; 
stroke-linecap:round; stroke-linejoin:round;">
</g>
<g style="fill:#000000; fill-opacity:1.0; 
stroke:#000000; stroke-width:0; stroke-opacity:1; 
stroke-linecap:round; stroke-linejoin:round;">
<circle cx="66732.3" cy="41141.7" r="157.48" /> 
</g>
<g style="fill:#000000; fill-opacity:1.0; 
stroke:#000000; stroke-width:39.3701; stroke-opacity:1; 
stroke-linecap:round; stroke-linejoin:round;">
</g>
<g style="fill:#000000; fill-opacity:1.0; 
stroke:#000000; stroke-width:0; stroke-opacity:1; 
stroke-linecap:round; stroke-linejoin:round;">
<circle cx="65354.3" cy="40748" r="157.48" /> 
</g>
<g style="fill:#000000; fill-opacity:1.0; 
stroke:#000000; stroke-width:39.3701; stroke-opacity:1; 
stroke-linecap:round; stroke-linejoin:round;">
</g>
<g >
</g>
<g style="fill:#000000; fill-opacity:1.0; 
stroke:#000000; stroke-width:39.3701; stroke-opacity:1; 
stroke-linecap:round; stroke-linejoin:round;">
</g>
<g style="fill:#000000; fill-opacity:1.0; 
stroke:#000000; stroke-width:98.4252; stroke-opacity:1; 
stroke-linecap:round; stroke-linejoin:round;">
</g>
<g style="fill:#000000; fill-opacity:0.0; 
stroke:#000000; stroke-width:98.4252; stroke-opacity:1; 
stroke-linecap:round; stroke-linejoin:round;">
<path d="M62952 42086
L62637 42086
" />
<path d="M62637 42086
L62401 42322
" />
<path d="M63740 42086
L64173 42519
" />
<path d="M64488 41732
L64960 41732
" />
<path d="M66102 42101
L66313 42101
" />
<path d="M66313 42101
L66535 42322
" />
<path d="M62706 41102
L62952 41348
" />
<path d="M61102 41102
L62706 41102
" />
<path d="M62952 41348
L63740 41348
" />
<path d="M64478 41348
L64488 41358
" />
<path d="M63740 41348
L64478 41348
" />
<path d="M64295 42106
L64488 42106
" />
<path d="M64143 41954
L64295 42106
" />
<path d="M64143 41751
L64143 41954
" />
<path d="M63740 41348
L64143 41751
" />
<path d="M64286 40649
L64291 40644
" />
<path d="M63582 40649
L64286 40649
" />
<path d="M64640 40644
L65354 41358
" />
<path d="M64291 40644
L64640 40644
" />
<path d="M66097 41358
L66102 41363
" />
<path d="M65354 41358
L66097 41358
" />
<path d="M66102 40728
L66141 40688
" />
<path d="M66102 41363
L66102 40728
" />
<path d="M66820 40688
L66850 40659
" />
<path d="M66141 40688
L66820 40688
" />
<path d="M65836 39025
L66141 38720
" />
<path d="M65836 40383
L65836 39025
" />
<path d="M66141 40688
L65836 40383
" />
<path d="M66830 38720
L66850 38740
" />
<path d="M66141 38720
L66830 38720
" />
<path d="M63277 39064
L63582 38759
" />
<path d="M63277 40344
L63277 39064
" />
<path d="M63582 40649
L63277 40344
" />
<path d="M64271 38759
L64291 38779
" />
<path d="M63582 38759
L64271 38759
" />
<path d="M66102 41363
L66293 41554
" />
<path d="M67736 41554
L68188 41102
" />
<path d="M66293 41554
L67736 41554
" />
<path d="M65354 38346
L64606 37598
" />
<path d="M61456 37598
L61102 37952
" />
<path d="M64606 37598
L61456 37598
" />
<path d="M62440 38740
L62795 38385
" />
<path d="M61102 38740
L62440 38740
" />
<path d="M64563 38459
L65354 39250
" />
<path d="M65354 39250
L65354 40314
" />
<path d="M63317 38459
L64563 38459
" />
<path d="M62249 39527
L63317 38459
" />
<path d="M61102 39527
L62249 39527
" />
<path d="M62755 40314
L62795 40275
" />
<path d="M61102 40314
L62755 40314
" />
<path d="M68169 37972
L68188 37952
" />
<path d="M66141 37972
L68169 37972
" />
<path d="M63612 38041
L63582 38011
" />
<path d="M64291 38041
L63612 38041
" />
<path d="M64484 38041
L65222 38779
" />
<path d="M64291 38041
L64484 38041
" />
<path d="M67869 38420
L68188 38740
" />
<path d="M65876 38420
L67869 38420
" />
<path d="M65517 38779
L65876 38420
" />
<path d="M65222 38779
L65517 38779
" />
<path d="M66830 39940
L66850 39921
" />
<path d="M66141 39940
L66830 39940
" />
<path d="M67795 39921
L68188 39527
" />
<path d="M66850 39921
L67795 39921
" />
<path d="M64286 39901
L64291 39906
" />
<path d="M63582 39901
L64286 39901
" />
<path d="M67362 41141
L66732 41141
" />
<path d="M68188 40314
L67362 41141
" />
<path d="M65132 40748
L64291 39906
" />
<path d="M65354 40748
L65132 40748
" />
</g>
<g >
</g>
</g> 
</svg>
