%TF.GenerationSoftware,KiCad,Pcbnew,5.1.6-c6e7f7d~87~ubuntu20.04.1*%
%TF.CreationDate,2020-08-25T19:21:37-04:00*%
%TF.ProjectId,4_Channel_Level_Shifter,345f4368-616e-46e6-956c-5f4c6576656c,rev?*%
%TF.SameCoordinates,Original*%
%TF.FileFunction,Legend,Bot*%
%TF.FilePolarity,Positive*%
%FSLAX46Y46*%
G04 Gerber Fmt 4.6, Leading zero omitted, Abs format (unit mm)*
G04 Created by KiCad (PCBNEW 5.1.6-c6e7f7d~87~ubuntu20.04.1) date 2020-08-25 19:21:37*
%MOMM*%
%LPD*%
G01*
G04 APERTURE LIST*
%ADD10C,0.125000*%
%ADD11C,0.150000*%
%ADD12C,0.010000*%
G04 APERTURE END LIST*
D10*
X174642857Y-108273809D02*
X174619047Y-108250000D01*
X174571428Y-108226190D01*
X174452380Y-108226190D01*
X174404761Y-108250000D01*
X174380952Y-108273809D01*
X174357142Y-108321428D01*
X174357142Y-108369047D01*
X174380952Y-108440476D01*
X174666666Y-108726190D01*
X174357142Y-108726190D01*
X174047619Y-108226190D02*
X174000000Y-108226190D01*
X173952380Y-108250000D01*
X173928571Y-108273809D01*
X173904761Y-108321428D01*
X173880952Y-108416666D01*
X173880952Y-108535714D01*
X173904761Y-108630952D01*
X173928571Y-108678571D01*
X173952380Y-108702380D01*
X174000000Y-108726190D01*
X174047619Y-108726190D01*
X174095238Y-108702380D01*
X174119047Y-108678571D01*
X174142857Y-108630952D01*
X174166666Y-108535714D01*
X174166666Y-108416666D01*
X174142857Y-108321428D01*
X174119047Y-108273809D01*
X174095238Y-108250000D01*
X174047619Y-108226190D01*
X173690476Y-108273809D02*
X173666666Y-108250000D01*
X173619047Y-108226190D01*
X173500000Y-108226190D01*
X173452380Y-108250000D01*
X173428571Y-108273809D01*
X173404761Y-108321428D01*
X173404761Y-108369047D01*
X173428571Y-108440476D01*
X173714285Y-108726190D01*
X173404761Y-108726190D01*
X173095238Y-108226190D02*
X173047619Y-108226190D01*
X173000000Y-108250000D01*
X172976190Y-108273809D01*
X172952380Y-108321428D01*
X172928571Y-108416666D01*
X172928571Y-108535714D01*
X172952380Y-108630952D01*
X172976190Y-108678571D01*
X173000000Y-108702380D01*
X173047619Y-108726190D01*
X173095238Y-108726190D01*
X173142857Y-108702380D01*
X173166666Y-108678571D01*
X173190476Y-108630952D01*
X173214285Y-108535714D01*
X173214285Y-108416666D01*
X173190476Y-108321428D01*
X173166666Y-108273809D01*
X173142857Y-108250000D01*
X173095238Y-108226190D01*
X172714285Y-108535714D02*
X172333333Y-108535714D01*
X172000000Y-108226190D02*
X171952380Y-108226190D01*
X171904761Y-108250000D01*
X171880952Y-108273809D01*
X171857142Y-108321428D01*
X171833333Y-108416666D01*
X171833333Y-108535714D01*
X171857142Y-108630952D01*
X171880952Y-108678571D01*
X171904761Y-108702380D01*
X171952380Y-108726190D01*
X172000000Y-108726190D01*
X172047619Y-108702380D01*
X172071428Y-108678571D01*
X172095238Y-108630952D01*
X172119047Y-108535714D01*
X172119047Y-108416666D01*
X172095238Y-108321428D01*
X172071428Y-108273809D01*
X172047619Y-108250000D01*
X172000000Y-108226190D01*
X171404761Y-108226190D02*
X171500000Y-108226190D01*
X171547619Y-108250000D01*
X171571428Y-108273809D01*
X171619047Y-108345238D01*
X171642857Y-108440476D01*
X171642857Y-108630952D01*
X171619047Y-108678571D01*
X171595238Y-108702380D01*
X171547619Y-108726190D01*
X171452380Y-108726190D01*
X171404761Y-108702380D01*
X171380952Y-108678571D01*
X171357142Y-108630952D01*
X171357142Y-108511904D01*
X171380952Y-108464285D01*
X171404761Y-108440476D01*
X171452380Y-108416666D01*
X171547619Y-108416666D01*
X171595238Y-108440476D01*
X171619047Y-108464285D01*
X171642857Y-108511904D01*
D11*
X169642857Y-104778571D02*
X169500000Y-104826190D01*
X169452380Y-104873809D01*
X169404761Y-104969047D01*
X169404761Y-105111904D01*
X169452380Y-105207142D01*
X169500000Y-105254761D01*
X169595238Y-105302380D01*
X169976190Y-105302380D01*
X169976190Y-104302380D01*
X169642857Y-104302380D01*
X169547619Y-104350000D01*
X169500000Y-104397619D01*
X169452380Y-104492857D01*
X169452380Y-104588095D01*
X169500000Y-104683333D01*
X169547619Y-104730952D01*
X169642857Y-104778571D01*
X169976190Y-104778571D01*
X169119047Y-104302380D02*
X168785714Y-105302380D01*
X168452380Y-104302380D01*
X168119047Y-105302380D02*
X168119047Y-104302380D01*
X168119047Y-104778571D02*
X167547619Y-104778571D01*
X167547619Y-105302380D02*
X167547619Y-104302380D01*
X166309523Y-104921428D02*
X165547619Y-104921428D01*
X164357142Y-105016666D02*
X163880952Y-105016666D01*
X164452380Y-105302380D02*
X164119047Y-104302380D01*
X163785714Y-105302380D01*
X163119047Y-104778571D02*
X162976190Y-104826190D01*
X162928571Y-104873809D01*
X162880952Y-104969047D01*
X162880952Y-105111904D01*
X162928571Y-105207142D01*
X162976190Y-105254761D01*
X163071428Y-105302380D01*
X163452380Y-105302380D01*
X163452380Y-104302380D01*
X163119047Y-104302380D01*
X163023809Y-104350000D01*
X162976190Y-104397619D01*
X162928571Y-104492857D01*
X162928571Y-104588095D01*
X162976190Y-104683333D01*
X163023809Y-104730952D01*
X163119047Y-104778571D01*
X163452380Y-104778571D01*
X162023809Y-104635714D02*
X162023809Y-105302380D01*
X162261904Y-104254761D02*
X162500000Y-104969047D01*
X161880952Y-104969047D01*
X161500000Y-104778571D02*
X161166666Y-104778571D01*
X161023809Y-105302380D02*
X161500000Y-105302380D01*
X161500000Y-104302380D01*
X161023809Y-104302380D01*
X160595238Y-105302380D02*
X160595238Y-104302380D01*
X160023809Y-105302380D01*
X160023809Y-104302380D01*
X170880952Y-106904761D02*
X170738095Y-106952380D01*
X170500000Y-106952380D01*
X170404761Y-106904761D01*
X170357142Y-106857142D01*
X170309523Y-106761904D01*
X170309523Y-106666666D01*
X170357142Y-106571428D01*
X170404761Y-106523809D01*
X170500000Y-106476190D01*
X170690476Y-106428571D01*
X170785714Y-106380952D01*
X170833333Y-106333333D01*
X170880952Y-106238095D01*
X170880952Y-106142857D01*
X170833333Y-106047619D01*
X170785714Y-106000000D01*
X170690476Y-105952380D01*
X170452380Y-105952380D01*
X170309523Y-106000000D01*
X169309523Y-106857142D02*
X169357142Y-106904761D01*
X169500000Y-106952380D01*
X169595238Y-106952380D01*
X169738095Y-106904761D01*
X169833333Y-106809523D01*
X169880952Y-106714285D01*
X169928571Y-106523809D01*
X169928571Y-106380952D01*
X169880952Y-106190476D01*
X169833333Y-106095238D01*
X169738095Y-106000000D01*
X169595238Y-105952380D01*
X169500000Y-105952380D01*
X169357142Y-106000000D01*
X169309523Y-106047619D01*
X168309523Y-106952380D02*
X168642857Y-106476190D01*
X168880952Y-106952380D02*
X168880952Y-105952380D01*
X168500000Y-105952380D01*
X168404761Y-106000000D01*
X168357142Y-106047619D01*
X168309523Y-106142857D01*
X168309523Y-106285714D01*
X168357142Y-106380952D01*
X168404761Y-106428571D01*
X168500000Y-106476190D01*
X168880952Y-106476190D01*
X167119047Y-106952380D02*
X167119047Y-105952380D01*
X166738095Y-105952380D01*
X166642857Y-106000000D01*
X166595238Y-106047619D01*
X166547619Y-106142857D01*
X166547619Y-106285714D01*
X166595238Y-106380952D01*
X166642857Y-106428571D01*
X166738095Y-106476190D01*
X167119047Y-106476190D01*
X165738095Y-106904761D02*
X165833333Y-106952380D01*
X166023809Y-106952380D01*
X166119047Y-106904761D01*
X166166666Y-106809523D01*
X166166666Y-106428571D01*
X166119047Y-106333333D01*
X166023809Y-106285714D01*
X165833333Y-106285714D01*
X165738095Y-106333333D01*
X165690476Y-106428571D01*
X165690476Y-106523809D01*
X166166666Y-106619047D01*
X165261904Y-106952380D02*
X165261904Y-106285714D01*
X165261904Y-106476190D02*
X165214285Y-106380952D01*
X165166666Y-106333333D01*
X165071428Y-106285714D01*
X164976190Y-106285714D01*
X164642857Y-106952380D02*
X164642857Y-106285714D01*
X164642857Y-105952380D02*
X164690476Y-106000000D01*
X164642857Y-106047619D01*
X164595238Y-106000000D01*
X164642857Y-105952380D01*
X164642857Y-106047619D01*
X164166666Y-106285714D02*
X164166666Y-107285714D01*
X164166666Y-106333333D02*
X164071428Y-106285714D01*
X163880952Y-106285714D01*
X163785714Y-106333333D01*
X163738095Y-106380952D01*
X163690476Y-106476190D01*
X163690476Y-106761904D01*
X163738095Y-106857142D01*
X163785714Y-106904761D01*
X163880952Y-106952380D01*
X164071428Y-106952380D01*
X164166666Y-106904761D01*
X163261904Y-106952380D02*
X163261904Y-105952380D01*
X162833333Y-106952380D02*
X162833333Y-106428571D01*
X162880952Y-106333333D01*
X162976190Y-106285714D01*
X163119047Y-106285714D01*
X163214285Y-106333333D01*
X163261904Y-106380952D01*
X161976190Y-106904761D02*
X162071428Y-106952380D01*
X162261904Y-106952380D01*
X162357142Y-106904761D01*
X162404761Y-106809523D01*
X162404761Y-106428571D01*
X162357142Y-106333333D01*
X162261904Y-106285714D01*
X162071428Y-106285714D01*
X161976190Y-106333333D01*
X161928571Y-106428571D01*
X161928571Y-106523809D01*
X162404761Y-106619047D01*
X161500000Y-106952380D02*
X161500000Y-106285714D01*
X161500000Y-106476190D02*
X161452380Y-106380952D01*
X161404761Y-106333333D01*
X161309523Y-106285714D01*
X161214285Y-106285714D01*
X160452380Y-106952380D02*
X160452380Y-106428571D01*
X160500000Y-106333333D01*
X160595238Y-106285714D01*
X160785714Y-106285714D01*
X160880952Y-106333333D01*
X160452380Y-106904761D02*
X160547619Y-106952380D01*
X160785714Y-106952380D01*
X160880952Y-106904761D01*
X160928571Y-106809523D01*
X160928571Y-106714285D01*
X160880952Y-106619047D01*
X160785714Y-106571428D01*
X160547619Y-106571428D01*
X160452380Y-106523809D01*
X159833333Y-106952380D02*
X159928571Y-106904761D01*
X159976190Y-106809523D01*
X159976190Y-105952380D01*
X170523809Y-107602380D02*
X170190476Y-108602380D01*
X169857142Y-107602380D01*
X169380952Y-108602380D02*
X169476190Y-108554761D01*
X169523809Y-108507142D01*
X169571428Y-108411904D01*
X169571428Y-108126190D01*
X169523809Y-108030952D01*
X169476190Y-107983333D01*
X169380952Y-107935714D01*
X169238095Y-107935714D01*
X169142857Y-107983333D01*
X169095238Y-108030952D01*
X169047619Y-108126190D01*
X169047619Y-108411904D01*
X169095238Y-108507142D01*
X169142857Y-108554761D01*
X169238095Y-108602380D01*
X169380952Y-108602380D01*
X168476190Y-108602380D02*
X168571428Y-108554761D01*
X168619047Y-108459523D01*
X168619047Y-107602380D01*
X168238095Y-107935714D02*
X167857142Y-107935714D01*
X168095238Y-107602380D02*
X168095238Y-108459523D01*
X168047619Y-108554761D01*
X167952380Y-108602380D01*
X167857142Y-108602380D01*
X167095238Y-108602380D02*
X167095238Y-108078571D01*
X167142857Y-107983333D01*
X167238095Y-107935714D01*
X167428571Y-107935714D01*
X167523809Y-107983333D01*
X167095238Y-108554761D02*
X167190476Y-108602380D01*
X167428571Y-108602380D01*
X167523809Y-108554761D01*
X167571428Y-108459523D01*
X167571428Y-108364285D01*
X167523809Y-108269047D01*
X167428571Y-108221428D01*
X167190476Y-108221428D01*
X167095238Y-108173809D01*
X166190476Y-107935714D02*
X166190476Y-108745238D01*
X166238095Y-108840476D01*
X166285714Y-108888095D01*
X166380952Y-108935714D01*
X166523809Y-108935714D01*
X166619047Y-108888095D01*
X166190476Y-108554761D02*
X166285714Y-108602380D01*
X166476190Y-108602380D01*
X166571428Y-108554761D01*
X166619047Y-108507142D01*
X166666666Y-108411904D01*
X166666666Y-108126190D01*
X166619047Y-108030952D01*
X166571428Y-107983333D01*
X166476190Y-107935714D01*
X166285714Y-107935714D01*
X166190476Y-107983333D01*
X165333333Y-108554761D02*
X165428571Y-108602380D01*
X165619047Y-108602380D01*
X165714285Y-108554761D01*
X165761904Y-108459523D01*
X165761904Y-108078571D01*
X165714285Y-107983333D01*
X165619047Y-107935714D01*
X165428571Y-107935714D01*
X165333333Y-107983333D01*
X165285714Y-108078571D01*
X165285714Y-108173809D01*
X165761904Y-108269047D01*
X164142857Y-108554761D02*
X164000000Y-108602380D01*
X163761904Y-108602380D01*
X163666666Y-108554761D01*
X163619047Y-108507142D01*
X163571428Y-108411904D01*
X163571428Y-108316666D01*
X163619047Y-108221428D01*
X163666666Y-108173809D01*
X163761904Y-108126190D01*
X163952380Y-108078571D01*
X164047619Y-108030952D01*
X164095238Y-107983333D01*
X164142857Y-107888095D01*
X164142857Y-107792857D01*
X164095238Y-107697619D01*
X164047619Y-107650000D01*
X163952380Y-107602380D01*
X163714285Y-107602380D01*
X163571428Y-107650000D01*
X162714285Y-107935714D02*
X162714285Y-108602380D01*
X163142857Y-107935714D02*
X163142857Y-108459523D01*
X163095238Y-108554761D01*
X163000000Y-108602380D01*
X162857142Y-108602380D01*
X162761904Y-108554761D01*
X162714285Y-108507142D01*
X162238095Y-107935714D02*
X162238095Y-108935714D01*
X162238095Y-107983333D02*
X162142857Y-107935714D01*
X161952380Y-107935714D01*
X161857142Y-107983333D01*
X161809523Y-108030952D01*
X161761904Y-108126190D01*
X161761904Y-108411904D01*
X161809523Y-108507142D01*
X161857142Y-108554761D01*
X161952380Y-108602380D01*
X162142857Y-108602380D01*
X162238095Y-108554761D01*
X161333333Y-107935714D02*
X161333333Y-108935714D01*
X161333333Y-107983333D02*
X161238095Y-107935714D01*
X161047619Y-107935714D01*
X160952380Y-107983333D01*
X160904761Y-108030952D01*
X160857142Y-108126190D01*
X160857142Y-108411904D01*
X160904761Y-108507142D01*
X160952380Y-108554761D01*
X161047619Y-108602380D01*
X161238095Y-108602380D01*
X161333333Y-108554761D01*
X160285714Y-108602380D02*
X160380952Y-108554761D01*
X160428571Y-108459523D01*
X160428571Y-107602380D01*
X160000000Y-107935714D02*
X159761904Y-108602380D01*
X159523809Y-107935714D02*
X159761904Y-108602380D01*
X159857142Y-108840476D01*
X159904761Y-108888095D01*
X160000000Y-108935714D01*
D12*
%TO.C,G\u002A\u002A\u002A*%
G36*
X164352298Y-94426258D02*
G01*
X164020909Y-94482286D01*
X163841876Y-94537229D01*
X163431271Y-94781609D01*
X163039286Y-95139859D01*
X162717268Y-95559710D01*
X162576378Y-95825476D01*
X162376263Y-96287777D01*
X161910596Y-96289694D01*
X161279187Y-96358976D01*
X160716308Y-96552902D01*
X160245961Y-96858715D01*
X159892145Y-97263658D01*
X159810595Y-97405916D01*
X159672443Y-97806937D01*
X159606366Y-98285057D01*
X159615530Y-98769536D01*
X159703101Y-99189635D01*
X159727875Y-99254000D01*
X160032210Y-99767510D01*
X160456574Y-100170759D01*
X160982594Y-100451050D01*
X161591897Y-100595686D01*
X161681865Y-100604313D01*
X162269879Y-100651000D01*
X161793904Y-101258653D01*
X161584553Y-101530443D01*
X161422140Y-101749903D01*
X161330164Y-101884854D01*
X161317930Y-101910395D01*
X161394059Y-101940286D01*
X161588540Y-101968100D01*
X161737549Y-101980076D01*
X162157168Y-102005667D01*
X161560880Y-102795609D01*
X161330060Y-103106555D01*
X161145857Y-103364629D01*
X161027317Y-103542435D01*
X160993094Y-103612312D01*
X161068462Y-103575026D01*
X161265619Y-103456125D01*
X161565371Y-103267785D01*
X161948521Y-103022182D01*
X162395875Y-102731492D01*
X162799596Y-102466410D01*
X164577596Y-101293746D01*
X163877181Y-101268707D01*
X163176765Y-101243667D01*
X163700925Y-100608667D01*
X165917261Y-100606807D01*
X166595200Y-100605383D01*
X167126469Y-100601369D01*
X167533727Y-100593245D01*
X167839631Y-100579491D01*
X168066842Y-100558584D01*
X168238018Y-100529005D01*
X168375819Y-100489233D01*
X168502904Y-100437746D01*
X168514596Y-100432483D01*
X169028188Y-100116403D01*
X169409697Y-99701144D01*
X169651277Y-99202590D01*
X169745077Y-98636625D01*
X169700865Y-98163566D01*
X167502838Y-98163566D01*
X167352551Y-98352732D01*
X167106614Y-98655262D01*
X166863604Y-98942244D01*
X166648923Y-99184998D01*
X166487973Y-99354841D01*
X166406159Y-99423095D01*
X166404315Y-99423334D01*
X166319153Y-99372883D01*
X166140171Y-99239209D01*
X165902512Y-99048824D01*
X165846068Y-99002150D01*
X165601324Y-98802757D01*
X165408953Y-98653743D01*
X165303542Y-98581699D01*
X165295421Y-98578817D01*
X165230775Y-98641248D01*
X165081728Y-98814781D01*
X164867281Y-99076420D01*
X164606438Y-99403172D01*
X164457611Y-99592667D01*
X163663976Y-100608667D01*
X162985831Y-100608667D01*
X162652686Y-100606201D01*
X162461472Y-100593901D01*
X162384804Y-100564409D01*
X162395298Y-100510370D01*
X162434259Y-100460500D01*
X162600261Y-100259055D01*
X162823328Y-99978433D01*
X163084138Y-99644065D01*
X163363366Y-99281383D01*
X163641690Y-98915817D01*
X163899785Y-98572798D01*
X164118329Y-98277758D01*
X164277996Y-98056127D01*
X164359465Y-97933337D01*
X164365930Y-97918304D01*
X164301878Y-97841109D01*
X164129362Y-97690437D01*
X163877843Y-97491048D01*
X163688596Y-97349000D01*
X163402350Y-97133769D01*
X163175963Y-96954656D01*
X163038749Y-96835369D01*
X163011263Y-96801200D01*
X163086626Y-96756778D01*
X163291469Y-96673201D01*
X163593925Y-96562702D01*
X163937970Y-96445478D01*
X164864676Y-96139319D01*
X166183757Y-97151442D01*
X167502838Y-98163566D01*
X169700865Y-98163566D01*
X169690490Y-98052560D01*
X169604056Y-97753111D01*
X169464262Y-97507973D01*
X169229643Y-97246757D01*
X169196794Y-97214535D01*
X168811365Y-96909737D01*
X168384530Y-96723013D01*
X167872369Y-96638384D01*
X167588104Y-96629334D01*
X167295640Y-96609221D01*
X167166767Y-96548732D01*
X167159863Y-96523500D01*
X167113249Y-96334222D01*
X166990991Y-96056516D01*
X166819216Y-95737294D01*
X166624052Y-95423464D01*
X166431628Y-95161937D01*
X166351763Y-95072660D01*
X165886228Y-94701199D01*
X165359586Y-94481201D01*
X164751632Y-94404456D01*
X164706572Y-94404234D01*
X164352298Y-94426258D01*
G37*
X164352298Y-94426258D02*
X164020909Y-94482286D01*
X163841876Y-94537229D01*
X163431271Y-94781609D01*
X163039286Y-95139859D01*
X162717268Y-95559710D01*
X162576378Y-95825476D01*
X162376263Y-96287777D01*
X161910596Y-96289694D01*
X161279187Y-96358976D01*
X160716308Y-96552902D01*
X160245961Y-96858715D01*
X159892145Y-97263658D01*
X159810595Y-97405916D01*
X159672443Y-97806937D01*
X159606366Y-98285057D01*
X159615530Y-98769536D01*
X159703101Y-99189635D01*
X159727875Y-99254000D01*
X160032210Y-99767510D01*
X160456574Y-100170759D01*
X160982594Y-100451050D01*
X161591897Y-100595686D01*
X161681865Y-100604313D01*
X162269879Y-100651000D01*
X161793904Y-101258653D01*
X161584553Y-101530443D01*
X161422140Y-101749903D01*
X161330164Y-101884854D01*
X161317930Y-101910395D01*
X161394059Y-101940286D01*
X161588540Y-101968100D01*
X161737549Y-101980076D01*
X162157168Y-102005667D01*
X161560880Y-102795609D01*
X161330060Y-103106555D01*
X161145857Y-103364629D01*
X161027317Y-103542435D01*
X160993094Y-103612312D01*
X161068462Y-103575026D01*
X161265619Y-103456125D01*
X161565371Y-103267785D01*
X161948521Y-103022182D01*
X162395875Y-102731492D01*
X162799596Y-102466410D01*
X164577596Y-101293746D01*
X163877181Y-101268707D01*
X163176765Y-101243667D01*
X163700925Y-100608667D01*
X165917261Y-100606807D01*
X166595200Y-100605383D01*
X167126469Y-100601369D01*
X167533727Y-100593245D01*
X167839631Y-100579491D01*
X168066842Y-100558584D01*
X168238018Y-100529005D01*
X168375819Y-100489233D01*
X168502904Y-100437746D01*
X168514596Y-100432483D01*
X169028188Y-100116403D01*
X169409697Y-99701144D01*
X169651277Y-99202590D01*
X169745077Y-98636625D01*
X169700865Y-98163566D01*
X167502838Y-98163566D01*
X167352551Y-98352732D01*
X167106614Y-98655262D01*
X166863604Y-98942244D01*
X166648923Y-99184998D01*
X166487973Y-99354841D01*
X166406159Y-99423095D01*
X166404315Y-99423334D01*
X166319153Y-99372883D01*
X166140171Y-99239209D01*
X165902512Y-99048824D01*
X165846068Y-99002150D01*
X165601324Y-98802757D01*
X165408953Y-98653743D01*
X165303542Y-98581699D01*
X165295421Y-98578817D01*
X165230775Y-98641248D01*
X165081728Y-98814781D01*
X164867281Y-99076420D01*
X164606438Y-99403172D01*
X164457611Y-99592667D01*
X163663976Y-100608667D01*
X162985831Y-100608667D01*
X162652686Y-100606201D01*
X162461472Y-100593901D01*
X162384804Y-100564409D01*
X162395298Y-100510370D01*
X162434259Y-100460500D01*
X162600261Y-100259055D01*
X162823328Y-99978433D01*
X163084138Y-99644065D01*
X163363366Y-99281383D01*
X163641690Y-98915817D01*
X163899785Y-98572798D01*
X164118329Y-98277758D01*
X164277996Y-98056127D01*
X164359465Y-97933337D01*
X164365930Y-97918304D01*
X164301878Y-97841109D01*
X164129362Y-97690437D01*
X163877843Y-97491048D01*
X163688596Y-97349000D01*
X163402350Y-97133769D01*
X163175963Y-96954656D01*
X163038749Y-96835369D01*
X163011263Y-96801200D01*
X163086626Y-96756778D01*
X163291469Y-96673201D01*
X163593925Y-96562702D01*
X163937970Y-96445478D01*
X164864676Y-96139319D01*
X166183757Y-97151442D01*
X167502838Y-98163566D01*
X169700865Y-98163566D01*
X169690490Y-98052560D01*
X169604056Y-97753111D01*
X169464262Y-97507973D01*
X169229643Y-97246757D01*
X169196794Y-97214535D01*
X168811365Y-96909737D01*
X168384530Y-96723013D01*
X167872369Y-96638384D01*
X167588104Y-96629334D01*
X167295640Y-96609221D01*
X167166767Y-96548732D01*
X167159863Y-96523500D01*
X167113249Y-96334222D01*
X166990991Y-96056516D01*
X166819216Y-95737294D01*
X166624052Y-95423464D01*
X166431628Y-95161937D01*
X166351763Y-95072660D01*
X165886228Y-94701199D01*
X165359586Y-94481201D01*
X164751632Y-94404456D01*
X164706572Y-94404234D01*
X164352298Y-94426258D01*
%TD*%
M02*
