<?xml version="1.0" standalone="no"?>
 <!DOCTYPE svg PUBLIC "-//W3C//DTD SVG 1.1//EN" 
 "http://www.w3.org/Graphics/SVG/1.1/DTD/svg11.dtd"> 
<svg
  xmlns:svg="http://www.w3.org/2000/svg"
  xmlns="http://www.w3.org/2000/svg"
  xmlns:xlink="http://www.w3.org/1999/xlink"
  version="1.1"
  width="29.700220cm" height="21.000720cm" viewBox="0 0 116930 82680">
<title>SVG Picture created as 4_Channel_Level_Shifter-B_Cu.svg date 2020/08/25 19:22:08 </title>
  <desc>Picture generated by PCBNEW </desc>
<g style="fill:#000000; fill-opacity:1;stroke:#000000; stroke-opacity:1;
stroke-linecap:round; stroke-linejoin:round;"
 transform="translate(0 0) scale(1 1)">
</g>
<g style="fill:#000000; fill-opacity:0.0; 
stroke:#000000; stroke-width:-0.000393701; stroke-opacity:1; 
stroke-linecap:round; stroke-linejoin:round;">
<g >
</g>
<g >
</g>
<g >
</g>
<g >
</g>
<g >
</g>
<g >
</g>
<g >
</g>
<g >
</g>
<g >
</g>
<g >
</g>
<g >
</g>
<g style="fill:#000000; fill-opacity:0.0; 
stroke:#000000; stroke-width:-0.000393701; stroke-opacity:1; 
stroke-linecap:round; stroke-linejoin:round;">
</g>
<g style="fill:#000000; fill-opacity:0.0; 
stroke:#000000; stroke-width:472.441; stroke-opacity:1; 
stroke-linecap:round; stroke-linejoin:round;">
<path d="M68080 37952
L68297 37952
" />
<path d="M68080 38740
L68297 38740
" />
<path d="M68080 39527
L68297 39527
" />
<path d="M68080 40314
L68297 40314
" />
<path d="M68080 41102
L68297 41102
" />
</g>
<g style="fill:#000000; fill-opacity:0.0; 
stroke:#000000; stroke-width:0; stroke-opacity:1; 
stroke-linecap:round; stroke-linejoin:round;">
</g>
<g style="fill:#000000; fill-opacity:1.0; 
stroke:#000000; stroke-width:0; stroke-opacity:1; 
stroke-linecap:round; stroke-linejoin:round;">
<path style="fill:#000000; fill-opacity:1.0; 
stroke:#000000; stroke-width:0; stroke-opacity:1; 
stroke-linecap:round; stroke-linejoin:round;fill-rule:evenodd;"
d="M 68444.7,41654
68454.2,41655.4
68463.6,41657.8
68472.7,41661
68481.4,41665.2
68489.7,41670.1
68497.5,41675.9
68504.6,41682.4
68511.1,41689.5
68516.9,41697.3
68521.8,41705.6
68526,41714.3
68529.2,41723.4
68531.6,41732.8
68533,41742.3
68533.5,41752
68533.5,42027.6
68533,42037.2
68531.6,42046.8
68529.2,42056.1
68526,42065.2
68521.8,42074
68516.9,42082.2
68511.1,42090
68504.6,42097.2
68497.5,42103.6
68489.7,42109.4
68481.4,42114.4
68472.7,42118.5
68463.6,42121.7
68454.2,42124.1
68444.7,42125.5
68435,42126
67942.9,42126
67933.3,42125.5
67923.7,42124.1
67914.3,42121.7
67905.2,42118.5
67896.5,42114.4
67888.2,42109.4
67880.5,42103.6
67873.3,42097.2
67866.8,42090
67861.1,42082.2
67856.1,42074
67852,42065.2
67848.7,42056.1
67846.4,42046.8
67845,42037.2
67844.5,42027.6
67844.5,41752
67845,41742.3
67846.4,41732.8
67848.7,41723.4
67852,41714.3
67856.1,41705.6
67861.1,41697.3
67866.8,41689.5
67873.3,41682.4
67880.5,41675.9
67888.2,41670.1
67896.5,41665.2
67905.2,41661
67914.3,41657.8
67923.7,41655.4
67933.3,41654
67942.9,41653.5
68435,41653.5
Z" /> 
</g>
<g >
</g>
<g style="fill:#000000; fill-opacity:1.0; 
stroke:#000000; stroke-width:0; stroke-opacity:1; 
stroke-linecap:round; stroke-linejoin:round;">
</g>
<g style="fill:#000000; fill-opacity:1.0; 
stroke:#000000; stroke-width:472.441; stroke-opacity:1; 
stroke-linecap:round; stroke-linejoin:round;">
</g>
<g style="fill:#000000; fill-opacity:0.0; 
stroke:#000000; stroke-width:472.441; stroke-opacity:1; 
stroke-linecap:round; stroke-linejoin:round;">
<path d="M60994 37952
L61210 37952
" />
<path d="M60994 38740
L61210 38740
" />
<path d="M60994 39527
L61210 39527
" />
<path d="M60994 40314
L61210 40314
" />
<path d="M60994 41102
L61210 41102
" />
</g>
<g style="fill:#000000; fill-opacity:0.0; 
stroke:#000000; stroke-width:0; stroke-opacity:1; 
stroke-linecap:round; stroke-linejoin:round;">
</g>
<g style="fill:#000000; fill-opacity:1.0; 
stroke:#000000; stroke-width:0; stroke-opacity:1; 
stroke-linecap:round; stroke-linejoin:round;">
<path style="fill:#000000; fill-opacity:1.0; 
stroke:#000000; stroke-width:0; stroke-opacity:1; 
stroke-linecap:round; stroke-linejoin:round;fill-rule:evenodd;"
d="M 61358.1,41654
61367.6,41655.4
61377,41657.8
61386.1,41661
61394.8,41665.2
61403.1,41670.1
61410.9,41675.9
61418,41682.4
61424.5,41689.5
61430.3,41697.3
61435.2,41705.6
61439.4,41714.3
61442.6,41723.4
61445,41732.8
61446.4,41742.3
61446.9,41752
61446.9,42027.6
61446.4,42037.2
61445,42046.8
61442.6,42056.1
61439.4,42065.2
61435.2,42074
61430.3,42082.2
61424.5,42090
61418,42097.2
61410.9,42103.6
61403.1,42109.4
61394.8,42114.4
61386.1,42118.5
61377,42121.7
61367.6,42124.1
61358.1,42125.5
61348.4,42126
60856.3,42126
60846.7,42125.5
60837.1,42124.1
60827.7,42121.7
60818.6,42118.5
60809.9,42114.4
60801.6,42109.4
60793.9,42103.6
60786.7,42097.2
60780.2,42090
60774.5,42082.2
60769.5,42074
60765.4,42065.2
60762.1,42056.1
60759.8,42046.8
60758.3,42037.2
60757.9,42027.6
60757.9,41752
60758.3,41742.3
60759.8,41732.8
60762.1,41723.4
60765.4,41714.3
60769.5,41705.6
60774.5,41697.3
60780.2,41689.5
60786.7,41682.4
60793.9,41675.9
60801.6,41670.1
60809.9,41665.2
60818.6,41661
60827.7,41657.8
60837.1,41655.4
60846.7,41654
60856.3,41653.5
61348.4,41653.5
Z" /> 
</g>
<g >
</g>
<g >
</g>
<g >
</g>
<g >
</g>
<g style="fill:#000000; fill-opacity:1.0; 
stroke:#000000; stroke-width:0; stroke-opacity:1; 
stroke-linecap:round; stroke-linejoin:round;">
<circle cx="62401.6" cy="42322.8" r="157.48" /> 
</g>
<g style="fill:#000000; fill-opacity:1.0; 
stroke:#000000; stroke-width:39.3701; stroke-opacity:1; 
stroke-linecap:round; stroke-linejoin:round;">
</g>
<g style="fill:#000000; fill-opacity:1.0; 
stroke:#000000; stroke-width:0; stroke-opacity:1; 
stroke-linecap:round; stroke-linejoin:round;">
<circle cx="64173.2" cy="42519.7" r="157.48" /> 
</g>
<g style="fill:#000000; fill-opacity:1.0; 
stroke:#000000; stroke-width:39.3701; stroke-opacity:1; 
stroke-linecap:round; stroke-linejoin:round;">
</g>
<g style="fill:#000000; fill-opacity:1.0; 
stroke:#000000; stroke-width:0; stroke-opacity:1; 
stroke-linecap:round; stroke-linejoin:round;">
<circle cx="64960.6" cy="41732.3" r="157.48" /> 
</g>
<g style="fill:#000000; fill-opacity:1.0; 
stroke:#000000; stroke-width:39.3701; stroke-opacity:1; 
stroke-linecap:round; stroke-linejoin:round;">
</g>
<g style="fill:#000000; fill-opacity:1.0; 
stroke:#000000; stroke-width:0; stroke-opacity:1; 
stroke-linecap:round; stroke-linejoin:round;">
<circle cx="66535.4" cy="42322.8" r="157.48" /> 
</g>
<g style="fill:#000000; fill-opacity:1.0; 
stroke:#000000; stroke-width:39.3701; stroke-opacity:1; 
stroke-linecap:round; stroke-linejoin:round;">
</g>
<g style="fill:#000000; fill-opacity:1.0; 
stroke:#000000; stroke-width:0; stroke-opacity:1; 
stroke-linecap:round; stroke-linejoin:round;">
<circle cx="66732.3" cy="41141.7" r="157.48" /> 
</g>
<g style="fill:#000000; fill-opacity:1.0; 
stroke:#000000; stroke-width:39.3701; stroke-opacity:1; 
stroke-linecap:round; stroke-linejoin:round;">
</g>
<g style="fill:#000000; fill-opacity:1.0; 
stroke:#000000; stroke-width:0; stroke-opacity:1; 
stroke-linecap:round; stroke-linejoin:round;">
<circle cx="65354.3" cy="40748" r="157.48" /> 
</g>
<g style="fill:#000000; fill-opacity:1.0; 
stroke:#000000; stroke-width:39.3701; stroke-opacity:1; 
stroke-linecap:round; stroke-linejoin:round;">
</g>
<g >
</g>
<g style="fill:#000000; fill-opacity:1.0; 
stroke:#000000; stroke-width:39.3701; stroke-opacity:1; 
stroke-linecap:round; stroke-linejoin:round;">
</g>
<g style="fill:#000000; fill-opacity:1.0; 
stroke:#000000; stroke-width:98.4252; stroke-opacity:1; 
stroke-linecap:round; stroke-linejoin:round;">
</g>
<g style="fill:#000000; fill-opacity:0.0; 
stroke:#000000; stroke-width:98.4252; stroke-opacity:1; 
stroke-linecap:round; stroke-linejoin:round;">
<path d="M66732 41141
L65748 41141
" />
<path d="M65748 41141
L65354 40748
" />
</g>
<g >
</g>
<g style="fill:#000000; fill-opacity:0.0; 
stroke:#000000; stroke-width:98.4252; stroke-opacity:1; 
stroke-linecap:round; stroke-linejoin:round;">
</g>
<g style="fill:#000000; fill-opacity:1.0; 
stroke:#000000; stroke-width:100; stroke-opacity:1; 
stroke-linecap:round; stroke-linejoin:round;">
<path style="fill:#000000; fill-opacity:1.0; 
stroke:#000000; stroke-width:100; stroke-opacity:1; 
stroke-linecap:round; stroke-linejoin:round;fill-rule:evenodd;"
d="M 69317.1,37074.6
69341.9,37082.1
69364.7,37094.3
69384.8,37110.6
69401.3,37130.6
69413.6,37153.3
69421.2,37178.1
69425.2,37215.7
69425.2,42703.8
69421.4,42742.3
69413.9,42767.1
69401.8,42789.9
69385.4,42810
69365.5,42826.5
69342.7,42838.8
69318,42846.4
69280.4,42850.4
60445.8,42850.4
60407.3,42846.6
60382.5,42839.1
60359.7,42827
60339.6,42810.6
60323.1,42790.7
60310.8,42767.9
60303.2,42743.2
60299.2,42705.6
60299.2,42126
60506.7,42126
60511.5,42175
60525.8,42222.1
60549,42265.5
60580.2,42303.6
60618.3,42334.9
60661.7,42358.1
60708.9,42372.4
60757.9,42377.2
60989.9,42376
61052.4,42313.5
61052.4,41939.8
61152.4,41939.8
61152.4,42313.5
61214.9,42376
61446.9,42377.2
61495.9,42372.4
61543,42358.1
61586.4,42334.9
61624.5,42303.6
61655.7,42265.5
61678.9,42222.1
61693.2,42175
61698.1,42126
67593.3,42126
67598.1,42175
67612.4,42222.1
67635.6,42265.5
67666.9,42303.6
67704.9,42334.9
67748.4,42358.1
67795.5,42372.4
67844.5,42377.2
68076.5,42376
68139,42313.5
68139,41939.8
68239,41939.8
68239,42313.5
68301.5,42376
68533.5,42377.2
68582.5,42372.4
68629.6,42358.1
68673,42334.9
68711.1,42303.6
68742.3,42265.5
68765.6,42222.1
68779.8,42175
68784.7,42126
68783.5,42002.3
68721,41939.8
68239,41939.8
68139,41939.8
67657,41939.8
67594.5,42002.3
67593.3,42126
61698.1,42126
61696.9,42002.3
61634.4,41939.8
61152.4,41939.8
61052.4,41939.8
60570.4,41939.8
60507.9,42002.3
60506.7,42126
60299.2,42126
60299.2,37952.8
60505.5,37952.8
60514.9,38048.1
60542.7,38139.7
60587.9,38224.2
60648.6,38298.2
60707.4,38346.5
60648.6,38394.7
60587.9,38468.7
60542.7,38553.2
60514.9,38644.8
60505.5,38740.2
60514.9,38835.5
60542.7,38927.1
60587.9,39011.6
60648.6,39085.6
60707.4,39133.9
60648.6,39182.1
60587.9,39256.1
60542.7,39340.6
60514.9,39432.2
60505.5,39527.6
60514.9,39622.9
60542.7,39714.5
60587.9,39799
60648.6,39873
60707.4,39921.3
60648.6,39969.5
60587.9,40043.5
60542.7,40128
60514.9,40219.6
60505.5,40315
60514.9,40410.3
60542.7,40501.9
60587.9,40586.4
60648.6,40660.4
60707.4,40708.7
60648.6,40756.9
60587.9,40830.9
60542.7,40915.4
60514.9,41007
60505.5,41102.4
60514.9,41197.7
60542.7,41289.3
60587.9,41373.8
60637.6,41434.4
60618.3,41444.7
60580.2,41475.9
60549,41514
60525.8,41557.4
60511.5,41604.5
60506.7,41653.5
60507.9,41777.3
60570.4,41839.8
61052.4,41839.8
61052.4,41831.9
61152.4,41831.9
61152.4,41839.8
61634.4,41839.8
61696.9,41777.3
61698.1,41653.5
61693.2,41604.5
61678.9,41557.4
61655.7,41514
61624.5,41475.9
61586.4,41444.7
61567.2,41434.4
61616.9,41373.8
61662,41289.3
61689.8,41197.7
61699.2,41102.4
61689.8,41007
61662,40915.4
61616.9,40830.9
61556.1,40756.9
61497.3,40708.7
61498.3,40707.9
64946.9,40707.9
64946.9,40788.2
64962.5,40866.9
64993.2,40941
65037.8,41007.8
65094.6,41064.5
65161.3,41109.1
65235.5,41139.9
65314.2,41155.5
65338.7,41155.5
65526.1,41342.9
65535.4,41354.3
65546.8,41363.7
65581,41391.7
65633,41419.5
65689.4,41436.6
65748,41442.4
65762.7,41440.9
66455.2,41440.9
66472.5,41458.2
66539.3,41502.8
66613.4,41533.6
66692.1,41549.2
66772.4,41549.2
66851.1,41533.6
66925.3,41502.8
66992,41458.2
67048.8,41401.5
67093.4,41334.7
67124.1,41260.6
67139.8,41181.9
67139.8,41101.6
67124.1,41022.9
67093.4,40948.7
67048.8,40882
66992,40825.2
66925.3,40780.6
66851.1,40749.9
66772.4,40734.3
66692.1,40734.3
66613.4,40749.9
66539.3,40780.6
66472.5,40825.2
66455.2,40842.5
65872,40842.5
65761.8,40732.4
65761.8,40707.9
65746.2,40629.2
65715.4,40555
65670.8,40488.3
65614.1,40431.5
65547.3,40386.9
65473.2,40356.2
65394.5,40340.6
65314.2,40340.6
65235.5,40356.2
65161.3,40386.9
65094.6,40431.5
65037.8,40488.3
64993.2,40555
64962.5,40629.2
64946.9,40707.9
61498.3,40707.9
61556.1,40660.4
61616.9,40586.4
61662,40501.9
61689.8,40410.3
61699.2,40315
61689.8,40219.6
61662,40128
61616.9,40043.5
61556.1,39969.5
61497.3,39921.3
61556.1,39873
61616.9,39799
61662,39714.5
61689.8,39622.9
61699.2,39527.6
61689.8,39432.2
61662,39340.6
61616.9,39256.1
61556.1,39182.1
61497.3,39133.9
61556.1,39085.6
61616.9,39011.6
61662,38927.1
61689.8,38835.5
61699.2,38740.2
61689.8,38644.8
61662,38553.2
61616.9,38468.7
61556.1,38394.7
61497.3,38346.5
61556.1,38298.2
61616.9,38224.2
61662,38139.7
61689.8,38048.1
61699.2,37952.8
67592.1,37952.8
67601.5,38048.1
67629.3,38139.7
67674.5,38224.2
67735.2,38298.2
67794,38346.5
67735.2,38394.7
67674.5,38468.7
67629.3,38553.2
67601.5,38644.8
67592.1,38740.2
67601.5,38835.5
67629.3,38927.1
67674.5,39011.6
67735.2,39085.6
67794,39133.9
67735.2,39182.1
67674.5,39256.1
67629.3,39340.6
67601.5,39432.2
67592.1,39527.6
67601.5,39622.9
67629.3,39714.5
67674.5,39799
67735.2,39873
67794,39921.3
67735.2,39969.5
67674.5,40043.5
67629.3,40128
67601.5,40219.6
67592.1,40315
67601.5,40410.3
67629.3,40501.9
67674.5,40586.4
67735.2,40660.4
67794,40708.7
67735.2,40756.9
67674.5,40830.9
67629.3,40915.4
67601.5,41007
67592.1,41102.4
67601.5,41197.7
67629.3,41289.3
67674.5,41373.8
67724.2,41434.4
67704.9,41444.7
67666.9,41475.9
67635.6,41514
67612.4,41557.4
67598.1,41604.5
67593.3,41653.5
67594.5,41777.3
67657,41839.8
68139,41839.8
68139,41831.9
68239,41831.9
68239,41839.8
68721,41839.8
68783.5,41777.3
68784.7,41653.5
68779.8,41604.5
68765.6,41557.4
68742.3,41514
68711.1,41475.9
68673,41444.7
68653.8,41434.4
68703.5,41373.8
68748.6,41289.3
68776.4,41197.7
68785.8,41102.4
68776.4,41007
68748.6,40915.4
68703.5,40830.9
68642.7,40756.9
68584,40708.7
68642.7,40660.4
68703.5,40586.4
68748.6,40501.9
68776.4,40410.3
68785.8,40315
68776.4,40219.6
68748.6,40128
68703.5,40043.5
68642.7,39969.5
68584,39921.3
68642.7,39873
68703.5,39799
68748.6,39714.5
68776.4,39622.9
68785.8,39527.6
68776.4,39432.2
68748.6,39340.6
68703.5,39256.1
68642.7,39182.1
68584,39133.9
68642.7,39085.6
68703.5,39011.6
68748.6,38927.1
68776.4,38835.5
68785.8,38740.2
68776.4,38644.8
68748.6,38553.2
68703.5,38468.7
68642.7,38394.7
68584,38346.5
68642.7,38298.2
68703.5,38224.2
68748.6,38139.7
68776.4,38048.1
68785.8,37952.8
68776.4,37857.4
68748.6,37765.8
68703.5,37681.3
68642.7,37607.3
68568.7,37546.5
68484.2,37501.4
68392.6,37473.6
68321.1,37466.5
68056.8,37466.5
67985.4,37473.6
67893.7,37501.4
67809.3,37546.5
67735.2,37607.3
67674.5,37681.3
67629.3,37765.8
67601.5,37857.4
67592.1,37952.8
61699.2,37952.8
61689.8,37857.4
61662,37765.8
61616.9,37681.3
61556.1,37607.3
61482.1,37546.5
61397.6,37501.4
61305.9,37473.6
61234.5,37466.5
60970.2,37466.5
60898.8,37473.6
60807.1,37501.4
60722.7,37546.5
60648.6,37607.3
60587.9,37681.3
60542.7,37765.8
60514.9,37857.4
60505.5,37952.8
60299.2,37952.8
60299.2,37217.4
60303,37179
60310.5,37154.2
60322.6,37131.3
60339,37111.3
60358.9,37094.8
60381.7,37082.5
60406.4,37074.8
60444,37070.9
69278.6,37070.9
Z" /> 
</g>
</g> 
</svg>
