G04 #@! TF.GenerationSoftware,KiCad,Pcbnew,5.1.6-c6e7f7d~86~ubuntu18.04.1*
G04 #@! TF.CreationDate,2020-06-01T21:53:24-04:00*
G04 #@! TF.ProjectId,E73 SCR v2,45373320-5343-4522-9076-322e6b696361,rev?*
G04 #@! TF.SameCoordinates,Original*
G04 #@! TF.FileFunction,Copper,L4,Bot*
G04 #@! TF.FilePolarity,Positive*
%FSLAX46Y46*%
G04 Gerber Fmt 4.6, Leading zero omitted, Abs format (unit mm)*
G04 Created by KiCad (PCBNEW 5.1.6-c6e7f7d~86~ubuntu18.04.1) date 2020-06-01 21:53:24*
%MOMM*%
%LPD*%
G01*
G04 APERTURE LIST*
G04 #@! TA.AperFunction,ComponentPad*
%ADD10C,1.200000*%
G04 #@! TD*
G04 #@! TA.AperFunction,ComponentPad*
%ADD11C,2.000000*%
G04 #@! TD*
G04 #@! TA.AperFunction,ComponentPad*
%ADD12C,1.500000*%
G04 #@! TD*
G04 #@! TA.AperFunction,ComponentPad*
%ADD13R,1.700000X1.200000*%
G04 #@! TD*
G04 #@! TA.AperFunction,ComponentPad*
%ADD14O,1.700000X1.200000*%
G04 #@! TD*
G04 #@! TA.AperFunction,ComponentPad*
%ADD15C,1.450000*%
G04 #@! TD*
G04 #@! TA.AperFunction,ComponentPad*
%ADD16O,1.900000X1.200000*%
G04 #@! TD*
G04 #@! TA.AperFunction,ComponentPad*
%ADD17R,1.000000X1.000000*%
G04 #@! TD*
G04 #@! TA.AperFunction,ComponentPad*
%ADD18O,1.000000X1.000000*%
G04 #@! TD*
G04 #@! TA.AperFunction,ViaPad*
%ADD19C,0.800000*%
G04 #@! TD*
G04 #@! TA.AperFunction,ViaPad*
%ADD20C,1.000000*%
G04 #@! TD*
G04 #@! TA.AperFunction,Conductor*
%ADD21C,0.400000*%
G04 #@! TD*
G04 #@! TA.AperFunction,Conductor*
%ADD22C,0.300000*%
G04 #@! TD*
G04 #@! TA.AperFunction,Conductor*
%ADD23C,0.250000*%
G04 #@! TD*
G04 #@! TA.AperFunction,Conductor*
%ADD24C,0.254000*%
G04 #@! TD*
G04 APERTURE END LIST*
D10*
X80000000Y-102500000D03*
X80000000Y-104500000D03*
X80000000Y-106500000D03*
X80000000Y-108500000D03*
X80000000Y-110500000D03*
X78000000Y-102500000D03*
X78000000Y-104500000D03*
X78000000Y-106500000D03*
X78000000Y-108500000D03*
G04 #@! TA.AperFunction,ComponentPad*
G36*
G01*
X78350001Y-111100000D02*
X77649999Y-111100000D01*
G75*
G02*
X77400000Y-110850001I0J249999D01*
G01*
X77400000Y-110149999D01*
G75*
G02*
X77649999Y-109900000I249999J0D01*
G01*
X78350001Y-109900000D01*
G75*
G02*
X78600000Y-110149999I0J-249999D01*
G01*
X78600000Y-110850001D01*
G75*
G02*
X78350001Y-111100000I-249999J0D01*
G01*
G37*
G04 #@! TD.AperFunction*
D11*
X85570500Y-96202500D03*
X77370500Y-96202500D03*
D12*
X79470500Y-96202500D03*
X81470500Y-96202500D03*
X83470500Y-96202500D03*
D13*
X96500000Y-107500000D03*
D14*
X96500000Y-105500000D03*
D13*
X84500000Y-112500000D03*
D14*
X84500000Y-110500000D03*
X84500000Y-108500000D03*
X84500000Y-106500000D03*
X84500000Y-104500000D03*
X84500000Y-102500000D03*
D13*
X90000000Y-112500000D03*
D14*
X90000000Y-110500000D03*
X90000000Y-108500000D03*
X90000000Y-106500000D03*
X90000000Y-104500000D03*
X90000000Y-102500000D03*
D15*
X54166000Y-93000000D03*
X54166000Y-98000000D03*
D16*
X51466000Y-92000000D03*
X51466000Y-99000000D03*
D17*
X63000000Y-92500000D03*
D18*
X63000000Y-93770000D03*
X61730000Y-92500000D03*
X61730000Y-93770000D03*
X60460000Y-92500000D03*
X60460000Y-93770000D03*
X59190000Y-92500000D03*
X59190000Y-93770000D03*
X57920000Y-92500000D03*
X57920000Y-93770000D03*
D19*
X72750000Y-120500000D03*
X71500000Y-120500000D03*
X55500000Y-97000000D03*
X97500000Y-113000000D03*
X95000000Y-116500000D03*
X80500000Y-120729991D03*
X80725010Y-119122774D03*
X69500000Y-105500000D03*
X74442744Y-107814520D03*
X74410145Y-103774990D03*
X75024070Y-106774071D03*
X72073737Y-101875032D03*
X77600000Y-123750000D03*
X77600000Y-122250000D03*
X64400000Y-104400000D03*
X94000000Y-124000000D03*
X92500000Y-124000000D03*
X95500000Y-124000000D03*
X97000000Y-124000000D03*
X98500000Y-124000000D03*
X98500000Y-122500000D03*
X98500000Y-121000000D03*
X98500000Y-102000000D03*
X98500000Y-100500000D03*
X98500000Y-99000000D03*
X98500000Y-94500000D03*
X98500000Y-97500000D03*
X98500000Y-96000000D03*
X98500000Y-93000000D03*
X98500000Y-91500000D03*
X97000000Y-97500000D03*
X97000000Y-96000000D03*
X97000000Y-94500000D03*
X95500000Y-94500000D03*
X95500000Y-97500000D03*
X95500000Y-96000000D03*
X92500000Y-94500000D03*
X92500000Y-97500000D03*
X92500000Y-96000000D03*
X91000000Y-96000000D03*
X91000000Y-97500000D03*
X91000000Y-94500000D03*
X95500000Y-99000000D03*
X95500000Y-102000000D03*
X95500000Y-100500000D03*
X74000000Y-96000000D03*
X75500000Y-96000000D03*
X72500000Y-96000000D03*
X55500000Y-105000000D03*
X57000000Y-105000000D03*
X58500000Y-105000000D03*
X55500000Y-106500000D03*
X57000000Y-106500000D03*
X58500000Y-106500000D03*
X57000000Y-108000000D03*
X55500000Y-108000000D03*
X58500000Y-108000000D03*
X57000000Y-109500000D03*
X55500000Y-109500000D03*
X58500000Y-109500000D03*
X58500000Y-111000000D03*
X55500000Y-111000000D03*
X57000000Y-111000000D03*
X60000000Y-111000000D03*
X63000000Y-111000000D03*
X61500000Y-111000000D03*
X63000000Y-109500000D03*
X61500000Y-109500000D03*
X60000000Y-109500000D03*
X60000000Y-108000000D03*
X63000000Y-108000000D03*
X61500000Y-108000000D03*
X63000000Y-106500000D03*
X61500000Y-106500000D03*
X60000000Y-106500000D03*
X61500000Y-105000000D03*
X63000000Y-105000000D03*
X60000000Y-105000000D03*
X59000000Y-121000000D03*
X59000000Y-122500000D03*
X59000000Y-124000000D03*
X60500000Y-122500000D03*
X60500000Y-124000000D03*
X60500000Y-121000000D03*
X62000000Y-124000000D03*
X62000000Y-122500000D03*
X62000000Y-121000000D03*
X57500000Y-124000000D03*
X57500000Y-119500000D03*
X57500000Y-118000000D03*
X57500000Y-116500000D03*
X59000000Y-119500000D03*
X59000000Y-118000000D03*
X60500000Y-119500000D03*
X54000000Y-123000000D03*
X80000000Y-116000000D03*
X71916495Y-109333505D03*
X72129675Y-104175019D03*
X71073724Y-101875032D03*
D20*
X93569998Y-114350000D03*
X64750000Y-95500000D03*
X56000000Y-93800000D03*
D19*
X90250000Y-116500000D03*
X90200000Y-121400000D03*
X56500000Y-99000000D03*
X57799989Y-99000000D03*
X84400000Y-121800000D03*
X66600000Y-123400000D03*
X54500000Y-104000000D03*
X63500000Y-95000000D03*
X65250000Y-122500000D03*
X80500000Y-112500000D03*
X66507898Y-108539530D03*
X69500000Y-108143534D03*
X66558763Y-107418524D03*
X66515472Y-106297725D03*
X66556186Y-104912866D03*
X64250000Y-103000000D03*
X59905574Y-102492124D03*
X58655574Y-102492124D03*
X57353819Y-102478905D03*
X59250000Y-99000000D03*
X88500000Y-98000000D03*
X60448695Y-98933769D03*
X66500000Y-110000000D03*
X61205764Y-102487577D03*
X66508192Y-111089504D03*
X62455764Y-102487577D03*
D21*
X93569998Y-114350000D02*
X93569998Y-91819998D01*
X92639996Y-92750000D02*
X66000000Y-92750000D01*
X93569998Y-91819998D02*
X92639996Y-92750000D01*
X66000000Y-92750000D02*
X64649999Y-91399999D01*
X64649999Y-91399999D02*
X57391999Y-91399999D01*
D22*
X56250000Y-92541998D02*
X56520999Y-92270999D01*
D21*
X57391999Y-91399999D02*
X56520999Y-92270999D01*
D22*
X64750000Y-91500000D02*
X64649999Y-91399999D01*
X64750000Y-95500000D02*
X64750000Y-91500000D01*
X56000000Y-93800000D02*
X56000000Y-93750000D01*
D21*
X56000000Y-92800000D02*
X56520999Y-92270999D01*
X56000000Y-93800000D02*
X56000000Y-92800000D01*
D23*
X95324999Y-106675001D02*
X95324999Y-114175001D01*
X96500000Y-105500000D02*
X95324999Y-106675001D01*
X95324999Y-114175001D02*
X93000000Y-116500000D01*
X93000000Y-116500000D02*
X90250000Y-116500000D01*
X90200000Y-121400000D02*
X90250000Y-120083172D01*
X90250000Y-120083172D02*
X90250000Y-116500000D01*
X61730000Y-93770000D02*
X56500000Y-99000000D01*
X58000000Y-99000000D02*
X57799989Y-99000000D01*
X58945012Y-97824988D02*
X58609327Y-97824988D01*
X63000000Y-93770000D02*
X58945012Y-97824988D01*
X58609327Y-97824988D02*
X58000000Y-98434315D01*
X58000000Y-98434315D02*
X58000000Y-99000000D01*
X66975001Y-123024999D02*
X66600000Y-123400000D01*
X84400000Y-121800000D02*
X83175001Y-123024999D01*
X83175001Y-123024999D02*
X66975001Y-123024999D01*
X59338591Y-98274999D02*
X62613590Y-95000000D01*
X62613590Y-95000000D02*
X63500000Y-95000000D01*
X58524999Y-98651999D02*
X58901999Y-98274999D01*
X58524999Y-99975001D02*
X58524999Y-98651999D01*
X54500000Y-104000000D02*
X58524999Y-99975001D01*
X58901999Y-98274999D02*
X59338591Y-98274999D01*
X87450011Y-112221402D02*
X87450011Y-111049989D01*
X87450011Y-111049989D02*
X90000000Y-108500000D01*
X65250000Y-122500000D02*
X75000000Y-122500000D01*
X84971402Y-114700011D02*
X87450011Y-112221402D01*
X75000000Y-122500000D02*
X84971402Y-114700011D01*
X80500000Y-112500000D02*
X81500000Y-112500000D01*
X81500000Y-112500000D02*
X83250000Y-114250000D01*
X84785002Y-114250000D02*
X87000000Y-112035002D01*
X83250000Y-114250000D02*
X84785002Y-114250000D01*
X87000000Y-109500000D02*
X90000000Y-106500000D01*
X87000000Y-112035002D02*
X87000000Y-109500000D01*
X66907897Y-108939529D02*
X66507898Y-108539530D01*
X69777009Y-108939529D02*
X66907897Y-108939529D01*
X77151472Y-106500000D02*
X75111942Y-108539530D01*
X75111942Y-108539530D02*
X71983291Y-108539530D01*
X78000000Y-106500000D02*
X77151472Y-106500000D01*
X70122993Y-108593545D02*
X69777009Y-108939529D01*
X71983291Y-108539530D02*
X71750000Y-108500000D01*
X71750000Y-108500000D02*
X70122993Y-108593545D01*
X69899999Y-107743535D02*
X69500000Y-108143534D01*
X75272821Y-105500000D02*
X73029287Y-107743535D01*
X73029287Y-107743535D02*
X69899999Y-107743535D01*
X79000000Y-105500000D02*
X75272821Y-105500000D01*
X80000000Y-106500000D02*
X79000000Y-105500000D01*
X73388675Y-106747736D02*
X67229551Y-106747736D01*
X67229551Y-106747736D02*
X66958762Y-107018525D01*
X66958762Y-107018525D02*
X66558763Y-107418524D01*
X75636410Y-104500000D02*
X73388675Y-106747736D01*
X78000000Y-104500000D02*
X75636410Y-104500000D01*
X79074999Y-103574999D02*
X75925001Y-103574999D01*
X80000000Y-104500000D02*
X79074999Y-103574999D01*
X75925001Y-103574999D02*
X73202275Y-106297725D01*
X73202275Y-106297725D02*
X66515472Y-106297725D01*
X78000000Y-102500000D02*
X77649967Y-102850033D01*
X77649967Y-102850033D02*
X68619019Y-102850033D01*
X68619019Y-102850033D02*
X66556186Y-104912866D01*
X80000000Y-102500000D02*
X79369002Y-102500000D01*
X69475732Y-102400022D02*
X64849978Y-102400022D01*
X79369002Y-102500000D02*
X78444001Y-101574999D01*
X72871740Y-101600033D02*
X72421738Y-101150031D01*
X70725723Y-101150031D02*
X69475732Y-102400022D01*
X64849978Y-102400022D02*
X64250000Y-103000000D01*
X72421738Y-101150031D02*
X70725723Y-101150031D01*
X77555999Y-101574999D02*
X77530965Y-101600033D01*
X78444001Y-101574999D02*
X77555999Y-101574999D01*
X77530965Y-101600033D02*
X72871740Y-101600033D01*
X79936406Y-99799996D02*
X62700004Y-99799996D01*
X81825019Y-101688609D02*
X79936406Y-99799996D01*
X81825020Y-104500000D02*
X81825019Y-101688609D01*
X84500000Y-104500000D02*
X81825020Y-104500000D01*
X62700004Y-99799996D02*
X60007876Y-102492124D01*
X60007876Y-102492124D02*
X59905574Y-102492124D01*
X82199989Y-99349989D02*
X61797709Y-99349989D01*
X84500000Y-101650000D02*
X82199989Y-99349989D01*
X84500000Y-102500000D02*
X84500000Y-101650000D01*
X61797709Y-99349989D02*
X58655574Y-102492124D01*
X83299981Y-98899981D02*
X88900000Y-104500000D01*
X61555485Y-98899981D02*
X83299981Y-98899981D01*
X88900000Y-104500000D02*
X90000000Y-104500000D01*
X60796696Y-99658770D02*
X61555485Y-98899981D01*
X57353819Y-102478905D02*
X60173954Y-99658770D01*
X60173954Y-99658770D02*
X60796696Y-99658770D01*
X60250044Y-97999956D02*
X88499956Y-97999956D01*
X59250000Y-99000000D02*
X60250044Y-97999956D01*
X88499956Y-97999956D02*
X88500000Y-98000000D01*
X90000000Y-102500000D02*
X90000000Y-101650000D01*
X60932494Y-98449970D02*
X60448695Y-98933769D01*
X86799970Y-98449970D02*
X60932494Y-98449970D01*
X90000000Y-101650000D02*
X86799970Y-98449970D01*
X79074999Y-107574999D02*
X76925001Y-107574999D01*
X67207696Y-110142011D02*
X67065685Y-110000000D01*
X76925001Y-107574999D02*
X74357989Y-110142011D01*
X80000000Y-108500000D02*
X79074999Y-107574999D01*
X74357989Y-110142011D02*
X67207696Y-110142011D01*
X67065685Y-110000000D02*
X66500000Y-110000000D01*
X79750009Y-100250009D02*
X63443332Y-100250009D01*
X81375010Y-101875010D02*
X79750009Y-100250009D01*
X63443332Y-100250009D02*
X61205764Y-102487577D01*
X83188609Y-106500000D02*
X81375009Y-104686400D01*
X81375009Y-104686400D02*
X81375010Y-101875010D01*
X84500000Y-106500000D02*
X83188609Y-106500000D01*
X75810495Y-110689505D02*
X66908191Y-110689505D01*
X66908191Y-110689505D02*
X66508192Y-111089504D01*
X78000000Y-108500000D02*
X75810495Y-110689505D01*
X70089321Y-101150022D02*
X70539323Y-100700020D01*
X80925001Y-104925001D02*
X84500000Y-108500000D01*
X77344565Y-101150022D02*
X77369599Y-101124988D01*
X78655435Y-101150022D02*
X80013612Y-101150022D01*
X72608138Y-100700020D02*
X73058140Y-101150022D01*
X73058140Y-101150022D02*
X77344565Y-101150022D01*
X70539323Y-100700020D02*
X72608138Y-100700020D01*
X78630401Y-101124988D02*
X78655435Y-101150022D01*
X77369599Y-101124988D02*
X78630401Y-101124988D01*
X80013612Y-101150022D02*
X80925001Y-102061411D01*
X80925001Y-102061411D02*
X80925001Y-104925001D01*
X62455764Y-102487577D02*
X63793319Y-101150022D01*
X63793319Y-101150022D02*
X70089321Y-101150022D01*
D24*
G36*
X56549882Y-103138679D02*
G01*
X56694045Y-103282842D01*
X56863563Y-103396110D01*
X57051921Y-103474131D01*
X57251880Y-103513905D01*
X57455758Y-103513905D01*
X57655717Y-103474131D01*
X57844075Y-103396110D01*
X57995003Y-103295264D01*
X57995800Y-103296061D01*
X58165318Y-103409329D01*
X58353676Y-103487350D01*
X58553635Y-103527124D01*
X58757513Y-103527124D01*
X58957472Y-103487350D01*
X59145830Y-103409329D01*
X59280574Y-103319296D01*
X59415318Y-103409329D01*
X59603676Y-103487350D01*
X59803635Y-103527124D01*
X60007513Y-103527124D01*
X60207472Y-103487350D01*
X60395830Y-103409329D01*
X60559072Y-103300255D01*
X60715508Y-103404782D01*
X60903866Y-103482803D01*
X61103825Y-103522577D01*
X61307703Y-103522577D01*
X61507662Y-103482803D01*
X61696020Y-103404782D01*
X61830764Y-103314749D01*
X61965508Y-103404782D01*
X62153866Y-103482803D01*
X62353825Y-103522577D01*
X62557703Y-103522577D01*
X62757662Y-103482803D01*
X62946020Y-103404782D01*
X63115538Y-103291514D01*
X63229951Y-103177101D01*
X63254774Y-103301898D01*
X63332795Y-103490256D01*
X63446063Y-103659774D01*
X63590226Y-103803937D01*
X63759744Y-103917205D01*
X63948102Y-103995226D01*
X64148061Y-104035000D01*
X64351939Y-104035000D01*
X64551898Y-103995226D01*
X64740256Y-103917205D01*
X64909774Y-103803937D01*
X65053937Y-103659774D01*
X65167205Y-103490256D01*
X65245226Y-103301898D01*
X65273447Y-103160022D01*
X67234228Y-103160022D01*
X66516385Y-103877866D01*
X66454247Y-103877866D01*
X66254288Y-103917640D01*
X66065930Y-103995661D01*
X65896412Y-104108929D01*
X65752249Y-104253092D01*
X65638981Y-104422610D01*
X65560960Y-104610968D01*
X65521186Y-104810927D01*
X65521186Y-105014805D01*
X65560960Y-105214764D01*
X65638981Y-105403122D01*
X65752249Y-105572640D01*
X65764548Y-105584939D01*
X65711535Y-105637951D01*
X65598267Y-105807469D01*
X65520246Y-105995827D01*
X65480472Y-106195786D01*
X65480472Y-106399664D01*
X65520246Y-106599623D01*
X65598267Y-106787981D01*
X65666781Y-106890519D01*
X65641558Y-106928268D01*
X65563537Y-107116626D01*
X65523763Y-107316585D01*
X65523763Y-107520463D01*
X65563537Y-107720422D01*
X65641558Y-107908780D01*
X65663063Y-107940964D01*
X65590693Y-108049274D01*
X65512672Y-108237632D01*
X65472898Y-108437591D01*
X65472898Y-108641469D01*
X65512672Y-108841428D01*
X65590693Y-109029786D01*
X65703961Y-109199304D01*
X65770473Y-109265816D01*
X65696063Y-109340226D01*
X65582795Y-109509744D01*
X65504774Y-109698102D01*
X65465000Y-109898061D01*
X65465000Y-110101939D01*
X65504774Y-110301898D01*
X65582795Y-110490256D01*
X65623304Y-110550882D01*
X65590987Y-110599248D01*
X65512966Y-110787606D01*
X65473192Y-110987565D01*
X65473192Y-111191443D01*
X65512966Y-111391402D01*
X65590987Y-111579760D01*
X65704255Y-111749278D01*
X65848418Y-111893441D01*
X66017936Y-112006709D01*
X66206294Y-112084730D01*
X66406253Y-112124504D01*
X66610131Y-112124504D01*
X66810090Y-112084730D01*
X66873000Y-112058672D01*
X66873000Y-113000000D01*
X66875440Y-113024776D01*
X66882667Y-113048601D01*
X66894403Y-113070557D01*
X66910197Y-113089803D01*
X66929443Y-113105597D01*
X66951399Y-113117333D01*
X66975224Y-113124560D01*
X67000000Y-113127000D01*
X68373000Y-113127000D01*
X68373000Y-121740000D01*
X65953711Y-121740000D01*
X65909774Y-121696063D01*
X65740256Y-121582795D01*
X65551898Y-121504774D01*
X65351939Y-121465000D01*
X65148061Y-121465000D01*
X64948102Y-121504774D01*
X64759744Y-121582795D01*
X64590226Y-121696063D01*
X64446063Y-121840226D01*
X64332795Y-122009744D01*
X64254774Y-122198102D01*
X64215000Y-122398061D01*
X64215000Y-122601939D01*
X64254774Y-122801898D01*
X64332795Y-122990256D01*
X64446063Y-123159774D01*
X64590226Y-123303937D01*
X64759744Y-123417205D01*
X64948102Y-123495226D01*
X65148061Y-123535000D01*
X65351939Y-123535000D01*
X65551898Y-123495226D01*
X65565000Y-123489799D01*
X65565000Y-123501939D01*
X65604774Y-123701898D01*
X65682795Y-123890256D01*
X65796063Y-124059774D01*
X65940226Y-124203937D01*
X66069029Y-124290000D01*
X51534729Y-124290000D01*
X51347216Y-124271614D01*
X51200252Y-124227243D01*
X51064703Y-124155171D01*
X50945742Y-124058148D01*
X50847882Y-123939856D01*
X50774868Y-123804819D01*
X50729471Y-123658167D01*
X50710000Y-123472908D01*
X50710000Y-122898061D01*
X52965000Y-122898061D01*
X52965000Y-123101939D01*
X53004774Y-123301898D01*
X53082795Y-123490256D01*
X53196063Y-123659774D01*
X53340226Y-123803937D01*
X53509744Y-123917205D01*
X53698102Y-123995226D01*
X53898061Y-124035000D01*
X54101939Y-124035000D01*
X54301898Y-123995226D01*
X54490256Y-123917205D01*
X54659774Y-123803937D01*
X54803937Y-123659774D01*
X54917205Y-123490256D01*
X54995226Y-123301898D01*
X55035000Y-123101939D01*
X55035000Y-122898061D01*
X54995226Y-122698102D01*
X54917205Y-122509744D01*
X54803937Y-122340226D01*
X54659774Y-122196063D01*
X54490256Y-122082795D01*
X54301898Y-122004774D01*
X54101939Y-121965000D01*
X53898061Y-121965000D01*
X53698102Y-122004774D01*
X53509744Y-122082795D01*
X53340226Y-122196063D01*
X53196063Y-122340226D01*
X53082795Y-122509744D01*
X53004774Y-122698102D01*
X52965000Y-122898061D01*
X50710000Y-122898061D01*
X50710000Y-114627000D01*
X53500000Y-114627000D01*
X53524776Y-114624560D01*
X53548601Y-114617333D01*
X53570557Y-114605597D01*
X53589803Y-114589803D01*
X53605597Y-114570557D01*
X53617333Y-114548601D01*
X53624560Y-114524776D01*
X53627000Y-114500000D01*
X53627000Y-104556414D01*
X53696063Y-104659774D01*
X53840226Y-104803937D01*
X54009744Y-104917205D01*
X54198102Y-104995226D01*
X54398061Y-105035000D01*
X54601939Y-105035000D01*
X54801898Y-104995226D01*
X54990256Y-104917205D01*
X55159774Y-104803937D01*
X55303937Y-104659774D01*
X55417205Y-104490256D01*
X55495226Y-104301898D01*
X55535000Y-104101939D01*
X55535000Y-104039801D01*
X56504316Y-103070485D01*
X56549882Y-103138679D01*
G37*
X56549882Y-103138679D02*
X56694045Y-103282842D01*
X56863563Y-103396110D01*
X57051921Y-103474131D01*
X57251880Y-103513905D01*
X57455758Y-103513905D01*
X57655717Y-103474131D01*
X57844075Y-103396110D01*
X57995003Y-103295264D01*
X57995800Y-103296061D01*
X58165318Y-103409329D01*
X58353676Y-103487350D01*
X58553635Y-103527124D01*
X58757513Y-103527124D01*
X58957472Y-103487350D01*
X59145830Y-103409329D01*
X59280574Y-103319296D01*
X59415318Y-103409329D01*
X59603676Y-103487350D01*
X59803635Y-103527124D01*
X60007513Y-103527124D01*
X60207472Y-103487350D01*
X60395830Y-103409329D01*
X60559072Y-103300255D01*
X60715508Y-103404782D01*
X60903866Y-103482803D01*
X61103825Y-103522577D01*
X61307703Y-103522577D01*
X61507662Y-103482803D01*
X61696020Y-103404782D01*
X61830764Y-103314749D01*
X61965508Y-103404782D01*
X62153866Y-103482803D01*
X62353825Y-103522577D01*
X62557703Y-103522577D01*
X62757662Y-103482803D01*
X62946020Y-103404782D01*
X63115538Y-103291514D01*
X63229951Y-103177101D01*
X63254774Y-103301898D01*
X63332795Y-103490256D01*
X63446063Y-103659774D01*
X63590226Y-103803937D01*
X63759744Y-103917205D01*
X63948102Y-103995226D01*
X64148061Y-104035000D01*
X64351939Y-104035000D01*
X64551898Y-103995226D01*
X64740256Y-103917205D01*
X64909774Y-103803937D01*
X65053937Y-103659774D01*
X65167205Y-103490256D01*
X65245226Y-103301898D01*
X65273447Y-103160022D01*
X67234228Y-103160022D01*
X66516385Y-103877866D01*
X66454247Y-103877866D01*
X66254288Y-103917640D01*
X66065930Y-103995661D01*
X65896412Y-104108929D01*
X65752249Y-104253092D01*
X65638981Y-104422610D01*
X65560960Y-104610968D01*
X65521186Y-104810927D01*
X65521186Y-105014805D01*
X65560960Y-105214764D01*
X65638981Y-105403122D01*
X65752249Y-105572640D01*
X65764548Y-105584939D01*
X65711535Y-105637951D01*
X65598267Y-105807469D01*
X65520246Y-105995827D01*
X65480472Y-106195786D01*
X65480472Y-106399664D01*
X65520246Y-106599623D01*
X65598267Y-106787981D01*
X65666781Y-106890519D01*
X65641558Y-106928268D01*
X65563537Y-107116626D01*
X65523763Y-107316585D01*
X65523763Y-107520463D01*
X65563537Y-107720422D01*
X65641558Y-107908780D01*
X65663063Y-107940964D01*
X65590693Y-108049274D01*
X65512672Y-108237632D01*
X65472898Y-108437591D01*
X65472898Y-108641469D01*
X65512672Y-108841428D01*
X65590693Y-109029786D01*
X65703961Y-109199304D01*
X65770473Y-109265816D01*
X65696063Y-109340226D01*
X65582795Y-109509744D01*
X65504774Y-109698102D01*
X65465000Y-109898061D01*
X65465000Y-110101939D01*
X65504774Y-110301898D01*
X65582795Y-110490256D01*
X65623304Y-110550882D01*
X65590987Y-110599248D01*
X65512966Y-110787606D01*
X65473192Y-110987565D01*
X65473192Y-111191443D01*
X65512966Y-111391402D01*
X65590987Y-111579760D01*
X65704255Y-111749278D01*
X65848418Y-111893441D01*
X66017936Y-112006709D01*
X66206294Y-112084730D01*
X66406253Y-112124504D01*
X66610131Y-112124504D01*
X66810090Y-112084730D01*
X66873000Y-112058672D01*
X66873000Y-113000000D01*
X66875440Y-113024776D01*
X66882667Y-113048601D01*
X66894403Y-113070557D01*
X66910197Y-113089803D01*
X66929443Y-113105597D01*
X66951399Y-113117333D01*
X66975224Y-113124560D01*
X67000000Y-113127000D01*
X68373000Y-113127000D01*
X68373000Y-121740000D01*
X65953711Y-121740000D01*
X65909774Y-121696063D01*
X65740256Y-121582795D01*
X65551898Y-121504774D01*
X65351939Y-121465000D01*
X65148061Y-121465000D01*
X64948102Y-121504774D01*
X64759744Y-121582795D01*
X64590226Y-121696063D01*
X64446063Y-121840226D01*
X64332795Y-122009744D01*
X64254774Y-122198102D01*
X64215000Y-122398061D01*
X64215000Y-122601939D01*
X64254774Y-122801898D01*
X64332795Y-122990256D01*
X64446063Y-123159774D01*
X64590226Y-123303937D01*
X64759744Y-123417205D01*
X64948102Y-123495226D01*
X65148061Y-123535000D01*
X65351939Y-123535000D01*
X65551898Y-123495226D01*
X65565000Y-123489799D01*
X65565000Y-123501939D01*
X65604774Y-123701898D01*
X65682795Y-123890256D01*
X65796063Y-124059774D01*
X65940226Y-124203937D01*
X66069029Y-124290000D01*
X51534729Y-124290000D01*
X51347216Y-124271614D01*
X51200252Y-124227243D01*
X51064703Y-124155171D01*
X50945742Y-124058148D01*
X50847882Y-123939856D01*
X50774868Y-123804819D01*
X50729471Y-123658167D01*
X50710000Y-123472908D01*
X50710000Y-122898061D01*
X52965000Y-122898061D01*
X52965000Y-123101939D01*
X53004774Y-123301898D01*
X53082795Y-123490256D01*
X53196063Y-123659774D01*
X53340226Y-123803937D01*
X53509744Y-123917205D01*
X53698102Y-123995226D01*
X53898061Y-124035000D01*
X54101939Y-124035000D01*
X54301898Y-123995226D01*
X54490256Y-123917205D01*
X54659774Y-123803937D01*
X54803937Y-123659774D01*
X54917205Y-123490256D01*
X54995226Y-123301898D01*
X55035000Y-123101939D01*
X55035000Y-122898061D01*
X54995226Y-122698102D01*
X54917205Y-122509744D01*
X54803937Y-122340226D01*
X54659774Y-122196063D01*
X54490256Y-122082795D01*
X54301898Y-122004774D01*
X54101939Y-121965000D01*
X53898061Y-121965000D01*
X53698102Y-122004774D01*
X53509744Y-122082795D01*
X53340226Y-122196063D01*
X53196063Y-122340226D01*
X53082795Y-122509744D01*
X53004774Y-122698102D01*
X52965000Y-122898061D01*
X50710000Y-122898061D01*
X50710000Y-114627000D01*
X53500000Y-114627000D01*
X53524776Y-114624560D01*
X53548601Y-114617333D01*
X53570557Y-114605597D01*
X53589803Y-114589803D01*
X53605597Y-114570557D01*
X53617333Y-114548601D01*
X53624560Y-114524776D01*
X53627000Y-114500000D01*
X53627000Y-104556414D01*
X53696063Y-104659774D01*
X53840226Y-104803937D01*
X54009744Y-104917205D01*
X54198102Y-104995226D01*
X54398061Y-105035000D01*
X54601939Y-105035000D01*
X54801898Y-104995226D01*
X54990256Y-104917205D01*
X55159774Y-104803937D01*
X55303937Y-104659774D01*
X55417205Y-104490256D01*
X55495226Y-104301898D01*
X55535000Y-104101939D01*
X55535000Y-104039801D01*
X56504316Y-103070485D01*
X56549882Y-103138679D01*
G36*
X98652785Y-90728386D02*
G01*
X98799748Y-90772757D01*
X98935297Y-90844829D01*
X99054258Y-90941852D01*
X99152118Y-91060144D01*
X99225132Y-91195181D01*
X99270529Y-91341833D01*
X99290000Y-91527092D01*
X99290001Y-123465261D01*
X99271614Y-123652784D01*
X99227243Y-123799748D01*
X99155171Y-123935297D01*
X99058148Y-124054258D01*
X98939856Y-124152118D01*
X98804819Y-124225132D01*
X98658167Y-124270529D01*
X98472908Y-124290000D01*
X75627000Y-124290000D01*
X75627000Y-123784999D01*
X83137679Y-123784999D01*
X83175001Y-123788675D01*
X83212323Y-123784999D01*
X83212334Y-123784999D01*
X83323987Y-123774002D01*
X83467248Y-123730545D01*
X83599277Y-123659973D01*
X83715002Y-123565000D01*
X83738805Y-123535996D01*
X84439802Y-122835000D01*
X84501939Y-122835000D01*
X84701898Y-122795226D01*
X84890256Y-122717205D01*
X85059774Y-122603937D01*
X85203937Y-122459774D01*
X85317205Y-122290256D01*
X85395226Y-122101898D01*
X85435000Y-121901939D01*
X85435000Y-121698061D01*
X85395226Y-121498102D01*
X85317205Y-121309744D01*
X85203937Y-121140226D01*
X85059774Y-120996063D01*
X84890256Y-120882795D01*
X84701898Y-120804774D01*
X84501939Y-120765000D01*
X84298061Y-120765000D01*
X84098102Y-120804774D01*
X83909744Y-120882795D01*
X83740226Y-120996063D01*
X83596063Y-121140226D01*
X83482795Y-121309744D01*
X83404774Y-121498102D01*
X83365000Y-121698061D01*
X83365000Y-121760198D01*
X82860200Y-122264999D01*
X76533934Y-122264999D01*
X85387771Y-115339211D01*
X85395678Y-115334985D01*
X85446614Y-115293182D01*
X85469063Y-115275622D01*
X85475526Y-115269455D01*
X85482404Y-115263810D01*
X85502488Y-115243726D01*
X85550230Y-115198168D01*
X85555389Y-115190825D01*
X87646215Y-113100000D01*
X88511928Y-113100000D01*
X88524188Y-113224482D01*
X88560498Y-113344180D01*
X88619463Y-113454494D01*
X88698815Y-113551185D01*
X88795506Y-113630537D01*
X88905820Y-113689502D01*
X89025518Y-113725812D01*
X89150000Y-113738072D01*
X89714250Y-113735000D01*
X89873000Y-113576250D01*
X89873000Y-112627000D01*
X90127000Y-112627000D01*
X90127000Y-113576250D01*
X90285750Y-113735000D01*
X90850000Y-113738072D01*
X90974482Y-113725812D01*
X91094180Y-113689502D01*
X91204494Y-113630537D01*
X91301185Y-113551185D01*
X91380537Y-113454494D01*
X91439502Y-113344180D01*
X91475812Y-113224482D01*
X91488072Y-113100000D01*
X91485000Y-112785750D01*
X91326250Y-112627000D01*
X90127000Y-112627000D01*
X89873000Y-112627000D01*
X88673750Y-112627000D01*
X88515000Y-112785750D01*
X88511928Y-113100000D01*
X87646215Y-113100000D01*
X87961020Y-112785196D01*
X87990012Y-112761403D01*
X88013806Y-112732410D01*
X88013810Y-112732406D01*
X88084984Y-112645679D01*
X88084985Y-112645678D01*
X88155557Y-112513649D01*
X88199014Y-112370388D01*
X88210011Y-112258735D01*
X88210011Y-112258726D01*
X88213687Y-112221403D01*
X88210011Y-112184080D01*
X88210011Y-111364790D01*
X88602654Y-110972148D01*
X88603489Y-110974901D01*
X88718167Y-111189449D01*
X88844436Y-111343309D01*
X88795506Y-111369463D01*
X88698815Y-111448815D01*
X88619463Y-111545506D01*
X88560498Y-111655820D01*
X88524188Y-111775518D01*
X88511928Y-111900000D01*
X88515000Y-112214250D01*
X88673750Y-112373000D01*
X89873000Y-112373000D01*
X89873000Y-112353000D01*
X90127000Y-112353000D01*
X90127000Y-112373000D01*
X91326250Y-112373000D01*
X91485000Y-112214250D01*
X91488072Y-111900000D01*
X91475812Y-111775518D01*
X91439502Y-111655820D01*
X91380537Y-111545506D01*
X91301185Y-111448815D01*
X91204494Y-111369463D01*
X91155564Y-111343309D01*
X91281833Y-111189449D01*
X91396511Y-110974901D01*
X91467130Y-110742102D01*
X91490975Y-110500000D01*
X91467130Y-110257898D01*
X91396511Y-110025099D01*
X91281833Y-109810551D01*
X91127502Y-109622498D01*
X90978238Y-109500000D01*
X91127502Y-109377502D01*
X91281833Y-109189449D01*
X91396511Y-108974901D01*
X91467130Y-108742102D01*
X91490975Y-108500000D01*
X91467130Y-108257898D01*
X91396511Y-108025099D01*
X91281833Y-107810551D01*
X91127502Y-107622498D01*
X90978238Y-107500000D01*
X91127502Y-107377502D01*
X91281833Y-107189449D01*
X91396511Y-106974901D01*
X91467130Y-106742102D01*
X91490975Y-106500000D01*
X91467130Y-106257898D01*
X91396511Y-106025099D01*
X91281833Y-105810551D01*
X91127502Y-105622498D01*
X90978238Y-105500000D01*
X91127502Y-105377502D01*
X91281833Y-105189449D01*
X91396511Y-104974901D01*
X91467130Y-104742102D01*
X91490975Y-104500000D01*
X91467130Y-104257898D01*
X91396511Y-104025099D01*
X91281833Y-103810551D01*
X91127502Y-103622498D01*
X90978238Y-103500000D01*
X91127502Y-103377502D01*
X91281833Y-103189449D01*
X91396511Y-102974901D01*
X91467130Y-102742102D01*
X91490975Y-102500000D01*
X91467130Y-102257898D01*
X91396511Y-102025099D01*
X91281833Y-101810551D01*
X91127502Y-101622498D01*
X90939449Y-101468167D01*
X90724901Y-101353489D01*
X90699080Y-101345656D01*
X90634974Y-101225724D01*
X90540001Y-101109999D01*
X90511003Y-101086201D01*
X88459801Y-99035000D01*
X88601939Y-99035000D01*
X88801898Y-98995226D01*
X88990256Y-98917205D01*
X89159774Y-98803937D01*
X89303937Y-98659774D01*
X89417205Y-98490256D01*
X89495226Y-98301898D01*
X89535000Y-98101939D01*
X89535000Y-97898061D01*
X89495226Y-97698102D01*
X89417205Y-97509744D01*
X89303937Y-97340226D01*
X89159774Y-97196063D01*
X88990256Y-97082795D01*
X88801898Y-97004774D01*
X88601939Y-96965000D01*
X88398061Y-96965000D01*
X88198102Y-97004774D01*
X88009744Y-97082795D01*
X87840226Y-97196063D01*
X87796333Y-97239956D01*
X86843692Y-97239956D01*
X87019418Y-96976963D01*
X87142668Y-96679412D01*
X87205500Y-96363533D01*
X87205500Y-96041467D01*
X87142668Y-95725588D01*
X87019418Y-95428037D01*
X86840487Y-95160248D01*
X86612752Y-94932513D01*
X86344963Y-94753582D01*
X86047412Y-94630332D01*
X85731533Y-94567500D01*
X85409467Y-94567500D01*
X85093588Y-94630332D01*
X84796037Y-94753582D01*
X84528248Y-94932513D01*
X84300513Y-95160248D01*
X84246624Y-95240899D01*
X84182363Y-95006640D01*
X83935384Y-94890740D01*
X83670540Y-94825250D01*
X83398008Y-94812688D01*
X83128262Y-94853535D01*
X82871668Y-94946223D01*
X82758637Y-95006640D01*
X82693112Y-95245507D01*
X83470500Y-96022895D01*
X83484643Y-96008753D01*
X83664248Y-96188358D01*
X83650105Y-96202500D01*
X83664248Y-96216643D01*
X83484643Y-96396248D01*
X83470500Y-96382105D01*
X82693112Y-97159493D01*
X82715184Y-97239956D01*
X82391729Y-97239956D01*
X82546299Y-97085386D01*
X82697871Y-96858543D01*
X82742432Y-96750963D01*
X83290895Y-96202500D01*
X82742432Y-95654037D01*
X82697871Y-95546457D01*
X82546299Y-95319614D01*
X82353386Y-95126701D01*
X82126543Y-94975129D01*
X81874489Y-94870725D01*
X81606911Y-94817500D01*
X81334089Y-94817500D01*
X81066511Y-94870725D01*
X80814457Y-94975129D01*
X80587614Y-95126701D01*
X80470500Y-95243815D01*
X80353386Y-95126701D01*
X80126543Y-94975129D01*
X79874489Y-94870725D01*
X79606911Y-94817500D01*
X79334089Y-94817500D01*
X79066511Y-94870725D01*
X78814457Y-94975129D01*
X78599199Y-95118960D01*
X78412752Y-94932513D01*
X78144963Y-94753582D01*
X77847412Y-94630332D01*
X77531533Y-94567500D01*
X77209467Y-94567500D01*
X76893588Y-94630332D01*
X76596037Y-94753582D01*
X76328248Y-94932513D01*
X76100513Y-95160248D01*
X75921582Y-95428037D01*
X75798332Y-95725588D01*
X75735500Y-96041467D01*
X75735500Y-96363533D01*
X75798332Y-96679412D01*
X75921582Y-96976963D01*
X76097308Y-97239956D01*
X61448435Y-97239956D01*
X62866739Y-95821653D01*
X63009744Y-95917205D01*
X63198102Y-95995226D01*
X63398061Y-96035000D01*
X63601939Y-96035000D01*
X63732345Y-96009061D01*
X63744176Y-96037624D01*
X63868388Y-96223520D01*
X64026480Y-96381612D01*
X64212376Y-96505824D01*
X64418933Y-96591383D01*
X64638212Y-96635000D01*
X64861788Y-96635000D01*
X65081067Y-96591383D01*
X65287624Y-96505824D01*
X65473520Y-96381612D01*
X65631612Y-96223520D01*
X65755824Y-96037624D01*
X65841383Y-95831067D01*
X65885000Y-95611788D01*
X65885000Y-95388212D01*
X65841383Y-95168933D01*
X65755824Y-94962376D01*
X65631612Y-94776480D01*
X65535000Y-94679868D01*
X65535000Y-93448249D01*
X65678913Y-93525172D01*
X65836311Y-93572918D01*
X65958981Y-93585000D01*
X65958982Y-93585000D01*
X66000000Y-93589040D01*
X66041018Y-93585000D01*
X70112373Y-93585000D01*
X70097950Y-93606586D01*
X70021814Y-93790394D01*
X69983000Y-93985524D01*
X69983000Y-94184476D01*
X70021814Y-94379606D01*
X70097950Y-94563414D01*
X70208482Y-94728837D01*
X70349163Y-94869518D01*
X70514586Y-94980050D01*
X70698394Y-95056186D01*
X70893524Y-95095000D01*
X71092476Y-95095000D01*
X71287606Y-95056186D01*
X71471414Y-94980050D01*
X71636837Y-94869518D01*
X71777518Y-94728837D01*
X71888050Y-94563414D01*
X71964186Y-94379606D01*
X72003000Y-94184476D01*
X72003000Y-93985524D01*
X71964186Y-93790394D01*
X71888050Y-93606586D01*
X71873627Y-93585000D01*
X92598978Y-93585000D01*
X92639996Y-93589040D01*
X92681014Y-93585000D01*
X92681015Y-93585000D01*
X92734999Y-93579683D01*
X92734998Y-113579868D01*
X92688386Y-113626480D01*
X92564174Y-113812376D01*
X92478615Y-114018933D01*
X92434998Y-114238212D01*
X92434998Y-114461788D01*
X92478615Y-114681067D01*
X92564174Y-114887624D01*
X92688386Y-115073520D01*
X92846478Y-115231612D01*
X93032374Y-115355824D01*
X93058537Y-115366661D01*
X92685199Y-115740000D01*
X90953711Y-115740000D01*
X90909774Y-115696063D01*
X90740256Y-115582795D01*
X90551898Y-115504774D01*
X90351939Y-115465000D01*
X90148061Y-115465000D01*
X89948102Y-115504774D01*
X89759744Y-115582795D01*
X89590226Y-115696063D01*
X89446063Y-115840226D01*
X89332795Y-116009744D01*
X89254774Y-116198102D01*
X89215000Y-116398061D01*
X89215000Y-116601939D01*
X89254774Y-116801898D01*
X89332795Y-116990256D01*
X89446063Y-117159774D01*
X89490001Y-117203712D01*
X89490000Y-120068755D01*
X89467205Y-120669084D01*
X89396063Y-120740226D01*
X89282795Y-120909744D01*
X89204774Y-121098102D01*
X89165000Y-121298061D01*
X89165000Y-121501939D01*
X89204774Y-121701898D01*
X89282795Y-121890256D01*
X89396063Y-122059774D01*
X89540226Y-122203937D01*
X89709744Y-122317205D01*
X89898102Y-122395226D01*
X90098061Y-122435000D01*
X90301939Y-122435000D01*
X90501898Y-122395226D01*
X90690256Y-122317205D01*
X90859774Y-122203937D01*
X91003937Y-122059774D01*
X91117205Y-121890256D01*
X91195226Y-121701898D01*
X91235000Y-121501939D01*
X91235000Y-121298061D01*
X91195226Y-121098102D01*
X91117205Y-120909744D01*
X91003937Y-120740226D01*
X90986270Y-120722559D01*
X91008584Y-120134882D01*
X91010000Y-120120505D01*
X91010000Y-120097589D01*
X91010869Y-120074703D01*
X91010000Y-120060292D01*
X91010000Y-117260000D01*
X92962678Y-117260000D01*
X93000000Y-117263676D01*
X93037322Y-117260000D01*
X93037333Y-117260000D01*
X93148986Y-117249003D01*
X93292247Y-117205546D01*
X93424276Y-117134974D01*
X93540001Y-117040001D01*
X93563804Y-117010997D01*
X95836002Y-114738800D01*
X95865000Y-114715002D01*
X95924118Y-114642967D01*
X95959973Y-114599278D01*
X96030545Y-114467248D01*
X96032201Y-114461788D01*
X96074002Y-114323987D01*
X96084999Y-114212334D01*
X96084999Y-114212325D01*
X96088675Y-114175002D01*
X96084999Y-114137679D01*
X96084999Y-108735704D01*
X96214250Y-108735000D01*
X96373000Y-108576250D01*
X96373000Y-107627000D01*
X96627000Y-107627000D01*
X96627000Y-108576250D01*
X96785750Y-108735000D01*
X97350000Y-108738072D01*
X97474482Y-108725812D01*
X97594180Y-108689502D01*
X97704494Y-108630537D01*
X97801185Y-108551185D01*
X97880537Y-108454494D01*
X97939502Y-108344180D01*
X97975812Y-108224482D01*
X97988072Y-108100000D01*
X97985000Y-107785750D01*
X97826250Y-107627000D01*
X96627000Y-107627000D01*
X96373000Y-107627000D01*
X96353000Y-107627000D01*
X96353000Y-107373000D01*
X96373000Y-107373000D01*
X96373000Y-107353000D01*
X96627000Y-107353000D01*
X96627000Y-107373000D01*
X97826250Y-107373000D01*
X97985000Y-107214250D01*
X97988072Y-106900000D01*
X97975812Y-106775518D01*
X97939502Y-106655820D01*
X97880537Y-106545506D01*
X97801185Y-106448815D01*
X97704494Y-106369463D01*
X97655564Y-106343309D01*
X97781833Y-106189449D01*
X97896511Y-105974901D01*
X97967130Y-105742102D01*
X97990975Y-105500000D01*
X97967130Y-105257898D01*
X97896511Y-105025099D01*
X97781833Y-104810551D01*
X97627502Y-104622498D01*
X97439449Y-104468167D01*
X97224901Y-104353489D01*
X96992102Y-104282870D01*
X96810665Y-104265000D01*
X96189335Y-104265000D01*
X96007898Y-104282870D01*
X95775099Y-104353489D01*
X95560551Y-104468167D01*
X95372498Y-104622498D01*
X95218167Y-104810551D01*
X95103489Y-105025099D01*
X95032870Y-105257898D01*
X95009025Y-105500000D01*
X95032870Y-105742102D01*
X95067835Y-105857364D01*
X94814002Y-106111197D01*
X94784998Y-106135000D01*
X94744837Y-106183937D01*
X94690025Y-106250725D01*
X94651147Y-106323460D01*
X94619453Y-106382755D01*
X94575996Y-106526016D01*
X94564999Y-106637669D01*
X94564999Y-106637679D01*
X94561323Y-106675001D01*
X94564999Y-106712323D01*
X94565000Y-113796180D01*
X94451610Y-113626480D01*
X94404998Y-113579868D01*
X94404998Y-91861007D01*
X94409037Y-91819999D01*
X94404998Y-91778991D01*
X94404998Y-91778979D01*
X94392916Y-91656309D01*
X94345170Y-91498911D01*
X94267634Y-91353852D01*
X94163289Y-91226707D01*
X94036144Y-91122362D01*
X93891085Y-91044826D01*
X93733687Y-90997080D01*
X93569998Y-90980958D01*
X93406310Y-90997080D01*
X93248912Y-91044826D01*
X93206305Y-91067600D01*
X93103852Y-91122362D01*
X93011517Y-91198140D01*
X92976708Y-91226707D01*
X92950562Y-91258566D01*
X92294129Y-91915000D01*
X71820172Y-91915000D01*
X71888050Y-91813414D01*
X71964186Y-91629606D01*
X72003000Y-91434476D01*
X72003000Y-91235524D01*
X71964186Y-91040394D01*
X71888050Y-90856586D01*
X71790104Y-90710000D01*
X98465271Y-90710000D01*
X98652785Y-90728386D01*
G37*
X98652785Y-90728386D02*
X98799748Y-90772757D01*
X98935297Y-90844829D01*
X99054258Y-90941852D01*
X99152118Y-91060144D01*
X99225132Y-91195181D01*
X99270529Y-91341833D01*
X99290000Y-91527092D01*
X99290001Y-123465261D01*
X99271614Y-123652784D01*
X99227243Y-123799748D01*
X99155171Y-123935297D01*
X99058148Y-124054258D01*
X98939856Y-124152118D01*
X98804819Y-124225132D01*
X98658167Y-124270529D01*
X98472908Y-124290000D01*
X75627000Y-124290000D01*
X75627000Y-123784999D01*
X83137679Y-123784999D01*
X83175001Y-123788675D01*
X83212323Y-123784999D01*
X83212334Y-123784999D01*
X83323987Y-123774002D01*
X83467248Y-123730545D01*
X83599277Y-123659973D01*
X83715002Y-123565000D01*
X83738805Y-123535996D01*
X84439802Y-122835000D01*
X84501939Y-122835000D01*
X84701898Y-122795226D01*
X84890256Y-122717205D01*
X85059774Y-122603937D01*
X85203937Y-122459774D01*
X85317205Y-122290256D01*
X85395226Y-122101898D01*
X85435000Y-121901939D01*
X85435000Y-121698061D01*
X85395226Y-121498102D01*
X85317205Y-121309744D01*
X85203937Y-121140226D01*
X85059774Y-120996063D01*
X84890256Y-120882795D01*
X84701898Y-120804774D01*
X84501939Y-120765000D01*
X84298061Y-120765000D01*
X84098102Y-120804774D01*
X83909744Y-120882795D01*
X83740226Y-120996063D01*
X83596063Y-121140226D01*
X83482795Y-121309744D01*
X83404774Y-121498102D01*
X83365000Y-121698061D01*
X83365000Y-121760198D01*
X82860200Y-122264999D01*
X76533934Y-122264999D01*
X85387771Y-115339211D01*
X85395678Y-115334985D01*
X85446614Y-115293182D01*
X85469063Y-115275622D01*
X85475526Y-115269455D01*
X85482404Y-115263810D01*
X85502488Y-115243726D01*
X85550230Y-115198168D01*
X85555389Y-115190825D01*
X87646215Y-113100000D01*
X88511928Y-113100000D01*
X88524188Y-113224482D01*
X88560498Y-113344180D01*
X88619463Y-113454494D01*
X88698815Y-113551185D01*
X88795506Y-113630537D01*
X88905820Y-113689502D01*
X89025518Y-113725812D01*
X89150000Y-113738072D01*
X89714250Y-113735000D01*
X89873000Y-113576250D01*
X89873000Y-112627000D01*
X90127000Y-112627000D01*
X90127000Y-113576250D01*
X90285750Y-113735000D01*
X90850000Y-113738072D01*
X90974482Y-113725812D01*
X91094180Y-113689502D01*
X91204494Y-113630537D01*
X91301185Y-113551185D01*
X91380537Y-113454494D01*
X91439502Y-113344180D01*
X91475812Y-113224482D01*
X91488072Y-113100000D01*
X91485000Y-112785750D01*
X91326250Y-112627000D01*
X90127000Y-112627000D01*
X89873000Y-112627000D01*
X88673750Y-112627000D01*
X88515000Y-112785750D01*
X88511928Y-113100000D01*
X87646215Y-113100000D01*
X87961020Y-112785196D01*
X87990012Y-112761403D01*
X88013806Y-112732410D01*
X88013810Y-112732406D01*
X88084984Y-112645679D01*
X88084985Y-112645678D01*
X88155557Y-112513649D01*
X88199014Y-112370388D01*
X88210011Y-112258735D01*
X88210011Y-112258726D01*
X88213687Y-112221403D01*
X88210011Y-112184080D01*
X88210011Y-111364790D01*
X88602654Y-110972148D01*
X88603489Y-110974901D01*
X88718167Y-111189449D01*
X88844436Y-111343309D01*
X88795506Y-111369463D01*
X88698815Y-111448815D01*
X88619463Y-111545506D01*
X88560498Y-111655820D01*
X88524188Y-111775518D01*
X88511928Y-111900000D01*
X88515000Y-112214250D01*
X88673750Y-112373000D01*
X89873000Y-112373000D01*
X89873000Y-112353000D01*
X90127000Y-112353000D01*
X90127000Y-112373000D01*
X91326250Y-112373000D01*
X91485000Y-112214250D01*
X91488072Y-111900000D01*
X91475812Y-111775518D01*
X91439502Y-111655820D01*
X91380537Y-111545506D01*
X91301185Y-111448815D01*
X91204494Y-111369463D01*
X91155564Y-111343309D01*
X91281833Y-111189449D01*
X91396511Y-110974901D01*
X91467130Y-110742102D01*
X91490975Y-110500000D01*
X91467130Y-110257898D01*
X91396511Y-110025099D01*
X91281833Y-109810551D01*
X91127502Y-109622498D01*
X90978238Y-109500000D01*
X91127502Y-109377502D01*
X91281833Y-109189449D01*
X91396511Y-108974901D01*
X91467130Y-108742102D01*
X91490975Y-108500000D01*
X91467130Y-108257898D01*
X91396511Y-108025099D01*
X91281833Y-107810551D01*
X91127502Y-107622498D01*
X90978238Y-107500000D01*
X91127502Y-107377502D01*
X91281833Y-107189449D01*
X91396511Y-106974901D01*
X91467130Y-106742102D01*
X91490975Y-106500000D01*
X91467130Y-106257898D01*
X91396511Y-106025099D01*
X91281833Y-105810551D01*
X91127502Y-105622498D01*
X90978238Y-105500000D01*
X91127502Y-105377502D01*
X91281833Y-105189449D01*
X91396511Y-104974901D01*
X91467130Y-104742102D01*
X91490975Y-104500000D01*
X91467130Y-104257898D01*
X91396511Y-104025099D01*
X91281833Y-103810551D01*
X91127502Y-103622498D01*
X90978238Y-103500000D01*
X91127502Y-103377502D01*
X91281833Y-103189449D01*
X91396511Y-102974901D01*
X91467130Y-102742102D01*
X91490975Y-102500000D01*
X91467130Y-102257898D01*
X91396511Y-102025099D01*
X91281833Y-101810551D01*
X91127502Y-101622498D01*
X90939449Y-101468167D01*
X90724901Y-101353489D01*
X90699080Y-101345656D01*
X90634974Y-101225724D01*
X90540001Y-101109999D01*
X90511003Y-101086201D01*
X88459801Y-99035000D01*
X88601939Y-99035000D01*
X88801898Y-98995226D01*
X88990256Y-98917205D01*
X89159774Y-98803937D01*
X89303937Y-98659774D01*
X89417205Y-98490256D01*
X89495226Y-98301898D01*
X89535000Y-98101939D01*
X89535000Y-97898061D01*
X89495226Y-97698102D01*
X89417205Y-97509744D01*
X89303937Y-97340226D01*
X89159774Y-97196063D01*
X88990256Y-97082795D01*
X88801898Y-97004774D01*
X88601939Y-96965000D01*
X88398061Y-96965000D01*
X88198102Y-97004774D01*
X88009744Y-97082795D01*
X87840226Y-97196063D01*
X87796333Y-97239956D01*
X86843692Y-97239956D01*
X87019418Y-96976963D01*
X87142668Y-96679412D01*
X87205500Y-96363533D01*
X87205500Y-96041467D01*
X87142668Y-95725588D01*
X87019418Y-95428037D01*
X86840487Y-95160248D01*
X86612752Y-94932513D01*
X86344963Y-94753582D01*
X86047412Y-94630332D01*
X85731533Y-94567500D01*
X85409467Y-94567500D01*
X85093588Y-94630332D01*
X84796037Y-94753582D01*
X84528248Y-94932513D01*
X84300513Y-95160248D01*
X84246624Y-95240899D01*
X84182363Y-95006640D01*
X83935384Y-94890740D01*
X83670540Y-94825250D01*
X83398008Y-94812688D01*
X83128262Y-94853535D01*
X82871668Y-94946223D01*
X82758637Y-95006640D01*
X82693112Y-95245507D01*
X83470500Y-96022895D01*
X83484643Y-96008753D01*
X83664248Y-96188358D01*
X83650105Y-96202500D01*
X83664248Y-96216643D01*
X83484643Y-96396248D01*
X83470500Y-96382105D01*
X82693112Y-97159493D01*
X82715184Y-97239956D01*
X82391729Y-97239956D01*
X82546299Y-97085386D01*
X82697871Y-96858543D01*
X82742432Y-96750963D01*
X83290895Y-96202500D01*
X82742432Y-95654037D01*
X82697871Y-95546457D01*
X82546299Y-95319614D01*
X82353386Y-95126701D01*
X82126543Y-94975129D01*
X81874489Y-94870725D01*
X81606911Y-94817500D01*
X81334089Y-94817500D01*
X81066511Y-94870725D01*
X80814457Y-94975129D01*
X80587614Y-95126701D01*
X80470500Y-95243815D01*
X80353386Y-95126701D01*
X80126543Y-94975129D01*
X79874489Y-94870725D01*
X79606911Y-94817500D01*
X79334089Y-94817500D01*
X79066511Y-94870725D01*
X78814457Y-94975129D01*
X78599199Y-95118960D01*
X78412752Y-94932513D01*
X78144963Y-94753582D01*
X77847412Y-94630332D01*
X77531533Y-94567500D01*
X77209467Y-94567500D01*
X76893588Y-94630332D01*
X76596037Y-94753582D01*
X76328248Y-94932513D01*
X76100513Y-95160248D01*
X75921582Y-95428037D01*
X75798332Y-95725588D01*
X75735500Y-96041467D01*
X75735500Y-96363533D01*
X75798332Y-96679412D01*
X75921582Y-96976963D01*
X76097308Y-97239956D01*
X61448435Y-97239956D01*
X62866739Y-95821653D01*
X63009744Y-95917205D01*
X63198102Y-95995226D01*
X63398061Y-96035000D01*
X63601939Y-96035000D01*
X63732345Y-96009061D01*
X63744176Y-96037624D01*
X63868388Y-96223520D01*
X64026480Y-96381612D01*
X64212376Y-96505824D01*
X64418933Y-96591383D01*
X64638212Y-96635000D01*
X64861788Y-96635000D01*
X65081067Y-96591383D01*
X65287624Y-96505824D01*
X65473520Y-96381612D01*
X65631612Y-96223520D01*
X65755824Y-96037624D01*
X65841383Y-95831067D01*
X65885000Y-95611788D01*
X65885000Y-95388212D01*
X65841383Y-95168933D01*
X65755824Y-94962376D01*
X65631612Y-94776480D01*
X65535000Y-94679868D01*
X65535000Y-93448249D01*
X65678913Y-93525172D01*
X65836311Y-93572918D01*
X65958981Y-93585000D01*
X65958982Y-93585000D01*
X66000000Y-93589040D01*
X66041018Y-93585000D01*
X70112373Y-93585000D01*
X70097950Y-93606586D01*
X70021814Y-93790394D01*
X69983000Y-93985524D01*
X69983000Y-94184476D01*
X70021814Y-94379606D01*
X70097950Y-94563414D01*
X70208482Y-94728837D01*
X70349163Y-94869518D01*
X70514586Y-94980050D01*
X70698394Y-95056186D01*
X70893524Y-95095000D01*
X71092476Y-95095000D01*
X71287606Y-95056186D01*
X71471414Y-94980050D01*
X71636837Y-94869518D01*
X71777518Y-94728837D01*
X71888050Y-94563414D01*
X71964186Y-94379606D01*
X72003000Y-94184476D01*
X72003000Y-93985524D01*
X71964186Y-93790394D01*
X71888050Y-93606586D01*
X71873627Y-93585000D01*
X92598978Y-93585000D01*
X92639996Y-93589040D01*
X92681014Y-93585000D01*
X92681015Y-93585000D01*
X92734999Y-93579683D01*
X92734998Y-113579868D01*
X92688386Y-113626480D01*
X92564174Y-113812376D01*
X92478615Y-114018933D01*
X92434998Y-114238212D01*
X92434998Y-114461788D01*
X92478615Y-114681067D01*
X92564174Y-114887624D01*
X92688386Y-115073520D01*
X92846478Y-115231612D01*
X93032374Y-115355824D01*
X93058537Y-115366661D01*
X92685199Y-115740000D01*
X90953711Y-115740000D01*
X90909774Y-115696063D01*
X90740256Y-115582795D01*
X90551898Y-115504774D01*
X90351939Y-115465000D01*
X90148061Y-115465000D01*
X89948102Y-115504774D01*
X89759744Y-115582795D01*
X89590226Y-115696063D01*
X89446063Y-115840226D01*
X89332795Y-116009744D01*
X89254774Y-116198102D01*
X89215000Y-116398061D01*
X89215000Y-116601939D01*
X89254774Y-116801898D01*
X89332795Y-116990256D01*
X89446063Y-117159774D01*
X89490001Y-117203712D01*
X89490000Y-120068755D01*
X89467205Y-120669084D01*
X89396063Y-120740226D01*
X89282795Y-120909744D01*
X89204774Y-121098102D01*
X89165000Y-121298061D01*
X89165000Y-121501939D01*
X89204774Y-121701898D01*
X89282795Y-121890256D01*
X89396063Y-122059774D01*
X89540226Y-122203937D01*
X89709744Y-122317205D01*
X89898102Y-122395226D01*
X90098061Y-122435000D01*
X90301939Y-122435000D01*
X90501898Y-122395226D01*
X90690256Y-122317205D01*
X90859774Y-122203937D01*
X91003937Y-122059774D01*
X91117205Y-121890256D01*
X91195226Y-121701898D01*
X91235000Y-121501939D01*
X91235000Y-121298061D01*
X91195226Y-121098102D01*
X91117205Y-120909744D01*
X91003937Y-120740226D01*
X90986270Y-120722559D01*
X91008584Y-120134882D01*
X91010000Y-120120505D01*
X91010000Y-120097589D01*
X91010869Y-120074703D01*
X91010000Y-120060292D01*
X91010000Y-117260000D01*
X92962678Y-117260000D01*
X93000000Y-117263676D01*
X93037322Y-117260000D01*
X93037333Y-117260000D01*
X93148986Y-117249003D01*
X93292247Y-117205546D01*
X93424276Y-117134974D01*
X93540001Y-117040001D01*
X93563804Y-117010997D01*
X95836002Y-114738800D01*
X95865000Y-114715002D01*
X95924118Y-114642967D01*
X95959973Y-114599278D01*
X96030545Y-114467248D01*
X96032201Y-114461788D01*
X96074002Y-114323987D01*
X96084999Y-114212334D01*
X96084999Y-114212325D01*
X96088675Y-114175002D01*
X96084999Y-114137679D01*
X96084999Y-108735704D01*
X96214250Y-108735000D01*
X96373000Y-108576250D01*
X96373000Y-107627000D01*
X96627000Y-107627000D01*
X96627000Y-108576250D01*
X96785750Y-108735000D01*
X97350000Y-108738072D01*
X97474482Y-108725812D01*
X97594180Y-108689502D01*
X97704494Y-108630537D01*
X97801185Y-108551185D01*
X97880537Y-108454494D01*
X97939502Y-108344180D01*
X97975812Y-108224482D01*
X97988072Y-108100000D01*
X97985000Y-107785750D01*
X97826250Y-107627000D01*
X96627000Y-107627000D01*
X96373000Y-107627000D01*
X96353000Y-107627000D01*
X96353000Y-107373000D01*
X96373000Y-107373000D01*
X96373000Y-107353000D01*
X96627000Y-107353000D01*
X96627000Y-107373000D01*
X97826250Y-107373000D01*
X97985000Y-107214250D01*
X97988072Y-106900000D01*
X97975812Y-106775518D01*
X97939502Y-106655820D01*
X97880537Y-106545506D01*
X97801185Y-106448815D01*
X97704494Y-106369463D01*
X97655564Y-106343309D01*
X97781833Y-106189449D01*
X97896511Y-105974901D01*
X97967130Y-105742102D01*
X97990975Y-105500000D01*
X97967130Y-105257898D01*
X97896511Y-105025099D01*
X97781833Y-104810551D01*
X97627502Y-104622498D01*
X97439449Y-104468167D01*
X97224901Y-104353489D01*
X96992102Y-104282870D01*
X96810665Y-104265000D01*
X96189335Y-104265000D01*
X96007898Y-104282870D01*
X95775099Y-104353489D01*
X95560551Y-104468167D01*
X95372498Y-104622498D01*
X95218167Y-104810551D01*
X95103489Y-105025099D01*
X95032870Y-105257898D01*
X95009025Y-105500000D01*
X95032870Y-105742102D01*
X95067835Y-105857364D01*
X94814002Y-106111197D01*
X94784998Y-106135000D01*
X94744837Y-106183937D01*
X94690025Y-106250725D01*
X94651147Y-106323460D01*
X94619453Y-106382755D01*
X94575996Y-106526016D01*
X94564999Y-106637669D01*
X94564999Y-106637679D01*
X94561323Y-106675001D01*
X94564999Y-106712323D01*
X94565000Y-113796180D01*
X94451610Y-113626480D01*
X94404998Y-113579868D01*
X94404998Y-91861007D01*
X94409037Y-91819999D01*
X94404998Y-91778991D01*
X94404998Y-91778979D01*
X94392916Y-91656309D01*
X94345170Y-91498911D01*
X94267634Y-91353852D01*
X94163289Y-91226707D01*
X94036144Y-91122362D01*
X93891085Y-91044826D01*
X93733687Y-90997080D01*
X93569998Y-90980958D01*
X93406310Y-90997080D01*
X93248912Y-91044826D01*
X93206305Y-91067600D01*
X93103852Y-91122362D01*
X93011517Y-91198140D01*
X92976708Y-91226707D01*
X92950562Y-91258566D01*
X92294129Y-91915000D01*
X71820172Y-91915000D01*
X71888050Y-91813414D01*
X71964186Y-91629606D01*
X72003000Y-91434476D01*
X72003000Y-91235524D01*
X71964186Y-91040394D01*
X71888050Y-90856586D01*
X71790104Y-90710000D01*
X98465271Y-90710000D01*
X98652785Y-90728386D01*
G36*
X78127000Y-110373000D02*
G01*
X78147000Y-110373000D01*
X78147000Y-110627000D01*
X78127000Y-110627000D01*
X78127000Y-111576250D01*
X78285750Y-111735000D01*
X78600000Y-111738072D01*
X78724482Y-111725812D01*
X78844180Y-111689502D01*
X78954494Y-111630537D01*
X79051185Y-111551185D01*
X79130537Y-111454494D01*
X79157499Y-111404053D01*
X79212733Y-111459287D01*
X79415008Y-111594443D01*
X79639764Y-111687540D01*
X79814076Y-111722213D01*
X79696063Y-111840226D01*
X79582795Y-112009744D01*
X79504774Y-112198102D01*
X79465000Y-112398061D01*
X79465000Y-112601939D01*
X79504774Y-112801898D01*
X79582795Y-112990256D01*
X79696063Y-113159774D01*
X79840226Y-113303937D01*
X80009744Y-113417205D01*
X80198102Y-113495226D01*
X80398061Y-113535000D01*
X80601939Y-113535000D01*
X80801898Y-113495226D01*
X80990256Y-113417205D01*
X81159774Y-113303937D01*
X81194455Y-113269256D01*
X82686201Y-114761003D01*
X82709999Y-114790001D01*
X82825724Y-114884974D01*
X82957753Y-114955546D01*
X83101014Y-114999003D01*
X83212667Y-115010000D01*
X83212675Y-115010000D01*
X83250000Y-115013676D01*
X83287325Y-115010000D01*
X83341603Y-115010000D01*
X75627000Y-121044640D01*
X75627000Y-115898061D01*
X78965000Y-115898061D01*
X78965000Y-116101939D01*
X79004774Y-116301898D01*
X79082795Y-116490256D01*
X79196063Y-116659774D01*
X79340226Y-116803937D01*
X79509744Y-116917205D01*
X79698102Y-116995226D01*
X79898061Y-117035000D01*
X80101939Y-117035000D01*
X80301898Y-116995226D01*
X80490256Y-116917205D01*
X80659774Y-116803937D01*
X80803937Y-116659774D01*
X80917205Y-116490256D01*
X80995226Y-116301898D01*
X81035000Y-116101939D01*
X81035000Y-115898061D01*
X80995226Y-115698102D01*
X80917205Y-115509744D01*
X80803937Y-115340226D01*
X80659774Y-115196063D01*
X80490256Y-115082795D01*
X80301898Y-115004774D01*
X80101939Y-114965000D01*
X79898061Y-114965000D01*
X79698102Y-115004774D01*
X79509744Y-115082795D01*
X79340226Y-115196063D01*
X79196063Y-115340226D01*
X79082795Y-115509744D01*
X79004774Y-115698102D01*
X78965000Y-115898061D01*
X75627000Y-115898061D01*
X75627000Y-111449505D01*
X75773173Y-111449505D01*
X75810495Y-111453181D01*
X75847817Y-111449505D01*
X75847828Y-111449505D01*
X75959481Y-111438508D01*
X76102742Y-111395051D01*
X76234771Y-111324479D01*
X76350496Y-111229506D01*
X76374299Y-111200502D01*
X76764763Y-110810039D01*
X76761928Y-111100000D01*
X76774188Y-111224482D01*
X76810498Y-111344180D01*
X76869463Y-111454494D01*
X76948815Y-111551185D01*
X77045506Y-111630537D01*
X77155820Y-111689502D01*
X77275518Y-111725812D01*
X77400000Y-111738072D01*
X77714250Y-111735000D01*
X77873000Y-111576250D01*
X77873000Y-110627000D01*
X77853000Y-110627000D01*
X77853000Y-110373000D01*
X77873000Y-110373000D01*
X77873000Y-110353000D01*
X78127000Y-110353000D01*
X78127000Y-110373000D01*
G37*
X78127000Y-110373000D02*
X78147000Y-110373000D01*
X78147000Y-110627000D01*
X78127000Y-110627000D01*
X78127000Y-111576250D01*
X78285750Y-111735000D01*
X78600000Y-111738072D01*
X78724482Y-111725812D01*
X78844180Y-111689502D01*
X78954494Y-111630537D01*
X79051185Y-111551185D01*
X79130537Y-111454494D01*
X79157499Y-111404053D01*
X79212733Y-111459287D01*
X79415008Y-111594443D01*
X79639764Y-111687540D01*
X79814076Y-111722213D01*
X79696063Y-111840226D01*
X79582795Y-112009744D01*
X79504774Y-112198102D01*
X79465000Y-112398061D01*
X79465000Y-112601939D01*
X79504774Y-112801898D01*
X79582795Y-112990256D01*
X79696063Y-113159774D01*
X79840226Y-113303937D01*
X80009744Y-113417205D01*
X80198102Y-113495226D01*
X80398061Y-113535000D01*
X80601939Y-113535000D01*
X80801898Y-113495226D01*
X80990256Y-113417205D01*
X81159774Y-113303937D01*
X81194455Y-113269256D01*
X82686201Y-114761003D01*
X82709999Y-114790001D01*
X82825724Y-114884974D01*
X82957753Y-114955546D01*
X83101014Y-114999003D01*
X83212667Y-115010000D01*
X83212675Y-115010000D01*
X83250000Y-115013676D01*
X83287325Y-115010000D01*
X83341603Y-115010000D01*
X75627000Y-121044640D01*
X75627000Y-115898061D01*
X78965000Y-115898061D01*
X78965000Y-116101939D01*
X79004774Y-116301898D01*
X79082795Y-116490256D01*
X79196063Y-116659774D01*
X79340226Y-116803937D01*
X79509744Y-116917205D01*
X79698102Y-116995226D01*
X79898061Y-117035000D01*
X80101939Y-117035000D01*
X80301898Y-116995226D01*
X80490256Y-116917205D01*
X80659774Y-116803937D01*
X80803937Y-116659774D01*
X80917205Y-116490256D01*
X80995226Y-116301898D01*
X81035000Y-116101939D01*
X81035000Y-115898061D01*
X80995226Y-115698102D01*
X80917205Y-115509744D01*
X80803937Y-115340226D01*
X80659774Y-115196063D01*
X80490256Y-115082795D01*
X80301898Y-115004774D01*
X80101939Y-114965000D01*
X79898061Y-114965000D01*
X79698102Y-115004774D01*
X79509744Y-115082795D01*
X79340226Y-115196063D01*
X79196063Y-115340226D01*
X79082795Y-115509744D01*
X79004774Y-115698102D01*
X78965000Y-115898061D01*
X75627000Y-115898061D01*
X75627000Y-111449505D01*
X75773173Y-111449505D01*
X75810495Y-111453181D01*
X75847817Y-111449505D01*
X75847828Y-111449505D01*
X75959481Y-111438508D01*
X76102742Y-111395051D01*
X76234771Y-111324479D01*
X76350496Y-111229506D01*
X76374299Y-111200502D01*
X76764763Y-110810039D01*
X76761928Y-111100000D01*
X76774188Y-111224482D01*
X76810498Y-111344180D01*
X76869463Y-111454494D01*
X76948815Y-111551185D01*
X77045506Y-111630537D01*
X77155820Y-111689502D01*
X77275518Y-111725812D01*
X77400000Y-111738072D01*
X77714250Y-111735000D01*
X77873000Y-111576250D01*
X77873000Y-110627000D01*
X77853000Y-110627000D01*
X77853000Y-110373000D01*
X77873000Y-110373000D01*
X77873000Y-110353000D01*
X78127000Y-110353000D01*
X78127000Y-110373000D01*
G36*
X83067834Y-108142636D02*
G01*
X83032870Y-108257898D01*
X83009025Y-108500000D01*
X83032870Y-108742102D01*
X83103489Y-108974901D01*
X83218167Y-109189449D01*
X83372498Y-109377502D01*
X83521762Y-109500000D01*
X83372498Y-109622498D01*
X83218167Y-109810551D01*
X83103489Y-110025099D01*
X83032870Y-110257898D01*
X83009025Y-110500000D01*
X83032870Y-110742102D01*
X83103489Y-110974901D01*
X83218167Y-111189449D01*
X83344436Y-111343309D01*
X83295506Y-111369463D01*
X83198815Y-111448815D01*
X83119463Y-111545506D01*
X83060498Y-111655820D01*
X83024188Y-111775518D01*
X83011928Y-111900000D01*
X83015000Y-112214250D01*
X83173750Y-112373000D01*
X84373000Y-112373000D01*
X84373000Y-112353000D01*
X84627000Y-112353000D01*
X84627000Y-112373000D01*
X84647000Y-112373000D01*
X84647000Y-112627000D01*
X84627000Y-112627000D01*
X84627000Y-112647000D01*
X84373000Y-112647000D01*
X84373000Y-112627000D01*
X83173750Y-112627000D01*
X83015000Y-112785750D01*
X83013505Y-112938703D01*
X82063804Y-111989003D01*
X82040001Y-111959999D01*
X81924276Y-111865026D01*
X81792247Y-111794454D01*
X81648986Y-111750997D01*
X81537333Y-111740000D01*
X81537322Y-111740000D01*
X81500000Y-111736324D01*
X81462678Y-111740000D01*
X81203711Y-111740000D01*
X81159774Y-111696063D01*
X80990256Y-111582795D01*
X80801898Y-111504774D01*
X80738164Y-111492097D01*
X80787267Y-111459287D01*
X80959287Y-111287267D01*
X81094443Y-111084992D01*
X81187540Y-110860236D01*
X81235000Y-110621637D01*
X81235000Y-110378363D01*
X81187540Y-110139764D01*
X81094443Y-109915008D01*
X80959287Y-109712733D01*
X80787267Y-109540713D01*
X80726336Y-109500000D01*
X80787267Y-109459287D01*
X80959287Y-109287267D01*
X81094443Y-109084992D01*
X81187540Y-108860236D01*
X81235000Y-108621637D01*
X81235000Y-108378363D01*
X81187540Y-108139764D01*
X81094443Y-107915008D01*
X80959287Y-107712733D01*
X80787267Y-107540713D01*
X80726336Y-107500000D01*
X80787267Y-107459287D01*
X80959287Y-107287267D01*
X81094443Y-107084992D01*
X81187540Y-106860236D01*
X81235000Y-106621637D01*
X81235000Y-106378363D01*
X81217976Y-106292777D01*
X83067834Y-108142636D01*
G37*
X83067834Y-108142636D02*
X83032870Y-108257898D01*
X83009025Y-108500000D01*
X83032870Y-108742102D01*
X83103489Y-108974901D01*
X83218167Y-109189449D01*
X83372498Y-109377502D01*
X83521762Y-109500000D01*
X83372498Y-109622498D01*
X83218167Y-109810551D01*
X83103489Y-110025099D01*
X83032870Y-110257898D01*
X83009025Y-110500000D01*
X83032870Y-110742102D01*
X83103489Y-110974901D01*
X83218167Y-111189449D01*
X83344436Y-111343309D01*
X83295506Y-111369463D01*
X83198815Y-111448815D01*
X83119463Y-111545506D01*
X83060498Y-111655820D01*
X83024188Y-111775518D01*
X83011928Y-111900000D01*
X83015000Y-112214250D01*
X83173750Y-112373000D01*
X84373000Y-112373000D01*
X84373000Y-112353000D01*
X84627000Y-112353000D01*
X84627000Y-112373000D01*
X84647000Y-112373000D01*
X84647000Y-112627000D01*
X84627000Y-112627000D01*
X84627000Y-112647000D01*
X84373000Y-112647000D01*
X84373000Y-112627000D01*
X83173750Y-112627000D01*
X83015000Y-112785750D01*
X83013505Y-112938703D01*
X82063804Y-111989003D01*
X82040001Y-111959999D01*
X81924276Y-111865026D01*
X81792247Y-111794454D01*
X81648986Y-111750997D01*
X81537333Y-111740000D01*
X81537322Y-111740000D01*
X81500000Y-111736324D01*
X81462678Y-111740000D01*
X81203711Y-111740000D01*
X81159774Y-111696063D01*
X80990256Y-111582795D01*
X80801898Y-111504774D01*
X80738164Y-111492097D01*
X80787267Y-111459287D01*
X80959287Y-111287267D01*
X81094443Y-111084992D01*
X81187540Y-110860236D01*
X81235000Y-110621637D01*
X81235000Y-110378363D01*
X81187540Y-110139764D01*
X81094443Y-109915008D01*
X80959287Y-109712733D01*
X80787267Y-109540713D01*
X80726336Y-109500000D01*
X80787267Y-109459287D01*
X80959287Y-109287267D01*
X81094443Y-109084992D01*
X81187540Y-108860236D01*
X81235000Y-108621637D01*
X81235000Y-108378363D01*
X81187540Y-108139764D01*
X81094443Y-107915008D01*
X80959287Y-107712733D01*
X80787267Y-107540713D01*
X80726336Y-107500000D01*
X80787267Y-107459287D01*
X80959287Y-107287267D01*
X81094443Y-107084992D01*
X81187540Y-106860236D01*
X81235000Y-106621637D01*
X81235000Y-106378363D01*
X81217976Y-106292777D01*
X83067834Y-108142636D01*
G36*
X74797141Y-107779530D02*
G01*
X74068093Y-107779530D01*
X75587623Y-106260000D01*
X76316670Y-106260000D01*
X74797141Y-107779530D01*
G37*
X74797141Y-107779530D02*
X74068093Y-107779530D01*
X75587623Y-106260000D01*
X76316670Y-106260000D01*
X74797141Y-107779530D01*
G36*
X71212470Y-103684763D02*
G01*
X71134449Y-103873121D01*
X71094675Y-104073080D01*
X71094675Y-104276958D01*
X71134449Y-104476917D01*
X71212470Y-104665275D01*
X71325738Y-104834793D01*
X71469901Y-104978956D01*
X71639419Y-105092224D01*
X71827777Y-105170245D01*
X72027736Y-105210019D01*
X72231614Y-105210019D01*
X72431573Y-105170245D01*
X72619931Y-105092224D01*
X72789449Y-104978956D01*
X72933612Y-104834793D01*
X73046880Y-104665275D01*
X73124901Y-104476917D01*
X73164675Y-104276958D01*
X73164675Y-104073080D01*
X73124901Y-103873121D01*
X73046880Y-103684763D01*
X72996947Y-103610033D01*
X74815165Y-103610033D01*
X72887474Y-105537725D01*
X67383452Y-105537725D01*
X67473391Y-105403122D01*
X67551412Y-105214764D01*
X67591186Y-105014805D01*
X67591186Y-104952667D01*
X68933822Y-103610033D01*
X71262403Y-103610033D01*
X71212470Y-103684763D01*
G37*
X71212470Y-103684763D02*
X71134449Y-103873121D01*
X71094675Y-104073080D01*
X71094675Y-104276958D01*
X71134449Y-104476917D01*
X71212470Y-104665275D01*
X71325738Y-104834793D01*
X71469901Y-104978956D01*
X71639419Y-105092224D01*
X71827777Y-105170245D01*
X72027736Y-105210019D01*
X72231614Y-105210019D01*
X72431573Y-105170245D01*
X72619931Y-105092224D01*
X72789449Y-104978956D01*
X72933612Y-104834793D01*
X73046880Y-104665275D01*
X73124901Y-104476917D01*
X73164675Y-104276958D01*
X73164675Y-104073080D01*
X73124901Y-103873121D01*
X73046880Y-103684763D01*
X72996947Y-103610033D01*
X74815165Y-103610033D01*
X72887474Y-105537725D01*
X67383452Y-105537725D01*
X67473391Y-105403122D01*
X67551412Y-105214764D01*
X67591186Y-105014805D01*
X67591186Y-104952667D01*
X68933822Y-103610033D01*
X71262403Y-103610033D01*
X71212470Y-103684763D01*
G36*
X52806000Y-92866052D02*
G01*
X52806000Y-93133948D01*
X52858264Y-93396697D01*
X52960784Y-93644201D01*
X53109619Y-93866949D01*
X53299051Y-94056381D01*
X53521799Y-94205216D01*
X53769303Y-94307736D01*
X54032052Y-94360000D01*
X54299948Y-94360000D01*
X54562697Y-94307736D01*
X54810201Y-94205216D01*
X54911339Y-94137638D01*
X54994176Y-94337624D01*
X55118388Y-94523520D01*
X55276480Y-94681612D01*
X55462376Y-94805824D01*
X55668933Y-94891383D01*
X55888212Y-94935000D01*
X56111788Y-94935000D01*
X56331067Y-94891383D01*
X56537624Y-94805824D01*
X56723520Y-94681612D01*
X56881612Y-94523520D01*
X56970023Y-94391204D01*
X57038388Y-94493520D01*
X57196480Y-94651612D01*
X57382376Y-94775824D01*
X57588933Y-94861383D01*
X57808212Y-94905000D01*
X58031788Y-94905000D01*
X58251067Y-94861383D01*
X58457624Y-94775824D01*
X58555000Y-94710759D01*
X58652376Y-94775824D01*
X58858933Y-94861383D01*
X59078212Y-94905000D01*
X59301788Y-94905000D01*
X59521067Y-94861383D01*
X59594043Y-94831155D01*
X56460199Y-97965000D01*
X56398061Y-97965000D01*
X56198102Y-98004774D01*
X56009744Y-98082795D01*
X55840226Y-98196063D01*
X55696063Y-98340226D01*
X55582795Y-98509744D01*
X55504774Y-98698102D01*
X55465000Y-98898061D01*
X55465000Y-99101939D01*
X55504774Y-99301898D01*
X55582795Y-99490256D01*
X55696063Y-99659774D01*
X55840226Y-99803937D01*
X56009744Y-99917205D01*
X56198102Y-99995226D01*
X56398061Y-100035000D01*
X56601939Y-100035000D01*
X56801898Y-99995226D01*
X56990256Y-99917205D01*
X57149995Y-99810471D01*
X57309733Y-99917205D01*
X57449924Y-99975274D01*
X54460199Y-102965000D01*
X54398061Y-102965000D01*
X54198102Y-103004774D01*
X54009744Y-103082795D01*
X53840226Y-103196063D01*
X53696063Y-103340226D01*
X53627000Y-103443586D01*
X53627000Y-101000000D01*
X53624560Y-100975224D01*
X53617333Y-100951399D01*
X53605597Y-100929443D01*
X53589803Y-100910197D01*
X53570557Y-100894403D01*
X53548601Y-100882667D01*
X53524776Y-100875440D01*
X53500000Y-100873000D01*
X50710000Y-100873000D01*
X50710000Y-100167412D01*
X50873898Y-100217130D01*
X51055335Y-100235000D01*
X51876665Y-100235000D01*
X52058102Y-100217130D01*
X52290901Y-100146511D01*
X52505449Y-100031833D01*
X52693502Y-99877502D01*
X52847833Y-99689449D01*
X52962511Y-99474901D01*
X53033130Y-99242102D01*
X53056975Y-99000000D01*
X53033130Y-98757898D01*
X53030117Y-98747965D01*
X53109619Y-98866949D01*
X53299051Y-99056381D01*
X53521799Y-99205216D01*
X53769303Y-99307736D01*
X54032052Y-99360000D01*
X54299948Y-99360000D01*
X54562697Y-99307736D01*
X54810201Y-99205216D01*
X55032949Y-99056381D01*
X55222381Y-98866949D01*
X55371216Y-98644201D01*
X55473736Y-98396697D01*
X55526000Y-98133948D01*
X55526000Y-97866052D01*
X55473736Y-97603303D01*
X55371216Y-97355799D01*
X55222381Y-97133051D01*
X55032949Y-96943619D01*
X54810201Y-96794784D01*
X54562697Y-96692264D01*
X54299948Y-96640000D01*
X54032052Y-96640000D01*
X53769303Y-96692264D01*
X53521799Y-96794784D01*
X53299051Y-96943619D01*
X53109619Y-97133051D01*
X52960784Y-97355799D01*
X52858264Y-97603303D01*
X52806000Y-97866052D01*
X52806000Y-98133948D01*
X52838984Y-98299768D01*
X52693502Y-98122498D01*
X52505449Y-97968167D01*
X52290901Y-97853489D01*
X52058102Y-97782870D01*
X51876665Y-97765000D01*
X51055335Y-97765000D01*
X50873898Y-97782870D01*
X50710000Y-97832588D01*
X50710000Y-93167412D01*
X50873898Y-93217130D01*
X51055335Y-93235000D01*
X51876665Y-93235000D01*
X52058102Y-93217130D01*
X52290901Y-93146511D01*
X52505449Y-93031833D01*
X52693502Y-92877502D01*
X52838984Y-92700232D01*
X52806000Y-92866052D01*
G37*
X52806000Y-92866052D02*
X52806000Y-93133948D01*
X52858264Y-93396697D01*
X52960784Y-93644201D01*
X53109619Y-93866949D01*
X53299051Y-94056381D01*
X53521799Y-94205216D01*
X53769303Y-94307736D01*
X54032052Y-94360000D01*
X54299948Y-94360000D01*
X54562697Y-94307736D01*
X54810201Y-94205216D01*
X54911339Y-94137638D01*
X54994176Y-94337624D01*
X55118388Y-94523520D01*
X55276480Y-94681612D01*
X55462376Y-94805824D01*
X55668933Y-94891383D01*
X55888212Y-94935000D01*
X56111788Y-94935000D01*
X56331067Y-94891383D01*
X56537624Y-94805824D01*
X56723520Y-94681612D01*
X56881612Y-94523520D01*
X56970023Y-94391204D01*
X57038388Y-94493520D01*
X57196480Y-94651612D01*
X57382376Y-94775824D01*
X57588933Y-94861383D01*
X57808212Y-94905000D01*
X58031788Y-94905000D01*
X58251067Y-94861383D01*
X58457624Y-94775824D01*
X58555000Y-94710759D01*
X58652376Y-94775824D01*
X58858933Y-94861383D01*
X59078212Y-94905000D01*
X59301788Y-94905000D01*
X59521067Y-94861383D01*
X59594043Y-94831155D01*
X56460199Y-97965000D01*
X56398061Y-97965000D01*
X56198102Y-98004774D01*
X56009744Y-98082795D01*
X55840226Y-98196063D01*
X55696063Y-98340226D01*
X55582795Y-98509744D01*
X55504774Y-98698102D01*
X55465000Y-98898061D01*
X55465000Y-99101939D01*
X55504774Y-99301898D01*
X55582795Y-99490256D01*
X55696063Y-99659774D01*
X55840226Y-99803937D01*
X56009744Y-99917205D01*
X56198102Y-99995226D01*
X56398061Y-100035000D01*
X56601939Y-100035000D01*
X56801898Y-99995226D01*
X56990256Y-99917205D01*
X57149995Y-99810471D01*
X57309733Y-99917205D01*
X57449924Y-99975274D01*
X54460199Y-102965000D01*
X54398061Y-102965000D01*
X54198102Y-103004774D01*
X54009744Y-103082795D01*
X53840226Y-103196063D01*
X53696063Y-103340226D01*
X53627000Y-103443586D01*
X53627000Y-101000000D01*
X53624560Y-100975224D01*
X53617333Y-100951399D01*
X53605597Y-100929443D01*
X53589803Y-100910197D01*
X53570557Y-100894403D01*
X53548601Y-100882667D01*
X53524776Y-100875440D01*
X53500000Y-100873000D01*
X50710000Y-100873000D01*
X50710000Y-100167412D01*
X50873898Y-100217130D01*
X51055335Y-100235000D01*
X51876665Y-100235000D01*
X52058102Y-100217130D01*
X52290901Y-100146511D01*
X52505449Y-100031833D01*
X52693502Y-99877502D01*
X52847833Y-99689449D01*
X52962511Y-99474901D01*
X53033130Y-99242102D01*
X53056975Y-99000000D01*
X53033130Y-98757898D01*
X53030117Y-98747965D01*
X53109619Y-98866949D01*
X53299051Y-99056381D01*
X53521799Y-99205216D01*
X53769303Y-99307736D01*
X54032052Y-99360000D01*
X54299948Y-99360000D01*
X54562697Y-99307736D01*
X54810201Y-99205216D01*
X55032949Y-99056381D01*
X55222381Y-98866949D01*
X55371216Y-98644201D01*
X55473736Y-98396697D01*
X55526000Y-98133948D01*
X55526000Y-97866052D01*
X55473736Y-97603303D01*
X55371216Y-97355799D01*
X55222381Y-97133051D01*
X55032949Y-96943619D01*
X54810201Y-96794784D01*
X54562697Y-96692264D01*
X54299948Y-96640000D01*
X54032052Y-96640000D01*
X53769303Y-96692264D01*
X53521799Y-96794784D01*
X53299051Y-96943619D01*
X53109619Y-97133051D01*
X52960784Y-97355799D01*
X52858264Y-97603303D01*
X52806000Y-97866052D01*
X52806000Y-98133948D01*
X52838984Y-98299768D01*
X52693502Y-98122498D01*
X52505449Y-97968167D01*
X52290901Y-97853489D01*
X52058102Y-97782870D01*
X51876665Y-97765000D01*
X51055335Y-97765000D01*
X50873898Y-97782870D01*
X50710000Y-97832588D01*
X50710000Y-93167412D01*
X50873898Y-93217130D01*
X51055335Y-93235000D01*
X51876665Y-93235000D01*
X52058102Y-93217130D01*
X52290901Y-93146511D01*
X52505449Y-93031833D01*
X52693502Y-92877502D01*
X52838984Y-92700232D01*
X52806000Y-92866052D01*
G36*
X72286939Y-102090033D02*
G01*
X72086235Y-102090033D01*
X72108724Y-101976971D01*
X72108724Y-101911818D01*
X72286939Y-102090033D01*
G37*
X72286939Y-102090033D02*
X72086235Y-102090033D01*
X72108724Y-101976971D01*
X72108724Y-101911818D01*
X72286939Y-102090033D01*
G36*
X60587000Y-92373000D02*
G01*
X61603000Y-92373000D01*
X61603000Y-92353000D01*
X61857000Y-92353000D01*
X61857000Y-92373000D01*
X61861928Y-92373000D01*
X61861928Y-92627000D01*
X61857000Y-92627000D01*
X61857000Y-92638026D01*
X61841788Y-92635000D01*
X61618212Y-92635000D01*
X61603000Y-92638026D01*
X61603000Y-92627000D01*
X60587000Y-92627000D01*
X60587000Y-92638026D01*
X60571788Y-92635000D01*
X60348212Y-92635000D01*
X60333000Y-92638026D01*
X60333000Y-92627000D01*
X60321974Y-92627000D01*
X60325000Y-92611788D01*
X60325000Y-92388212D01*
X60321974Y-92373000D01*
X60333000Y-92373000D01*
X60333000Y-92353000D01*
X60587000Y-92353000D01*
X60587000Y-92373000D01*
G37*
X60587000Y-92373000D02*
X61603000Y-92373000D01*
X61603000Y-92353000D01*
X61857000Y-92353000D01*
X61857000Y-92373000D01*
X61861928Y-92373000D01*
X61861928Y-92627000D01*
X61857000Y-92627000D01*
X61857000Y-92638026D01*
X61841788Y-92635000D01*
X61618212Y-92635000D01*
X61603000Y-92638026D01*
X61603000Y-92627000D01*
X60587000Y-92627000D01*
X60587000Y-92638026D01*
X60571788Y-92635000D01*
X60348212Y-92635000D01*
X60333000Y-92638026D01*
X60333000Y-92627000D01*
X60321974Y-92627000D01*
X60325000Y-92611788D01*
X60325000Y-92388212D01*
X60321974Y-92373000D01*
X60333000Y-92373000D01*
X60333000Y-92353000D01*
X60587000Y-92353000D01*
X60587000Y-92373000D01*
G36*
X58047000Y-92373000D02*
G01*
X58058026Y-92373000D01*
X58055000Y-92388212D01*
X58055000Y-92611788D01*
X58058026Y-92627000D01*
X58047000Y-92627000D01*
X58047000Y-92638026D01*
X58031788Y-92635000D01*
X57808212Y-92635000D01*
X57793000Y-92638026D01*
X57793000Y-92627000D01*
X57773000Y-92627000D01*
X57773000Y-92373000D01*
X57793000Y-92373000D01*
X57793000Y-92353000D01*
X58047000Y-92353000D01*
X58047000Y-92373000D01*
G37*
X58047000Y-92373000D02*
X58058026Y-92373000D01*
X58055000Y-92388212D01*
X58055000Y-92611788D01*
X58058026Y-92627000D01*
X58047000Y-92627000D01*
X58047000Y-92638026D01*
X58031788Y-92635000D01*
X57808212Y-92635000D01*
X57793000Y-92638026D01*
X57793000Y-92627000D01*
X57773000Y-92627000D01*
X57773000Y-92373000D01*
X57793000Y-92373000D01*
X57793000Y-92353000D01*
X58047000Y-92353000D01*
X58047000Y-92373000D01*
M02*
