M48
; DRILL file {KiCad 5.1.6-c6e7f7d~86~ubuntu18.04.1} date Mon Jun  1 21:53:20 2020
; FORMAT={-:-/ absolute / inch / decimal}
; #@! TF.CreationDate,2020-06-01T21:53:20-04:00
; #@! TF.GenerationSoftware,Kicad,Pcbnew,5.1.6-c6e7f7d~86~ubuntu18.04.1
; #@! TF.FileFunction,Plated,1,4,PTH
FMAT,2
INCH
T1C0.0157
T2C0.0236
T3C0.0256
T4C0.0295
T5C0.0315
T6C0.0335
T7C0.0591
%
G90
G05
T1
X2.126Y-4.8425
X2.1457Y-4.0945
X2.185Y-3.8189
X2.185Y-4.1339
X2.185Y-4.1929
X2.185Y-4.252
X2.185Y-4.311
X2.185Y-4.3701
X2.2047Y-3.6929
X2.2244Y-3.8976
X2.2441Y-4.1339
X2.2441Y-4.1929
X2.2441Y-4.252
X2.2441Y-4.311
X2.2441Y-4.3701
X2.258Y-4.0346
X2.2638Y-4.5866
X2.2638Y-4.6457
X2.2638Y-4.7047
X2.2638Y-4.8819
X2.2756Y-3.8976
X2.3031Y-4.1339
X2.3031Y-4.1929
X2.3031Y-4.252
X2.3031Y-4.311
X2.3031Y-4.3701
X2.3093Y-4.0351
X2.3228Y-4.6457
X2.3228Y-4.7047
X2.3228Y-4.7638
X2.3228Y-4.8228
X2.3228Y-4.8819
X2.3327Y-3.8976
X2.3585Y-4.0351
X2.3622Y-4.1339
X2.3622Y-4.1929
X2.3622Y-4.252
X2.3622Y-4.311
X2.3622Y-4.3701
X2.3799Y-3.895
X2.3819Y-4.7047
X2.3819Y-4.7638
X2.3819Y-4.8228
X2.3819Y-4.8819
X2.4097Y-4.0349
X2.4213Y-4.1339
X2.4213Y-4.1929
X2.4213Y-4.252
X2.4213Y-4.311
X2.4213Y-4.3701
X2.4409Y-4.7638
X2.4409Y-4.8228
X2.4409Y-4.8819
X2.4589Y-4.0349
X2.4803Y-4.1339
X2.4803Y-4.1929
X2.4803Y-4.252
X2.4803Y-4.311
X2.4803Y-4.3701
X2.5Y-3.7402
X2.5295Y-4.0551
X2.5354Y-4.1102
X2.5492Y-3.7598
X2.5689Y-4.8228
X2.6181Y-4.3307
X2.6184Y-4.2732
X2.6184Y-4.3736
X2.6187Y-4.1849
X2.6203Y-4.1304
X2.6204Y-4.2291
X2.622Y-4.8583
X2.7362Y-4.1535
X2.7362Y-4.2576
X2.7982Y-4.0108
X2.815Y-4.7441
X2.8314Y-4.3045
X2.8375Y-4.0108
X2.8398Y-4.1014
X2.8543Y-3.7795
X2.8642Y-4.7441
X2.9134Y-3.7795
X2.9295Y-4.0856
X2.9308Y-4.2447
X2.9537Y-4.2037
X2.9724Y-3.7795
X3.0551Y-4.813
X3.0551Y-4.872
X3.1496Y-4.5669
X3.1693Y-4.4291
X3.1693Y-4.7531
X3.1782Y-4.6899
X3.3228Y-4.7953
X3.4843Y-3.8583
X3.5512Y-4.7795
X3.5531Y-4.5866
X3.5827Y-3.7205
X3.5827Y-3.7795
X3.5827Y-3.8386
X3.6417Y-3.7205
X3.6417Y-3.7795
X3.6417Y-3.8386
X3.6417Y-4.8819
X3.6839Y-4.502
X3.7008Y-4.8819
X3.7402Y-4.5866
X3.7598Y-3.7205
X3.7598Y-3.7795
X3.7598Y-3.8386
X3.7598Y-3.8976
X3.7598Y-3.9567
X3.7598Y-4.0157
X3.7598Y-4.8819
X3.8189Y-3.7205
X3.8189Y-3.7795
X3.8189Y-3.8386
X3.8189Y-4.8819
X3.8386Y-4.4488
X3.878Y-3.6024
X3.878Y-3.6614
X3.878Y-3.7205
X3.878Y-3.7795
X3.878Y-3.8386
X3.878Y-3.8976
X3.878Y-3.9567
X3.878Y-4.0157
X3.878Y-4.7638
X3.878Y-4.8228
X3.878Y-4.8819
T3
X2.2803Y-3.6417
X2.2803Y-3.6917
X2.3303Y-3.6417
X2.3303Y-3.6917
X2.3803Y-3.6417
X2.3803Y-3.6917
X2.4303Y-3.6417
X2.4303Y-3.6917
X2.4803Y-3.6417
X2.4803Y-3.6917
T4
X3.0709Y-4.0354
X3.0709Y-4.1142
X3.0709Y-4.1929
X3.0709Y-4.2717
X3.0709Y-4.3504
X3.1496Y-4.0354
X3.1496Y-4.1142
X3.1496Y-4.1929
X3.1496Y-4.2717
X3.1496Y-4.3504
X3.7992Y-4.1535
X3.7992Y-4.2323
X3.3268Y-4.0354
X3.3268Y-4.1142
X3.3268Y-4.1929
X3.3268Y-4.2717
X3.3268Y-4.3504
X3.3268Y-4.4291
X3.5433Y-4.0354
X3.5433Y-4.1142
X3.5433Y-4.1929
X3.5433Y-4.2717
X3.5433Y-4.3504
X3.5433Y-4.4291
T5
X3.1288Y-3.7875
X3.2075Y-3.7875
X3.2862Y-3.7875
T6
X2.1325Y-3.6614
X2.1325Y-3.8583
T7
X3.0461Y-3.7875
X3.3689Y-3.7875
T2
G00X2.0124Y-3.622
M15
G01X2.04Y-3.622
M16
G05
G00X2.04Y-3.8976
M15
G01X2.0124Y-3.8976
M16
G05
T0
M30
