G04 #@! TF.GenerationSoftware,KiCad,Pcbnew,5.1.6-c6e7f7d~86~ubuntu18.04.1*
G04 #@! TF.CreationDate,2020-06-01T21:53:24-04:00*
G04 #@! TF.ProjectId,E73 SCR v2,45373320-5343-4522-9076-322e6b696361,rev?*
G04 #@! TF.SameCoordinates,Original*
G04 #@! TF.FileFunction,Copper,L3,Inr*
G04 #@! TF.FilePolarity,Positive*
%FSLAX46Y46*%
G04 Gerber Fmt 4.6, Leading zero omitted, Abs format (unit mm)*
G04 Created by KiCad (PCBNEW 5.1.6-c6e7f7d~86~ubuntu18.04.1) date 2020-06-01 21:53:24*
%MOMM*%
%LPD*%
G01*
G04 APERTURE LIST*
G04 #@! TA.AperFunction,ViaPad*
%ADD10C,1.200000*%
G04 #@! TD*
G04 #@! TA.AperFunction,ViaPad*
%ADD11C,2.000000*%
G04 #@! TD*
G04 #@! TA.AperFunction,ViaPad*
%ADD12C,1.500000*%
G04 #@! TD*
G04 #@! TA.AperFunction,ViaPad*
%ADD13R,1.700000X1.200000*%
G04 #@! TD*
G04 #@! TA.AperFunction,ViaPad*
%ADD14O,1.700000X1.200000*%
G04 #@! TD*
G04 #@! TA.AperFunction,ViaPad*
%ADD15C,1.450000*%
G04 #@! TD*
G04 #@! TA.AperFunction,ViaPad*
%ADD16O,1.900000X1.200000*%
G04 #@! TD*
G04 #@! TA.AperFunction,ViaPad*
%ADD17R,1.000000X1.000000*%
G04 #@! TD*
G04 #@! TA.AperFunction,ViaPad*
%ADD18O,1.000000X1.000000*%
G04 #@! TD*
G04 #@! TA.AperFunction,ViaPad*
%ADD19C,0.800000*%
G04 #@! TD*
G04 #@! TA.AperFunction,ViaPad*
%ADD20C,1.000000*%
G04 #@! TD*
G04 #@! TA.AperFunction,Conductor*
%ADD21C,0.254000*%
G04 #@! TD*
G04 APERTURE END LIST*
D10*
X80000000Y-102500000D03*
X80000000Y-104500000D03*
X80000000Y-106500000D03*
X80000000Y-108500000D03*
X80000000Y-110500000D03*
X78000000Y-102500000D03*
X78000000Y-104500000D03*
X78000000Y-106500000D03*
X78000000Y-108500000D03*
G04 #@! TA.AperFunction,ViaPad*
G36*
G01*
X78350001Y-111100000D02*
X77649999Y-111100000D01*
G75*
G02*
X77400000Y-110850001I0J249999D01*
G01*
X77400000Y-110149999D01*
G75*
G02*
X77649999Y-109900000I249999J0D01*
G01*
X78350001Y-109900000D01*
G75*
G02*
X78600000Y-110149999I0J-249999D01*
G01*
X78600000Y-110850001D01*
G75*
G02*
X78350001Y-111100000I-249999J0D01*
G01*
G37*
G04 #@! TD.AperFunction*
D11*
X85570500Y-96202500D03*
X77370500Y-96202500D03*
D12*
X79470500Y-96202500D03*
X81470500Y-96202500D03*
X83470500Y-96202500D03*
D13*
X96500000Y-107500000D03*
D14*
X96500000Y-105500000D03*
D13*
X84500000Y-112500000D03*
D14*
X84500000Y-110500000D03*
X84500000Y-108500000D03*
X84500000Y-106500000D03*
X84500000Y-104500000D03*
X84500000Y-102500000D03*
D13*
X90000000Y-112500000D03*
D14*
X90000000Y-110500000D03*
X90000000Y-108500000D03*
X90000000Y-106500000D03*
X90000000Y-104500000D03*
X90000000Y-102500000D03*
D15*
X54166000Y-93000000D03*
X54166000Y-98000000D03*
D16*
X51466000Y-92000000D03*
X51466000Y-99000000D03*
D17*
X63000000Y-92500000D03*
D18*
X63000000Y-93770000D03*
X61730000Y-92500000D03*
X61730000Y-93770000D03*
X60460000Y-92500000D03*
X60460000Y-93770000D03*
X59190000Y-92500000D03*
X59190000Y-93770000D03*
X57920000Y-92500000D03*
X57920000Y-93770000D03*
D19*
X72750000Y-120500000D03*
X71500000Y-120500000D03*
X55500000Y-97000000D03*
X97500000Y-113000000D03*
X95000000Y-116500000D03*
X80500000Y-120729991D03*
X80725010Y-119122774D03*
X69500000Y-105500000D03*
X74442744Y-107814520D03*
X74410145Y-103774990D03*
X75024070Y-106774071D03*
X72073737Y-101875032D03*
X77600000Y-123750000D03*
X77600000Y-122250000D03*
X64400000Y-104400000D03*
X94000000Y-124000000D03*
X92500000Y-124000000D03*
X95500000Y-124000000D03*
X97000000Y-124000000D03*
X98500000Y-124000000D03*
X98500000Y-122500000D03*
X98500000Y-121000000D03*
X98500000Y-102000000D03*
X98500000Y-100500000D03*
X98500000Y-99000000D03*
X98500000Y-94500000D03*
X98500000Y-97500000D03*
X98500000Y-96000000D03*
X98500000Y-93000000D03*
X98500000Y-91500000D03*
X97000000Y-97500000D03*
X97000000Y-96000000D03*
X97000000Y-94500000D03*
X95500000Y-94500000D03*
X95500000Y-97500000D03*
X95500000Y-96000000D03*
X92500000Y-94500000D03*
X92500000Y-97500000D03*
X92500000Y-96000000D03*
X91000000Y-96000000D03*
X91000000Y-97500000D03*
X91000000Y-94500000D03*
X95500000Y-99000000D03*
X95500000Y-102000000D03*
X95500000Y-100500000D03*
X74000000Y-96000000D03*
X75500000Y-96000000D03*
X72500000Y-96000000D03*
X55500000Y-105000000D03*
X57000000Y-105000000D03*
X58500000Y-105000000D03*
X55500000Y-106500000D03*
X57000000Y-106500000D03*
X58500000Y-106500000D03*
X57000000Y-108000000D03*
X55500000Y-108000000D03*
X58500000Y-108000000D03*
X57000000Y-109500000D03*
X55500000Y-109500000D03*
X58500000Y-109500000D03*
X58500000Y-111000000D03*
X55500000Y-111000000D03*
X57000000Y-111000000D03*
X60000000Y-111000000D03*
X63000000Y-111000000D03*
X61500000Y-111000000D03*
X63000000Y-109500000D03*
X61500000Y-109500000D03*
X60000000Y-109500000D03*
X60000000Y-108000000D03*
X63000000Y-108000000D03*
X61500000Y-108000000D03*
X63000000Y-106500000D03*
X61500000Y-106500000D03*
X60000000Y-106500000D03*
X61500000Y-105000000D03*
X63000000Y-105000000D03*
X60000000Y-105000000D03*
X59000000Y-121000000D03*
X59000000Y-122500000D03*
X59000000Y-124000000D03*
X60500000Y-122500000D03*
X60500000Y-124000000D03*
X60500000Y-121000000D03*
X62000000Y-124000000D03*
X62000000Y-122500000D03*
X62000000Y-121000000D03*
X57500000Y-124000000D03*
X57500000Y-119500000D03*
X57500000Y-118000000D03*
X57500000Y-116500000D03*
X59000000Y-119500000D03*
X59000000Y-118000000D03*
X60500000Y-119500000D03*
X54000000Y-123000000D03*
X80000000Y-116000000D03*
X71916495Y-109333505D03*
X72129675Y-104175019D03*
X71073724Y-101875032D03*
D20*
X93569998Y-114350000D03*
X64750000Y-95500000D03*
X56000000Y-93800000D03*
D19*
X90250000Y-116500000D03*
X90200000Y-121400000D03*
X56500000Y-99000000D03*
X57799989Y-99000000D03*
X84400000Y-121800000D03*
X66600000Y-123400000D03*
X54500000Y-104000000D03*
X63500000Y-95000000D03*
X65250000Y-122500000D03*
X80500000Y-112500000D03*
X66507898Y-108539530D03*
X69500000Y-108143534D03*
X66558763Y-107418524D03*
X66515472Y-106297725D03*
X66556186Y-104912866D03*
X64250000Y-103000000D03*
X59905574Y-102492124D03*
X58655574Y-102492124D03*
X57353819Y-102478905D03*
X59250000Y-99000000D03*
X88500000Y-98000000D03*
X60448695Y-98933769D03*
X66500000Y-110000000D03*
X61205764Y-102487577D03*
X66508192Y-111089504D03*
X62455764Y-102487577D03*
D21*
G36*
X70097950Y-90856586D02*
G01*
X70021814Y-91040394D01*
X69983000Y-91235524D01*
X69983000Y-91434476D01*
X70021814Y-91629606D01*
X70097950Y-91813414D01*
X70208482Y-91978837D01*
X70349163Y-92119518D01*
X70514586Y-92230050D01*
X70698394Y-92306186D01*
X70893524Y-92345000D01*
X71092476Y-92345000D01*
X71287606Y-92306186D01*
X71471414Y-92230050D01*
X71636837Y-92119518D01*
X71777518Y-91978837D01*
X71888050Y-91813414D01*
X71964186Y-91629606D01*
X72003000Y-91434476D01*
X72003000Y-91235524D01*
X71964186Y-91040394D01*
X71888050Y-90856586D01*
X71790104Y-90710000D01*
X97826289Y-90710000D01*
X97696063Y-90840226D01*
X97582795Y-91009744D01*
X97504774Y-91198102D01*
X97465000Y-91398061D01*
X97465000Y-91601939D01*
X97504774Y-91801898D01*
X97582795Y-91990256D01*
X97696063Y-92159774D01*
X97786289Y-92250000D01*
X97696063Y-92340226D01*
X97582795Y-92509744D01*
X97504774Y-92698102D01*
X97465000Y-92898061D01*
X97465000Y-93101939D01*
X97504774Y-93301898D01*
X97582795Y-93490256D01*
X97696063Y-93659774D01*
X97786289Y-93750000D01*
X97750000Y-93786289D01*
X97659774Y-93696063D01*
X97490256Y-93582795D01*
X97301898Y-93504774D01*
X97101939Y-93465000D01*
X96898061Y-93465000D01*
X96698102Y-93504774D01*
X96509744Y-93582795D01*
X96340226Y-93696063D01*
X96250000Y-93786289D01*
X96159774Y-93696063D01*
X95990256Y-93582795D01*
X95801898Y-93504774D01*
X95601939Y-93465000D01*
X95398061Y-93465000D01*
X95198102Y-93504774D01*
X95009744Y-93582795D01*
X94840226Y-93696063D01*
X94696063Y-93840226D01*
X94582795Y-94009744D01*
X94504774Y-94198102D01*
X94465000Y-94398061D01*
X94465000Y-94601939D01*
X94504774Y-94801898D01*
X94582795Y-94990256D01*
X94696063Y-95159774D01*
X94786289Y-95250000D01*
X94696063Y-95340226D01*
X94582795Y-95509744D01*
X94504774Y-95698102D01*
X94465000Y-95898061D01*
X94465000Y-96101939D01*
X94504774Y-96301898D01*
X94582795Y-96490256D01*
X94696063Y-96659774D01*
X94786289Y-96750000D01*
X94696063Y-96840226D01*
X94582795Y-97009744D01*
X94504774Y-97198102D01*
X94465000Y-97398061D01*
X94465000Y-97601939D01*
X94504774Y-97801898D01*
X94582795Y-97990256D01*
X94696063Y-98159774D01*
X94786289Y-98250000D01*
X94696063Y-98340226D01*
X94582795Y-98509744D01*
X94504774Y-98698102D01*
X94465000Y-98898061D01*
X94465000Y-99101939D01*
X94504774Y-99301898D01*
X94582795Y-99490256D01*
X94696063Y-99659774D01*
X94786289Y-99750000D01*
X94696063Y-99840226D01*
X94582795Y-100009744D01*
X94504774Y-100198102D01*
X94465000Y-100398061D01*
X94465000Y-100601939D01*
X94504774Y-100801898D01*
X94582795Y-100990256D01*
X94696063Y-101159774D01*
X94786289Y-101250000D01*
X94696063Y-101340226D01*
X94582795Y-101509744D01*
X94504774Y-101698102D01*
X94465000Y-101898061D01*
X94465000Y-102101939D01*
X94504774Y-102301898D01*
X94582795Y-102490256D01*
X94696063Y-102659774D01*
X94840226Y-102803937D01*
X95009744Y-102917205D01*
X95198102Y-102995226D01*
X95398061Y-103035000D01*
X95601939Y-103035000D01*
X95801898Y-102995226D01*
X95990256Y-102917205D01*
X96159774Y-102803937D01*
X96303937Y-102659774D01*
X96417205Y-102490256D01*
X96495226Y-102301898D01*
X96535000Y-102101939D01*
X96535000Y-101898061D01*
X96495226Y-101698102D01*
X96417205Y-101509744D01*
X96303937Y-101340226D01*
X96213711Y-101250000D01*
X96303937Y-101159774D01*
X96417205Y-100990256D01*
X96495226Y-100801898D01*
X96535000Y-100601939D01*
X96535000Y-100398061D01*
X96495226Y-100198102D01*
X96417205Y-100009744D01*
X96303937Y-99840226D01*
X96213711Y-99750000D01*
X96303937Y-99659774D01*
X96417205Y-99490256D01*
X96495226Y-99301898D01*
X96535000Y-99101939D01*
X96535000Y-98898061D01*
X96495226Y-98698102D01*
X96417205Y-98509744D01*
X96303937Y-98340226D01*
X96213711Y-98250000D01*
X96250000Y-98213711D01*
X96340226Y-98303937D01*
X96509744Y-98417205D01*
X96698102Y-98495226D01*
X96898061Y-98535000D01*
X97101939Y-98535000D01*
X97301898Y-98495226D01*
X97490256Y-98417205D01*
X97659774Y-98303937D01*
X97750000Y-98213711D01*
X97786289Y-98250000D01*
X97696063Y-98340226D01*
X97582795Y-98509744D01*
X97504774Y-98698102D01*
X97465000Y-98898061D01*
X97465000Y-99101939D01*
X97504774Y-99301898D01*
X97582795Y-99490256D01*
X97696063Y-99659774D01*
X97786289Y-99750000D01*
X97696063Y-99840226D01*
X97582795Y-100009744D01*
X97504774Y-100198102D01*
X97465000Y-100398061D01*
X97465000Y-100601939D01*
X97504774Y-100801898D01*
X97582795Y-100990256D01*
X97696063Y-101159774D01*
X97786289Y-101250000D01*
X97696063Y-101340226D01*
X97582795Y-101509744D01*
X97504774Y-101698102D01*
X97465000Y-101898061D01*
X97465000Y-102101939D01*
X97504774Y-102301898D01*
X97582795Y-102490256D01*
X97696063Y-102659774D01*
X97840226Y-102803937D01*
X98009744Y-102917205D01*
X98198102Y-102995226D01*
X98398061Y-103035000D01*
X98601939Y-103035000D01*
X98801898Y-102995226D01*
X98990256Y-102917205D01*
X99159774Y-102803937D01*
X99290000Y-102673711D01*
X99290001Y-120326290D01*
X99159774Y-120196063D01*
X98990256Y-120082795D01*
X98801898Y-120004774D01*
X98601939Y-119965000D01*
X98398061Y-119965000D01*
X98198102Y-120004774D01*
X98009744Y-120082795D01*
X97840226Y-120196063D01*
X97696063Y-120340226D01*
X97582795Y-120509744D01*
X97504774Y-120698102D01*
X97465000Y-120898061D01*
X97465000Y-121101939D01*
X97504774Y-121301898D01*
X97582795Y-121490256D01*
X97696063Y-121659774D01*
X97786289Y-121750000D01*
X97696063Y-121840226D01*
X97582795Y-122009744D01*
X97504774Y-122198102D01*
X97465000Y-122398061D01*
X97465000Y-122601939D01*
X97504774Y-122801898D01*
X97582795Y-122990256D01*
X97696063Y-123159774D01*
X97786289Y-123250000D01*
X97750000Y-123286289D01*
X97659774Y-123196063D01*
X97490256Y-123082795D01*
X97301898Y-123004774D01*
X97101939Y-122965000D01*
X96898061Y-122965000D01*
X96698102Y-123004774D01*
X96509744Y-123082795D01*
X96340226Y-123196063D01*
X96250000Y-123286289D01*
X96159774Y-123196063D01*
X95990256Y-123082795D01*
X95801898Y-123004774D01*
X95601939Y-122965000D01*
X95398061Y-122965000D01*
X95198102Y-123004774D01*
X95009744Y-123082795D01*
X94840226Y-123196063D01*
X94750000Y-123286289D01*
X94659774Y-123196063D01*
X94490256Y-123082795D01*
X94301898Y-123004774D01*
X94101939Y-122965000D01*
X93898061Y-122965000D01*
X93698102Y-123004774D01*
X93509744Y-123082795D01*
X93340226Y-123196063D01*
X93250000Y-123286289D01*
X93159774Y-123196063D01*
X92990256Y-123082795D01*
X92801898Y-123004774D01*
X92601939Y-122965000D01*
X92398061Y-122965000D01*
X92198102Y-123004774D01*
X92009744Y-123082795D01*
X91840226Y-123196063D01*
X91696063Y-123340226D01*
X91582795Y-123509744D01*
X91504774Y-123698102D01*
X91465000Y-123898061D01*
X91465000Y-124101939D01*
X91502407Y-124290000D01*
X78483967Y-124290000D01*
X78517205Y-124240256D01*
X78595226Y-124051898D01*
X78635000Y-123851939D01*
X78635000Y-123648061D01*
X78595226Y-123448102D01*
X78517205Y-123259744D01*
X78403937Y-123090226D01*
X78313711Y-123000000D01*
X78403937Y-122909774D01*
X78517205Y-122740256D01*
X78595226Y-122551898D01*
X78635000Y-122351939D01*
X78635000Y-122148061D01*
X78595226Y-121948102D01*
X78517205Y-121759744D01*
X78403937Y-121590226D01*
X78259774Y-121446063D01*
X78090256Y-121332795D01*
X77901898Y-121254774D01*
X77701939Y-121215000D01*
X77498061Y-121215000D01*
X77298102Y-121254774D01*
X77109744Y-121332795D01*
X76940226Y-121446063D01*
X76796063Y-121590226D01*
X76682795Y-121759744D01*
X76604774Y-121948102D01*
X76565000Y-122148061D01*
X76565000Y-122351939D01*
X76604774Y-122551898D01*
X76682795Y-122740256D01*
X76796063Y-122909774D01*
X76886289Y-123000000D01*
X76796063Y-123090226D01*
X76682795Y-123259744D01*
X76604774Y-123448102D01*
X76565000Y-123648061D01*
X76565000Y-123851939D01*
X76604774Y-124051898D01*
X76682795Y-124240256D01*
X76716033Y-124290000D01*
X75627000Y-124290000D01*
X75627000Y-120628052D01*
X79465000Y-120628052D01*
X79465000Y-120831930D01*
X79504774Y-121031889D01*
X79582795Y-121220247D01*
X79696063Y-121389765D01*
X79840226Y-121533928D01*
X80009744Y-121647196D01*
X80198102Y-121725217D01*
X80398061Y-121764991D01*
X80601939Y-121764991D01*
X80801898Y-121725217D01*
X80867457Y-121698061D01*
X83365000Y-121698061D01*
X83365000Y-121901939D01*
X83404774Y-122101898D01*
X83482795Y-122290256D01*
X83596063Y-122459774D01*
X83740226Y-122603937D01*
X83909744Y-122717205D01*
X84098102Y-122795226D01*
X84298061Y-122835000D01*
X84501939Y-122835000D01*
X84701898Y-122795226D01*
X84890256Y-122717205D01*
X85059774Y-122603937D01*
X85203937Y-122459774D01*
X85317205Y-122290256D01*
X85395226Y-122101898D01*
X85435000Y-121901939D01*
X85435000Y-121698061D01*
X85395226Y-121498102D01*
X85317205Y-121309744D01*
X85309399Y-121298061D01*
X89165000Y-121298061D01*
X89165000Y-121501939D01*
X89204774Y-121701898D01*
X89282795Y-121890256D01*
X89396063Y-122059774D01*
X89540226Y-122203937D01*
X89709744Y-122317205D01*
X89898102Y-122395226D01*
X90098061Y-122435000D01*
X90301939Y-122435000D01*
X90501898Y-122395226D01*
X90690256Y-122317205D01*
X90859774Y-122203937D01*
X91003937Y-122059774D01*
X91117205Y-121890256D01*
X91195226Y-121701898D01*
X91235000Y-121501939D01*
X91235000Y-121298061D01*
X91195226Y-121098102D01*
X91117205Y-120909744D01*
X91003937Y-120740226D01*
X90859774Y-120596063D01*
X90690256Y-120482795D01*
X90501898Y-120404774D01*
X90301939Y-120365000D01*
X90098061Y-120365000D01*
X89898102Y-120404774D01*
X89709744Y-120482795D01*
X89540226Y-120596063D01*
X89396063Y-120740226D01*
X89282795Y-120909744D01*
X89204774Y-121098102D01*
X89165000Y-121298061D01*
X85309399Y-121298061D01*
X85203937Y-121140226D01*
X85059774Y-120996063D01*
X84890256Y-120882795D01*
X84701898Y-120804774D01*
X84501939Y-120765000D01*
X84298061Y-120765000D01*
X84098102Y-120804774D01*
X83909744Y-120882795D01*
X83740226Y-120996063D01*
X83596063Y-121140226D01*
X83482795Y-121309744D01*
X83404774Y-121498102D01*
X83365000Y-121698061D01*
X80867457Y-121698061D01*
X80990256Y-121647196D01*
X81159774Y-121533928D01*
X81303937Y-121389765D01*
X81417205Y-121220247D01*
X81495226Y-121031889D01*
X81535000Y-120831930D01*
X81535000Y-120628052D01*
X81495226Y-120428093D01*
X81417205Y-120239735D01*
X81303937Y-120070217D01*
X81250294Y-120016574D01*
X81384784Y-119926711D01*
X81528947Y-119782548D01*
X81642215Y-119613030D01*
X81720236Y-119424672D01*
X81760010Y-119224713D01*
X81760010Y-119020835D01*
X81720236Y-118820876D01*
X81642215Y-118632518D01*
X81528947Y-118463000D01*
X81384784Y-118318837D01*
X81215266Y-118205569D01*
X81026908Y-118127548D01*
X80826949Y-118087774D01*
X80623071Y-118087774D01*
X80423112Y-118127548D01*
X80234754Y-118205569D01*
X80065236Y-118318837D01*
X79921073Y-118463000D01*
X79807805Y-118632518D01*
X79729784Y-118820876D01*
X79690010Y-119020835D01*
X79690010Y-119224713D01*
X79729784Y-119424672D01*
X79807805Y-119613030D01*
X79921073Y-119782548D01*
X79974716Y-119836191D01*
X79840226Y-119926054D01*
X79696063Y-120070217D01*
X79582795Y-120239735D01*
X79504774Y-120428093D01*
X79465000Y-120628052D01*
X75627000Y-120628052D01*
X75627000Y-116398061D01*
X89215000Y-116398061D01*
X89215000Y-116601939D01*
X89254774Y-116801898D01*
X89332795Y-116990256D01*
X89446063Y-117159774D01*
X89590226Y-117303937D01*
X89759744Y-117417205D01*
X89948102Y-117495226D01*
X90148061Y-117535000D01*
X90351939Y-117535000D01*
X90551898Y-117495226D01*
X90740256Y-117417205D01*
X90909774Y-117303937D01*
X91053937Y-117159774D01*
X91167205Y-116990256D01*
X91245226Y-116801898D01*
X91285000Y-116601939D01*
X91285000Y-116398061D01*
X93965000Y-116398061D01*
X93965000Y-116601939D01*
X94004774Y-116801898D01*
X94082795Y-116990256D01*
X94196063Y-117159774D01*
X94340226Y-117303937D01*
X94509744Y-117417205D01*
X94698102Y-117495226D01*
X94898061Y-117535000D01*
X95101939Y-117535000D01*
X95301898Y-117495226D01*
X95490256Y-117417205D01*
X95659774Y-117303937D01*
X95803937Y-117159774D01*
X95917205Y-116990256D01*
X95995226Y-116801898D01*
X96035000Y-116601939D01*
X96035000Y-116398061D01*
X95995226Y-116198102D01*
X95917205Y-116009744D01*
X95803937Y-115840226D01*
X95659774Y-115696063D01*
X95490256Y-115582795D01*
X95301898Y-115504774D01*
X95101939Y-115465000D01*
X94898061Y-115465000D01*
X94698102Y-115504774D01*
X94509744Y-115582795D01*
X94340226Y-115696063D01*
X94196063Y-115840226D01*
X94082795Y-116009744D01*
X94004774Y-116198102D01*
X93965000Y-116398061D01*
X91285000Y-116398061D01*
X91245226Y-116198102D01*
X91167205Y-116009744D01*
X91053937Y-115840226D01*
X90909774Y-115696063D01*
X90740256Y-115582795D01*
X90551898Y-115504774D01*
X90351939Y-115465000D01*
X90148061Y-115465000D01*
X89948102Y-115504774D01*
X89759744Y-115582795D01*
X89590226Y-115696063D01*
X89446063Y-115840226D01*
X89332795Y-116009744D01*
X89254774Y-116198102D01*
X89215000Y-116398061D01*
X75627000Y-116398061D01*
X75627000Y-114238212D01*
X92434998Y-114238212D01*
X92434998Y-114461788D01*
X92478615Y-114681067D01*
X92564174Y-114887624D01*
X92688386Y-115073520D01*
X92846478Y-115231612D01*
X93032374Y-115355824D01*
X93238931Y-115441383D01*
X93458210Y-115485000D01*
X93681786Y-115485000D01*
X93901065Y-115441383D01*
X94107622Y-115355824D01*
X94293518Y-115231612D01*
X94451610Y-115073520D01*
X94575822Y-114887624D01*
X94661381Y-114681067D01*
X94704998Y-114461788D01*
X94704998Y-114238212D01*
X94661381Y-114018933D01*
X94575822Y-113812376D01*
X94451610Y-113626480D01*
X94293518Y-113468388D01*
X94107622Y-113344176D01*
X93901065Y-113258617D01*
X93681786Y-113215000D01*
X93458210Y-113215000D01*
X93238931Y-113258617D01*
X93032374Y-113344176D01*
X92846478Y-113468388D01*
X92688386Y-113626480D01*
X92564174Y-113812376D01*
X92478615Y-114018933D01*
X92434998Y-114238212D01*
X75627000Y-114238212D01*
X75627000Y-110149999D01*
X76761928Y-110149999D01*
X76761928Y-110850001D01*
X76778992Y-111023255D01*
X76829528Y-111189851D01*
X76911595Y-111343387D01*
X77022038Y-111477962D01*
X77156613Y-111588405D01*
X77310149Y-111670472D01*
X77476745Y-111721008D01*
X77649999Y-111738072D01*
X78350001Y-111738072D01*
X78523255Y-111721008D01*
X78689851Y-111670472D01*
X78843387Y-111588405D01*
X78977962Y-111477962D01*
X79083171Y-111349764D01*
X79329841Y-111349764D01*
X79377148Y-111573348D01*
X79598516Y-111674237D01*
X79811821Y-111724468D01*
X79696063Y-111840226D01*
X79582795Y-112009744D01*
X79504774Y-112198102D01*
X79465000Y-112398061D01*
X79465000Y-112601939D01*
X79504774Y-112801898D01*
X79582795Y-112990256D01*
X79696063Y-113159774D01*
X79840226Y-113303937D01*
X80009744Y-113417205D01*
X80198102Y-113495226D01*
X80398061Y-113535000D01*
X80601939Y-113535000D01*
X80801898Y-113495226D01*
X80990256Y-113417205D01*
X81159774Y-113303937D01*
X81303937Y-113159774D01*
X81417205Y-112990256D01*
X81495226Y-112801898D01*
X81535000Y-112601939D01*
X81535000Y-112398061D01*
X81495226Y-112198102D01*
X81417205Y-112009744D01*
X81343877Y-111900000D01*
X83011928Y-111900000D01*
X83011928Y-113100000D01*
X83024188Y-113224482D01*
X83060498Y-113344180D01*
X83119463Y-113454494D01*
X83198815Y-113551185D01*
X83295506Y-113630537D01*
X83405820Y-113689502D01*
X83525518Y-113725812D01*
X83650000Y-113738072D01*
X85350000Y-113738072D01*
X85474482Y-113725812D01*
X85594180Y-113689502D01*
X85704494Y-113630537D01*
X85801185Y-113551185D01*
X85880537Y-113454494D01*
X85939502Y-113344180D01*
X85975812Y-113224482D01*
X85988072Y-113100000D01*
X85988072Y-111900000D01*
X88511928Y-111900000D01*
X88511928Y-113100000D01*
X88524188Y-113224482D01*
X88560498Y-113344180D01*
X88619463Y-113454494D01*
X88698815Y-113551185D01*
X88795506Y-113630537D01*
X88905820Y-113689502D01*
X89025518Y-113725812D01*
X89150000Y-113738072D01*
X90850000Y-113738072D01*
X90974482Y-113725812D01*
X91094180Y-113689502D01*
X91204494Y-113630537D01*
X91301185Y-113551185D01*
X91380537Y-113454494D01*
X91439502Y-113344180D01*
X91475812Y-113224482D01*
X91488072Y-113100000D01*
X91488072Y-112898061D01*
X96465000Y-112898061D01*
X96465000Y-113101939D01*
X96504774Y-113301898D01*
X96582795Y-113490256D01*
X96696063Y-113659774D01*
X96840226Y-113803937D01*
X97009744Y-113917205D01*
X97198102Y-113995226D01*
X97398061Y-114035000D01*
X97601939Y-114035000D01*
X97801898Y-113995226D01*
X97990256Y-113917205D01*
X98159774Y-113803937D01*
X98303937Y-113659774D01*
X98417205Y-113490256D01*
X98495226Y-113301898D01*
X98535000Y-113101939D01*
X98535000Y-112898061D01*
X98495226Y-112698102D01*
X98417205Y-112509744D01*
X98303937Y-112340226D01*
X98159774Y-112196063D01*
X97990256Y-112082795D01*
X97801898Y-112004774D01*
X97601939Y-111965000D01*
X97398061Y-111965000D01*
X97198102Y-112004774D01*
X97009744Y-112082795D01*
X96840226Y-112196063D01*
X96696063Y-112340226D01*
X96582795Y-112509744D01*
X96504774Y-112698102D01*
X96465000Y-112898061D01*
X91488072Y-112898061D01*
X91488072Y-111900000D01*
X91475812Y-111775518D01*
X91439502Y-111655820D01*
X91380537Y-111545506D01*
X91301185Y-111448815D01*
X91204494Y-111369463D01*
X91162540Y-111347038D01*
X91181938Y-111329128D01*
X91325786Y-111131384D01*
X91428292Y-110909377D01*
X91443462Y-110817609D01*
X91318731Y-110627000D01*
X90127000Y-110627000D01*
X90127000Y-110647000D01*
X89873000Y-110647000D01*
X89873000Y-110627000D01*
X88681269Y-110627000D01*
X88556538Y-110817609D01*
X88571708Y-110909377D01*
X88674214Y-111131384D01*
X88818062Y-111329128D01*
X88837460Y-111347038D01*
X88795506Y-111369463D01*
X88698815Y-111448815D01*
X88619463Y-111545506D01*
X88560498Y-111655820D01*
X88524188Y-111775518D01*
X88511928Y-111900000D01*
X85988072Y-111900000D01*
X85975812Y-111775518D01*
X85939502Y-111655820D01*
X85880537Y-111545506D01*
X85801185Y-111448815D01*
X85704494Y-111369463D01*
X85662540Y-111347038D01*
X85681938Y-111329128D01*
X85825786Y-111131384D01*
X85928292Y-110909377D01*
X85943462Y-110817609D01*
X85818731Y-110627000D01*
X84627000Y-110627000D01*
X84627000Y-110647000D01*
X84373000Y-110647000D01*
X84373000Y-110627000D01*
X83181269Y-110627000D01*
X83056538Y-110817609D01*
X83071708Y-110909377D01*
X83174214Y-111131384D01*
X83318062Y-111329128D01*
X83337460Y-111347038D01*
X83295506Y-111369463D01*
X83198815Y-111448815D01*
X83119463Y-111545506D01*
X83060498Y-111655820D01*
X83024188Y-111775518D01*
X83011928Y-111900000D01*
X81343877Y-111900000D01*
X81303937Y-111840226D01*
X81159774Y-111696063D01*
X80990256Y-111582795D01*
X80801898Y-111504774D01*
X80644006Y-111473368D01*
X80670159Y-111349764D01*
X80000000Y-110679605D01*
X79329841Y-111349764D01*
X79083171Y-111349764D01*
X79088405Y-111343387D01*
X79170472Y-111189851D01*
X79187858Y-111132537D01*
X79820395Y-110500000D01*
X80179605Y-110500000D01*
X80849764Y-111170159D01*
X81073348Y-111122852D01*
X81174237Y-110901484D01*
X81230000Y-110664687D01*
X81238495Y-110421562D01*
X81199395Y-110181451D01*
X81114202Y-109953582D01*
X81073348Y-109877148D01*
X80849764Y-109829841D01*
X80179605Y-110500000D01*
X79820395Y-110500000D01*
X79187858Y-109867463D01*
X79170472Y-109810149D01*
X79088405Y-109656613D01*
X78977962Y-109522038D01*
X78843387Y-109411595D01*
X78837895Y-109408659D01*
X78959287Y-109287267D01*
X79000000Y-109226336D01*
X79040713Y-109287267D01*
X79212733Y-109459287D01*
X79350733Y-109551496D01*
X79329841Y-109650236D01*
X80000000Y-110320395D01*
X80670159Y-109650236D01*
X80649267Y-109551496D01*
X80787267Y-109459287D01*
X80959287Y-109287267D01*
X81094443Y-109084992D01*
X81187540Y-108860236D01*
X81235000Y-108621637D01*
X81235000Y-108378363D01*
X81187540Y-108139764D01*
X81094443Y-107915008D01*
X80959287Y-107712733D01*
X80787267Y-107540713D01*
X80726336Y-107500000D01*
X80787267Y-107459287D01*
X80959287Y-107287267D01*
X81094443Y-107084992D01*
X81187540Y-106860236D01*
X81235000Y-106621637D01*
X81235000Y-106378363D01*
X81187540Y-106139764D01*
X81094443Y-105915008D01*
X80959287Y-105712733D01*
X80787267Y-105540713D01*
X80726336Y-105500000D01*
X80787267Y-105459287D01*
X80959287Y-105287267D01*
X81094443Y-105084992D01*
X81187540Y-104860236D01*
X81235000Y-104621637D01*
X81235000Y-104378363D01*
X81187540Y-104139764D01*
X81094443Y-103915008D01*
X80959287Y-103712733D01*
X80787267Y-103540713D01*
X80726336Y-103500000D01*
X80787267Y-103459287D01*
X80959287Y-103287267D01*
X81094443Y-103084992D01*
X81187540Y-102860236D01*
X81235000Y-102621637D01*
X81235000Y-102500000D01*
X83009025Y-102500000D01*
X83032870Y-102742102D01*
X83103489Y-102974901D01*
X83218167Y-103189449D01*
X83372498Y-103377502D01*
X83521762Y-103500000D01*
X83372498Y-103622498D01*
X83218167Y-103810551D01*
X83103489Y-104025099D01*
X83032870Y-104257898D01*
X83009025Y-104500000D01*
X83032870Y-104742102D01*
X83103489Y-104974901D01*
X83218167Y-105189449D01*
X83372498Y-105377502D01*
X83521762Y-105500000D01*
X83372498Y-105622498D01*
X83218167Y-105810551D01*
X83103489Y-106025099D01*
X83032870Y-106257898D01*
X83009025Y-106500000D01*
X83032870Y-106742102D01*
X83103489Y-106974901D01*
X83218167Y-107189449D01*
X83372498Y-107377502D01*
X83521762Y-107500000D01*
X83372498Y-107622498D01*
X83218167Y-107810551D01*
X83103489Y-108025099D01*
X83032870Y-108257898D01*
X83009025Y-108500000D01*
X83032870Y-108742102D01*
X83103489Y-108974901D01*
X83218167Y-109189449D01*
X83372498Y-109377502D01*
X83514978Y-109494432D01*
X83497724Y-109504991D01*
X83318062Y-109670872D01*
X83174214Y-109868616D01*
X83071708Y-110090623D01*
X83056538Y-110182391D01*
X83181269Y-110373000D01*
X84373000Y-110373000D01*
X84373000Y-110353000D01*
X84627000Y-110353000D01*
X84627000Y-110373000D01*
X85818731Y-110373000D01*
X85943462Y-110182391D01*
X85928292Y-110090623D01*
X85825786Y-109868616D01*
X85681938Y-109670872D01*
X85502276Y-109504991D01*
X85485022Y-109494432D01*
X85627502Y-109377502D01*
X85781833Y-109189449D01*
X85896511Y-108974901D01*
X85967130Y-108742102D01*
X85990975Y-108500000D01*
X85967130Y-108257898D01*
X85896511Y-108025099D01*
X85781833Y-107810551D01*
X85627502Y-107622498D01*
X85478238Y-107500000D01*
X85627502Y-107377502D01*
X85781833Y-107189449D01*
X85896511Y-106974901D01*
X85967130Y-106742102D01*
X85990975Y-106500000D01*
X85967130Y-106257898D01*
X85896511Y-106025099D01*
X85781833Y-105810551D01*
X85627502Y-105622498D01*
X85478238Y-105500000D01*
X85627502Y-105377502D01*
X85781833Y-105189449D01*
X85896511Y-104974901D01*
X85967130Y-104742102D01*
X85990975Y-104500000D01*
X85967130Y-104257898D01*
X85896511Y-104025099D01*
X85781833Y-103810551D01*
X85627502Y-103622498D01*
X85478238Y-103500000D01*
X85627502Y-103377502D01*
X85781833Y-103189449D01*
X85896511Y-102974901D01*
X85967130Y-102742102D01*
X85990975Y-102500000D01*
X88509025Y-102500000D01*
X88532870Y-102742102D01*
X88603489Y-102974901D01*
X88718167Y-103189449D01*
X88872498Y-103377502D01*
X89021762Y-103500000D01*
X88872498Y-103622498D01*
X88718167Y-103810551D01*
X88603489Y-104025099D01*
X88532870Y-104257898D01*
X88509025Y-104500000D01*
X88532870Y-104742102D01*
X88603489Y-104974901D01*
X88718167Y-105189449D01*
X88872498Y-105377502D01*
X89021762Y-105500000D01*
X88872498Y-105622498D01*
X88718167Y-105810551D01*
X88603489Y-106025099D01*
X88532870Y-106257898D01*
X88509025Y-106500000D01*
X88532870Y-106742102D01*
X88603489Y-106974901D01*
X88718167Y-107189449D01*
X88872498Y-107377502D01*
X89021762Y-107500000D01*
X88872498Y-107622498D01*
X88718167Y-107810551D01*
X88603489Y-108025099D01*
X88532870Y-108257898D01*
X88509025Y-108500000D01*
X88532870Y-108742102D01*
X88603489Y-108974901D01*
X88718167Y-109189449D01*
X88872498Y-109377502D01*
X89014978Y-109494432D01*
X88997724Y-109504991D01*
X88818062Y-109670872D01*
X88674214Y-109868616D01*
X88571708Y-110090623D01*
X88556538Y-110182391D01*
X88681269Y-110373000D01*
X89873000Y-110373000D01*
X89873000Y-110353000D01*
X90127000Y-110353000D01*
X90127000Y-110373000D01*
X91318731Y-110373000D01*
X91443462Y-110182391D01*
X91428292Y-110090623D01*
X91325786Y-109868616D01*
X91181938Y-109670872D01*
X91002276Y-109504991D01*
X90985022Y-109494432D01*
X91127502Y-109377502D01*
X91281833Y-109189449D01*
X91396511Y-108974901D01*
X91467130Y-108742102D01*
X91490975Y-108500000D01*
X91467130Y-108257898D01*
X91396511Y-108025099D01*
X91281833Y-107810551D01*
X91127502Y-107622498D01*
X90978238Y-107500000D01*
X91127502Y-107377502D01*
X91281833Y-107189449D01*
X91396511Y-106974901D01*
X91467130Y-106742102D01*
X91490975Y-106500000D01*
X91467130Y-106257898D01*
X91396511Y-106025099D01*
X91281833Y-105810551D01*
X91127502Y-105622498D01*
X90978238Y-105500000D01*
X95009025Y-105500000D01*
X95032870Y-105742102D01*
X95103489Y-105974901D01*
X95218167Y-106189449D01*
X95344436Y-106343309D01*
X95295506Y-106369463D01*
X95198815Y-106448815D01*
X95119463Y-106545506D01*
X95060498Y-106655820D01*
X95024188Y-106775518D01*
X95011928Y-106900000D01*
X95011928Y-108100000D01*
X95024188Y-108224482D01*
X95060498Y-108344180D01*
X95119463Y-108454494D01*
X95198815Y-108551185D01*
X95295506Y-108630537D01*
X95405820Y-108689502D01*
X95525518Y-108725812D01*
X95650000Y-108738072D01*
X97350000Y-108738072D01*
X97474482Y-108725812D01*
X97594180Y-108689502D01*
X97704494Y-108630537D01*
X97801185Y-108551185D01*
X97880537Y-108454494D01*
X97939502Y-108344180D01*
X97975812Y-108224482D01*
X97988072Y-108100000D01*
X97988072Y-106900000D01*
X97975812Y-106775518D01*
X97939502Y-106655820D01*
X97880537Y-106545506D01*
X97801185Y-106448815D01*
X97704494Y-106369463D01*
X97655564Y-106343309D01*
X97781833Y-106189449D01*
X97896511Y-105974901D01*
X97967130Y-105742102D01*
X97990975Y-105500000D01*
X97967130Y-105257898D01*
X97896511Y-105025099D01*
X97781833Y-104810551D01*
X97627502Y-104622498D01*
X97439449Y-104468167D01*
X97224901Y-104353489D01*
X96992102Y-104282870D01*
X96810665Y-104265000D01*
X96189335Y-104265000D01*
X96007898Y-104282870D01*
X95775099Y-104353489D01*
X95560551Y-104468167D01*
X95372498Y-104622498D01*
X95218167Y-104810551D01*
X95103489Y-105025099D01*
X95032870Y-105257898D01*
X95009025Y-105500000D01*
X90978238Y-105500000D01*
X91127502Y-105377502D01*
X91281833Y-105189449D01*
X91396511Y-104974901D01*
X91467130Y-104742102D01*
X91490975Y-104500000D01*
X91467130Y-104257898D01*
X91396511Y-104025099D01*
X91281833Y-103810551D01*
X91127502Y-103622498D01*
X90978238Y-103500000D01*
X91127502Y-103377502D01*
X91281833Y-103189449D01*
X91396511Y-102974901D01*
X91467130Y-102742102D01*
X91490975Y-102500000D01*
X91467130Y-102257898D01*
X91396511Y-102025099D01*
X91281833Y-101810551D01*
X91127502Y-101622498D01*
X90939449Y-101468167D01*
X90724901Y-101353489D01*
X90492102Y-101282870D01*
X90310665Y-101265000D01*
X89689335Y-101265000D01*
X89507898Y-101282870D01*
X89275099Y-101353489D01*
X89060551Y-101468167D01*
X88872498Y-101622498D01*
X88718167Y-101810551D01*
X88603489Y-102025099D01*
X88532870Y-102257898D01*
X88509025Y-102500000D01*
X85990975Y-102500000D01*
X85967130Y-102257898D01*
X85896511Y-102025099D01*
X85781833Y-101810551D01*
X85627502Y-101622498D01*
X85439449Y-101468167D01*
X85224901Y-101353489D01*
X84992102Y-101282870D01*
X84810665Y-101265000D01*
X84189335Y-101265000D01*
X84007898Y-101282870D01*
X83775099Y-101353489D01*
X83560551Y-101468167D01*
X83372498Y-101622498D01*
X83218167Y-101810551D01*
X83103489Y-102025099D01*
X83032870Y-102257898D01*
X83009025Y-102500000D01*
X81235000Y-102500000D01*
X81235000Y-102378363D01*
X81187540Y-102139764D01*
X81094443Y-101915008D01*
X80959287Y-101712733D01*
X80787267Y-101540713D01*
X80584992Y-101405557D01*
X80360236Y-101312460D01*
X80121637Y-101265000D01*
X79878363Y-101265000D01*
X79639764Y-101312460D01*
X79415008Y-101405557D01*
X79212733Y-101540713D01*
X79040713Y-101712733D01*
X79000000Y-101773664D01*
X78959287Y-101712733D01*
X78787267Y-101540713D01*
X78584992Y-101405557D01*
X78360236Y-101312460D01*
X78121637Y-101265000D01*
X77878363Y-101265000D01*
X77639764Y-101312460D01*
X77415008Y-101405557D01*
X77212733Y-101540713D01*
X77040713Y-101712733D01*
X76905557Y-101915008D01*
X76812460Y-102139764D01*
X76765000Y-102378363D01*
X76765000Y-102621637D01*
X76812460Y-102860236D01*
X76905557Y-103084992D01*
X77040713Y-103287267D01*
X77212733Y-103459287D01*
X77273664Y-103500000D01*
X77212733Y-103540713D01*
X77040713Y-103712733D01*
X76905557Y-103915008D01*
X76812460Y-104139764D01*
X76765000Y-104378363D01*
X76765000Y-104621637D01*
X76812460Y-104860236D01*
X76905557Y-105084992D01*
X77040713Y-105287267D01*
X77212733Y-105459287D01*
X77273664Y-105500000D01*
X77212733Y-105540713D01*
X77040713Y-105712733D01*
X76905557Y-105915008D01*
X76812460Y-106139764D01*
X76765000Y-106378363D01*
X76765000Y-106621637D01*
X76812460Y-106860236D01*
X76905557Y-107084992D01*
X77040713Y-107287267D01*
X77212733Y-107459287D01*
X77273664Y-107500000D01*
X77212733Y-107540713D01*
X77040713Y-107712733D01*
X76905557Y-107915008D01*
X76812460Y-108139764D01*
X76765000Y-108378363D01*
X76765000Y-108621637D01*
X76812460Y-108860236D01*
X76905557Y-109084992D01*
X77040713Y-109287267D01*
X77162105Y-109408659D01*
X77156613Y-109411595D01*
X77022038Y-109522038D01*
X76911595Y-109656613D01*
X76829528Y-109810149D01*
X76778992Y-109976745D01*
X76761928Y-110149999D01*
X75627000Y-110149999D01*
X75627000Y-110000000D01*
X75624560Y-109975224D01*
X75617333Y-109951399D01*
X75605597Y-109929443D01*
X75589803Y-109910197D01*
X75570557Y-109894403D01*
X75548601Y-109882667D01*
X75524776Y-109875440D01*
X75500000Y-109873000D01*
X67530015Y-109873000D01*
X67495226Y-109698102D01*
X67417205Y-109509744D01*
X67303937Y-109340226D01*
X67237425Y-109273714D01*
X67311835Y-109199304D01*
X67425103Y-109029786D01*
X67503124Y-108841428D01*
X67542898Y-108641469D01*
X67542898Y-108437591D01*
X67503124Y-108237632D01*
X67425103Y-108049274D01*
X67419972Y-108041595D01*
X68465000Y-108041595D01*
X68465000Y-108245473D01*
X68504774Y-108445432D01*
X68582795Y-108633790D01*
X68696063Y-108803308D01*
X68840226Y-108947471D01*
X69009744Y-109060739D01*
X69198102Y-109138760D01*
X69398061Y-109178534D01*
X69601939Y-109178534D01*
X69801898Y-109138760D01*
X69990256Y-109060739D01*
X70159774Y-108947471D01*
X70303937Y-108803308D01*
X70417205Y-108633790D01*
X70495226Y-108445432D01*
X70535000Y-108245473D01*
X70535000Y-108041595D01*
X70495226Y-107841636D01*
X70441770Y-107712581D01*
X73407744Y-107712581D01*
X73407744Y-107916459D01*
X73447518Y-108116418D01*
X73525539Y-108304776D01*
X73638807Y-108474294D01*
X73782970Y-108618457D01*
X73952488Y-108731725D01*
X74140846Y-108809746D01*
X74340805Y-108849520D01*
X74544683Y-108849520D01*
X74744642Y-108809746D01*
X74933000Y-108731725D01*
X75102518Y-108618457D01*
X75246681Y-108474294D01*
X75359949Y-108304776D01*
X75437970Y-108116418D01*
X75477744Y-107916459D01*
X75477744Y-107712581D01*
X75476613Y-107706897D01*
X75514326Y-107691276D01*
X75683844Y-107578008D01*
X75828007Y-107433845D01*
X75941275Y-107264327D01*
X76019296Y-107075969D01*
X76059070Y-106876010D01*
X76059070Y-106672132D01*
X76019296Y-106472173D01*
X75941275Y-106283815D01*
X75828007Y-106114297D01*
X75683844Y-105970134D01*
X75514326Y-105856866D01*
X75325968Y-105778845D01*
X75126009Y-105739071D01*
X74922131Y-105739071D01*
X74722172Y-105778845D01*
X74533814Y-105856866D01*
X74364296Y-105970134D01*
X74220133Y-106114297D01*
X74106865Y-106283815D01*
X74028844Y-106472173D01*
X73989070Y-106672132D01*
X73989070Y-106876010D01*
X73990201Y-106881694D01*
X73952488Y-106897315D01*
X73782970Y-107010583D01*
X73638807Y-107154746D01*
X73525539Y-107324264D01*
X73447518Y-107512622D01*
X73407744Y-107712581D01*
X70441770Y-107712581D01*
X70417205Y-107653278D01*
X70303937Y-107483760D01*
X70159774Y-107339597D01*
X69990256Y-107226329D01*
X69801898Y-107148308D01*
X69601939Y-107108534D01*
X69398061Y-107108534D01*
X69198102Y-107148308D01*
X69009744Y-107226329D01*
X68840226Y-107339597D01*
X68696063Y-107483760D01*
X68582795Y-107653278D01*
X68504774Y-107841636D01*
X68465000Y-108041595D01*
X67419972Y-108041595D01*
X67403598Y-108017090D01*
X67475968Y-107908780D01*
X67553989Y-107720422D01*
X67593763Y-107520463D01*
X67593763Y-107316585D01*
X67553989Y-107116626D01*
X67475968Y-106928268D01*
X67407454Y-106825730D01*
X67432677Y-106787981D01*
X67510698Y-106599623D01*
X67550472Y-106399664D01*
X67550472Y-106195786D01*
X67510698Y-105995827D01*
X67432677Y-105807469D01*
X67319409Y-105637951D01*
X67307111Y-105625653D01*
X67360123Y-105572640D01*
X67473391Y-105403122D01*
X67475487Y-105398061D01*
X68465000Y-105398061D01*
X68465000Y-105601939D01*
X68504774Y-105801898D01*
X68582795Y-105990256D01*
X68696063Y-106159774D01*
X68840226Y-106303937D01*
X69009744Y-106417205D01*
X69198102Y-106495226D01*
X69398061Y-106535000D01*
X69601939Y-106535000D01*
X69801898Y-106495226D01*
X69990256Y-106417205D01*
X70159774Y-106303937D01*
X70303937Y-106159774D01*
X70417205Y-105990256D01*
X70495226Y-105801898D01*
X70535000Y-105601939D01*
X70535000Y-105398061D01*
X70495226Y-105198102D01*
X70417205Y-105009744D01*
X70303937Y-104840226D01*
X70159774Y-104696063D01*
X69990256Y-104582795D01*
X69801898Y-104504774D01*
X69601939Y-104465000D01*
X69398061Y-104465000D01*
X69198102Y-104504774D01*
X69009744Y-104582795D01*
X68840226Y-104696063D01*
X68696063Y-104840226D01*
X68582795Y-105009744D01*
X68504774Y-105198102D01*
X68465000Y-105398061D01*
X67475487Y-105398061D01*
X67551412Y-105214764D01*
X67591186Y-105014805D01*
X67591186Y-104810927D01*
X67551412Y-104610968D01*
X67473391Y-104422610D01*
X67360123Y-104253092D01*
X67215960Y-104108929D01*
X67046442Y-103995661D01*
X66858084Y-103917640D01*
X66658125Y-103877866D01*
X66454247Y-103877866D01*
X66254288Y-103917640D01*
X66065930Y-103995661D01*
X65896412Y-104108929D01*
X65752249Y-104253092D01*
X65638981Y-104422610D01*
X65560960Y-104610968D01*
X65521186Y-104810927D01*
X65521186Y-105014805D01*
X65560960Y-105214764D01*
X65638981Y-105403122D01*
X65752249Y-105572640D01*
X65764548Y-105584939D01*
X65711535Y-105637951D01*
X65598267Y-105807469D01*
X65520246Y-105995827D01*
X65480472Y-106195786D01*
X65480472Y-106399664D01*
X65520246Y-106599623D01*
X65598267Y-106787981D01*
X65666781Y-106890519D01*
X65641558Y-106928268D01*
X65563537Y-107116626D01*
X65523763Y-107316585D01*
X65523763Y-107520463D01*
X65563537Y-107720422D01*
X65641558Y-107908780D01*
X65663063Y-107940964D01*
X65590693Y-108049274D01*
X65512672Y-108237632D01*
X65472898Y-108437591D01*
X65472898Y-108641469D01*
X65512672Y-108841428D01*
X65590693Y-109029786D01*
X65703961Y-109199304D01*
X65770473Y-109265816D01*
X65696063Y-109340226D01*
X65582795Y-109509744D01*
X65504774Y-109698102D01*
X65465000Y-109898061D01*
X65465000Y-110101939D01*
X65504774Y-110301898D01*
X65582795Y-110490256D01*
X65623304Y-110550882D01*
X65590987Y-110599248D01*
X65512966Y-110787606D01*
X65473192Y-110987565D01*
X65473192Y-111191443D01*
X65512966Y-111391402D01*
X65590987Y-111579760D01*
X65704255Y-111749278D01*
X65848418Y-111893441D01*
X66017936Y-112006709D01*
X66206294Y-112084730D01*
X66406253Y-112124504D01*
X66610131Y-112124504D01*
X66810090Y-112084730D01*
X66873000Y-112058672D01*
X66873000Y-113000000D01*
X66875440Y-113024776D01*
X66882667Y-113048601D01*
X66894403Y-113070557D01*
X66910197Y-113089803D01*
X66929443Y-113105597D01*
X66951399Y-113117333D01*
X66975224Y-113124560D01*
X67000000Y-113127000D01*
X68373000Y-113127000D01*
X68373000Y-124290000D01*
X67130971Y-124290000D01*
X67259774Y-124203937D01*
X67403937Y-124059774D01*
X67517205Y-123890256D01*
X67595226Y-123701898D01*
X67635000Y-123501939D01*
X67635000Y-123298061D01*
X67595226Y-123098102D01*
X67517205Y-122909744D01*
X67403937Y-122740226D01*
X67259774Y-122596063D01*
X67090256Y-122482795D01*
X66901898Y-122404774D01*
X66701939Y-122365000D01*
X66498061Y-122365000D01*
X66298102Y-122404774D01*
X66285000Y-122410201D01*
X66285000Y-122398061D01*
X66245226Y-122198102D01*
X66167205Y-122009744D01*
X66053937Y-121840226D01*
X65909774Y-121696063D01*
X65740256Y-121582795D01*
X65551898Y-121504774D01*
X65351939Y-121465000D01*
X65148061Y-121465000D01*
X64948102Y-121504774D01*
X64759744Y-121582795D01*
X64590226Y-121696063D01*
X64446063Y-121840226D01*
X64332795Y-122009744D01*
X64254774Y-122198102D01*
X64215000Y-122398061D01*
X64215000Y-122601939D01*
X64254774Y-122801898D01*
X64332795Y-122990256D01*
X64446063Y-123159774D01*
X64590226Y-123303937D01*
X64759744Y-123417205D01*
X64948102Y-123495226D01*
X65148061Y-123535000D01*
X65351939Y-123535000D01*
X65551898Y-123495226D01*
X65565000Y-123489799D01*
X65565000Y-123501939D01*
X65604774Y-123701898D01*
X65682795Y-123890256D01*
X65796063Y-124059774D01*
X65940226Y-124203937D01*
X66069029Y-124290000D01*
X62997593Y-124290000D01*
X63035000Y-124101939D01*
X63035000Y-123898061D01*
X62995226Y-123698102D01*
X62917205Y-123509744D01*
X62803937Y-123340226D01*
X62713711Y-123250000D01*
X62803937Y-123159774D01*
X62917205Y-122990256D01*
X62995226Y-122801898D01*
X63035000Y-122601939D01*
X63035000Y-122398061D01*
X62995226Y-122198102D01*
X62917205Y-122009744D01*
X62803937Y-121840226D01*
X62713711Y-121750000D01*
X62803937Y-121659774D01*
X62917205Y-121490256D01*
X62995226Y-121301898D01*
X63035000Y-121101939D01*
X63035000Y-120898061D01*
X62995226Y-120698102D01*
X62917205Y-120509744D01*
X62803937Y-120340226D01*
X62659774Y-120196063D01*
X62490256Y-120082795D01*
X62301898Y-120004774D01*
X62101939Y-119965000D01*
X61898061Y-119965000D01*
X61698102Y-120004774D01*
X61509744Y-120082795D01*
X61340226Y-120196063D01*
X61250000Y-120286289D01*
X61213711Y-120250000D01*
X61303937Y-120159774D01*
X61417205Y-119990256D01*
X61495226Y-119801898D01*
X61535000Y-119601939D01*
X61535000Y-119398061D01*
X61495226Y-119198102D01*
X61417205Y-119009744D01*
X61303937Y-118840226D01*
X61159774Y-118696063D01*
X60990256Y-118582795D01*
X60801898Y-118504774D01*
X60601939Y-118465000D01*
X60398061Y-118465000D01*
X60198102Y-118504774D01*
X60009744Y-118582795D01*
X59840226Y-118696063D01*
X59750000Y-118786289D01*
X59713711Y-118750000D01*
X59803937Y-118659774D01*
X59917205Y-118490256D01*
X59995226Y-118301898D01*
X60035000Y-118101939D01*
X60035000Y-117898061D01*
X59995226Y-117698102D01*
X59917205Y-117509744D01*
X59803937Y-117340226D01*
X59659774Y-117196063D01*
X59490256Y-117082795D01*
X59301898Y-117004774D01*
X59101939Y-116965000D01*
X58898061Y-116965000D01*
X58698102Y-117004774D01*
X58509744Y-117082795D01*
X58340226Y-117196063D01*
X58250000Y-117286289D01*
X58213711Y-117250000D01*
X58303937Y-117159774D01*
X58417205Y-116990256D01*
X58495226Y-116801898D01*
X58535000Y-116601939D01*
X58535000Y-116398061D01*
X58495226Y-116198102D01*
X58417205Y-116009744D01*
X58303937Y-115840226D01*
X58159774Y-115696063D01*
X57990256Y-115582795D01*
X57801898Y-115504774D01*
X57601939Y-115465000D01*
X57398061Y-115465000D01*
X57198102Y-115504774D01*
X57009744Y-115582795D01*
X56840226Y-115696063D01*
X56696063Y-115840226D01*
X56582795Y-116009744D01*
X56504774Y-116198102D01*
X56465000Y-116398061D01*
X56465000Y-116601939D01*
X56504774Y-116801898D01*
X56582795Y-116990256D01*
X56696063Y-117159774D01*
X56786289Y-117250000D01*
X56696063Y-117340226D01*
X56582795Y-117509744D01*
X56504774Y-117698102D01*
X56465000Y-117898061D01*
X56465000Y-118101939D01*
X56504774Y-118301898D01*
X56582795Y-118490256D01*
X56696063Y-118659774D01*
X56786289Y-118750000D01*
X56696063Y-118840226D01*
X56582795Y-119009744D01*
X56504774Y-119198102D01*
X56465000Y-119398061D01*
X56465000Y-119601939D01*
X56504774Y-119801898D01*
X56582795Y-119990256D01*
X56696063Y-120159774D01*
X56840226Y-120303937D01*
X57009744Y-120417205D01*
X57198102Y-120495226D01*
X57398061Y-120535000D01*
X57601939Y-120535000D01*
X57801898Y-120495226D01*
X57990256Y-120417205D01*
X58159774Y-120303937D01*
X58250000Y-120213711D01*
X58286289Y-120250000D01*
X58196063Y-120340226D01*
X58082795Y-120509744D01*
X58004774Y-120698102D01*
X57965000Y-120898061D01*
X57965000Y-121101939D01*
X58004774Y-121301898D01*
X58082795Y-121490256D01*
X58196063Y-121659774D01*
X58286289Y-121750000D01*
X58196063Y-121840226D01*
X58082795Y-122009744D01*
X58004774Y-122198102D01*
X57965000Y-122398061D01*
X57965000Y-122601939D01*
X58004774Y-122801898D01*
X58082795Y-122990256D01*
X58196063Y-123159774D01*
X58286289Y-123250000D01*
X58250000Y-123286289D01*
X58159774Y-123196063D01*
X57990256Y-123082795D01*
X57801898Y-123004774D01*
X57601939Y-122965000D01*
X57398061Y-122965000D01*
X57198102Y-123004774D01*
X57009744Y-123082795D01*
X56840226Y-123196063D01*
X56696063Y-123340226D01*
X56582795Y-123509744D01*
X56504774Y-123698102D01*
X56465000Y-123898061D01*
X56465000Y-124101939D01*
X56502407Y-124290000D01*
X51534729Y-124290000D01*
X51347216Y-124271614D01*
X51200252Y-124227243D01*
X51064703Y-124155171D01*
X50945742Y-124058148D01*
X50847882Y-123939856D01*
X50774868Y-123804819D01*
X50729471Y-123658167D01*
X50710000Y-123472908D01*
X50710000Y-114627000D01*
X53500000Y-114627000D01*
X53524776Y-114624560D01*
X53548601Y-114617333D01*
X53570557Y-114605597D01*
X53589803Y-114589803D01*
X53605597Y-114570557D01*
X53617333Y-114548601D01*
X53624560Y-114524776D01*
X53627000Y-114500000D01*
X53627000Y-104556414D01*
X53696063Y-104659774D01*
X53840226Y-104803937D01*
X54009744Y-104917205D01*
X54198102Y-104995226D01*
X54398061Y-105035000D01*
X54465000Y-105035000D01*
X54465000Y-105101939D01*
X54504774Y-105301898D01*
X54582795Y-105490256D01*
X54696063Y-105659774D01*
X54786289Y-105750000D01*
X54696063Y-105840226D01*
X54582795Y-106009744D01*
X54504774Y-106198102D01*
X54465000Y-106398061D01*
X54465000Y-106601939D01*
X54504774Y-106801898D01*
X54582795Y-106990256D01*
X54696063Y-107159774D01*
X54786289Y-107250000D01*
X54696063Y-107340226D01*
X54582795Y-107509744D01*
X54504774Y-107698102D01*
X54465000Y-107898061D01*
X54465000Y-108101939D01*
X54504774Y-108301898D01*
X54582795Y-108490256D01*
X54696063Y-108659774D01*
X54786289Y-108750000D01*
X54696063Y-108840226D01*
X54582795Y-109009744D01*
X54504774Y-109198102D01*
X54465000Y-109398061D01*
X54465000Y-109601939D01*
X54504774Y-109801898D01*
X54582795Y-109990256D01*
X54696063Y-110159774D01*
X54786289Y-110250000D01*
X54696063Y-110340226D01*
X54582795Y-110509744D01*
X54504774Y-110698102D01*
X54465000Y-110898061D01*
X54465000Y-111101939D01*
X54504774Y-111301898D01*
X54582795Y-111490256D01*
X54696063Y-111659774D01*
X54840226Y-111803937D01*
X55009744Y-111917205D01*
X55198102Y-111995226D01*
X55398061Y-112035000D01*
X55601939Y-112035000D01*
X55801898Y-111995226D01*
X55990256Y-111917205D01*
X56159774Y-111803937D01*
X56250000Y-111713711D01*
X56340226Y-111803937D01*
X56509744Y-111917205D01*
X56698102Y-111995226D01*
X56898061Y-112035000D01*
X57101939Y-112035000D01*
X57301898Y-111995226D01*
X57490256Y-111917205D01*
X57659774Y-111803937D01*
X57750000Y-111713711D01*
X57840226Y-111803937D01*
X58009744Y-111917205D01*
X58198102Y-111995226D01*
X58398061Y-112035000D01*
X58601939Y-112035000D01*
X58801898Y-111995226D01*
X58990256Y-111917205D01*
X59159774Y-111803937D01*
X59250000Y-111713711D01*
X59340226Y-111803937D01*
X59509744Y-111917205D01*
X59698102Y-111995226D01*
X59898061Y-112035000D01*
X60101939Y-112035000D01*
X60301898Y-111995226D01*
X60490256Y-111917205D01*
X60659774Y-111803937D01*
X60750000Y-111713711D01*
X60840226Y-111803937D01*
X61009744Y-111917205D01*
X61198102Y-111995226D01*
X61398061Y-112035000D01*
X61601939Y-112035000D01*
X61801898Y-111995226D01*
X61990256Y-111917205D01*
X62159774Y-111803937D01*
X62250000Y-111713711D01*
X62340226Y-111803937D01*
X62509744Y-111917205D01*
X62698102Y-111995226D01*
X62898061Y-112035000D01*
X63101939Y-112035000D01*
X63301898Y-111995226D01*
X63490256Y-111917205D01*
X63659774Y-111803937D01*
X63803937Y-111659774D01*
X63917205Y-111490256D01*
X63995226Y-111301898D01*
X64035000Y-111101939D01*
X64035000Y-110898061D01*
X63995226Y-110698102D01*
X63917205Y-110509744D01*
X63803937Y-110340226D01*
X63713711Y-110250000D01*
X63803937Y-110159774D01*
X63917205Y-109990256D01*
X63995226Y-109801898D01*
X64035000Y-109601939D01*
X64035000Y-109398061D01*
X63995226Y-109198102D01*
X63917205Y-109009744D01*
X63803937Y-108840226D01*
X63713711Y-108750000D01*
X63803937Y-108659774D01*
X63917205Y-108490256D01*
X63995226Y-108301898D01*
X64035000Y-108101939D01*
X64035000Y-107898061D01*
X63995226Y-107698102D01*
X63917205Y-107509744D01*
X63803937Y-107340226D01*
X63713711Y-107250000D01*
X63803937Y-107159774D01*
X63917205Y-106990256D01*
X63995226Y-106801898D01*
X64035000Y-106601939D01*
X64035000Y-106398061D01*
X63995226Y-106198102D01*
X63917205Y-106009744D01*
X63803937Y-105840226D01*
X63713711Y-105750000D01*
X63803937Y-105659774D01*
X63917205Y-105490256D01*
X63977295Y-105345186D01*
X64098102Y-105395226D01*
X64298061Y-105435000D01*
X64501939Y-105435000D01*
X64701898Y-105395226D01*
X64890256Y-105317205D01*
X65059774Y-105203937D01*
X65203937Y-105059774D01*
X65317205Y-104890256D01*
X65395226Y-104701898D01*
X65435000Y-104501939D01*
X65435000Y-104298061D01*
X65395226Y-104098102D01*
X65317205Y-103909744D01*
X65203937Y-103740226D01*
X65136762Y-103673051D01*
X73375145Y-103673051D01*
X73375145Y-103876929D01*
X73414919Y-104076888D01*
X73492940Y-104265246D01*
X73606208Y-104434764D01*
X73750371Y-104578927D01*
X73919889Y-104692195D01*
X74108247Y-104770216D01*
X74308206Y-104809990D01*
X74512084Y-104809990D01*
X74712043Y-104770216D01*
X74900401Y-104692195D01*
X75069919Y-104578927D01*
X75214082Y-104434764D01*
X75327350Y-104265246D01*
X75405371Y-104076888D01*
X75445145Y-103876929D01*
X75445145Y-103673051D01*
X75405371Y-103473092D01*
X75327350Y-103284734D01*
X75214082Y-103115216D01*
X75069919Y-102971053D01*
X74900401Y-102857785D01*
X74712043Y-102779764D01*
X74512084Y-102739990D01*
X74308206Y-102739990D01*
X74108247Y-102779764D01*
X73919889Y-102857785D01*
X73750371Y-102971053D01*
X73606208Y-103115216D01*
X73492940Y-103284734D01*
X73414919Y-103473092D01*
X73375145Y-103673051D01*
X65136762Y-103673051D01*
X65081794Y-103618083D01*
X65167205Y-103490256D01*
X65245226Y-103301898D01*
X65285000Y-103101939D01*
X65285000Y-102898061D01*
X65245226Y-102698102D01*
X65167205Y-102509744D01*
X65053937Y-102340226D01*
X64909774Y-102196063D01*
X64740256Y-102082795D01*
X64551898Y-102004774D01*
X64351939Y-101965000D01*
X64148061Y-101965000D01*
X63948102Y-102004774D01*
X63759744Y-102082795D01*
X63590226Y-102196063D01*
X63475813Y-102310476D01*
X63450990Y-102185679D01*
X63372969Y-101997321D01*
X63259701Y-101827803D01*
X63204991Y-101773093D01*
X71038737Y-101773093D01*
X71038737Y-101976971D01*
X71078511Y-102176930D01*
X71156532Y-102365288D01*
X71269800Y-102534806D01*
X71413963Y-102678969D01*
X71583481Y-102792237D01*
X71771839Y-102870258D01*
X71971798Y-102910032D01*
X72175676Y-102910032D01*
X72375635Y-102870258D01*
X72563993Y-102792237D01*
X72733511Y-102678969D01*
X72877674Y-102534806D01*
X72990942Y-102365288D01*
X73068963Y-102176930D01*
X73108737Y-101976971D01*
X73108737Y-101773093D01*
X73068963Y-101573134D01*
X72990942Y-101384776D01*
X72877674Y-101215258D01*
X72733511Y-101071095D01*
X72563993Y-100957827D01*
X72375635Y-100879806D01*
X72175676Y-100840032D01*
X71971798Y-100840032D01*
X71771839Y-100879806D01*
X71583481Y-100957827D01*
X71413963Y-101071095D01*
X71269800Y-101215258D01*
X71156532Y-101384776D01*
X71078511Y-101573134D01*
X71038737Y-101773093D01*
X63204991Y-101773093D01*
X63115538Y-101683640D01*
X62946020Y-101570372D01*
X62757662Y-101492351D01*
X62557703Y-101452577D01*
X62353825Y-101452577D01*
X62153866Y-101492351D01*
X61965508Y-101570372D01*
X61830764Y-101660405D01*
X61696020Y-101570372D01*
X61507662Y-101492351D01*
X61307703Y-101452577D01*
X61103825Y-101452577D01*
X60903866Y-101492351D01*
X60715508Y-101570372D01*
X60552266Y-101679446D01*
X60395830Y-101574919D01*
X60207472Y-101496898D01*
X60007513Y-101457124D01*
X59803635Y-101457124D01*
X59603676Y-101496898D01*
X59415318Y-101574919D01*
X59280574Y-101664952D01*
X59145830Y-101574919D01*
X58957472Y-101496898D01*
X58757513Y-101457124D01*
X58553635Y-101457124D01*
X58353676Y-101496898D01*
X58165318Y-101574919D01*
X58014390Y-101675765D01*
X58013593Y-101674968D01*
X57844075Y-101561700D01*
X57655717Y-101483679D01*
X57455758Y-101443905D01*
X57251880Y-101443905D01*
X57051921Y-101483679D01*
X56863563Y-101561700D01*
X56694045Y-101674968D01*
X56549882Y-101819131D01*
X56436614Y-101988649D01*
X56358593Y-102177007D01*
X56318819Y-102376966D01*
X56318819Y-102580844D01*
X56358593Y-102780803D01*
X56436614Y-102969161D01*
X56549882Y-103138679D01*
X56694045Y-103282842D01*
X56863563Y-103396110D01*
X57051921Y-103474131D01*
X57251880Y-103513905D01*
X57455758Y-103513905D01*
X57655717Y-103474131D01*
X57844075Y-103396110D01*
X57995003Y-103295264D01*
X57995800Y-103296061D01*
X58165318Y-103409329D01*
X58353676Y-103487350D01*
X58553635Y-103527124D01*
X58757513Y-103527124D01*
X58957472Y-103487350D01*
X59145830Y-103409329D01*
X59280574Y-103319296D01*
X59415318Y-103409329D01*
X59603676Y-103487350D01*
X59803635Y-103527124D01*
X60007513Y-103527124D01*
X60207472Y-103487350D01*
X60395830Y-103409329D01*
X60559072Y-103300255D01*
X60715508Y-103404782D01*
X60903866Y-103482803D01*
X61103825Y-103522577D01*
X61307703Y-103522577D01*
X61507662Y-103482803D01*
X61696020Y-103404782D01*
X61830764Y-103314749D01*
X61965508Y-103404782D01*
X62153866Y-103482803D01*
X62353825Y-103522577D01*
X62557703Y-103522577D01*
X62757662Y-103482803D01*
X62946020Y-103404782D01*
X63115538Y-103291514D01*
X63229951Y-103177101D01*
X63254774Y-103301898D01*
X63332795Y-103490256D01*
X63446063Y-103659774D01*
X63568206Y-103781917D01*
X63482795Y-103909744D01*
X63422705Y-104054814D01*
X63301898Y-104004774D01*
X63101939Y-103965000D01*
X62898061Y-103965000D01*
X62698102Y-104004774D01*
X62509744Y-104082795D01*
X62340226Y-104196063D01*
X62250000Y-104286289D01*
X62159774Y-104196063D01*
X61990256Y-104082795D01*
X61801898Y-104004774D01*
X61601939Y-103965000D01*
X61398061Y-103965000D01*
X61198102Y-104004774D01*
X61009744Y-104082795D01*
X60840226Y-104196063D01*
X60750000Y-104286289D01*
X60659774Y-104196063D01*
X60490256Y-104082795D01*
X60301898Y-104004774D01*
X60101939Y-103965000D01*
X59898061Y-103965000D01*
X59698102Y-104004774D01*
X59509744Y-104082795D01*
X59340226Y-104196063D01*
X59250000Y-104286289D01*
X59159774Y-104196063D01*
X58990256Y-104082795D01*
X58801898Y-104004774D01*
X58601939Y-103965000D01*
X58398061Y-103965000D01*
X58198102Y-104004774D01*
X58009744Y-104082795D01*
X57840226Y-104196063D01*
X57750000Y-104286289D01*
X57659774Y-104196063D01*
X57490256Y-104082795D01*
X57301898Y-104004774D01*
X57101939Y-103965000D01*
X56898061Y-103965000D01*
X56698102Y-104004774D01*
X56509744Y-104082795D01*
X56340226Y-104196063D01*
X56250000Y-104286289D01*
X56159774Y-104196063D01*
X55990256Y-104082795D01*
X55801898Y-104004774D01*
X55601939Y-103965000D01*
X55535000Y-103965000D01*
X55535000Y-103898061D01*
X55495226Y-103698102D01*
X55417205Y-103509744D01*
X55303937Y-103340226D01*
X55159774Y-103196063D01*
X54990256Y-103082795D01*
X54801898Y-103004774D01*
X54601939Y-102965000D01*
X54398061Y-102965000D01*
X54198102Y-103004774D01*
X54009744Y-103082795D01*
X53840226Y-103196063D01*
X53696063Y-103340226D01*
X53627000Y-103443586D01*
X53627000Y-101000000D01*
X53624560Y-100975224D01*
X53617333Y-100951399D01*
X53605597Y-100929443D01*
X53589803Y-100910197D01*
X53570557Y-100894403D01*
X53548601Y-100882667D01*
X53524776Y-100875440D01*
X53500000Y-100873000D01*
X50710000Y-100873000D01*
X50710000Y-100167412D01*
X50873898Y-100217130D01*
X51055335Y-100235000D01*
X51876665Y-100235000D01*
X52058102Y-100217130D01*
X52290901Y-100146511D01*
X52505449Y-100031833D01*
X52693502Y-99877502D01*
X52847833Y-99689449D01*
X52962511Y-99474901D01*
X53033130Y-99242102D01*
X53056975Y-99000000D01*
X53033130Y-98757898D01*
X53030117Y-98747965D01*
X53109619Y-98866949D01*
X53299051Y-99056381D01*
X53521799Y-99205216D01*
X53769303Y-99307736D01*
X54032052Y-99360000D01*
X54299948Y-99360000D01*
X54562697Y-99307736D01*
X54810201Y-99205216D01*
X55032949Y-99056381D01*
X55191269Y-98898061D01*
X55465000Y-98898061D01*
X55465000Y-99101939D01*
X55504774Y-99301898D01*
X55582795Y-99490256D01*
X55696063Y-99659774D01*
X55840226Y-99803937D01*
X56009744Y-99917205D01*
X56198102Y-99995226D01*
X56398061Y-100035000D01*
X56601939Y-100035000D01*
X56801898Y-99995226D01*
X56990256Y-99917205D01*
X57149995Y-99810471D01*
X57309733Y-99917205D01*
X57498091Y-99995226D01*
X57698050Y-100035000D01*
X57901928Y-100035000D01*
X58101887Y-99995226D01*
X58290245Y-99917205D01*
X58459763Y-99803937D01*
X58524995Y-99738706D01*
X58590226Y-99803937D01*
X58759744Y-99917205D01*
X58948102Y-99995226D01*
X59148061Y-100035000D01*
X59351939Y-100035000D01*
X59551898Y-99995226D01*
X59740256Y-99917205D01*
X59898908Y-99811197D01*
X59958439Y-99850974D01*
X60146797Y-99928995D01*
X60346756Y-99968769D01*
X60550634Y-99968769D01*
X60750593Y-99928995D01*
X60938951Y-99850974D01*
X61108469Y-99737706D01*
X61252632Y-99593543D01*
X61365900Y-99424025D01*
X61443921Y-99235667D01*
X61483695Y-99035708D01*
X61483695Y-98831830D01*
X61443921Y-98631871D01*
X61365900Y-98443513D01*
X61252632Y-98273995D01*
X61108469Y-98129832D01*
X60938951Y-98016564D01*
X60750593Y-97938543D01*
X60550634Y-97898769D01*
X60346756Y-97898769D01*
X60146797Y-97938543D01*
X59958439Y-98016564D01*
X59799787Y-98122572D01*
X59740256Y-98082795D01*
X59551898Y-98004774D01*
X59351939Y-97965000D01*
X59148061Y-97965000D01*
X58948102Y-98004774D01*
X58759744Y-98082795D01*
X58590226Y-98196063D01*
X58524995Y-98261295D01*
X58459763Y-98196063D01*
X58290245Y-98082795D01*
X58101887Y-98004774D01*
X57901928Y-97965000D01*
X57698050Y-97965000D01*
X57498091Y-98004774D01*
X57309733Y-98082795D01*
X57149995Y-98189529D01*
X56990256Y-98082795D01*
X56801898Y-98004774D01*
X56601939Y-97965000D01*
X56398061Y-97965000D01*
X56198102Y-98004774D01*
X56009744Y-98082795D01*
X55840226Y-98196063D01*
X55696063Y-98340226D01*
X55582795Y-98509744D01*
X55504774Y-98698102D01*
X55465000Y-98898061D01*
X55191269Y-98898061D01*
X55222381Y-98866949D01*
X55371216Y-98644201D01*
X55473736Y-98396697D01*
X55526000Y-98133948D01*
X55526000Y-98035000D01*
X55601939Y-98035000D01*
X55801898Y-97995226D01*
X55990256Y-97917205D01*
X56018907Y-97898061D01*
X87465000Y-97898061D01*
X87465000Y-98101939D01*
X87504774Y-98301898D01*
X87582795Y-98490256D01*
X87696063Y-98659774D01*
X87840226Y-98803937D01*
X88009744Y-98917205D01*
X88198102Y-98995226D01*
X88398061Y-99035000D01*
X88601939Y-99035000D01*
X88801898Y-98995226D01*
X88990256Y-98917205D01*
X89159774Y-98803937D01*
X89303937Y-98659774D01*
X89417205Y-98490256D01*
X89495226Y-98301898D01*
X89535000Y-98101939D01*
X89535000Y-97898061D01*
X89495226Y-97698102D01*
X89417205Y-97509744D01*
X89303937Y-97340226D01*
X89159774Y-97196063D01*
X88990256Y-97082795D01*
X88801898Y-97004774D01*
X88601939Y-96965000D01*
X88398061Y-96965000D01*
X88198102Y-97004774D01*
X88009744Y-97082795D01*
X87840226Y-97196063D01*
X87696063Y-97340226D01*
X87582795Y-97509744D01*
X87504774Y-97698102D01*
X87465000Y-97898061D01*
X56018907Y-97898061D01*
X56159774Y-97803937D01*
X56303937Y-97659774D01*
X56417205Y-97490256D01*
X56495226Y-97301898D01*
X56535000Y-97101939D01*
X56535000Y-96898061D01*
X56495226Y-96698102D01*
X56417205Y-96509744D01*
X56303937Y-96340226D01*
X56159774Y-96196063D01*
X55990256Y-96082795D01*
X55801898Y-96004774D01*
X55601939Y-95965000D01*
X55398061Y-95965000D01*
X55198102Y-96004774D01*
X55009744Y-96082795D01*
X54840226Y-96196063D01*
X54696063Y-96340226D01*
X54582795Y-96509744D01*
X54511417Y-96682064D01*
X54299948Y-96640000D01*
X54032052Y-96640000D01*
X53769303Y-96692264D01*
X53521799Y-96794784D01*
X53299051Y-96943619D01*
X53109619Y-97133051D01*
X52960784Y-97355799D01*
X52858264Y-97603303D01*
X52806000Y-97866052D01*
X52806000Y-98133948D01*
X52838984Y-98299768D01*
X52693502Y-98122498D01*
X52505449Y-97968167D01*
X52290901Y-97853489D01*
X52058102Y-97782870D01*
X51876665Y-97765000D01*
X51055335Y-97765000D01*
X50873898Y-97782870D01*
X50710000Y-97832588D01*
X50710000Y-93167412D01*
X50873898Y-93217130D01*
X51055335Y-93235000D01*
X51876665Y-93235000D01*
X52058102Y-93217130D01*
X52290901Y-93146511D01*
X52505449Y-93031833D01*
X52693502Y-92877502D01*
X52838984Y-92700232D01*
X52806000Y-92866052D01*
X52806000Y-93133948D01*
X52858264Y-93396697D01*
X52960784Y-93644201D01*
X53109619Y-93866949D01*
X53299051Y-94056381D01*
X53521799Y-94205216D01*
X53769303Y-94307736D01*
X54032052Y-94360000D01*
X54299948Y-94360000D01*
X54562697Y-94307736D01*
X54810201Y-94205216D01*
X54911339Y-94137638D01*
X54994176Y-94337624D01*
X55118388Y-94523520D01*
X55276480Y-94681612D01*
X55462376Y-94805824D01*
X55668933Y-94891383D01*
X55888212Y-94935000D01*
X56111788Y-94935000D01*
X56331067Y-94891383D01*
X56537624Y-94805824D01*
X56723520Y-94681612D01*
X56881612Y-94523520D01*
X56970023Y-94391204D01*
X57038388Y-94493520D01*
X57196480Y-94651612D01*
X57382376Y-94775824D01*
X57588933Y-94861383D01*
X57808212Y-94905000D01*
X58031788Y-94905000D01*
X58251067Y-94861383D01*
X58457624Y-94775824D01*
X58555000Y-94710759D01*
X58652376Y-94775824D01*
X58858933Y-94861383D01*
X59078212Y-94905000D01*
X59301788Y-94905000D01*
X59521067Y-94861383D01*
X59727624Y-94775824D01*
X59825000Y-94710759D01*
X59922376Y-94775824D01*
X60128933Y-94861383D01*
X60348212Y-94905000D01*
X60571788Y-94905000D01*
X60791067Y-94861383D01*
X60997624Y-94775824D01*
X61095000Y-94710759D01*
X61192376Y-94775824D01*
X61398933Y-94861383D01*
X61618212Y-94905000D01*
X61841788Y-94905000D01*
X62061067Y-94861383D01*
X62267624Y-94775824D01*
X62365000Y-94710759D01*
X62462376Y-94775824D01*
X62487264Y-94786133D01*
X62465000Y-94898061D01*
X62465000Y-95101939D01*
X62504774Y-95301898D01*
X62582795Y-95490256D01*
X62696063Y-95659774D01*
X62840226Y-95803937D01*
X63009744Y-95917205D01*
X63198102Y-95995226D01*
X63398061Y-96035000D01*
X63601939Y-96035000D01*
X63732345Y-96009061D01*
X63744176Y-96037624D01*
X63868388Y-96223520D01*
X64026480Y-96381612D01*
X64212376Y-96505824D01*
X64418933Y-96591383D01*
X64638212Y-96635000D01*
X64861788Y-96635000D01*
X65081067Y-96591383D01*
X65287624Y-96505824D01*
X65473520Y-96381612D01*
X65631612Y-96223520D01*
X65755824Y-96037624D01*
X65813633Y-95898061D01*
X71465000Y-95898061D01*
X71465000Y-96101939D01*
X71504774Y-96301898D01*
X71582795Y-96490256D01*
X71696063Y-96659774D01*
X71840226Y-96803937D01*
X72009744Y-96917205D01*
X72198102Y-96995226D01*
X72398061Y-97035000D01*
X72601939Y-97035000D01*
X72801898Y-96995226D01*
X72990256Y-96917205D01*
X73159774Y-96803937D01*
X73250000Y-96713711D01*
X73340226Y-96803937D01*
X73509744Y-96917205D01*
X73698102Y-96995226D01*
X73898061Y-97035000D01*
X74101939Y-97035000D01*
X74301898Y-96995226D01*
X74490256Y-96917205D01*
X74659774Y-96803937D01*
X74750000Y-96713711D01*
X74840226Y-96803937D01*
X75009744Y-96917205D01*
X75198102Y-96995226D01*
X75398061Y-97035000D01*
X75601939Y-97035000D01*
X75801898Y-96995226D01*
X75910511Y-96950236D01*
X75921582Y-96976963D01*
X76100513Y-97244752D01*
X76328248Y-97472487D01*
X76596037Y-97651418D01*
X76893588Y-97774668D01*
X77209467Y-97837500D01*
X77531533Y-97837500D01*
X77847412Y-97774668D01*
X78144963Y-97651418D01*
X78412752Y-97472487D01*
X78599199Y-97286040D01*
X78814457Y-97429871D01*
X79066511Y-97534275D01*
X79334089Y-97587500D01*
X79606911Y-97587500D01*
X79874489Y-97534275D01*
X80126543Y-97429871D01*
X80353386Y-97278299D01*
X80470500Y-97161185D01*
X80587614Y-97278299D01*
X80814457Y-97429871D01*
X81066511Y-97534275D01*
X81334089Y-97587500D01*
X81606911Y-97587500D01*
X81874489Y-97534275D01*
X82126543Y-97429871D01*
X82353386Y-97278299D01*
X82470500Y-97161185D01*
X82587614Y-97278299D01*
X82814457Y-97429871D01*
X83066511Y-97534275D01*
X83334089Y-97587500D01*
X83606911Y-97587500D01*
X83874489Y-97534275D01*
X84126543Y-97429871D01*
X84341801Y-97286040D01*
X84528248Y-97472487D01*
X84796037Y-97651418D01*
X85093588Y-97774668D01*
X85409467Y-97837500D01*
X85731533Y-97837500D01*
X86047412Y-97774668D01*
X86344963Y-97651418D01*
X86612752Y-97472487D01*
X86840487Y-97244752D01*
X87019418Y-96976963D01*
X87142668Y-96679412D01*
X87205500Y-96363533D01*
X87205500Y-96041467D01*
X87142668Y-95725588D01*
X87019418Y-95428037D01*
X86840487Y-95160248D01*
X86612752Y-94932513D01*
X86344963Y-94753582D01*
X86047412Y-94630332D01*
X85731533Y-94567500D01*
X85409467Y-94567500D01*
X85093588Y-94630332D01*
X84796037Y-94753582D01*
X84528248Y-94932513D01*
X84341801Y-95118960D01*
X84126543Y-94975129D01*
X83874489Y-94870725D01*
X83606911Y-94817500D01*
X83334089Y-94817500D01*
X83066511Y-94870725D01*
X82814457Y-94975129D01*
X82587614Y-95126701D01*
X82470500Y-95243815D01*
X82353386Y-95126701D01*
X82126543Y-94975129D01*
X81874489Y-94870725D01*
X81606911Y-94817500D01*
X81334089Y-94817500D01*
X81066511Y-94870725D01*
X80814457Y-94975129D01*
X80587614Y-95126701D01*
X80470500Y-95243815D01*
X80353386Y-95126701D01*
X80126543Y-94975129D01*
X79874489Y-94870725D01*
X79606911Y-94817500D01*
X79334089Y-94817500D01*
X79066511Y-94870725D01*
X78814457Y-94975129D01*
X78599199Y-95118960D01*
X78412752Y-94932513D01*
X78144963Y-94753582D01*
X77847412Y-94630332D01*
X77531533Y-94567500D01*
X77209467Y-94567500D01*
X76893588Y-94630332D01*
X76596037Y-94753582D01*
X76328248Y-94932513D01*
X76102780Y-95157981D01*
X75990256Y-95082795D01*
X75801898Y-95004774D01*
X75601939Y-94965000D01*
X75398061Y-94965000D01*
X75198102Y-95004774D01*
X75009744Y-95082795D01*
X74840226Y-95196063D01*
X74750000Y-95286289D01*
X74659774Y-95196063D01*
X74490256Y-95082795D01*
X74301898Y-95004774D01*
X74101939Y-94965000D01*
X73898061Y-94965000D01*
X73698102Y-95004774D01*
X73509744Y-95082795D01*
X73340226Y-95196063D01*
X73250000Y-95286289D01*
X73159774Y-95196063D01*
X72990256Y-95082795D01*
X72801898Y-95004774D01*
X72601939Y-94965000D01*
X72398061Y-94965000D01*
X72198102Y-95004774D01*
X72009744Y-95082795D01*
X71840226Y-95196063D01*
X71696063Y-95340226D01*
X71582795Y-95509744D01*
X71504774Y-95698102D01*
X71465000Y-95898061D01*
X65813633Y-95898061D01*
X65841383Y-95831067D01*
X65885000Y-95611788D01*
X65885000Y-95388212D01*
X65841383Y-95168933D01*
X65755824Y-94962376D01*
X65631612Y-94776480D01*
X65473520Y-94618388D01*
X65287624Y-94494176D01*
X65081067Y-94408617D01*
X64861788Y-94365000D01*
X64638212Y-94365000D01*
X64418933Y-94408617D01*
X64364656Y-94431099D01*
X64303937Y-94340226D01*
X64159774Y-94196063D01*
X64075389Y-94139679D01*
X64091383Y-94101067D01*
X64114365Y-93985524D01*
X69983000Y-93985524D01*
X69983000Y-94184476D01*
X70021814Y-94379606D01*
X70097950Y-94563414D01*
X70208482Y-94728837D01*
X70349163Y-94869518D01*
X70514586Y-94980050D01*
X70698394Y-95056186D01*
X70893524Y-95095000D01*
X71092476Y-95095000D01*
X71287606Y-95056186D01*
X71471414Y-94980050D01*
X71636837Y-94869518D01*
X71777518Y-94728837D01*
X71888050Y-94563414D01*
X71956541Y-94398061D01*
X89965000Y-94398061D01*
X89965000Y-94601939D01*
X90004774Y-94801898D01*
X90082795Y-94990256D01*
X90196063Y-95159774D01*
X90286289Y-95250000D01*
X90196063Y-95340226D01*
X90082795Y-95509744D01*
X90004774Y-95698102D01*
X89965000Y-95898061D01*
X89965000Y-96101939D01*
X90004774Y-96301898D01*
X90082795Y-96490256D01*
X90196063Y-96659774D01*
X90286289Y-96750000D01*
X90196063Y-96840226D01*
X90082795Y-97009744D01*
X90004774Y-97198102D01*
X89965000Y-97398061D01*
X89965000Y-97601939D01*
X90004774Y-97801898D01*
X90082795Y-97990256D01*
X90196063Y-98159774D01*
X90340226Y-98303937D01*
X90509744Y-98417205D01*
X90698102Y-98495226D01*
X90898061Y-98535000D01*
X91101939Y-98535000D01*
X91301898Y-98495226D01*
X91490256Y-98417205D01*
X91659774Y-98303937D01*
X91750000Y-98213711D01*
X91840226Y-98303937D01*
X92009744Y-98417205D01*
X92198102Y-98495226D01*
X92398061Y-98535000D01*
X92601939Y-98535000D01*
X92801898Y-98495226D01*
X92990256Y-98417205D01*
X93159774Y-98303937D01*
X93303937Y-98159774D01*
X93417205Y-97990256D01*
X93495226Y-97801898D01*
X93535000Y-97601939D01*
X93535000Y-97398061D01*
X93495226Y-97198102D01*
X93417205Y-97009744D01*
X93303937Y-96840226D01*
X93213711Y-96750000D01*
X93303937Y-96659774D01*
X93417205Y-96490256D01*
X93495226Y-96301898D01*
X93535000Y-96101939D01*
X93535000Y-95898061D01*
X93495226Y-95698102D01*
X93417205Y-95509744D01*
X93303937Y-95340226D01*
X93213711Y-95250000D01*
X93303937Y-95159774D01*
X93417205Y-94990256D01*
X93495226Y-94801898D01*
X93535000Y-94601939D01*
X93535000Y-94398061D01*
X93495226Y-94198102D01*
X93417205Y-94009744D01*
X93303937Y-93840226D01*
X93159774Y-93696063D01*
X92990256Y-93582795D01*
X92801898Y-93504774D01*
X92601939Y-93465000D01*
X92398061Y-93465000D01*
X92198102Y-93504774D01*
X92009744Y-93582795D01*
X91840226Y-93696063D01*
X91750000Y-93786289D01*
X91659774Y-93696063D01*
X91490256Y-93582795D01*
X91301898Y-93504774D01*
X91101939Y-93465000D01*
X90898061Y-93465000D01*
X90698102Y-93504774D01*
X90509744Y-93582795D01*
X90340226Y-93696063D01*
X90196063Y-93840226D01*
X90082795Y-94009744D01*
X90004774Y-94198102D01*
X89965000Y-94398061D01*
X71956541Y-94398061D01*
X71964186Y-94379606D01*
X72003000Y-94184476D01*
X72003000Y-93985524D01*
X71964186Y-93790394D01*
X71888050Y-93606586D01*
X71777518Y-93441163D01*
X71636837Y-93300482D01*
X71471414Y-93189950D01*
X71287606Y-93113814D01*
X71092476Y-93075000D01*
X70893524Y-93075000D01*
X70698394Y-93113814D01*
X70514586Y-93189950D01*
X70349163Y-93300482D01*
X70208482Y-93441163D01*
X70097950Y-93606586D01*
X70021814Y-93790394D01*
X69983000Y-93985524D01*
X64114365Y-93985524D01*
X64135000Y-93881788D01*
X64135000Y-93658212D01*
X64091383Y-93438933D01*
X64045112Y-93327226D01*
X64089502Y-93244180D01*
X64125812Y-93124482D01*
X64138072Y-93000000D01*
X64135000Y-92785750D01*
X63976250Y-92627000D01*
X63127000Y-92627000D01*
X63127000Y-92638026D01*
X63111788Y-92635000D01*
X62888212Y-92635000D01*
X62873000Y-92638026D01*
X62873000Y-92627000D01*
X62861974Y-92627000D01*
X62865000Y-92611788D01*
X62865000Y-92388212D01*
X62861974Y-92373000D01*
X62873000Y-92373000D01*
X62873000Y-91523750D01*
X63127000Y-91523750D01*
X63127000Y-92373000D01*
X63976250Y-92373000D01*
X64135000Y-92214250D01*
X64138072Y-92000000D01*
X64125812Y-91875518D01*
X64089502Y-91755820D01*
X64030537Y-91645506D01*
X63951185Y-91548815D01*
X63854494Y-91469463D01*
X63744180Y-91410498D01*
X63624482Y-91374188D01*
X63500000Y-91361928D01*
X63285750Y-91365000D01*
X63127000Y-91523750D01*
X62873000Y-91523750D01*
X62714250Y-91365000D01*
X62500000Y-91361928D01*
X62375518Y-91374188D01*
X62255820Y-91410498D01*
X62172774Y-91454888D01*
X62061067Y-91408617D01*
X61841788Y-91365000D01*
X61618212Y-91365000D01*
X61398933Y-91408617D01*
X61192376Y-91494176D01*
X61095000Y-91559241D01*
X60997624Y-91494176D01*
X60791067Y-91408617D01*
X60571788Y-91365000D01*
X60348212Y-91365000D01*
X60128933Y-91408617D01*
X59922376Y-91494176D01*
X59825000Y-91559241D01*
X59727624Y-91494176D01*
X59521067Y-91408617D01*
X59301788Y-91365000D01*
X59078212Y-91365000D01*
X58858933Y-91408617D01*
X58652376Y-91494176D01*
X58555000Y-91559241D01*
X58457624Y-91494176D01*
X58251067Y-91408617D01*
X58031788Y-91365000D01*
X57808212Y-91365000D01*
X57588933Y-91408617D01*
X57382376Y-91494176D01*
X57196480Y-91618388D01*
X57038388Y-91776480D01*
X56914176Y-91962376D01*
X56828617Y-92168933D01*
X56785000Y-92388212D01*
X56785000Y-92611788D01*
X56828617Y-92831067D01*
X56914176Y-93037624D01*
X56979241Y-93135000D01*
X56949977Y-93178796D01*
X56881612Y-93076480D01*
X56723520Y-92918388D01*
X56537624Y-92794176D01*
X56331067Y-92708617D01*
X56111788Y-92665000D01*
X55888212Y-92665000D01*
X55668933Y-92708617D01*
X55507948Y-92775299D01*
X55473736Y-92603303D01*
X55371216Y-92355799D01*
X55222381Y-92133051D01*
X55032949Y-91943619D01*
X54810201Y-91794784D01*
X54562697Y-91692264D01*
X54299948Y-91640000D01*
X54032052Y-91640000D01*
X53769303Y-91692264D01*
X53521799Y-91794784D01*
X53299051Y-91943619D01*
X53109619Y-92133051D01*
X53030117Y-92252035D01*
X53033130Y-92242102D01*
X53056975Y-92000000D01*
X53033130Y-91757898D01*
X52962511Y-91525099D01*
X52847833Y-91310551D01*
X52693502Y-91122498D01*
X52505449Y-90968167D01*
X52290901Y-90853489D01*
X52058102Y-90782870D01*
X51876665Y-90765000D01*
X51227058Y-90765000D01*
X51341833Y-90729471D01*
X51527092Y-90710000D01*
X70195896Y-90710000D01*
X70097950Y-90856586D01*
G37*
X70097950Y-90856586D02*
X70021814Y-91040394D01*
X69983000Y-91235524D01*
X69983000Y-91434476D01*
X70021814Y-91629606D01*
X70097950Y-91813414D01*
X70208482Y-91978837D01*
X70349163Y-92119518D01*
X70514586Y-92230050D01*
X70698394Y-92306186D01*
X70893524Y-92345000D01*
X71092476Y-92345000D01*
X71287606Y-92306186D01*
X71471414Y-92230050D01*
X71636837Y-92119518D01*
X71777518Y-91978837D01*
X71888050Y-91813414D01*
X71964186Y-91629606D01*
X72003000Y-91434476D01*
X72003000Y-91235524D01*
X71964186Y-91040394D01*
X71888050Y-90856586D01*
X71790104Y-90710000D01*
X97826289Y-90710000D01*
X97696063Y-90840226D01*
X97582795Y-91009744D01*
X97504774Y-91198102D01*
X97465000Y-91398061D01*
X97465000Y-91601939D01*
X97504774Y-91801898D01*
X97582795Y-91990256D01*
X97696063Y-92159774D01*
X97786289Y-92250000D01*
X97696063Y-92340226D01*
X97582795Y-92509744D01*
X97504774Y-92698102D01*
X97465000Y-92898061D01*
X97465000Y-93101939D01*
X97504774Y-93301898D01*
X97582795Y-93490256D01*
X97696063Y-93659774D01*
X97786289Y-93750000D01*
X97750000Y-93786289D01*
X97659774Y-93696063D01*
X97490256Y-93582795D01*
X97301898Y-93504774D01*
X97101939Y-93465000D01*
X96898061Y-93465000D01*
X96698102Y-93504774D01*
X96509744Y-93582795D01*
X96340226Y-93696063D01*
X96250000Y-93786289D01*
X96159774Y-93696063D01*
X95990256Y-93582795D01*
X95801898Y-93504774D01*
X95601939Y-93465000D01*
X95398061Y-93465000D01*
X95198102Y-93504774D01*
X95009744Y-93582795D01*
X94840226Y-93696063D01*
X94696063Y-93840226D01*
X94582795Y-94009744D01*
X94504774Y-94198102D01*
X94465000Y-94398061D01*
X94465000Y-94601939D01*
X94504774Y-94801898D01*
X94582795Y-94990256D01*
X94696063Y-95159774D01*
X94786289Y-95250000D01*
X94696063Y-95340226D01*
X94582795Y-95509744D01*
X94504774Y-95698102D01*
X94465000Y-95898061D01*
X94465000Y-96101939D01*
X94504774Y-96301898D01*
X94582795Y-96490256D01*
X94696063Y-96659774D01*
X94786289Y-96750000D01*
X94696063Y-96840226D01*
X94582795Y-97009744D01*
X94504774Y-97198102D01*
X94465000Y-97398061D01*
X94465000Y-97601939D01*
X94504774Y-97801898D01*
X94582795Y-97990256D01*
X94696063Y-98159774D01*
X94786289Y-98250000D01*
X94696063Y-98340226D01*
X94582795Y-98509744D01*
X94504774Y-98698102D01*
X94465000Y-98898061D01*
X94465000Y-99101939D01*
X94504774Y-99301898D01*
X94582795Y-99490256D01*
X94696063Y-99659774D01*
X94786289Y-99750000D01*
X94696063Y-99840226D01*
X94582795Y-100009744D01*
X94504774Y-100198102D01*
X94465000Y-100398061D01*
X94465000Y-100601939D01*
X94504774Y-100801898D01*
X94582795Y-100990256D01*
X94696063Y-101159774D01*
X94786289Y-101250000D01*
X94696063Y-101340226D01*
X94582795Y-101509744D01*
X94504774Y-101698102D01*
X94465000Y-101898061D01*
X94465000Y-102101939D01*
X94504774Y-102301898D01*
X94582795Y-102490256D01*
X94696063Y-102659774D01*
X94840226Y-102803937D01*
X95009744Y-102917205D01*
X95198102Y-102995226D01*
X95398061Y-103035000D01*
X95601939Y-103035000D01*
X95801898Y-102995226D01*
X95990256Y-102917205D01*
X96159774Y-102803937D01*
X96303937Y-102659774D01*
X96417205Y-102490256D01*
X96495226Y-102301898D01*
X96535000Y-102101939D01*
X96535000Y-101898061D01*
X96495226Y-101698102D01*
X96417205Y-101509744D01*
X96303937Y-101340226D01*
X96213711Y-101250000D01*
X96303937Y-101159774D01*
X96417205Y-100990256D01*
X96495226Y-100801898D01*
X96535000Y-100601939D01*
X96535000Y-100398061D01*
X96495226Y-100198102D01*
X96417205Y-100009744D01*
X96303937Y-99840226D01*
X96213711Y-99750000D01*
X96303937Y-99659774D01*
X96417205Y-99490256D01*
X96495226Y-99301898D01*
X96535000Y-99101939D01*
X96535000Y-98898061D01*
X96495226Y-98698102D01*
X96417205Y-98509744D01*
X96303937Y-98340226D01*
X96213711Y-98250000D01*
X96250000Y-98213711D01*
X96340226Y-98303937D01*
X96509744Y-98417205D01*
X96698102Y-98495226D01*
X96898061Y-98535000D01*
X97101939Y-98535000D01*
X97301898Y-98495226D01*
X97490256Y-98417205D01*
X97659774Y-98303937D01*
X97750000Y-98213711D01*
X97786289Y-98250000D01*
X97696063Y-98340226D01*
X97582795Y-98509744D01*
X97504774Y-98698102D01*
X97465000Y-98898061D01*
X97465000Y-99101939D01*
X97504774Y-99301898D01*
X97582795Y-99490256D01*
X97696063Y-99659774D01*
X97786289Y-99750000D01*
X97696063Y-99840226D01*
X97582795Y-100009744D01*
X97504774Y-100198102D01*
X97465000Y-100398061D01*
X97465000Y-100601939D01*
X97504774Y-100801898D01*
X97582795Y-100990256D01*
X97696063Y-101159774D01*
X97786289Y-101250000D01*
X97696063Y-101340226D01*
X97582795Y-101509744D01*
X97504774Y-101698102D01*
X97465000Y-101898061D01*
X97465000Y-102101939D01*
X97504774Y-102301898D01*
X97582795Y-102490256D01*
X97696063Y-102659774D01*
X97840226Y-102803937D01*
X98009744Y-102917205D01*
X98198102Y-102995226D01*
X98398061Y-103035000D01*
X98601939Y-103035000D01*
X98801898Y-102995226D01*
X98990256Y-102917205D01*
X99159774Y-102803937D01*
X99290000Y-102673711D01*
X99290001Y-120326290D01*
X99159774Y-120196063D01*
X98990256Y-120082795D01*
X98801898Y-120004774D01*
X98601939Y-119965000D01*
X98398061Y-119965000D01*
X98198102Y-120004774D01*
X98009744Y-120082795D01*
X97840226Y-120196063D01*
X97696063Y-120340226D01*
X97582795Y-120509744D01*
X97504774Y-120698102D01*
X97465000Y-120898061D01*
X97465000Y-121101939D01*
X97504774Y-121301898D01*
X97582795Y-121490256D01*
X97696063Y-121659774D01*
X97786289Y-121750000D01*
X97696063Y-121840226D01*
X97582795Y-122009744D01*
X97504774Y-122198102D01*
X97465000Y-122398061D01*
X97465000Y-122601939D01*
X97504774Y-122801898D01*
X97582795Y-122990256D01*
X97696063Y-123159774D01*
X97786289Y-123250000D01*
X97750000Y-123286289D01*
X97659774Y-123196063D01*
X97490256Y-123082795D01*
X97301898Y-123004774D01*
X97101939Y-122965000D01*
X96898061Y-122965000D01*
X96698102Y-123004774D01*
X96509744Y-123082795D01*
X96340226Y-123196063D01*
X96250000Y-123286289D01*
X96159774Y-123196063D01*
X95990256Y-123082795D01*
X95801898Y-123004774D01*
X95601939Y-122965000D01*
X95398061Y-122965000D01*
X95198102Y-123004774D01*
X95009744Y-123082795D01*
X94840226Y-123196063D01*
X94750000Y-123286289D01*
X94659774Y-123196063D01*
X94490256Y-123082795D01*
X94301898Y-123004774D01*
X94101939Y-122965000D01*
X93898061Y-122965000D01*
X93698102Y-123004774D01*
X93509744Y-123082795D01*
X93340226Y-123196063D01*
X93250000Y-123286289D01*
X93159774Y-123196063D01*
X92990256Y-123082795D01*
X92801898Y-123004774D01*
X92601939Y-122965000D01*
X92398061Y-122965000D01*
X92198102Y-123004774D01*
X92009744Y-123082795D01*
X91840226Y-123196063D01*
X91696063Y-123340226D01*
X91582795Y-123509744D01*
X91504774Y-123698102D01*
X91465000Y-123898061D01*
X91465000Y-124101939D01*
X91502407Y-124290000D01*
X78483967Y-124290000D01*
X78517205Y-124240256D01*
X78595226Y-124051898D01*
X78635000Y-123851939D01*
X78635000Y-123648061D01*
X78595226Y-123448102D01*
X78517205Y-123259744D01*
X78403937Y-123090226D01*
X78313711Y-123000000D01*
X78403937Y-122909774D01*
X78517205Y-122740256D01*
X78595226Y-122551898D01*
X78635000Y-122351939D01*
X78635000Y-122148061D01*
X78595226Y-121948102D01*
X78517205Y-121759744D01*
X78403937Y-121590226D01*
X78259774Y-121446063D01*
X78090256Y-121332795D01*
X77901898Y-121254774D01*
X77701939Y-121215000D01*
X77498061Y-121215000D01*
X77298102Y-121254774D01*
X77109744Y-121332795D01*
X76940226Y-121446063D01*
X76796063Y-121590226D01*
X76682795Y-121759744D01*
X76604774Y-121948102D01*
X76565000Y-122148061D01*
X76565000Y-122351939D01*
X76604774Y-122551898D01*
X76682795Y-122740256D01*
X76796063Y-122909774D01*
X76886289Y-123000000D01*
X76796063Y-123090226D01*
X76682795Y-123259744D01*
X76604774Y-123448102D01*
X76565000Y-123648061D01*
X76565000Y-123851939D01*
X76604774Y-124051898D01*
X76682795Y-124240256D01*
X76716033Y-124290000D01*
X75627000Y-124290000D01*
X75627000Y-120628052D01*
X79465000Y-120628052D01*
X79465000Y-120831930D01*
X79504774Y-121031889D01*
X79582795Y-121220247D01*
X79696063Y-121389765D01*
X79840226Y-121533928D01*
X80009744Y-121647196D01*
X80198102Y-121725217D01*
X80398061Y-121764991D01*
X80601939Y-121764991D01*
X80801898Y-121725217D01*
X80867457Y-121698061D01*
X83365000Y-121698061D01*
X83365000Y-121901939D01*
X83404774Y-122101898D01*
X83482795Y-122290256D01*
X83596063Y-122459774D01*
X83740226Y-122603937D01*
X83909744Y-122717205D01*
X84098102Y-122795226D01*
X84298061Y-122835000D01*
X84501939Y-122835000D01*
X84701898Y-122795226D01*
X84890256Y-122717205D01*
X85059774Y-122603937D01*
X85203937Y-122459774D01*
X85317205Y-122290256D01*
X85395226Y-122101898D01*
X85435000Y-121901939D01*
X85435000Y-121698061D01*
X85395226Y-121498102D01*
X85317205Y-121309744D01*
X85309399Y-121298061D01*
X89165000Y-121298061D01*
X89165000Y-121501939D01*
X89204774Y-121701898D01*
X89282795Y-121890256D01*
X89396063Y-122059774D01*
X89540226Y-122203937D01*
X89709744Y-122317205D01*
X89898102Y-122395226D01*
X90098061Y-122435000D01*
X90301939Y-122435000D01*
X90501898Y-122395226D01*
X90690256Y-122317205D01*
X90859774Y-122203937D01*
X91003937Y-122059774D01*
X91117205Y-121890256D01*
X91195226Y-121701898D01*
X91235000Y-121501939D01*
X91235000Y-121298061D01*
X91195226Y-121098102D01*
X91117205Y-120909744D01*
X91003937Y-120740226D01*
X90859774Y-120596063D01*
X90690256Y-120482795D01*
X90501898Y-120404774D01*
X90301939Y-120365000D01*
X90098061Y-120365000D01*
X89898102Y-120404774D01*
X89709744Y-120482795D01*
X89540226Y-120596063D01*
X89396063Y-120740226D01*
X89282795Y-120909744D01*
X89204774Y-121098102D01*
X89165000Y-121298061D01*
X85309399Y-121298061D01*
X85203937Y-121140226D01*
X85059774Y-120996063D01*
X84890256Y-120882795D01*
X84701898Y-120804774D01*
X84501939Y-120765000D01*
X84298061Y-120765000D01*
X84098102Y-120804774D01*
X83909744Y-120882795D01*
X83740226Y-120996063D01*
X83596063Y-121140226D01*
X83482795Y-121309744D01*
X83404774Y-121498102D01*
X83365000Y-121698061D01*
X80867457Y-121698061D01*
X80990256Y-121647196D01*
X81159774Y-121533928D01*
X81303937Y-121389765D01*
X81417205Y-121220247D01*
X81495226Y-121031889D01*
X81535000Y-120831930D01*
X81535000Y-120628052D01*
X81495226Y-120428093D01*
X81417205Y-120239735D01*
X81303937Y-120070217D01*
X81250294Y-120016574D01*
X81384784Y-119926711D01*
X81528947Y-119782548D01*
X81642215Y-119613030D01*
X81720236Y-119424672D01*
X81760010Y-119224713D01*
X81760010Y-119020835D01*
X81720236Y-118820876D01*
X81642215Y-118632518D01*
X81528947Y-118463000D01*
X81384784Y-118318837D01*
X81215266Y-118205569D01*
X81026908Y-118127548D01*
X80826949Y-118087774D01*
X80623071Y-118087774D01*
X80423112Y-118127548D01*
X80234754Y-118205569D01*
X80065236Y-118318837D01*
X79921073Y-118463000D01*
X79807805Y-118632518D01*
X79729784Y-118820876D01*
X79690010Y-119020835D01*
X79690010Y-119224713D01*
X79729784Y-119424672D01*
X79807805Y-119613030D01*
X79921073Y-119782548D01*
X79974716Y-119836191D01*
X79840226Y-119926054D01*
X79696063Y-120070217D01*
X79582795Y-120239735D01*
X79504774Y-120428093D01*
X79465000Y-120628052D01*
X75627000Y-120628052D01*
X75627000Y-116398061D01*
X89215000Y-116398061D01*
X89215000Y-116601939D01*
X89254774Y-116801898D01*
X89332795Y-116990256D01*
X89446063Y-117159774D01*
X89590226Y-117303937D01*
X89759744Y-117417205D01*
X89948102Y-117495226D01*
X90148061Y-117535000D01*
X90351939Y-117535000D01*
X90551898Y-117495226D01*
X90740256Y-117417205D01*
X90909774Y-117303937D01*
X91053937Y-117159774D01*
X91167205Y-116990256D01*
X91245226Y-116801898D01*
X91285000Y-116601939D01*
X91285000Y-116398061D01*
X93965000Y-116398061D01*
X93965000Y-116601939D01*
X94004774Y-116801898D01*
X94082795Y-116990256D01*
X94196063Y-117159774D01*
X94340226Y-117303937D01*
X94509744Y-117417205D01*
X94698102Y-117495226D01*
X94898061Y-117535000D01*
X95101939Y-117535000D01*
X95301898Y-117495226D01*
X95490256Y-117417205D01*
X95659774Y-117303937D01*
X95803937Y-117159774D01*
X95917205Y-116990256D01*
X95995226Y-116801898D01*
X96035000Y-116601939D01*
X96035000Y-116398061D01*
X95995226Y-116198102D01*
X95917205Y-116009744D01*
X95803937Y-115840226D01*
X95659774Y-115696063D01*
X95490256Y-115582795D01*
X95301898Y-115504774D01*
X95101939Y-115465000D01*
X94898061Y-115465000D01*
X94698102Y-115504774D01*
X94509744Y-115582795D01*
X94340226Y-115696063D01*
X94196063Y-115840226D01*
X94082795Y-116009744D01*
X94004774Y-116198102D01*
X93965000Y-116398061D01*
X91285000Y-116398061D01*
X91245226Y-116198102D01*
X91167205Y-116009744D01*
X91053937Y-115840226D01*
X90909774Y-115696063D01*
X90740256Y-115582795D01*
X90551898Y-115504774D01*
X90351939Y-115465000D01*
X90148061Y-115465000D01*
X89948102Y-115504774D01*
X89759744Y-115582795D01*
X89590226Y-115696063D01*
X89446063Y-115840226D01*
X89332795Y-116009744D01*
X89254774Y-116198102D01*
X89215000Y-116398061D01*
X75627000Y-116398061D01*
X75627000Y-114238212D01*
X92434998Y-114238212D01*
X92434998Y-114461788D01*
X92478615Y-114681067D01*
X92564174Y-114887624D01*
X92688386Y-115073520D01*
X92846478Y-115231612D01*
X93032374Y-115355824D01*
X93238931Y-115441383D01*
X93458210Y-115485000D01*
X93681786Y-115485000D01*
X93901065Y-115441383D01*
X94107622Y-115355824D01*
X94293518Y-115231612D01*
X94451610Y-115073520D01*
X94575822Y-114887624D01*
X94661381Y-114681067D01*
X94704998Y-114461788D01*
X94704998Y-114238212D01*
X94661381Y-114018933D01*
X94575822Y-113812376D01*
X94451610Y-113626480D01*
X94293518Y-113468388D01*
X94107622Y-113344176D01*
X93901065Y-113258617D01*
X93681786Y-113215000D01*
X93458210Y-113215000D01*
X93238931Y-113258617D01*
X93032374Y-113344176D01*
X92846478Y-113468388D01*
X92688386Y-113626480D01*
X92564174Y-113812376D01*
X92478615Y-114018933D01*
X92434998Y-114238212D01*
X75627000Y-114238212D01*
X75627000Y-110149999D01*
X76761928Y-110149999D01*
X76761928Y-110850001D01*
X76778992Y-111023255D01*
X76829528Y-111189851D01*
X76911595Y-111343387D01*
X77022038Y-111477962D01*
X77156613Y-111588405D01*
X77310149Y-111670472D01*
X77476745Y-111721008D01*
X77649999Y-111738072D01*
X78350001Y-111738072D01*
X78523255Y-111721008D01*
X78689851Y-111670472D01*
X78843387Y-111588405D01*
X78977962Y-111477962D01*
X79083171Y-111349764D01*
X79329841Y-111349764D01*
X79377148Y-111573348D01*
X79598516Y-111674237D01*
X79811821Y-111724468D01*
X79696063Y-111840226D01*
X79582795Y-112009744D01*
X79504774Y-112198102D01*
X79465000Y-112398061D01*
X79465000Y-112601939D01*
X79504774Y-112801898D01*
X79582795Y-112990256D01*
X79696063Y-113159774D01*
X79840226Y-113303937D01*
X80009744Y-113417205D01*
X80198102Y-113495226D01*
X80398061Y-113535000D01*
X80601939Y-113535000D01*
X80801898Y-113495226D01*
X80990256Y-113417205D01*
X81159774Y-113303937D01*
X81303937Y-113159774D01*
X81417205Y-112990256D01*
X81495226Y-112801898D01*
X81535000Y-112601939D01*
X81535000Y-112398061D01*
X81495226Y-112198102D01*
X81417205Y-112009744D01*
X81343877Y-111900000D01*
X83011928Y-111900000D01*
X83011928Y-113100000D01*
X83024188Y-113224482D01*
X83060498Y-113344180D01*
X83119463Y-113454494D01*
X83198815Y-113551185D01*
X83295506Y-113630537D01*
X83405820Y-113689502D01*
X83525518Y-113725812D01*
X83650000Y-113738072D01*
X85350000Y-113738072D01*
X85474482Y-113725812D01*
X85594180Y-113689502D01*
X85704494Y-113630537D01*
X85801185Y-113551185D01*
X85880537Y-113454494D01*
X85939502Y-113344180D01*
X85975812Y-113224482D01*
X85988072Y-113100000D01*
X85988072Y-111900000D01*
X88511928Y-111900000D01*
X88511928Y-113100000D01*
X88524188Y-113224482D01*
X88560498Y-113344180D01*
X88619463Y-113454494D01*
X88698815Y-113551185D01*
X88795506Y-113630537D01*
X88905820Y-113689502D01*
X89025518Y-113725812D01*
X89150000Y-113738072D01*
X90850000Y-113738072D01*
X90974482Y-113725812D01*
X91094180Y-113689502D01*
X91204494Y-113630537D01*
X91301185Y-113551185D01*
X91380537Y-113454494D01*
X91439502Y-113344180D01*
X91475812Y-113224482D01*
X91488072Y-113100000D01*
X91488072Y-112898061D01*
X96465000Y-112898061D01*
X96465000Y-113101939D01*
X96504774Y-113301898D01*
X96582795Y-113490256D01*
X96696063Y-113659774D01*
X96840226Y-113803937D01*
X97009744Y-113917205D01*
X97198102Y-113995226D01*
X97398061Y-114035000D01*
X97601939Y-114035000D01*
X97801898Y-113995226D01*
X97990256Y-113917205D01*
X98159774Y-113803937D01*
X98303937Y-113659774D01*
X98417205Y-113490256D01*
X98495226Y-113301898D01*
X98535000Y-113101939D01*
X98535000Y-112898061D01*
X98495226Y-112698102D01*
X98417205Y-112509744D01*
X98303937Y-112340226D01*
X98159774Y-112196063D01*
X97990256Y-112082795D01*
X97801898Y-112004774D01*
X97601939Y-111965000D01*
X97398061Y-111965000D01*
X97198102Y-112004774D01*
X97009744Y-112082795D01*
X96840226Y-112196063D01*
X96696063Y-112340226D01*
X96582795Y-112509744D01*
X96504774Y-112698102D01*
X96465000Y-112898061D01*
X91488072Y-112898061D01*
X91488072Y-111900000D01*
X91475812Y-111775518D01*
X91439502Y-111655820D01*
X91380537Y-111545506D01*
X91301185Y-111448815D01*
X91204494Y-111369463D01*
X91162540Y-111347038D01*
X91181938Y-111329128D01*
X91325786Y-111131384D01*
X91428292Y-110909377D01*
X91443462Y-110817609D01*
X91318731Y-110627000D01*
X90127000Y-110627000D01*
X90127000Y-110647000D01*
X89873000Y-110647000D01*
X89873000Y-110627000D01*
X88681269Y-110627000D01*
X88556538Y-110817609D01*
X88571708Y-110909377D01*
X88674214Y-111131384D01*
X88818062Y-111329128D01*
X88837460Y-111347038D01*
X88795506Y-111369463D01*
X88698815Y-111448815D01*
X88619463Y-111545506D01*
X88560498Y-111655820D01*
X88524188Y-111775518D01*
X88511928Y-111900000D01*
X85988072Y-111900000D01*
X85975812Y-111775518D01*
X85939502Y-111655820D01*
X85880537Y-111545506D01*
X85801185Y-111448815D01*
X85704494Y-111369463D01*
X85662540Y-111347038D01*
X85681938Y-111329128D01*
X85825786Y-111131384D01*
X85928292Y-110909377D01*
X85943462Y-110817609D01*
X85818731Y-110627000D01*
X84627000Y-110627000D01*
X84627000Y-110647000D01*
X84373000Y-110647000D01*
X84373000Y-110627000D01*
X83181269Y-110627000D01*
X83056538Y-110817609D01*
X83071708Y-110909377D01*
X83174214Y-111131384D01*
X83318062Y-111329128D01*
X83337460Y-111347038D01*
X83295506Y-111369463D01*
X83198815Y-111448815D01*
X83119463Y-111545506D01*
X83060498Y-111655820D01*
X83024188Y-111775518D01*
X83011928Y-111900000D01*
X81343877Y-111900000D01*
X81303937Y-111840226D01*
X81159774Y-111696063D01*
X80990256Y-111582795D01*
X80801898Y-111504774D01*
X80644006Y-111473368D01*
X80670159Y-111349764D01*
X80000000Y-110679605D01*
X79329841Y-111349764D01*
X79083171Y-111349764D01*
X79088405Y-111343387D01*
X79170472Y-111189851D01*
X79187858Y-111132537D01*
X79820395Y-110500000D01*
X80179605Y-110500000D01*
X80849764Y-111170159D01*
X81073348Y-111122852D01*
X81174237Y-110901484D01*
X81230000Y-110664687D01*
X81238495Y-110421562D01*
X81199395Y-110181451D01*
X81114202Y-109953582D01*
X81073348Y-109877148D01*
X80849764Y-109829841D01*
X80179605Y-110500000D01*
X79820395Y-110500000D01*
X79187858Y-109867463D01*
X79170472Y-109810149D01*
X79088405Y-109656613D01*
X78977962Y-109522038D01*
X78843387Y-109411595D01*
X78837895Y-109408659D01*
X78959287Y-109287267D01*
X79000000Y-109226336D01*
X79040713Y-109287267D01*
X79212733Y-109459287D01*
X79350733Y-109551496D01*
X79329841Y-109650236D01*
X80000000Y-110320395D01*
X80670159Y-109650236D01*
X80649267Y-109551496D01*
X80787267Y-109459287D01*
X80959287Y-109287267D01*
X81094443Y-109084992D01*
X81187540Y-108860236D01*
X81235000Y-108621637D01*
X81235000Y-108378363D01*
X81187540Y-108139764D01*
X81094443Y-107915008D01*
X80959287Y-107712733D01*
X80787267Y-107540713D01*
X80726336Y-107500000D01*
X80787267Y-107459287D01*
X80959287Y-107287267D01*
X81094443Y-107084992D01*
X81187540Y-106860236D01*
X81235000Y-106621637D01*
X81235000Y-106378363D01*
X81187540Y-106139764D01*
X81094443Y-105915008D01*
X80959287Y-105712733D01*
X80787267Y-105540713D01*
X80726336Y-105500000D01*
X80787267Y-105459287D01*
X80959287Y-105287267D01*
X81094443Y-105084992D01*
X81187540Y-104860236D01*
X81235000Y-104621637D01*
X81235000Y-104378363D01*
X81187540Y-104139764D01*
X81094443Y-103915008D01*
X80959287Y-103712733D01*
X80787267Y-103540713D01*
X80726336Y-103500000D01*
X80787267Y-103459287D01*
X80959287Y-103287267D01*
X81094443Y-103084992D01*
X81187540Y-102860236D01*
X81235000Y-102621637D01*
X81235000Y-102500000D01*
X83009025Y-102500000D01*
X83032870Y-102742102D01*
X83103489Y-102974901D01*
X83218167Y-103189449D01*
X83372498Y-103377502D01*
X83521762Y-103500000D01*
X83372498Y-103622498D01*
X83218167Y-103810551D01*
X83103489Y-104025099D01*
X83032870Y-104257898D01*
X83009025Y-104500000D01*
X83032870Y-104742102D01*
X83103489Y-104974901D01*
X83218167Y-105189449D01*
X83372498Y-105377502D01*
X83521762Y-105500000D01*
X83372498Y-105622498D01*
X83218167Y-105810551D01*
X83103489Y-106025099D01*
X83032870Y-106257898D01*
X83009025Y-106500000D01*
X83032870Y-106742102D01*
X83103489Y-106974901D01*
X83218167Y-107189449D01*
X83372498Y-107377502D01*
X83521762Y-107500000D01*
X83372498Y-107622498D01*
X83218167Y-107810551D01*
X83103489Y-108025099D01*
X83032870Y-108257898D01*
X83009025Y-108500000D01*
X83032870Y-108742102D01*
X83103489Y-108974901D01*
X83218167Y-109189449D01*
X83372498Y-109377502D01*
X83514978Y-109494432D01*
X83497724Y-109504991D01*
X83318062Y-109670872D01*
X83174214Y-109868616D01*
X83071708Y-110090623D01*
X83056538Y-110182391D01*
X83181269Y-110373000D01*
X84373000Y-110373000D01*
X84373000Y-110353000D01*
X84627000Y-110353000D01*
X84627000Y-110373000D01*
X85818731Y-110373000D01*
X85943462Y-110182391D01*
X85928292Y-110090623D01*
X85825786Y-109868616D01*
X85681938Y-109670872D01*
X85502276Y-109504991D01*
X85485022Y-109494432D01*
X85627502Y-109377502D01*
X85781833Y-109189449D01*
X85896511Y-108974901D01*
X85967130Y-108742102D01*
X85990975Y-108500000D01*
X85967130Y-108257898D01*
X85896511Y-108025099D01*
X85781833Y-107810551D01*
X85627502Y-107622498D01*
X85478238Y-107500000D01*
X85627502Y-107377502D01*
X85781833Y-107189449D01*
X85896511Y-106974901D01*
X85967130Y-106742102D01*
X85990975Y-106500000D01*
X85967130Y-106257898D01*
X85896511Y-106025099D01*
X85781833Y-105810551D01*
X85627502Y-105622498D01*
X85478238Y-105500000D01*
X85627502Y-105377502D01*
X85781833Y-105189449D01*
X85896511Y-104974901D01*
X85967130Y-104742102D01*
X85990975Y-104500000D01*
X85967130Y-104257898D01*
X85896511Y-104025099D01*
X85781833Y-103810551D01*
X85627502Y-103622498D01*
X85478238Y-103500000D01*
X85627502Y-103377502D01*
X85781833Y-103189449D01*
X85896511Y-102974901D01*
X85967130Y-102742102D01*
X85990975Y-102500000D01*
X88509025Y-102500000D01*
X88532870Y-102742102D01*
X88603489Y-102974901D01*
X88718167Y-103189449D01*
X88872498Y-103377502D01*
X89021762Y-103500000D01*
X88872498Y-103622498D01*
X88718167Y-103810551D01*
X88603489Y-104025099D01*
X88532870Y-104257898D01*
X88509025Y-104500000D01*
X88532870Y-104742102D01*
X88603489Y-104974901D01*
X88718167Y-105189449D01*
X88872498Y-105377502D01*
X89021762Y-105500000D01*
X88872498Y-105622498D01*
X88718167Y-105810551D01*
X88603489Y-106025099D01*
X88532870Y-106257898D01*
X88509025Y-106500000D01*
X88532870Y-106742102D01*
X88603489Y-106974901D01*
X88718167Y-107189449D01*
X88872498Y-107377502D01*
X89021762Y-107500000D01*
X88872498Y-107622498D01*
X88718167Y-107810551D01*
X88603489Y-108025099D01*
X88532870Y-108257898D01*
X88509025Y-108500000D01*
X88532870Y-108742102D01*
X88603489Y-108974901D01*
X88718167Y-109189449D01*
X88872498Y-109377502D01*
X89014978Y-109494432D01*
X88997724Y-109504991D01*
X88818062Y-109670872D01*
X88674214Y-109868616D01*
X88571708Y-110090623D01*
X88556538Y-110182391D01*
X88681269Y-110373000D01*
X89873000Y-110373000D01*
X89873000Y-110353000D01*
X90127000Y-110353000D01*
X90127000Y-110373000D01*
X91318731Y-110373000D01*
X91443462Y-110182391D01*
X91428292Y-110090623D01*
X91325786Y-109868616D01*
X91181938Y-109670872D01*
X91002276Y-109504991D01*
X90985022Y-109494432D01*
X91127502Y-109377502D01*
X91281833Y-109189449D01*
X91396511Y-108974901D01*
X91467130Y-108742102D01*
X91490975Y-108500000D01*
X91467130Y-108257898D01*
X91396511Y-108025099D01*
X91281833Y-107810551D01*
X91127502Y-107622498D01*
X90978238Y-107500000D01*
X91127502Y-107377502D01*
X91281833Y-107189449D01*
X91396511Y-106974901D01*
X91467130Y-106742102D01*
X91490975Y-106500000D01*
X91467130Y-106257898D01*
X91396511Y-106025099D01*
X91281833Y-105810551D01*
X91127502Y-105622498D01*
X90978238Y-105500000D01*
X95009025Y-105500000D01*
X95032870Y-105742102D01*
X95103489Y-105974901D01*
X95218167Y-106189449D01*
X95344436Y-106343309D01*
X95295506Y-106369463D01*
X95198815Y-106448815D01*
X95119463Y-106545506D01*
X95060498Y-106655820D01*
X95024188Y-106775518D01*
X95011928Y-106900000D01*
X95011928Y-108100000D01*
X95024188Y-108224482D01*
X95060498Y-108344180D01*
X95119463Y-108454494D01*
X95198815Y-108551185D01*
X95295506Y-108630537D01*
X95405820Y-108689502D01*
X95525518Y-108725812D01*
X95650000Y-108738072D01*
X97350000Y-108738072D01*
X97474482Y-108725812D01*
X97594180Y-108689502D01*
X97704494Y-108630537D01*
X97801185Y-108551185D01*
X97880537Y-108454494D01*
X97939502Y-108344180D01*
X97975812Y-108224482D01*
X97988072Y-108100000D01*
X97988072Y-106900000D01*
X97975812Y-106775518D01*
X97939502Y-106655820D01*
X97880537Y-106545506D01*
X97801185Y-106448815D01*
X97704494Y-106369463D01*
X97655564Y-106343309D01*
X97781833Y-106189449D01*
X97896511Y-105974901D01*
X97967130Y-105742102D01*
X97990975Y-105500000D01*
X97967130Y-105257898D01*
X97896511Y-105025099D01*
X97781833Y-104810551D01*
X97627502Y-104622498D01*
X97439449Y-104468167D01*
X97224901Y-104353489D01*
X96992102Y-104282870D01*
X96810665Y-104265000D01*
X96189335Y-104265000D01*
X96007898Y-104282870D01*
X95775099Y-104353489D01*
X95560551Y-104468167D01*
X95372498Y-104622498D01*
X95218167Y-104810551D01*
X95103489Y-105025099D01*
X95032870Y-105257898D01*
X95009025Y-105500000D01*
X90978238Y-105500000D01*
X91127502Y-105377502D01*
X91281833Y-105189449D01*
X91396511Y-104974901D01*
X91467130Y-104742102D01*
X91490975Y-104500000D01*
X91467130Y-104257898D01*
X91396511Y-104025099D01*
X91281833Y-103810551D01*
X91127502Y-103622498D01*
X90978238Y-103500000D01*
X91127502Y-103377502D01*
X91281833Y-103189449D01*
X91396511Y-102974901D01*
X91467130Y-102742102D01*
X91490975Y-102500000D01*
X91467130Y-102257898D01*
X91396511Y-102025099D01*
X91281833Y-101810551D01*
X91127502Y-101622498D01*
X90939449Y-101468167D01*
X90724901Y-101353489D01*
X90492102Y-101282870D01*
X90310665Y-101265000D01*
X89689335Y-101265000D01*
X89507898Y-101282870D01*
X89275099Y-101353489D01*
X89060551Y-101468167D01*
X88872498Y-101622498D01*
X88718167Y-101810551D01*
X88603489Y-102025099D01*
X88532870Y-102257898D01*
X88509025Y-102500000D01*
X85990975Y-102500000D01*
X85967130Y-102257898D01*
X85896511Y-102025099D01*
X85781833Y-101810551D01*
X85627502Y-101622498D01*
X85439449Y-101468167D01*
X85224901Y-101353489D01*
X84992102Y-101282870D01*
X84810665Y-101265000D01*
X84189335Y-101265000D01*
X84007898Y-101282870D01*
X83775099Y-101353489D01*
X83560551Y-101468167D01*
X83372498Y-101622498D01*
X83218167Y-101810551D01*
X83103489Y-102025099D01*
X83032870Y-102257898D01*
X83009025Y-102500000D01*
X81235000Y-102500000D01*
X81235000Y-102378363D01*
X81187540Y-102139764D01*
X81094443Y-101915008D01*
X80959287Y-101712733D01*
X80787267Y-101540713D01*
X80584992Y-101405557D01*
X80360236Y-101312460D01*
X80121637Y-101265000D01*
X79878363Y-101265000D01*
X79639764Y-101312460D01*
X79415008Y-101405557D01*
X79212733Y-101540713D01*
X79040713Y-101712733D01*
X79000000Y-101773664D01*
X78959287Y-101712733D01*
X78787267Y-101540713D01*
X78584992Y-101405557D01*
X78360236Y-101312460D01*
X78121637Y-101265000D01*
X77878363Y-101265000D01*
X77639764Y-101312460D01*
X77415008Y-101405557D01*
X77212733Y-101540713D01*
X77040713Y-101712733D01*
X76905557Y-101915008D01*
X76812460Y-102139764D01*
X76765000Y-102378363D01*
X76765000Y-102621637D01*
X76812460Y-102860236D01*
X76905557Y-103084992D01*
X77040713Y-103287267D01*
X77212733Y-103459287D01*
X77273664Y-103500000D01*
X77212733Y-103540713D01*
X77040713Y-103712733D01*
X76905557Y-103915008D01*
X76812460Y-104139764D01*
X76765000Y-104378363D01*
X76765000Y-104621637D01*
X76812460Y-104860236D01*
X76905557Y-105084992D01*
X77040713Y-105287267D01*
X77212733Y-105459287D01*
X77273664Y-105500000D01*
X77212733Y-105540713D01*
X77040713Y-105712733D01*
X76905557Y-105915008D01*
X76812460Y-106139764D01*
X76765000Y-106378363D01*
X76765000Y-106621637D01*
X76812460Y-106860236D01*
X76905557Y-107084992D01*
X77040713Y-107287267D01*
X77212733Y-107459287D01*
X77273664Y-107500000D01*
X77212733Y-107540713D01*
X77040713Y-107712733D01*
X76905557Y-107915008D01*
X76812460Y-108139764D01*
X76765000Y-108378363D01*
X76765000Y-108621637D01*
X76812460Y-108860236D01*
X76905557Y-109084992D01*
X77040713Y-109287267D01*
X77162105Y-109408659D01*
X77156613Y-109411595D01*
X77022038Y-109522038D01*
X76911595Y-109656613D01*
X76829528Y-109810149D01*
X76778992Y-109976745D01*
X76761928Y-110149999D01*
X75627000Y-110149999D01*
X75627000Y-110000000D01*
X75624560Y-109975224D01*
X75617333Y-109951399D01*
X75605597Y-109929443D01*
X75589803Y-109910197D01*
X75570557Y-109894403D01*
X75548601Y-109882667D01*
X75524776Y-109875440D01*
X75500000Y-109873000D01*
X67530015Y-109873000D01*
X67495226Y-109698102D01*
X67417205Y-109509744D01*
X67303937Y-109340226D01*
X67237425Y-109273714D01*
X67311835Y-109199304D01*
X67425103Y-109029786D01*
X67503124Y-108841428D01*
X67542898Y-108641469D01*
X67542898Y-108437591D01*
X67503124Y-108237632D01*
X67425103Y-108049274D01*
X67419972Y-108041595D01*
X68465000Y-108041595D01*
X68465000Y-108245473D01*
X68504774Y-108445432D01*
X68582795Y-108633790D01*
X68696063Y-108803308D01*
X68840226Y-108947471D01*
X69009744Y-109060739D01*
X69198102Y-109138760D01*
X69398061Y-109178534D01*
X69601939Y-109178534D01*
X69801898Y-109138760D01*
X69990256Y-109060739D01*
X70159774Y-108947471D01*
X70303937Y-108803308D01*
X70417205Y-108633790D01*
X70495226Y-108445432D01*
X70535000Y-108245473D01*
X70535000Y-108041595D01*
X70495226Y-107841636D01*
X70441770Y-107712581D01*
X73407744Y-107712581D01*
X73407744Y-107916459D01*
X73447518Y-108116418D01*
X73525539Y-108304776D01*
X73638807Y-108474294D01*
X73782970Y-108618457D01*
X73952488Y-108731725D01*
X74140846Y-108809746D01*
X74340805Y-108849520D01*
X74544683Y-108849520D01*
X74744642Y-108809746D01*
X74933000Y-108731725D01*
X75102518Y-108618457D01*
X75246681Y-108474294D01*
X75359949Y-108304776D01*
X75437970Y-108116418D01*
X75477744Y-107916459D01*
X75477744Y-107712581D01*
X75476613Y-107706897D01*
X75514326Y-107691276D01*
X75683844Y-107578008D01*
X75828007Y-107433845D01*
X75941275Y-107264327D01*
X76019296Y-107075969D01*
X76059070Y-106876010D01*
X76059070Y-106672132D01*
X76019296Y-106472173D01*
X75941275Y-106283815D01*
X75828007Y-106114297D01*
X75683844Y-105970134D01*
X75514326Y-105856866D01*
X75325968Y-105778845D01*
X75126009Y-105739071D01*
X74922131Y-105739071D01*
X74722172Y-105778845D01*
X74533814Y-105856866D01*
X74364296Y-105970134D01*
X74220133Y-106114297D01*
X74106865Y-106283815D01*
X74028844Y-106472173D01*
X73989070Y-106672132D01*
X73989070Y-106876010D01*
X73990201Y-106881694D01*
X73952488Y-106897315D01*
X73782970Y-107010583D01*
X73638807Y-107154746D01*
X73525539Y-107324264D01*
X73447518Y-107512622D01*
X73407744Y-107712581D01*
X70441770Y-107712581D01*
X70417205Y-107653278D01*
X70303937Y-107483760D01*
X70159774Y-107339597D01*
X69990256Y-107226329D01*
X69801898Y-107148308D01*
X69601939Y-107108534D01*
X69398061Y-107108534D01*
X69198102Y-107148308D01*
X69009744Y-107226329D01*
X68840226Y-107339597D01*
X68696063Y-107483760D01*
X68582795Y-107653278D01*
X68504774Y-107841636D01*
X68465000Y-108041595D01*
X67419972Y-108041595D01*
X67403598Y-108017090D01*
X67475968Y-107908780D01*
X67553989Y-107720422D01*
X67593763Y-107520463D01*
X67593763Y-107316585D01*
X67553989Y-107116626D01*
X67475968Y-106928268D01*
X67407454Y-106825730D01*
X67432677Y-106787981D01*
X67510698Y-106599623D01*
X67550472Y-106399664D01*
X67550472Y-106195786D01*
X67510698Y-105995827D01*
X67432677Y-105807469D01*
X67319409Y-105637951D01*
X67307111Y-105625653D01*
X67360123Y-105572640D01*
X67473391Y-105403122D01*
X67475487Y-105398061D01*
X68465000Y-105398061D01*
X68465000Y-105601939D01*
X68504774Y-105801898D01*
X68582795Y-105990256D01*
X68696063Y-106159774D01*
X68840226Y-106303937D01*
X69009744Y-106417205D01*
X69198102Y-106495226D01*
X69398061Y-106535000D01*
X69601939Y-106535000D01*
X69801898Y-106495226D01*
X69990256Y-106417205D01*
X70159774Y-106303937D01*
X70303937Y-106159774D01*
X70417205Y-105990256D01*
X70495226Y-105801898D01*
X70535000Y-105601939D01*
X70535000Y-105398061D01*
X70495226Y-105198102D01*
X70417205Y-105009744D01*
X70303937Y-104840226D01*
X70159774Y-104696063D01*
X69990256Y-104582795D01*
X69801898Y-104504774D01*
X69601939Y-104465000D01*
X69398061Y-104465000D01*
X69198102Y-104504774D01*
X69009744Y-104582795D01*
X68840226Y-104696063D01*
X68696063Y-104840226D01*
X68582795Y-105009744D01*
X68504774Y-105198102D01*
X68465000Y-105398061D01*
X67475487Y-105398061D01*
X67551412Y-105214764D01*
X67591186Y-105014805D01*
X67591186Y-104810927D01*
X67551412Y-104610968D01*
X67473391Y-104422610D01*
X67360123Y-104253092D01*
X67215960Y-104108929D01*
X67046442Y-103995661D01*
X66858084Y-103917640D01*
X66658125Y-103877866D01*
X66454247Y-103877866D01*
X66254288Y-103917640D01*
X66065930Y-103995661D01*
X65896412Y-104108929D01*
X65752249Y-104253092D01*
X65638981Y-104422610D01*
X65560960Y-104610968D01*
X65521186Y-104810927D01*
X65521186Y-105014805D01*
X65560960Y-105214764D01*
X65638981Y-105403122D01*
X65752249Y-105572640D01*
X65764548Y-105584939D01*
X65711535Y-105637951D01*
X65598267Y-105807469D01*
X65520246Y-105995827D01*
X65480472Y-106195786D01*
X65480472Y-106399664D01*
X65520246Y-106599623D01*
X65598267Y-106787981D01*
X65666781Y-106890519D01*
X65641558Y-106928268D01*
X65563537Y-107116626D01*
X65523763Y-107316585D01*
X65523763Y-107520463D01*
X65563537Y-107720422D01*
X65641558Y-107908780D01*
X65663063Y-107940964D01*
X65590693Y-108049274D01*
X65512672Y-108237632D01*
X65472898Y-108437591D01*
X65472898Y-108641469D01*
X65512672Y-108841428D01*
X65590693Y-109029786D01*
X65703961Y-109199304D01*
X65770473Y-109265816D01*
X65696063Y-109340226D01*
X65582795Y-109509744D01*
X65504774Y-109698102D01*
X65465000Y-109898061D01*
X65465000Y-110101939D01*
X65504774Y-110301898D01*
X65582795Y-110490256D01*
X65623304Y-110550882D01*
X65590987Y-110599248D01*
X65512966Y-110787606D01*
X65473192Y-110987565D01*
X65473192Y-111191443D01*
X65512966Y-111391402D01*
X65590987Y-111579760D01*
X65704255Y-111749278D01*
X65848418Y-111893441D01*
X66017936Y-112006709D01*
X66206294Y-112084730D01*
X66406253Y-112124504D01*
X66610131Y-112124504D01*
X66810090Y-112084730D01*
X66873000Y-112058672D01*
X66873000Y-113000000D01*
X66875440Y-113024776D01*
X66882667Y-113048601D01*
X66894403Y-113070557D01*
X66910197Y-113089803D01*
X66929443Y-113105597D01*
X66951399Y-113117333D01*
X66975224Y-113124560D01*
X67000000Y-113127000D01*
X68373000Y-113127000D01*
X68373000Y-124290000D01*
X67130971Y-124290000D01*
X67259774Y-124203937D01*
X67403937Y-124059774D01*
X67517205Y-123890256D01*
X67595226Y-123701898D01*
X67635000Y-123501939D01*
X67635000Y-123298061D01*
X67595226Y-123098102D01*
X67517205Y-122909744D01*
X67403937Y-122740226D01*
X67259774Y-122596063D01*
X67090256Y-122482795D01*
X66901898Y-122404774D01*
X66701939Y-122365000D01*
X66498061Y-122365000D01*
X66298102Y-122404774D01*
X66285000Y-122410201D01*
X66285000Y-122398061D01*
X66245226Y-122198102D01*
X66167205Y-122009744D01*
X66053937Y-121840226D01*
X65909774Y-121696063D01*
X65740256Y-121582795D01*
X65551898Y-121504774D01*
X65351939Y-121465000D01*
X65148061Y-121465000D01*
X64948102Y-121504774D01*
X64759744Y-121582795D01*
X64590226Y-121696063D01*
X64446063Y-121840226D01*
X64332795Y-122009744D01*
X64254774Y-122198102D01*
X64215000Y-122398061D01*
X64215000Y-122601939D01*
X64254774Y-122801898D01*
X64332795Y-122990256D01*
X64446063Y-123159774D01*
X64590226Y-123303937D01*
X64759744Y-123417205D01*
X64948102Y-123495226D01*
X65148061Y-123535000D01*
X65351939Y-123535000D01*
X65551898Y-123495226D01*
X65565000Y-123489799D01*
X65565000Y-123501939D01*
X65604774Y-123701898D01*
X65682795Y-123890256D01*
X65796063Y-124059774D01*
X65940226Y-124203937D01*
X66069029Y-124290000D01*
X62997593Y-124290000D01*
X63035000Y-124101939D01*
X63035000Y-123898061D01*
X62995226Y-123698102D01*
X62917205Y-123509744D01*
X62803937Y-123340226D01*
X62713711Y-123250000D01*
X62803937Y-123159774D01*
X62917205Y-122990256D01*
X62995226Y-122801898D01*
X63035000Y-122601939D01*
X63035000Y-122398061D01*
X62995226Y-122198102D01*
X62917205Y-122009744D01*
X62803937Y-121840226D01*
X62713711Y-121750000D01*
X62803937Y-121659774D01*
X62917205Y-121490256D01*
X62995226Y-121301898D01*
X63035000Y-121101939D01*
X63035000Y-120898061D01*
X62995226Y-120698102D01*
X62917205Y-120509744D01*
X62803937Y-120340226D01*
X62659774Y-120196063D01*
X62490256Y-120082795D01*
X62301898Y-120004774D01*
X62101939Y-119965000D01*
X61898061Y-119965000D01*
X61698102Y-120004774D01*
X61509744Y-120082795D01*
X61340226Y-120196063D01*
X61250000Y-120286289D01*
X61213711Y-120250000D01*
X61303937Y-120159774D01*
X61417205Y-119990256D01*
X61495226Y-119801898D01*
X61535000Y-119601939D01*
X61535000Y-119398061D01*
X61495226Y-119198102D01*
X61417205Y-119009744D01*
X61303937Y-118840226D01*
X61159774Y-118696063D01*
X60990256Y-118582795D01*
X60801898Y-118504774D01*
X60601939Y-118465000D01*
X60398061Y-118465000D01*
X60198102Y-118504774D01*
X60009744Y-118582795D01*
X59840226Y-118696063D01*
X59750000Y-118786289D01*
X59713711Y-118750000D01*
X59803937Y-118659774D01*
X59917205Y-118490256D01*
X59995226Y-118301898D01*
X60035000Y-118101939D01*
X60035000Y-117898061D01*
X59995226Y-117698102D01*
X59917205Y-117509744D01*
X59803937Y-117340226D01*
X59659774Y-117196063D01*
X59490256Y-117082795D01*
X59301898Y-117004774D01*
X59101939Y-116965000D01*
X58898061Y-116965000D01*
X58698102Y-117004774D01*
X58509744Y-117082795D01*
X58340226Y-117196063D01*
X58250000Y-117286289D01*
X58213711Y-117250000D01*
X58303937Y-117159774D01*
X58417205Y-116990256D01*
X58495226Y-116801898D01*
X58535000Y-116601939D01*
X58535000Y-116398061D01*
X58495226Y-116198102D01*
X58417205Y-116009744D01*
X58303937Y-115840226D01*
X58159774Y-115696063D01*
X57990256Y-115582795D01*
X57801898Y-115504774D01*
X57601939Y-115465000D01*
X57398061Y-115465000D01*
X57198102Y-115504774D01*
X57009744Y-115582795D01*
X56840226Y-115696063D01*
X56696063Y-115840226D01*
X56582795Y-116009744D01*
X56504774Y-116198102D01*
X56465000Y-116398061D01*
X56465000Y-116601939D01*
X56504774Y-116801898D01*
X56582795Y-116990256D01*
X56696063Y-117159774D01*
X56786289Y-117250000D01*
X56696063Y-117340226D01*
X56582795Y-117509744D01*
X56504774Y-117698102D01*
X56465000Y-117898061D01*
X56465000Y-118101939D01*
X56504774Y-118301898D01*
X56582795Y-118490256D01*
X56696063Y-118659774D01*
X56786289Y-118750000D01*
X56696063Y-118840226D01*
X56582795Y-119009744D01*
X56504774Y-119198102D01*
X56465000Y-119398061D01*
X56465000Y-119601939D01*
X56504774Y-119801898D01*
X56582795Y-119990256D01*
X56696063Y-120159774D01*
X56840226Y-120303937D01*
X57009744Y-120417205D01*
X57198102Y-120495226D01*
X57398061Y-120535000D01*
X57601939Y-120535000D01*
X57801898Y-120495226D01*
X57990256Y-120417205D01*
X58159774Y-120303937D01*
X58250000Y-120213711D01*
X58286289Y-120250000D01*
X58196063Y-120340226D01*
X58082795Y-120509744D01*
X58004774Y-120698102D01*
X57965000Y-120898061D01*
X57965000Y-121101939D01*
X58004774Y-121301898D01*
X58082795Y-121490256D01*
X58196063Y-121659774D01*
X58286289Y-121750000D01*
X58196063Y-121840226D01*
X58082795Y-122009744D01*
X58004774Y-122198102D01*
X57965000Y-122398061D01*
X57965000Y-122601939D01*
X58004774Y-122801898D01*
X58082795Y-122990256D01*
X58196063Y-123159774D01*
X58286289Y-123250000D01*
X58250000Y-123286289D01*
X58159774Y-123196063D01*
X57990256Y-123082795D01*
X57801898Y-123004774D01*
X57601939Y-122965000D01*
X57398061Y-122965000D01*
X57198102Y-123004774D01*
X57009744Y-123082795D01*
X56840226Y-123196063D01*
X56696063Y-123340226D01*
X56582795Y-123509744D01*
X56504774Y-123698102D01*
X56465000Y-123898061D01*
X56465000Y-124101939D01*
X56502407Y-124290000D01*
X51534729Y-124290000D01*
X51347216Y-124271614D01*
X51200252Y-124227243D01*
X51064703Y-124155171D01*
X50945742Y-124058148D01*
X50847882Y-123939856D01*
X50774868Y-123804819D01*
X50729471Y-123658167D01*
X50710000Y-123472908D01*
X50710000Y-114627000D01*
X53500000Y-114627000D01*
X53524776Y-114624560D01*
X53548601Y-114617333D01*
X53570557Y-114605597D01*
X53589803Y-114589803D01*
X53605597Y-114570557D01*
X53617333Y-114548601D01*
X53624560Y-114524776D01*
X53627000Y-114500000D01*
X53627000Y-104556414D01*
X53696063Y-104659774D01*
X53840226Y-104803937D01*
X54009744Y-104917205D01*
X54198102Y-104995226D01*
X54398061Y-105035000D01*
X54465000Y-105035000D01*
X54465000Y-105101939D01*
X54504774Y-105301898D01*
X54582795Y-105490256D01*
X54696063Y-105659774D01*
X54786289Y-105750000D01*
X54696063Y-105840226D01*
X54582795Y-106009744D01*
X54504774Y-106198102D01*
X54465000Y-106398061D01*
X54465000Y-106601939D01*
X54504774Y-106801898D01*
X54582795Y-106990256D01*
X54696063Y-107159774D01*
X54786289Y-107250000D01*
X54696063Y-107340226D01*
X54582795Y-107509744D01*
X54504774Y-107698102D01*
X54465000Y-107898061D01*
X54465000Y-108101939D01*
X54504774Y-108301898D01*
X54582795Y-108490256D01*
X54696063Y-108659774D01*
X54786289Y-108750000D01*
X54696063Y-108840226D01*
X54582795Y-109009744D01*
X54504774Y-109198102D01*
X54465000Y-109398061D01*
X54465000Y-109601939D01*
X54504774Y-109801898D01*
X54582795Y-109990256D01*
X54696063Y-110159774D01*
X54786289Y-110250000D01*
X54696063Y-110340226D01*
X54582795Y-110509744D01*
X54504774Y-110698102D01*
X54465000Y-110898061D01*
X54465000Y-111101939D01*
X54504774Y-111301898D01*
X54582795Y-111490256D01*
X54696063Y-111659774D01*
X54840226Y-111803937D01*
X55009744Y-111917205D01*
X55198102Y-111995226D01*
X55398061Y-112035000D01*
X55601939Y-112035000D01*
X55801898Y-111995226D01*
X55990256Y-111917205D01*
X56159774Y-111803937D01*
X56250000Y-111713711D01*
X56340226Y-111803937D01*
X56509744Y-111917205D01*
X56698102Y-111995226D01*
X56898061Y-112035000D01*
X57101939Y-112035000D01*
X57301898Y-111995226D01*
X57490256Y-111917205D01*
X57659774Y-111803937D01*
X57750000Y-111713711D01*
X57840226Y-111803937D01*
X58009744Y-111917205D01*
X58198102Y-111995226D01*
X58398061Y-112035000D01*
X58601939Y-112035000D01*
X58801898Y-111995226D01*
X58990256Y-111917205D01*
X59159774Y-111803937D01*
X59250000Y-111713711D01*
X59340226Y-111803937D01*
X59509744Y-111917205D01*
X59698102Y-111995226D01*
X59898061Y-112035000D01*
X60101939Y-112035000D01*
X60301898Y-111995226D01*
X60490256Y-111917205D01*
X60659774Y-111803937D01*
X60750000Y-111713711D01*
X60840226Y-111803937D01*
X61009744Y-111917205D01*
X61198102Y-111995226D01*
X61398061Y-112035000D01*
X61601939Y-112035000D01*
X61801898Y-111995226D01*
X61990256Y-111917205D01*
X62159774Y-111803937D01*
X62250000Y-111713711D01*
X62340226Y-111803937D01*
X62509744Y-111917205D01*
X62698102Y-111995226D01*
X62898061Y-112035000D01*
X63101939Y-112035000D01*
X63301898Y-111995226D01*
X63490256Y-111917205D01*
X63659774Y-111803937D01*
X63803937Y-111659774D01*
X63917205Y-111490256D01*
X63995226Y-111301898D01*
X64035000Y-111101939D01*
X64035000Y-110898061D01*
X63995226Y-110698102D01*
X63917205Y-110509744D01*
X63803937Y-110340226D01*
X63713711Y-110250000D01*
X63803937Y-110159774D01*
X63917205Y-109990256D01*
X63995226Y-109801898D01*
X64035000Y-109601939D01*
X64035000Y-109398061D01*
X63995226Y-109198102D01*
X63917205Y-109009744D01*
X63803937Y-108840226D01*
X63713711Y-108750000D01*
X63803937Y-108659774D01*
X63917205Y-108490256D01*
X63995226Y-108301898D01*
X64035000Y-108101939D01*
X64035000Y-107898061D01*
X63995226Y-107698102D01*
X63917205Y-107509744D01*
X63803937Y-107340226D01*
X63713711Y-107250000D01*
X63803937Y-107159774D01*
X63917205Y-106990256D01*
X63995226Y-106801898D01*
X64035000Y-106601939D01*
X64035000Y-106398061D01*
X63995226Y-106198102D01*
X63917205Y-106009744D01*
X63803937Y-105840226D01*
X63713711Y-105750000D01*
X63803937Y-105659774D01*
X63917205Y-105490256D01*
X63977295Y-105345186D01*
X64098102Y-105395226D01*
X64298061Y-105435000D01*
X64501939Y-105435000D01*
X64701898Y-105395226D01*
X64890256Y-105317205D01*
X65059774Y-105203937D01*
X65203937Y-105059774D01*
X65317205Y-104890256D01*
X65395226Y-104701898D01*
X65435000Y-104501939D01*
X65435000Y-104298061D01*
X65395226Y-104098102D01*
X65317205Y-103909744D01*
X65203937Y-103740226D01*
X65136762Y-103673051D01*
X73375145Y-103673051D01*
X73375145Y-103876929D01*
X73414919Y-104076888D01*
X73492940Y-104265246D01*
X73606208Y-104434764D01*
X73750371Y-104578927D01*
X73919889Y-104692195D01*
X74108247Y-104770216D01*
X74308206Y-104809990D01*
X74512084Y-104809990D01*
X74712043Y-104770216D01*
X74900401Y-104692195D01*
X75069919Y-104578927D01*
X75214082Y-104434764D01*
X75327350Y-104265246D01*
X75405371Y-104076888D01*
X75445145Y-103876929D01*
X75445145Y-103673051D01*
X75405371Y-103473092D01*
X75327350Y-103284734D01*
X75214082Y-103115216D01*
X75069919Y-102971053D01*
X74900401Y-102857785D01*
X74712043Y-102779764D01*
X74512084Y-102739990D01*
X74308206Y-102739990D01*
X74108247Y-102779764D01*
X73919889Y-102857785D01*
X73750371Y-102971053D01*
X73606208Y-103115216D01*
X73492940Y-103284734D01*
X73414919Y-103473092D01*
X73375145Y-103673051D01*
X65136762Y-103673051D01*
X65081794Y-103618083D01*
X65167205Y-103490256D01*
X65245226Y-103301898D01*
X65285000Y-103101939D01*
X65285000Y-102898061D01*
X65245226Y-102698102D01*
X65167205Y-102509744D01*
X65053937Y-102340226D01*
X64909774Y-102196063D01*
X64740256Y-102082795D01*
X64551898Y-102004774D01*
X64351939Y-101965000D01*
X64148061Y-101965000D01*
X63948102Y-102004774D01*
X63759744Y-102082795D01*
X63590226Y-102196063D01*
X63475813Y-102310476D01*
X63450990Y-102185679D01*
X63372969Y-101997321D01*
X63259701Y-101827803D01*
X63204991Y-101773093D01*
X71038737Y-101773093D01*
X71038737Y-101976971D01*
X71078511Y-102176930D01*
X71156532Y-102365288D01*
X71269800Y-102534806D01*
X71413963Y-102678969D01*
X71583481Y-102792237D01*
X71771839Y-102870258D01*
X71971798Y-102910032D01*
X72175676Y-102910032D01*
X72375635Y-102870258D01*
X72563993Y-102792237D01*
X72733511Y-102678969D01*
X72877674Y-102534806D01*
X72990942Y-102365288D01*
X73068963Y-102176930D01*
X73108737Y-101976971D01*
X73108737Y-101773093D01*
X73068963Y-101573134D01*
X72990942Y-101384776D01*
X72877674Y-101215258D01*
X72733511Y-101071095D01*
X72563993Y-100957827D01*
X72375635Y-100879806D01*
X72175676Y-100840032D01*
X71971798Y-100840032D01*
X71771839Y-100879806D01*
X71583481Y-100957827D01*
X71413963Y-101071095D01*
X71269800Y-101215258D01*
X71156532Y-101384776D01*
X71078511Y-101573134D01*
X71038737Y-101773093D01*
X63204991Y-101773093D01*
X63115538Y-101683640D01*
X62946020Y-101570372D01*
X62757662Y-101492351D01*
X62557703Y-101452577D01*
X62353825Y-101452577D01*
X62153866Y-101492351D01*
X61965508Y-101570372D01*
X61830764Y-101660405D01*
X61696020Y-101570372D01*
X61507662Y-101492351D01*
X61307703Y-101452577D01*
X61103825Y-101452577D01*
X60903866Y-101492351D01*
X60715508Y-101570372D01*
X60552266Y-101679446D01*
X60395830Y-101574919D01*
X60207472Y-101496898D01*
X60007513Y-101457124D01*
X59803635Y-101457124D01*
X59603676Y-101496898D01*
X59415318Y-101574919D01*
X59280574Y-101664952D01*
X59145830Y-101574919D01*
X58957472Y-101496898D01*
X58757513Y-101457124D01*
X58553635Y-101457124D01*
X58353676Y-101496898D01*
X58165318Y-101574919D01*
X58014390Y-101675765D01*
X58013593Y-101674968D01*
X57844075Y-101561700D01*
X57655717Y-101483679D01*
X57455758Y-101443905D01*
X57251880Y-101443905D01*
X57051921Y-101483679D01*
X56863563Y-101561700D01*
X56694045Y-101674968D01*
X56549882Y-101819131D01*
X56436614Y-101988649D01*
X56358593Y-102177007D01*
X56318819Y-102376966D01*
X56318819Y-102580844D01*
X56358593Y-102780803D01*
X56436614Y-102969161D01*
X56549882Y-103138679D01*
X56694045Y-103282842D01*
X56863563Y-103396110D01*
X57051921Y-103474131D01*
X57251880Y-103513905D01*
X57455758Y-103513905D01*
X57655717Y-103474131D01*
X57844075Y-103396110D01*
X57995003Y-103295264D01*
X57995800Y-103296061D01*
X58165318Y-103409329D01*
X58353676Y-103487350D01*
X58553635Y-103527124D01*
X58757513Y-103527124D01*
X58957472Y-103487350D01*
X59145830Y-103409329D01*
X59280574Y-103319296D01*
X59415318Y-103409329D01*
X59603676Y-103487350D01*
X59803635Y-103527124D01*
X60007513Y-103527124D01*
X60207472Y-103487350D01*
X60395830Y-103409329D01*
X60559072Y-103300255D01*
X60715508Y-103404782D01*
X60903866Y-103482803D01*
X61103825Y-103522577D01*
X61307703Y-103522577D01*
X61507662Y-103482803D01*
X61696020Y-103404782D01*
X61830764Y-103314749D01*
X61965508Y-103404782D01*
X62153866Y-103482803D01*
X62353825Y-103522577D01*
X62557703Y-103522577D01*
X62757662Y-103482803D01*
X62946020Y-103404782D01*
X63115538Y-103291514D01*
X63229951Y-103177101D01*
X63254774Y-103301898D01*
X63332795Y-103490256D01*
X63446063Y-103659774D01*
X63568206Y-103781917D01*
X63482795Y-103909744D01*
X63422705Y-104054814D01*
X63301898Y-104004774D01*
X63101939Y-103965000D01*
X62898061Y-103965000D01*
X62698102Y-104004774D01*
X62509744Y-104082795D01*
X62340226Y-104196063D01*
X62250000Y-104286289D01*
X62159774Y-104196063D01*
X61990256Y-104082795D01*
X61801898Y-104004774D01*
X61601939Y-103965000D01*
X61398061Y-103965000D01*
X61198102Y-104004774D01*
X61009744Y-104082795D01*
X60840226Y-104196063D01*
X60750000Y-104286289D01*
X60659774Y-104196063D01*
X60490256Y-104082795D01*
X60301898Y-104004774D01*
X60101939Y-103965000D01*
X59898061Y-103965000D01*
X59698102Y-104004774D01*
X59509744Y-104082795D01*
X59340226Y-104196063D01*
X59250000Y-104286289D01*
X59159774Y-104196063D01*
X58990256Y-104082795D01*
X58801898Y-104004774D01*
X58601939Y-103965000D01*
X58398061Y-103965000D01*
X58198102Y-104004774D01*
X58009744Y-104082795D01*
X57840226Y-104196063D01*
X57750000Y-104286289D01*
X57659774Y-104196063D01*
X57490256Y-104082795D01*
X57301898Y-104004774D01*
X57101939Y-103965000D01*
X56898061Y-103965000D01*
X56698102Y-104004774D01*
X56509744Y-104082795D01*
X56340226Y-104196063D01*
X56250000Y-104286289D01*
X56159774Y-104196063D01*
X55990256Y-104082795D01*
X55801898Y-104004774D01*
X55601939Y-103965000D01*
X55535000Y-103965000D01*
X55535000Y-103898061D01*
X55495226Y-103698102D01*
X55417205Y-103509744D01*
X55303937Y-103340226D01*
X55159774Y-103196063D01*
X54990256Y-103082795D01*
X54801898Y-103004774D01*
X54601939Y-102965000D01*
X54398061Y-102965000D01*
X54198102Y-103004774D01*
X54009744Y-103082795D01*
X53840226Y-103196063D01*
X53696063Y-103340226D01*
X53627000Y-103443586D01*
X53627000Y-101000000D01*
X53624560Y-100975224D01*
X53617333Y-100951399D01*
X53605597Y-100929443D01*
X53589803Y-100910197D01*
X53570557Y-100894403D01*
X53548601Y-100882667D01*
X53524776Y-100875440D01*
X53500000Y-100873000D01*
X50710000Y-100873000D01*
X50710000Y-100167412D01*
X50873898Y-100217130D01*
X51055335Y-100235000D01*
X51876665Y-100235000D01*
X52058102Y-100217130D01*
X52290901Y-100146511D01*
X52505449Y-100031833D01*
X52693502Y-99877502D01*
X52847833Y-99689449D01*
X52962511Y-99474901D01*
X53033130Y-99242102D01*
X53056975Y-99000000D01*
X53033130Y-98757898D01*
X53030117Y-98747965D01*
X53109619Y-98866949D01*
X53299051Y-99056381D01*
X53521799Y-99205216D01*
X53769303Y-99307736D01*
X54032052Y-99360000D01*
X54299948Y-99360000D01*
X54562697Y-99307736D01*
X54810201Y-99205216D01*
X55032949Y-99056381D01*
X55191269Y-98898061D01*
X55465000Y-98898061D01*
X55465000Y-99101939D01*
X55504774Y-99301898D01*
X55582795Y-99490256D01*
X55696063Y-99659774D01*
X55840226Y-99803937D01*
X56009744Y-99917205D01*
X56198102Y-99995226D01*
X56398061Y-100035000D01*
X56601939Y-100035000D01*
X56801898Y-99995226D01*
X56990256Y-99917205D01*
X57149995Y-99810471D01*
X57309733Y-99917205D01*
X57498091Y-99995226D01*
X57698050Y-100035000D01*
X57901928Y-100035000D01*
X58101887Y-99995226D01*
X58290245Y-99917205D01*
X58459763Y-99803937D01*
X58524995Y-99738706D01*
X58590226Y-99803937D01*
X58759744Y-99917205D01*
X58948102Y-99995226D01*
X59148061Y-100035000D01*
X59351939Y-100035000D01*
X59551898Y-99995226D01*
X59740256Y-99917205D01*
X59898908Y-99811197D01*
X59958439Y-99850974D01*
X60146797Y-99928995D01*
X60346756Y-99968769D01*
X60550634Y-99968769D01*
X60750593Y-99928995D01*
X60938951Y-99850974D01*
X61108469Y-99737706D01*
X61252632Y-99593543D01*
X61365900Y-99424025D01*
X61443921Y-99235667D01*
X61483695Y-99035708D01*
X61483695Y-98831830D01*
X61443921Y-98631871D01*
X61365900Y-98443513D01*
X61252632Y-98273995D01*
X61108469Y-98129832D01*
X60938951Y-98016564D01*
X60750593Y-97938543D01*
X60550634Y-97898769D01*
X60346756Y-97898769D01*
X60146797Y-97938543D01*
X59958439Y-98016564D01*
X59799787Y-98122572D01*
X59740256Y-98082795D01*
X59551898Y-98004774D01*
X59351939Y-97965000D01*
X59148061Y-97965000D01*
X58948102Y-98004774D01*
X58759744Y-98082795D01*
X58590226Y-98196063D01*
X58524995Y-98261295D01*
X58459763Y-98196063D01*
X58290245Y-98082795D01*
X58101887Y-98004774D01*
X57901928Y-97965000D01*
X57698050Y-97965000D01*
X57498091Y-98004774D01*
X57309733Y-98082795D01*
X57149995Y-98189529D01*
X56990256Y-98082795D01*
X56801898Y-98004774D01*
X56601939Y-97965000D01*
X56398061Y-97965000D01*
X56198102Y-98004774D01*
X56009744Y-98082795D01*
X55840226Y-98196063D01*
X55696063Y-98340226D01*
X55582795Y-98509744D01*
X55504774Y-98698102D01*
X55465000Y-98898061D01*
X55191269Y-98898061D01*
X55222381Y-98866949D01*
X55371216Y-98644201D01*
X55473736Y-98396697D01*
X55526000Y-98133948D01*
X55526000Y-98035000D01*
X55601939Y-98035000D01*
X55801898Y-97995226D01*
X55990256Y-97917205D01*
X56018907Y-97898061D01*
X87465000Y-97898061D01*
X87465000Y-98101939D01*
X87504774Y-98301898D01*
X87582795Y-98490256D01*
X87696063Y-98659774D01*
X87840226Y-98803937D01*
X88009744Y-98917205D01*
X88198102Y-98995226D01*
X88398061Y-99035000D01*
X88601939Y-99035000D01*
X88801898Y-98995226D01*
X88990256Y-98917205D01*
X89159774Y-98803937D01*
X89303937Y-98659774D01*
X89417205Y-98490256D01*
X89495226Y-98301898D01*
X89535000Y-98101939D01*
X89535000Y-97898061D01*
X89495226Y-97698102D01*
X89417205Y-97509744D01*
X89303937Y-97340226D01*
X89159774Y-97196063D01*
X88990256Y-97082795D01*
X88801898Y-97004774D01*
X88601939Y-96965000D01*
X88398061Y-96965000D01*
X88198102Y-97004774D01*
X88009744Y-97082795D01*
X87840226Y-97196063D01*
X87696063Y-97340226D01*
X87582795Y-97509744D01*
X87504774Y-97698102D01*
X87465000Y-97898061D01*
X56018907Y-97898061D01*
X56159774Y-97803937D01*
X56303937Y-97659774D01*
X56417205Y-97490256D01*
X56495226Y-97301898D01*
X56535000Y-97101939D01*
X56535000Y-96898061D01*
X56495226Y-96698102D01*
X56417205Y-96509744D01*
X56303937Y-96340226D01*
X56159774Y-96196063D01*
X55990256Y-96082795D01*
X55801898Y-96004774D01*
X55601939Y-95965000D01*
X55398061Y-95965000D01*
X55198102Y-96004774D01*
X55009744Y-96082795D01*
X54840226Y-96196063D01*
X54696063Y-96340226D01*
X54582795Y-96509744D01*
X54511417Y-96682064D01*
X54299948Y-96640000D01*
X54032052Y-96640000D01*
X53769303Y-96692264D01*
X53521799Y-96794784D01*
X53299051Y-96943619D01*
X53109619Y-97133051D01*
X52960784Y-97355799D01*
X52858264Y-97603303D01*
X52806000Y-97866052D01*
X52806000Y-98133948D01*
X52838984Y-98299768D01*
X52693502Y-98122498D01*
X52505449Y-97968167D01*
X52290901Y-97853489D01*
X52058102Y-97782870D01*
X51876665Y-97765000D01*
X51055335Y-97765000D01*
X50873898Y-97782870D01*
X50710000Y-97832588D01*
X50710000Y-93167412D01*
X50873898Y-93217130D01*
X51055335Y-93235000D01*
X51876665Y-93235000D01*
X52058102Y-93217130D01*
X52290901Y-93146511D01*
X52505449Y-93031833D01*
X52693502Y-92877502D01*
X52838984Y-92700232D01*
X52806000Y-92866052D01*
X52806000Y-93133948D01*
X52858264Y-93396697D01*
X52960784Y-93644201D01*
X53109619Y-93866949D01*
X53299051Y-94056381D01*
X53521799Y-94205216D01*
X53769303Y-94307736D01*
X54032052Y-94360000D01*
X54299948Y-94360000D01*
X54562697Y-94307736D01*
X54810201Y-94205216D01*
X54911339Y-94137638D01*
X54994176Y-94337624D01*
X55118388Y-94523520D01*
X55276480Y-94681612D01*
X55462376Y-94805824D01*
X55668933Y-94891383D01*
X55888212Y-94935000D01*
X56111788Y-94935000D01*
X56331067Y-94891383D01*
X56537624Y-94805824D01*
X56723520Y-94681612D01*
X56881612Y-94523520D01*
X56970023Y-94391204D01*
X57038388Y-94493520D01*
X57196480Y-94651612D01*
X57382376Y-94775824D01*
X57588933Y-94861383D01*
X57808212Y-94905000D01*
X58031788Y-94905000D01*
X58251067Y-94861383D01*
X58457624Y-94775824D01*
X58555000Y-94710759D01*
X58652376Y-94775824D01*
X58858933Y-94861383D01*
X59078212Y-94905000D01*
X59301788Y-94905000D01*
X59521067Y-94861383D01*
X59727624Y-94775824D01*
X59825000Y-94710759D01*
X59922376Y-94775824D01*
X60128933Y-94861383D01*
X60348212Y-94905000D01*
X60571788Y-94905000D01*
X60791067Y-94861383D01*
X60997624Y-94775824D01*
X61095000Y-94710759D01*
X61192376Y-94775824D01*
X61398933Y-94861383D01*
X61618212Y-94905000D01*
X61841788Y-94905000D01*
X62061067Y-94861383D01*
X62267624Y-94775824D01*
X62365000Y-94710759D01*
X62462376Y-94775824D01*
X62487264Y-94786133D01*
X62465000Y-94898061D01*
X62465000Y-95101939D01*
X62504774Y-95301898D01*
X62582795Y-95490256D01*
X62696063Y-95659774D01*
X62840226Y-95803937D01*
X63009744Y-95917205D01*
X63198102Y-95995226D01*
X63398061Y-96035000D01*
X63601939Y-96035000D01*
X63732345Y-96009061D01*
X63744176Y-96037624D01*
X63868388Y-96223520D01*
X64026480Y-96381612D01*
X64212376Y-96505824D01*
X64418933Y-96591383D01*
X64638212Y-96635000D01*
X64861788Y-96635000D01*
X65081067Y-96591383D01*
X65287624Y-96505824D01*
X65473520Y-96381612D01*
X65631612Y-96223520D01*
X65755824Y-96037624D01*
X65813633Y-95898061D01*
X71465000Y-95898061D01*
X71465000Y-96101939D01*
X71504774Y-96301898D01*
X71582795Y-96490256D01*
X71696063Y-96659774D01*
X71840226Y-96803937D01*
X72009744Y-96917205D01*
X72198102Y-96995226D01*
X72398061Y-97035000D01*
X72601939Y-97035000D01*
X72801898Y-96995226D01*
X72990256Y-96917205D01*
X73159774Y-96803937D01*
X73250000Y-96713711D01*
X73340226Y-96803937D01*
X73509744Y-96917205D01*
X73698102Y-96995226D01*
X73898061Y-97035000D01*
X74101939Y-97035000D01*
X74301898Y-96995226D01*
X74490256Y-96917205D01*
X74659774Y-96803937D01*
X74750000Y-96713711D01*
X74840226Y-96803937D01*
X75009744Y-96917205D01*
X75198102Y-96995226D01*
X75398061Y-97035000D01*
X75601939Y-97035000D01*
X75801898Y-96995226D01*
X75910511Y-96950236D01*
X75921582Y-96976963D01*
X76100513Y-97244752D01*
X76328248Y-97472487D01*
X76596037Y-97651418D01*
X76893588Y-97774668D01*
X77209467Y-97837500D01*
X77531533Y-97837500D01*
X77847412Y-97774668D01*
X78144963Y-97651418D01*
X78412752Y-97472487D01*
X78599199Y-97286040D01*
X78814457Y-97429871D01*
X79066511Y-97534275D01*
X79334089Y-97587500D01*
X79606911Y-97587500D01*
X79874489Y-97534275D01*
X80126543Y-97429871D01*
X80353386Y-97278299D01*
X80470500Y-97161185D01*
X80587614Y-97278299D01*
X80814457Y-97429871D01*
X81066511Y-97534275D01*
X81334089Y-97587500D01*
X81606911Y-97587500D01*
X81874489Y-97534275D01*
X82126543Y-97429871D01*
X82353386Y-97278299D01*
X82470500Y-97161185D01*
X82587614Y-97278299D01*
X82814457Y-97429871D01*
X83066511Y-97534275D01*
X83334089Y-97587500D01*
X83606911Y-97587500D01*
X83874489Y-97534275D01*
X84126543Y-97429871D01*
X84341801Y-97286040D01*
X84528248Y-97472487D01*
X84796037Y-97651418D01*
X85093588Y-97774668D01*
X85409467Y-97837500D01*
X85731533Y-97837500D01*
X86047412Y-97774668D01*
X86344963Y-97651418D01*
X86612752Y-97472487D01*
X86840487Y-97244752D01*
X87019418Y-96976963D01*
X87142668Y-96679412D01*
X87205500Y-96363533D01*
X87205500Y-96041467D01*
X87142668Y-95725588D01*
X87019418Y-95428037D01*
X86840487Y-95160248D01*
X86612752Y-94932513D01*
X86344963Y-94753582D01*
X86047412Y-94630332D01*
X85731533Y-94567500D01*
X85409467Y-94567500D01*
X85093588Y-94630332D01*
X84796037Y-94753582D01*
X84528248Y-94932513D01*
X84341801Y-95118960D01*
X84126543Y-94975129D01*
X83874489Y-94870725D01*
X83606911Y-94817500D01*
X83334089Y-94817500D01*
X83066511Y-94870725D01*
X82814457Y-94975129D01*
X82587614Y-95126701D01*
X82470500Y-95243815D01*
X82353386Y-95126701D01*
X82126543Y-94975129D01*
X81874489Y-94870725D01*
X81606911Y-94817500D01*
X81334089Y-94817500D01*
X81066511Y-94870725D01*
X80814457Y-94975129D01*
X80587614Y-95126701D01*
X80470500Y-95243815D01*
X80353386Y-95126701D01*
X80126543Y-94975129D01*
X79874489Y-94870725D01*
X79606911Y-94817500D01*
X79334089Y-94817500D01*
X79066511Y-94870725D01*
X78814457Y-94975129D01*
X78599199Y-95118960D01*
X78412752Y-94932513D01*
X78144963Y-94753582D01*
X77847412Y-94630332D01*
X77531533Y-94567500D01*
X77209467Y-94567500D01*
X76893588Y-94630332D01*
X76596037Y-94753582D01*
X76328248Y-94932513D01*
X76102780Y-95157981D01*
X75990256Y-95082795D01*
X75801898Y-95004774D01*
X75601939Y-94965000D01*
X75398061Y-94965000D01*
X75198102Y-95004774D01*
X75009744Y-95082795D01*
X74840226Y-95196063D01*
X74750000Y-95286289D01*
X74659774Y-95196063D01*
X74490256Y-95082795D01*
X74301898Y-95004774D01*
X74101939Y-94965000D01*
X73898061Y-94965000D01*
X73698102Y-95004774D01*
X73509744Y-95082795D01*
X73340226Y-95196063D01*
X73250000Y-95286289D01*
X73159774Y-95196063D01*
X72990256Y-95082795D01*
X72801898Y-95004774D01*
X72601939Y-94965000D01*
X72398061Y-94965000D01*
X72198102Y-95004774D01*
X72009744Y-95082795D01*
X71840226Y-95196063D01*
X71696063Y-95340226D01*
X71582795Y-95509744D01*
X71504774Y-95698102D01*
X71465000Y-95898061D01*
X65813633Y-95898061D01*
X65841383Y-95831067D01*
X65885000Y-95611788D01*
X65885000Y-95388212D01*
X65841383Y-95168933D01*
X65755824Y-94962376D01*
X65631612Y-94776480D01*
X65473520Y-94618388D01*
X65287624Y-94494176D01*
X65081067Y-94408617D01*
X64861788Y-94365000D01*
X64638212Y-94365000D01*
X64418933Y-94408617D01*
X64364656Y-94431099D01*
X64303937Y-94340226D01*
X64159774Y-94196063D01*
X64075389Y-94139679D01*
X64091383Y-94101067D01*
X64114365Y-93985524D01*
X69983000Y-93985524D01*
X69983000Y-94184476D01*
X70021814Y-94379606D01*
X70097950Y-94563414D01*
X70208482Y-94728837D01*
X70349163Y-94869518D01*
X70514586Y-94980050D01*
X70698394Y-95056186D01*
X70893524Y-95095000D01*
X71092476Y-95095000D01*
X71287606Y-95056186D01*
X71471414Y-94980050D01*
X71636837Y-94869518D01*
X71777518Y-94728837D01*
X71888050Y-94563414D01*
X71956541Y-94398061D01*
X89965000Y-94398061D01*
X89965000Y-94601939D01*
X90004774Y-94801898D01*
X90082795Y-94990256D01*
X90196063Y-95159774D01*
X90286289Y-95250000D01*
X90196063Y-95340226D01*
X90082795Y-95509744D01*
X90004774Y-95698102D01*
X89965000Y-95898061D01*
X89965000Y-96101939D01*
X90004774Y-96301898D01*
X90082795Y-96490256D01*
X90196063Y-96659774D01*
X90286289Y-96750000D01*
X90196063Y-96840226D01*
X90082795Y-97009744D01*
X90004774Y-97198102D01*
X89965000Y-97398061D01*
X89965000Y-97601939D01*
X90004774Y-97801898D01*
X90082795Y-97990256D01*
X90196063Y-98159774D01*
X90340226Y-98303937D01*
X90509744Y-98417205D01*
X90698102Y-98495226D01*
X90898061Y-98535000D01*
X91101939Y-98535000D01*
X91301898Y-98495226D01*
X91490256Y-98417205D01*
X91659774Y-98303937D01*
X91750000Y-98213711D01*
X91840226Y-98303937D01*
X92009744Y-98417205D01*
X92198102Y-98495226D01*
X92398061Y-98535000D01*
X92601939Y-98535000D01*
X92801898Y-98495226D01*
X92990256Y-98417205D01*
X93159774Y-98303937D01*
X93303937Y-98159774D01*
X93417205Y-97990256D01*
X93495226Y-97801898D01*
X93535000Y-97601939D01*
X93535000Y-97398061D01*
X93495226Y-97198102D01*
X93417205Y-97009744D01*
X93303937Y-96840226D01*
X93213711Y-96750000D01*
X93303937Y-96659774D01*
X93417205Y-96490256D01*
X93495226Y-96301898D01*
X93535000Y-96101939D01*
X93535000Y-95898061D01*
X93495226Y-95698102D01*
X93417205Y-95509744D01*
X93303937Y-95340226D01*
X93213711Y-95250000D01*
X93303937Y-95159774D01*
X93417205Y-94990256D01*
X93495226Y-94801898D01*
X93535000Y-94601939D01*
X93535000Y-94398061D01*
X93495226Y-94198102D01*
X93417205Y-94009744D01*
X93303937Y-93840226D01*
X93159774Y-93696063D01*
X92990256Y-93582795D01*
X92801898Y-93504774D01*
X92601939Y-93465000D01*
X92398061Y-93465000D01*
X92198102Y-93504774D01*
X92009744Y-93582795D01*
X91840226Y-93696063D01*
X91750000Y-93786289D01*
X91659774Y-93696063D01*
X91490256Y-93582795D01*
X91301898Y-93504774D01*
X91101939Y-93465000D01*
X90898061Y-93465000D01*
X90698102Y-93504774D01*
X90509744Y-93582795D01*
X90340226Y-93696063D01*
X90196063Y-93840226D01*
X90082795Y-94009744D01*
X90004774Y-94198102D01*
X89965000Y-94398061D01*
X71956541Y-94398061D01*
X71964186Y-94379606D01*
X72003000Y-94184476D01*
X72003000Y-93985524D01*
X71964186Y-93790394D01*
X71888050Y-93606586D01*
X71777518Y-93441163D01*
X71636837Y-93300482D01*
X71471414Y-93189950D01*
X71287606Y-93113814D01*
X71092476Y-93075000D01*
X70893524Y-93075000D01*
X70698394Y-93113814D01*
X70514586Y-93189950D01*
X70349163Y-93300482D01*
X70208482Y-93441163D01*
X70097950Y-93606586D01*
X70021814Y-93790394D01*
X69983000Y-93985524D01*
X64114365Y-93985524D01*
X64135000Y-93881788D01*
X64135000Y-93658212D01*
X64091383Y-93438933D01*
X64045112Y-93327226D01*
X64089502Y-93244180D01*
X64125812Y-93124482D01*
X64138072Y-93000000D01*
X64135000Y-92785750D01*
X63976250Y-92627000D01*
X63127000Y-92627000D01*
X63127000Y-92638026D01*
X63111788Y-92635000D01*
X62888212Y-92635000D01*
X62873000Y-92638026D01*
X62873000Y-92627000D01*
X62861974Y-92627000D01*
X62865000Y-92611788D01*
X62865000Y-92388212D01*
X62861974Y-92373000D01*
X62873000Y-92373000D01*
X62873000Y-91523750D01*
X63127000Y-91523750D01*
X63127000Y-92373000D01*
X63976250Y-92373000D01*
X64135000Y-92214250D01*
X64138072Y-92000000D01*
X64125812Y-91875518D01*
X64089502Y-91755820D01*
X64030537Y-91645506D01*
X63951185Y-91548815D01*
X63854494Y-91469463D01*
X63744180Y-91410498D01*
X63624482Y-91374188D01*
X63500000Y-91361928D01*
X63285750Y-91365000D01*
X63127000Y-91523750D01*
X62873000Y-91523750D01*
X62714250Y-91365000D01*
X62500000Y-91361928D01*
X62375518Y-91374188D01*
X62255820Y-91410498D01*
X62172774Y-91454888D01*
X62061067Y-91408617D01*
X61841788Y-91365000D01*
X61618212Y-91365000D01*
X61398933Y-91408617D01*
X61192376Y-91494176D01*
X61095000Y-91559241D01*
X60997624Y-91494176D01*
X60791067Y-91408617D01*
X60571788Y-91365000D01*
X60348212Y-91365000D01*
X60128933Y-91408617D01*
X59922376Y-91494176D01*
X59825000Y-91559241D01*
X59727624Y-91494176D01*
X59521067Y-91408617D01*
X59301788Y-91365000D01*
X59078212Y-91365000D01*
X58858933Y-91408617D01*
X58652376Y-91494176D01*
X58555000Y-91559241D01*
X58457624Y-91494176D01*
X58251067Y-91408617D01*
X58031788Y-91365000D01*
X57808212Y-91365000D01*
X57588933Y-91408617D01*
X57382376Y-91494176D01*
X57196480Y-91618388D01*
X57038388Y-91776480D01*
X56914176Y-91962376D01*
X56828617Y-92168933D01*
X56785000Y-92388212D01*
X56785000Y-92611788D01*
X56828617Y-92831067D01*
X56914176Y-93037624D01*
X56979241Y-93135000D01*
X56949977Y-93178796D01*
X56881612Y-93076480D01*
X56723520Y-92918388D01*
X56537624Y-92794176D01*
X56331067Y-92708617D01*
X56111788Y-92665000D01*
X55888212Y-92665000D01*
X55668933Y-92708617D01*
X55507948Y-92775299D01*
X55473736Y-92603303D01*
X55371216Y-92355799D01*
X55222381Y-92133051D01*
X55032949Y-91943619D01*
X54810201Y-91794784D01*
X54562697Y-91692264D01*
X54299948Y-91640000D01*
X54032052Y-91640000D01*
X53769303Y-91692264D01*
X53521799Y-91794784D01*
X53299051Y-91943619D01*
X53109619Y-92133051D01*
X53030117Y-92252035D01*
X53033130Y-92242102D01*
X53056975Y-92000000D01*
X53033130Y-91757898D01*
X52962511Y-91525099D01*
X52847833Y-91310551D01*
X52693502Y-91122498D01*
X52505449Y-90968167D01*
X52290901Y-90853489D01*
X52058102Y-90782870D01*
X51876665Y-90765000D01*
X51227058Y-90765000D01*
X51341833Y-90729471D01*
X51527092Y-90710000D01*
X70195896Y-90710000D01*
X70097950Y-90856586D01*
M02*
