G04 #@! TF.GenerationSoftware,KiCad,Pcbnew,5.1.6-c6e7f7d~86~ubuntu18.04.1*
G04 #@! TF.CreationDate,2020-06-02T09:04:51-04:00*
G04 #@! TF.ProjectId,E73 SCR v2,45373320-5343-4522-9076-322e6b696361,rev?*
G04 #@! TF.SameCoordinates,Original*
G04 #@! TF.FileFunction,Legend,Bot*
G04 #@! TF.FilePolarity,Positive*
%FSLAX46Y46*%
G04 Gerber Fmt 4.6, Leading zero omitted, Abs format (unit mm)*
G04 Created by KiCad (PCBNEW 5.1.6-c6e7f7d~86~ubuntu18.04.1) date 2020-06-02 09:04:51*
%MOMM*%
%LPD*%
G01*
G04 APERTURE LIST*
%ADD10C,0.150000*%
%ADD11C,0.010000*%
G04 APERTURE END LIST*
D10*
X68642857Y-101778571D02*
X68500000Y-101826190D01*
X68452380Y-101873809D01*
X68404761Y-101969047D01*
X68404761Y-102111904D01*
X68452380Y-102207142D01*
X68500000Y-102254761D01*
X68595238Y-102302380D01*
X68976190Y-102302380D01*
X68976190Y-101302380D01*
X68642857Y-101302380D01*
X68547619Y-101350000D01*
X68500000Y-101397619D01*
X68452380Y-101492857D01*
X68452380Y-101588095D01*
X68500000Y-101683333D01*
X68547619Y-101730952D01*
X68642857Y-101778571D01*
X68976190Y-101778571D01*
X68119047Y-101302380D02*
X67785714Y-102302380D01*
X67452380Y-101302380D01*
X67119047Y-102302380D02*
X67119047Y-101302380D01*
X67119047Y-101778571D02*
X66547619Y-101778571D01*
X66547619Y-102302380D02*
X66547619Y-101302380D01*
X65309523Y-101921428D02*
X64547619Y-101921428D01*
X63357142Y-102016666D02*
X62880952Y-102016666D01*
X63452380Y-102302380D02*
X63119047Y-101302380D01*
X62785714Y-102302380D01*
X62119047Y-101778571D02*
X61976190Y-101826190D01*
X61928571Y-101873809D01*
X61880952Y-101969047D01*
X61880952Y-102111904D01*
X61928571Y-102207142D01*
X61976190Y-102254761D01*
X62071428Y-102302380D01*
X62452380Y-102302380D01*
X62452380Y-101302380D01*
X62119047Y-101302380D01*
X62023809Y-101350000D01*
X61976190Y-101397619D01*
X61928571Y-101492857D01*
X61928571Y-101588095D01*
X61976190Y-101683333D01*
X62023809Y-101730952D01*
X62119047Y-101778571D01*
X62452380Y-101778571D01*
X61023809Y-101635714D02*
X61023809Y-102302380D01*
X61261904Y-101254761D02*
X61500000Y-101969047D01*
X60880952Y-101969047D01*
X60500000Y-101778571D02*
X60166666Y-101778571D01*
X60023809Y-102302380D02*
X60500000Y-102302380D01*
X60500000Y-101302380D01*
X60023809Y-101302380D01*
X59595238Y-102302380D02*
X59595238Y-101302380D01*
X59023809Y-102302380D01*
X59023809Y-101302380D01*
X72428571Y-103285714D02*
X72428571Y-103952380D01*
X72428571Y-103380952D02*
X72380952Y-103333333D01*
X72285714Y-103285714D01*
X72142857Y-103285714D01*
X72047619Y-103333333D01*
X72000000Y-103428571D01*
X72000000Y-103952380D01*
X70952380Y-103952380D02*
X71285714Y-103476190D01*
X71523809Y-103952380D02*
X71523809Y-102952380D01*
X71142857Y-102952380D01*
X71047619Y-103000000D01*
X71000000Y-103047619D01*
X70952380Y-103142857D01*
X70952380Y-103285714D01*
X71000000Y-103380952D01*
X71047619Y-103428571D01*
X71142857Y-103476190D01*
X71523809Y-103476190D01*
X70190476Y-103428571D02*
X70523809Y-103428571D01*
X70523809Y-103952380D02*
X70523809Y-102952380D01*
X70047619Y-102952380D01*
X69190476Y-102952380D02*
X69666666Y-102952380D01*
X69714285Y-103428571D01*
X69666666Y-103380952D01*
X69571428Y-103333333D01*
X69333333Y-103333333D01*
X69238095Y-103380952D01*
X69190476Y-103428571D01*
X69142857Y-103523809D01*
X69142857Y-103761904D01*
X69190476Y-103857142D01*
X69238095Y-103904761D01*
X69333333Y-103952380D01*
X69571428Y-103952380D01*
X69666666Y-103904761D01*
X69714285Y-103857142D01*
X68761904Y-103047619D02*
X68714285Y-103000000D01*
X68619047Y-102952380D01*
X68380952Y-102952380D01*
X68285714Y-103000000D01*
X68238095Y-103047619D01*
X68190476Y-103142857D01*
X68190476Y-103238095D01*
X68238095Y-103380952D01*
X68809523Y-103952380D01*
X68190476Y-103952380D01*
X67619047Y-103380952D02*
X67714285Y-103333333D01*
X67761904Y-103285714D01*
X67809523Y-103190476D01*
X67809523Y-103142857D01*
X67761904Y-103047619D01*
X67714285Y-103000000D01*
X67619047Y-102952380D01*
X67428571Y-102952380D01*
X67333333Y-103000000D01*
X67285714Y-103047619D01*
X67238095Y-103142857D01*
X67238095Y-103190476D01*
X67285714Y-103285714D01*
X67333333Y-103333333D01*
X67428571Y-103380952D01*
X67619047Y-103380952D01*
X67714285Y-103428571D01*
X67761904Y-103476190D01*
X67809523Y-103571428D01*
X67809523Y-103761904D01*
X67761904Y-103857142D01*
X67714285Y-103904761D01*
X67619047Y-103952380D01*
X67428571Y-103952380D01*
X67333333Y-103904761D01*
X67285714Y-103857142D01*
X67238095Y-103761904D01*
X67238095Y-103571428D01*
X67285714Y-103476190D01*
X67333333Y-103428571D01*
X67428571Y-103380952D01*
X66380952Y-103285714D02*
X66380952Y-103952380D01*
X66619047Y-102904761D02*
X66857142Y-103619047D01*
X66238095Y-103619047D01*
X65666666Y-102952380D02*
X65571428Y-102952380D01*
X65476190Y-103000000D01*
X65428571Y-103047619D01*
X65380952Y-103142857D01*
X65333333Y-103333333D01*
X65333333Y-103571428D01*
X65380952Y-103761904D01*
X65428571Y-103857142D01*
X65476190Y-103904761D01*
X65571428Y-103952380D01*
X65666666Y-103952380D01*
X65761904Y-103904761D01*
X65809523Y-103857142D01*
X65857142Y-103761904D01*
X65904761Y-103571428D01*
X65904761Y-103333333D01*
X65857142Y-103142857D01*
X65809523Y-103047619D01*
X65761904Y-103000000D01*
X65666666Y-102952380D01*
X63809523Y-103428571D02*
X63666666Y-103476190D01*
X63619047Y-103523809D01*
X63571428Y-103619047D01*
X63571428Y-103761904D01*
X63619047Y-103857142D01*
X63666666Y-103904761D01*
X63761904Y-103952380D01*
X64142857Y-103952380D01*
X64142857Y-102952380D01*
X63809523Y-102952380D01*
X63714285Y-103000000D01*
X63666666Y-103047619D01*
X63619047Y-103142857D01*
X63619047Y-103238095D01*
X63666666Y-103333333D01*
X63714285Y-103380952D01*
X63809523Y-103428571D01*
X64142857Y-103428571D01*
X63142857Y-103952380D02*
X63142857Y-103285714D01*
X63142857Y-103476190D02*
X63095238Y-103380952D01*
X63047619Y-103333333D01*
X62952380Y-103285714D01*
X62857142Y-103285714D01*
X62142857Y-103904761D02*
X62238095Y-103952380D01*
X62428571Y-103952380D01*
X62523809Y-103904761D01*
X62571428Y-103809523D01*
X62571428Y-103428571D01*
X62523809Y-103333333D01*
X62428571Y-103285714D01*
X62238095Y-103285714D01*
X62142857Y-103333333D01*
X62095238Y-103428571D01*
X62095238Y-103523809D01*
X62571428Y-103619047D01*
X61238095Y-103952380D02*
X61238095Y-103428571D01*
X61285714Y-103333333D01*
X61380952Y-103285714D01*
X61571428Y-103285714D01*
X61666666Y-103333333D01*
X61238095Y-103904761D02*
X61333333Y-103952380D01*
X61571428Y-103952380D01*
X61666666Y-103904761D01*
X61714285Y-103809523D01*
X61714285Y-103714285D01*
X61666666Y-103619047D01*
X61571428Y-103571428D01*
X61333333Y-103571428D01*
X61238095Y-103523809D01*
X60761904Y-103952380D02*
X60761904Y-102952380D01*
X60666666Y-103571428D02*
X60380952Y-103952380D01*
X60380952Y-103285714D02*
X60761904Y-103666666D01*
X59809523Y-103952380D02*
X59904761Y-103904761D01*
X59952380Y-103857142D01*
X60000000Y-103761904D01*
X60000000Y-103476190D01*
X59952380Y-103380952D01*
X59904761Y-103333333D01*
X59809523Y-103285714D01*
X59666666Y-103285714D01*
X59571428Y-103333333D01*
X59523809Y-103380952D01*
X59476190Y-103476190D01*
X59476190Y-103761904D01*
X59523809Y-103857142D01*
X59571428Y-103904761D01*
X59666666Y-103952380D01*
X59809523Y-103952380D01*
X58619047Y-103285714D02*
X58619047Y-103952380D01*
X59047619Y-103285714D02*
X59047619Y-103809523D01*
X59000000Y-103904761D01*
X58904761Y-103952380D01*
X58761904Y-103952380D01*
X58666666Y-103904761D01*
X58619047Y-103857142D01*
X58285714Y-103285714D02*
X57904761Y-103285714D01*
X58142857Y-102952380D02*
X58142857Y-103809523D01*
X58095238Y-103904761D01*
X58000000Y-103952380D01*
X57904761Y-103952380D01*
X56904761Y-103285714D02*
X56666666Y-103952380D01*
X56428571Y-103285714D01*
X56095238Y-103047619D02*
X56047619Y-103000000D01*
X55952380Y-102952380D01*
X55714285Y-102952380D01*
X55619047Y-103000000D01*
X55571428Y-103047619D01*
X55523809Y-103142857D01*
X55523809Y-103238095D01*
X55571428Y-103380952D01*
X56142857Y-103952380D01*
X55523809Y-103952380D01*
X67285714Y-104697619D02*
X67238095Y-104650000D01*
X67142857Y-104602380D01*
X66904761Y-104602380D01*
X66809523Y-104650000D01*
X66761904Y-104697619D01*
X66714285Y-104792857D01*
X66714285Y-104888095D01*
X66761904Y-105030952D01*
X67333333Y-105602380D01*
X66714285Y-105602380D01*
X66095238Y-104602380D02*
X66000000Y-104602380D01*
X65904761Y-104650000D01*
X65857142Y-104697619D01*
X65809523Y-104792857D01*
X65761904Y-104983333D01*
X65761904Y-105221428D01*
X65809523Y-105411904D01*
X65857142Y-105507142D01*
X65904761Y-105554761D01*
X66000000Y-105602380D01*
X66095238Y-105602380D01*
X66190476Y-105554761D01*
X66238095Y-105507142D01*
X66285714Y-105411904D01*
X66333333Y-105221428D01*
X66333333Y-104983333D01*
X66285714Y-104792857D01*
X66238095Y-104697619D01*
X66190476Y-104650000D01*
X66095238Y-104602380D01*
X65380952Y-104697619D02*
X65333333Y-104650000D01*
X65238095Y-104602380D01*
X65000000Y-104602380D01*
X64904761Y-104650000D01*
X64857142Y-104697619D01*
X64809523Y-104792857D01*
X64809523Y-104888095D01*
X64857142Y-105030952D01*
X65428571Y-105602380D01*
X64809523Y-105602380D01*
X64190476Y-104602380D02*
X64095238Y-104602380D01*
X64000000Y-104650000D01*
X63952380Y-104697619D01*
X63904761Y-104792857D01*
X63857142Y-104983333D01*
X63857142Y-105221428D01*
X63904761Y-105411904D01*
X63952380Y-105507142D01*
X64000000Y-105554761D01*
X64095238Y-105602380D01*
X64190476Y-105602380D01*
X64285714Y-105554761D01*
X64333333Y-105507142D01*
X64380952Y-105411904D01*
X64428571Y-105221428D01*
X64428571Y-104983333D01*
X64380952Y-104792857D01*
X64333333Y-104697619D01*
X64285714Y-104650000D01*
X64190476Y-104602380D01*
X63428571Y-105221428D02*
X62666666Y-105221428D01*
X62000000Y-104602380D02*
X61904761Y-104602380D01*
X61809523Y-104650000D01*
X61761904Y-104697619D01*
X61714285Y-104792857D01*
X61666666Y-104983333D01*
X61666666Y-105221428D01*
X61714285Y-105411904D01*
X61761904Y-105507142D01*
X61809523Y-105554761D01*
X61904761Y-105602380D01*
X62000000Y-105602380D01*
X62095238Y-105554761D01*
X62142857Y-105507142D01*
X62190476Y-105411904D01*
X62238095Y-105221428D01*
X62238095Y-104983333D01*
X62190476Y-104792857D01*
X62142857Y-104697619D01*
X62095238Y-104650000D01*
X62000000Y-104602380D01*
X60809523Y-104602380D02*
X61000000Y-104602380D01*
X61095238Y-104650000D01*
X61142857Y-104697619D01*
X61238095Y-104840476D01*
X61285714Y-105030952D01*
X61285714Y-105411904D01*
X61238095Y-105507142D01*
X61190476Y-105554761D01*
X61095238Y-105602380D01*
X60904761Y-105602380D01*
X60809523Y-105554761D01*
X60761904Y-105507142D01*
X60714285Y-105411904D01*
X60714285Y-105173809D01*
X60761904Y-105078571D01*
X60809523Y-105030952D01*
X60904761Y-104983333D01*
X61095238Y-104983333D01*
X61190476Y-105030952D01*
X61238095Y-105078571D01*
X61285714Y-105173809D01*
D11*
G36*
X63352298Y-106426258D02*
G01*
X63020909Y-106482286D01*
X62841876Y-106537229D01*
X62431271Y-106781609D01*
X62039286Y-107139859D01*
X61717268Y-107559710D01*
X61576378Y-107825476D01*
X61376263Y-108287777D01*
X60910596Y-108289694D01*
X60279187Y-108358976D01*
X59716308Y-108552902D01*
X59245961Y-108858715D01*
X58892145Y-109263658D01*
X58810595Y-109405916D01*
X58672443Y-109806937D01*
X58606366Y-110285057D01*
X58615530Y-110769536D01*
X58703101Y-111189635D01*
X58727875Y-111254000D01*
X59032210Y-111767510D01*
X59456574Y-112170759D01*
X59982594Y-112451050D01*
X60591897Y-112595686D01*
X60681865Y-112604313D01*
X61269879Y-112651000D01*
X60793904Y-113258653D01*
X60584553Y-113530443D01*
X60422140Y-113749903D01*
X60330164Y-113884854D01*
X60317930Y-113910395D01*
X60394059Y-113940286D01*
X60588540Y-113968100D01*
X60737549Y-113980076D01*
X61157168Y-114005667D01*
X60560880Y-114795609D01*
X60330060Y-115106555D01*
X60145857Y-115364629D01*
X60027317Y-115542435D01*
X59993094Y-115612312D01*
X60068462Y-115575026D01*
X60265619Y-115456125D01*
X60565371Y-115267785D01*
X60948521Y-115022182D01*
X61395875Y-114731492D01*
X61799596Y-114466410D01*
X63577596Y-113293746D01*
X62877181Y-113268707D01*
X62176765Y-113243667D01*
X62700925Y-112608667D01*
X64917261Y-112606807D01*
X65595200Y-112605383D01*
X66126469Y-112601369D01*
X66533727Y-112593245D01*
X66839631Y-112579491D01*
X67066842Y-112558584D01*
X67238018Y-112529005D01*
X67375819Y-112489233D01*
X67502904Y-112437746D01*
X67514596Y-112432483D01*
X68028188Y-112116403D01*
X68409697Y-111701144D01*
X68651277Y-111202590D01*
X68745077Y-110636625D01*
X68700865Y-110163566D01*
X66502838Y-110163566D01*
X66352551Y-110352732D01*
X66106614Y-110655262D01*
X65863604Y-110942244D01*
X65648923Y-111184998D01*
X65487973Y-111354841D01*
X65406159Y-111423095D01*
X65404315Y-111423334D01*
X65319153Y-111372883D01*
X65140171Y-111239209D01*
X64902512Y-111048824D01*
X64846068Y-111002150D01*
X64601324Y-110802757D01*
X64408953Y-110653743D01*
X64303542Y-110581699D01*
X64295421Y-110578817D01*
X64230775Y-110641248D01*
X64081728Y-110814781D01*
X63867281Y-111076420D01*
X63606438Y-111403172D01*
X63457611Y-111592667D01*
X62663976Y-112608667D01*
X61985831Y-112608667D01*
X61652686Y-112606201D01*
X61461472Y-112593901D01*
X61384804Y-112564409D01*
X61395298Y-112510370D01*
X61434259Y-112460500D01*
X61600261Y-112259055D01*
X61823328Y-111978433D01*
X62084138Y-111644065D01*
X62363366Y-111281383D01*
X62641690Y-110915817D01*
X62899785Y-110572798D01*
X63118329Y-110277758D01*
X63277996Y-110056127D01*
X63359465Y-109933337D01*
X63365930Y-109918304D01*
X63301878Y-109841109D01*
X63129362Y-109690437D01*
X62877843Y-109491048D01*
X62688596Y-109349000D01*
X62402350Y-109133769D01*
X62175963Y-108954656D01*
X62038749Y-108835369D01*
X62011263Y-108801200D01*
X62086626Y-108756778D01*
X62291469Y-108673201D01*
X62593925Y-108562702D01*
X62937970Y-108445478D01*
X63864676Y-108139319D01*
X65183757Y-109151442D01*
X66502838Y-110163566D01*
X68700865Y-110163566D01*
X68690490Y-110052560D01*
X68604056Y-109753111D01*
X68464262Y-109507973D01*
X68229643Y-109246757D01*
X68196794Y-109214535D01*
X67811365Y-108909737D01*
X67384530Y-108723013D01*
X66872369Y-108638384D01*
X66588104Y-108629334D01*
X66295640Y-108609221D01*
X66166767Y-108548732D01*
X66159863Y-108523500D01*
X66113249Y-108334222D01*
X65990991Y-108056516D01*
X65819216Y-107737294D01*
X65624052Y-107423464D01*
X65431628Y-107161937D01*
X65351763Y-107072660D01*
X64886228Y-106701199D01*
X64359586Y-106481201D01*
X63751632Y-106404456D01*
X63706572Y-106404234D01*
X63352298Y-106426258D01*
G37*
X63352298Y-106426258D02*
X63020909Y-106482286D01*
X62841876Y-106537229D01*
X62431271Y-106781609D01*
X62039286Y-107139859D01*
X61717268Y-107559710D01*
X61576378Y-107825476D01*
X61376263Y-108287777D01*
X60910596Y-108289694D01*
X60279187Y-108358976D01*
X59716308Y-108552902D01*
X59245961Y-108858715D01*
X58892145Y-109263658D01*
X58810595Y-109405916D01*
X58672443Y-109806937D01*
X58606366Y-110285057D01*
X58615530Y-110769536D01*
X58703101Y-111189635D01*
X58727875Y-111254000D01*
X59032210Y-111767510D01*
X59456574Y-112170759D01*
X59982594Y-112451050D01*
X60591897Y-112595686D01*
X60681865Y-112604313D01*
X61269879Y-112651000D01*
X60793904Y-113258653D01*
X60584553Y-113530443D01*
X60422140Y-113749903D01*
X60330164Y-113884854D01*
X60317930Y-113910395D01*
X60394059Y-113940286D01*
X60588540Y-113968100D01*
X60737549Y-113980076D01*
X61157168Y-114005667D01*
X60560880Y-114795609D01*
X60330060Y-115106555D01*
X60145857Y-115364629D01*
X60027317Y-115542435D01*
X59993094Y-115612312D01*
X60068462Y-115575026D01*
X60265619Y-115456125D01*
X60565371Y-115267785D01*
X60948521Y-115022182D01*
X61395875Y-114731492D01*
X61799596Y-114466410D01*
X63577596Y-113293746D01*
X62877181Y-113268707D01*
X62176765Y-113243667D01*
X62700925Y-112608667D01*
X64917261Y-112606807D01*
X65595200Y-112605383D01*
X66126469Y-112601369D01*
X66533727Y-112593245D01*
X66839631Y-112579491D01*
X67066842Y-112558584D01*
X67238018Y-112529005D01*
X67375819Y-112489233D01*
X67502904Y-112437746D01*
X67514596Y-112432483D01*
X68028188Y-112116403D01*
X68409697Y-111701144D01*
X68651277Y-111202590D01*
X68745077Y-110636625D01*
X68700865Y-110163566D01*
X66502838Y-110163566D01*
X66352551Y-110352732D01*
X66106614Y-110655262D01*
X65863604Y-110942244D01*
X65648923Y-111184998D01*
X65487973Y-111354841D01*
X65406159Y-111423095D01*
X65404315Y-111423334D01*
X65319153Y-111372883D01*
X65140171Y-111239209D01*
X64902512Y-111048824D01*
X64846068Y-111002150D01*
X64601324Y-110802757D01*
X64408953Y-110653743D01*
X64303542Y-110581699D01*
X64295421Y-110578817D01*
X64230775Y-110641248D01*
X64081728Y-110814781D01*
X63867281Y-111076420D01*
X63606438Y-111403172D01*
X63457611Y-111592667D01*
X62663976Y-112608667D01*
X61985831Y-112608667D01*
X61652686Y-112606201D01*
X61461472Y-112593901D01*
X61384804Y-112564409D01*
X61395298Y-112510370D01*
X61434259Y-112460500D01*
X61600261Y-112259055D01*
X61823328Y-111978433D01*
X62084138Y-111644065D01*
X62363366Y-111281383D01*
X62641690Y-110915817D01*
X62899785Y-110572798D01*
X63118329Y-110277758D01*
X63277996Y-110056127D01*
X63359465Y-109933337D01*
X63365930Y-109918304D01*
X63301878Y-109841109D01*
X63129362Y-109690437D01*
X62877843Y-109491048D01*
X62688596Y-109349000D01*
X62402350Y-109133769D01*
X62175963Y-108954656D01*
X62038749Y-108835369D01*
X62011263Y-108801200D01*
X62086626Y-108756778D01*
X62291469Y-108673201D01*
X62593925Y-108562702D01*
X62937970Y-108445478D01*
X63864676Y-108139319D01*
X65183757Y-109151442D01*
X66502838Y-110163566D01*
X68700865Y-110163566D01*
X68690490Y-110052560D01*
X68604056Y-109753111D01*
X68464262Y-109507973D01*
X68229643Y-109246757D01*
X68196794Y-109214535D01*
X67811365Y-108909737D01*
X67384530Y-108723013D01*
X66872369Y-108638384D01*
X66588104Y-108629334D01*
X66295640Y-108609221D01*
X66166767Y-108548732D01*
X66159863Y-108523500D01*
X66113249Y-108334222D01*
X65990991Y-108056516D01*
X65819216Y-107737294D01*
X65624052Y-107423464D01*
X65431628Y-107161937D01*
X65351763Y-107072660D01*
X64886228Y-106701199D01*
X64359586Y-106481201D01*
X63751632Y-106404456D01*
X63706572Y-106404234D01*
X63352298Y-106426258D01*
M02*
