G04 #@! TF.GenerationSoftware,KiCad,Pcbnew,5.1.6-c6e7f7d~86~ubuntu18.04.1*
G04 #@! TF.CreationDate,2020-06-01T21:53:24-04:00*
G04 #@! TF.ProjectId,E73 SCR v2,45373320-5343-4522-9076-322e6b696361,rev?*
G04 #@! TF.SameCoordinates,Original*
G04 #@! TF.FileFunction,Soldermask,Top*
G04 #@! TF.FilePolarity,Negative*
%FSLAX46Y46*%
G04 Gerber Fmt 4.6, Leading zero omitted, Abs format (unit mm)*
G04 Created by KiCad (PCBNEW 5.1.6-c6e7f7d~86~ubuntu18.04.1) date 2020-06-01 21:53:24*
%MOMM*%
%LPD*%
G01*
G04 APERTURE LIST*
%ADD10C,0.100000*%
G04 APERTURE END LIST*
D10*
G36*
X80851000Y-124101000D02*
G01*
X78749000Y-124101000D01*
X78749000Y-122399000D01*
X80851000Y-122399000D01*
X80851000Y-124101000D01*
G37*
G36*
X76851000Y-124101000D02*
G01*
X74749000Y-124101000D01*
X74749000Y-122399000D01*
X76851000Y-122399000D01*
X76851000Y-124101000D01*
G37*
G36*
X90551000Y-123501000D02*
G01*
X88949000Y-123501000D01*
X88949000Y-122099000D01*
X90551000Y-122099000D01*
X90551000Y-123501000D01*
G37*
G36*
X85751000Y-123501000D02*
G01*
X84149000Y-123501000D01*
X84149000Y-122099000D01*
X85751000Y-122099000D01*
X85751000Y-123501000D01*
G37*
G36*
X87851000Y-123501000D02*
G01*
X86249000Y-123501000D01*
X86249000Y-122099000D01*
X87851000Y-122099000D01*
X87851000Y-123501000D01*
G37*
G36*
X83051000Y-123501000D02*
G01*
X81449000Y-123501000D01*
X81449000Y-122099000D01*
X83051000Y-122099000D01*
X83051000Y-123501000D01*
G37*
G36*
X53017500Y-123391500D02*
G01*
X51415500Y-123391500D01*
X51415500Y-122289500D01*
X53017500Y-122289500D01*
X53017500Y-123391500D01*
G37*
G36*
X56517500Y-123391500D02*
G01*
X54915500Y-123391500D01*
X54915500Y-122289500D01*
X56517500Y-122289500D01*
X56517500Y-123391500D01*
G37*
G36*
X96951000Y-122901000D02*
G01*
X95549000Y-122901000D01*
X95549000Y-121299000D01*
X96951000Y-121299000D01*
X96951000Y-122901000D01*
G37*
G36*
X92701000Y-122901000D02*
G01*
X91299000Y-122901000D01*
X91299000Y-121299000D01*
X92701000Y-121299000D01*
X92701000Y-122901000D01*
G37*
G36*
X94926000Y-122801000D02*
G01*
X93574000Y-122801000D01*
X93574000Y-121199000D01*
X94926000Y-121199000D01*
X94926000Y-122801000D01*
G37*
G36*
X56517500Y-121991500D02*
G01*
X54915500Y-121991500D01*
X54915500Y-120889500D01*
X56517500Y-120889500D01*
X56517500Y-121991500D01*
G37*
G36*
X53017500Y-121991500D02*
G01*
X51415500Y-121991500D01*
X51415500Y-120889500D01*
X53017500Y-120889500D01*
X53017500Y-121991500D01*
G37*
G36*
X77201000Y-121651000D02*
G01*
X75799000Y-121651000D01*
X75799000Y-120049000D01*
X77201000Y-120049000D01*
X77201000Y-121651000D01*
G37*
G36*
X74676000Y-121301000D02*
G01*
X73324000Y-121301000D01*
X73324000Y-119699000D01*
X74676000Y-119699000D01*
X74676000Y-121301000D01*
G37*
G36*
X70676000Y-121301000D02*
G01*
X69324000Y-121301000D01*
X69324000Y-119699000D01*
X70676000Y-119699000D01*
X70676000Y-121301000D01*
G37*
G36*
X81826000Y-121181000D02*
G01*
X79174000Y-121181000D01*
X79174000Y-119519000D01*
X81826000Y-119519000D01*
X81826000Y-121181000D01*
G37*
G36*
X94926000Y-120301000D02*
G01*
X93574000Y-120301000D01*
X93574000Y-118699000D01*
X94926000Y-118699000D01*
X94926000Y-120301000D01*
G37*
G36*
X86401000Y-120251000D02*
G01*
X85499000Y-120251000D01*
X85499000Y-118249000D01*
X86401000Y-118249000D01*
X86401000Y-120251000D01*
G37*
G36*
X84501000Y-120251000D02*
G01*
X83599000Y-120251000D01*
X83599000Y-118249000D01*
X84501000Y-118249000D01*
X84501000Y-120251000D01*
G37*
G36*
X88501000Y-120251000D02*
G01*
X87599000Y-120251000D01*
X87599000Y-118249000D01*
X88501000Y-118249000D01*
X88501000Y-120251000D01*
G37*
G36*
X90401000Y-120251000D02*
G01*
X89499000Y-120251000D01*
X89499000Y-118249000D01*
X90401000Y-118249000D01*
X90401000Y-120251000D01*
G37*
G36*
X92701000Y-120201000D02*
G01*
X91299000Y-120201000D01*
X91299000Y-118599000D01*
X92701000Y-118599000D01*
X92701000Y-120201000D01*
G37*
G36*
X96951000Y-120201000D02*
G01*
X95549000Y-120201000D01*
X95549000Y-118599000D01*
X96951000Y-118599000D01*
X96951000Y-120201000D01*
G37*
G36*
X99201000Y-120151000D02*
G01*
X97799000Y-120151000D01*
X97799000Y-118549000D01*
X99201000Y-118549000D01*
X99201000Y-120151000D01*
G37*
G36*
X54667500Y-119891500D02*
G01*
X53265500Y-119891500D01*
X53265500Y-118289500D01*
X54667500Y-118289500D01*
X54667500Y-119891500D01*
G37*
G36*
X56667500Y-119891500D02*
G01*
X55265500Y-119891500D01*
X55265500Y-118289500D01*
X56667500Y-118289500D01*
X56667500Y-119891500D01*
G37*
G36*
X52667500Y-119841500D02*
G01*
X51265500Y-119841500D01*
X51265500Y-118239500D01*
X52667500Y-118239500D01*
X52667500Y-119841500D01*
G37*
G36*
X77201000Y-118951000D02*
G01*
X75799000Y-118951000D01*
X75799000Y-117349000D01*
X77201000Y-117349000D01*
X77201000Y-118951000D01*
G37*
G36*
X74676000Y-118801000D02*
G01*
X73324000Y-118801000D01*
X73324000Y-117199000D01*
X74676000Y-117199000D01*
X74676000Y-118801000D01*
G37*
G36*
X70676000Y-118801000D02*
G01*
X69324000Y-118801000D01*
X69324000Y-117199000D01*
X70676000Y-117199000D01*
X70676000Y-118801000D01*
G37*
G36*
X81826000Y-118481000D02*
G01*
X81074000Y-118481000D01*
X81074000Y-116819000D01*
X81826000Y-116819000D01*
X81826000Y-118481000D01*
G37*
G36*
X79926000Y-118481000D02*
G01*
X79174000Y-118481000D01*
X79174000Y-116819000D01*
X79926000Y-116819000D01*
X79926000Y-118481000D01*
G37*
G36*
X99201000Y-117451000D02*
G01*
X97799000Y-117451000D01*
X97799000Y-115849000D01*
X99201000Y-115849000D01*
X99201000Y-117451000D01*
G37*
G36*
X85451000Y-117251000D02*
G01*
X84549000Y-117251000D01*
X84549000Y-115249000D01*
X85451000Y-115249000D01*
X85451000Y-117251000D01*
G37*
G36*
X89451000Y-117251000D02*
G01*
X88549000Y-117251000D01*
X88549000Y-115249000D01*
X89451000Y-115249000D01*
X89451000Y-117251000D01*
G37*
G36*
X94701000Y-117201000D02*
G01*
X93099000Y-117201000D01*
X93099000Y-115799000D01*
X94701000Y-115799000D01*
X94701000Y-117201000D01*
G37*
G36*
X97401000Y-117201000D02*
G01*
X95799000Y-117201000D01*
X95799000Y-115799000D01*
X97401000Y-115799000D01*
X97401000Y-117201000D01*
G37*
G36*
X54667500Y-117191500D02*
G01*
X53265500Y-117191500D01*
X53265500Y-115589500D01*
X54667500Y-115589500D01*
X54667500Y-117191500D01*
G37*
G36*
X56667500Y-117191500D02*
G01*
X55265500Y-117191500D01*
X55265500Y-115589500D01*
X56667500Y-115589500D01*
X56667500Y-117191500D01*
G37*
G36*
X52667500Y-117141500D02*
G01*
X51265500Y-117141500D01*
X51265500Y-115539500D01*
X52667500Y-115539500D01*
X52667500Y-117141500D01*
G37*
G36*
X76401000Y-116251000D02*
G01*
X72799000Y-116251000D01*
X72799000Y-113749000D01*
X76401000Y-113749000D01*
X76401000Y-116251000D01*
G37*
G36*
X71201000Y-116251000D02*
G01*
X67599000Y-116251000D01*
X67599000Y-113749000D01*
X71201000Y-113749000D01*
X71201000Y-116251000D01*
G37*
G36*
X96926000Y-115181000D02*
G01*
X96174000Y-115181000D01*
X96174000Y-113519000D01*
X96926000Y-113519000D01*
X96926000Y-115181000D01*
G37*
G36*
X98826000Y-115181000D02*
G01*
X98074000Y-115181000D01*
X98074000Y-113519000D01*
X98826000Y-113519000D01*
X98826000Y-115181000D01*
G37*
G36*
X56979500Y-115043000D02*
G01*
X56127500Y-115043000D01*
X56127500Y-112941000D01*
X56979500Y-112941000D01*
X56979500Y-115043000D01*
G37*
G36*
X65879500Y-115043000D02*
G01*
X65027500Y-115043000D01*
X65027500Y-112941000D01*
X65879500Y-112941000D01*
X65879500Y-115043000D01*
G37*
G36*
X64629500Y-115043000D02*
G01*
X63777500Y-115043000D01*
X63777500Y-112941000D01*
X64629500Y-112941000D01*
X64629500Y-115043000D01*
G37*
G36*
X63329500Y-115043000D02*
G01*
X62477500Y-115043000D01*
X62477500Y-112941000D01*
X63329500Y-112941000D01*
X63329500Y-115043000D01*
G37*
G36*
X62079500Y-115043000D02*
G01*
X61227500Y-115043000D01*
X61227500Y-112941000D01*
X62079500Y-112941000D01*
X62079500Y-115043000D01*
G37*
G36*
X60779500Y-115043000D02*
G01*
X59927500Y-115043000D01*
X59927500Y-112941000D01*
X60779500Y-112941000D01*
X60779500Y-115043000D01*
G37*
G36*
X59529500Y-115043000D02*
G01*
X58677500Y-115043000D01*
X58677500Y-112941000D01*
X59529500Y-112941000D01*
X59529500Y-115043000D01*
G37*
G36*
X58279500Y-115043000D02*
G01*
X57427500Y-115043000D01*
X57427500Y-112941000D01*
X58279500Y-112941000D01*
X58279500Y-115043000D01*
G37*
G36*
X55729500Y-115043000D02*
G01*
X54877500Y-115043000D01*
X54877500Y-112941000D01*
X55729500Y-112941000D01*
X55729500Y-115043000D01*
G37*
G36*
X54429500Y-115043000D02*
G01*
X53577500Y-115043000D01*
X53577500Y-112941000D01*
X54429500Y-112941000D01*
X54429500Y-115043000D01*
G37*
G36*
X85401000Y-113151000D02*
G01*
X83599000Y-113151000D01*
X83599000Y-111849000D01*
X85401000Y-111849000D01*
X85401000Y-113151000D01*
G37*
G36*
X90901000Y-113151000D02*
G01*
X89099000Y-113151000D01*
X89099000Y-111849000D01*
X90901000Y-111849000D01*
X90901000Y-113151000D01*
G37*
G36*
X98826000Y-112481000D02*
G01*
X96174000Y-112481000D01*
X96174000Y-110819000D01*
X98826000Y-110819000D01*
X98826000Y-112481000D01*
G37*
G36*
X69154500Y-112318000D02*
G01*
X67052500Y-112318000D01*
X67052500Y-111466000D01*
X69154500Y-111466000D01*
X69154500Y-112318000D01*
G37*
G36*
X66504500Y-111793000D02*
G01*
X65402500Y-111793000D01*
X65402500Y-103091000D01*
X66504500Y-103091000D01*
X66504500Y-111793000D01*
G37*
G36*
X90313855Y-109852140D02*
G01*
X90377618Y-109858420D01*
X90458400Y-109882925D01*
X90500336Y-109895646D01*
X90613425Y-109956094D01*
X90712554Y-110037446D01*
X90793906Y-110136575D01*
X90854354Y-110249664D01*
X90854355Y-110249668D01*
X90891580Y-110372382D01*
X90904149Y-110500000D01*
X90891580Y-110627618D01*
X90872690Y-110689890D01*
X90854354Y-110750336D01*
X90793906Y-110863425D01*
X90712554Y-110962554D01*
X90613425Y-111043906D01*
X90500336Y-111104354D01*
X90468404Y-111114040D01*
X90377618Y-111141580D01*
X90313855Y-111147860D01*
X90281974Y-111151000D01*
X89718026Y-111151000D01*
X89686145Y-111147860D01*
X89622382Y-111141580D01*
X89531596Y-111114040D01*
X89499664Y-111104354D01*
X89386575Y-111043906D01*
X89287446Y-110962554D01*
X89206094Y-110863425D01*
X89145646Y-110750336D01*
X89127310Y-110689890D01*
X89108420Y-110627618D01*
X89095851Y-110500000D01*
X89108420Y-110372382D01*
X89145645Y-110249668D01*
X89145646Y-110249664D01*
X89206094Y-110136575D01*
X89287446Y-110037446D01*
X89386575Y-109956094D01*
X89499664Y-109895646D01*
X89541600Y-109882925D01*
X89622382Y-109858420D01*
X89686145Y-109852140D01*
X89718026Y-109849000D01*
X90281974Y-109849000D01*
X90313855Y-109852140D01*
G37*
G36*
X78491242Y-109853404D02*
G01*
X78528337Y-109864657D01*
X78562515Y-109882925D01*
X78592481Y-109907519D01*
X78617075Y-109937485D01*
X78635343Y-109971663D01*
X78646596Y-110008758D01*
X78651000Y-110053474D01*
X78651000Y-110946526D01*
X78646596Y-110991242D01*
X78635343Y-111028337D01*
X78617075Y-111062515D01*
X78592481Y-111092481D01*
X78562515Y-111117075D01*
X78528337Y-111135343D01*
X78491242Y-111146596D01*
X78446526Y-111151000D01*
X77553474Y-111151000D01*
X77508758Y-111146596D01*
X77471663Y-111135343D01*
X77437485Y-111117075D01*
X77407519Y-111092481D01*
X77382925Y-111062515D01*
X77364657Y-111028337D01*
X77353404Y-110991242D01*
X77349000Y-110946526D01*
X77349000Y-110053474D01*
X77353404Y-110008758D01*
X77364657Y-109971663D01*
X77382925Y-109937485D01*
X77407519Y-109907519D01*
X77437485Y-109882925D01*
X77471663Y-109864657D01*
X77508758Y-109853404D01*
X77553474Y-109849000D01*
X78446526Y-109849000D01*
X78491242Y-109853404D01*
G37*
G36*
X80189890Y-109874017D02*
G01*
X80270771Y-109907519D01*
X80308364Y-109923091D01*
X80414988Y-109994335D01*
X80505665Y-110085012D01*
X80576909Y-110191636D01*
X80625983Y-110310110D01*
X80651000Y-110435882D01*
X80651000Y-110564118D01*
X80625983Y-110689890D01*
X80576909Y-110808364D01*
X80505665Y-110914988D01*
X80414988Y-111005665D01*
X80308364Y-111076909D01*
X80308363Y-111076910D01*
X80308362Y-111076910D01*
X80189890Y-111125983D01*
X80064119Y-111151000D01*
X79935881Y-111151000D01*
X79810110Y-111125983D01*
X79691638Y-111076910D01*
X79691637Y-111076910D01*
X79691636Y-111076909D01*
X79585012Y-111005665D01*
X79494335Y-110914988D01*
X79423091Y-110808364D01*
X79374017Y-110689890D01*
X79349000Y-110564118D01*
X79349000Y-110435882D01*
X79374017Y-110310110D01*
X79423091Y-110191636D01*
X79494335Y-110085012D01*
X79585012Y-109994335D01*
X79691636Y-109923091D01*
X79729230Y-109907519D01*
X79810110Y-109874017D01*
X79935881Y-109849000D01*
X80064119Y-109849000D01*
X80189890Y-109874017D01*
G37*
G36*
X84813855Y-109852140D02*
G01*
X84877618Y-109858420D01*
X84958400Y-109882925D01*
X85000336Y-109895646D01*
X85113425Y-109956094D01*
X85212554Y-110037446D01*
X85293906Y-110136575D01*
X85354354Y-110249664D01*
X85354355Y-110249668D01*
X85391580Y-110372382D01*
X85404149Y-110500000D01*
X85391580Y-110627618D01*
X85372690Y-110689890D01*
X85354354Y-110750336D01*
X85293906Y-110863425D01*
X85212554Y-110962554D01*
X85113425Y-111043906D01*
X85000336Y-111104354D01*
X84968404Y-111114040D01*
X84877618Y-111141580D01*
X84813855Y-111147860D01*
X84781974Y-111151000D01*
X84218026Y-111151000D01*
X84186145Y-111147860D01*
X84122382Y-111141580D01*
X84031596Y-111114040D01*
X83999664Y-111104354D01*
X83886575Y-111043906D01*
X83787446Y-110962554D01*
X83706094Y-110863425D01*
X83645646Y-110750336D01*
X83627310Y-110689890D01*
X83608420Y-110627618D01*
X83595851Y-110500000D01*
X83608420Y-110372382D01*
X83645645Y-110249668D01*
X83645646Y-110249664D01*
X83706094Y-110136575D01*
X83787446Y-110037446D01*
X83886575Y-109956094D01*
X83999664Y-109895646D01*
X84041600Y-109882925D01*
X84122382Y-109858420D01*
X84186145Y-109852140D01*
X84218026Y-109849000D01*
X84781974Y-109849000D01*
X84813855Y-109852140D01*
G37*
G36*
X69154500Y-111018000D02*
G01*
X67052500Y-111018000D01*
X67052500Y-110166000D01*
X69154500Y-110166000D01*
X69154500Y-111018000D01*
G37*
G36*
X69154500Y-109768000D02*
G01*
X67052500Y-109768000D01*
X67052500Y-108916000D01*
X69154500Y-108916000D01*
X69154500Y-109768000D01*
G37*
G36*
X71801000Y-109676000D02*
G01*
X70199000Y-109676000D01*
X70199000Y-108324000D01*
X71801000Y-108324000D01*
X71801000Y-109676000D01*
G37*
G36*
X74301000Y-109676000D02*
G01*
X72699000Y-109676000D01*
X72699000Y-108324000D01*
X74301000Y-108324000D01*
X74301000Y-109676000D01*
G37*
G36*
X80111477Y-107858420D02*
G01*
X80189890Y-107874017D01*
X80308364Y-107923091D01*
X80414988Y-107994335D01*
X80505665Y-108085012D01*
X80576909Y-108191636D01*
X80625983Y-108310110D01*
X80651000Y-108435882D01*
X80651000Y-108564118D01*
X80625983Y-108689890D01*
X80576909Y-108808364D01*
X80505665Y-108914988D01*
X80414988Y-109005665D01*
X80308364Y-109076909D01*
X80308363Y-109076910D01*
X80308362Y-109076910D01*
X80189890Y-109125983D01*
X80064119Y-109151000D01*
X79935881Y-109151000D01*
X79810110Y-109125983D01*
X79691638Y-109076910D01*
X79691637Y-109076910D01*
X79691636Y-109076909D01*
X79585012Y-109005665D01*
X79494335Y-108914988D01*
X79423091Y-108808364D01*
X79374017Y-108689890D01*
X79349000Y-108564118D01*
X79349000Y-108435882D01*
X79374017Y-108310110D01*
X79423091Y-108191636D01*
X79494335Y-108085012D01*
X79585012Y-107994335D01*
X79691636Y-107923091D01*
X79810110Y-107874017D01*
X79888523Y-107858420D01*
X79935881Y-107849000D01*
X80064119Y-107849000D01*
X80111477Y-107858420D01*
G37*
G36*
X84813855Y-107852140D02*
G01*
X84877618Y-107858420D01*
X84968404Y-107885960D01*
X85000336Y-107895646D01*
X85113425Y-107956094D01*
X85212554Y-108037446D01*
X85293906Y-108136575D01*
X85354354Y-108249664D01*
X85354355Y-108249668D01*
X85391580Y-108372382D01*
X85404149Y-108500000D01*
X85391580Y-108627618D01*
X85372690Y-108689890D01*
X85354354Y-108750336D01*
X85293906Y-108863425D01*
X85212554Y-108962554D01*
X85113425Y-109043906D01*
X85000336Y-109104354D01*
X84968404Y-109114040D01*
X84877618Y-109141580D01*
X84813855Y-109147860D01*
X84781974Y-109151000D01*
X84218026Y-109151000D01*
X84186145Y-109147860D01*
X84122382Y-109141580D01*
X84031596Y-109114040D01*
X83999664Y-109104354D01*
X83886575Y-109043906D01*
X83787446Y-108962554D01*
X83706094Y-108863425D01*
X83645646Y-108750336D01*
X83627310Y-108689890D01*
X83608420Y-108627618D01*
X83595851Y-108500000D01*
X83608420Y-108372382D01*
X83645645Y-108249668D01*
X83645646Y-108249664D01*
X83706094Y-108136575D01*
X83787446Y-108037446D01*
X83886575Y-107956094D01*
X83999664Y-107895646D01*
X84031596Y-107885960D01*
X84122382Y-107858420D01*
X84186145Y-107852140D01*
X84218026Y-107849000D01*
X84781974Y-107849000D01*
X84813855Y-107852140D01*
G37*
G36*
X90313855Y-107852140D02*
G01*
X90377618Y-107858420D01*
X90468404Y-107885960D01*
X90500336Y-107895646D01*
X90613425Y-107956094D01*
X90712554Y-108037446D01*
X90793906Y-108136575D01*
X90854354Y-108249664D01*
X90854355Y-108249668D01*
X90891580Y-108372382D01*
X90904149Y-108500000D01*
X90891580Y-108627618D01*
X90872690Y-108689890D01*
X90854354Y-108750336D01*
X90793906Y-108863425D01*
X90712554Y-108962554D01*
X90613425Y-109043906D01*
X90500336Y-109104354D01*
X90468404Y-109114040D01*
X90377618Y-109141580D01*
X90313855Y-109147860D01*
X90281974Y-109151000D01*
X89718026Y-109151000D01*
X89686145Y-109147860D01*
X89622382Y-109141580D01*
X89531596Y-109114040D01*
X89499664Y-109104354D01*
X89386575Y-109043906D01*
X89287446Y-108962554D01*
X89206094Y-108863425D01*
X89145646Y-108750336D01*
X89127310Y-108689890D01*
X89108420Y-108627618D01*
X89095851Y-108500000D01*
X89108420Y-108372382D01*
X89145645Y-108249668D01*
X89145646Y-108249664D01*
X89206094Y-108136575D01*
X89287446Y-108037446D01*
X89386575Y-107956094D01*
X89499664Y-107895646D01*
X89531596Y-107885960D01*
X89622382Y-107858420D01*
X89686145Y-107852140D01*
X89718026Y-107849000D01*
X90281974Y-107849000D01*
X90313855Y-107852140D01*
G37*
G36*
X78111477Y-107858420D02*
G01*
X78189890Y-107874017D01*
X78308364Y-107923091D01*
X78414988Y-107994335D01*
X78505665Y-108085012D01*
X78576909Y-108191636D01*
X78625983Y-108310110D01*
X78651000Y-108435882D01*
X78651000Y-108564118D01*
X78625983Y-108689890D01*
X78576909Y-108808364D01*
X78505665Y-108914988D01*
X78414988Y-109005665D01*
X78308364Y-109076909D01*
X78308363Y-109076910D01*
X78308362Y-109076910D01*
X78189890Y-109125983D01*
X78064119Y-109151000D01*
X77935881Y-109151000D01*
X77810110Y-109125983D01*
X77691638Y-109076910D01*
X77691637Y-109076910D01*
X77691636Y-109076909D01*
X77585012Y-109005665D01*
X77494335Y-108914988D01*
X77423091Y-108808364D01*
X77374017Y-108689890D01*
X77349000Y-108564118D01*
X77349000Y-108435882D01*
X77374017Y-108310110D01*
X77423091Y-108191636D01*
X77494335Y-108085012D01*
X77585012Y-107994335D01*
X77691636Y-107923091D01*
X77810110Y-107874017D01*
X77888523Y-107858420D01*
X77935881Y-107849000D01*
X78064119Y-107849000D01*
X78111477Y-107858420D01*
G37*
G36*
X69154500Y-108518000D02*
G01*
X67052500Y-108518000D01*
X67052500Y-107666000D01*
X69154500Y-107666000D01*
X69154500Y-108518000D01*
G37*
G36*
X97401000Y-108151000D02*
G01*
X95599000Y-108151000D01*
X95599000Y-106849000D01*
X97401000Y-106849000D01*
X97401000Y-108151000D01*
G37*
G36*
X69154500Y-107218000D02*
G01*
X67052500Y-107218000D01*
X67052500Y-106366000D01*
X69154500Y-106366000D01*
X69154500Y-107218000D01*
G37*
G36*
X74301000Y-107176000D02*
G01*
X72699000Y-107176000D01*
X72699000Y-105824000D01*
X74301000Y-105824000D01*
X74301000Y-107176000D01*
G37*
G36*
X71801000Y-107176000D02*
G01*
X70199000Y-107176000D01*
X70199000Y-105824000D01*
X71801000Y-105824000D01*
X71801000Y-107176000D01*
G37*
G36*
X78189890Y-105874017D02*
G01*
X78308364Y-105923091D01*
X78414988Y-105994335D01*
X78505665Y-106085012D01*
X78576909Y-106191636D01*
X78625983Y-106310110D01*
X78651000Y-106435882D01*
X78651000Y-106564118D01*
X78625983Y-106689890D01*
X78576909Y-106808364D01*
X78505665Y-106914988D01*
X78414988Y-107005665D01*
X78308364Y-107076909D01*
X78308363Y-107076910D01*
X78308362Y-107076910D01*
X78189890Y-107125983D01*
X78064119Y-107151000D01*
X77935881Y-107151000D01*
X77810110Y-107125983D01*
X77691638Y-107076910D01*
X77691637Y-107076910D01*
X77691636Y-107076909D01*
X77585012Y-107005665D01*
X77494335Y-106914988D01*
X77423091Y-106808364D01*
X77374017Y-106689890D01*
X77349000Y-106564118D01*
X77349000Y-106435882D01*
X77374017Y-106310110D01*
X77423091Y-106191636D01*
X77494335Y-106085012D01*
X77585012Y-105994335D01*
X77691636Y-105923091D01*
X77810110Y-105874017D01*
X77935881Y-105849000D01*
X78064119Y-105849000D01*
X78189890Y-105874017D01*
G37*
G36*
X80189890Y-105874017D02*
G01*
X80308364Y-105923091D01*
X80414988Y-105994335D01*
X80505665Y-106085012D01*
X80576909Y-106191636D01*
X80625983Y-106310110D01*
X80651000Y-106435882D01*
X80651000Y-106564118D01*
X80625983Y-106689890D01*
X80576909Y-106808364D01*
X80505665Y-106914988D01*
X80414988Y-107005665D01*
X80308364Y-107076909D01*
X80308363Y-107076910D01*
X80308362Y-107076910D01*
X80189890Y-107125983D01*
X80064119Y-107151000D01*
X79935881Y-107151000D01*
X79810110Y-107125983D01*
X79691638Y-107076910D01*
X79691637Y-107076910D01*
X79691636Y-107076909D01*
X79585012Y-107005665D01*
X79494335Y-106914988D01*
X79423091Y-106808364D01*
X79374017Y-106689890D01*
X79349000Y-106564118D01*
X79349000Y-106435882D01*
X79374017Y-106310110D01*
X79423091Y-106191636D01*
X79494335Y-106085012D01*
X79585012Y-105994335D01*
X79691636Y-105923091D01*
X79810110Y-105874017D01*
X79935881Y-105849000D01*
X80064119Y-105849000D01*
X80189890Y-105874017D01*
G37*
G36*
X90313855Y-105852140D02*
G01*
X90377618Y-105858420D01*
X90468404Y-105885960D01*
X90500336Y-105895646D01*
X90613425Y-105956094D01*
X90712554Y-106037446D01*
X90793906Y-106136575D01*
X90854354Y-106249664D01*
X90854355Y-106249668D01*
X90891580Y-106372382D01*
X90904149Y-106500000D01*
X90891580Y-106627618D01*
X90872690Y-106689890D01*
X90854354Y-106750336D01*
X90793906Y-106863425D01*
X90712554Y-106962554D01*
X90613425Y-107043906D01*
X90500336Y-107104354D01*
X90468404Y-107114040D01*
X90377618Y-107141580D01*
X90313855Y-107147860D01*
X90281974Y-107151000D01*
X89718026Y-107151000D01*
X89686145Y-107147860D01*
X89622382Y-107141580D01*
X89531596Y-107114040D01*
X89499664Y-107104354D01*
X89386575Y-107043906D01*
X89287446Y-106962554D01*
X89206094Y-106863425D01*
X89145646Y-106750336D01*
X89127310Y-106689890D01*
X89108420Y-106627618D01*
X89095851Y-106500000D01*
X89108420Y-106372382D01*
X89145645Y-106249668D01*
X89145646Y-106249664D01*
X89206094Y-106136575D01*
X89287446Y-106037446D01*
X89386575Y-105956094D01*
X89499664Y-105895646D01*
X89531596Y-105885960D01*
X89622382Y-105858420D01*
X89686145Y-105852140D01*
X89718026Y-105849000D01*
X90281974Y-105849000D01*
X90313855Y-105852140D01*
G37*
G36*
X84813855Y-105852140D02*
G01*
X84877618Y-105858420D01*
X84968404Y-105885960D01*
X85000336Y-105895646D01*
X85113425Y-105956094D01*
X85212554Y-106037446D01*
X85293906Y-106136575D01*
X85354354Y-106249664D01*
X85354355Y-106249668D01*
X85391580Y-106372382D01*
X85404149Y-106500000D01*
X85391580Y-106627618D01*
X85372690Y-106689890D01*
X85354354Y-106750336D01*
X85293906Y-106863425D01*
X85212554Y-106962554D01*
X85113425Y-107043906D01*
X85000336Y-107104354D01*
X84968404Y-107114040D01*
X84877618Y-107141580D01*
X84813855Y-107147860D01*
X84781974Y-107151000D01*
X84218026Y-107151000D01*
X84186145Y-107147860D01*
X84122382Y-107141580D01*
X84031596Y-107114040D01*
X83999664Y-107104354D01*
X83886575Y-107043906D01*
X83787446Y-106962554D01*
X83706094Y-106863425D01*
X83645646Y-106750336D01*
X83627310Y-106689890D01*
X83608420Y-106627618D01*
X83595851Y-106500000D01*
X83608420Y-106372382D01*
X83645645Y-106249668D01*
X83645646Y-106249664D01*
X83706094Y-106136575D01*
X83787446Y-106037446D01*
X83886575Y-105956094D01*
X83999664Y-105895646D01*
X84031596Y-105885960D01*
X84122382Y-105858420D01*
X84186145Y-105852140D01*
X84218026Y-105849000D01*
X84781974Y-105849000D01*
X84813855Y-105852140D01*
G37*
G36*
X96813855Y-104852140D02*
G01*
X96877618Y-104858420D01*
X96968404Y-104885960D01*
X97000336Y-104895646D01*
X97113425Y-104956094D01*
X97212554Y-105037446D01*
X97293906Y-105136575D01*
X97354354Y-105249664D01*
X97354355Y-105249668D01*
X97391580Y-105372382D01*
X97404149Y-105500000D01*
X97391580Y-105627618D01*
X97364040Y-105718404D01*
X97354354Y-105750336D01*
X97293906Y-105863425D01*
X97212554Y-105962554D01*
X97113425Y-106043906D01*
X97000336Y-106104354D01*
X96968404Y-106114040D01*
X96877618Y-106141580D01*
X96813855Y-106147860D01*
X96781974Y-106151000D01*
X96218026Y-106151000D01*
X96186145Y-106147860D01*
X96122382Y-106141580D01*
X96031596Y-106114040D01*
X95999664Y-106104354D01*
X95886575Y-106043906D01*
X95787446Y-105962554D01*
X95706094Y-105863425D01*
X95645646Y-105750336D01*
X95635960Y-105718404D01*
X95608420Y-105627618D01*
X95595851Y-105500000D01*
X95608420Y-105372382D01*
X95645645Y-105249668D01*
X95645646Y-105249664D01*
X95706094Y-105136575D01*
X95787446Y-105037446D01*
X95886575Y-104956094D01*
X95999664Y-104895646D01*
X96031596Y-104885960D01*
X96122382Y-104858420D01*
X96186145Y-104852140D01*
X96218026Y-104849000D01*
X96781974Y-104849000D01*
X96813855Y-104852140D01*
G37*
G36*
X69154500Y-105968000D02*
G01*
X67052500Y-105968000D01*
X67052500Y-105116000D01*
X69154500Y-105116000D01*
X69154500Y-105968000D01*
G37*
G36*
X84813855Y-103852140D02*
G01*
X84877618Y-103858420D01*
X84968404Y-103885960D01*
X85000336Y-103895646D01*
X85113425Y-103956094D01*
X85212554Y-104037446D01*
X85293906Y-104136575D01*
X85354354Y-104249664D01*
X85354355Y-104249668D01*
X85391580Y-104372382D01*
X85404149Y-104500000D01*
X85391580Y-104627618D01*
X85376903Y-104676000D01*
X85354354Y-104750336D01*
X85293906Y-104863425D01*
X85212554Y-104962554D01*
X85113425Y-105043906D01*
X85000336Y-105104354D01*
X84968404Y-105114040D01*
X84877618Y-105141580D01*
X84813855Y-105147860D01*
X84781974Y-105151000D01*
X84218026Y-105151000D01*
X84186145Y-105147860D01*
X84122382Y-105141580D01*
X84031596Y-105114040D01*
X83999664Y-105104354D01*
X83886575Y-105043906D01*
X83787446Y-104962554D01*
X83706094Y-104863425D01*
X83645646Y-104750336D01*
X83623097Y-104676000D01*
X83608420Y-104627618D01*
X83595851Y-104500000D01*
X83608420Y-104372382D01*
X83645645Y-104249668D01*
X83645646Y-104249664D01*
X83706094Y-104136575D01*
X83787446Y-104037446D01*
X83886575Y-103956094D01*
X83999664Y-103895646D01*
X84031596Y-103885960D01*
X84122382Y-103858420D01*
X84186145Y-103852140D01*
X84218026Y-103849000D01*
X84781974Y-103849000D01*
X84813855Y-103852140D01*
G37*
G36*
X78111477Y-103858420D02*
G01*
X78189890Y-103874017D01*
X78308364Y-103923091D01*
X78414988Y-103994335D01*
X78505665Y-104085012D01*
X78576909Y-104191636D01*
X78625983Y-104310110D01*
X78651000Y-104435882D01*
X78651000Y-104564118D01*
X78625983Y-104689890D01*
X78576909Y-104808364D01*
X78505665Y-104914988D01*
X78414988Y-105005665D01*
X78308364Y-105076909D01*
X78308363Y-105076910D01*
X78308362Y-105076910D01*
X78189890Y-105125983D01*
X78064119Y-105151000D01*
X77935881Y-105151000D01*
X77810110Y-105125983D01*
X77691638Y-105076910D01*
X77691637Y-105076910D01*
X77691636Y-105076909D01*
X77585012Y-105005665D01*
X77494335Y-104914988D01*
X77423091Y-104808364D01*
X77374017Y-104689890D01*
X77349000Y-104564118D01*
X77349000Y-104435882D01*
X77374017Y-104310110D01*
X77423091Y-104191636D01*
X77494335Y-104085012D01*
X77585012Y-103994335D01*
X77691636Y-103923091D01*
X77810110Y-103874017D01*
X77888523Y-103858420D01*
X77935881Y-103849000D01*
X78064119Y-103849000D01*
X78111477Y-103858420D01*
G37*
G36*
X80111477Y-103858420D02*
G01*
X80189890Y-103874017D01*
X80308364Y-103923091D01*
X80414988Y-103994335D01*
X80505665Y-104085012D01*
X80576909Y-104191636D01*
X80625983Y-104310110D01*
X80651000Y-104435882D01*
X80651000Y-104564118D01*
X80625983Y-104689890D01*
X80576909Y-104808364D01*
X80505665Y-104914988D01*
X80414988Y-105005665D01*
X80308364Y-105076909D01*
X80308363Y-105076910D01*
X80308362Y-105076910D01*
X80189890Y-105125983D01*
X80064119Y-105151000D01*
X79935881Y-105151000D01*
X79810110Y-105125983D01*
X79691638Y-105076910D01*
X79691637Y-105076910D01*
X79691636Y-105076909D01*
X79585012Y-105005665D01*
X79494335Y-104914988D01*
X79423091Y-104808364D01*
X79374017Y-104689890D01*
X79349000Y-104564118D01*
X79349000Y-104435882D01*
X79374017Y-104310110D01*
X79423091Y-104191636D01*
X79494335Y-104085012D01*
X79585012Y-103994335D01*
X79691636Y-103923091D01*
X79810110Y-103874017D01*
X79888523Y-103858420D01*
X79935881Y-103849000D01*
X80064119Y-103849000D01*
X80111477Y-103858420D01*
G37*
G36*
X90313855Y-103852140D02*
G01*
X90377618Y-103858420D01*
X90468404Y-103885960D01*
X90500336Y-103895646D01*
X90613425Y-103956094D01*
X90712554Y-104037446D01*
X90793906Y-104136575D01*
X90854354Y-104249664D01*
X90854355Y-104249668D01*
X90891580Y-104372382D01*
X90904149Y-104500000D01*
X90891580Y-104627618D01*
X90876903Y-104676000D01*
X90854354Y-104750336D01*
X90793906Y-104863425D01*
X90712554Y-104962554D01*
X90613425Y-105043906D01*
X90500336Y-105104354D01*
X90468404Y-105114040D01*
X90377618Y-105141580D01*
X90313855Y-105147860D01*
X90281974Y-105151000D01*
X89718026Y-105151000D01*
X89686145Y-105147860D01*
X89622382Y-105141580D01*
X89531596Y-105114040D01*
X89499664Y-105104354D01*
X89386575Y-105043906D01*
X89287446Y-104962554D01*
X89206094Y-104863425D01*
X89145646Y-104750336D01*
X89123097Y-104676000D01*
X89108420Y-104627618D01*
X89095851Y-104500000D01*
X89108420Y-104372382D01*
X89145645Y-104249668D01*
X89145646Y-104249664D01*
X89206094Y-104136575D01*
X89287446Y-104037446D01*
X89386575Y-103956094D01*
X89499664Y-103895646D01*
X89531596Y-103885960D01*
X89622382Y-103858420D01*
X89686145Y-103852140D01*
X89718026Y-103849000D01*
X90281974Y-103849000D01*
X90313855Y-103852140D01*
G37*
G36*
X69154500Y-104718000D02*
G01*
X67052500Y-104718000D01*
X67052500Y-103866000D01*
X69154500Y-103866000D01*
X69154500Y-104718000D01*
G37*
G36*
X71801000Y-104676000D02*
G01*
X70199000Y-104676000D01*
X70199000Y-103324000D01*
X71801000Y-103324000D01*
X71801000Y-104676000D01*
G37*
G36*
X74301000Y-104676000D02*
G01*
X72699000Y-104676000D01*
X72699000Y-103324000D01*
X74301000Y-103324000D01*
X74301000Y-104676000D01*
G37*
G36*
X64104500Y-103593000D02*
G01*
X54052500Y-103593000D01*
X54052500Y-102491000D01*
X64104500Y-102491000D01*
X64104500Y-103593000D01*
G37*
G36*
X69154500Y-103418000D02*
G01*
X67052500Y-103418000D01*
X67052500Y-102566000D01*
X69154500Y-102566000D01*
X69154500Y-103418000D01*
G37*
G36*
X80111477Y-101858420D02*
G01*
X80189890Y-101874017D01*
X80308364Y-101923091D01*
X80414988Y-101994335D01*
X80505665Y-102085012D01*
X80576909Y-102191636D01*
X80625983Y-102310110D01*
X80651000Y-102435882D01*
X80651000Y-102564118D01*
X80625983Y-102689890D01*
X80576909Y-102808364D01*
X80505665Y-102914988D01*
X80414988Y-103005665D01*
X80308364Y-103076909D01*
X80308363Y-103076910D01*
X80308362Y-103076910D01*
X80189890Y-103125983D01*
X80064119Y-103151000D01*
X79935881Y-103151000D01*
X79810110Y-103125983D01*
X79691638Y-103076910D01*
X79691637Y-103076910D01*
X79691636Y-103076909D01*
X79585012Y-103005665D01*
X79494335Y-102914988D01*
X79423091Y-102808364D01*
X79374017Y-102689890D01*
X79349000Y-102564118D01*
X79349000Y-102435882D01*
X79374017Y-102310110D01*
X79423091Y-102191636D01*
X79494335Y-102085012D01*
X79585012Y-101994335D01*
X79691636Y-101923091D01*
X79810110Y-101874017D01*
X79888523Y-101858420D01*
X79935881Y-101849000D01*
X80064119Y-101849000D01*
X80111477Y-101858420D01*
G37*
G36*
X90302280Y-101851000D02*
G01*
X90377618Y-101858420D01*
X90468404Y-101885960D01*
X90500336Y-101895646D01*
X90613425Y-101956094D01*
X90712554Y-102037446D01*
X90793906Y-102136575D01*
X90854354Y-102249664D01*
X90854355Y-102249668D01*
X90891580Y-102372382D01*
X90904149Y-102500000D01*
X90891580Y-102627618D01*
X90872690Y-102689890D01*
X90854354Y-102750336D01*
X90793906Y-102863425D01*
X90712554Y-102962554D01*
X90613425Y-103043906D01*
X90500336Y-103104354D01*
X90468404Y-103114040D01*
X90377618Y-103141580D01*
X90313855Y-103147860D01*
X90281974Y-103151000D01*
X89718026Y-103151000D01*
X89686145Y-103147860D01*
X89622382Y-103141580D01*
X89531596Y-103114040D01*
X89499664Y-103104354D01*
X89386575Y-103043906D01*
X89287446Y-102962554D01*
X89206094Y-102863425D01*
X89145646Y-102750336D01*
X89127310Y-102689890D01*
X89108420Y-102627618D01*
X89095851Y-102500000D01*
X89108420Y-102372382D01*
X89145645Y-102249668D01*
X89145646Y-102249664D01*
X89206094Y-102136575D01*
X89287446Y-102037446D01*
X89386575Y-101956094D01*
X89499664Y-101895646D01*
X89531596Y-101885960D01*
X89622382Y-101858420D01*
X89697720Y-101851000D01*
X89718026Y-101849000D01*
X90281974Y-101849000D01*
X90302280Y-101851000D01*
G37*
G36*
X84802280Y-101851000D02*
G01*
X84877618Y-101858420D01*
X84968404Y-101885960D01*
X85000336Y-101895646D01*
X85113425Y-101956094D01*
X85212554Y-102037446D01*
X85293906Y-102136575D01*
X85354354Y-102249664D01*
X85354355Y-102249668D01*
X85391580Y-102372382D01*
X85404149Y-102500000D01*
X85391580Y-102627618D01*
X85372690Y-102689890D01*
X85354354Y-102750336D01*
X85293906Y-102863425D01*
X85212554Y-102962554D01*
X85113425Y-103043906D01*
X85000336Y-103104354D01*
X84968404Y-103114040D01*
X84877618Y-103141580D01*
X84813855Y-103147860D01*
X84781974Y-103151000D01*
X84218026Y-103151000D01*
X84186145Y-103147860D01*
X84122382Y-103141580D01*
X84031596Y-103114040D01*
X83999664Y-103104354D01*
X83886575Y-103043906D01*
X83787446Y-102962554D01*
X83706094Y-102863425D01*
X83645646Y-102750336D01*
X83627310Y-102689890D01*
X83608420Y-102627618D01*
X83595851Y-102500000D01*
X83608420Y-102372382D01*
X83645645Y-102249668D01*
X83645646Y-102249664D01*
X83706094Y-102136575D01*
X83787446Y-102037446D01*
X83886575Y-101956094D01*
X83999664Y-101895646D01*
X84031596Y-101885960D01*
X84122382Y-101858420D01*
X84197720Y-101851000D01*
X84218026Y-101849000D01*
X84781974Y-101849000D01*
X84802280Y-101851000D01*
G37*
G36*
X78111477Y-101858420D02*
G01*
X78189890Y-101874017D01*
X78308364Y-101923091D01*
X78414988Y-101994335D01*
X78505665Y-102085012D01*
X78576909Y-102191636D01*
X78625983Y-102310110D01*
X78651000Y-102435882D01*
X78651000Y-102564118D01*
X78625983Y-102689890D01*
X78576909Y-102808364D01*
X78505665Y-102914988D01*
X78414988Y-103005665D01*
X78308364Y-103076909D01*
X78308363Y-103076910D01*
X78308362Y-103076910D01*
X78189890Y-103125983D01*
X78064119Y-103151000D01*
X77935881Y-103151000D01*
X77810110Y-103125983D01*
X77691638Y-103076910D01*
X77691637Y-103076910D01*
X77691636Y-103076909D01*
X77585012Y-103005665D01*
X77494335Y-102914988D01*
X77423091Y-102808364D01*
X77374017Y-102689890D01*
X77349000Y-102564118D01*
X77349000Y-102435882D01*
X77374017Y-102310110D01*
X77423091Y-102191636D01*
X77494335Y-102085012D01*
X77585012Y-101994335D01*
X77691636Y-101923091D01*
X77810110Y-101874017D01*
X77888523Y-101858420D01*
X77935881Y-101849000D01*
X78064119Y-101849000D01*
X78111477Y-101858420D01*
G37*
G36*
X60779500Y-101943000D02*
G01*
X59927500Y-101943000D01*
X59927500Y-99841000D01*
X60779500Y-99841000D01*
X60779500Y-101943000D01*
G37*
G36*
X65879500Y-101943000D02*
G01*
X65027500Y-101943000D01*
X65027500Y-99841000D01*
X65879500Y-99841000D01*
X65879500Y-101943000D01*
G37*
G36*
X59529500Y-101943000D02*
G01*
X58677500Y-101943000D01*
X58677500Y-99841000D01*
X59529500Y-99841000D01*
X59529500Y-101943000D01*
G37*
G36*
X64629500Y-101943000D02*
G01*
X63777500Y-101943000D01*
X63777500Y-99841000D01*
X64629500Y-99841000D01*
X64629500Y-101943000D01*
G37*
G36*
X58279500Y-101943000D02*
G01*
X57427500Y-101943000D01*
X57427500Y-99841000D01*
X58279500Y-99841000D01*
X58279500Y-101943000D01*
G37*
G36*
X63329500Y-101943000D02*
G01*
X62477500Y-101943000D01*
X62477500Y-99841000D01*
X63329500Y-99841000D01*
X63329500Y-101943000D01*
G37*
G36*
X62079500Y-101943000D02*
G01*
X61227500Y-101943000D01*
X61227500Y-99841000D01*
X62079500Y-99841000D01*
X62079500Y-101943000D01*
G37*
G36*
X56979500Y-101943000D02*
G01*
X56127500Y-101943000D01*
X56127500Y-99841000D01*
X56979500Y-99841000D01*
X56979500Y-101943000D01*
G37*
G36*
X55729500Y-101943000D02*
G01*
X54877500Y-101943000D01*
X54877500Y-99841000D01*
X55729500Y-99841000D01*
X55729500Y-101943000D01*
G37*
G36*
X54429500Y-101943000D02*
G01*
X53577500Y-101943000D01*
X53577500Y-99841000D01*
X54429500Y-99841000D01*
X54429500Y-101943000D01*
G37*
G36*
X71051000Y-101851000D02*
G01*
X68949000Y-101851000D01*
X68949000Y-100149000D01*
X71051000Y-100149000D01*
X71051000Y-101851000D01*
G37*
G36*
X75051000Y-101851000D02*
G01*
X72949000Y-101851000D01*
X72949000Y-100149000D01*
X75051000Y-100149000D01*
X75051000Y-101851000D01*
G37*
G36*
X90176000Y-100551000D02*
G01*
X88824000Y-100551000D01*
X88824000Y-98449000D01*
X90176000Y-98449000D01*
X90176000Y-100551000D01*
G37*
G36*
X97176000Y-100551000D02*
G01*
X95824000Y-100551000D01*
X95824000Y-98449000D01*
X97176000Y-98449000D01*
X97176000Y-100551000D01*
G37*
G36*
X52467000Y-98961886D02*
G01*
X52467602Y-98974138D01*
X52470149Y-99000000D01*
X52467602Y-99025862D01*
X52467000Y-99038114D01*
X52467000Y-99111406D01*
X52458043Y-99128164D01*
X52453915Y-99139701D01*
X52428132Y-99224693D01*
X52420354Y-99250336D01*
X52359906Y-99363425D01*
X52278554Y-99462554D01*
X52179425Y-99543906D01*
X52066336Y-99604354D01*
X52034404Y-99614040D01*
X51943618Y-99641580D01*
X51879855Y-99647860D01*
X51847974Y-99651000D01*
X51084026Y-99651000D01*
X51052145Y-99647860D01*
X50988382Y-99641580D01*
X50897596Y-99614040D01*
X50865664Y-99604354D01*
X50752575Y-99543906D01*
X50653446Y-99462554D01*
X50572094Y-99363425D01*
X50511646Y-99250336D01*
X50503868Y-99224693D01*
X50478087Y-99139708D01*
X50468713Y-99117075D01*
X50465000Y-99111518D01*
X50465000Y-99038114D01*
X50464398Y-99025862D01*
X50461851Y-99000000D01*
X50464398Y-98974138D01*
X50465000Y-98961886D01*
X50465000Y-97749000D01*
X52467000Y-97749000D01*
X52467000Y-98961886D01*
G37*
G36*
X54392348Y-92253820D02*
G01*
X54392350Y-92253821D01*
X54392351Y-92253821D01*
X54533574Y-92312317D01*
X54533577Y-92312319D01*
X54660669Y-92397239D01*
X54768761Y-92505331D01*
X54837661Y-92608447D01*
X54853683Y-92632426D01*
X54906938Y-92760996D01*
X54912180Y-92773652D01*
X54942000Y-92923569D01*
X54942000Y-93076431D01*
X54912769Y-93223388D01*
X54912179Y-93226351D01*
X54853683Y-93367574D01*
X54853681Y-93367577D01*
X54768761Y-93494669D01*
X54660669Y-93602761D01*
X54586920Y-93652038D01*
X54533574Y-93687683D01*
X54483272Y-93708519D01*
X54461664Y-93720068D01*
X54442722Y-93735614D01*
X54427177Y-93754556D01*
X54415626Y-93776166D01*
X54408513Y-93799615D01*
X54406111Y-93824001D01*
X54408513Y-93848387D01*
X54415626Y-93871836D01*
X54427177Y-93893447D01*
X54442723Y-93912389D01*
X54461665Y-93927934D01*
X54483275Y-93939485D01*
X54506724Y-93946598D01*
X54531110Y-93949000D01*
X54892000Y-93949000D01*
X54892000Y-97051000D01*
X54531110Y-97051000D01*
X54506724Y-97053402D01*
X54483275Y-97060515D01*
X54461664Y-97072066D01*
X54442722Y-97087611D01*
X54427177Y-97106553D01*
X54415626Y-97128164D01*
X54408513Y-97151613D01*
X54406111Y-97175999D01*
X54408513Y-97200385D01*
X54415626Y-97223834D01*
X54427177Y-97245445D01*
X54442722Y-97264387D01*
X54461664Y-97279932D01*
X54483272Y-97291481D01*
X54533574Y-97312317D01*
X54533575Y-97312318D01*
X54660669Y-97397239D01*
X54768761Y-97505331D01*
X54853681Y-97632423D01*
X54853683Y-97632426D01*
X54912179Y-97773649D01*
X54942000Y-97923571D01*
X54942000Y-98076429D01*
X54912179Y-98226351D01*
X54853683Y-98367574D01*
X54853681Y-98367577D01*
X54768761Y-98494669D01*
X54660669Y-98602761D01*
X54610064Y-98636574D01*
X54533574Y-98687683D01*
X54392351Y-98746179D01*
X54392350Y-98746179D01*
X54392348Y-98746180D01*
X54242431Y-98776000D01*
X54089569Y-98776000D01*
X53939652Y-98746180D01*
X53939650Y-98746179D01*
X53939649Y-98746179D01*
X53798426Y-98687683D01*
X53721936Y-98636574D01*
X53671331Y-98602761D01*
X53563239Y-98494669D01*
X53478319Y-98367577D01*
X53478317Y-98367574D01*
X53419821Y-98226351D01*
X53390000Y-98076429D01*
X53390000Y-97923571D01*
X53419821Y-97773649D01*
X53478317Y-97632426D01*
X53478319Y-97632423D01*
X53563239Y-97505331D01*
X53671331Y-97397239D01*
X53798425Y-97312318D01*
X53798426Y-97312317D01*
X53848728Y-97291481D01*
X53870336Y-97279932D01*
X53889278Y-97264386D01*
X53904823Y-97245444D01*
X53916374Y-97223834D01*
X53923487Y-97200385D01*
X53925889Y-97175999D01*
X53923487Y-97151613D01*
X53916374Y-97128164D01*
X53904823Y-97106553D01*
X53889277Y-97087611D01*
X53870335Y-97072066D01*
X53848725Y-97060515D01*
X53825276Y-97053402D01*
X53800890Y-97051000D01*
X53440000Y-97051000D01*
X53440000Y-93949000D01*
X53800890Y-93949000D01*
X53825276Y-93946598D01*
X53848725Y-93939485D01*
X53870336Y-93927934D01*
X53889278Y-93912389D01*
X53904823Y-93893447D01*
X53916374Y-93871836D01*
X53923487Y-93848387D01*
X53925889Y-93824001D01*
X53923487Y-93799615D01*
X53916374Y-93776166D01*
X53904823Y-93754555D01*
X53889278Y-93735613D01*
X53870336Y-93720068D01*
X53848728Y-93708519D01*
X53798426Y-93687683D01*
X53745080Y-93652038D01*
X53671331Y-93602761D01*
X53563239Y-93494669D01*
X53478319Y-93367577D01*
X53478317Y-93367574D01*
X53419821Y-93226351D01*
X53419232Y-93223388D01*
X53390000Y-93076431D01*
X53390000Y-92923569D01*
X53419820Y-92773652D01*
X53425062Y-92760996D01*
X53478317Y-92632426D01*
X53494339Y-92608447D01*
X53563239Y-92505331D01*
X53671331Y-92397239D01*
X53798423Y-92312319D01*
X53798426Y-92312317D01*
X53939649Y-92253821D01*
X53939650Y-92253821D01*
X53939652Y-92253820D01*
X54089569Y-92224000D01*
X54242431Y-92224000D01*
X54392348Y-92253820D01*
G37*
G36*
X67601000Y-97701000D02*
G01*
X65999000Y-97701000D01*
X65999000Y-96299000D01*
X67601000Y-96299000D01*
X67601000Y-97701000D01*
G37*
G36*
X70301000Y-97701000D02*
G01*
X68699000Y-97701000D01*
X68699000Y-96299000D01*
X70301000Y-96299000D01*
X70301000Y-97701000D01*
G37*
G36*
X52467000Y-97301000D02*
G01*
X50465000Y-97301000D01*
X50465000Y-95699000D01*
X52467000Y-95699000D01*
X52467000Y-97301000D01*
G37*
G36*
X77677064Y-95191889D02*
G01*
X77868333Y-95271115D01*
X77868335Y-95271116D01*
X78040473Y-95386135D01*
X78186865Y-95532527D01*
X78298099Y-95699000D01*
X78301885Y-95704667D01*
X78381111Y-95895936D01*
X78421500Y-96098984D01*
X78421500Y-96101252D01*
X78423902Y-96125638D01*
X78431015Y-96149087D01*
X78442566Y-96170698D01*
X78458111Y-96189640D01*
X78473782Y-96202500D01*
X78458112Y-96215360D01*
X78442566Y-96234302D01*
X78431015Y-96255913D01*
X78423902Y-96279362D01*
X78421500Y-96303748D01*
X78421500Y-96306016D01*
X78381111Y-96509064D01*
X78301885Y-96700333D01*
X78301884Y-96700335D01*
X78186865Y-96872473D01*
X78040473Y-97018865D01*
X77868335Y-97133884D01*
X77868334Y-97133885D01*
X77868333Y-97133885D01*
X77677064Y-97213111D01*
X77474016Y-97253500D01*
X77266984Y-97253500D01*
X77063936Y-97213111D01*
X76872667Y-97133885D01*
X76872666Y-97133885D01*
X76872665Y-97133884D01*
X76700527Y-97018865D01*
X76554135Y-96872473D01*
X76439116Y-96700335D01*
X76439115Y-96700333D01*
X76359889Y-96509064D01*
X76319500Y-96306016D01*
X76319500Y-96098984D01*
X76359889Y-95895936D01*
X76439115Y-95704667D01*
X76442902Y-95699000D01*
X76554135Y-95532527D01*
X76700527Y-95386135D01*
X76872665Y-95271116D01*
X76872667Y-95271115D01*
X77063936Y-95191889D01*
X77266984Y-95151500D01*
X77474016Y-95151500D01*
X77677064Y-95191889D01*
G37*
G36*
X85877064Y-95191889D02*
G01*
X86068333Y-95271115D01*
X86068335Y-95271116D01*
X86240473Y-95386135D01*
X86386865Y-95532527D01*
X86498099Y-95699000D01*
X86501885Y-95704667D01*
X86581111Y-95895936D01*
X86621500Y-96098984D01*
X86621500Y-96306016D01*
X86581111Y-96509064D01*
X86501885Y-96700333D01*
X86501884Y-96700335D01*
X86386865Y-96872473D01*
X86240473Y-97018865D01*
X86068335Y-97133884D01*
X86068334Y-97133885D01*
X86068333Y-97133885D01*
X85877064Y-97213111D01*
X85674016Y-97253500D01*
X85466984Y-97253500D01*
X85263936Y-97213111D01*
X85072667Y-97133885D01*
X85072666Y-97133885D01*
X85072665Y-97133884D01*
X84900527Y-97018865D01*
X84754135Y-96872473D01*
X84639116Y-96700335D01*
X84639115Y-96700333D01*
X84559889Y-96509064D01*
X84519500Y-96306016D01*
X84519500Y-96303748D01*
X84517098Y-96279362D01*
X84509985Y-96255913D01*
X84498434Y-96234302D01*
X84482889Y-96215360D01*
X84467218Y-96202500D01*
X84482888Y-96189640D01*
X84498434Y-96170698D01*
X84509985Y-96149087D01*
X84517098Y-96125638D01*
X84519500Y-96101252D01*
X84519500Y-96098984D01*
X84559889Y-95895936D01*
X84639115Y-95704667D01*
X84642902Y-95699000D01*
X84754135Y-95532527D01*
X84900527Y-95386135D01*
X85072665Y-95271116D01*
X85072667Y-95271115D01*
X85263936Y-95191889D01*
X85466984Y-95151500D01*
X85674016Y-95151500D01*
X85877064Y-95191889D01*
G37*
G36*
X81704142Y-95432281D02*
G01*
X81849914Y-95492662D01*
X81849916Y-95492663D01*
X81981108Y-95580322D01*
X82092678Y-95691892D01*
X82132172Y-95751000D01*
X82180338Y-95823086D01*
X82240719Y-95968858D01*
X82271500Y-96123607D01*
X82271500Y-96281393D01*
X82240719Y-96436142D01*
X82210513Y-96509065D01*
X82180337Y-96581916D01*
X82092678Y-96713108D01*
X81981108Y-96824678D01*
X81849916Y-96912337D01*
X81849915Y-96912338D01*
X81849914Y-96912338D01*
X81704142Y-96972719D01*
X81549393Y-97003500D01*
X81391607Y-97003500D01*
X81236858Y-96972719D01*
X81091086Y-96912338D01*
X81091085Y-96912338D01*
X81091084Y-96912337D01*
X80959892Y-96824678D01*
X80848322Y-96713108D01*
X80760663Y-96581916D01*
X80730487Y-96509065D01*
X80700281Y-96436142D01*
X80669500Y-96281393D01*
X80669500Y-96123607D01*
X80700281Y-95968858D01*
X80760662Y-95823086D01*
X80808828Y-95751000D01*
X80848322Y-95691892D01*
X80959892Y-95580322D01*
X81091084Y-95492663D01*
X81091086Y-95492662D01*
X81236858Y-95432281D01*
X81391607Y-95401500D01*
X81549393Y-95401500D01*
X81704142Y-95432281D01*
G37*
G36*
X83704142Y-95432281D02*
G01*
X83849914Y-95492662D01*
X83849916Y-95492663D01*
X83981108Y-95580322D01*
X84092678Y-95691892D01*
X84132172Y-95751000D01*
X84180338Y-95823086D01*
X84240719Y-95968858D01*
X84271904Y-96125638D01*
X84279017Y-96149087D01*
X84290568Y-96170697D01*
X84306113Y-96189639D01*
X84321783Y-96202500D01*
X84306113Y-96215360D01*
X84290568Y-96234302D01*
X84279017Y-96255913D01*
X84271904Y-96279362D01*
X84240719Y-96436142D01*
X84210513Y-96509065D01*
X84180337Y-96581916D01*
X84092678Y-96713108D01*
X83981108Y-96824678D01*
X83849916Y-96912337D01*
X83849915Y-96912338D01*
X83849914Y-96912338D01*
X83704142Y-96972719D01*
X83549393Y-97003500D01*
X83391607Y-97003500D01*
X83236858Y-96972719D01*
X83091086Y-96912338D01*
X83091085Y-96912338D01*
X83091084Y-96912337D01*
X82959892Y-96824678D01*
X82848322Y-96713108D01*
X82760663Y-96581916D01*
X82730487Y-96509065D01*
X82700281Y-96436142D01*
X82669500Y-96281393D01*
X82669500Y-96123607D01*
X82700281Y-95968858D01*
X82760662Y-95823086D01*
X82808828Y-95751000D01*
X82848322Y-95691892D01*
X82959892Y-95580322D01*
X83091084Y-95492663D01*
X83091086Y-95492662D01*
X83236858Y-95432281D01*
X83391607Y-95401500D01*
X83549393Y-95401500D01*
X83704142Y-95432281D01*
G37*
G36*
X79704142Y-95432281D02*
G01*
X79849914Y-95492662D01*
X79849916Y-95492663D01*
X79981108Y-95580322D01*
X80092678Y-95691892D01*
X80132172Y-95751000D01*
X80180338Y-95823086D01*
X80240719Y-95968858D01*
X80271500Y-96123607D01*
X80271500Y-96281393D01*
X80240719Y-96436142D01*
X80210513Y-96509065D01*
X80180337Y-96581916D01*
X80092678Y-96713108D01*
X79981108Y-96824678D01*
X79849916Y-96912337D01*
X79849915Y-96912338D01*
X79849914Y-96912338D01*
X79704142Y-96972719D01*
X79549393Y-97003500D01*
X79391607Y-97003500D01*
X79236858Y-96972719D01*
X79091086Y-96912338D01*
X79091085Y-96912338D01*
X79091084Y-96912337D01*
X78959892Y-96824678D01*
X78848322Y-96713108D01*
X78760663Y-96581916D01*
X78730487Y-96509065D01*
X78700281Y-96436142D01*
X78669096Y-96279362D01*
X78661983Y-96255913D01*
X78650432Y-96234303D01*
X78634887Y-96215361D01*
X78619217Y-96202500D01*
X78634887Y-96189640D01*
X78650432Y-96170698D01*
X78661983Y-96149087D01*
X78669096Y-96125638D01*
X78700281Y-95968858D01*
X78760662Y-95823086D01*
X78808828Y-95751000D01*
X78848322Y-95691892D01*
X78959892Y-95580322D01*
X79091084Y-95492663D01*
X79091086Y-95492662D01*
X79236858Y-95432281D01*
X79391607Y-95401500D01*
X79549393Y-95401500D01*
X79704142Y-95432281D01*
G37*
G36*
X67201000Y-95651000D02*
G01*
X65799000Y-95651000D01*
X65799000Y-94049000D01*
X67201000Y-94049000D01*
X67201000Y-95651000D01*
G37*
G36*
X52467000Y-95301000D02*
G01*
X50465000Y-95301000D01*
X50465000Y-93699000D01*
X52467000Y-93699000D01*
X52467000Y-95301000D01*
G37*
G36*
X71117260Y-93675371D02*
G01*
X71151071Y-93689376D01*
X71194784Y-93707482D01*
X71194787Y-93707484D01*
X71264559Y-93754104D01*
X71323896Y-93813441D01*
X71347246Y-93848387D01*
X71370518Y-93883216D01*
X71377268Y-93899513D01*
X71402629Y-93960740D01*
X71419000Y-94043043D01*
X71419000Y-94126957D01*
X71402629Y-94209260D01*
X71388624Y-94243071D01*
X71370518Y-94286784D01*
X71370516Y-94286787D01*
X71323896Y-94356559D01*
X71264559Y-94415896D01*
X71212022Y-94451000D01*
X71194784Y-94462518D01*
X71151071Y-94480624D01*
X71117260Y-94494629D01*
X71034957Y-94511000D01*
X70951043Y-94511000D01*
X70868740Y-94494629D01*
X70834929Y-94480624D01*
X70791216Y-94462518D01*
X70773978Y-94451000D01*
X70721441Y-94415896D01*
X70662104Y-94356559D01*
X70615484Y-94286787D01*
X70615482Y-94286784D01*
X70597376Y-94243071D01*
X70583371Y-94209260D01*
X70567000Y-94126957D01*
X70567000Y-94043043D01*
X70583371Y-93960740D01*
X70608732Y-93899513D01*
X70615482Y-93883216D01*
X70638754Y-93848387D01*
X70662104Y-93813441D01*
X70721441Y-93754104D01*
X70791213Y-93707484D01*
X70791216Y-93707482D01*
X70834929Y-93689376D01*
X70868740Y-93675371D01*
X70951043Y-93659000D01*
X71034957Y-93659000D01*
X71117260Y-93675371D01*
G37*
G36*
X58080721Y-91970174D02*
G01*
X58180995Y-92011709D01*
X58180996Y-92011710D01*
X58271242Y-92072010D01*
X58347990Y-92148758D01*
X58347991Y-92148760D01*
X58408291Y-92239005D01*
X58439516Y-92314389D01*
X58451067Y-92336000D01*
X58466612Y-92354941D01*
X58485554Y-92370487D01*
X58507165Y-92382038D01*
X58530614Y-92389151D01*
X58555000Y-92391553D01*
X58579386Y-92389151D01*
X58602835Y-92382038D01*
X58624446Y-92370487D01*
X58643387Y-92354942D01*
X58658933Y-92336000D01*
X58670484Y-92314389D01*
X58701709Y-92239005D01*
X58762009Y-92148760D01*
X58762010Y-92148758D01*
X58838758Y-92072010D01*
X58929004Y-92011710D01*
X58929005Y-92011709D01*
X59029279Y-91970174D01*
X59135730Y-91949000D01*
X59244270Y-91949000D01*
X59350721Y-91970174D01*
X59450995Y-92011709D01*
X59450996Y-92011710D01*
X59541242Y-92072010D01*
X59617990Y-92148758D01*
X59617991Y-92148760D01*
X59678291Y-92239005D01*
X59709516Y-92314389D01*
X59721067Y-92336000D01*
X59736612Y-92354941D01*
X59755554Y-92370487D01*
X59777165Y-92382038D01*
X59800614Y-92389151D01*
X59825000Y-92391553D01*
X59849386Y-92389151D01*
X59872835Y-92382038D01*
X59894446Y-92370487D01*
X59913387Y-92354942D01*
X59928933Y-92336000D01*
X59940484Y-92314389D01*
X59971709Y-92239005D01*
X60032009Y-92148760D01*
X60032010Y-92148758D01*
X60108758Y-92072010D01*
X60199004Y-92011710D01*
X60199005Y-92011709D01*
X60299279Y-91970174D01*
X60405730Y-91949000D01*
X60514270Y-91949000D01*
X60620721Y-91970174D01*
X60720995Y-92011709D01*
X60720996Y-92011710D01*
X60811242Y-92072010D01*
X60887990Y-92148758D01*
X60887991Y-92148760D01*
X60948291Y-92239005D01*
X60979516Y-92314389D01*
X60991067Y-92336000D01*
X61006612Y-92354941D01*
X61025554Y-92370487D01*
X61047165Y-92382038D01*
X61070614Y-92389151D01*
X61095000Y-92391553D01*
X61119386Y-92389151D01*
X61142835Y-92382038D01*
X61164446Y-92370487D01*
X61183387Y-92354942D01*
X61198933Y-92336000D01*
X61210484Y-92314389D01*
X61241709Y-92239005D01*
X61302009Y-92148760D01*
X61302010Y-92148758D01*
X61378758Y-92072010D01*
X61469004Y-92011710D01*
X61469005Y-92011709D01*
X61569279Y-91970174D01*
X61675730Y-91949000D01*
X61784270Y-91949000D01*
X61890721Y-91970174D01*
X61990995Y-92011709D01*
X61990996Y-92011710D01*
X62081242Y-92072010D01*
X62157990Y-92148758D01*
X62157991Y-92148760D01*
X62220068Y-92241664D01*
X62235614Y-92260606D01*
X62254556Y-92276151D01*
X62276167Y-92287702D01*
X62299615Y-92294815D01*
X62324002Y-92297217D01*
X62348388Y-92294815D01*
X62371837Y-92287702D01*
X62393447Y-92276151D01*
X62412389Y-92260605D01*
X62427934Y-92241663D01*
X62439485Y-92220052D01*
X62446598Y-92196604D01*
X62449000Y-92172218D01*
X62449000Y-91949000D01*
X63551000Y-91949000D01*
X63551000Y-93051000D01*
X63327782Y-93051000D01*
X63303396Y-93053402D01*
X63279947Y-93060515D01*
X63258336Y-93072066D01*
X63239394Y-93087611D01*
X63223849Y-93106553D01*
X63212298Y-93128164D01*
X63205185Y-93151613D01*
X63202783Y-93175999D01*
X63205185Y-93200385D01*
X63212298Y-93223834D01*
X63223849Y-93245445D01*
X63239394Y-93264387D01*
X63258336Y-93279932D01*
X63319816Y-93321012D01*
X63351242Y-93342010D01*
X63427990Y-93418758D01*
X63427991Y-93418760D01*
X63488291Y-93509005D01*
X63529826Y-93609279D01*
X63551000Y-93715730D01*
X63551000Y-93824270D01*
X63529826Y-93930721D01*
X63488291Y-94030995D01*
X63488290Y-94030996D01*
X63427990Y-94121242D01*
X63351242Y-94197990D01*
X63305812Y-94228345D01*
X63260995Y-94258291D01*
X63160721Y-94299826D01*
X63054270Y-94321000D01*
X62945730Y-94321000D01*
X62839279Y-94299826D01*
X62739005Y-94258291D01*
X62694188Y-94228345D01*
X62648758Y-94197990D01*
X62572010Y-94121242D01*
X62511710Y-94030996D01*
X62511709Y-94030995D01*
X62480484Y-93955611D01*
X62468933Y-93934000D01*
X62453388Y-93915059D01*
X62434446Y-93899513D01*
X62412835Y-93887962D01*
X62389386Y-93880849D01*
X62365000Y-93878447D01*
X62340614Y-93880849D01*
X62317165Y-93887962D01*
X62295554Y-93899513D01*
X62276613Y-93915058D01*
X62261067Y-93934000D01*
X62249516Y-93955611D01*
X62218291Y-94030995D01*
X62218290Y-94030996D01*
X62157990Y-94121242D01*
X62081242Y-94197990D01*
X62035812Y-94228345D01*
X61990995Y-94258291D01*
X61890721Y-94299826D01*
X61784270Y-94321000D01*
X61675730Y-94321000D01*
X61569279Y-94299826D01*
X61469005Y-94258291D01*
X61424188Y-94228345D01*
X61378758Y-94197990D01*
X61302010Y-94121242D01*
X61241710Y-94030996D01*
X61241709Y-94030995D01*
X61210484Y-93955611D01*
X61198933Y-93934000D01*
X61183388Y-93915059D01*
X61164446Y-93899513D01*
X61142835Y-93887962D01*
X61119386Y-93880849D01*
X61095000Y-93878447D01*
X61070614Y-93880849D01*
X61047165Y-93887962D01*
X61025554Y-93899513D01*
X61006613Y-93915058D01*
X60991067Y-93934000D01*
X60979516Y-93955611D01*
X60948291Y-94030995D01*
X60948290Y-94030996D01*
X60887990Y-94121242D01*
X60811242Y-94197990D01*
X60765812Y-94228345D01*
X60720995Y-94258291D01*
X60620721Y-94299826D01*
X60514270Y-94321000D01*
X60405730Y-94321000D01*
X60299279Y-94299826D01*
X60199005Y-94258291D01*
X60154188Y-94228345D01*
X60108758Y-94197990D01*
X60032010Y-94121242D01*
X59971710Y-94030996D01*
X59971709Y-94030995D01*
X59940484Y-93955611D01*
X59928933Y-93934000D01*
X59913388Y-93915059D01*
X59894446Y-93899513D01*
X59872835Y-93887962D01*
X59849386Y-93880849D01*
X59825000Y-93878447D01*
X59800614Y-93880849D01*
X59777165Y-93887962D01*
X59755554Y-93899513D01*
X59736613Y-93915058D01*
X59721067Y-93934000D01*
X59709516Y-93955611D01*
X59678291Y-94030995D01*
X59678290Y-94030996D01*
X59617990Y-94121242D01*
X59541242Y-94197990D01*
X59495812Y-94228345D01*
X59450995Y-94258291D01*
X59350721Y-94299826D01*
X59244270Y-94321000D01*
X59135730Y-94321000D01*
X59029279Y-94299826D01*
X58929005Y-94258291D01*
X58884188Y-94228345D01*
X58838758Y-94197990D01*
X58762010Y-94121242D01*
X58701710Y-94030996D01*
X58701709Y-94030995D01*
X58670484Y-93955611D01*
X58658933Y-93934000D01*
X58643388Y-93915059D01*
X58624446Y-93899513D01*
X58602835Y-93887962D01*
X58579386Y-93880849D01*
X58555000Y-93878447D01*
X58530614Y-93880849D01*
X58507165Y-93887962D01*
X58485554Y-93899513D01*
X58466613Y-93915058D01*
X58451067Y-93934000D01*
X58439516Y-93955611D01*
X58408291Y-94030995D01*
X58408290Y-94030996D01*
X58347990Y-94121242D01*
X58271242Y-94197990D01*
X58225812Y-94228345D01*
X58180995Y-94258291D01*
X58080721Y-94299826D01*
X57974270Y-94321000D01*
X57865730Y-94321000D01*
X57759279Y-94299826D01*
X57659005Y-94258291D01*
X57614188Y-94228345D01*
X57568758Y-94197990D01*
X57492010Y-94121242D01*
X57431710Y-94030996D01*
X57431709Y-94030995D01*
X57390174Y-93930721D01*
X57369000Y-93824270D01*
X57369000Y-93715730D01*
X57390174Y-93609279D01*
X57431709Y-93509005D01*
X57492009Y-93418760D01*
X57492010Y-93418758D01*
X57568758Y-93342010D01*
X57659004Y-93281710D01*
X57659005Y-93281709D01*
X57734389Y-93250484D01*
X57756000Y-93238933D01*
X57774941Y-93223388D01*
X57790487Y-93204446D01*
X57802038Y-93182835D01*
X57809151Y-93159386D01*
X57811553Y-93135000D01*
X58028447Y-93135000D01*
X58030849Y-93159386D01*
X58037962Y-93182835D01*
X58049513Y-93204446D01*
X58065058Y-93223387D01*
X58084000Y-93238933D01*
X58105611Y-93250484D01*
X58180995Y-93281709D01*
X58180996Y-93281710D01*
X58271242Y-93342010D01*
X58347990Y-93418758D01*
X58347991Y-93418760D01*
X58408291Y-93509005D01*
X58439516Y-93584389D01*
X58451067Y-93606000D01*
X58466612Y-93624941D01*
X58485554Y-93640487D01*
X58507165Y-93652038D01*
X58530614Y-93659151D01*
X58555000Y-93661553D01*
X58579386Y-93659151D01*
X58602835Y-93652038D01*
X58624446Y-93640487D01*
X58643387Y-93624942D01*
X58658933Y-93606000D01*
X58670484Y-93584389D01*
X58701709Y-93509005D01*
X58762009Y-93418760D01*
X58762010Y-93418758D01*
X58838758Y-93342010D01*
X58929004Y-93281710D01*
X58929005Y-93281709D01*
X59004389Y-93250484D01*
X59026000Y-93238933D01*
X59044941Y-93223388D01*
X59060487Y-93204446D01*
X59072038Y-93182835D01*
X59079151Y-93159386D01*
X59081553Y-93135000D01*
X59298447Y-93135000D01*
X59300849Y-93159386D01*
X59307962Y-93182835D01*
X59319513Y-93204446D01*
X59335058Y-93223387D01*
X59354000Y-93238933D01*
X59375611Y-93250484D01*
X59450995Y-93281709D01*
X59450996Y-93281710D01*
X59541242Y-93342010D01*
X59617990Y-93418758D01*
X59617991Y-93418760D01*
X59678291Y-93509005D01*
X59709516Y-93584389D01*
X59721067Y-93606000D01*
X59736612Y-93624941D01*
X59755554Y-93640487D01*
X59777165Y-93652038D01*
X59800614Y-93659151D01*
X59825000Y-93661553D01*
X59849386Y-93659151D01*
X59872835Y-93652038D01*
X59894446Y-93640487D01*
X59913387Y-93624942D01*
X59928933Y-93606000D01*
X59940484Y-93584389D01*
X59971709Y-93509005D01*
X60032009Y-93418760D01*
X60032010Y-93418758D01*
X60108758Y-93342010D01*
X60199004Y-93281710D01*
X60199005Y-93281709D01*
X60274389Y-93250484D01*
X60296000Y-93238933D01*
X60314941Y-93223388D01*
X60330487Y-93204446D01*
X60342038Y-93182835D01*
X60349151Y-93159386D01*
X60351553Y-93135000D01*
X60568447Y-93135000D01*
X60570849Y-93159386D01*
X60577962Y-93182835D01*
X60589513Y-93204446D01*
X60605058Y-93223387D01*
X60624000Y-93238933D01*
X60645611Y-93250484D01*
X60720995Y-93281709D01*
X60720996Y-93281710D01*
X60811242Y-93342010D01*
X60887990Y-93418758D01*
X60887991Y-93418760D01*
X60948291Y-93509005D01*
X60979516Y-93584389D01*
X60991067Y-93606000D01*
X61006612Y-93624941D01*
X61025554Y-93640487D01*
X61047165Y-93652038D01*
X61070614Y-93659151D01*
X61095000Y-93661553D01*
X61119386Y-93659151D01*
X61142835Y-93652038D01*
X61164446Y-93640487D01*
X61183387Y-93624942D01*
X61198933Y-93606000D01*
X61210484Y-93584389D01*
X61241709Y-93509005D01*
X61302009Y-93418760D01*
X61302010Y-93418758D01*
X61378758Y-93342010D01*
X61469004Y-93281710D01*
X61469005Y-93281709D01*
X61544389Y-93250484D01*
X61566000Y-93238933D01*
X61584941Y-93223388D01*
X61600487Y-93204446D01*
X61612038Y-93182835D01*
X61619151Y-93159386D01*
X61621553Y-93135000D01*
X61838447Y-93135000D01*
X61840849Y-93159386D01*
X61847962Y-93182835D01*
X61859513Y-93204446D01*
X61875058Y-93223387D01*
X61894000Y-93238933D01*
X61915611Y-93250484D01*
X61990995Y-93281709D01*
X61990996Y-93281710D01*
X62081242Y-93342010D01*
X62157990Y-93418758D01*
X62157991Y-93418760D01*
X62218291Y-93509005D01*
X62249516Y-93584389D01*
X62261067Y-93606000D01*
X62276612Y-93624941D01*
X62295554Y-93640487D01*
X62317165Y-93652038D01*
X62340614Y-93659151D01*
X62365000Y-93661553D01*
X62389386Y-93659151D01*
X62412835Y-93652038D01*
X62434446Y-93640487D01*
X62453387Y-93624942D01*
X62468933Y-93606000D01*
X62480484Y-93584389D01*
X62511709Y-93509005D01*
X62572009Y-93418760D01*
X62572010Y-93418758D01*
X62648758Y-93342010D01*
X62680184Y-93321012D01*
X62741664Y-93279932D01*
X62760606Y-93264386D01*
X62776151Y-93245444D01*
X62787702Y-93223833D01*
X62794815Y-93200385D01*
X62797217Y-93175998D01*
X62794815Y-93151612D01*
X62787702Y-93128163D01*
X62776151Y-93106553D01*
X62760605Y-93087611D01*
X62741663Y-93072066D01*
X62720052Y-93060515D01*
X62696604Y-93053402D01*
X62672218Y-93051000D01*
X62449000Y-93051000D01*
X62449000Y-92827782D01*
X62446598Y-92803396D01*
X62439485Y-92779947D01*
X62427934Y-92758336D01*
X62412389Y-92739394D01*
X62393447Y-92723849D01*
X62371836Y-92712298D01*
X62348387Y-92705185D01*
X62324001Y-92702783D01*
X62299615Y-92705185D01*
X62276166Y-92712298D01*
X62254555Y-92723849D01*
X62235613Y-92739394D01*
X62220068Y-92758336D01*
X62178988Y-92819816D01*
X62157990Y-92851242D01*
X62081242Y-92927990D01*
X62046805Y-92951000D01*
X61990995Y-92988291D01*
X61915611Y-93019516D01*
X61894000Y-93031067D01*
X61875059Y-93046612D01*
X61859513Y-93065554D01*
X61847962Y-93087165D01*
X61840849Y-93110614D01*
X61838447Y-93135000D01*
X61621553Y-93135000D01*
X61619151Y-93110614D01*
X61612038Y-93087165D01*
X61600487Y-93065554D01*
X61584942Y-93046613D01*
X61566000Y-93031067D01*
X61544389Y-93019516D01*
X61469005Y-92988291D01*
X61413195Y-92951000D01*
X61378758Y-92927990D01*
X61302010Y-92851242D01*
X61270041Y-92803396D01*
X61241709Y-92760995D01*
X61210484Y-92685611D01*
X61198933Y-92664000D01*
X61183388Y-92645059D01*
X61164446Y-92629513D01*
X61142835Y-92617962D01*
X61119386Y-92610849D01*
X61095000Y-92608447D01*
X61070614Y-92610849D01*
X61047165Y-92617962D01*
X61025554Y-92629513D01*
X61006613Y-92645058D01*
X60991067Y-92664000D01*
X60979516Y-92685611D01*
X60948291Y-92760995D01*
X60919959Y-92803396D01*
X60887990Y-92851242D01*
X60811242Y-92927990D01*
X60776805Y-92951000D01*
X60720995Y-92988291D01*
X60645611Y-93019516D01*
X60624000Y-93031067D01*
X60605059Y-93046612D01*
X60589513Y-93065554D01*
X60577962Y-93087165D01*
X60570849Y-93110614D01*
X60568447Y-93135000D01*
X60351553Y-93135000D01*
X60349151Y-93110614D01*
X60342038Y-93087165D01*
X60330487Y-93065554D01*
X60314942Y-93046613D01*
X60296000Y-93031067D01*
X60274389Y-93019516D01*
X60199005Y-92988291D01*
X60143195Y-92951000D01*
X60108758Y-92927990D01*
X60032010Y-92851242D01*
X60000041Y-92803396D01*
X59971709Y-92760995D01*
X59940484Y-92685611D01*
X59928933Y-92664000D01*
X59913388Y-92645059D01*
X59894446Y-92629513D01*
X59872835Y-92617962D01*
X59849386Y-92610849D01*
X59825000Y-92608447D01*
X59800614Y-92610849D01*
X59777165Y-92617962D01*
X59755554Y-92629513D01*
X59736613Y-92645058D01*
X59721067Y-92664000D01*
X59709516Y-92685611D01*
X59678291Y-92760995D01*
X59649959Y-92803396D01*
X59617990Y-92851242D01*
X59541242Y-92927990D01*
X59506805Y-92951000D01*
X59450995Y-92988291D01*
X59375611Y-93019516D01*
X59354000Y-93031067D01*
X59335059Y-93046612D01*
X59319513Y-93065554D01*
X59307962Y-93087165D01*
X59300849Y-93110614D01*
X59298447Y-93135000D01*
X59081553Y-93135000D01*
X59079151Y-93110614D01*
X59072038Y-93087165D01*
X59060487Y-93065554D01*
X59044942Y-93046613D01*
X59026000Y-93031067D01*
X59004389Y-93019516D01*
X58929005Y-92988291D01*
X58873195Y-92951000D01*
X58838758Y-92927990D01*
X58762010Y-92851242D01*
X58730041Y-92803396D01*
X58701709Y-92760995D01*
X58670484Y-92685611D01*
X58658933Y-92664000D01*
X58643388Y-92645059D01*
X58624446Y-92629513D01*
X58602835Y-92617962D01*
X58579386Y-92610849D01*
X58555000Y-92608447D01*
X58530614Y-92610849D01*
X58507165Y-92617962D01*
X58485554Y-92629513D01*
X58466613Y-92645058D01*
X58451067Y-92664000D01*
X58439516Y-92685611D01*
X58408291Y-92760995D01*
X58379959Y-92803396D01*
X58347990Y-92851242D01*
X58271242Y-92927990D01*
X58236805Y-92951000D01*
X58180995Y-92988291D01*
X58105611Y-93019516D01*
X58084000Y-93031067D01*
X58065059Y-93046612D01*
X58049513Y-93065554D01*
X58037962Y-93087165D01*
X58030849Y-93110614D01*
X58028447Y-93135000D01*
X57811553Y-93135000D01*
X57809151Y-93110614D01*
X57802038Y-93087165D01*
X57790487Y-93065554D01*
X57774942Y-93046613D01*
X57756000Y-93031067D01*
X57734389Y-93019516D01*
X57659005Y-92988291D01*
X57603195Y-92951000D01*
X57568758Y-92927990D01*
X57492010Y-92851242D01*
X57460041Y-92803396D01*
X57431709Y-92760995D01*
X57390174Y-92660721D01*
X57369000Y-92554270D01*
X57369000Y-92445730D01*
X57390174Y-92339279D01*
X57431709Y-92239005D01*
X57492009Y-92148760D01*
X57492010Y-92148758D01*
X57568758Y-92072010D01*
X57659004Y-92011710D01*
X57659005Y-92011709D01*
X57759279Y-91970174D01*
X57865730Y-91949000D01*
X57974270Y-91949000D01*
X58080721Y-91970174D01*
G37*
G36*
X68844000Y-94111000D02*
G01*
X67542000Y-94111000D01*
X67542000Y-93009000D01*
X68844000Y-93009000D01*
X68844000Y-94111000D01*
G37*
G36*
X74444000Y-94011000D02*
G01*
X73142000Y-94011000D01*
X73142000Y-92909000D01*
X74444000Y-92909000D01*
X74444000Y-94011000D01*
G37*
G36*
X51879855Y-91352140D02*
G01*
X51943618Y-91358420D01*
X52034404Y-91385960D01*
X52066336Y-91395646D01*
X52179425Y-91456094D01*
X52278554Y-91537446D01*
X52359906Y-91636575D01*
X52420354Y-91749664D01*
X52420355Y-91749668D01*
X52453913Y-91860292D01*
X52463287Y-91882925D01*
X52467000Y-91888482D01*
X52467000Y-91961886D01*
X52467602Y-91974138D01*
X52470149Y-92000000D01*
X52467602Y-92025862D01*
X52467000Y-92038114D01*
X52467000Y-93251000D01*
X50465000Y-93251000D01*
X50465000Y-92038114D01*
X50464398Y-92025862D01*
X50461851Y-92000000D01*
X50464398Y-91974138D01*
X50465000Y-91961886D01*
X50465000Y-91888594D01*
X50473957Y-91871836D01*
X50478085Y-91860299D01*
X50511645Y-91749668D01*
X50511646Y-91749664D01*
X50572094Y-91636575D01*
X50653446Y-91537446D01*
X50752575Y-91456094D01*
X50865664Y-91395646D01*
X50897596Y-91385960D01*
X50988382Y-91358420D01*
X51052145Y-91352140D01*
X51084026Y-91349000D01*
X51847974Y-91349000D01*
X51879855Y-91352140D01*
G37*
G36*
X67201000Y-92951000D02*
G01*
X65799000Y-92951000D01*
X65799000Y-91349000D01*
X67201000Y-91349000D01*
X67201000Y-92951000D01*
G37*
G36*
X97176000Y-92551000D02*
G01*
X95824000Y-92551000D01*
X95824000Y-90449000D01*
X97176000Y-90449000D01*
X97176000Y-92551000D01*
G37*
G36*
X90176000Y-92551000D02*
G01*
X88824000Y-92551000D01*
X88824000Y-90449000D01*
X90176000Y-90449000D01*
X90176000Y-92551000D01*
G37*
G36*
X74444000Y-92411000D02*
G01*
X73142000Y-92411000D01*
X73142000Y-91309000D01*
X74444000Y-91309000D01*
X74444000Y-92411000D01*
G37*
G36*
X68844000Y-92411000D02*
G01*
X67542000Y-92411000D01*
X67542000Y-91309000D01*
X68844000Y-91309000D01*
X68844000Y-92411000D01*
G37*
G36*
X71117260Y-90925371D02*
G01*
X71151071Y-90939376D01*
X71194784Y-90957482D01*
X71194787Y-90957484D01*
X71264559Y-91004104D01*
X71323896Y-91063441D01*
X71323897Y-91063443D01*
X71370518Y-91133216D01*
X71388624Y-91176929D01*
X71402629Y-91210740D01*
X71419000Y-91293043D01*
X71419000Y-91376957D01*
X71402629Y-91459260D01*
X71388624Y-91493071D01*
X71370518Y-91536784D01*
X71370516Y-91536787D01*
X71323896Y-91606559D01*
X71264559Y-91665896D01*
X71194787Y-91712516D01*
X71194784Y-91712518D01*
X71151071Y-91730624D01*
X71117260Y-91744629D01*
X71034957Y-91761000D01*
X70951043Y-91761000D01*
X70868740Y-91744629D01*
X70834929Y-91730624D01*
X70791216Y-91712518D01*
X70791213Y-91712516D01*
X70721441Y-91665896D01*
X70662104Y-91606559D01*
X70615484Y-91536787D01*
X70615482Y-91536784D01*
X70597376Y-91493071D01*
X70583371Y-91459260D01*
X70567000Y-91376957D01*
X70567000Y-91293043D01*
X70583371Y-91210740D01*
X70597376Y-91176929D01*
X70615482Y-91133216D01*
X70662103Y-91063443D01*
X70662104Y-91063441D01*
X70721441Y-91004104D01*
X70791213Y-90957484D01*
X70791216Y-90957482D01*
X70834929Y-90939376D01*
X70868740Y-90925371D01*
X70951043Y-90909000D01*
X71034957Y-90909000D01*
X71117260Y-90925371D01*
G37*
M02*
