G04 #@! TF.GenerationSoftware,KiCad,Pcbnew,5.1.6-c6e7f7d~86~ubuntu18.04.1*
G04 #@! TF.CreationDate,2020-06-02T09:04:51-04:00*
G04 #@! TF.ProjectId,E73 SCR v2,45373320-5343-4522-9076-322e6b696361,rev?*
G04 #@! TF.SameCoordinates,Original*
G04 #@! TF.FileFunction,Copper,L2,Inr*
G04 #@! TF.FilePolarity,Positive*
%FSLAX46Y46*%
G04 Gerber Fmt 4.6, Leading zero omitted, Abs format (unit mm)*
G04 Created by KiCad (PCBNEW 5.1.6-c6e7f7d~86~ubuntu18.04.1) date 2020-06-02 09:04:51*
%MOMM*%
%LPD*%
G01*
G04 APERTURE LIST*
G04 #@! TA.AperFunction,ViaPad*
%ADD10C,1.200000*%
G04 #@! TD*
G04 #@! TA.AperFunction,ViaPad*
%ADD11C,2.000000*%
G04 #@! TD*
G04 #@! TA.AperFunction,ViaPad*
%ADD12C,1.500000*%
G04 #@! TD*
G04 #@! TA.AperFunction,ViaPad*
%ADD13R,1.700000X1.200000*%
G04 #@! TD*
G04 #@! TA.AperFunction,ViaPad*
%ADD14O,1.700000X1.200000*%
G04 #@! TD*
G04 #@! TA.AperFunction,ViaPad*
%ADD15C,1.450000*%
G04 #@! TD*
G04 #@! TA.AperFunction,ViaPad*
%ADD16O,1.900000X1.200000*%
G04 #@! TD*
G04 #@! TA.AperFunction,ViaPad*
%ADD17R,1.000000X1.000000*%
G04 #@! TD*
G04 #@! TA.AperFunction,ViaPad*
%ADD18O,1.000000X1.000000*%
G04 #@! TD*
G04 #@! TA.AperFunction,ViaPad*
%ADD19C,0.800000*%
G04 #@! TD*
G04 #@! TA.AperFunction,ViaPad*
%ADD20C,1.000000*%
G04 #@! TD*
G04 #@! TA.AperFunction,Conductor*
%ADD21C,0.250000*%
G04 #@! TD*
G04 #@! TA.AperFunction,Conductor*
%ADD22C,0.254000*%
G04 #@! TD*
G04 APERTURE END LIST*
D10*
X80000000Y-102500000D03*
X80000000Y-104500000D03*
X80000000Y-106500000D03*
X80000000Y-108500000D03*
X80000000Y-110500000D03*
X78000000Y-102500000D03*
X78000000Y-104500000D03*
X78000000Y-106500000D03*
X78000000Y-108500000D03*
G04 #@! TA.AperFunction,ViaPad*
G36*
G01*
X78350001Y-111100000D02*
X77649999Y-111100000D01*
G75*
G02*
X77400000Y-110850001I0J249999D01*
G01*
X77400000Y-110149999D01*
G75*
G02*
X77649999Y-109900000I249999J0D01*
G01*
X78350001Y-109900000D01*
G75*
G02*
X78600000Y-110149999I0J-249999D01*
G01*
X78600000Y-110850001D01*
G75*
G02*
X78350001Y-111100000I-249999J0D01*
G01*
G37*
G04 #@! TD.AperFunction*
D11*
X85570500Y-96202500D03*
X77370500Y-96202500D03*
D12*
X79470500Y-96202500D03*
X81470500Y-96202500D03*
X83470500Y-96202500D03*
D13*
X96500000Y-107500000D03*
D14*
X96500000Y-105500000D03*
D13*
X84500000Y-112500000D03*
D14*
X84500000Y-110500000D03*
X84500000Y-108500000D03*
X84500000Y-106500000D03*
X84500000Y-104500000D03*
X84500000Y-102500000D03*
D13*
X90000000Y-112500000D03*
D14*
X90000000Y-110500000D03*
X90000000Y-108500000D03*
X90000000Y-106500000D03*
X90000000Y-104500000D03*
X90000000Y-102500000D03*
D15*
X54166000Y-93000000D03*
X54166000Y-98000000D03*
D16*
X51466000Y-92000000D03*
X51466000Y-99000000D03*
D17*
X63000000Y-92500000D03*
D18*
X63000000Y-93770000D03*
X61730000Y-92500000D03*
X61730000Y-93770000D03*
X60460000Y-92500000D03*
X60460000Y-93770000D03*
X59190000Y-92500000D03*
X59190000Y-93770000D03*
X57920000Y-92500000D03*
X57920000Y-93770000D03*
D19*
X72750000Y-120500000D03*
X71500000Y-120500000D03*
X55500000Y-97000000D03*
X97500000Y-113000000D03*
X95000000Y-116500000D03*
X80500000Y-120729991D03*
X80725010Y-119122774D03*
X69500000Y-105500000D03*
X77600000Y-124000000D03*
X77600000Y-122000000D03*
X64400000Y-104400000D03*
X94000000Y-124000000D03*
X92500000Y-124000000D03*
X95500000Y-124000000D03*
X97000000Y-124000000D03*
X98500000Y-124000000D03*
X98500000Y-122500000D03*
X98500000Y-121000000D03*
X98500000Y-102000000D03*
X98500000Y-100500000D03*
X98500000Y-99000000D03*
X98500000Y-94500000D03*
X98500000Y-97500000D03*
X98500000Y-96000000D03*
X98500000Y-93000000D03*
X98500000Y-91500000D03*
X97000000Y-97500000D03*
X97000000Y-96000000D03*
X97000000Y-94500000D03*
X95500000Y-94500000D03*
X95500000Y-97500000D03*
X95500000Y-96000000D03*
X92500000Y-94500000D03*
X92500000Y-97500000D03*
X92500000Y-96000000D03*
X91000000Y-96000000D03*
X91000000Y-97500000D03*
X91000000Y-94500000D03*
X95500000Y-99000000D03*
X95500000Y-102000000D03*
X95500000Y-100500000D03*
X74000000Y-96000000D03*
X75500000Y-96000000D03*
X72500000Y-96000000D03*
X55500000Y-105000000D03*
X57000000Y-105000000D03*
X58500000Y-105000000D03*
X55500000Y-106500000D03*
X57000000Y-106500000D03*
X58500000Y-106500000D03*
X57000000Y-108000000D03*
X55500000Y-108000000D03*
X58500000Y-108000000D03*
X57000000Y-109500000D03*
X55500000Y-109500000D03*
X58500000Y-109500000D03*
X58500000Y-111000000D03*
X55500000Y-111000000D03*
X57000000Y-111000000D03*
X60000000Y-111000000D03*
X63000000Y-111000000D03*
X61500000Y-111000000D03*
X63000000Y-109500000D03*
X61500000Y-109500000D03*
X60000000Y-109500000D03*
X60000000Y-108000000D03*
X63000000Y-108000000D03*
X61500000Y-108000000D03*
X63000000Y-106500000D03*
X61500000Y-106500000D03*
X60000000Y-106500000D03*
X61500000Y-105000000D03*
X63000000Y-105000000D03*
X60000000Y-105000000D03*
X59000000Y-121000000D03*
X59000000Y-122500000D03*
X59000000Y-124000000D03*
X65000000Y-124000000D03*
X60500000Y-124000000D03*
X62000000Y-124000000D03*
X63500000Y-124000000D03*
X63500000Y-122500000D03*
X63500000Y-121000000D03*
X57500000Y-124000000D03*
X57500000Y-119500000D03*
X57500000Y-118000000D03*
X57500000Y-116500000D03*
X60500000Y-118000000D03*
X60500000Y-116500000D03*
X62000000Y-118000000D03*
X57000000Y-97000000D03*
X55500000Y-98500000D03*
X59000000Y-116500000D03*
X59000000Y-118000000D03*
X59000000Y-119500000D03*
X63500000Y-119500000D03*
X67500000Y-120500000D03*
X68000000Y-124000000D03*
X71000000Y-124000000D03*
X69500000Y-124000000D03*
X72500000Y-124000000D03*
X80950000Y-114400000D03*
X54000000Y-123000000D03*
X72100000Y-104700000D03*
X72149998Y-105550000D03*
X79550000Y-114700000D03*
X78350000Y-116650000D03*
X79550000Y-116500000D03*
D20*
X93569998Y-114350000D03*
X56000000Y-93800000D03*
X64750000Y-96500000D03*
D19*
X90250000Y-116500000D03*
X90200000Y-121400000D03*
X56500000Y-99000000D03*
X57799989Y-99000000D03*
X84400000Y-121800000D03*
X66000000Y-123000000D03*
X54500000Y-104000000D03*
X63500000Y-95000000D03*
X65000000Y-121000000D03*
X80174990Y-112500000D03*
X66507898Y-108539530D03*
X69500000Y-108143534D03*
X66558763Y-107418524D03*
X66515472Y-106297725D03*
X66556186Y-104912866D03*
X64250000Y-103000000D03*
X59905574Y-102492124D03*
X58655574Y-102492124D03*
X57353819Y-102478905D03*
X59250000Y-99000000D03*
X88500000Y-98000000D03*
X60448695Y-98933769D03*
X66500000Y-110000000D03*
X61205764Y-102487577D03*
X66508192Y-111089504D03*
X62455764Y-102487577D03*
D21*
X71500000Y-120500000D02*
X67500000Y-120500000D01*
D22*
G36*
X70097950Y-90856586D02*
G01*
X70021814Y-91040394D01*
X69983000Y-91235524D01*
X69983000Y-91434476D01*
X70021814Y-91629606D01*
X70097950Y-91813414D01*
X70208482Y-91978837D01*
X70349163Y-92119518D01*
X70514586Y-92230050D01*
X70698394Y-92306186D01*
X70893524Y-92345000D01*
X71092476Y-92345000D01*
X71287606Y-92306186D01*
X71471414Y-92230050D01*
X71636837Y-92119518D01*
X71777518Y-91978837D01*
X71888050Y-91813414D01*
X71964186Y-91629606D01*
X72003000Y-91434476D01*
X72003000Y-91235524D01*
X71964186Y-91040394D01*
X71888050Y-90856586D01*
X71790104Y-90710000D01*
X98465271Y-90710000D01*
X98652785Y-90728386D01*
X98799748Y-90772757D01*
X98935297Y-90844829D01*
X99054258Y-90941852D01*
X99152118Y-91060144D01*
X99225132Y-91195181D01*
X99270529Y-91341833D01*
X99290000Y-91527092D01*
X99290001Y-123465261D01*
X99271614Y-123652784D01*
X99227243Y-123799748D01*
X99155171Y-123935297D01*
X99058148Y-124054258D01*
X98939856Y-124152118D01*
X98804819Y-124225132D01*
X98658167Y-124270529D01*
X98472908Y-124290000D01*
X51534729Y-124290000D01*
X51347216Y-124271614D01*
X51200252Y-124227243D01*
X51064703Y-124155171D01*
X50945742Y-124058148D01*
X50847882Y-123939856D01*
X50774868Y-123804819D01*
X50729471Y-123658167D01*
X50710000Y-123472908D01*
X50710000Y-122898061D01*
X52965000Y-122898061D01*
X52965000Y-123101939D01*
X53004774Y-123301898D01*
X53082795Y-123490256D01*
X53196063Y-123659774D01*
X53340226Y-123803937D01*
X53509744Y-123917205D01*
X53698102Y-123995226D01*
X53898061Y-124035000D01*
X54101939Y-124035000D01*
X54301898Y-123995226D01*
X54490256Y-123917205D01*
X54659774Y-123803937D01*
X54803937Y-123659774D01*
X54917205Y-123490256D01*
X54995226Y-123301898D01*
X55035000Y-123101939D01*
X55035000Y-122898061D01*
X64965000Y-122898061D01*
X64965000Y-123101939D01*
X65004774Y-123301898D01*
X65082795Y-123490256D01*
X65196063Y-123659774D01*
X65340226Y-123803937D01*
X65509744Y-123917205D01*
X65698102Y-123995226D01*
X65898061Y-124035000D01*
X66101939Y-124035000D01*
X66301898Y-123995226D01*
X66490256Y-123917205D01*
X66659774Y-123803937D01*
X66803937Y-123659774D01*
X66917205Y-123490256D01*
X66995226Y-123301898D01*
X67035000Y-123101939D01*
X67035000Y-122898061D01*
X66995226Y-122698102D01*
X66917205Y-122509744D01*
X66803937Y-122340226D01*
X66659774Y-122196063D01*
X66490256Y-122082795D01*
X66301898Y-122004774D01*
X66101939Y-121965000D01*
X65898061Y-121965000D01*
X65698102Y-122004774D01*
X65509744Y-122082795D01*
X65340226Y-122196063D01*
X65196063Y-122340226D01*
X65082795Y-122509744D01*
X65004774Y-122698102D01*
X64965000Y-122898061D01*
X55035000Y-122898061D01*
X54995226Y-122698102D01*
X54917205Y-122509744D01*
X54803937Y-122340226D01*
X54659774Y-122196063D01*
X54490256Y-122082795D01*
X54301898Y-122004774D01*
X54101939Y-121965000D01*
X53898061Y-121965000D01*
X53698102Y-122004774D01*
X53509744Y-122082795D01*
X53340226Y-122196063D01*
X53196063Y-122340226D01*
X53082795Y-122509744D01*
X53004774Y-122698102D01*
X52965000Y-122898061D01*
X50710000Y-122898061D01*
X50710000Y-120329117D01*
X59265000Y-120329117D01*
X59265000Y-120670883D01*
X59331675Y-121006081D01*
X59462463Y-121321831D01*
X59652337Y-121605998D01*
X59894002Y-121847663D01*
X60178169Y-122037537D01*
X60493919Y-122168325D01*
X60829117Y-122235000D01*
X61170883Y-122235000D01*
X61506081Y-122168325D01*
X61821831Y-122037537D01*
X62105998Y-121847663D01*
X62347663Y-121605998D01*
X62537537Y-121321831D01*
X62668325Y-121006081D01*
X62689811Y-120898061D01*
X63965000Y-120898061D01*
X63965000Y-121101939D01*
X64004774Y-121301898D01*
X64082795Y-121490256D01*
X64196063Y-121659774D01*
X64340226Y-121803937D01*
X64509744Y-121917205D01*
X64698102Y-121995226D01*
X64898061Y-122035000D01*
X65101939Y-122035000D01*
X65301898Y-121995226D01*
X65490256Y-121917205D01*
X65659774Y-121803937D01*
X65803937Y-121659774D01*
X65917205Y-121490256D01*
X65995226Y-121301898D01*
X66035000Y-121101939D01*
X66035000Y-120898061D01*
X65995226Y-120698102D01*
X65917205Y-120509744D01*
X65803937Y-120340226D01*
X65659774Y-120196063D01*
X65490256Y-120082795D01*
X65301898Y-120004774D01*
X65101939Y-119965000D01*
X64898061Y-119965000D01*
X64698102Y-120004774D01*
X64509744Y-120082795D01*
X64340226Y-120196063D01*
X64196063Y-120340226D01*
X64082795Y-120509744D01*
X64004774Y-120698102D01*
X63965000Y-120898061D01*
X62689811Y-120898061D01*
X62735000Y-120670883D01*
X62735000Y-120329117D01*
X62668325Y-119993919D01*
X62537537Y-119678169D01*
X62347663Y-119394002D01*
X62105998Y-119152337D01*
X61821831Y-118962463D01*
X61506081Y-118831675D01*
X61170883Y-118765000D01*
X60829117Y-118765000D01*
X60493919Y-118831675D01*
X60178169Y-118962463D01*
X59894002Y-119152337D01*
X59652337Y-119394002D01*
X59462463Y-119678169D01*
X59331675Y-119993919D01*
X59265000Y-120329117D01*
X50710000Y-120329117D01*
X50710000Y-114627000D01*
X53500000Y-114627000D01*
X53524776Y-114624560D01*
X53548601Y-114617333D01*
X53570557Y-114605597D01*
X53589803Y-114589803D01*
X53605597Y-114570557D01*
X53617333Y-114548601D01*
X53624560Y-114524776D01*
X53627000Y-114500000D01*
X53627000Y-109898061D01*
X65465000Y-109898061D01*
X65465000Y-110101939D01*
X65504774Y-110301898D01*
X65582795Y-110490256D01*
X65623304Y-110550882D01*
X65590987Y-110599248D01*
X65512966Y-110787606D01*
X65473192Y-110987565D01*
X65473192Y-111191443D01*
X65512966Y-111391402D01*
X65590987Y-111579760D01*
X65704255Y-111749278D01*
X65848418Y-111893441D01*
X66017936Y-112006709D01*
X66206294Y-112084730D01*
X66373000Y-112117890D01*
X66373000Y-117000000D01*
X66375440Y-117024776D01*
X66382667Y-117048601D01*
X66394403Y-117070557D01*
X66410197Y-117089803D01*
X66429443Y-117105597D01*
X66451399Y-117117333D01*
X66475224Y-117124560D01*
X66500000Y-117127000D01*
X68373000Y-117127000D01*
X68373000Y-123000000D01*
X68375440Y-123024776D01*
X68382667Y-123048601D01*
X68394403Y-123070557D01*
X68410197Y-123089803D01*
X68429443Y-123105597D01*
X68451399Y-123117333D01*
X68475224Y-123124560D01*
X68500000Y-123127000D01*
X75500000Y-123127000D01*
X75524776Y-123124560D01*
X75548601Y-123117333D01*
X75570557Y-123105597D01*
X75589803Y-123089803D01*
X75605597Y-123070557D01*
X75617333Y-123048601D01*
X75624560Y-123024776D01*
X75627000Y-123000000D01*
X75627000Y-121698061D01*
X83365000Y-121698061D01*
X83365000Y-121901939D01*
X83404774Y-122101898D01*
X83482795Y-122290256D01*
X83596063Y-122459774D01*
X83740226Y-122603937D01*
X83909744Y-122717205D01*
X84098102Y-122795226D01*
X84298061Y-122835000D01*
X84501939Y-122835000D01*
X84701898Y-122795226D01*
X84890256Y-122717205D01*
X85059774Y-122603937D01*
X85203937Y-122459774D01*
X85317205Y-122290256D01*
X85395226Y-122101898D01*
X85435000Y-121901939D01*
X85435000Y-121698061D01*
X85395226Y-121498102D01*
X85317205Y-121309744D01*
X85309399Y-121298061D01*
X89165000Y-121298061D01*
X89165000Y-121501939D01*
X89204774Y-121701898D01*
X89282795Y-121890256D01*
X89396063Y-122059774D01*
X89540226Y-122203937D01*
X89709744Y-122317205D01*
X89898102Y-122395226D01*
X90098061Y-122435000D01*
X90301939Y-122435000D01*
X90501898Y-122395226D01*
X90690256Y-122317205D01*
X90859774Y-122203937D01*
X91003937Y-122059774D01*
X91117205Y-121890256D01*
X91195226Y-121701898D01*
X91235000Y-121501939D01*
X91235000Y-121298061D01*
X91195226Y-121098102D01*
X91117205Y-120909744D01*
X91003937Y-120740226D01*
X90859774Y-120596063D01*
X90690256Y-120482795D01*
X90501898Y-120404774D01*
X90301939Y-120365000D01*
X90098061Y-120365000D01*
X89898102Y-120404774D01*
X89709744Y-120482795D01*
X89540226Y-120596063D01*
X89396063Y-120740226D01*
X89282795Y-120909744D01*
X89204774Y-121098102D01*
X89165000Y-121298061D01*
X85309399Y-121298061D01*
X85203937Y-121140226D01*
X85059774Y-120996063D01*
X84890256Y-120882795D01*
X84701898Y-120804774D01*
X84501939Y-120765000D01*
X84298061Y-120765000D01*
X84098102Y-120804774D01*
X83909744Y-120882795D01*
X83740226Y-120996063D01*
X83596063Y-121140226D01*
X83482795Y-121309744D01*
X83404774Y-121498102D01*
X83365000Y-121698061D01*
X75627000Y-121698061D01*
X75627000Y-117127000D01*
X77000000Y-117127000D01*
X77024776Y-117124560D01*
X77048601Y-117117333D01*
X77070557Y-117105597D01*
X77089803Y-117089803D01*
X77105597Y-117070557D01*
X77117333Y-117048601D01*
X77124560Y-117024776D01*
X77127000Y-117000000D01*
X77127000Y-116548061D01*
X77315000Y-116548061D01*
X77315000Y-116751939D01*
X77354774Y-116951898D01*
X77432795Y-117140256D01*
X77546063Y-117309774D01*
X77690226Y-117453937D01*
X77859744Y-117567205D01*
X78048102Y-117645226D01*
X78248061Y-117685000D01*
X78451939Y-117685000D01*
X78651898Y-117645226D01*
X78840256Y-117567205D01*
X79009774Y-117453937D01*
X79051808Y-117411903D01*
X79059744Y-117417205D01*
X79248102Y-117495226D01*
X79448061Y-117535000D01*
X79651939Y-117535000D01*
X79851898Y-117495226D01*
X80040256Y-117417205D01*
X80209774Y-117303937D01*
X80353937Y-117159774D01*
X80467205Y-116990256D01*
X80545226Y-116801898D01*
X80585000Y-116601939D01*
X80585000Y-116398061D01*
X89215000Y-116398061D01*
X89215000Y-116601939D01*
X89254774Y-116801898D01*
X89332795Y-116990256D01*
X89446063Y-117159774D01*
X89590226Y-117303937D01*
X89759744Y-117417205D01*
X89948102Y-117495226D01*
X90148061Y-117535000D01*
X90351939Y-117535000D01*
X90551898Y-117495226D01*
X90740256Y-117417205D01*
X90909774Y-117303937D01*
X91053937Y-117159774D01*
X91167205Y-116990256D01*
X91245226Y-116801898D01*
X91285000Y-116601939D01*
X91285000Y-116398061D01*
X91245226Y-116198102D01*
X91167205Y-116009744D01*
X91053937Y-115840226D01*
X90909774Y-115696063D01*
X90740256Y-115582795D01*
X90551898Y-115504774D01*
X90351939Y-115465000D01*
X90148061Y-115465000D01*
X89948102Y-115504774D01*
X89759744Y-115582795D01*
X89590226Y-115696063D01*
X89446063Y-115840226D01*
X89332795Y-116009744D01*
X89254774Y-116198102D01*
X89215000Y-116398061D01*
X80585000Y-116398061D01*
X80545226Y-116198102D01*
X80467205Y-116009744D01*
X80353937Y-115840226D01*
X80209774Y-115696063D01*
X80066005Y-115600000D01*
X80209774Y-115503937D01*
X80353937Y-115359774D01*
X80467205Y-115190256D01*
X80545226Y-115001898D01*
X80585000Y-114801939D01*
X80585000Y-114598061D01*
X80545226Y-114398102D01*
X80478997Y-114238212D01*
X92434998Y-114238212D01*
X92434998Y-114461788D01*
X92478615Y-114681067D01*
X92564174Y-114887624D01*
X92688386Y-115073520D01*
X92846478Y-115231612D01*
X93032374Y-115355824D01*
X93238931Y-115441383D01*
X93458210Y-115485000D01*
X93681786Y-115485000D01*
X93901065Y-115441383D01*
X94107622Y-115355824D01*
X94293518Y-115231612D01*
X94451610Y-115073520D01*
X94575822Y-114887624D01*
X94661381Y-114681067D01*
X94704998Y-114461788D01*
X94704998Y-114238212D01*
X94661381Y-114018933D01*
X94575822Y-113812376D01*
X94451610Y-113626480D01*
X94293518Y-113468388D01*
X94107622Y-113344176D01*
X93901065Y-113258617D01*
X93681786Y-113215000D01*
X93458210Y-113215000D01*
X93238931Y-113258617D01*
X93032374Y-113344176D01*
X92846478Y-113468388D01*
X92688386Y-113626480D01*
X92564174Y-113812376D01*
X92478615Y-114018933D01*
X92434998Y-114238212D01*
X80478997Y-114238212D01*
X80467205Y-114209744D01*
X80353937Y-114040226D01*
X80209774Y-113896063D01*
X80040256Y-113782795D01*
X79851898Y-113704774D01*
X79651939Y-113665000D01*
X79448061Y-113665000D01*
X79248102Y-113704774D01*
X79059744Y-113782795D01*
X78890226Y-113896063D01*
X78746063Y-114040226D01*
X78632795Y-114209744D01*
X78554774Y-114398102D01*
X78515000Y-114598061D01*
X78515000Y-114801939D01*
X78554774Y-115001898D01*
X78632795Y-115190256D01*
X78746063Y-115359774D01*
X78890226Y-115503937D01*
X79033995Y-115600000D01*
X78890226Y-115696063D01*
X78848192Y-115738097D01*
X78840256Y-115732795D01*
X78651898Y-115654774D01*
X78451939Y-115615000D01*
X78248061Y-115615000D01*
X78048102Y-115654774D01*
X77859744Y-115732795D01*
X77690226Y-115846063D01*
X77546063Y-115990226D01*
X77432795Y-116159744D01*
X77354774Y-116348102D01*
X77315000Y-116548061D01*
X77127000Y-116548061D01*
X77127000Y-113000000D01*
X77124560Y-112975224D01*
X77117333Y-112951399D01*
X77105597Y-112929443D01*
X77089803Y-112910197D01*
X77070557Y-112894403D01*
X77048601Y-112882667D01*
X77024776Y-112875440D01*
X77000000Y-112873000D01*
X73552606Y-112873000D01*
X71779606Y-111100000D01*
X76761928Y-111100000D01*
X76774188Y-111224482D01*
X76810498Y-111344180D01*
X76869463Y-111454494D01*
X76948815Y-111551185D01*
X77045506Y-111630537D01*
X77155820Y-111689502D01*
X77275518Y-111725812D01*
X77400000Y-111738072D01*
X77714250Y-111735000D01*
X77873000Y-111576250D01*
X77873000Y-110627000D01*
X76923750Y-110627000D01*
X76765000Y-110785750D01*
X76761928Y-111100000D01*
X71779606Y-111100000D01*
X70589803Y-109910197D01*
X70577378Y-109900000D01*
X76761928Y-109900000D01*
X76765000Y-110214250D01*
X76923750Y-110373000D01*
X77873000Y-110373000D01*
X77873000Y-110353000D01*
X78127000Y-110353000D01*
X78127000Y-110373000D01*
X78147000Y-110373000D01*
X78147000Y-110627000D01*
X78127000Y-110627000D01*
X78127000Y-111576250D01*
X78285750Y-111735000D01*
X78600000Y-111738072D01*
X78724482Y-111725812D01*
X78844180Y-111689502D01*
X78954494Y-111630537D01*
X79051185Y-111551185D01*
X79130537Y-111454494D01*
X79157499Y-111404053D01*
X79212733Y-111459287D01*
X79415008Y-111594443D01*
X79570753Y-111658955D01*
X79515216Y-111696063D01*
X79371053Y-111840226D01*
X79257785Y-112009744D01*
X79179764Y-112198102D01*
X79139990Y-112398061D01*
X79139990Y-112601939D01*
X79179764Y-112801898D01*
X79257785Y-112990256D01*
X79371053Y-113159774D01*
X79515216Y-113303937D01*
X79684734Y-113417205D01*
X79873092Y-113495226D01*
X80073051Y-113535000D01*
X80276929Y-113535000D01*
X80476888Y-113495226D01*
X80665246Y-113417205D01*
X80834764Y-113303937D01*
X80978927Y-113159774D01*
X81018866Y-113100000D01*
X83011928Y-113100000D01*
X83024188Y-113224482D01*
X83060498Y-113344180D01*
X83119463Y-113454494D01*
X83198815Y-113551185D01*
X83295506Y-113630537D01*
X83405820Y-113689502D01*
X83525518Y-113725812D01*
X83650000Y-113738072D01*
X84214250Y-113735000D01*
X84373000Y-113576250D01*
X84373000Y-112627000D01*
X84627000Y-112627000D01*
X84627000Y-113576250D01*
X84785750Y-113735000D01*
X85350000Y-113738072D01*
X85474482Y-113725812D01*
X85594180Y-113689502D01*
X85704494Y-113630537D01*
X85801185Y-113551185D01*
X85880537Y-113454494D01*
X85939502Y-113344180D01*
X85975812Y-113224482D01*
X85988072Y-113100000D01*
X88511928Y-113100000D01*
X88524188Y-113224482D01*
X88560498Y-113344180D01*
X88619463Y-113454494D01*
X88698815Y-113551185D01*
X88795506Y-113630537D01*
X88905820Y-113689502D01*
X89025518Y-113725812D01*
X89150000Y-113738072D01*
X89714250Y-113735000D01*
X89873000Y-113576250D01*
X89873000Y-112627000D01*
X90127000Y-112627000D01*
X90127000Y-113576250D01*
X90285750Y-113735000D01*
X90850000Y-113738072D01*
X90974482Y-113725812D01*
X91094180Y-113689502D01*
X91204494Y-113630537D01*
X91301185Y-113551185D01*
X91380537Y-113454494D01*
X91439502Y-113344180D01*
X91475812Y-113224482D01*
X91488072Y-113100000D01*
X91485000Y-112785750D01*
X91326250Y-112627000D01*
X90127000Y-112627000D01*
X89873000Y-112627000D01*
X88673750Y-112627000D01*
X88515000Y-112785750D01*
X88511928Y-113100000D01*
X85988072Y-113100000D01*
X85985000Y-112785750D01*
X85826250Y-112627000D01*
X84627000Y-112627000D01*
X84373000Y-112627000D01*
X83173750Y-112627000D01*
X83015000Y-112785750D01*
X83011928Y-113100000D01*
X81018866Y-113100000D01*
X81092195Y-112990256D01*
X81170216Y-112801898D01*
X81209990Y-112601939D01*
X81209990Y-112398061D01*
X81170216Y-112198102D01*
X81092195Y-112009744D01*
X80978927Y-111840226D01*
X80834764Y-111696063D01*
X80665246Y-111582795D01*
X80626465Y-111566731D01*
X80787267Y-111459287D01*
X80959287Y-111287267D01*
X81094443Y-111084992D01*
X81187540Y-110860236D01*
X81235000Y-110621637D01*
X81235000Y-110378363D01*
X81187540Y-110139764D01*
X81094443Y-109915008D01*
X80959287Y-109712733D01*
X80787267Y-109540713D01*
X80726336Y-109500000D01*
X80787267Y-109459287D01*
X80959287Y-109287267D01*
X81094443Y-109084992D01*
X81187540Y-108860236D01*
X81235000Y-108621637D01*
X81235000Y-108378363D01*
X81187540Y-108139764D01*
X81094443Y-107915008D01*
X80959287Y-107712733D01*
X80787267Y-107540713D01*
X80726336Y-107500000D01*
X80787267Y-107459287D01*
X80959287Y-107287267D01*
X81094443Y-107084992D01*
X81187540Y-106860236D01*
X81235000Y-106621637D01*
X81235000Y-106378363D01*
X81187540Y-106139764D01*
X81094443Y-105915008D01*
X80959287Y-105712733D01*
X80787267Y-105540713D01*
X80726336Y-105500000D01*
X80787267Y-105459287D01*
X80959287Y-105287267D01*
X81094443Y-105084992D01*
X81187540Y-104860236D01*
X81235000Y-104621637D01*
X81235000Y-104378363D01*
X81187540Y-104139764D01*
X81094443Y-103915008D01*
X80959287Y-103712733D01*
X80787267Y-103540713D01*
X80726336Y-103500000D01*
X80787267Y-103459287D01*
X80959287Y-103287267D01*
X81094443Y-103084992D01*
X81187540Y-102860236D01*
X81235000Y-102621637D01*
X81235000Y-102500000D01*
X83009025Y-102500000D01*
X83032870Y-102742102D01*
X83103489Y-102974901D01*
X83218167Y-103189449D01*
X83372498Y-103377502D01*
X83521762Y-103500000D01*
X83372498Y-103622498D01*
X83218167Y-103810551D01*
X83103489Y-104025099D01*
X83032870Y-104257898D01*
X83009025Y-104500000D01*
X83032870Y-104742102D01*
X83103489Y-104974901D01*
X83218167Y-105189449D01*
X83372498Y-105377502D01*
X83521762Y-105500000D01*
X83372498Y-105622498D01*
X83218167Y-105810551D01*
X83103489Y-106025099D01*
X83032870Y-106257898D01*
X83009025Y-106500000D01*
X83032870Y-106742102D01*
X83103489Y-106974901D01*
X83218167Y-107189449D01*
X83372498Y-107377502D01*
X83521762Y-107500000D01*
X83372498Y-107622498D01*
X83218167Y-107810551D01*
X83103489Y-108025099D01*
X83032870Y-108257898D01*
X83009025Y-108500000D01*
X83032870Y-108742102D01*
X83103489Y-108974901D01*
X83218167Y-109189449D01*
X83372498Y-109377502D01*
X83521762Y-109500000D01*
X83372498Y-109622498D01*
X83218167Y-109810551D01*
X83103489Y-110025099D01*
X83032870Y-110257898D01*
X83009025Y-110500000D01*
X83032870Y-110742102D01*
X83103489Y-110974901D01*
X83218167Y-111189449D01*
X83344436Y-111343309D01*
X83295506Y-111369463D01*
X83198815Y-111448815D01*
X83119463Y-111545506D01*
X83060498Y-111655820D01*
X83024188Y-111775518D01*
X83011928Y-111900000D01*
X83015000Y-112214250D01*
X83173750Y-112373000D01*
X84373000Y-112373000D01*
X84373000Y-112353000D01*
X84627000Y-112353000D01*
X84627000Y-112373000D01*
X85826250Y-112373000D01*
X85985000Y-112214250D01*
X85988072Y-111900000D01*
X85975812Y-111775518D01*
X85939502Y-111655820D01*
X85880537Y-111545506D01*
X85801185Y-111448815D01*
X85704494Y-111369463D01*
X85655564Y-111343309D01*
X85781833Y-111189449D01*
X85896511Y-110974901D01*
X85967130Y-110742102D01*
X85990975Y-110500000D01*
X85967130Y-110257898D01*
X85896511Y-110025099D01*
X85781833Y-109810551D01*
X85627502Y-109622498D01*
X85478238Y-109500000D01*
X85627502Y-109377502D01*
X85781833Y-109189449D01*
X85896511Y-108974901D01*
X85967130Y-108742102D01*
X85990975Y-108500000D01*
X85967130Y-108257898D01*
X85896511Y-108025099D01*
X85781833Y-107810551D01*
X85627502Y-107622498D01*
X85478238Y-107500000D01*
X85627502Y-107377502D01*
X85781833Y-107189449D01*
X85896511Y-106974901D01*
X85967130Y-106742102D01*
X85990975Y-106500000D01*
X85967130Y-106257898D01*
X85896511Y-106025099D01*
X85781833Y-105810551D01*
X85627502Y-105622498D01*
X85478238Y-105500000D01*
X85627502Y-105377502D01*
X85781833Y-105189449D01*
X85896511Y-104974901D01*
X85967130Y-104742102D01*
X85990975Y-104500000D01*
X85967130Y-104257898D01*
X85896511Y-104025099D01*
X85781833Y-103810551D01*
X85627502Y-103622498D01*
X85478238Y-103500000D01*
X85627502Y-103377502D01*
X85781833Y-103189449D01*
X85896511Y-102974901D01*
X85967130Y-102742102D01*
X85990975Y-102500000D01*
X88509025Y-102500000D01*
X88532870Y-102742102D01*
X88603489Y-102974901D01*
X88718167Y-103189449D01*
X88872498Y-103377502D01*
X89021762Y-103500000D01*
X88872498Y-103622498D01*
X88718167Y-103810551D01*
X88603489Y-104025099D01*
X88532870Y-104257898D01*
X88509025Y-104500000D01*
X88532870Y-104742102D01*
X88603489Y-104974901D01*
X88718167Y-105189449D01*
X88872498Y-105377502D01*
X89021762Y-105500000D01*
X88872498Y-105622498D01*
X88718167Y-105810551D01*
X88603489Y-106025099D01*
X88532870Y-106257898D01*
X88509025Y-106500000D01*
X88532870Y-106742102D01*
X88603489Y-106974901D01*
X88718167Y-107189449D01*
X88872498Y-107377502D01*
X89021762Y-107500000D01*
X88872498Y-107622498D01*
X88718167Y-107810551D01*
X88603489Y-108025099D01*
X88532870Y-108257898D01*
X88509025Y-108500000D01*
X88532870Y-108742102D01*
X88603489Y-108974901D01*
X88718167Y-109189449D01*
X88872498Y-109377502D01*
X89021762Y-109500000D01*
X88872498Y-109622498D01*
X88718167Y-109810551D01*
X88603489Y-110025099D01*
X88532870Y-110257898D01*
X88509025Y-110500000D01*
X88532870Y-110742102D01*
X88603489Y-110974901D01*
X88718167Y-111189449D01*
X88844436Y-111343309D01*
X88795506Y-111369463D01*
X88698815Y-111448815D01*
X88619463Y-111545506D01*
X88560498Y-111655820D01*
X88524188Y-111775518D01*
X88511928Y-111900000D01*
X88515000Y-112214250D01*
X88673750Y-112373000D01*
X89873000Y-112373000D01*
X89873000Y-112353000D01*
X90127000Y-112353000D01*
X90127000Y-112373000D01*
X91326250Y-112373000D01*
X91485000Y-112214250D01*
X91488072Y-111900000D01*
X91475812Y-111775518D01*
X91439502Y-111655820D01*
X91380537Y-111545506D01*
X91301185Y-111448815D01*
X91204494Y-111369463D01*
X91155564Y-111343309D01*
X91281833Y-111189449D01*
X91396511Y-110974901D01*
X91467130Y-110742102D01*
X91490975Y-110500000D01*
X91467130Y-110257898D01*
X91396511Y-110025099D01*
X91281833Y-109810551D01*
X91127502Y-109622498D01*
X90978238Y-109500000D01*
X91127502Y-109377502D01*
X91281833Y-109189449D01*
X91396511Y-108974901D01*
X91467130Y-108742102D01*
X91490975Y-108500000D01*
X91467130Y-108257898D01*
X91419233Y-108100000D01*
X95011928Y-108100000D01*
X95024188Y-108224482D01*
X95060498Y-108344180D01*
X95119463Y-108454494D01*
X95198815Y-108551185D01*
X95295506Y-108630537D01*
X95405820Y-108689502D01*
X95525518Y-108725812D01*
X95650000Y-108738072D01*
X96214250Y-108735000D01*
X96373000Y-108576250D01*
X96373000Y-107627000D01*
X96627000Y-107627000D01*
X96627000Y-108576250D01*
X96785750Y-108735000D01*
X97350000Y-108738072D01*
X97474482Y-108725812D01*
X97594180Y-108689502D01*
X97704494Y-108630537D01*
X97801185Y-108551185D01*
X97880537Y-108454494D01*
X97939502Y-108344180D01*
X97975812Y-108224482D01*
X97988072Y-108100000D01*
X97985000Y-107785750D01*
X97826250Y-107627000D01*
X96627000Y-107627000D01*
X96373000Y-107627000D01*
X95173750Y-107627000D01*
X95015000Y-107785750D01*
X95011928Y-108100000D01*
X91419233Y-108100000D01*
X91396511Y-108025099D01*
X91281833Y-107810551D01*
X91127502Y-107622498D01*
X90978238Y-107500000D01*
X91127502Y-107377502D01*
X91281833Y-107189449D01*
X91396511Y-106974901D01*
X91467130Y-106742102D01*
X91490975Y-106500000D01*
X91467130Y-106257898D01*
X91396511Y-106025099D01*
X91281833Y-105810551D01*
X91127502Y-105622498D01*
X90978238Y-105500000D01*
X95009025Y-105500000D01*
X95032870Y-105742102D01*
X95103489Y-105974901D01*
X95218167Y-106189449D01*
X95344436Y-106343309D01*
X95295506Y-106369463D01*
X95198815Y-106448815D01*
X95119463Y-106545506D01*
X95060498Y-106655820D01*
X95024188Y-106775518D01*
X95011928Y-106900000D01*
X95015000Y-107214250D01*
X95173750Y-107373000D01*
X96373000Y-107373000D01*
X96373000Y-107353000D01*
X96627000Y-107353000D01*
X96627000Y-107373000D01*
X97826250Y-107373000D01*
X97985000Y-107214250D01*
X97988072Y-106900000D01*
X97975812Y-106775518D01*
X97939502Y-106655820D01*
X97880537Y-106545506D01*
X97801185Y-106448815D01*
X97704494Y-106369463D01*
X97655564Y-106343309D01*
X97781833Y-106189449D01*
X97896511Y-105974901D01*
X97967130Y-105742102D01*
X97990975Y-105500000D01*
X97967130Y-105257898D01*
X97896511Y-105025099D01*
X97781833Y-104810551D01*
X97627502Y-104622498D01*
X97439449Y-104468167D01*
X97224901Y-104353489D01*
X96992102Y-104282870D01*
X96810665Y-104265000D01*
X96189335Y-104265000D01*
X96007898Y-104282870D01*
X95775099Y-104353489D01*
X95560551Y-104468167D01*
X95372498Y-104622498D01*
X95218167Y-104810551D01*
X95103489Y-105025099D01*
X95032870Y-105257898D01*
X95009025Y-105500000D01*
X90978238Y-105500000D01*
X91127502Y-105377502D01*
X91281833Y-105189449D01*
X91396511Y-104974901D01*
X91467130Y-104742102D01*
X91490975Y-104500000D01*
X91467130Y-104257898D01*
X91396511Y-104025099D01*
X91281833Y-103810551D01*
X91127502Y-103622498D01*
X90978238Y-103500000D01*
X91127502Y-103377502D01*
X91281833Y-103189449D01*
X91396511Y-102974901D01*
X91467130Y-102742102D01*
X91490975Y-102500000D01*
X91467130Y-102257898D01*
X91396511Y-102025099D01*
X91281833Y-101810551D01*
X91127502Y-101622498D01*
X90939449Y-101468167D01*
X90724901Y-101353489D01*
X90492102Y-101282870D01*
X90310665Y-101265000D01*
X89689335Y-101265000D01*
X89507898Y-101282870D01*
X89275099Y-101353489D01*
X89060551Y-101468167D01*
X88872498Y-101622498D01*
X88718167Y-101810551D01*
X88603489Y-102025099D01*
X88532870Y-102257898D01*
X88509025Y-102500000D01*
X85990975Y-102500000D01*
X85967130Y-102257898D01*
X85896511Y-102025099D01*
X85781833Y-101810551D01*
X85627502Y-101622498D01*
X85439449Y-101468167D01*
X85224901Y-101353489D01*
X84992102Y-101282870D01*
X84810665Y-101265000D01*
X84189335Y-101265000D01*
X84007898Y-101282870D01*
X83775099Y-101353489D01*
X83560551Y-101468167D01*
X83372498Y-101622498D01*
X83218167Y-101810551D01*
X83103489Y-102025099D01*
X83032870Y-102257898D01*
X83009025Y-102500000D01*
X81235000Y-102500000D01*
X81235000Y-102378363D01*
X81187540Y-102139764D01*
X81094443Y-101915008D01*
X80959287Y-101712733D01*
X80787267Y-101540713D01*
X80584992Y-101405557D01*
X80360236Y-101312460D01*
X80121637Y-101265000D01*
X79878363Y-101265000D01*
X79639764Y-101312460D01*
X79415008Y-101405557D01*
X79212733Y-101540713D01*
X79040713Y-101712733D01*
X79000000Y-101773664D01*
X78959287Y-101712733D01*
X78787267Y-101540713D01*
X78584992Y-101405557D01*
X78360236Y-101312460D01*
X78121637Y-101265000D01*
X77878363Y-101265000D01*
X77639764Y-101312460D01*
X77415008Y-101405557D01*
X77212733Y-101540713D01*
X77040713Y-101712733D01*
X76905557Y-101915008D01*
X76812460Y-102139764D01*
X76765000Y-102378363D01*
X76765000Y-102621637D01*
X76812460Y-102860236D01*
X76905557Y-103084992D01*
X77040713Y-103287267D01*
X77212733Y-103459287D01*
X77273664Y-103500000D01*
X77212733Y-103540713D01*
X77040713Y-103712733D01*
X76905557Y-103915008D01*
X76812460Y-104139764D01*
X76765000Y-104378363D01*
X76765000Y-104621637D01*
X76812460Y-104860236D01*
X76905557Y-105084992D01*
X77040713Y-105287267D01*
X77212733Y-105459287D01*
X77273664Y-105500000D01*
X77212733Y-105540713D01*
X77040713Y-105712733D01*
X76905557Y-105915008D01*
X76812460Y-106139764D01*
X76765000Y-106378363D01*
X76765000Y-106621637D01*
X76812460Y-106860236D01*
X76905557Y-107084992D01*
X77040713Y-107287267D01*
X77212733Y-107459287D01*
X77273664Y-107500000D01*
X77212733Y-107540713D01*
X77040713Y-107712733D01*
X76905557Y-107915008D01*
X76812460Y-108139764D01*
X76765000Y-108378363D01*
X76765000Y-108621637D01*
X76812460Y-108860236D01*
X76905557Y-109084992D01*
X77040713Y-109287267D01*
X77095947Y-109342501D01*
X77045506Y-109369463D01*
X76948815Y-109448815D01*
X76869463Y-109545506D01*
X76810498Y-109655820D01*
X76774188Y-109775518D01*
X76761928Y-109900000D01*
X70577378Y-109900000D01*
X70570557Y-109894403D01*
X70548601Y-109882667D01*
X70524776Y-109875440D01*
X70500000Y-109873000D01*
X67530015Y-109873000D01*
X67495226Y-109698102D01*
X67417205Y-109509744D01*
X67303937Y-109340226D01*
X67237425Y-109273714D01*
X67311835Y-109199304D01*
X67425103Y-109029786D01*
X67503124Y-108841428D01*
X67542898Y-108641469D01*
X67542898Y-108437591D01*
X67503124Y-108237632D01*
X67425103Y-108049274D01*
X67419972Y-108041595D01*
X68465000Y-108041595D01*
X68465000Y-108245473D01*
X68504774Y-108445432D01*
X68582795Y-108633790D01*
X68696063Y-108803308D01*
X68840226Y-108947471D01*
X69009744Y-109060739D01*
X69198102Y-109138760D01*
X69398061Y-109178534D01*
X69601939Y-109178534D01*
X69801898Y-109138760D01*
X69990256Y-109060739D01*
X70159774Y-108947471D01*
X70303937Y-108803308D01*
X70417205Y-108633790D01*
X70495226Y-108445432D01*
X70535000Y-108245473D01*
X70535000Y-108041595D01*
X70495226Y-107841636D01*
X70417205Y-107653278D01*
X70303937Y-107483760D01*
X70159774Y-107339597D01*
X69990256Y-107226329D01*
X69801898Y-107148308D01*
X69601939Y-107108534D01*
X69398061Y-107108534D01*
X69198102Y-107148308D01*
X69009744Y-107226329D01*
X68840226Y-107339597D01*
X68696063Y-107483760D01*
X68582795Y-107653278D01*
X68504774Y-107841636D01*
X68465000Y-108041595D01*
X67419972Y-108041595D01*
X67403598Y-108017090D01*
X67475968Y-107908780D01*
X67553989Y-107720422D01*
X67593763Y-107520463D01*
X67593763Y-107316585D01*
X67553989Y-107116626D01*
X67475968Y-106928268D01*
X67407454Y-106825730D01*
X67432677Y-106787981D01*
X67510698Y-106599623D01*
X67550472Y-106399664D01*
X67550472Y-106195786D01*
X67510698Y-105995827D01*
X67432677Y-105807469D01*
X67319409Y-105637951D01*
X67307111Y-105625653D01*
X67360123Y-105572640D01*
X67473391Y-105403122D01*
X67551412Y-105214764D01*
X67591186Y-105014805D01*
X67591186Y-104810927D01*
X67551412Y-104610968D01*
X67546066Y-104598061D01*
X71065000Y-104598061D01*
X71065000Y-104801939D01*
X71104774Y-105001898D01*
X71180764Y-105185352D01*
X71154772Y-105248102D01*
X71114998Y-105448061D01*
X71114998Y-105651939D01*
X71154772Y-105851898D01*
X71232793Y-106040256D01*
X71346061Y-106209774D01*
X71490224Y-106353937D01*
X71659742Y-106467205D01*
X71848100Y-106545226D01*
X72048059Y-106585000D01*
X72251937Y-106585000D01*
X72451896Y-106545226D01*
X72640254Y-106467205D01*
X72809772Y-106353937D01*
X72953935Y-106209774D01*
X73067203Y-106040256D01*
X73145224Y-105851898D01*
X73184998Y-105651939D01*
X73184998Y-105448061D01*
X73145224Y-105248102D01*
X73069234Y-105064648D01*
X73095226Y-105001898D01*
X73135000Y-104801939D01*
X73135000Y-104598061D01*
X73095226Y-104398102D01*
X73017205Y-104209744D01*
X72903937Y-104040226D01*
X72759774Y-103896063D01*
X72590256Y-103782795D01*
X72401898Y-103704774D01*
X72201939Y-103665000D01*
X71998061Y-103665000D01*
X71798102Y-103704774D01*
X71609744Y-103782795D01*
X71440226Y-103896063D01*
X71296063Y-104040226D01*
X71182795Y-104209744D01*
X71104774Y-104398102D01*
X71065000Y-104598061D01*
X67546066Y-104598061D01*
X67473391Y-104422610D01*
X67360123Y-104253092D01*
X67215960Y-104108929D01*
X67046442Y-103995661D01*
X66858084Y-103917640D01*
X66658125Y-103877866D01*
X66454247Y-103877866D01*
X66254288Y-103917640D01*
X66065930Y-103995661D01*
X65896412Y-104108929D01*
X65752249Y-104253092D01*
X65638981Y-104422610D01*
X65560960Y-104610968D01*
X65521186Y-104810927D01*
X65521186Y-105014805D01*
X65560960Y-105214764D01*
X65638981Y-105403122D01*
X65752249Y-105572640D01*
X65764548Y-105584939D01*
X65711535Y-105637951D01*
X65598267Y-105807469D01*
X65520246Y-105995827D01*
X65480472Y-106195786D01*
X65480472Y-106399664D01*
X65520246Y-106599623D01*
X65598267Y-106787981D01*
X65666781Y-106890519D01*
X65641558Y-106928268D01*
X65563537Y-107116626D01*
X65523763Y-107316585D01*
X65523763Y-107520463D01*
X65563537Y-107720422D01*
X65641558Y-107908780D01*
X65663063Y-107940964D01*
X65590693Y-108049274D01*
X65512672Y-108237632D01*
X65472898Y-108437591D01*
X65472898Y-108641469D01*
X65512672Y-108841428D01*
X65590693Y-109029786D01*
X65703961Y-109199304D01*
X65770473Y-109265816D01*
X65696063Y-109340226D01*
X65582795Y-109509744D01*
X65504774Y-109698102D01*
X65465000Y-109898061D01*
X53627000Y-109898061D01*
X53627000Y-104556414D01*
X53696063Y-104659774D01*
X53840226Y-104803937D01*
X54009744Y-104917205D01*
X54198102Y-104995226D01*
X54398061Y-105035000D01*
X54601939Y-105035000D01*
X54801898Y-104995226D01*
X54990256Y-104917205D01*
X55159774Y-104803937D01*
X55303937Y-104659774D01*
X55417205Y-104490256D01*
X55495226Y-104301898D01*
X55535000Y-104101939D01*
X55535000Y-103898061D01*
X55495226Y-103698102D01*
X55417205Y-103509744D01*
X55303937Y-103340226D01*
X55159774Y-103196063D01*
X54990256Y-103082795D01*
X54801898Y-103004774D01*
X54601939Y-102965000D01*
X54398061Y-102965000D01*
X54198102Y-103004774D01*
X54009744Y-103082795D01*
X53840226Y-103196063D01*
X53696063Y-103340226D01*
X53627000Y-103443586D01*
X53627000Y-102376966D01*
X56318819Y-102376966D01*
X56318819Y-102580844D01*
X56358593Y-102780803D01*
X56436614Y-102969161D01*
X56549882Y-103138679D01*
X56694045Y-103282842D01*
X56863563Y-103396110D01*
X57051921Y-103474131D01*
X57251880Y-103513905D01*
X57455758Y-103513905D01*
X57655717Y-103474131D01*
X57844075Y-103396110D01*
X57995003Y-103295264D01*
X57995800Y-103296061D01*
X58165318Y-103409329D01*
X58353676Y-103487350D01*
X58553635Y-103527124D01*
X58757513Y-103527124D01*
X58957472Y-103487350D01*
X59145830Y-103409329D01*
X59280574Y-103319296D01*
X59415318Y-103409329D01*
X59603676Y-103487350D01*
X59803635Y-103527124D01*
X60007513Y-103527124D01*
X60207472Y-103487350D01*
X60395830Y-103409329D01*
X60559072Y-103300255D01*
X60715508Y-103404782D01*
X60903866Y-103482803D01*
X61103825Y-103522577D01*
X61307703Y-103522577D01*
X61507662Y-103482803D01*
X61696020Y-103404782D01*
X61830764Y-103314749D01*
X61965508Y-103404782D01*
X62153866Y-103482803D01*
X62353825Y-103522577D01*
X62557703Y-103522577D01*
X62757662Y-103482803D01*
X62946020Y-103404782D01*
X63115538Y-103291514D01*
X63229951Y-103177101D01*
X63254774Y-103301898D01*
X63332795Y-103490256D01*
X63446063Y-103659774D01*
X63590226Y-103803937D01*
X63759744Y-103917205D01*
X63948102Y-103995226D01*
X64148061Y-104035000D01*
X64351939Y-104035000D01*
X64551898Y-103995226D01*
X64740256Y-103917205D01*
X64909774Y-103803937D01*
X65053937Y-103659774D01*
X65167205Y-103490256D01*
X65245226Y-103301898D01*
X65285000Y-103101939D01*
X65285000Y-102898061D01*
X65245226Y-102698102D01*
X65167205Y-102509744D01*
X65053937Y-102340226D01*
X64909774Y-102196063D01*
X64740256Y-102082795D01*
X64551898Y-102004774D01*
X64351939Y-101965000D01*
X64148061Y-101965000D01*
X63948102Y-102004774D01*
X63759744Y-102082795D01*
X63590226Y-102196063D01*
X63475813Y-102310476D01*
X63450990Y-102185679D01*
X63372969Y-101997321D01*
X63259701Y-101827803D01*
X63115538Y-101683640D01*
X62946020Y-101570372D01*
X62757662Y-101492351D01*
X62557703Y-101452577D01*
X62353825Y-101452577D01*
X62153866Y-101492351D01*
X61965508Y-101570372D01*
X61830764Y-101660405D01*
X61696020Y-101570372D01*
X61507662Y-101492351D01*
X61307703Y-101452577D01*
X61103825Y-101452577D01*
X60903866Y-101492351D01*
X60715508Y-101570372D01*
X60552266Y-101679446D01*
X60395830Y-101574919D01*
X60207472Y-101496898D01*
X60007513Y-101457124D01*
X59803635Y-101457124D01*
X59603676Y-101496898D01*
X59415318Y-101574919D01*
X59280574Y-101664952D01*
X59145830Y-101574919D01*
X58957472Y-101496898D01*
X58757513Y-101457124D01*
X58553635Y-101457124D01*
X58353676Y-101496898D01*
X58165318Y-101574919D01*
X58014390Y-101675765D01*
X58013593Y-101674968D01*
X57844075Y-101561700D01*
X57655717Y-101483679D01*
X57455758Y-101443905D01*
X57251880Y-101443905D01*
X57051921Y-101483679D01*
X56863563Y-101561700D01*
X56694045Y-101674968D01*
X56549882Y-101819131D01*
X56436614Y-101988649D01*
X56358593Y-102177007D01*
X56318819Y-102376966D01*
X53627000Y-102376966D01*
X53627000Y-101000000D01*
X53624560Y-100975224D01*
X53617333Y-100951399D01*
X53605597Y-100929443D01*
X53589803Y-100910197D01*
X53570557Y-100894403D01*
X53548601Y-100882667D01*
X53524776Y-100875440D01*
X53500000Y-100873000D01*
X50710000Y-100873000D01*
X50710000Y-100167412D01*
X50873898Y-100217130D01*
X51055335Y-100235000D01*
X51876665Y-100235000D01*
X52058102Y-100217130D01*
X52290901Y-100146511D01*
X52505449Y-100031833D01*
X52693502Y-99877502D01*
X52847833Y-99689449D01*
X52962511Y-99474901D01*
X53033130Y-99242102D01*
X53056975Y-99000000D01*
X53033130Y-98757898D01*
X53030117Y-98747965D01*
X53109619Y-98866949D01*
X53299051Y-99056381D01*
X53521799Y-99205216D01*
X53769303Y-99307736D01*
X54032052Y-99360000D01*
X54299948Y-99360000D01*
X54562697Y-99307736D01*
X54810201Y-99205216D01*
X55032949Y-99056381D01*
X55191269Y-98898061D01*
X55465000Y-98898061D01*
X55465000Y-99101939D01*
X55504774Y-99301898D01*
X55582795Y-99490256D01*
X55696063Y-99659774D01*
X55840226Y-99803937D01*
X56009744Y-99917205D01*
X56198102Y-99995226D01*
X56398061Y-100035000D01*
X56601939Y-100035000D01*
X56801898Y-99995226D01*
X56990256Y-99917205D01*
X57149995Y-99810471D01*
X57309733Y-99917205D01*
X57498091Y-99995226D01*
X57698050Y-100035000D01*
X57901928Y-100035000D01*
X58101887Y-99995226D01*
X58290245Y-99917205D01*
X58459763Y-99803937D01*
X58524995Y-99738706D01*
X58590226Y-99803937D01*
X58759744Y-99917205D01*
X58948102Y-99995226D01*
X59148061Y-100035000D01*
X59351939Y-100035000D01*
X59551898Y-99995226D01*
X59740256Y-99917205D01*
X59898908Y-99811197D01*
X59958439Y-99850974D01*
X60146797Y-99928995D01*
X60346756Y-99968769D01*
X60550634Y-99968769D01*
X60750593Y-99928995D01*
X60938951Y-99850974D01*
X61108469Y-99737706D01*
X61252632Y-99593543D01*
X61365900Y-99424025D01*
X61443921Y-99235667D01*
X61483695Y-99035708D01*
X61483695Y-98831830D01*
X61443921Y-98631871D01*
X61365900Y-98443513D01*
X61252632Y-98273995D01*
X61108469Y-98129832D01*
X60938951Y-98016564D01*
X60750593Y-97938543D01*
X60550634Y-97898769D01*
X60346756Y-97898769D01*
X60146797Y-97938543D01*
X59958439Y-98016564D01*
X59799787Y-98122572D01*
X59740256Y-98082795D01*
X59551898Y-98004774D01*
X59351939Y-97965000D01*
X59148061Y-97965000D01*
X58948102Y-98004774D01*
X58759744Y-98082795D01*
X58590226Y-98196063D01*
X58524995Y-98261295D01*
X58459763Y-98196063D01*
X58290245Y-98082795D01*
X58101887Y-98004774D01*
X57901928Y-97965000D01*
X57698050Y-97965000D01*
X57498091Y-98004774D01*
X57309733Y-98082795D01*
X57149995Y-98189529D01*
X56990256Y-98082795D01*
X56801898Y-98004774D01*
X56601939Y-97965000D01*
X56398061Y-97965000D01*
X56198102Y-98004774D01*
X56009744Y-98082795D01*
X55840226Y-98196063D01*
X55696063Y-98340226D01*
X55582795Y-98509744D01*
X55504774Y-98698102D01*
X55465000Y-98898061D01*
X55191269Y-98898061D01*
X55222381Y-98866949D01*
X55371216Y-98644201D01*
X55473736Y-98396697D01*
X55526000Y-98133948D01*
X55526000Y-97898061D01*
X87465000Y-97898061D01*
X87465000Y-98101939D01*
X87504774Y-98301898D01*
X87582795Y-98490256D01*
X87696063Y-98659774D01*
X87840226Y-98803937D01*
X88009744Y-98917205D01*
X88198102Y-98995226D01*
X88398061Y-99035000D01*
X88601939Y-99035000D01*
X88801898Y-98995226D01*
X88990256Y-98917205D01*
X89159774Y-98803937D01*
X89303937Y-98659774D01*
X89417205Y-98490256D01*
X89495226Y-98301898D01*
X89535000Y-98101939D01*
X89535000Y-97898061D01*
X89495226Y-97698102D01*
X89417205Y-97509744D01*
X89303937Y-97340226D01*
X89159774Y-97196063D01*
X88990256Y-97082795D01*
X88801898Y-97004774D01*
X88601939Y-96965000D01*
X88398061Y-96965000D01*
X88198102Y-97004774D01*
X88009744Y-97082795D01*
X87840226Y-97196063D01*
X87696063Y-97340226D01*
X87582795Y-97509744D01*
X87504774Y-97698102D01*
X87465000Y-97898061D01*
X55526000Y-97898061D01*
X55526000Y-97866052D01*
X55473736Y-97603303D01*
X55371216Y-97355799D01*
X55222381Y-97133051D01*
X55032949Y-96943619D01*
X54810201Y-96794784D01*
X54562697Y-96692264D01*
X54299948Y-96640000D01*
X54032052Y-96640000D01*
X53769303Y-96692264D01*
X53521799Y-96794784D01*
X53299051Y-96943619D01*
X53109619Y-97133051D01*
X52960784Y-97355799D01*
X52858264Y-97603303D01*
X52806000Y-97866052D01*
X52806000Y-98133948D01*
X52838984Y-98299768D01*
X52693502Y-98122498D01*
X52505449Y-97968167D01*
X52290901Y-97853489D01*
X52058102Y-97782870D01*
X51876665Y-97765000D01*
X51055335Y-97765000D01*
X50873898Y-97782870D01*
X50710000Y-97832588D01*
X50710000Y-93167412D01*
X50873898Y-93217130D01*
X51055335Y-93235000D01*
X51876665Y-93235000D01*
X52058102Y-93217130D01*
X52290901Y-93146511D01*
X52505449Y-93031833D01*
X52693502Y-92877502D01*
X52838984Y-92700232D01*
X52806000Y-92866052D01*
X52806000Y-93133948D01*
X52858264Y-93396697D01*
X52960784Y-93644201D01*
X53109619Y-93866949D01*
X53299051Y-94056381D01*
X53521799Y-94205216D01*
X53769303Y-94307736D01*
X54032052Y-94360000D01*
X54299948Y-94360000D01*
X54562697Y-94307736D01*
X54810201Y-94205216D01*
X54911339Y-94137638D01*
X54994176Y-94337624D01*
X55118388Y-94523520D01*
X55276480Y-94681612D01*
X55462376Y-94805824D01*
X55668933Y-94891383D01*
X55888212Y-94935000D01*
X56111788Y-94935000D01*
X56331067Y-94891383D01*
X56537624Y-94805824D01*
X56723520Y-94681612D01*
X56881612Y-94523520D01*
X56970023Y-94391204D01*
X57038388Y-94493520D01*
X57196480Y-94651612D01*
X57382376Y-94775824D01*
X57588933Y-94861383D01*
X57808212Y-94905000D01*
X58031788Y-94905000D01*
X58251067Y-94861383D01*
X58457624Y-94775824D01*
X58555000Y-94710759D01*
X58652376Y-94775824D01*
X58858933Y-94861383D01*
X59078212Y-94905000D01*
X59301788Y-94905000D01*
X59521067Y-94861383D01*
X59727624Y-94775824D01*
X59825000Y-94710759D01*
X59922376Y-94775824D01*
X60128933Y-94861383D01*
X60348212Y-94905000D01*
X60571788Y-94905000D01*
X60791067Y-94861383D01*
X60997624Y-94775824D01*
X61095000Y-94710759D01*
X61192376Y-94775824D01*
X61398933Y-94861383D01*
X61618212Y-94905000D01*
X61841788Y-94905000D01*
X62061067Y-94861383D01*
X62267624Y-94775824D01*
X62365000Y-94710759D01*
X62462376Y-94775824D01*
X62487264Y-94786133D01*
X62465000Y-94898061D01*
X62465000Y-95101939D01*
X62504774Y-95301898D01*
X62582795Y-95490256D01*
X62696063Y-95659774D01*
X62840226Y-95803937D01*
X63009744Y-95917205D01*
X63198102Y-95995226D01*
X63398061Y-96035000D01*
X63601939Y-96035000D01*
X63724164Y-96010688D01*
X63658617Y-96168933D01*
X63615000Y-96388212D01*
X63615000Y-96611788D01*
X63658617Y-96831067D01*
X63744176Y-97037624D01*
X63868388Y-97223520D01*
X64026480Y-97381612D01*
X64212376Y-97505824D01*
X64418933Y-97591383D01*
X64638212Y-97635000D01*
X64861788Y-97635000D01*
X65081067Y-97591383D01*
X65287624Y-97505824D01*
X65473520Y-97381612D01*
X65631612Y-97223520D01*
X65755824Y-97037624D01*
X65841383Y-96831067D01*
X65885000Y-96611788D01*
X65885000Y-96388212D01*
X65841383Y-96168933D01*
X65788585Y-96041467D01*
X75735500Y-96041467D01*
X75735500Y-96363533D01*
X75798332Y-96679412D01*
X75921582Y-96976963D01*
X76100513Y-97244752D01*
X76328248Y-97472487D01*
X76596037Y-97651418D01*
X76893588Y-97774668D01*
X77209467Y-97837500D01*
X77531533Y-97837500D01*
X77847412Y-97774668D01*
X78144963Y-97651418D01*
X78412752Y-97472487D01*
X78599199Y-97286040D01*
X78814457Y-97429871D01*
X79066511Y-97534275D01*
X79334089Y-97587500D01*
X79606911Y-97587500D01*
X79874489Y-97534275D01*
X80126543Y-97429871D01*
X80353386Y-97278299D01*
X80470500Y-97161185D01*
X80587614Y-97278299D01*
X80814457Y-97429871D01*
X81066511Y-97534275D01*
X81334089Y-97587500D01*
X81606911Y-97587500D01*
X81874489Y-97534275D01*
X82126543Y-97429871D01*
X82353386Y-97278299D01*
X82546299Y-97085386D01*
X82697871Y-96858543D01*
X82742432Y-96750963D01*
X83290895Y-96202500D01*
X82742432Y-95654037D01*
X82697871Y-95546457D01*
X82546299Y-95319614D01*
X82472192Y-95245507D01*
X82693112Y-95245507D01*
X83470500Y-96022895D01*
X83484643Y-96008753D01*
X83664248Y-96188358D01*
X83650105Y-96202500D01*
X83664248Y-96216643D01*
X83484643Y-96396248D01*
X83470500Y-96382105D01*
X82693112Y-97159493D01*
X82758637Y-97398360D01*
X83005616Y-97514260D01*
X83270460Y-97579750D01*
X83542992Y-97592312D01*
X83812738Y-97551465D01*
X84069332Y-97458777D01*
X84182363Y-97398360D01*
X84246624Y-97164101D01*
X84300513Y-97244752D01*
X84528248Y-97472487D01*
X84796037Y-97651418D01*
X85093588Y-97774668D01*
X85409467Y-97837500D01*
X85731533Y-97837500D01*
X86047412Y-97774668D01*
X86344963Y-97651418D01*
X86612752Y-97472487D01*
X86840487Y-97244752D01*
X87019418Y-96976963D01*
X87142668Y-96679412D01*
X87205500Y-96363533D01*
X87205500Y-96041467D01*
X87142668Y-95725588D01*
X87019418Y-95428037D01*
X86840487Y-95160248D01*
X86612752Y-94932513D01*
X86344963Y-94753582D01*
X86047412Y-94630332D01*
X85731533Y-94567500D01*
X85409467Y-94567500D01*
X85093588Y-94630332D01*
X84796037Y-94753582D01*
X84528248Y-94932513D01*
X84300513Y-95160248D01*
X84246624Y-95240899D01*
X84182363Y-95006640D01*
X83935384Y-94890740D01*
X83670540Y-94825250D01*
X83398008Y-94812688D01*
X83128262Y-94853535D01*
X82871668Y-94946223D01*
X82758637Y-95006640D01*
X82693112Y-95245507D01*
X82472192Y-95245507D01*
X82353386Y-95126701D01*
X82126543Y-94975129D01*
X81874489Y-94870725D01*
X81606911Y-94817500D01*
X81334089Y-94817500D01*
X81066511Y-94870725D01*
X80814457Y-94975129D01*
X80587614Y-95126701D01*
X80470500Y-95243815D01*
X80353386Y-95126701D01*
X80126543Y-94975129D01*
X79874489Y-94870725D01*
X79606911Y-94817500D01*
X79334089Y-94817500D01*
X79066511Y-94870725D01*
X78814457Y-94975129D01*
X78599199Y-95118960D01*
X78412752Y-94932513D01*
X78144963Y-94753582D01*
X77847412Y-94630332D01*
X77531533Y-94567500D01*
X77209467Y-94567500D01*
X76893588Y-94630332D01*
X76596037Y-94753582D01*
X76328248Y-94932513D01*
X76100513Y-95160248D01*
X75921582Y-95428037D01*
X75798332Y-95725588D01*
X75735500Y-96041467D01*
X65788585Y-96041467D01*
X65755824Y-95962376D01*
X65631612Y-95776480D01*
X65473520Y-95618388D01*
X65287624Y-95494176D01*
X65081067Y-95408617D01*
X64861788Y-95365000D01*
X64638212Y-95365000D01*
X64453902Y-95401661D01*
X64495226Y-95301898D01*
X64535000Y-95101939D01*
X64535000Y-94898061D01*
X64495226Y-94698102D01*
X64417205Y-94509744D01*
X64303937Y-94340226D01*
X64159774Y-94196063D01*
X64075389Y-94139679D01*
X64091383Y-94101067D01*
X64114365Y-93985524D01*
X69983000Y-93985524D01*
X69983000Y-94184476D01*
X70021814Y-94379606D01*
X70097950Y-94563414D01*
X70208482Y-94728837D01*
X70349163Y-94869518D01*
X70514586Y-94980050D01*
X70698394Y-95056186D01*
X70893524Y-95095000D01*
X71092476Y-95095000D01*
X71287606Y-95056186D01*
X71471414Y-94980050D01*
X71636837Y-94869518D01*
X71777518Y-94728837D01*
X71888050Y-94563414D01*
X71964186Y-94379606D01*
X72003000Y-94184476D01*
X72003000Y-93985524D01*
X71964186Y-93790394D01*
X71888050Y-93606586D01*
X71777518Y-93441163D01*
X71636837Y-93300482D01*
X71471414Y-93189950D01*
X71287606Y-93113814D01*
X71092476Y-93075000D01*
X70893524Y-93075000D01*
X70698394Y-93113814D01*
X70514586Y-93189950D01*
X70349163Y-93300482D01*
X70208482Y-93441163D01*
X70097950Y-93606586D01*
X70021814Y-93790394D01*
X69983000Y-93985524D01*
X64114365Y-93985524D01*
X64135000Y-93881788D01*
X64135000Y-93658212D01*
X64091383Y-93438933D01*
X64045112Y-93327226D01*
X64089502Y-93244180D01*
X64125812Y-93124482D01*
X64138072Y-93000000D01*
X64138072Y-92000000D01*
X64125812Y-91875518D01*
X64089502Y-91755820D01*
X64030537Y-91645506D01*
X63951185Y-91548815D01*
X63854494Y-91469463D01*
X63744180Y-91410498D01*
X63624482Y-91374188D01*
X63500000Y-91361928D01*
X62500000Y-91361928D01*
X62375518Y-91374188D01*
X62255820Y-91410498D01*
X62166820Y-91458070D01*
X62086864Y-91422554D01*
X62031874Y-91405881D01*
X61857000Y-91532046D01*
X61857000Y-92373000D01*
X61861928Y-92373000D01*
X61861928Y-92627000D01*
X61857000Y-92627000D01*
X61857000Y-92638026D01*
X61841788Y-92635000D01*
X61618212Y-92635000D01*
X61603000Y-92638026D01*
X61603000Y-92627000D01*
X60587000Y-92627000D01*
X60587000Y-92638026D01*
X60571788Y-92635000D01*
X60348212Y-92635000D01*
X60333000Y-92638026D01*
X60333000Y-92627000D01*
X60321974Y-92627000D01*
X60325000Y-92611788D01*
X60325000Y-92388212D01*
X60321974Y-92373000D01*
X60333000Y-92373000D01*
X60333000Y-91532046D01*
X60587000Y-91532046D01*
X60587000Y-92373000D01*
X61603000Y-92373000D01*
X61603000Y-91532046D01*
X61428126Y-91405881D01*
X61373136Y-91422554D01*
X61169794Y-91512877D01*
X61095000Y-91565639D01*
X61020206Y-91512877D01*
X60816864Y-91422554D01*
X60761874Y-91405881D01*
X60587000Y-91532046D01*
X60333000Y-91532046D01*
X60158126Y-91405881D01*
X60103136Y-91422554D01*
X59899794Y-91512877D01*
X59829658Y-91562353D01*
X59727624Y-91494176D01*
X59521067Y-91408617D01*
X59301788Y-91365000D01*
X59078212Y-91365000D01*
X58858933Y-91408617D01*
X58652376Y-91494176D01*
X58550342Y-91562353D01*
X58480206Y-91512877D01*
X58276864Y-91422554D01*
X58221874Y-91405881D01*
X58047000Y-91532046D01*
X58047000Y-92373000D01*
X58058026Y-92373000D01*
X58055000Y-92388212D01*
X58055000Y-92611788D01*
X58058026Y-92627000D01*
X58047000Y-92627000D01*
X58047000Y-92638026D01*
X58031788Y-92635000D01*
X57808212Y-92635000D01*
X57793000Y-92638026D01*
X57793000Y-92627000D01*
X56950871Y-92627000D01*
X56825874Y-92801876D01*
X56905790Y-93009529D01*
X56982256Y-93130488D01*
X56949977Y-93178796D01*
X56881612Y-93076480D01*
X56723520Y-92918388D01*
X56537624Y-92794176D01*
X56331067Y-92708617D01*
X56111788Y-92665000D01*
X55888212Y-92665000D01*
X55668933Y-92708617D01*
X55507948Y-92775299D01*
X55473736Y-92603303D01*
X55371216Y-92355799D01*
X55265862Y-92198124D01*
X56825874Y-92198124D01*
X56950871Y-92373000D01*
X57793000Y-92373000D01*
X57793000Y-91532046D01*
X57618126Y-91405881D01*
X57563136Y-91422554D01*
X57359794Y-91512877D01*
X57177980Y-91641135D01*
X57024682Y-91802399D01*
X56905790Y-91990471D01*
X56825874Y-92198124D01*
X55265862Y-92198124D01*
X55222381Y-92133051D01*
X55032949Y-91943619D01*
X54810201Y-91794784D01*
X54562697Y-91692264D01*
X54299948Y-91640000D01*
X54032052Y-91640000D01*
X53769303Y-91692264D01*
X53521799Y-91794784D01*
X53299051Y-91943619D01*
X53109619Y-92133051D01*
X53030117Y-92252035D01*
X53033130Y-92242102D01*
X53056975Y-92000000D01*
X53033130Y-91757898D01*
X52962511Y-91525099D01*
X52847833Y-91310551D01*
X52693502Y-91122498D01*
X52505449Y-90968167D01*
X52290901Y-90853489D01*
X52058102Y-90782870D01*
X51876665Y-90765000D01*
X51227058Y-90765000D01*
X51341833Y-90729471D01*
X51527092Y-90710000D01*
X70195896Y-90710000D01*
X70097950Y-90856586D01*
G37*
X70097950Y-90856586D02*
X70021814Y-91040394D01*
X69983000Y-91235524D01*
X69983000Y-91434476D01*
X70021814Y-91629606D01*
X70097950Y-91813414D01*
X70208482Y-91978837D01*
X70349163Y-92119518D01*
X70514586Y-92230050D01*
X70698394Y-92306186D01*
X70893524Y-92345000D01*
X71092476Y-92345000D01*
X71287606Y-92306186D01*
X71471414Y-92230050D01*
X71636837Y-92119518D01*
X71777518Y-91978837D01*
X71888050Y-91813414D01*
X71964186Y-91629606D01*
X72003000Y-91434476D01*
X72003000Y-91235524D01*
X71964186Y-91040394D01*
X71888050Y-90856586D01*
X71790104Y-90710000D01*
X98465271Y-90710000D01*
X98652785Y-90728386D01*
X98799748Y-90772757D01*
X98935297Y-90844829D01*
X99054258Y-90941852D01*
X99152118Y-91060144D01*
X99225132Y-91195181D01*
X99270529Y-91341833D01*
X99290000Y-91527092D01*
X99290001Y-123465261D01*
X99271614Y-123652784D01*
X99227243Y-123799748D01*
X99155171Y-123935297D01*
X99058148Y-124054258D01*
X98939856Y-124152118D01*
X98804819Y-124225132D01*
X98658167Y-124270529D01*
X98472908Y-124290000D01*
X51534729Y-124290000D01*
X51347216Y-124271614D01*
X51200252Y-124227243D01*
X51064703Y-124155171D01*
X50945742Y-124058148D01*
X50847882Y-123939856D01*
X50774868Y-123804819D01*
X50729471Y-123658167D01*
X50710000Y-123472908D01*
X50710000Y-122898061D01*
X52965000Y-122898061D01*
X52965000Y-123101939D01*
X53004774Y-123301898D01*
X53082795Y-123490256D01*
X53196063Y-123659774D01*
X53340226Y-123803937D01*
X53509744Y-123917205D01*
X53698102Y-123995226D01*
X53898061Y-124035000D01*
X54101939Y-124035000D01*
X54301898Y-123995226D01*
X54490256Y-123917205D01*
X54659774Y-123803937D01*
X54803937Y-123659774D01*
X54917205Y-123490256D01*
X54995226Y-123301898D01*
X55035000Y-123101939D01*
X55035000Y-122898061D01*
X64965000Y-122898061D01*
X64965000Y-123101939D01*
X65004774Y-123301898D01*
X65082795Y-123490256D01*
X65196063Y-123659774D01*
X65340226Y-123803937D01*
X65509744Y-123917205D01*
X65698102Y-123995226D01*
X65898061Y-124035000D01*
X66101939Y-124035000D01*
X66301898Y-123995226D01*
X66490256Y-123917205D01*
X66659774Y-123803937D01*
X66803937Y-123659774D01*
X66917205Y-123490256D01*
X66995226Y-123301898D01*
X67035000Y-123101939D01*
X67035000Y-122898061D01*
X66995226Y-122698102D01*
X66917205Y-122509744D01*
X66803937Y-122340226D01*
X66659774Y-122196063D01*
X66490256Y-122082795D01*
X66301898Y-122004774D01*
X66101939Y-121965000D01*
X65898061Y-121965000D01*
X65698102Y-122004774D01*
X65509744Y-122082795D01*
X65340226Y-122196063D01*
X65196063Y-122340226D01*
X65082795Y-122509744D01*
X65004774Y-122698102D01*
X64965000Y-122898061D01*
X55035000Y-122898061D01*
X54995226Y-122698102D01*
X54917205Y-122509744D01*
X54803937Y-122340226D01*
X54659774Y-122196063D01*
X54490256Y-122082795D01*
X54301898Y-122004774D01*
X54101939Y-121965000D01*
X53898061Y-121965000D01*
X53698102Y-122004774D01*
X53509744Y-122082795D01*
X53340226Y-122196063D01*
X53196063Y-122340226D01*
X53082795Y-122509744D01*
X53004774Y-122698102D01*
X52965000Y-122898061D01*
X50710000Y-122898061D01*
X50710000Y-120329117D01*
X59265000Y-120329117D01*
X59265000Y-120670883D01*
X59331675Y-121006081D01*
X59462463Y-121321831D01*
X59652337Y-121605998D01*
X59894002Y-121847663D01*
X60178169Y-122037537D01*
X60493919Y-122168325D01*
X60829117Y-122235000D01*
X61170883Y-122235000D01*
X61506081Y-122168325D01*
X61821831Y-122037537D01*
X62105998Y-121847663D01*
X62347663Y-121605998D01*
X62537537Y-121321831D01*
X62668325Y-121006081D01*
X62689811Y-120898061D01*
X63965000Y-120898061D01*
X63965000Y-121101939D01*
X64004774Y-121301898D01*
X64082795Y-121490256D01*
X64196063Y-121659774D01*
X64340226Y-121803937D01*
X64509744Y-121917205D01*
X64698102Y-121995226D01*
X64898061Y-122035000D01*
X65101939Y-122035000D01*
X65301898Y-121995226D01*
X65490256Y-121917205D01*
X65659774Y-121803937D01*
X65803937Y-121659774D01*
X65917205Y-121490256D01*
X65995226Y-121301898D01*
X66035000Y-121101939D01*
X66035000Y-120898061D01*
X65995226Y-120698102D01*
X65917205Y-120509744D01*
X65803937Y-120340226D01*
X65659774Y-120196063D01*
X65490256Y-120082795D01*
X65301898Y-120004774D01*
X65101939Y-119965000D01*
X64898061Y-119965000D01*
X64698102Y-120004774D01*
X64509744Y-120082795D01*
X64340226Y-120196063D01*
X64196063Y-120340226D01*
X64082795Y-120509744D01*
X64004774Y-120698102D01*
X63965000Y-120898061D01*
X62689811Y-120898061D01*
X62735000Y-120670883D01*
X62735000Y-120329117D01*
X62668325Y-119993919D01*
X62537537Y-119678169D01*
X62347663Y-119394002D01*
X62105998Y-119152337D01*
X61821831Y-118962463D01*
X61506081Y-118831675D01*
X61170883Y-118765000D01*
X60829117Y-118765000D01*
X60493919Y-118831675D01*
X60178169Y-118962463D01*
X59894002Y-119152337D01*
X59652337Y-119394002D01*
X59462463Y-119678169D01*
X59331675Y-119993919D01*
X59265000Y-120329117D01*
X50710000Y-120329117D01*
X50710000Y-114627000D01*
X53500000Y-114627000D01*
X53524776Y-114624560D01*
X53548601Y-114617333D01*
X53570557Y-114605597D01*
X53589803Y-114589803D01*
X53605597Y-114570557D01*
X53617333Y-114548601D01*
X53624560Y-114524776D01*
X53627000Y-114500000D01*
X53627000Y-109898061D01*
X65465000Y-109898061D01*
X65465000Y-110101939D01*
X65504774Y-110301898D01*
X65582795Y-110490256D01*
X65623304Y-110550882D01*
X65590987Y-110599248D01*
X65512966Y-110787606D01*
X65473192Y-110987565D01*
X65473192Y-111191443D01*
X65512966Y-111391402D01*
X65590987Y-111579760D01*
X65704255Y-111749278D01*
X65848418Y-111893441D01*
X66017936Y-112006709D01*
X66206294Y-112084730D01*
X66373000Y-112117890D01*
X66373000Y-117000000D01*
X66375440Y-117024776D01*
X66382667Y-117048601D01*
X66394403Y-117070557D01*
X66410197Y-117089803D01*
X66429443Y-117105597D01*
X66451399Y-117117333D01*
X66475224Y-117124560D01*
X66500000Y-117127000D01*
X68373000Y-117127000D01*
X68373000Y-123000000D01*
X68375440Y-123024776D01*
X68382667Y-123048601D01*
X68394403Y-123070557D01*
X68410197Y-123089803D01*
X68429443Y-123105597D01*
X68451399Y-123117333D01*
X68475224Y-123124560D01*
X68500000Y-123127000D01*
X75500000Y-123127000D01*
X75524776Y-123124560D01*
X75548601Y-123117333D01*
X75570557Y-123105597D01*
X75589803Y-123089803D01*
X75605597Y-123070557D01*
X75617333Y-123048601D01*
X75624560Y-123024776D01*
X75627000Y-123000000D01*
X75627000Y-121698061D01*
X83365000Y-121698061D01*
X83365000Y-121901939D01*
X83404774Y-122101898D01*
X83482795Y-122290256D01*
X83596063Y-122459774D01*
X83740226Y-122603937D01*
X83909744Y-122717205D01*
X84098102Y-122795226D01*
X84298061Y-122835000D01*
X84501939Y-122835000D01*
X84701898Y-122795226D01*
X84890256Y-122717205D01*
X85059774Y-122603937D01*
X85203937Y-122459774D01*
X85317205Y-122290256D01*
X85395226Y-122101898D01*
X85435000Y-121901939D01*
X85435000Y-121698061D01*
X85395226Y-121498102D01*
X85317205Y-121309744D01*
X85309399Y-121298061D01*
X89165000Y-121298061D01*
X89165000Y-121501939D01*
X89204774Y-121701898D01*
X89282795Y-121890256D01*
X89396063Y-122059774D01*
X89540226Y-122203937D01*
X89709744Y-122317205D01*
X89898102Y-122395226D01*
X90098061Y-122435000D01*
X90301939Y-122435000D01*
X90501898Y-122395226D01*
X90690256Y-122317205D01*
X90859774Y-122203937D01*
X91003937Y-122059774D01*
X91117205Y-121890256D01*
X91195226Y-121701898D01*
X91235000Y-121501939D01*
X91235000Y-121298061D01*
X91195226Y-121098102D01*
X91117205Y-120909744D01*
X91003937Y-120740226D01*
X90859774Y-120596063D01*
X90690256Y-120482795D01*
X90501898Y-120404774D01*
X90301939Y-120365000D01*
X90098061Y-120365000D01*
X89898102Y-120404774D01*
X89709744Y-120482795D01*
X89540226Y-120596063D01*
X89396063Y-120740226D01*
X89282795Y-120909744D01*
X89204774Y-121098102D01*
X89165000Y-121298061D01*
X85309399Y-121298061D01*
X85203937Y-121140226D01*
X85059774Y-120996063D01*
X84890256Y-120882795D01*
X84701898Y-120804774D01*
X84501939Y-120765000D01*
X84298061Y-120765000D01*
X84098102Y-120804774D01*
X83909744Y-120882795D01*
X83740226Y-120996063D01*
X83596063Y-121140226D01*
X83482795Y-121309744D01*
X83404774Y-121498102D01*
X83365000Y-121698061D01*
X75627000Y-121698061D01*
X75627000Y-117127000D01*
X77000000Y-117127000D01*
X77024776Y-117124560D01*
X77048601Y-117117333D01*
X77070557Y-117105597D01*
X77089803Y-117089803D01*
X77105597Y-117070557D01*
X77117333Y-117048601D01*
X77124560Y-117024776D01*
X77127000Y-117000000D01*
X77127000Y-116548061D01*
X77315000Y-116548061D01*
X77315000Y-116751939D01*
X77354774Y-116951898D01*
X77432795Y-117140256D01*
X77546063Y-117309774D01*
X77690226Y-117453937D01*
X77859744Y-117567205D01*
X78048102Y-117645226D01*
X78248061Y-117685000D01*
X78451939Y-117685000D01*
X78651898Y-117645226D01*
X78840256Y-117567205D01*
X79009774Y-117453937D01*
X79051808Y-117411903D01*
X79059744Y-117417205D01*
X79248102Y-117495226D01*
X79448061Y-117535000D01*
X79651939Y-117535000D01*
X79851898Y-117495226D01*
X80040256Y-117417205D01*
X80209774Y-117303937D01*
X80353937Y-117159774D01*
X80467205Y-116990256D01*
X80545226Y-116801898D01*
X80585000Y-116601939D01*
X80585000Y-116398061D01*
X89215000Y-116398061D01*
X89215000Y-116601939D01*
X89254774Y-116801898D01*
X89332795Y-116990256D01*
X89446063Y-117159774D01*
X89590226Y-117303937D01*
X89759744Y-117417205D01*
X89948102Y-117495226D01*
X90148061Y-117535000D01*
X90351939Y-117535000D01*
X90551898Y-117495226D01*
X90740256Y-117417205D01*
X90909774Y-117303937D01*
X91053937Y-117159774D01*
X91167205Y-116990256D01*
X91245226Y-116801898D01*
X91285000Y-116601939D01*
X91285000Y-116398061D01*
X91245226Y-116198102D01*
X91167205Y-116009744D01*
X91053937Y-115840226D01*
X90909774Y-115696063D01*
X90740256Y-115582795D01*
X90551898Y-115504774D01*
X90351939Y-115465000D01*
X90148061Y-115465000D01*
X89948102Y-115504774D01*
X89759744Y-115582795D01*
X89590226Y-115696063D01*
X89446063Y-115840226D01*
X89332795Y-116009744D01*
X89254774Y-116198102D01*
X89215000Y-116398061D01*
X80585000Y-116398061D01*
X80545226Y-116198102D01*
X80467205Y-116009744D01*
X80353937Y-115840226D01*
X80209774Y-115696063D01*
X80066005Y-115600000D01*
X80209774Y-115503937D01*
X80353937Y-115359774D01*
X80467205Y-115190256D01*
X80545226Y-115001898D01*
X80585000Y-114801939D01*
X80585000Y-114598061D01*
X80545226Y-114398102D01*
X80478997Y-114238212D01*
X92434998Y-114238212D01*
X92434998Y-114461788D01*
X92478615Y-114681067D01*
X92564174Y-114887624D01*
X92688386Y-115073520D01*
X92846478Y-115231612D01*
X93032374Y-115355824D01*
X93238931Y-115441383D01*
X93458210Y-115485000D01*
X93681786Y-115485000D01*
X93901065Y-115441383D01*
X94107622Y-115355824D01*
X94293518Y-115231612D01*
X94451610Y-115073520D01*
X94575822Y-114887624D01*
X94661381Y-114681067D01*
X94704998Y-114461788D01*
X94704998Y-114238212D01*
X94661381Y-114018933D01*
X94575822Y-113812376D01*
X94451610Y-113626480D01*
X94293518Y-113468388D01*
X94107622Y-113344176D01*
X93901065Y-113258617D01*
X93681786Y-113215000D01*
X93458210Y-113215000D01*
X93238931Y-113258617D01*
X93032374Y-113344176D01*
X92846478Y-113468388D01*
X92688386Y-113626480D01*
X92564174Y-113812376D01*
X92478615Y-114018933D01*
X92434998Y-114238212D01*
X80478997Y-114238212D01*
X80467205Y-114209744D01*
X80353937Y-114040226D01*
X80209774Y-113896063D01*
X80040256Y-113782795D01*
X79851898Y-113704774D01*
X79651939Y-113665000D01*
X79448061Y-113665000D01*
X79248102Y-113704774D01*
X79059744Y-113782795D01*
X78890226Y-113896063D01*
X78746063Y-114040226D01*
X78632795Y-114209744D01*
X78554774Y-114398102D01*
X78515000Y-114598061D01*
X78515000Y-114801939D01*
X78554774Y-115001898D01*
X78632795Y-115190256D01*
X78746063Y-115359774D01*
X78890226Y-115503937D01*
X79033995Y-115600000D01*
X78890226Y-115696063D01*
X78848192Y-115738097D01*
X78840256Y-115732795D01*
X78651898Y-115654774D01*
X78451939Y-115615000D01*
X78248061Y-115615000D01*
X78048102Y-115654774D01*
X77859744Y-115732795D01*
X77690226Y-115846063D01*
X77546063Y-115990226D01*
X77432795Y-116159744D01*
X77354774Y-116348102D01*
X77315000Y-116548061D01*
X77127000Y-116548061D01*
X77127000Y-113000000D01*
X77124560Y-112975224D01*
X77117333Y-112951399D01*
X77105597Y-112929443D01*
X77089803Y-112910197D01*
X77070557Y-112894403D01*
X77048601Y-112882667D01*
X77024776Y-112875440D01*
X77000000Y-112873000D01*
X73552606Y-112873000D01*
X71779606Y-111100000D01*
X76761928Y-111100000D01*
X76774188Y-111224482D01*
X76810498Y-111344180D01*
X76869463Y-111454494D01*
X76948815Y-111551185D01*
X77045506Y-111630537D01*
X77155820Y-111689502D01*
X77275518Y-111725812D01*
X77400000Y-111738072D01*
X77714250Y-111735000D01*
X77873000Y-111576250D01*
X77873000Y-110627000D01*
X76923750Y-110627000D01*
X76765000Y-110785750D01*
X76761928Y-111100000D01*
X71779606Y-111100000D01*
X70589803Y-109910197D01*
X70577378Y-109900000D01*
X76761928Y-109900000D01*
X76765000Y-110214250D01*
X76923750Y-110373000D01*
X77873000Y-110373000D01*
X77873000Y-110353000D01*
X78127000Y-110353000D01*
X78127000Y-110373000D01*
X78147000Y-110373000D01*
X78147000Y-110627000D01*
X78127000Y-110627000D01*
X78127000Y-111576250D01*
X78285750Y-111735000D01*
X78600000Y-111738072D01*
X78724482Y-111725812D01*
X78844180Y-111689502D01*
X78954494Y-111630537D01*
X79051185Y-111551185D01*
X79130537Y-111454494D01*
X79157499Y-111404053D01*
X79212733Y-111459287D01*
X79415008Y-111594443D01*
X79570753Y-111658955D01*
X79515216Y-111696063D01*
X79371053Y-111840226D01*
X79257785Y-112009744D01*
X79179764Y-112198102D01*
X79139990Y-112398061D01*
X79139990Y-112601939D01*
X79179764Y-112801898D01*
X79257785Y-112990256D01*
X79371053Y-113159774D01*
X79515216Y-113303937D01*
X79684734Y-113417205D01*
X79873092Y-113495226D01*
X80073051Y-113535000D01*
X80276929Y-113535000D01*
X80476888Y-113495226D01*
X80665246Y-113417205D01*
X80834764Y-113303937D01*
X80978927Y-113159774D01*
X81018866Y-113100000D01*
X83011928Y-113100000D01*
X83024188Y-113224482D01*
X83060498Y-113344180D01*
X83119463Y-113454494D01*
X83198815Y-113551185D01*
X83295506Y-113630537D01*
X83405820Y-113689502D01*
X83525518Y-113725812D01*
X83650000Y-113738072D01*
X84214250Y-113735000D01*
X84373000Y-113576250D01*
X84373000Y-112627000D01*
X84627000Y-112627000D01*
X84627000Y-113576250D01*
X84785750Y-113735000D01*
X85350000Y-113738072D01*
X85474482Y-113725812D01*
X85594180Y-113689502D01*
X85704494Y-113630537D01*
X85801185Y-113551185D01*
X85880537Y-113454494D01*
X85939502Y-113344180D01*
X85975812Y-113224482D01*
X85988072Y-113100000D01*
X88511928Y-113100000D01*
X88524188Y-113224482D01*
X88560498Y-113344180D01*
X88619463Y-113454494D01*
X88698815Y-113551185D01*
X88795506Y-113630537D01*
X88905820Y-113689502D01*
X89025518Y-113725812D01*
X89150000Y-113738072D01*
X89714250Y-113735000D01*
X89873000Y-113576250D01*
X89873000Y-112627000D01*
X90127000Y-112627000D01*
X90127000Y-113576250D01*
X90285750Y-113735000D01*
X90850000Y-113738072D01*
X90974482Y-113725812D01*
X91094180Y-113689502D01*
X91204494Y-113630537D01*
X91301185Y-113551185D01*
X91380537Y-113454494D01*
X91439502Y-113344180D01*
X91475812Y-113224482D01*
X91488072Y-113100000D01*
X91485000Y-112785750D01*
X91326250Y-112627000D01*
X90127000Y-112627000D01*
X89873000Y-112627000D01*
X88673750Y-112627000D01*
X88515000Y-112785750D01*
X88511928Y-113100000D01*
X85988072Y-113100000D01*
X85985000Y-112785750D01*
X85826250Y-112627000D01*
X84627000Y-112627000D01*
X84373000Y-112627000D01*
X83173750Y-112627000D01*
X83015000Y-112785750D01*
X83011928Y-113100000D01*
X81018866Y-113100000D01*
X81092195Y-112990256D01*
X81170216Y-112801898D01*
X81209990Y-112601939D01*
X81209990Y-112398061D01*
X81170216Y-112198102D01*
X81092195Y-112009744D01*
X80978927Y-111840226D01*
X80834764Y-111696063D01*
X80665246Y-111582795D01*
X80626465Y-111566731D01*
X80787267Y-111459287D01*
X80959287Y-111287267D01*
X81094443Y-111084992D01*
X81187540Y-110860236D01*
X81235000Y-110621637D01*
X81235000Y-110378363D01*
X81187540Y-110139764D01*
X81094443Y-109915008D01*
X80959287Y-109712733D01*
X80787267Y-109540713D01*
X80726336Y-109500000D01*
X80787267Y-109459287D01*
X80959287Y-109287267D01*
X81094443Y-109084992D01*
X81187540Y-108860236D01*
X81235000Y-108621637D01*
X81235000Y-108378363D01*
X81187540Y-108139764D01*
X81094443Y-107915008D01*
X80959287Y-107712733D01*
X80787267Y-107540713D01*
X80726336Y-107500000D01*
X80787267Y-107459287D01*
X80959287Y-107287267D01*
X81094443Y-107084992D01*
X81187540Y-106860236D01*
X81235000Y-106621637D01*
X81235000Y-106378363D01*
X81187540Y-106139764D01*
X81094443Y-105915008D01*
X80959287Y-105712733D01*
X80787267Y-105540713D01*
X80726336Y-105500000D01*
X80787267Y-105459287D01*
X80959287Y-105287267D01*
X81094443Y-105084992D01*
X81187540Y-104860236D01*
X81235000Y-104621637D01*
X81235000Y-104378363D01*
X81187540Y-104139764D01*
X81094443Y-103915008D01*
X80959287Y-103712733D01*
X80787267Y-103540713D01*
X80726336Y-103500000D01*
X80787267Y-103459287D01*
X80959287Y-103287267D01*
X81094443Y-103084992D01*
X81187540Y-102860236D01*
X81235000Y-102621637D01*
X81235000Y-102500000D01*
X83009025Y-102500000D01*
X83032870Y-102742102D01*
X83103489Y-102974901D01*
X83218167Y-103189449D01*
X83372498Y-103377502D01*
X83521762Y-103500000D01*
X83372498Y-103622498D01*
X83218167Y-103810551D01*
X83103489Y-104025099D01*
X83032870Y-104257898D01*
X83009025Y-104500000D01*
X83032870Y-104742102D01*
X83103489Y-104974901D01*
X83218167Y-105189449D01*
X83372498Y-105377502D01*
X83521762Y-105500000D01*
X83372498Y-105622498D01*
X83218167Y-105810551D01*
X83103489Y-106025099D01*
X83032870Y-106257898D01*
X83009025Y-106500000D01*
X83032870Y-106742102D01*
X83103489Y-106974901D01*
X83218167Y-107189449D01*
X83372498Y-107377502D01*
X83521762Y-107500000D01*
X83372498Y-107622498D01*
X83218167Y-107810551D01*
X83103489Y-108025099D01*
X83032870Y-108257898D01*
X83009025Y-108500000D01*
X83032870Y-108742102D01*
X83103489Y-108974901D01*
X83218167Y-109189449D01*
X83372498Y-109377502D01*
X83521762Y-109500000D01*
X83372498Y-109622498D01*
X83218167Y-109810551D01*
X83103489Y-110025099D01*
X83032870Y-110257898D01*
X83009025Y-110500000D01*
X83032870Y-110742102D01*
X83103489Y-110974901D01*
X83218167Y-111189449D01*
X83344436Y-111343309D01*
X83295506Y-111369463D01*
X83198815Y-111448815D01*
X83119463Y-111545506D01*
X83060498Y-111655820D01*
X83024188Y-111775518D01*
X83011928Y-111900000D01*
X83015000Y-112214250D01*
X83173750Y-112373000D01*
X84373000Y-112373000D01*
X84373000Y-112353000D01*
X84627000Y-112353000D01*
X84627000Y-112373000D01*
X85826250Y-112373000D01*
X85985000Y-112214250D01*
X85988072Y-111900000D01*
X85975812Y-111775518D01*
X85939502Y-111655820D01*
X85880537Y-111545506D01*
X85801185Y-111448815D01*
X85704494Y-111369463D01*
X85655564Y-111343309D01*
X85781833Y-111189449D01*
X85896511Y-110974901D01*
X85967130Y-110742102D01*
X85990975Y-110500000D01*
X85967130Y-110257898D01*
X85896511Y-110025099D01*
X85781833Y-109810551D01*
X85627502Y-109622498D01*
X85478238Y-109500000D01*
X85627502Y-109377502D01*
X85781833Y-109189449D01*
X85896511Y-108974901D01*
X85967130Y-108742102D01*
X85990975Y-108500000D01*
X85967130Y-108257898D01*
X85896511Y-108025099D01*
X85781833Y-107810551D01*
X85627502Y-107622498D01*
X85478238Y-107500000D01*
X85627502Y-107377502D01*
X85781833Y-107189449D01*
X85896511Y-106974901D01*
X85967130Y-106742102D01*
X85990975Y-106500000D01*
X85967130Y-106257898D01*
X85896511Y-106025099D01*
X85781833Y-105810551D01*
X85627502Y-105622498D01*
X85478238Y-105500000D01*
X85627502Y-105377502D01*
X85781833Y-105189449D01*
X85896511Y-104974901D01*
X85967130Y-104742102D01*
X85990975Y-104500000D01*
X85967130Y-104257898D01*
X85896511Y-104025099D01*
X85781833Y-103810551D01*
X85627502Y-103622498D01*
X85478238Y-103500000D01*
X85627502Y-103377502D01*
X85781833Y-103189449D01*
X85896511Y-102974901D01*
X85967130Y-102742102D01*
X85990975Y-102500000D01*
X88509025Y-102500000D01*
X88532870Y-102742102D01*
X88603489Y-102974901D01*
X88718167Y-103189449D01*
X88872498Y-103377502D01*
X89021762Y-103500000D01*
X88872498Y-103622498D01*
X88718167Y-103810551D01*
X88603489Y-104025099D01*
X88532870Y-104257898D01*
X88509025Y-104500000D01*
X88532870Y-104742102D01*
X88603489Y-104974901D01*
X88718167Y-105189449D01*
X88872498Y-105377502D01*
X89021762Y-105500000D01*
X88872498Y-105622498D01*
X88718167Y-105810551D01*
X88603489Y-106025099D01*
X88532870Y-106257898D01*
X88509025Y-106500000D01*
X88532870Y-106742102D01*
X88603489Y-106974901D01*
X88718167Y-107189449D01*
X88872498Y-107377502D01*
X89021762Y-107500000D01*
X88872498Y-107622498D01*
X88718167Y-107810551D01*
X88603489Y-108025099D01*
X88532870Y-108257898D01*
X88509025Y-108500000D01*
X88532870Y-108742102D01*
X88603489Y-108974901D01*
X88718167Y-109189449D01*
X88872498Y-109377502D01*
X89021762Y-109500000D01*
X88872498Y-109622498D01*
X88718167Y-109810551D01*
X88603489Y-110025099D01*
X88532870Y-110257898D01*
X88509025Y-110500000D01*
X88532870Y-110742102D01*
X88603489Y-110974901D01*
X88718167Y-111189449D01*
X88844436Y-111343309D01*
X88795506Y-111369463D01*
X88698815Y-111448815D01*
X88619463Y-111545506D01*
X88560498Y-111655820D01*
X88524188Y-111775518D01*
X88511928Y-111900000D01*
X88515000Y-112214250D01*
X88673750Y-112373000D01*
X89873000Y-112373000D01*
X89873000Y-112353000D01*
X90127000Y-112353000D01*
X90127000Y-112373000D01*
X91326250Y-112373000D01*
X91485000Y-112214250D01*
X91488072Y-111900000D01*
X91475812Y-111775518D01*
X91439502Y-111655820D01*
X91380537Y-111545506D01*
X91301185Y-111448815D01*
X91204494Y-111369463D01*
X91155564Y-111343309D01*
X91281833Y-111189449D01*
X91396511Y-110974901D01*
X91467130Y-110742102D01*
X91490975Y-110500000D01*
X91467130Y-110257898D01*
X91396511Y-110025099D01*
X91281833Y-109810551D01*
X91127502Y-109622498D01*
X90978238Y-109500000D01*
X91127502Y-109377502D01*
X91281833Y-109189449D01*
X91396511Y-108974901D01*
X91467130Y-108742102D01*
X91490975Y-108500000D01*
X91467130Y-108257898D01*
X91419233Y-108100000D01*
X95011928Y-108100000D01*
X95024188Y-108224482D01*
X95060498Y-108344180D01*
X95119463Y-108454494D01*
X95198815Y-108551185D01*
X95295506Y-108630537D01*
X95405820Y-108689502D01*
X95525518Y-108725812D01*
X95650000Y-108738072D01*
X96214250Y-108735000D01*
X96373000Y-108576250D01*
X96373000Y-107627000D01*
X96627000Y-107627000D01*
X96627000Y-108576250D01*
X96785750Y-108735000D01*
X97350000Y-108738072D01*
X97474482Y-108725812D01*
X97594180Y-108689502D01*
X97704494Y-108630537D01*
X97801185Y-108551185D01*
X97880537Y-108454494D01*
X97939502Y-108344180D01*
X97975812Y-108224482D01*
X97988072Y-108100000D01*
X97985000Y-107785750D01*
X97826250Y-107627000D01*
X96627000Y-107627000D01*
X96373000Y-107627000D01*
X95173750Y-107627000D01*
X95015000Y-107785750D01*
X95011928Y-108100000D01*
X91419233Y-108100000D01*
X91396511Y-108025099D01*
X91281833Y-107810551D01*
X91127502Y-107622498D01*
X90978238Y-107500000D01*
X91127502Y-107377502D01*
X91281833Y-107189449D01*
X91396511Y-106974901D01*
X91467130Y-106742102D01*
X91490975Y-106500000D01*
X91467130Y-106257898D01*
X91396511Y-106025099D01*
X91281833Y-105810551D01*
X91127502Y-105622498D01*
X90978238Y-105500000D01*
X95009025Y-105500000D01*
X95032870Y-105742102D01*
X95103489Y-105974901D01*
X95218167Y-106189449D01*
X95344436Y-106343309D01*
X95295506Y-106369463D01*
X95198815Y-106448815D01*
X95119463Y-106545506D01*
X95060498Y-106655820D01*
X95024188Y-106775518D01*
X95011928Y-106900000D01*
X95015000Y-107214250D01*
X95173750Y-107373000D01*
X96373000Y-107373000D01*
X96373000Y-107353000D01*
X96627000Y-107353000D01*
X96627000Y-107373000D01*
X97826250Y-107373000D01*
X97985000Y-107214250D01*
X97988072Y-106900000D01*
X97975812Y-106775518D01*
X97939502Y-106655820D01*
X97880537Y-106545506D01*
X97801185Y-106448815D01*
X97704494Y-106369463D01*
X97655564Y-106343309D01*
X97781833Y-106189449D01*
X97896511Y-105974901D01*
X97967130Y-105742102D01*
X97990975Y-105500000D01*
X97967130Y-105257898D01*
X97896511Y-105025099D01*
X97781833Y-104810551D01*
X97627502Y-104622498D01*
X97439449Y-104468167D01*
X97224901Y-104353489D01*
X96992102Y-104282870D01*
X96810665Y-104265000D01*
X96189335Y-104265000D01*
X96007898Y-104282870D01*
X95775099Y-104353489D01*
X95560551Y-104468167D01*
X95372498Y-104622498D01*
X95218167Y-104810551D01*
X95103489Y-105025099D01*
X95032870Y-105257898D01*
X95009025Y-105500000D01*
X90978238Y-105500000D01*
X91127502Y-105377502D01*
X91281833Y-105189449D01*
X91396511Y-104974901D01*
X91467130Y-104742102D01*
X91490975Y-104500000D01*
X91467130Y-104257898D01*
X91396511Y-104025099D01*
X91281833Y-103810551D01*
X91127502Y-103622498D01*
X90978238Y-103500000D01*
X91127502Y-103377502D01*
X91281833Y-103189449D01*
X91396511Y-102974901D01*
X91467130Y-102742102D01*
X91490975Y-102500000D01*
X91467130Y-102257898D01*
X91396511Y-102025099D01*
X91281833Y-101810551D01*
X91127502Y-101622498D01*
X90939449Y-101468167D01*
X90724901Y-101353489D01*
X90492102Y-101282870D01*
X90310665Y-101265000D01*
X89689335Y-101265000D01*
X89507898Y-101282870D01*
X89275099Y-101353489D01*
X89060551Y-101468167D01*
X88872498Y-101622498D01*
X88718167Y-101810551D01*
X88603489Y-102025099D01*
X88532870Y-102257898D01*
X88509025Y-102500000D01*
X85990975Y-102500000D01*
X85967130Y-102257898D01*
X85896511Y-102025099D01*
X85781833Y-101810551D01*
X85627502Y-101622498D01*
X85439449Y-101468167D01*
X85224901Y-101353489D01*
X84992102Y-101282870D01*
X84810665Y-101265000D01*
X84189335Y-101265000D01*
X84007898Y-101282870D01*
X83775099Y-101353489D01*
X83560551Y-101468167D01*
X83372498Y-101622498D01*
X83218167Y-101810551D01*
X83103489Y-102025099D01*
X83032870Y-102257898D01*
X83009025Y-102500000D01*
X81235000Y-102500000D01*
X81235000Y-102378363D01*
X81187540Y-102139764D01*
X81094443Y-101915008D01*
X80959287Y-101712733D01*
X80787267Y-101540713D01*
X80584992Y-101405557D01*
X80360236Y-101312460D01*
X80121637Y-101265000D01*
X79878363Y-101265000D01*
X79639764Y-101312460D01*
X79415008Y-101405557D01*
X79212733Y-101540713D01*
X79040713Y-101712733D01*
X79000000Y-101773664D01*
X78959287Y-101712733D01*
X78787267Y-101540713D01*
X78584992Y-101405557D01*
X78360236Y-101312460D01*
X78121637Y-101265000D01*
X77878363Y-101265000D01*
X77639764Y-101312460D01*
X77415008Y-101405557D01*
X77212733Y-101540713D01*
X77040713Y-101712733D01*
X76905557Y-101915008D01*
X76812460Y-102139764D01*
X76765000Y-102378363D01*
X76765000Y-102621637D01*
X76812460Y-102860236D01*
X76905557Y-103084992D01*
X77040713Y-103287267D01*
X77212733Y-103459287D01*
X77273664Y-103500000D01*
X77212733Y-103540713D01*
X77040713Y-103712733D01*
X76905557Y-103915008D01*
X76812460Y-104139764D01*
X76765000Y-104378363D01*
X76765000Y-104621637D01*
X76812460Y-104860236D01*
X76905557Y-105084992D01*
X77040713Y-105287267D01*
X77212733Y-105459287D01*
X77273664Y-105500000D01*
X77212733Y-105540713D01*
X77040713Y-105712733D01*
X76905557Y-105915008D01*
X76812460Y-106139764D01*
X76765000Y-106378363D01*
X76765000Y-106621637D01*
X76812460Y-106860236D01*
X76905557Y-107084992D01*
X77040713Y-107287267D01*
X77212733Y-107459287D01*
X77273664Y-107500000D01*
X77212733Y-107540713D01*
X77040713Y-107712733D01*
X76905557Y-107915008D01*
X76812460Y-108139764D01*
X76765000Y-108378363D01*
X76765000Y-108621637D01*
X76812460Y-108860236D01*
X76905557Y-109084992D01*
X77040713Y-109287267D01*
X77095947Y-109342501D01*
X77045506Y-109369463D01*
X76948815Y-109448815D01*
X76869463Y-109545506D01*
X76810498Y-109655820D01*
X76774188Y-109775518D01*
X76761928Y-109900000D01*
X70577378Y-109900000D01*
X70570557Y-109894403D01*
X70548601Y-109882667D01*
X70524776Y-109875440D01*
X70500000Y-109873000D01*
X67530015Y-109873000D01*
X67495226Y-109698102D01*
X67417205Y-109509744D01*
X67303937Y-109340226D01*
X67237425Y-109273714D01*
X67311835Y-109199304D01*
X67425103Y-109029786D01*
X67503124Y-108841428D01*
X67542898Y-108641469D01*
X67542898Y-108437591D01*
X67503124Y-108237632D01*
X67425103Y-108049274D01*
X67419972Y-108041595D01*
X68465000Y-108041595D01*
X68465000Y-108245473D01*
X68504774Y-108445432D01*
X68582795Y-108633790D01*
X68696063Y-108803308D01*
X68840226Y-108947471D01*
X69009744Y-109060739D01*
X69198102Y-109138760D01*
X69398061Y-109178534D01*
X69601939Y-109178534D01*
X69801898Y-109138760D01*
X69990256Y-109060739D01*
X70159774Y-108947471D01*
X70303937Y-108803308D01*
X70417205Y-108633790D01*
X70495226Y-108445432D01*
X70535000Y-108245473D01*
X70535000Y-108041595D01*
X70495226Y-107841636D01*
X70417205Y-107653278D01*
X70303937Y-107483760D01*
X70159774Y-107339597D01*
X69990256Y-107226329D01*
X69801898Y-107148308D01*
X69601939Y-107108534D01*
X69398061Y-107108534D01*
X69198102Y-107148308D01*
X69009744Y-107226329D01*
X68840226Y-107339597D01*
X68696063Y-107483760D01*
X68582795Y-107653278D01*
X68504774Y-107841636D01*
X68465000Y-108041595D01*
X67419972Y-108041595D01*
X67403598Y-108017090D01*
X67475968Y-107908780D01*
X67553989Y-107720422D01*
X67593763Y-107520463D01*
X67593763Y-107316585D01*
X67553989Y-107116626D01*
X67475968Y-106928268D01*
X67407454Y-106825730D01*
X67432677Y-106787981D01*
X67510698Y-106599623D01*
X67550472Y-106399664D01*
X67550472Y-106195786D01*
X67510698Y-105995827D01*
X67432677Y-105807469D01*
X67319409Y-105637951D01*
X67307111Y-105625653D01*
X67360123Y-105572640D01*
X67473391Y-105403122D01*
X67551412Y-105214764D01*
X67591186Y-105014805D01*
X67591186Y-104810927D01*
X67551412Y-104610968D01*
X67546066Y-104598061D01*
X71065000Y-104598061D01*
X71065000Y-104801939D01*
X71104774Y-105001898D01*
X71180764Y-105185352D01*
X71154772Y-105248102D01*
X71114998Y-105448061D01*
X71114998Y-105651939D01*
X71154772Y-105851898D01*
X71232793Y-106040256D01*
X71346061Y-106209774D01*
X71490224Y-106353937D01*
X71659742Y-106467205D01*
X71848100Y-106545226D01*
X72048059Y-106585000D01*
X72251937Y-106585000D01*
X72451896Y-106545226D01*
X72640254Y-106467205D01*
X72809772Y-106353937D01*
X72953935Y-106209774D01*
X73067203Y-106040256D01*
X73145224Y-105851898D01*
X73184998Y-105651939D01*
X73184998Y-105448061D01*
X73145224Y-105248102D01*
X73069234Y-105064648D01*
X73095226Y-105001898D01*
X73135000Y-104801939D01*
X73135000Y-104598061D01*
X73095226Y-104398102D01*
X73017205Y-104209744D01*
X72903937Y-104040226D01*
X72759774Y-103896063D01*
X72590256Y-103782795D01*
X72401898Y-103704774D01*
X72201939Y-103665000D01*
X71998061Y-103665000D01*
X71798102Y-103704774D01*
X71609744Y-103782795D01*
X71440226Y-103896063D01*
X71296063Y-104040226D01*
X71182795Y-104209744D01*
X71104774Y-104398102D01*
X71065000Y-104598061D01*
X67546066Y-104598061D01*
X67473391Y-104422610D01*
X67360123Y-104253092D01*
X67215960Y-104108929D01*
X67046442Y-103995661D01*
X66858084Y-103917640D01*
X66658125Y-103877866D01*
X66454247Y-103877866D01*
X66254288Y-103917640D01*
X66065930Y-103995661D01*
X65896412Y-104108929D01*
X65752249Y-104253092D01*
X65638981Y-104422610D01*
X65560960Y-104610968D01*
X65521186Y-104810927D01*
X65521186Y-105014805D01*
X65560960Y-105214764D01*
X65638981Y-105403122D01*
X65752249Y-105572640D01*
X65764548Y-105584939D01*
X65711535Y-105637951D01*
X65598267Y-105807469D01*
X65520246Y-105995827D01*
X65480472Y-106195786D01*
X65480472Y-106399664D01*
X65520246Y-106599623D01*
X65598267Y-106787981D01*
X65666781Y-106890519D01*
X65641558Y-106928268D01*
X65563537Y-107116626D01*
X65523763Y-107316585D01*
X65523763Y-107520463D01*
X65563537Y-107720422D01*
X65641558Y-107908780D01*
X65663063Y-107940964D01*
X65590693Y-108049274D01*
X65512672Y-108237632D01*
X65472898Y-108437591D01*
X65472898Y-108641469D01*
X65512672Y-108841428D01*
X65590693Y-109029786D01*
X65703961Y-109199304D01*
X65770473Y-109265816D01*
X65696063Y-109340226D01*
X65582795Y-109509744D01*
X65504774Y-109698102D01*
X65465000Y-109898061D01*
X53627000Y-109898061D01*
X53627000Y-104556414D01*
X53696063Y-104659774D01*
X53840226Y-104803937D01*
X54009744Y-104917205D01*
X54198102Y-104995226D01*
X54398061Y-105035000D01*
X54601939Y-105035000D01*
X54801898Y-104995226D01*
X54990256Y-104917205D01*
X55159774Y-104803937D01*
X55303937Y-104659774D01*
X55417205Y-104490256D01*
X55495226Y-104301898D01*
X55535000Y-104101939D01*
X55535000Y-103898061D01*
X55495226Y-103698102D01*
X55417205Y-103509744D01*
X55303937Y-103340226D01*
X55159774Y-103196063D01*
X54990256Y-103082795D01*
X54801898Y-103004774D01*
X54601939Y-102965000D01*
X54398061Y-102965000D01*
X54198102Y-103004774D01*
X54009744Y-103082795D01*
X53840226Y-103196063D01*
X53696063Y-103340226D01*
X53627000Y-103443586D01*
X53627000Y-102376966D01*
X56318819Y-102376966D01*
X56318819Y-102580844D01*
X56358593Y-102780803D01*
X56436614Y-102969161D01*
X56549882Y-103138679D01*
X56694045Y-103282842D01*
X56863563Y-103396110D01*
X57051921Y-103474131D01*
X57251880Y-103513905D01*
X57455758Y-103513905D01*
X57655717Y-103474131D01*
X57844075Y-103396110D01*
X57995003Y-103295264D01*
X57995800Y-103296061D01*
X58165318Y-103409329D01*
X58353676Y-103487350D01*
X58553635Y-103527124D01*
X58757513Y-103527124D01*
X58957472Y-103487350D01*
X59145830Y-103409329D01*
X59280574Y-103319296D01*
X59415318Y-103409329D01*
X59603676Y-103487350D01*
X59803635Y-103527124D01*
X60007513Y-103527124D01*
X60207472Y-103487350D01*
X60395830Y-103409329D01*
X60559072Y-103300255D01*
X60715508Y-103404782D01*
X60903866Y-103482803D01*
X61103825Y-103522577D01*
X61307703Y-103522577D01*
X61507662Y-103482803D01*
X61696020Y-103404782D01*
X61830764Y-103314749D01*
X61965508Y-103404782D01*
X62153866Y-103482803D01*
X62353825Y-103522577D01*
X62557703Y-103522577D01*
X62757662Y-103482803D01*
X62946020Y-103404782D01*
X63115538Y-103291514D01*
X63229951Y-103177101D01*
X63254774Y-103301898D01*
X63332795Y-103490256D01*
X63446063Y-103659774D01*
X63590226Y-103803937D01*
X63759744Y-103917205D01*
X63948102Y-103995226D01*
X64148061Y-104035000D01*
X64351939Y-104035000D01*
X64551898Y-103995226D01*
X64740256Y-103917205D01*
X64909774Y-103803937D01*
X65053937Y-103659774D01*
X65167205Y-103490256D01*
X65245226Y-103301898D01*
X65285000Y-103101939D01*
X65285000Y-102898061D01*
X65245226Y-102698102D01*
X65167205Y-102509744D01*
X65053937Y-102340226D01*
X64909774Y-102196063D01*
X64740256Y-102082795D01*
X64551898Y-102004774D01*
X64351939Y-101965000D01*
X64148061Y-101965000D01*
X63948102Y-102004774D01*
X63759744Y-102082795D01*
X63590226Y-102196063D01*
X63475813Y-102310476D01*
X63450990Y-102185679D01*
X63372969Y-101997321D01*
X63259701Y-101827803D01*
X63115538Y-101683640D01*
X62946020Y-101570372D01*
X62757662Y-101492351D01*
X62557703Y-101452577D01*
X62353825Y-101452577D01*
X62153866Y-101492351D01*
X61965508Y-101570372D01*
X61830764Y-101660405D01*
X61696020Y-101570372D01*
X61507662Y-101492351D01*
X61307703Y-101452577D01*
X61103825Y-101452577D01*
X60903866Y-101492351D01*
X60715508Y-101570372D01*
X60552266Y-101679446D01*
X60395830Y-101574919D01*
X60207472Y-101496898D01*
X60007513Y-101457124D01*
X59803635Y-101457124D01*
X59603676Y-101496898D01*
X59415318Y-101574919D01*
X59280574Y-101664952D01*
X59145830Y-101574919D01*
X58957472Y-101496898D01*
X58757513Y-101457124D01*
X58553635Y-101457124D01*
X58353676Y-101496898D01*
X58165318Y-101574919D01*
X58014390Y-101675765D01*
X58013593Y-101674968D01*
X57844075Y-101561700D01*
X57655717Y-101483679D01*
X57455758Y-101443905D01*
X57251880Y-101443905D01*
X57051921Y-101483679D01*
X56863563Y-101561700D01*
X56694045Y-101674968D01*
X56549882Y-101819131D01*
X56436614Y-101988649D01*
X56358593Y-102177007D01*
X56318819Y-102376966D01*
X53627000Y-102376966D01*
X53627000Y-101000000D01*
X53624560Y-100975224D01*
X53617333Y-100951399D01*
X53605597Y-100929443D01*
X53589803Y-100910197D01*
X53570557Y-100894403D01*
X53548601Y-100882667D01*
X53524776Y-100875440D01*
X53500000Y-100873000D01*
X50710000Y-100873000D01*
X50710000Y-100167412D01*
X50873898Y-100217130D01*
X51055335Y-100235000D01*
X51876665Y-100235000D01*
X52058102Y-100217130D01*
X52290901Y-100146511D01*
X52505449Y-100031833D01*
X52693502Y-99877502D01*
X52847833Y-99689449D01*
X52962511Y-99474901D01*
X53033130Y-99242102D01*
X53056975Y-99000000D01*
X53033130Y-98757898D01*
X53030117Y-98747965D01*
X53109619Y-98866949D01*
X53299051Y-99056381D01*
X53521799Y-99205216D01*
X53769303Y-99307736D01*
X54032052Y-99360000D01*
X54299948Y-99360000D01*
X54562697Y-99307736D01*
X54810201Y-99205216D01*
X55032949Y-99056381D01*
X55191269Y-98898061D01*
X55465000Y-98898061D01*
X55465000Y-99101939D01*
X55504774Y-99301898D01*
X55582795Y-99490256D01*
X55696063Y-99659774D01*
X55840226Y-99803937D01*
X56009744Y-99917205D01*
X56198102Y-99995226D01*
X56398061Y-100035000D01*
X56601939Y-100035000D01*
X56801898Y-99995226D01*
X56990256Y-99917205D01*
X57149995Y-99810471D01*
X57309733Y-99917205D01*
X57498091Y-99995226D01*
X57698050Y-100035000D01*
X57901928Y-100035000D01*
X58101887Y-99995226D01*
X58290245Y-99917205D01*
X58459763Y-99803937D01*
X58524995Y-99738706D01*
X58590226Y-99803937D01*
X58759744Y-99917205D01*
X58948102Y-99995226D01*
X59148061Y-100035000D01*
X59351939Y-100035000D01*
X59551898Y-99995226D01*
X59740256Y-99917205D01*
X59898908Y-99811197D01*
X59958439Y-99850974D01*
X60146797Y-99928995D01*
X60346756Y-99968769D01*
X60550634Y-99968769D01*
X60750593Y-99928995D01*
X60938951Y-99850974D01*
X61108469Y-99737706D01*
X61252632Y-99593543D01*
X61365900Y-99424025D01*
X61443921Y-99235667D01*
X61483695Y-99035708D01*
X61483695Y-98831830D01*
X61443921Y-98631871D01*
X61365900Y-98443513D01*
X61252632Y-98273995D01*
X61108469Y-98129832D01*
X60938951Y-98016564D01*
X60750593Y-97938543D01*
X60550634Y-97898769D01*
X60346756Y-97898769D01*
X60146797Y-97938543D01*
X59958439Y-98016564D01*
X59799787Y-98122572D01*
X59740256Y-98082795D01*
X59551898Y-98004774D01*
X59351939Y-97965000D01*
X59148061Y-97965000D01*
X58948102Y-98004774D01*
X58759744Y-98082795D01*
X58590226Y-98196063D01*
X58524995Y-98261295D01*
X58459763Y-98196063D01*
X58290245Y-98082795D01*
X58101887Y-98004774D01*
X57901928Y-97965000D01*
X57698050Y-97965000D01*
X57498091Y-98004774D01*
X57309733Y-98082795D01*
X57149995Y-98189529D01*
X56990256Y-98082795D01*
X56801898Y-98004774D01*
X56601939Y-97965000D01*
X56398061Y-97965000D01*
X56198102Y-98004774D01*
X56009744Y-98082795D01*
X55840226Y-98196063D01*
X55696063Y-98340226D01*
X55582795Y-98509744D01*
X55504774Y-98698102D01*
X55465000Y-98898061D01*
X55191269Y-98898061D01*
X55222381Y-98866949D01*
X55371216Y-98644201D01*
X55473736Y-98396697D01*
X55526000Y-98133948D01*
X55526000Y-97898061D01*
X87465000Y-97898061D01*
X87465000Y-98101939D01*
X87504774Y-98301898D01*
X87582795Y-98490256D01*
X87696063Y-98659774D01*
X87840226Y-98803937D01*
X88009744Y-98917205D01*
X88198102Y-98995226D01*
X88398061Y-99035000D01*
X88601939Y-99035000D01*
X88801898Y-98995226D01*
X88990256Y-98917205D01*
X89159774Y-98803937D01*
X89303937Y-98659774D01*
X89417205Y-98490256D01*
X89495226Y-98301898D01*
X89535000Y-98101939D01*
X89535000Y-97898061D01*
X89495226Y-97698102D01*
X89417205Y-97509744D01*
X89303937Y-97340226D01*
X89159774Y-97196063D01*
X88990256Y-97082795D01*
X88801898Y-97004774D01*
X88601939Y-96965000D01*
X88398061Y-96965000D01*
X88198102Y-97004774D01*
X88009744Y-97082795D01*
X87840226Y-97196063D01*
X87696063Y-97340226D01*
X87582795Y-97509744D01*
X87504774Y-97698102D01*
X87465000Y-97898061D01*
X55526000Y-97898061D01*
X55526000Y-97866052D01*
X55473736Y-97603303D01*
X55371216Y-97355799D01*
X55222381Y-97133051D01*
X55032949Y-96943619D01*
X54810201Y-96794784D01*
X54562697Y-96692264D01*
X54299948Y-96640000D01*
X54032052Y-96640000D01*
X53769303Y-96692264D01*
X53521799Y-96794784D01*
X53299051Y-96943619D01*
X53109619Y-97133051D01*
X52960784Y-97355799D01*
X52858264Y-97603303D01*
X52806000Y-97866052D01*
X52806000Y-98133948D01*
X52838984Y-98299768D01*
X52693502Y-98122498D01*
X52505449Y-97968167D01*
X52290901Y-97853489D01*
X52058102Y-97782870D01*
X51876665Y-97765000D01*
X51055335Y-97765000D01*
X50873898Y-97782870D01*
X50710000Y-97832588D01*
X50710000Y-93167412D01*
X50873898Y-93217130D01*
X51055335Y-93235000D01*
X51876665Y-93235000D01*
X52058102Y-93217130D01*
X52290901Y-93146511D01*
X52505449Y-93031833D01*
X52693502Y-92877502D01*
X52838984Y-92700232D01*
X52806000Y-92866052D01*
X52806000Y-93133948D01*
X52858264Y-93396697D01*
X52960784Y-93644201D01*
X53109619Y-93866949D01*
X53299051Y-94056381D01*
X53521799Y-94205216D01*
X53769303Y-94307736D01*
X54032052Y-94360000D01*
X54299948Y-94360000D01*
X54562697Y-94307736D01*
X54810201Y-94205216D01*
X54911339Y-94137638D01*
X54994176Y-94337624D01*
X55118388Y-94523520D01*
X55276480Y-94681612D01*
X55462376Y-94805824D01*
X55668933Y-94891383D01*
X55888212Y-94935000D01*
X56111788Y-94935000D01*
X56331067Y-94891383D01*
X56537624Y-94805824D01*
X56723520Y-94681612D01*
X56881612Y-94523520D01*
X56970023Y-94391204D01*
X57038388Y-94493520D01*
X57196480Y-94651612D01*
X57382376Y-94775824D01*
X57588933Y-94861383D01*
X57808212Y-94905000D01*
X58031788Y-94905000D01*
X58251067Y-94861383D01*
X58457624Y-94775824D01*
X58555000Y-94710759D01*
X58652376Y-94775824D01*
X58858933Y-94861383D01*
X59078212Y-94905000D01*
X59301788Y-94905000D01*
X59521067Y-94861383D01*
X59727624Y-94775824D01*
X59825000Y-94710759D01*
X59922376Y-94775824D01*
X60128933Y-94861383D01*
X60348212Y-94905000D01*
X60571788Y-94905000D01*
X60791067Y-94861383D01*
X60997624Y-94775824D01*
X61095000Y-94710759D01*
X61192376Y-94775824D01*
X61398933Y-94861383D01*
X61618212Y-94905000D01*
X61841788Y-94905000D01*
X62061067Y-94861383D01*
X62267624Y-94775824D01*
X62365000Y-94710759D01*
X62462376Y-94775824D01*
X62487264Y-94786133D01*
X62465000Y-94898061D01*
X62465000Y-95101939D01*
X62504774Y-95301898D01*
X62582795Y-95490256D01*
X62696063Y-95659774D01*
X62840226Y-95803937D01*
X63009744Y-95917205D01*
X63198102Y-95995226D01*
X63398061Y-96035000D01*
X63601939Y-96035000D01*
X63724164Y-96010688D01*
X63658617Y-96168933D01*
X63615000Y-96388212D01*
X63615000Y-96611788D01*
X63658617Y-96831067D01*
X63744176Y-97037624D01*
X63868388Y-97223520D01*
X64026480Y-97381612D01*
X64212376Y-97505824D01*
X64418933Y-97591383D01*
X64638212Y-97635000D01*
X64861788Y-97635000D01*
X65081067Y-97591383D01*
X65287624Y-97505824D01*
X65473520Y-97381612D01*
X65631612Y-97223520D01*
X65755824Y-97037624D01*
X65841383Y-96831067D01*
X65885000Y-96611788D01*
X65885000Y-96388212D01*
X65841383Y-96168933D01*
X65788585Y-96041467D01*
X75735500Y-96041467D01*
X75735500Y-96363533D01*
X75798332Y-96679412D01*
X75921582Y-96976963D01*
X76100513Y-97244752D01*
X76328248Y-97472487D01*
X76596037Y-97651418D01*
X76893588Y-97774668D01*
X77209467Y-97837500D01*
X77531533Y-97837500D01*
X77847412Y-97774668D01*
X78144963Y-97651418D01*
X78412752Y-97472487D01*
X78599199Y-97286040D01*
X78814457Y-97429871D01*
X79066511Y-97534275D01*
X79334089Y-97587500D01*
X79606911Y-97587500D01*
X79874489Y-97534275D01*
X80126543Y-97429871D01*
X80353386Y-97278299D01*
X80470500Y-97161185D01*
X80587614Y-97278299D01*
X80814457Y-97429871D01*
X81066511Y-97534275D01*
X81334089Y-97587500D01*
X81606911Y-97587500D01*
X81874489Y-97534275D01*
X82126543Y-97429871D01*
X82353386Y-97278299D01*
X82546299Y-97085386D01*
X82697871Y-96858543D01*
X82742432Y-96750963D01*
X83290895Y-96202500D01*
X82742432Y-95654037D01*
X82697871Y-95546457D01*
X82546299Y-95319614D01*
X82472192Y-95245507D01*
X82693112Y-95245507D01*
X83470500Y-96022895D01*
X83484643Y-96008753D01*
X83664248Y-96188358D01*
X83650105Y-96202500D01*
X83664248Y-96216643D01*
X83484643Y-96396248D01*
X83470500Y-96382105D01*
X82693112Y-97159493D01*
X82758637Y-97398360D01*
X83005616Y-97514260D01*
X83270460Y-97579750D01*
X83542992Y-97592312D01*
X83812738Y-97551465D01*
X84069332Y-97458777D01*
X84182363Y-97398360D01*
X84246624Y-97164101D01*
X84300513Y-97244752D01*
X84528248Y-97472487D01*
X84796037Y-97651418D01*
X85093588Y-97774668D01*
X85409467Y-97837500D01*
X85731533Y-97837500D01*
X86047412Y-97774668D01*
X86344963Y-97651418D01*
X86612752Y-97472487D01*
X86840487Y-97244752D01*
X87019418Y-96976963D01*
X87142668Y-96679412D01*
X87205500Y-96363533D01*
X87205500Y-96041467D01*
X87142668Y-95725588D01*
X87019418Y-95428037D01*
X86840487Y-95160248D01*
X86612752Y-94932513D01*
X86344963Y-94753582D01*
X86047412Y-94630332D01*
X85731533Y-94567500D01*
X85409467Y-94567500D01*
X85093588Y-94630332D01*
X84796037Y-94753582D01*
X84528248Y-94932513D01*
X84300513Y-95160248D01*
X84246624Y-95240899D01*
X84182363Y-95006640D01*
X83935384Y-94890740D01*
X83670540Y-94825250D01*
X83398008Y-94812688D01*
X83128262Y-94853535D01*
X82871668Y-94946223D01*
X82758637Y-95006640D01*
X82693112Y-95245507D01*
X82472192Y-95245507D01*
X82353386Y-95126701D01*
X82126543Y-94975129D01*
X81874489Y-94870725D01*
X81606911Y-94817500D01*
X81334089Y-94817500D01*
X81066511Y-94870725D01*
X80814457Y-94975129D01*
X80587614Y-95126701D01*
X80470500Y-95243815D01*
X80353386Y-95126701D01*
X80126543Y-94975129D01*
X79874489Y-94870725D01*
X79606911Y-94817500D01*
X79334089Y-94817500D01*
X79066511Y-94870725D01*
X78814457Y-94975129D01*
X78599199Y-95118960D01*
X78412752Y-94932513D01*
X78144963Y-94753582D01*
X77847412Y-94630332D01*
X77531533Y-94567500D01*
X77209467Y-94567500D01*
X76893588Y-94630332D01*
X76596037Y-94753582D01*
X76328248Y-94932513D01*
X76100513Y-95160248D01*
X75921582Y-95428037D01*
X75798332Y-95725588D01*
X75735500Y-96041467D01*
X65788585Y-96041467D01*
X65755824Y-95962376D01*
X65631612Y-95776480D01*
X65473520Y-95618388D01*
X65287624Y-95494176D01*
X65081067Y-95408617D01*
X64861788Y-95365000D01*
X64638212Y-95365000D01*
X64453902Y-95401661D01*
X64495226Y-95301898D01*
X64535000Y-95101939D01*
X64535000Y-94898061D01*
X64495226Y-94698102D01*
X64417205Y-94509744D01*
X64303937Y-94340226D01*
X64159774Y-94196063D01*
X64075389Y-94139679D01*
X64091383Y-94101067D01*
X64114365Y-93985524D01*
X69983000Y-93985524D01*
X69983000Y-94184476D01*
X70021814Y-94379606D01*
X70097950Y-94563414D01*
X70208482Y-94728837D01*
X70349163Y-94869518D01*
X70514586Y-94980050D01*
X70698394Y-95056186D01*
X70893524Y-95095000D01*
X71092476Y-95095000D01*
X71287606Y-95056186D01*
X71471414Y-94980050D01*
X71636837Y-94869518D01*
X71777518Y-94728837D01*
X71888050Y-94563414D01*
X71964186Y-94379606D01*
X72003000Y-94184476D01*
X72003000Y-93985524D01*
X71964186Y-93790394D01*
X71888050Y-93606586D01*
X71777518Y-93441163D01*
X71636837Y-93300482D01*
X71471414Y-93189950D01*
X71287606Y-93113814D01*
X71092476Y-93075000D01*
X70893524Y-93075000D01*
X70698394Y-93113814D01*
X70514586Y-93189950D01*
X70349163Y-93300482D01*
X70208482Y-93441163D01*
X70097950Y-93606586D01*
X70021814Y-93790394D01*
X69983000Y-93985524D01*
X64114365Y-93985524D01*
X64135000Y-93881788D01*
X64135000Y-93658212D01*
X64091383Y-93438933D01*
X64045112Y-93327226D01*
X64089502Y-93244180D01*
X64125812Y-93124482D01*
X64138072Y-93000000D01*
X64138072Y-92000000D01*
X64125812Y-91875518D01*
X64089502Y-91755820D01*
X64030537Y-91645506D01*
X63951185Y-91548815D01*
X63854494Y-91469463D01*
X63744180Y-91410498D01*
X63624482Y-91374188D01*
X63500000Y-91361928D01*
X62500000Y-91361928D01*
X62375518Y-91374188D01*
X62255820Y-91410498D01*
X62166820Y-91458070D01*
X62086864Y-91422554D01*
X62031874Y-91405881D01*
X61857000Y-91532046D01*
X61857000Y-92373000D01*
X61861928Y-92373000D01*
X61861928Y-92627000D01*
X61857000Y-92627000D01*
X61857000Y-92638026D01*
X61841788Y-92635000D01*
X61618212Y-92635000D01*
X61603000Y-92638026D01*
X61603000Y-92627000D01*
X60587000Y-92627000D01*
X60587000Y-92638026D01*
X60571788Y-92635000D01*
X60348212Y-92635000D01*
X60333000Y-92638026D01*
X60333000Y-92627000D01*
X60321974Y-92627000D01*
X60325000Y-92611788D01*
X60325000Y-92388212D01*
X60321974Y-92373000D01*
X60333000Y-92373000D01*
X60333000Y-91532046D01*
X60587000Y-91532046D01*
X60587000Y-92373000D01*
X61603000Y-92373000D01*
X61603000Y-91532046D01*
X61428126Y-91405881D01*
X61373136Y-91422554D01*
X61169794Y-91512877D01*
X61095000Y-91565639D01*
X61020206Y-91512877D01*
X60816864Y-91422554D01*
X60761874Y-91405881D01*
X60587000Y-91532046D01*
X60333000Y-91532046D01*
X60158126Y-91405881D01*
X60103136Y-91422554D01*
X59899794Y-91512877D01*
X59829658Y-91562353D01*
X59727624Y-91494176D01*
X59521067Y-91408617D01*
X59301788Y-91365000D01*
X59078212Y-91365000D01*
X58858933Y-91408617D01*
X58652376Y-91494176D01*
X58550342Y-91562353D01*
X58480206Y-91512877D01*
X58276864Y-91422554D01*
X58221874Y-91405881D01*
X58047000Y-91532046D01*
X58047000Y-92373000D01*
X58058026Y-92373000D01*
X58055000Y-92388212D01*
X58055000Y-92611788D01*
X58058026Y-92627000D01*
X58047000Y-92627000D01*
X58047000Y-92638026D01*
X58031788Y-92635000D01*
X57808212Y-92635000D01*
X57793000Y-92638026D01*
X57793000Y-92627000D01*
X56950871Y-92627000D01*
X56825874Y-92801876D01*
X56905790Y-93009529D01*
X56982256Y-93130488D01*
X56949977Y-93178796D01*
X56881612Y-93076480D01*
X56723520Y-92918388D01*
X56537624Y-92794176D01*
X56331067Y-92708617D01*
X56111788Y-92665000D01*
X55888212Y-92665000D01*
X55668933Y-92708617D01*
X55507948Y-92775299D01*
X55473736Y-92603303D01*
X55371216Y-92355799D01*
X55265862Y-92198124D01*
X56825874Y-92198124D01*
X56950871Y-92373000D01*
X57793000Y-92373000D01*
X57793000Y-91532046D01*
X57618126Y-91405881D01*
X57563136Y-91422554D01*
X57359794Y-91512877D01*
X57177980Y-91641135D01*
X57024682Y-91802399D01*
X56905790Y-91990471D01*
X56825874Y-92198124D01*
X55265862Y-92198124D01*
X55222381Y-92133051D01*
X55032949Y-91943619D01*
X54810201Y-91794784D01*
X54562697Y-91692264D01*
X54299948Y-91640000D01*
X54032052Y-91640000D01*
X53769303Y-91692264D01*
X53521799Y-91794784D01*
X53299051Y-91943619D01*
X53109619Y-92133051D01*
X53030117Y-92252035D01*
X53033130Y-92242102D01*
X53056975Y-92000000D01*
X53033130Y-91757898D01*
X52962511Y-91525099D01*
X52847833Y-91310551D01*
X52693502Y-91122498D01*
X52505449Y-90968167D01*
X52290901Y-90853489D01*
X52058102Y-90782870D01*
X51876665Y-90765000D01*
X51227058Y-90765000D01*
X51341833Y-90729471D01*
X51527092Y-90710000D01*
X70195896Y-90710000D01*
X70097950Y-90856586D01*
G36*
X72913583Y-113593065D02*
G01*
X72933399Y-113608136D01*
X72955775Y-113619051D01*
X72979851Y-113625391D01*
X73000000Y-113627000D01*
X76373000Y-113627000D01*
X76373000Y-116373000D01*
X75000000Y-116373000D01*
X74975224Y-116375440D01*
X74951399Y-116382667D01*
X74929443Y-116394403D01*
X74910197Y-116410197D01*
X74894403Y-116429443D01*
X74882667Y-116451399D01*
X74875440Y-116475224D01*
X74873000Y-116500000D01*
X74873000Y-121373000D01*
X69127000Y-121373000D01*
X69127000Y-116500000D01*
X69124560Y-116475224D01*
X69117333Y-116451399D01*
X69105597Y-116429443D01*
X69089803Y-116410197D01*
X69070557Y-116394403D01*
X69048601Y-116382667D01*
X69024776Y-116375440D01*
X69000000Y-116373000D01*
X67627000Y-116373000D01*
X67627000Y-110377000D01*
X69450128Y-110377000D01*
X72913583Y-113593065D01*
G37*
X72913583Y-113593065D02*
X72933399Y-113608136D01*
X72955775Y-113619051D01*
X72979851Y-113625391D01*
X73000000Y-113627000D01*
X76373000Y-113627000D01*
X76373000Y-116373000D01*
X75000000Y-116373000D01*
X74975224Y-116375440D01*
X74951399Y-116382667D01*
X74929443Y-116394403D01*
X74910197Y-116410197D01*
X74894403Y-116429443D01*
X74882667Y-116451399D01*
X74875440Y-116475224D01*
X74873000Y-116500000D01*
X74873000Y-121373000D01*
X69127000Y-121373000D01*
X69127000Y-116500000D01*
X69124560Y-116475224D01*
X69117333Y-116451399D01*
X69105597Y-116429443D01*
X69089803Y-116410197D01*
X69070557Y-116394403D01*
X69048601Y-116382667D01*
X69024776Y-116375440D01*
X69000000Y-116373000D01*
X67627000Y-116373000D01*
X67627000Y-110377000D01*
X69450128Y-110377000D01*
X72913583Y-113593065D01*
M02*
