G04 #@! TF.GenerationSoftware,KiCad,Pcbnew,5.1.6-c6e7f7d~86~ubuntu18.04.1*
G04 #@! TF.CreationDate,2020-06-02T09:04:51-04:00*
G04 #@! TF.ProjectId,E73 SCR v2,45373320-5343-4522-9076-322e6b696361,rev?*
G04 #@! TF.SameCoordinates,Original*
G04 #@! TF.FileFunction,Legend,Top*
G04 #@! TF.FilePolarity,Positive*
%FSLAX46Y46*%
G04 Gerber Fmt 4.6, Leading zero omitted, Abs format (unit mm)*
G04 Created by KiCad (PCBNEW 5.1.6-c6e7f7d~86~ubuntu18.04.1) date 2020-06-02 09:04:51*
%MOMM*%
%LPD*%
G01*
G04 APERTURE LIST*
%ADD10C,0.120000*%
%ADD11C,0.150000*%
G04 APERTURE END LIST*
D10*
X79300000Y-116350000D02*
X80300000Y-116350000D01*
X80300000Y-114650000D02*
X79300000Y-114650000D01*
X87800000Y-121920000D02*
X89000000Y-121920000D01*
X89000000Y-123680000D02*
X87800000Y-123680000D01*
X83000000Y-121920000D02*
X84200000Y-121920000D01*
X84200000Y-123680000D02*
X83000000Y-123680000D01*
X92880000Y-120150000D02*
X92880000Y-121350000D01*
X91120000Y-121350000D02*
X91120000Y-120150000D01*
X95500000Y-122950000D02*
X97000000Y-122950000D01*
X95500000Y-122950000D02*
X95500000Y-119750000D01*
X97000000Y-119750000D02*
X97000000Y-122950000D01*
X93400000Y-120250000D02*
X93400000Y-121250000D01*
X95100000Y-121250000D02*
X95100000Y-120250000D01*
X67450000Y-116800000D02*
X74700000Y-116800000D01*
X67450000Y-113200000D02*
X67450000Y-116800000D01*
X74700000Y-113200000D02*
X67450000Y-113200000D01*
D11*
X50053500Y-114092000D02*
X50053500Y-100842000D01*
X68153500Y-114092000D02*
X50053500Y-114092000D01*
X68153500Y-100842000D02*
X68153500Y-114092000D01*
X50053500Y-100842000D02*
X68153500Y-100842000D01*
D10*
X77700000Y-113360000D02*
X78000000Y-112760000D01*
X78300000Y-113360000D02*
X77700000Y-113360000D01*
X78000000Y-112760000D02*
X78300000Y-113360000D01*
X76390000Y-100440000D02*
X76390000Y-112560000D01*
X81610000Y-100440000D02*
X76390000Y-100440000D01*
X81610000Y-112560000D02*
X81610000Y-100440000D01*
X76390000Y-112560000D02*
X81610000Y-112560000D01*
X81610000Y-102470000D02*
X81100000Y-102470000D01*
X81610000Y-103970000D02*
X81100000Y-103970000D01*
X81610000Y-110530000D02*
X81100000Y-110530000D01*
X81610000Y-109030000D02*
X81100000Y-109030000D01*
X76390000Y-103030000D02*
X76900000Y-103030000D01*
X76390000Y-103970000D02*
X76900000Y-103970000D01*
X76390000Y-109970000D02*
X76900000Y-109970000D01*
X76390000Y-109030000D02*
X76900000Y-109030000D01*
X79900000Y-100440000D02*
X79900000Y-101300000D01*
X79900000Y-112560000D02*
X79900000Y-111700000D01*
X79100000Y-100440000D02*
X79100000Y-101300000D01*
X79100000Y-112560000D02*
X79100000Y-111700000D01*
X76900000Y-101300000D02*
X76900000Y-111700000D01*
X81100000Y-101300000D02*
X76900000Y-101300000D01*
X81100000Y-111700000D02*
X81100000Y-101300000D01*
X76900000Y-111700000D02*
X81100000Y-111700000D01*
D11*
X74393000Y-90960000D02*
X74393000Y-94410000D01*
X67593000Y-90960000D02*
X74393000Y-90960000D01*
X67593000Y-94460000D02*
X67593000Y-90960000D01*
X74393000Y-94460000D02*
X67593000Y-94460000D01*
X97500000Y-100000000D02*
X88500000Y-100000000D01*
X97500000Y-91000000D02*
X97500000Y-100000000D01*
X88500000Y-91000000D02*
X97500000Y-91000000D01*
X88500000Y-100000000D02*
X88500000Y-91000000D01*
D10*
X73150000Y-118750000D02*
X73150000Y-119750000D01*
X74850000Y-119750000D02*
X74850000Y-118750000D01*
X69150000Y-118750000D02*
X69150000Y-119750000D01*
X70850000Y-119750000D02*
X70850000Y-118750000D01*
X72750000Y-102600000D02*
X71750000Y-102600000D01*
X71750000Y-104300000D02*
X72750000Y-104300000D01*
X72750000Y-106350000D02*
X71750000Y-106350000D01*
X71750000Y-108050000D02*
X72750000Y-108050000D01*
X72750000Y-104450000D02*
X71750000Y-104450000D01*
X71750000Y-106150000D02*
X72750000Y-106150000D01*
X82110000Y-119900000D02*
X82110000Y-118100000D01*
X78890000Y-118100000D02*
X78890000Y-120550000D01*
X95890000Y-112100000D02*
X95890000Y-113900000D01*
X99110000Y-113900000D02*
X99110000Y-111450000D01*
D11*
X77170500Y-98402500D02*
X77170500Y-94002500D01*
X85770500Y-98402500D02*
X85770500Y-94002500D01*
X85770500Y-94002500D02*
X77170500Y-94002500D01*
X85770500Y-98402500D02*
X77170500Y-98402500D01*
D10*
X94650000Y-115620000D02*
X95850000Y-115620000D01*
X95850000Y-117380000D02*
X94650000Y-117380000D01*
X77380000Y-118900000D02*
X77380000Y-120100000D01*
X75620000Y-120100000D02*
X75620000Y-118900000D01*
X99380000Y-117400000D02*
X99380000Y-118600000D01*
X97620000Y-118600000D02*
X97620000Y-117400000D01*
X67550000Y-96120000D02*
X68750000Y-96120000D01*
X68750000Y-97880000D02*
X67550000Y-97880000D01*
X52846500Y-117090500D02*
X52846500Y-118290500D01*
X51086500Y-118290500D02*
X51086500Y-117090500D01*
X54846500Y-117140500D02*
X54846500Y-118340500D01*
X53086500Y-118340500D02*
X53086500Y-117140500D01*
X56846500Y-117140500D02*
X56846500Y-118340500D01*
X55086500Y-118340500D02*
X55086500Y-117140500D01*
X90580000Y-116990000D02*
X89650000Y-116990000D01*
X87420000Y-116990000D02*
X88350000Y-116990000D01*
X87420000Y-116990000D02*
X87420000Y-120150000D01*
X90580000Y-116990000D02*
X90580000Y-118450000D01*
X94700000Y-109550000D02*
X99400000Y-109550000D01*
X99400000Y-109550000D02*
X99400000Y-103450000D01*
X99400000Y-103450000D02*
X94700000Y-103450000D01*
X94700000Y-103450000D02*
X94700000Y-109550000D01*
X94700000Y-107000000D02*
X95300000Y-107000000D01*
X95300000Y-107000000D02*
X95300000Y-108950000D01*
X95300000Y-108950000D02*
X98800000Y-108950000D01*
X98800000Y-108950000D02*
X98800000Y-104050000D01*
X98800000Y-104050000D02*
X95300000Y-104050000D01*
X95300000Y-104050000D02*
X95300000Y-106000000D01*
X95300000Y-106000000D02*
X94700000Y-106000000D01*
X96000000Y-109550000D02*
X96000000Y-108950000D01*
X97300000Y-109550000D02*
X97300000Y-108950000D01*
X96000000Y-103450000D02*
X96000000Y-104050000D01*
X97300000Y-103450000D02*
X97300000Y-104050000D01*
X94700000Y-107800000D02*
X94500000Y-107800000D01*
X94500000Y-107800000D02*
X94500000Y-108100000D01*
X94500000Y-108100000D02*
X94700000Y-108100000D01*
X94600000Y-107800000D02*
X94600000Y-108100000D01*
X98800000Y-106600000D02*
X98300000Y-106600000D01*
X98300000Y-106600000D02*
X98300000Y-106400000D01*
X98300000Y-106400000D02*
X98800000Y-106400000D01*
X98800000Y-106500000D02*
X98300000Y-106500000D01*
X94400000Y-108600000D02*
X94400000Y-109850000D01*
X94400000Y-109850000D02*
X95650000Y-109850000D01*
X82700000Y-114550000D02*
X87400000Y-114550000D01*
X87400000Y-114550000D02*
X87400000Y-100450000D01*
X87400000Y-100450000D02*
X82700000Y-100450000D01*
X82700000Y-100450000D02*
X82700000Y-114550000D01*
X82700000Y-112000000D02*
X83300000Y-112000000D01*
X83300000Y-112000000D02*
X83300000Y-113950000D01*
X83300000Y-113950000D02*
X86800000Y-113950000D01*
X86800000Y-113950000D02*
X86800000Y-101050000D01*
X86800000Y-101050000D02*
X83300000Y-101050000D01*
X83300000Y-101050000D02*
X83300000Y-103000000D01*
X83300000Y-103000000D02*
X82700000Y-103000000D01*
X84000000Y-114550000D02*
X84000000Y-113950000D01*
X85300000Y-114550000D02*
X85300000Y-113950000D01*
X84000000Y-100450000D02*
X84000000Y-101050000D01*
X85300000Y-100450000D02*
X85300000Y-101050000D01*
X82700000Y-112800000D02*
X82500000Y-112800000D01*
X82500000Y-112800000D02*
X82500000Y-113100000D01*
X82500000Y-113100000D02*
X82700000Y-113100000D01*
X82600000Y-112800000D02*
X82600000Y-113100000D01*
X86800000Y-111600000D02*
X86300000Y-111600000D01*
X86300000Y-111600000D02*
X86300000Y-111400000D01*
X86300000Y-111400000D02*
X86800000Y-111400000D01*
X86800000Y-111500000D02*
X86300000Y-111500000D01*
X86800000Y-109600000D02*
X86300000Y-109600000D01*
X86300000Y-109600000D02*
X86300000Y-109400000D01*
X86300000Y-109400000D02*
X86800000Y-109400000D01*
X86800000Y-109500000D02*
X86300000Y-109500000D01*
X86800000Y-107600000D02*
X86300000Y-107600000D01*
X86300000Y-107600000D02*
X86300000Y-107400000D01*
X86300000Y-107400000D02*
X86800000Y-107400000D01*
X86800000Y-107500000D02*
X86300000Y-107500000D01*
X86800000Y-105600000D02*
X86300000Y-105600000D01*
X86300000Y-105600000D02*
X86300000Y-105400000D01*
X86300000Y-105400000D02*
X86800000Y-105400000D01*
X86800000Y-105500000D02*
X86300000Y-105500000D01*
X86800000Y-103600000D02*
X86300000Y-103600000D01*
X86300000Y-103600000D02*
X86300000Y-103400000D01*
X86300000Y-103400000D02*
X86800000Y-103400000D01*
X86800000Y-103500000D02*
X86300000Y-103500000D01*
X82400000Y-113600000D02*
X82400000Y-114850000D01*
X82400000Y-114850000D02*
X83650000Y-114850000D01*
X88200000Y-114550000D02*
X92900000Y-114550000D01*
X92900000Y-114550000D02*
X92900000Y-100450000D01*
X92900000Y-100450000D02*
X88200000Y-100450000D01*
X88200000Y-100450000D02*
X88200000Y-114550000D01*
X88200000Y-112000000D02*
X88800000Y-112000000D01*
X88800000Y-112000000D02*
X88800000Y-113950000D01*
X88800000Y-113950000D02*
X92300000Y-113950000D01*
X92300000Y-113950000D02*
X92300000Y-101050000D01*
X92300000Y-101050000D02*
X88800000Y-101050000D01*
X88800000Y-101050000D02*
X88800000Y-103000000D01*
X88800000Y-103000000D02*
X88200000Y-103000000D01*
X89500000Y-114550000D02*
X89500000Y-113950000D01*
X90800000Y-114550000D02*
X90800000Y-113950000D01*
X89500000Y-100450000D02*
X89500000Y-101050000D01*
X90800000Y-100450000D02*
X90800000Y-101050000D01*
X88200000Y-112800000D02*
X88000000Y-112800000D01*
X88000000Y-112800000D02*
X88000000Y-113100000D01*
X88000000Y-113100000D02*
X88200000Y-113100000D01*
X88100000Y-112800000D02*
X88100000Y-113100000D01*
X92300000Y-111600000D02*
X91800000Y-111600000D01*
X91800000Y-111600000D02*
X91800000Y-111400000D01*
X91800000Y-111400000D02*
X92300000Y-111400000D01*
X92300000Y-111500000D02*
X91800000Y-111500000D01*
X92300000Y-109600000D02*
X91800000Y-109600000D01*
X91800000Y-109600000D02*
X91800000Y-109400000D01*
X91800000Y-109400000D02*
X92300000Y-109400000D01*
X92300000Y-109500000D02*
X91800000Y-109500000D01*
X92300000Y-107600000D02*
X91800000Y-107600000D01*
X91800000Y-107600000D02*
X91800000Y-107400000D01*
X91800000Y-107400000D02*
X92300000Y-107400000D01*
X92300000Y-107500000D02*
X91800000Y-107500000D01*
X92300000Y-105600000D02*
X91800000Y-105600000D01*
X91800000Y-105600000D02*
X91800000Y-105400000D01*
X91800000Y-105400000D02*
X92300000Y-105400000D01*
X92300000Y-105500000D02*
X91800000Y-105500000D01*
X92300000Y-103600000D02*
X91800000Y-103600000D01*
X91800000Y-103600000D02*
X91800000Y-103400000D01*
X91800000Y-103400000D02*
X92300000Y-103400000D01*
X92300000Y-103500000D02*
X91800000Y-103500000D01*
X87900000Y-113600000D02*
X87900000Y-114850000D01*
X87900000Y-114850000D02*
X89150000Y-114850000D01*
X54466000Y-91600000D02*
X54466000Y-92050000D01*
X52616000Y-91600000D02*
X54466000Y-91600000D01*
X50066000Y-99400000D02*
X50316000Y-99400000D01*
X50066000Y-91600000D02*
X50316000Y-91600000D01*
X52616000Y-99400000D02*
X54466000Y-99400000D01*
X54466000Y-99400000D02*
X54466000Y-98950000D01*
X55016000Y-93800000D02*
X55016000Y-94250000D01*
X55016000Y-93800000D02*
X54566000Y-93800000D01*
X57225000Y-91370000D02*
X57225000Y-92192470D01*
X57225000Y-94077530D02*
X57225000Y-94900000D01*
X57225000Y-92807530D02*
X57225000Y-93462470D01*
X62240000Y-91370000D02*
X57225000Y-91370000D01*
X63695000Y-94900000D02*
X57225000Y-94900000D01*
X62240000Y-91370000D02*
X62240000Y-91936529D01*
X62240000Y-93063471D02*
X62240000Y-93206529D01*
X62293471Y-93260000D02*
X62436529Y-93260000D01*
X63563471Y-93260000D02*
X63695000Y-93260000D01*
X63695000Y-93260000D02*
X63695000Y-93462470D01*
X63695000Y-94077530D02*
X63695000Y-94900000D01*
X63000000Y-91370000D02*
X63760000Y-91370000D01*
X63760000Y-91370000D02*
X63760000Y-92500000D01*
X86580000Y-116990000D02*
X85650000Y-116990000D01*
X83420000Y-116990000D02*
X84350000Y-116990000D01*
X83420000Y-116990000D02*
X83420000Y-120150000D01*
X86580000Y-116990000D02*
X86580000Y-118450000D01*
X66750000Y-92500000D02*
X66750000Y-95700000D01*
X65250000Y-95700000D02*
X65250000Y-92500000D01*
X65250000Y-95700000D02*
X66750000Y-95700000D01*
D11*
X51266500Y-120640500D02*
X56666500Y-120640500D01*
X51266500Y-123640500D02*
X56766500Y-123640500D01*
X56766500Y-122640500D02*
X56766500Y-123640500D01*
D10*
X78800000Y-122230000D02*
X76800000Y-122230000D01*
X76800000Y-124270000D02*
X78800000Y-124270000D01*
D11*
X71523809Y-112176190D02*
X71523809Y-112652380D01*
X71190476Y-111652380D02*
X71523809Y-112176190D01*
X71857142Y-111652380D01*
X72714285Y-112652380D02*
X72142857Y-112652380D01*
X72428571Y-112652380D02*
X72428571Y-111652380D01*
X72333333Y-111795238D01*
X72238095Y-111890476D01*
X72142857Y-111938095D01*
X78666666Y-113452380D02*
X78666666Y-114166666D01*
X78619047Y-114309523D01*
X78523809Y-114404761D01*
X78380952Y-114452380D01*
X78285714Y-114452380D01*
X79619047Y-113452380D02*
X79142857Y-113452380D01*
X79095238Y-113928571D01*
X79142857Y-113880952D01*
X79238095Y-113833333D01*
X79476190Y-113833333D01*
X79571428Y-113880952D01*
X79619047Y-113928571D01*
X79666666Y-114023809D01*
X79666666Y-114261904D01*
X79619047Y-114357142D01*
X79571428Y-114404761D01*
X79476190Y-114452380D01*
X79238095Y-114452380D01*
X79142857Y-114404761D01*
X79095238Y-114357142D01*
X88357142Y-100500000D02*
X88404761Y-100452380D01*
X88452380Y-100500000D01*
X88404761Y-100547619D01*
X88357142Y-100500000D01*
X88452380Y-100500000D01*
X80166666Y-93404761D02*
X80309523Y-93452380D01*
X80547619Y-93452380D01*
X80642857Y-93404761D01*
X80690476Y-93357142D01*
X80738095Y-93261904D01*
X80738095Y-93166666D01*
X80690476Y-93071428D01*
X80642857Y-93023809D01*
X80547619Y-92976190D01*
X80357142Y-92928571D01*
X80261904Y-92880952D01*
X80214285Y-92833333D01*
X80166666Y-92738095D01*
X80166666Y-92642857D01*
X80214285Y-92547619D01*
X80261904Y-92500000D01*
X80357142Y-92452380D01*
X80595238Y-92452380D01*
X80738095Y-92500000D01*
X81071428Y-92452380D02*
X81309523Y-93452380D01*
X81500000Y-92738095D01*
X81690476Y-93452380D01*
X81928571Y-92452380D01*
X82833333Y-93452380D02*
X82261904Y-93452380D01*
X82547619Y-93452380D02*
X82547619Y-92452380D01*
X82452380Y-92595238D01*
X82357142Y-92690476D01*
X82261904Y-92738095D01*
X96666666Y-101952380D02*
X96666666Y-102666666D01*
X96619047Y-102809523D01*
X96523809Y-102904761D01*
X96380952Y-102952380D01*
X96285714Y-102952380D01*
X97571428Y-101952380D02*
X97380952Y-101952380D01*
X97285714Y-102000000D01*
X97238095Y-102047619D01*
X97142857Y-102190476D01*
X97095238Y-102380952D01*
X97095238Y-102761904D01*
X97142857Y-102857142D01*
X97190476Y-102904761D01*
X97285714Y-102952380D01*
X97476190Y-102952380D01*
X97571428Y-102904761D01*
X97619047Y-102857142D01*
X97666666Y-102761904D01*
X97666666Y-102523809D01*
X97619047Y-102428571D01*
X97571428Y-102380952D01*
X97476190Y-102333333D01*
X97285714Y-102333333D01*
X97190476Y-102380952D01*
X97142857Y-102428571D01*
X97095238Y-102523809D01*
X84666666Y-115452380D02*
X84666666Y-116166666D01*
X84619047Y-116309523D01*
X84523809Y-116404761D01*
X84380952Y-116452380D01*
X84285714Y-116452380D01*
X85571428Y-115785714D02*
X85571428Y-116452380D01*
X85333333Y-115404761D02*
X85095238Y-116119047D01*
X85714285Y-116119047D01*
X89666666Y-115452380D02*
X89666666Y-116166666D01*
X89619047Y-116309523D01*
X89523809Y-116404761D01*
X89380952Y-116452380D01*
X89285714Y-116452380D01*
X90047619Y-115452380D02*
X90666666Y-115452380D01*
X90333333Y-115833333D01*
X90476190Y-115833333D01*
X90571428Y-115880952D01*
X90619047Y-115928571D01*
X90666666Y-116023809D01*
X90666666Y-116261904D01*
X90619047Y-116357142D01*
X90571428Y-116404761D01*
X90476190Y-116452380D01*
X90190476Y-116452380D01*
X90095238Y-116404761D01*
X90047619Y-116357142D01*
M02*
